<svg id="svg" xmlns="http://www.w3.org/2000/svg" xmlns:xlink="http://www.w3.org/1999/xlink" width="150" height="85" viewBox="0, 0, 400,225"><g id="svgg"><path id="path0" d="M150.201 119.634 C 145.956 120.478,142.793 122.853,142.251 125.605 C 142.166 126.038,142.031 126.646,141.952 126.956 C 141.718 127.866,142.074 128.106,144.008 128.339 C 146.338 128.621,147.909 128.522,148.111 128.081 C 148.959 126.238,149.228 125.876,150.253 125.189 C 153.315 123.140,156.443 125.066,156.443 129.001 C 156.443 130.901,156.449 130.897,153.157 131.204 C 151.793 131.332,150.398 131.542,150.057 131.672 C 149.715 131.802,149.226 131.908,148.969 131.908 C 147.193 131.908,142.262 135.055,142.262 136.188 C 142.262 136.384,142.163 136.644,142.042 136.765 C 140.593 138.214,140.608 143.292,142.069 145.884 C 144.458 150.122,151.528 150.646,155.700 146.895 C 157.175 145.569,157.527 145.587,158.710 147.046 C 160.772 149.591,160.896 149.592,163.659 147.095 C 166.083 144.905,166.077 144.929,164.783 142.927 C 163.632 141.147,163.668 141.457,163.585 132.583 L 163.515 125.042 162.679 123.652 C 160.565 120.134,155.650 118.552,150.201 119.634 M219.584 119.738 C 215.663 120.588,213.993 121.772,212.212 124.967 C 210.700 127.679,211.171 128.202,215.349 128.458 L 217.643 128.598 218.276 127.284 C 220.306 123.066,225.461 123.545,226.250 128.026 C 226.710 130.641,226.461 130.869,222.771 131.219 C 221.495 131.340,220.173 131.544,219.834 131.673 C 219.494 131.802,218.982 131.908,218.695 131.908 C 216.194 131.908,212.089 135.135,211.270 137.745 C 208.342 147.080,217.627 153.184,225.339 146.995 C 226.983 145.675,227.356 145.616,228.064 146.565 C 230.328 149.599,230.671 149.629,233.513 147.051 C 236.036 144.761,235.952 145.054,234.656 143.050 C 233.358 141.042,233.455 141.767,233.346 133.258 C 233.230 124.162,233.084 123.511,230.702 121.472 C 228.545 119.626,223.633 118.860,219.584 119.738 M272.950 119.800 C 271.970 119.889,271.064 120.067,270.936 120.195 C 270.808 120.323,270.514 120.428,270.282 120.428 C 269.462 120.428,267.822 121.633,266.489 123.215 C 260.651 130.140,262.082 143.748,269.097 148.017 C 274.099 151.060,282.088 148.874,284.365 143.838 C 286.273 139.618,286.414 138.970,286.402 134.496 L 286.390 130.445 285.428 127.783 C 283.204 121.632,279.415 119.208,272.950 119.800 M181.092 120.139 C 179.731 120.687,179.097 121.199,178.256 122.430 C 177.095 124.127,176.702 124.103,176.702 122.336 C 176.702 120.299,176.559 120.203,173.520 120.203 C 169.748 120.203,170.174 118.388,170.178 134.448 C 170.180 142.739,170.266 148.362,170.395 148.565 C 170.633 148.941,176.489 149.078,176.852 148.715 C 176.956 148.612,177.091 144.155,177.153 138.811 C 177.293 126.671,177.475 126.055,180.927 126.055 C 184.253 126.055,184.400 126.581,184.438 138.578 C 184.462 146.236,184.531 148.379,184.761 148.610 C 185.095 148.944,190.710 149.038,191.034 148.715 C 191.137 148.612,191.272 144.206,191.334 138.924 C 191.461 128.099,191.430 128.287,193.292 126.752 C 194.791 125.516,197.244 125.865,198.150 127.443 C 198.500 128.053,198.537 129.075,198.537 138.116 C 198.537 150.266,198.118 149.085,202.390 148.976 C 204.676 148.919,205.355 148.830,205.527 148.565 C 205.664 148.354,205.724 143.888,205.687 136.635 L 205.627 125.042 204.891 123.536 C 202.439 118.523,194.705 118.249,191.856 123.073 C 191.133 124.297,190.414 124.234,189.928 122.904 C 188.972 120.287,184.327 118.834,181.092 120.139 M301.745 120.289 C 300.518 120.869,299.755 121.600,298.847 123.066 C 298.006 124.424,297.580 124.177,297.580 122.333 C 297.580 120.279,297.459 120.203,294.204 120.203 C 290.420 120.203,290.827 118.463,290.827 134.612 L 290.827 148.314 291.328 148.665 C 291.919 149.079,296.644 149.171,297.370 148.782 C 297.789 148.558,297.805 148.217,297.809 139.722 C 297.812 130.308,297.886 129.573,299.015 127.743 C 300.350 125.579,303.225 125.308,304.585 127.218 C 305.515 128.525,305.667 130.258,305.675 139.722 C 305.685 150.073,305.293 149.015,309.123 149.015 C 312.785 149.015,312.437 150.127,312.437 138.433 C 312.437 125.602,312.191 123.812,310.110 121.451 C 308.616 119.755,304.177 119.139,301.745 120.289 M240.968 120.246 C 240.252 120.652,240.187 120.877,240.184 122.947 C 240.179 125.406,239.845 125.245,245.221 125.380 C 250.784 125.520,250.705 125.460,248.827 128.069 C 246.945 130.681,246.202 131.753,245.758 132.498 C 245.545 132.854,244.679 134.108,243.833 135.284 C 242.987 136.460,241.642 138.384,240.844 139.559 L 239.392 141.696 239.392 144.711 C 239.392 148.465,239.420 148.497,241.789 147.496 C 245.184 146.061,245.621 145.976,249.634 145.976 C 253.629 145.976,253.902 146.030,257.449 147.497 C 259.752 148.450,259.764 148.438,259.764 145.207 L 259.764 142.510 259.032 141.973 C 257.629 140.943,253.450 139.786,251.129 139.786 C 250.322 139.786,249.595 139.680,249.515 139.550 C 249.379 139.330,249.975 137.787,250.293 137.535 C 250.537 137.343,253.764 132.816,254.443 131.715 C 254.798 131.140,255.663 129.910,256.366 128.981 C 258.938 125.585,259.179 125.069,259.272 122.762 C 259.393 119.763,260.116 119.976,249.866 119.984 C 243.994 119.989,241.281 120.069,240.968 120.246 M276.801 125.355 C 279.868 127.576,280.073 140.152,277.091 143.133 C 275.060 145.165,272.141 144.160,271.135 141.083 C 270.204 138.238,270.098 129.714,270.970 127.928 C 271.080 127.703,271.364 127.116,271.601 126.625 C 272.548 124.660,275.012 124.059,276.801 125.355 M156.008 134.842 C 156.593 135.155,156.634 138.684,156.073 140.365 C 154.317 145.626,148.385 145.581,148.349 140.307 C 148.330 137.519,149.889 135.711,152.842 135.097 C 155.508 134.542,155.456 134.547,156.008 134.842 M226.111 135.088 C 226.846 135.813,226.096 140.462,224.971 142.157 C 222.069 146.529,216.664 143.417,218.340 138.340 C 219.112 136.001,224.677 133.673,226.111 135.088 M260.457 152.110 C 259.162 153.169,259.939 155.318,261.617 155.318 C 262.805 155.318,263.365 154.787,263.365 153.659 C 263.365 151.955,261.719 151.078,260.457 152.110 M180.135 152.766 C 179.735 152.927,179.724 175.132,180.124 175.532 C 180.578 175.986,180.973 175.837,181.447 175.034 C 182.061 173.994,182.461 173.892,183.186 174.589 C 185.483 176.798,189.848 176.462,191.852 173.924 C 194.691 170.327,194.635 163.107,191.744 160.039 C 189.818 157.995,186.015 157.701,183.710 159.417 C 182.868 160.044,182.780 159.761,182.780 156.446 C 182.780 152.721,182.210 151.928,180.135 152.766 M243.854 158.487 C 243.571 158.770,243.717 159.481,244.519 161.733 C 245.477 164.422,245.756 165.246,246.690 168.149 C 247.524 170.739,248.909 174.725,249.283 175.610 C 249.453 176.014,250.525 176.215,251.744 176.073 C 252.401 175.996,252.566 175.842,252.966 174.936 C 253.423 173.901,253.563 173.472,254.669 169.724 C 254.979 168.672,255.750 166.342,256.382 164.547 C 258.616 158.200,258.584 157.692,255.995 158.386 C 255.520 158.513,254.361 161.369,254.361 162.413 C 254.361 162.588,254.218 163.064,254.043 163.470 C 253.868 163.877,253.515 164.868,253.259 165.672 C 252.208 168.973,252.057 169.422,251.719 170.231 C 251.205 171.462,250.872 171.276,250.310 169.443 C 248.118 162.291,246.850 158.722,246.393 158.417 C 246.012 158.162,244.127 158.214,243.854 158.487 M260.259 158.514 C 259.804 158.969,259.880 175.321,260.339 175.977 C 260.724 176.527,261.923 176.662,262.705 176.244 C 263.317 175.917,263.394 158.615,262.784 158.381 C 262.171 158.146,260.541 158.232,260.259 158.514 M315.982 158.399 C 315.434 158.543,315.490 158.791,316.151 159.145 C 316.672 159.423,316.714 159.567,316.714 161.078 C 316.714 162.907,316.842 163.421,317.300 163.421 C 317.538 163.421,317.614 163.045,317.614 161.860 C 317.614 159.936,317.874 159.201,318.619 159.014 C 319.815 158.714,318.939 158.231,317.276 158.273 C 316.781 158.286,316.199 158.343,315.982 158.399 M320.810 158.514 C 320.487 158.838,320.442 162.693,320.757 163.190 C 321.061 163.671,321.292 163.319,321.431 162.167 C 321.586 160.888,321.920 160.808,322.296 161.961 C 322.789 163.475,323.134 163.626,323.495 162.485 C 323.819 161.461,324.420 161.158,324.541 161.958 C 324.715 163.105,324.850 163.421,325.166 163.421 C 325.454 163.421,325.497 163.028,325.444 160.889 L 325.380 158.357 324.723 158.404 C 324.006 158.456,323.700 158.780,323.695 159.496 C 323.686 160.740,323.112 160.835,322.561 159.683 C 321.868 158.233,321.402 157.922,320.810 158.514 M139.944 158.770 C 139.827 159.075,140.105 160.384,140.811 162.859 C 141.023 163.602,141.329 164.691,141.492 165.280 C 141.654 165.869,141.849 166.450,141.924 166.571 C 141.998 166.692,142.155 167.325,142.272 167.976 C 142.389 168.628,142.632 169.668,142.812 170.287 C 144.611 176.450,144.505 176.243,145.885 176.249 C 146.870 176.253,147.302 175.816,147.662 174.451 C 147.809 173.894,148.061 172.932,148.222 172.313 C 149.045 169.153,149.310 168.185,149.579 167.361 C 149.741 166.866,149.935 166.182,150.011 165.841 C 150.285 164.616,150.927 165.615,151.641 168.374 C 152.019 169.835,152.128 170.201,153.129 173.402 C 153.937 175.986,154.126 176.243,155.219 176.249 C 156.232 176.254,156.670 175.813,157.018 174.440 C 157.189 173.766,157.492 172.656,157.693 171.975 C 158.435 169.452,158.943 167.547,159.253 166.123 C 159.428 165.318,159.732 164.102,159.930 163.421 C 161.347 158.534,161.348 158.469,160.026 158.469 C 159.067 158.469,158.707 158.842,158.286 160.270 C 158.158 160.703,157.735 162.122,157.346 163.421 C 156.627 165.826,155.782 168.683,155.622 169.248 C 155.471 169.783,154.668 168.859,154.390 167.831 C 154.054 166.587,153.643 165.176,153.108 163.421 C 152.862 162.617,152.493 161.351,152.288 160.608 C 151.754 158.672,151.686 158.590,150.551 158.515 C 149.440 158.441,149.096 158.886,148.585 161.058 C 148.029 163.421,146.948 167.354,146.755 167.715 C 146.636 167.937,146.539 168.373,146.539 168.683 C 146.539 170.395,145.800 169.616,145.072 167.136 C 144.110 163.860,143.915 163.179,143.398 161.283 C 142.703 158.729,142.495 158.469,141.156 158.469 C 140.448 158.469,140.018 158.576,139.944 158.770 M166.706 158.932 C 161.759 160.810,160.489 170.125,164.598 174.388 C 167.003 176.882,172.452 176.820,175.012 174.269 C 176.808 172.479,176.934 171.308,175.365 170.978 L 174.366 170.768 173.227 172.037 C 170.122 175.497,165.455 173.629,165.449 168.925 C 165.447 167.468,165.425 167.473,171.101 167.473 C 177.193 167.473,176.928 167.538,176.925 166.042 C 176.912 160.336,172.003 156.921,166.706 158.932 M202.721 158.903 C 199.750 159.919,198.581 164.655,200.841 166.524 C 201.372 166.964,203.898 168.149,204.305 168.149 C 204.776 168.149,207.715 168.813,208.475 169.092 C 209.503 169.468,210.072 170.266,210.057 171.310 C 210.014 174.445,204.453 174.941,202.428 171.990 C 201.126 170.095,198.590 171.013,199.643 172.999 C 201.511 176.519,208.877 177.462,211.713 174.544 C 215.041 171.120,213.245 167.077,207.878 165.913 C 203.421 164.946,202.724 164.571,202.724 163.142 C 202.724 160.099,208.634 159.733,209.598 162.717 C 209.733 163.136,211.560 163.100,211.990 162.670 C 212.870 161.791,211.027 159.405,209.016 158.820 C 207.431 158.359,204.187 158.402,202.721 158.903 M219.921 158.948 C 215.076 161.088,213.756 169.997,217.670 174.146 C 220.743 177.404,226.741 176.890,229.114 173.166 C 230.636 170.776,228.593 169.883,226.575 172.056 C 223.700 175.149,220.074 174.266,218.931 170.193 C 218.173 167.490,218.208 167.473,224.517 167.473 C 227.293 167.473,229.724 167.412,229.920 167.337 C 231.053 166.902,229.461 161.508,227.716 159.870 C 226.231 158.476,222.097 157.988,219.921 158.948 M238.458 158.886 C 237.944 159.090,237.249 159.589,236.913 159.995 C 236.275 160.766,235.678 160.690,235.678 159.837 C 235.678 159.242,235.205 158.919,234.339 158.923 C 232.902 158.929,232.966 158.505,233.030 167.601 L 233.089 175.914 233.928 176.122 C 234.499 176.263,234.949 176.246,235.335 176.070 L 235.903 175.812 235.911 171.474 C 235.924 164.456,236.807 162.156,239.783 161.394 C 240.311 161.259,240.869 161.106,241.024 161.054 C 241.316 160.956,241.413 159.463,241.169 158.825 C 240.991 158.362,239.707 158.391,238.458 158.886 M270.154 158.863 C 265.913 160.326,264.447 167.972,267.383 173.317 C 269.284 176.778,275.234 177.281,277.590 174.181 C 279.614 171.519,279.740 169.724,277.904 169.724 C 276.838 169.724,276.567 169.937,276.322 170.962 C 275.922 172.638,273.792 174.201,272.341 173.882 C 267.711 172.866,267.671 161.848,272.294 160.847 C 273.982 160.482,275.647 161.547,276.306 163.415 C 277.020 165.437,279.607 165.363,279.117 163.335 C 278.164 159.399,274.255 157.448,270.154 158.863 M285.931 158.896 C 280.830 160.922,279.576 170.089,283.817 174.348 C 286.835 177.377,292.488 176.814,294.984 173.235 C 296.687 170.794,294.576 169.886,292.404 172.126 C 289.316 175.312,285.025 173.914,284.783 169.644 C 284.657 167.405,284.476 167.473,290.514 167.473 C 296.485 167.473,296.231 167.537,296.223 166.042 C 296.193 160.573,290.923 156.914,285.931 158.896 M301.589 158.891 C 297.627 160.263,297.245 165.528,300.971 167.399 C 301.768 167.799,302.622 168.130,302.870 168.134 C 307.196 168.215,310.152 170.713,308.294 172.718 C 306.533 174.619,303.224 174.361,301.342 172.177 C 299.998 170.616,298.030 170.563,298.030 172.088 C 298.030 175.932,307.780 177.801,310.589 174.496 C 312.075 172.748,312.369 170.553,311.362 168.718 C 310.367 166.904,308.788 166.154,304.498 165.456 C 302.283 165.095,301.143 163.890,301.628 162.422 C 302.389 160.116,305.956 159.951,307.825 162.136 C 308.937 163.435,310.861 163.449,310.861 162.159 C 310.861 159.314,305.660 157.482,301.589 158.891 M188.578 161.009 C 191.202 162.558,191.616 170.328,189.202 172.741 C 187.398 174.545,184.533 173.854,183.230 171.299 C 182.570 170.005,182.564 164.503,183.221 163.215 C 184.484 160.739,186.625 159.857,188.578 161.009 M171.362 160.826 C 172.589 161.339,173.966 163.759,173.680 164.901 L 173.542 165.447 169.765 165.447 C 165.605 165.447,165.407 165.388,165.672 164.212 C 166.281 161.513,169.055 159.862,171.362 160.826 M224.481 160.825 C 225.845 161.394,227.227 163.493,227.078 164.767 L 227.012 165.335 223.215 165.397 C 218.920 165.467,218.719 165.408,219.059 164.176 C 219.860 161.274,222.158 159.854,224.481 160.825 M290.406 160.813 C 291.604 161.315,292.716 162.759,292.954 164.120 C 293.185 165.442,293.111 165.465,288.785 165.397 L 284.862 165.335 284.792 164.724 C 284.505 162.238,287.998 159.805,290.406 160.813 " stroke="none" fill="#0e0e0e" fill-rule="evenodd"></path><path id="path1" d="M168.936 6.453 C 168.689 6.507,168.284 6.644,168.036 6.758 C 167.788 6.872,165.531 6.994,163.019 7.028 C 159.756 7.073,158.405 7.168,158.285 7.362 C 158.176 7.539,157.376 7.644,155.986 7.665 C 154.204 7.691,153.799 7.765,153.517 8.115 C 153.256 8.438,152.831 8.543,151.639 8.579 C 150.595 8.611,150.062 8.723,149.983 8.928 C 149.905 9.131,149.446 9.229,148.567 9.229 C 147.851 9.229,146.988 9.373,146.649 9.549 C 146.310 9.725,145.892 9.815,145.719 9.748 C 145.294 9.585,144.067 10.114,144.127 10.435 C 144.157 10.591,143.756 10.719,143.106 10.761 C 142.518 10.799,142.037 10.925,142.037 11.042 C 142.037 11.159,141.657 11.259,141.193 11.263 C 140.729 11.267,140.096 11.416,139.786 11.593 C 139.477 11.770,139.009 11.918,138.747 11.922 C 138.485 11.927,138.014 12.133,137.699 12.380 C 137.384 12.628,136.870 12.831,136.556 12.831 C 136.243 12.831,135.923 12.932,135.847 13.056 C 135.770 13.180,135.412 13.281,135.051 13.281 C 134.599 13.281,134.279 13.456,134.025 13.844 C 133.823 14.153,133.472 14.406,133.246 14.406 C 133.020 14.406,132.772 14.508,132.696 14.631 C 132.619 14.755,132.284 14.860,131.951 14.864 C 131.618 14.868,131.148 15.020,130.908 15.201 C 130.668 15.383,130.312 15.532,130.118 15.532 C 129.924 15.532,129.638 15.734,129.484 15.982 C 129.329 16.230,129.006 16.432,128.766 16.432 C 128.526 16.432,127.854 16.685,127.272 16.995 C 126.689 17.304,126.067 17.558,125.888 17.558 C 125.709 17.558,125.510 17.760,125.445 18.008 C 125.370 18.294,125.138 18.458,124.807 18.458 C 124.521 18.458,124.125 18.619,123.928 18.816 C 123.731 19.013,123.443 19.193,123.287 19.216 C 123.132 19.239,122.787 19.457,122.520 19.702 C 121.629 20.519,121.349 20.709,121.035 20.709 C 120.536 20.709,119.281 21.403,119.147 21.753 C 119.079 21.929,118.580 22.275,118.038 22.522 C 117.495 22.769,117.051 23.076,117.051 23.204 C 117.051 23.332,116.958 23.379,116.844 23.309 C 116.730 23.238,116.452 23.410,116.225 23.689 C 115.999 23.969,115.509 24.349,115.138 24.533 C 114.766 24.717,114.068 25.251,113.586 25.720 C 113.105 26.189,112.668 26.530,112.615 26.478 C 112.563 26.425,112.127 26.752,111.646 27.204 C 110.603 28.183,110.261 28.467,109.961 28.600 C 109.837 28.655,109.761 28.776,109.792 28.869 C 109.823 28.962,109.723 29.038,109.571 29.038 C 109.419 29.038,108.884 29.478,108.383 30.016 C 107.882 30.554,107.247 31.115,106.972 31.262 C 106.697 31.409,106.472 31.678,106.472 31.859 C 106.472 32.041,106.396 32.189,106.303 32.189 C 106.013 32.190,104.446 33.678,104.446 33.953 C 104.446 34.097,104.311 34.215,104.147 34.215 C 103.815 34.215,102.871 35.139,102.868 35.468 C 102.867 35.583,102.544 35.931,102.151 36.241 C 101.758 36.550,101.328 36.944,101.196 37.115 C 101.065 37.286,100.600 37.792,100.165 38.240 C 99.729 38.688,98.974 39.586,98.486 40.236 C 97.999 40.886,97.520 41.418,97.421 41.418 C 97.323 41.418,97.243 41.570,97.243 41.756 C 97.243 41.941,97.155 42.093,97.048 42.093 C 96.941 42.093,96.562 42.524,96.205 43.050 C 95.848 43.576,95.502 44.057,95.437 44.119 C 95.372 44.181,95.127 44.536,94.892 44.907 C 94.657 45.279,94.278 45.716,94.049 45.879 C 93.820 46.042,93.689 46.267,93.758 46.377 C 93.826 46.488,93.676 46.785,93.424 47.037 C 93.172 47.289,92.966 47.635,92.966 47.805 C 92.966 47.975,92.615 48.497,92.186 48.966 C 91.757 49.434,91.460 49.903,91.525 50.008 C 91.590 50.114,91.486 50.261,91.293 50.335 C 91.100 50.409,90.990 50.547,91.049 50.641 C 91.107 50.736,90.904 51.105,90.598 51.462 C 90.291 51.819,90.040 52.225,90.040 52.364 C 90.040 52.504,89.887 52.744,89.702 52.898 C 89.516 53.052,89.364 53.369,89.364 53.601 C 89.364 53.833,89.270 54.024,89.154 54.024 C 89.038 54.024,88.912 54.302,88.873 54.643 C 88.833 54.983,88.689 55.241,88.552 55.216 C 88.415 55.191,88.176 55.444,88.020 55.779 C 87.864 56.113,87.646 56.563,87.537 56.778 C 87.428 56.993,87.338 57.310,87.338 57.482 C 87.338 57.654,87.186 57.921,87.001 58.075 C 86.815 58.230,86.663 58.530,86.663 58.743 C 86.663 58.957,86.460 59.314,86.213 59.539 C 85.965 59.763,85.763 60.226,85.763 60.568 C 85.763 60.910,85.650 61.227,85.512 61.273 C 85.374 61.319,85.231 61.625,85.195 61.953 C 85.159 62.282,84.912 62.784,84.646 63.069 C 84.381 63.355,84.208 63.759,84.263 63.969 C 84.317 64.178,84.221 64.403,84.049 64.469 C 83.853 64.544,83.737 64.931,83.737 65.504 C 83.737 66.109,83.622 66.462,83.399 66.548 C 83.213 66.619,83.061 66.951,83.061 67.286 C 83.061 67.621,82.880 68.091,82.659 68.331 C 82.437 68.571,82.232 69.173,82.202 69.668 C 82.172 70.163,82.024 70.670,81.873 70.793 C 81.722 70.917,81.563 71.373,81.521 71.806 C 81.479 72.240,81.373 72.696,81.287 72.819 C 81.201 72.943,81.104 73.348,81.071 73.720 C 81.038 74.091,80.737 74.976,80.404 75.686 L 79.797 76.978 75.183 76.988 C 71.694 76.996,70.472 77.071,70.172 77.299 C 69.934 77.480,69.431 77.560,68.910 77.499 C 67.841 77.376,66.199 77.795,66.031 78.234 C 65.937 78.477,65.488 78.559,64.255 78.559 C 63.347 78.559,62.541 78.661,62.465 78.784 C 62.388 78.908,61.765 79.010,61.080 79.010 C 60.175 79.010,59.678 79.133,59.262 79.460 C 58.948 79.707,58.498 79.910,58.263 79.910 C 58.028 79.910,57.778 80.062,57.707 80.248 C 57.635 80.433,57.355 80.585,57.083 80.585 C 56.812 80.585,56.478 80.697,56.342 80.833 C 56.206 80.969,55.729 81.116,55.281 81.159 C 54.305 81.254,54.024 81.405,54.024 81.837 C 54.024 82.057,53.772 82.161,53.236 82.161 C 52.802 82.161,52.448 82.262,52.448 82.386 C 52.448 82.510,52.141 82.611,51.766 82.611 C 51.367 82.611,51.029 82.751,50.954 82.949 C 50.882 83.134,50.648 83.286,50.433 83.286 C 50.218 83.286,49.858 83.489,49.634 83.737 C 49.410 83.984,49.033 84.187,48.795 84.187 C 48.558 84.187,48.211 84.340,48.024 84.527 C 47.837 84.713,47.593 84.810,47.481 84.740 C 47.368 84.671,47.049 84.826,46.772 85.084 C 46.494 85.343,46.037 85.613,45.756 85.683 C 45.475 85.754,45.245 85.902,45.245 86.012 C 45.245 86.122,45.039 86.213,44.788 86.213 C 44.536 86.213,44.272 86.365,44.201 86.550 C 44.129 86.736,43.905 86.888,43.701 86.889 C 43.498 86.890,42.946 87.244,42.475 87.677 C 42.004 88.110,41.472 88.464,41.293 88.464 C 41.114 88.464,40.968 88.541,40.968 88.635 C 40.968 88.729,40.755 88.939,40.494 89.101 C 40.102 89.347,40.050 89.346,40.194 89.099 C 40.290 88.935,40.022 89.156,39.599 89.590 C 39.176 90.024,38.551 90.503,38.210 90.655 C 37.870 90.806,37.591 91.034,37.591 91.160 C 37.591 91.287,37.436 91.390,37.247 91.390 C 37.057 91.390,36.844 91.542,36.772 91.728 C 36.701 91.913,36.524 92.065,36.379 92.065 C 36.087 92.065,34.662 93.302,34.636 93.578 C 34.627 93.674,34.529 93.728,34.418 93.697 C 34.306 93.666,34.215 93.742,34.215 93.866 C 34.215 93.990,34.106 94.091,33.972 94.091 C 33.729 94.091,28.025 99.711,28.025 99.950 C 28.025 100.020,27.772 100.339,27.462 100.659 C 27.153 100.979,26.545 101.715,26.111 102.293 C 25.678 102.872,25.096 103.588,24.817 103.885 C 24.539 104.182,24.311 104.524,24.311 104.645 C 24.311 104.765,23.956 105.240,23.523 105.699 C 23.089 106.159,22.735 106.658,22.735 106.808 C 22.735 106.958,22.482 107.354,22.172 107.688 C 21.863 108.022,21.609 108.347,21.609 108.410 C 21.609 108.472,21.317 108.898,20.961 109.355 C 20.604 109.812,20.247 110.464,20.168 110.805 C 20.090 111.145,19.926 111.424,19.804 111.424 C 19.683 111.424,19.584 111.721,19.584 112.084 C 19.584 112.523,19.447 112.787,19.176 112.873 C 18.789 112.996,18.008 114.417,18.008 114.998 C 18.008 115.147,17.805 115.487,17.558 115.752 C 17.310 116.018,17.107 116.408,17.107 116.619 C 17.107 116.830,16.956 117.061,16.770 117.133 C 16.572 117.208,16.432 117.546,16.432 117.945 C 16.432 118.320,16.331 118.627,16.207 118.627 C 16.083 118.627,15.982 118.927,15.982 119.294 C 15.982 119.721,15.827 120.045,15.552 120.192 C 15.292 120.331,15.062 120.779,14.970 121.325 C 14.886 121.822,14.725 122.228,14.612 122.228 C 14.499 122.228,14.406 122.676,14.406 123.223 C 14.406 123.769,14.293 124.254,14.155 124.300 C 14.017 124.346,13.863 124.785,13.813 125.276 C 13.695 126.424,13.558 126.789,13.306 126.633 C 13.015 126.453,12.831 127.064,12.831 128.212 C 12.831 128.759,12.729 129.207,12.606 129.207 C 12.480 129.207,12.380 129.820,12.380 130.596 C 12.380 131.504,12.266 132.112,12.049 132.352 C 11.855 132.565,11.656 133.418,11.572 134.395 C 11.493 135.317,11.286 136.370,11.112 136.734 C 10.690 137.618,10.665 155.684,11.086 155.824 C 11.230 155.872,11.372 156.310,11.400 156.797 C 11.517 158.784,11.754 160.050,12.040 160.212 C 12.231 160.319,12.363 160.882,12.397 161.733 C 12.426 162.476,12.539 163.200,12.648 163.341 C 12.757 163.483,12.856 164.069,12.867 164.643 C 12.882 165.382,13.008 165.771,13.300 165.975 C 13.526 166.134,13.750 166.613,13.797 167.039 C 13.844 167.466,14.000 168.035,14.144 168.304 C 14.288 168.574,14.406 169.042,14.406 169.344 C 14.406 169.647,14.560 170.021,14.747 170.177 C 14.934 170.332,15.074 170.573,15.058 170.711 C 14.960 171.538,15.124 172.028,15.532 172.135 C 15.870 172.224,15.982 172.442,15.982 173.014 C 15.982 173.433,16.083 173.776,16.207 173.776 C 16.331 173.776,16.432 174.002,16.432 174.279 C 16.432 174.798,17.539 177.207,17.839 177.340 C 17.932 177.381,18.008 177.648,18.008 177.932 C 18.008 178.216,18.160 178.574,18.346 178.728 C 18.531 178.882,18.683 179.147,18.683 179.317 C 18.683 179.486,18.886 179.751,19.133 179.906 C 19.381 180.061,19.584 180.322,19.584 180.487 C 19.584 180.651,19.736 180.939,19.923 181.126 C 20.110 181.313,20.213 181.547,20.151 181.647 C 20.089 181.747,20.190 181.954,20.374 182.107 C 20.558 182.260,20.709 182.572,20.709 182.800 C 20.709 183.028,20.912 183.323,21.159 183.455 C 21.407 183.588,21.609 183.803,21.609 183.934 C 21.609 184.276,23.436 186.832,23.681 186.832 C 23.794 186.832,23.831 186.922,23.764 187.031 C 23.696 187.141,23.791 187.356,23.975 187.509 C 24.160 187.662,24.311 187.890,24.311 188.015 C 24.311 188.295,25.378 189.308,25.673 189.308 C 25.790 189.308,25.886 189.505,25.886 189.747 C 25.886 189.988,26.064 190.289,26.280 190.415 C 26.497 190.541,26.591 190.648,26.489 190.652 C 26.388 190.655,26.482 190.836,26.698 191.052 C 26.915 191.269,27.141 191.414,27.201 191.375 C 27.261 191.335,27.441 191.615,27.601 191.995 C 27.761 192.376,28.150 192.786,28.465 192.906 C 28.780 193.025,29.038 193.258,29.038 193.422 C 29.038 193.791,30.421 195.160,30.793 195.160 C 30.942 195.160,31.064 195.369,31.064 195.624 C 31.064 195.879,31.153 196.032,31.263 195.964 C 31.373 195.896,31.518 196.052,31.586 196.311 C 31.653 196.570,31.806 196.721,31.925 196.647 C 32.044 196.574,32.200 196.665,32.271 196.850 C 32.342 197.035,32.555 197.186,32.745 197.186 C 32.934 197.186,33.089 197.321,33.089 197.485 C 33.089 197.847,34.027 198.762,34.398 198.762 C 34.545 198.762,34.665 198.863,34.665 198.987 C 34.665 199.111,34.823 199.212,35.016 199.212 C 35.209 199.212,35.313 199.300,35.247 199.407 C 35.109 199.630,35.878 200.401,36.058 200.220 C 36.123 200.155,36.305 200.256,36.461 200.445 C 36.618 200.633,36.874 200.788,37.030 200.788 C 37.186 200.788,37.366 200.987,37.430 201.231 C 37.493 201.474,37.935 201.854,38.411 202.075 C 38.887 202.296,39.608 202.804,40.014 203.204 C 40.419 203.604,40.799 203.933,40.859 203.935 C 40.919 203.938,41.126 203.939,41.319 203.939 C 41.512 203.939,41.609 204.038,41.535 204.158 C 41.460 204.278,41.650 204.439,41.955 204.516 C 42.261 204.592,42.686 204.848,42.900 205.085 C 43.114 205.321,43.442 205.515,43.629 205.515 C 43.816 205.515,43.904 205.580,43.825 205.659 C 43.636 205.849,45.122 206.640,45.668 206.640 C 45.903 206.640,46.145 206.841,46.210 207.091 C 46.275 207.338,46.497 207.541,46.703 207.541 C 46.909 207.541,47.230 207.693,47.415 207.878 C 47.601 208.064,47.999 208.216,48.300 208.216 C 48.600 208.216,48.846 208.317,48.846 208.441 C 48.846 208.565,49.005 208.666,49.199 208.666 C 49.393 208.666,49.898 208.931,50.322 209.254 C 50.759 209.587,51.244 209.784,51.441 209.708 C 51.641 209.631,51.844 209.717,51.918 209.908 C 51.990 210.097,52.329 210.242,52.697 210.242 C 53.055 210.242,53.348 210.343,53.348 210.467 C 53.348 210.591,53.602 210.692,53.911 210.692 C 54.221 210.692,54.474 210.769,54.474 210.863 C 54.474 211.165,55.444 211.651,56.265 211.761 C 56.704 211.820,57.113 211.936,57.175 212.020 C 57.237 212.103,57.676 212.202,58.151 212.239 C 58.625 212.275,59.200 212.492,59.429 212.721 C 59.657 212.949,60.308 213.205,60.876 213.291 C 61.443 213.376,61.963 213.535,62.031 213.644 C 62.098 213.754,62.629 213.847,63.210 213.852 C 63.790 213.856,64.519 214.004,64.828 214.181 C 65.138 214.358,65.907 214.506,66.538 214.511 C 67.340 214.516,67.837 214.650,68.186 214.953 C 68.613 215.323,69.055 215.389,71.203 215.402 C 72.671 215.411,73.751 215.512,73.795 215.644 C 73.896 215.949,351.875 215.958,352.181 215.653 C 352.300 215.534,353.043 215.417,353.833 215.393 C 354.914 215.361,355.357 215.247,355.625 214.934 C 355.852 214.669,356.282 214.519,356.815 214.519 C 357.274 214.519,357.801 214.367,357.987 214.181 C 358.173 213.995,358.661 213.840,359.072 213.836 C 359.483 213.831,360.073 213.683,360.383 213.506 C 360.692 213.329,361.183 213.181,361.473 213.176 C 361.807 213.171,362.044 213.003,362.118 212.718 C 362.199 212.409,362.425 212.268,362.840 212.268 C 363.172 212.268,363.540 212.173,363.658 212.056 C 363.775 211.940,364.159 211.793,364.511 211.730 C 364.862 211.667,365.335 211.402,365.561 211.141 C 365.787 210.880,366.183 210.651,366.441 210.632 C 366.699 210.612,366.911 210.517,366.911 210.419 C 366.911 210.322,367.102 210.242,367.337 210.242 C 367.571 210.242,367.821 210.089,367.893 209.902 C 367.965 209.715,368.102 209.575,368.199 209.591 C 368.581 209.654,368.935 209.558,368.910 209.398 C 368.829 208.886,368.991 208.666,369.451 208.666 C 369.915 208.666,370.700 208.141,371.889 207.034 C 372.122 206.818,372.460 206.640,372.639 206.640 C 372.819 206.640,373.047 206.506,373.146 206.342 C 373.245 206.178,373.503 205.979,373.720 205.899 C 373.936 205.819,374.116 205.624,374.119 205.466 C 374.121 205.307,374.570 204.878,375.116 204.511 C 375.662 204.145,376.090 203.788,376.068 203.719 C 375.976 203.434,377.021 202.364,377.391 202.364 C 377.611 202.364,377.723 202.297,377.642 202.215 C 377.560 202.133,377.695 201.925,377.942 201.752 C 378.189 201.579,378.391 201.335,378.391 201.209 C 378.391 200.913,378.849 200.464,379.344 200.277 C 379.559 200.196,379.913 199.719,380.130 199.218 C 380.347 198.718,380.703 198.251,380.921 198.182 C 381.282 198.068,381.415 197.807,381.343 197.355 C 381.329 197.262,381.448 197.186,381.608 197.186 C 381.769 197.186,382.084 196.739,382.310 196.193 C 382.550 195.608,382.903 195.151,383.166 195.082 C 383.412 195.018,383.551 194.866,383.476 194.743 C 383.400 194.621,383.491 194.369,383.678 194.182 C 383.865 193.995,384.018 193.632,384.018 193.376 C 384.018 193.119,384.159 192.909,384.331 192.909 C 384.612 192.909,385.594 191.183,385.594 190.688 C 385.594 190.578,385.746 190.362,385.931 190.208 C 386.117 190.054,386.269 189.712,386.269 189.447 C 386.269 189.182,386.472 188.839,386.719 188.685 C 387.026 188.493,387.169 188.160,387.169 187.636 C 387.169 187.214,387.272 186.835,387.398 186.793 C 387.524 186.751,387.667 186.400,387.716 186.014 C 387.765 185.627,387.952 185.020,388.131 184.664 C 388.310 184.309,388.530 183.715,388.619 183.345 C 388.708 182.975,388.876 182.613,388.992 182.542 C 389.108 182.470,389.226 181.861,389.255 181.189 C 389.284 180.516,389.434 179.832,389.589 179.669 C 389.766 179.482,389.871 178.706,389.871 177.587 C 389.871 176.605,389.962 175.802,390.074 175.802 C 390.910 175.802,391.139 165.937,390.329 164.819 C 389.987 164.348,389.878 163.801,389.849 162.409 C 389.829 161.418,389.718 160.425,389.602 160.201 C 389.485 159.977,389.353 159.369,389.307 158.850 C 389.262 158.331,389.015 157.481,388.760 156.961 C 388.504 156.441,388.295 155.808,388.295 155.554 C 388.295 155.300,388.207 155.093,388.099 155.093 C 387.992 155.093,387.848 154.673,387.779 154.160 C 387.710 153.647,387.532 153.152,387.383 153.060 C 387.235 152.968,387.113 152.616,387.113 152.276 C 387.113 151.863,386.974 151.623,386.691 151.549 C 386.400 151.473,386.269 151.235,386.269 150.783 C 386.269 150.407,386.125 150.071,385.931 149.997 C 385.746 149.926,385.590 149.600,385.586 149.272 C 385.582 148.945,385.283 148.272,384.921 147.777 C 384.558 147.282,384.048 146.435,383.785 145.894 C 383.523 145.354,383.113 144.861,382.875 144.799 C 382.637 144.737,382.442 144.544,382.442 144.371 C 382.442 143.688,381.220 142.037,380.715 142.037 C 380.551 142.037,380.416 141.835,380.416 141.587 C 380.416 141.339,380.327 141.137,380.218 141.137 C 380.108 141.137,379.958 140.959,379.883 140.743 C 379.715 140.254,378.234 138.412,378.041 138.452 C 377.885 138.485,377.467 138.107,375.802 136.425 C 375.183 135.800,374.587 135.287,374.478 135.286 C 374.368 135.285,374.090 135.066,373.859 134.800 C 373.628 134.533,373.438 134.380,373.438 134.460 C 373.438 134.539,373.236 134.431,372.988 134.219 C 372.741 134.007,372.538 133.704,372.538 133.546 C 372.538 133.388,372.335 133.258,372.088 133.258 C 371.840 133.258,371.638 133.164,371.638 133.048 C 371.638 132.933,371.424 132.771,371.163 132.688 C 370.902 132.605,370.489 132.370,370.244 132.166 C 369.999 131.962,369.592 131.620,369.339 131.406 C 369.085 131.192,368.802 131.064,368.708 131.122 C 368.614 131.180,368.412 131.077,368.259 130.892 C 368.106 130.708,367.764 130.557,367.500 130.557 C 367.235 130.557,366.892 130.355,366.738 130.107 C 366.583 129.859,366.318 129.657,366.148 129.657 C 365.979 129.657,365.714 129.505,365.560 129.319 C 365.406 129.133,364.938 128.981,364.519 128.981 C 364.101 128.981,363.759 128.880,363.759 128.756 C 363.759 128.633,363.518 128.531,363.224 128.531 C 362.929 128.531,362.547 128.318,362.373 128.055 C 362.166 127.744,361.748 127.546,361.163 127.482 C 360.672 127.429,360.236 127.288,360.195 127.170 C 360.154 127.052,359.616 126.956,359.000 126.956 C 358.384 126.956,357.936 126.865,358.005 126.754 C 358.168 126.490,357.785 126.368,356.603 126.309 C 356.022 126.280,355.473 126.098,355.227 125.852 C 354.901 125.526,354.411 125.433,352.823 125.398 C 350.447 125.346,350.752 125.597,350.671 123.623 C 350.622 122.429,350.495 121.864,350.203 121.552 C 349.981 121.313,349.803 120.779,349.803 120.352 C 349.803 119.929,349.651 119.456,349.465 119.302 C 349.271 119.141,349.128 118.650,349.128 118.149 C 349.128 117.669,349.026 117.276,348.903 117.276 C 348.779 117.276,348.678 116.993,348.678 116.646 C 348.678 116.299,348.551 115.879,348.396 115.713 C 348.167 115.466,348.178 115.445,348.452 115.598 C 348.743 115.761,348.747 115.734,348.481 115.406 C 348.311 115.197,348.033 115.025,347.862 115.025 C 347.651 115.025,347.552 114.742,347.552 114.138 C 347.552 113.650,347.451 113.189,347.327 113.112 C 347.203 113.035,347.102 112.745,347.102 112.466 C 347.102 112.188,346.953 111.763,346.771 111.523 C 346.590 111.283,346.438 110.862,346.434 110.588 C 346.430 110.313,346.224 109.981,345.976 109.848 C 345.700 109.700,345.523 109.372,345.519 108.996 C 345.515 108.660,345.366 108.193,345.189 107.958 C 345.011 107.723,344.919 107.444,344.985 107.337 C 345.051 107.231,344.946 107.083,344.753 107.009 C 344.559 106.934,344.401 106.733,344.401 106.560 C 344.401 106.388,344.299 106.246,344.176 106.246 C 344.052 106.246,343.950 106.095,343.950 105.909 C 343.950 105.723,343.849 105.571,343.725 105.571 C 343.602 105.571,343.500 105.273,343.500 104.909 C 343.500 104.545,343.383 104.175,343.240 104.087 C 343.066 103.979,343.040 104.030,343.161 104.242 C 343.296 104.479,343.274 104.496,343.072 104.310 C 342.923 104.174,342.786 103.852,342.767 103.594 C 342.747 103.337,342.651 103.176,342.553 103.237 C 342.455 103.297,342.375 103.189,342.375 102.996 C 342.375 102.803,342.273 102.645,342.150 102.645 C 342.026 102.645,341.925 102.455,341.925 102.222 C 341.925 101.990,341.774 101.674,341.589 101.521 C 341.405 101.368,341.305 101.160,341.368 101.059 C 341.431 100.958,341.252 100.714,340.972 100.518 C 340.691 100.321,340.496 100.105,340.538 100.037 C 340.615 99.913,340.027 99.023,339.505 98.472 C 339.350 98.309,339.223 98.082,339.223 97.969 C 339.223 97.855,339.021 97.579,338.773 97.355 C 338.526 97.131,338.323 96.819,338.323 96.661 C 338.323 96.504,338.095 96.190,337.817 95.963 C 337.088 95.371,336.513 94.617,336.972 94.856 C 337.158 94.953,336.930 94.667,336.466 94.221 C 336.002 93.775,335.622 93.266,335.622 93.090 C 335.622 92.915,335.419 92.707,335.172 92.628 C 334.924 92.549,334.721 92.391,334.721 92.275 C 334.721 92.160,334.594 92.065,334.439 92.065 C 334.283 92.065,334.011 91.736,333.833 91.334 C 333.477 90.529,329.221 86.161,329.004 86.378 C 328.930 86.452,328.869 86.344,328.869 86.138 C 328.869 85.931,328.742 85.763,328.586 85.763 C 328.430 85.763,327.978 85.408,327.580 84.975 C 327.182 84.541,326.702 84.187,326.512 84.187 C 326.323 84.187,326.168 84.059,326.168 83.903 C 326.168 83.631,325.928 83.412,323.836 81.765 C 323.323 81.362,322.795 80.944,322.661 80.836 C 322.528 80.729,322.199 80.570,321.930 80.485 C 321.661 80.400,321.441 80.229,321.441 80.107 C 321.441 79.984,321.339 79.946,321.216 80.023 C 321.092 80.099,320.990 80.048,320.990 79.910 C 320.990 79.772,320.889 79.721,320.765 79.797 C 320.642 79.874,320.540 79.786,320.540 79.602 C 320.540 79.264,319.376 78.559,318.817 78.559 C 318.651 78.559,318.514 78.409,318.514 78.226 C 318.514 78.043,318.261 77.829,317.952 77.751 C 317.642 77.674,317.389 77.469,317.389 77.297 C 317.389 77.125,317.171 76.984,316.906 76.984 C 316.640 76.984,315.961 76.605,315.397 76.143 C 314.833 75.681,314.462 75.453,314.573 75.637 C 314.788 75.994,314.070 75.527,313.765 75.112 C 313.690 75.011,313.488 74.904,313.315 74.876 C 313.141 74.847,312.778 74.702,312.508 74.553 C 312.237 74.404,311.819 74.282,311.577 74.282 C 311.328 74.282,311.088 74.088,311.021 73.832 C 310.952 73.569,310.714 73.382,310.448 73.382 C 310.198 73.382,309.841 73.230,309.655 73.044 C 309.469 72.859,309.006 72.707,308.626 72.707 C 308.246 72.707,307.935 72.622,307.935 72.518 C 307.935 72.267,306.903 71.806,306.341 71.806 C 306.096 71.806,305.845 71.676,305.784 71.517 C 305.723 71.358,305.402 71.206,305.072 71.179 C 304.741 71.151,304.403 71.019,304.321 70.886 C 304.238 70.752,304.106 70.651,304.027 70.662 C 302.988 70.801,302.348 70.636,302.234 70.201 C 302.152 69.886,301.991 69.767,301.765 69.854 C 301.576 69.927,301.358 69.884,301.282 69.760 C 301.205 69.636,300.974 69.550,300.768 69.571 C 300.080 69.638,299.803 69.557,299.944 69.330 C 300.029 69.193,299.683 69.105,299.057 69.105 C 298.492 69.105,298.030 69.004,298.030 68.880 C 298.030 68.756,297.529 68.655,296.916 68.655 C 296.057 68.655,295.671 68.533,295.227 68.122 C 294.761 67.690,294.385 67.582,293.255 67.557 C 292.487 67.539,291.758 67.425,291.635 67.302 C 291.513 67.180,290.504 67.079,289.393 67.079 C 287.786 67.079,287.285 66.999,286.938 66.685 C 286.540 66.325,285.777 66.292,277.884 66.292 C 269.991 66.292,269.228 66.325,268.830 66.685 C 268.483 66.999,267.982 67.079,266.375 67.079 C 265.264 67.079,264.255 67.180,264.133 67.302 C 264.010 67.425,263.276 67.540,262.500 67.557 C 261.456 67.581,260.963 67.702,260.596 68.027 C 260.324 68.267,260.244 68.390,260.417 68.300 C 260.625 68.192,260.679 68.224,260.573 68.395 C 260.481 68.544,259.843 68.655,259.075 68.655 C 258.274 68.655,257.738 68.752,257.738 68.896 C 257.738 69.029,257.586 68.985,257.400 68.800 C 257.214 68.614,257.062 68.097,257.062 67.651 C 257.062 67.205,256.936 66.791,256.781 66.732 C 256.626 66.672,256.474 66.245,256.444 65.782 C 256.409 65.268,256.213 64.796,255.937 64.567 C 255.689 64.362,255.487 64.002,255.487 63.768 C 255.487 63.534,255.367 63.223,255.220 63.076 C 255.074 62.929,254.929 62.631,254.899 62.412 C 254.780 61.556,254.054 59.830,253.765 59.720 C 253.598 59.656,253.461 59.361,253.461 59.064 C 253.461 58.768,253.354 58.526,253.223 58.526 C 253.091 58.526,253.047 58.424,253.123 58.301 C 253.200 58.177,253.155 58.075,253.024 58.075 C 252.893 58.075,252.786 57.973,252.786 57.848 C 252.786 57.332,251.812 55.599,251.523 55.599 C 251.327 55.599,251.210 55.352,251.210 54.937 C 251.210 54.573,251.109 54.213,250.985 54.136 C 250.861 54.060,250.760 53.784,250.760 53.523 C 250.760 53.262,250.700 53.107,250.628 53.180 C 250.437 53.371,249.634 52.628,249.634 52.260 C 249.634 51.895,248.701 50.120,248.451 50.009 C 248.357 49.967,248.342 49.834,248.417 49.712 C 248.493 49.591,248.355 49.439,248.111 49.376 C 247.844 49.306,247.554 48.913,247.381 48.389 C 247.223 47.911,246.956 47.467,246.788 47.402 C 246.620 47.338,246.483 47.145,246.483 46.975 C 246.483 46.805,246.280 46.482,246.033 46.258 C 245.785 46.034,245.582 45.750,245.582 45.627 C 245.582 45.504,245.228 44.971,244.795 44.442 C 244.361 43.913,244.007 43.377,244.007 43.250 C 244.007 43.123,243.782 42.862,243.506 42.669 C 243.231 42.476,243.083 42.319,243.178 42.319 C 243.272 42.319,243.219 42.177,243.059 42.004 C 242.899 41.830,242.731 41.724,242.686 41.768 C 242.569 41.879,241.981 41.266,241.981 41.034 C 241.981 40.929,241.774 40.666,241.521 40.449 C 241.268 40.233,241.117 39.965,241.186 39.854 C 241.254 39.744,241.042 39.443,240.715 39.185 C 240.387 38.928,240.176 38.717,240.245 38.717 C 240.314 38.717,239.992 38.312,239.530 37.817 C 239.069 37.321,238.570 36.916,238.422 36.916 C 238.275 36.916,238.154 36.834,238.154 36.733 C 238.154 36.633,237.977 36.349,237.760 36.102 C 237.544 35.855,237.254 35.456,237.117 35.216 C 236.979 34.975,236.770 34.778,236.650 34.778 C 236.418 34.778,235.678 34.106,235.678 33.895 C 235.678 33.689,234.712 32.639,234.522 32.639 C 234.426 32.639,233.760 32.057,233.043 31.345 C 232.326 30.633,231.663 30.076,231.570 30.107 C 231.477 30.138,231.401 30.077,231.401 29.971 C 231.401 29.661,230.073 28.362,229.756 28.362 C 229.596 28.362,228.996 27.907,228.422 27.349 C 227.849 26.792,227.328 26.337,227.265 26.337 C 227.201 26.337,226.764 25.982,226.293 25.550 C 225.822 25.117,225.293 24.762,225.119 24.762 C 224.944 24.761,224.513 24.439,224.162 24.045 C 223.810 23.651,223.523 23.402,223.523 23.491 C 223.523 23.580,223.301 23.446,223.030 23.194 C 222.759 22.941,222.405 22.735,222.242 22.735 C 222.080 22.735,221.947 22.634,221.947 22.510 C 221.947 22.386,221.769 22.285,221.550 22.285 C 221.332 22.285,221.053 22.057,220.931 21.778 C 220.794 21.465,220.473 21.245,220.090 21.201 C 219.750 21.161,219.471 21.035,219.471 20.919 C 219.471 20.804,219.212 20.709,218.895 20.709 C 218.578 20.709,218.372 20.624,218.436 20.520 C 218.565 20.311,217.285 19.285,216.806 19.213 C 216.641 19.188,216.329 19.008,216.113 18.813 C 215.898 18.618,215.502 18.458,215.233 18.458 C 214.951 18.458,214.744 18.317,214.744 18.125 C 214.744 17.941,214.465 17.723,214.125 17.639 C 213.784 17.554,213.128 17.249,212.666 16.959 C 212.204 16.669,211.673 16.432,211.484 16.432 C 211.296 16.432,211.142 16.325,211.142 16.194 C 211.142 16.063,211.050 16.013,210.937 16.083 C 210.823 16.153,210.693 16.097,210.647 15.960 C 210.558 15.691,209.172 15.113,208.160 14.922 C 207.819 14.858,207.541 14.716,207.541 14.606 C 207.541 14.496,207.302 14.406,207.011 14.406 C 206.719 14.406,206.206 14.151,205.870 13.840 C 205.534 13.528,205.182 13.321,205.089 13.378 C 204.996 13.436,204.637 13.336,204.291 13.157 C 203.946 12.977,203.395 12.831,203.067 12.831 C 202.716 12.831,202.357 12.646,202.191 12.380 C 202.036 12.133,201.682 11.927,201.405 11.922 C 201.127 11.918,200.647 11.770,200.338 11.593 C 200.028 11.416,199.395 11.267,198.931 11.263 C 198.467 11.259,198.087 11.154,198.087 11.030 C 198.087 10.906,197.643 10.805,197.100 10.805 C 196.283 10.805,196.092 10.722,195.988 10.325 C 195.904 10.005,195.746 9.891,195.511 9.981 C 195.318 10.055,195.160 10.039,195.160 9.945 C 195.160 9.851,194.681 9.759,194.095 9.740 C 193.510 9.721,192.995 9.598,192.951 9.467 C 192.908 9.336,192.336 9.229,191.680 9.229 C 190.895 9.229,190.393 9.114,190.208 8.891 C 190.014 8.657,189.498 8.554,188.527 8.554 C 187.440 8.554,187.041 8.459,186.742 8.129 C 186.420 7.773,186.002 7.698,184.183 7.671 C 182.750 7.650,181.952 7.545,181.840 7.365 C 181.719 7.168,180.357 7.070,176.994 7.017 C 174.422 6.976,172.207 6.852,172.074 6.741 C 171.794 6.509,169.604 6.308,168.936 6.453 M135.990 83.647 C 136.654 83.846,137.552 84.140,137.985 84.301 C 139.441 84.842,143.062 85.948,143.885 86.103 C 149.011 87.064,148.553 87.409,138.661 90.028 C 135.427 90.884,134.697 90.965,133.341 90.621 C 132.615 90.437,130.957 90.019,129.657 89.692 C 128.357 89.366,126.432 88.847,125.380 88.539 C 124.328 88.231,123.298 87.933,123.093 87.875 C 121.598 87.458,122.281 87.076,126.843 85.782 C 128.055 85.438,132.909 83.908,133.371 83.724 C 133.937 83.498,134.454 83.327,134.639 83.304 C 134.718 83.294,135.326 83.449,135.990 83.647 M172.365 83.606 C 173.948 84.203,179.512 85.935,180.304 86.078 C 182.345 86.446,184.029 87.255,183.441 87.585 C 182.590 88.063,176.000 89.933,173.940 90.282 C 173.349 90.382,172.528 90.586,172.115 90.736 C 171.501 90.958,171.102 90.941,169.925 90.642 C 169.134 90.441,167.676 90.076,166.685 89.832 C 161.460 88.540,158.920 87.722,158.920 87.330 C 158.920 87.132,161.292 86.260,162.313 86.084 C 162.737 86.011,163.286 85.868,163.534 85.765 C 164.334 85.435,170.953 83.319,171.239 83.303 C 171.391 83.294,171.898 83.430,172.365 83.606 M120.653 90.375 C 121.334 90.551,122.600 90.907,123.467 91.166 C 124.333 91.426,125.346 91.724,125.718 91.829 C 126.089 91.934,127.203 92.280,128.194 92.599 C 129.184 92.918,130.551 93.352,131.232 93.562 C 131.913 93.772,132.597 94.098,132.752 94.286 C 133.221 94.856,133.154 114.993,132.683 115.174 C 132.314 115.316,131.748 115.146,125.943 113.157 C 123.962 112.478,121.581 111.686,120.653 111.397 C 119.724 111.109,118.890 110.769,118.799 110.642 C 118.593 110.354,118.571 90.395,118.777 90.189 C 118.983 89.983,119.227 90.007,120.653 90.375 M150.987 100.126 C 151.022 106.077,150.960 110.254,150.833 110.491 C 150.620 110.889,149.888 111.195,147.777 111.770 C 147.158 111.938,145.639 112.429,144.401 112.861 C 143.163 113.293,141.104 114.012,139.825 114.458 C 138.546 114.904,137.331 115.216,137.124 115.150 C 136.688 115.012,136.632 94.749,137.067 94.226 C 137.293 93.953,137.959 93.713,141.699 92.553 C 142.938 92.170,144.945 91.542,146.160 91.158 C 148.503 90.419,150.036 90.060,150.591 90.121 C 150.884 90.153,150.936 91.461,150.987 100.126 M158.582 90.753 C 159.449 91.007,160.563 91.345,161.058 91.504 C 161.553 91.663,163.022 92.116,164.322 92.511 C 165.622 92.906,167.268 93.435,167.980 93.688 L 169.274 94.146 169.274 104.698 C 169.274 113.741,169.228 115.250,168.949 115.250 C 168.619 115.250,165.796 114.331,161.748 112.905 C 160.518 112.472,158.597 111.855,157.478 111.534 C 156.358 111.213,155.366 110.829,155.271 110.681 C 155.059 110.347,155.034 90.398,155.246 90.187 C 155.449 89.984,156.656 90.189,158.582 90.753 M187.596 90.395 C 187.878 91.133,187.740 109.707,187.447 110.277 C 187.131 110.894,186.233 111.252,181.767 112.541 C 181.396 112.649,180.079 113.109,178.841 113.563 C 175.153 114.918,173.822 115.316,173.451 115.174 C 173.141 115.055,173.101 113.851,173.101 104.670 L 173.101 94.300 174.147 93.852 C 174.723 93.605,175.559 93.312,176.004 93.200 C 176.450 93.089,177.828 92.675,179.066 92.281 C 186.163 90.023,187.352 89.760,187.596 90.395 M83.558 115.016 C 85.080 115.507,86.787 116.009,87.351 116.133 C 88.718 116.433,92.318 117.664,92.573 117.919 C 92.866 118.212,89.684 119.258,85.988 120.083 C 85.059 120.291,83.337 120.711,82.161 121.017 L 80.023 121.574 78.109 121.024 C 77.057 120.722,75.740 120.407,75.183 120.325 C 74.626 120.243,73.917 120.091,73.607 119.987 C 73.298 119.884,72.234 119.578,71.244 119.307 C 68.596 118.581,67.478 118.138,67.712 117.905 C 67.957 117.659,72.231 116.162,72.707 116.155 C 72.893 116.153,74.412 115.704,76.083 115.157 C 79.855 113.925,80.152 113.919,83.558 115.016 M118.367 114.490 C 119.067 114.691,120.516 115.147,121.586 115.503 C 122.657 115.859,123.742 116.151,123.999 116.151 C 124.255 116.151,124.797 116.291,125.203 116.462 C 125.610 116.633,126.500 116.952,127.181 117.170 C 129.213 117.823,129.395 117.954,128.740 118.292 C 127.973 118.689,124.173 119.747,121.553 120.294 C 120.748 120.462,119.312 120.813,118.361 121.073 L 116.633 121.547 114.872 121.083 C 113.904 120.828,112.656 120.528,112.099 120.416 C 108.802 119.752,103.995 118.309,103.995 117.983 C 103.995 117.821,108.545 116.260,109.736 116.013 C 110.500 115.855,114.452 114.635,115.138 114.345 C 115.852 114.044,116.992 114.095,118.367 114.490 M157.340 119.511 C 160.415 120.363,162.005 121.530,163.237 123.838 C 163.748 124.795,163.762 124.994,163.879 132.808 C 164.007 141.403,163.983 141.228,165.327 143.182 C 166.460 144.830,166.402 145.042,164.264 147.006 C 160.967 150.036,160.767 150.060,158.809 147.667 C 157.278 145.796,157.456 145.830,155.955 147.121 C 152.639 149.972,147.927 150.531,144.176 148.517 C 140.919 146.770,139.577 141.029,141.500 137.071 C 143.325 133.317,146.318 131.693,152.920 130.876 C 156.371 130.449,156.863 129.848,155.962 127.158 C 154.823 123.759,149.717 124.090,148.677 127.631 C 148.263 129.040,147.363 129.251,143.994 128.732 C 141.470 128.343,141.180 127.956,141.837 125.846 C 142.952 122.267,145.492 120.275,150.141 119.332 C 150.822 119.194,151.581 119.035,151.829 118.978 C 152.716 118.775,155.736 119.067,157.340 119.511 M227.238 119.528 C 230.140 120.358,232.521 122.146,232.892 123.775 C 232.966 124.101,233.167 124.801,233.339 125.331 C 233.579 126.069,233.653 127.947,233.657 133.322 C 233.663 141.077,233.645 140.964,235.227 143.308 C 236.172 144.709,236.084 145.645,234.952 146.236 C 234.738 146.347,233.913 147.064,233.117 147.830 C 230.887 149.973,230.146 149.893,228.234 147.305 C 227.145 145.831,227.243 145.836,225.625 147.183 C 220.401 151.531,212.638 150.145,210.912 144.555 C 210.360 142.770,210.318 139.443,210.829 138.098 C 211.018 137.603,211.231 136.995,211.302 136.747 C 211.442 136.264,212.763 134.533,213.504 133.862 C 214.165 133.264,216.964 131.974,218.008 131.786 C 218.503 131.696,219.069 131.541,219.266 131.439 C 219.463 131.338,220.852 131.104,222.353 130.918 C 226.252 130.437,226.376 130.310,225.757 127.425 C 225.018 123.977,220.046 123.829,218.698 127.214 C 217.943 129.108,217.403 129.274,213.747 128.730 C 211.537 128.401,211.281 128.202,211.333 126.843 C 211.540 121.370,220.028 117.466,227.238 119.528 M186.044 119.543 C 188.199 120.113,189.334 120.966,190.201 122.664 C 190.785 123.809,190.930 123.805,191.751 122.622 C 195.102 117.791,202.493 118.213,205.220 123.391 L 205.853 124.592 205.853 136.672 C 205.853 143.316,205.768 148.837,205.666 148.940 C 205.269 149.338,199.084 149.305,198.682 148.903 C 198.350 148.571,198.312 147.507,198.312 138.521 C 198.312 127.470,198.327 127.595,196.894 126.721 C 195.698 125.992,194.486 126.131,193.367 127.124 C 191.727 128.581,191.727 128.580,191.624 139.223 C 191.515 150.390,191.936 149.240,187.957 149.240 C 183.821 149.240,184.264 150.456,184.131 138.735 C 184.007 127.880,183.990 127.753,182.602 126.764 C 181.314 125.847,179.009 126.340,178.325 127.679 C 177.516 129.262,177.495 129.520,177.380 139.176 C 177.282 147.406,177.216 148.838,176.927 149.020 C 176.469 149.310,170.929 149.299,170.385 149.007 C 169.961 148.781,169.949 148.383,169.949 134.614 L 169.949 120.453 170.450 120.103 C 170.831 119.836,171.556 119.752,173.499 119.752 C 176.588 119.752,177.153 120.081,177.153 121.881 C 177.153 123.165,177.284 123.152,178.359 121.758 C 179.921 119.733,183.195 118.789,186.044 119.543 M277.096 119.531 C 280.777 120.324,284.006 122.934,285.168 126.055 C 289.737 138.328,284.740 149.679,274.733 149.761 C 267.512 149.821,263.100 144.655,262.754 135.734 C 262.425 127.233,265.252 121.581,270.638 119.974 C 271.528 119.708,272.358 119.456,272.482 119.414 C 272.976 119.246,276.145 119.326,277.096 119.531 M308.021 119.858 C 312.312 121.373,312.762 123.065,312.769 137.722 C 312.775 150.642,313.242 149.240,308.932 149.240 C 304.952 149.240,305.368 150.428,305.234 138.683 C 305.098 126.824,304.959 126.280,302.069 126.280 C 298.714 126.280,298.030 128.702,298.030 140.586 C 298.030 148.451,298.013 148.783,297.595 149.007 C 296.865 149.398,291.695 149.305,291.102 148.890 L 290.602 148.539 290.606 134.652 C 290.607 127.015,290.683 120.654,290.774 120.518 C 291.161 119.939,292.036 119.752,294.364 119.752 C 297.453 119.752,297.804 119.943,297.809 121.622 C 297.814 123.413,298.028 123.496,299.095 122.117 C 301.166 119.441,304.469 118.605,308.021 119.858 M259.185 120.106 C 259.458 120.379,259.539 120.959,259.539 122.652 C 259.539 125.163,259.366 125.551,256.605 129.238 C 255.804 130.308,254.880 131.625,254.551 132.165 C 254.222 132.704,253.080 134.344,252.013 135.808 C 249.422 139.363,249.422 139.410,251.998 139.591 C 254.610 139.774,256.555 140.296,258.807 141.416 C 259.969 141.994,260.211 142.669,260.213 145.343 C 260.215 148.569,259.907 148.807,257.175 147.699 C 251.972 145.588,246.415 145.659,241.632 147.895 C 239.238 149.014,238.819 148.579,238.839 144.992 C 238.857 141.814,239.387 140.722,243.876 134.609 C 244.558 133.680,245.393 132.465,245.732 131.908 C 246.070 131.351,247.091 129.894,248.000 128.670 C 250.138 125.791,250.318 125.964,245.039 125.830 C 239.675 125.694,239.955 125.869,239.955 122.648 C 239.955 120.635,239.996 120.424,240.455 120.103 C 241.214 119.572,258.653 119.575,259.185 120.106 M66.638 121.119 C 67.809 121.499,69.578 122.052,70.568 122.348 C 75.603 123.850,77.485 124.467,77.782 124.714 C 78.263 125.112,78.274 145.590,77.794 145.774 C 77.479 145.895,76.605 145.617,69.893 143.261 C 67.912 142.566,65.861 141.897,65.335 141.774 C 63.643 141.379,63.703 141.784,63.703 130.777 C 63.703 121.211,63.754 120.428,64.376 120.428 C 64.449 120.428,65.467 120.739,66.638 121.119 M96.342 130.755 C 96.342 142.085,96.440 141.346,94.879 141.760 C 94.056 141.979,91.146 142.973,85.200 145.067 C 82.668 145.959,82.267 146.015,82.072 145.508 C 81.784 144.757,81.921 125.260,82.217 124.881 C 82.372 124.684,83.410 124.255,84.524 123.930 C 85.639 123.604,86.956 123.198,87.451 123.028 C 87.946 122.858,89.111 122.495,90.039 122.222 C 90.968 121.949,92.538 121.446,93.528 121.104 C 94.519 120.762,95.557 120.470,95.836 120.455 L 96.342 120.428 96.342 130.755 M103.052 121.074 C 104.128 121.430,106.224 122.096,107.710 122.554 C 113.529 124.347,114.185 124.572,114.487 124.874 C 114.951 125.338,114.951 144.896,114.488 145.530 C 114.135 146.012,114.124 146.009,106.359 143.271 C 104.378 142.573,102.354 141.902,101.860 141.781 C 100.056 141.338,100.169 142.071,100.169 130.785 C 100.169 125.253,100.236 120.660,100.319 120.578 C 100.574 120.323,101.027 120.405,103.052 121.074 M132.946 121.012 C 133.215 122.084,132.892 140.877,132.598 141.231 C 132.452 141.407,131.907 141.622,131.388 141.708 C 130.869 141.794,130.253 141.965,130.019 142.088 C 129.618 142.299,125.755 143.676,121.249 145.214 C 118.344 146.206,118.613 147.262,118.681 135.149 L 118.739 124.646 120.878 123.981 C 122.054 123.615,124.181 122.957,125.605 122.518 C 127.029 122.078,129.004 121.441,129.994 121.101 C 132.365 120.286,132.761 120.274,132.946 121.012 M273.341 125.367 C 269.953 126.905,269.657 140.772,272.956 143.366 C 275.553 145.409,278.254 142.652,278.672 137.532 C 279.419 128.387,277.307 123.567,273.341 125.367 M153.180 135.376 C 150.135 135.992,148.564 137.672,148.566 140.307 C 148.569 144.065,152.835 145.239,154.938 142.061 C 155.934 140.555,156.591 136.741,156.082 135.415 C 155.920 134.994,155.122 134.984,153.180 135.376 M222.960 135.375 C 219.550 136.061,217.855 138.377,218.573 141.370 C 218.979 143.062,219.894 143.838,221.483 143.836 C 224.104 143.833,225.572 141.814,225.914 137.744 C 226.144 135.008,225.871 134.789,222.960 135.375 M101.240 145.422 C 102.570 145.798,105.076 146.558,106.809 147.111 C 108.542 147.665,110.075 148.117,110.214 148.116 C 110.354 148.115,110.593 148.265,110.745 148.449 C 111.091 148.865,110.726 149.018,107.526 149.802 C 103.711 150.737,103.298 150.842,100.791 151.514 C 98.131 152.228,98.430 152.246,94.316 151.115 C 93.635 150.928,92.319 150.595,91.390 150.376 C 85.484 148.981,84.902 148.653,87.113 147.963 C 87.546 147.827,89.066 147.352,90.490 146.906 C 91.913 146.460,93.686 145.931,94.429 145.730 C 95.172 145.530,96.134 145.230,96.567 145.063 C 97.754 144.609,98.590 144.673,101.240 145.422 M86.210 152.144 C 91.374 153.774,94.110 154.584,94.970 154.735 C 96.417 154.990,96.342 154.386,96.342 165.799 C 96.342 171.534,96.262 176.275,96.165 176.335 C 95.937 176.476,93.278 175.761,91.390 175.052 C 90.585 174.749,88.845 174.137,87.522 173.691 C 86.200 173.245,84.883 172.785,84.596 172.668 C 84.309 172.552,83.793 172.396,83.450 172.323 C 81.879 171.986,81.936 172.393,81.936 161.441 C 81.936 151.864,81.988 151.041,82.597 151.041 C 82.663 151.041,84.289 151.537,86.210 152.144 M114.530 151.311 C 114.834 151.615,114.928 170.985,114.628 171.435 C 114.312 171.908,113.830 172.104,108.610 173.889 C 107.001 174.439,104.929 175.156,104.006 175.482 C 103.083 175.808,101.867 176.089,101.305 176.107 L 100.281 176.140 100.223 165.918 C 100.157 154.512,100.090 155.013,101.719 154.740 C 102.765 154.565,106.617 153.415,111.424 151.843 C 114.138 150.955,114.169 150.950,114.530 151.311 M262.669 151.593 C 263.896 152.228,264.148 154.294,263.112 155.231 C 262.487 155.796,260.876 155.805,260.258 155.245 C 258.275 153.451,260.308 150.372,262.669 151.593 M182.676 152.624 C 182.937 152.840,183.005 153.570,183.005 156.132 L 183.005 159.366 184.353 158.660 C 190.443 155.467,195.591 161.541,194.016 170.061 C 192.978 175.676,186.567 178.464,182.968 174.864 L 182.483 174.379 181.822 175.203 C 181.057 176.157,180.035 176.336,179.634 175.588 C 179.478 175.295,179.419 171.412,179.458 163.945 L 179.516 152.743 180.079 152.446 C 180.714 152.111,182.179 152.211,182.676 152.624 M246.711 158.246 C 247.127 158.469,248.527 162.335,250.044 167.455 C 250.499 168.992,250.982 170.287,251.115 170.331 C 251.348 170.408,253.976 162.833,254.287 161.191 C 254.769 158.639,255.739 157.627,257.400 157.943 C 258.666 158.183,258.879 158.628,258.334 159.898 C 257.864 160.995,254.966 169.798,254.137 172.651 C 253.096 176.230,252.886 176.477,250.887 176.477 C 249.294 176.477,248.971 176.165,248.307 173.986 C 248.026 173.066,247.668 172.060,247.511 171.750 C 247.353 171.441,246.895 170.124,246.493 168.824 C 245.384 165.245,245.265 164.876,244.251 161.873 C 243.733 160.340,243.341 158.924,243.379 158.727 C 243.542 157.879,245.499 157.597,246.711 158.246 M263.179 158.167 C 263.782 158.712,263.818 175.627,263.218 176.291 C 262.730 176.830,260.638 176.869,260.117 176.349 C 259.567 175.798,259.585 158.815,260.136 158.206 C 260.631 157.659,262.590 157.634,263.179 158.167 M172.876 158.592 C 175.498 159.612,177.145 162.402,177.150 165.833 C 177.153 167.995,177.360 167.923,171.114 167.923 C 165.139 167.923,165.254 167.872,165.914 170.247 C 166.858 173.648,170.904 174.604,172.909 171.900 C 173.931 170.520,174.374 170.301,175.514 170.608 C 178.652 171.453,175.795 175.480,171.415 176.386 C 167.528 177.190,164.784 175.889,162.823 172.313 L 161.958 170.737 161.958 167.473 L 161.958 164.209 162.819 162.521 C 163.947 160.309,165.117 159.117,166.631 158.638 C 167.280 158.433,167.963 158.211,168.149 158.145 C 168.804 157.912,171.876 158.203,172.876 158.592 M209.666 158.709 C 212.191 159.654,213.509 162.668,211.626 163.191 C 210.316 163.555,210.096 163.484,208.888 162.314 C 206.777 160.268,203.039 160.650,203.039 162.911 C 203.039 164.246,204.112 164.891,207.091 165.347 C 213.091 166.264,215.501 170.674,212.163 174.628 C 209.762 177.473,202.325 177.127,199.949 174.060 C 198.326 171.966,198.536 171.003,200.675 170.731 L 201.801 170.587 202.630 171.705 C 204.627 174.399,209.792 174.104,209.792 171.296 C 209.792 169.933,208.926 169.411,205.477 168.695 C 200.826 167.730,198.864 165.783,199.341 162.605 C 199.903 158.854,204.957 156.947,209.666 158.709 M226.186 158.607 C 227.283 159.010,228.316 159.821,228.771 160.634 C 229.855 162.573,230.091 163.119,230.386 164.371 C 231.223 167.922,231.221 167.923,224.626 167.923 C 218.653 167.923,218.811 167.866,219.218 169.893 C 220.026 173.916,223.589 174.735,226.551 171.579 L 227.737 170.314 228.838 170.664 C 229.744 170.952,229.951 171.117,230.009 171.599 C 230.181 173.031,227.630 175.872,225.931 176.141 C 225.411 176.223,224.606 176.399,224.141 176.532 C 220.097 177.691,215.860 174.207,215.175 169.162 C 214.124 161.418,219.587 156.182,226.186 158.607 M276.094 158.788 C 277.696 159.514,279.185 161.539,279.481 163.392 C 279.866 165.801,276.602 165.990,275.957 163.596 C 275.352 161.348,272.711 160.328,271.178 161.749 C 268.216 164.496,268.581 171.628,271.764 173.182 C 273.325 173.944,275.480 172.862,275.885 171.114 C 276.342 169.141,279.572 168.648,279.572 170.552 C 279.572 172.748,277.073 175.813,274.915 176.261 C 268.640 177.565,264.961 173.352,265.624 165.622 C 266.133 159.699,271.041 156.494,276.094 158.788 M292.315 158.703 C 294.589 159.674,296.454 162.938,296.455 165.946 C 296.455 167.977,296.618 167.923,290.416 167.923 C 284.641 167.923,284.975 167.821,284.975 169.599 C 284.975 172.250,288.052 174.246,290.538 173.207 C 291.258 172.907,292.852 171.423,292.853 171.055 C 292.854 170.596,294.016 170.440,294.980 170.768 C 296.205 171.186,296.344 171.863,295.467 173.154 C 291.619 178.825,283.022 177.301,281.263 170.635 C 279.112 162.478,285.359 155.733,292.315 158.703 M308.156 158.620 C 310.334 159.418,312.058 162.072,310.980 162.966 C 310.136 163.667,308.466 163.371,307.607 162.369 C 305.437 159.834,301.136 160.891,302.072 163.729 C 302.332 164.517,303.418 164.986,305.796 165.337 C 311.571 166.188,313.970 170.193,311.155 174.283 C 308.999 177.417,301.709 177.394,298.877 174.245 C 297.306 172.497,297.231 171.256,298.672 170.855 C 300.105 170.457,300.394 170.557,301.475 171.822 C 303.921 174.686,309.450 173.777,308.373 170.688 C 308.136 170.007,306.762 169.049,306.023 169.049 C 302.907 169.049,298.939 166.983,298.285 165.020 C 296.674 160.185,302.364 156.496,308.156 158.620 M319.375 158.644 C 319.432 159.044,319.295 159.210,318.756 159.398 C 318.028 159.652,318.006 159.717,318.059 161.513 C 318.101 162.947,317.761 163.872,317.193 163.872 C 316.626 163.872,316.488 163.454,316.488 161.733 C 316.488 159.999,316.358 159.620,315.670 159.358 C 315.163 159.165,314.956 158.502,315.296 158.161 C 315.752 157.705,319.301 158.126,319.375 158.644 M322.570 158.927 C 323.052 159.872,323.467 159.935,323.467 159.064 C 323.467 157.906,325.315 157.523,325.723 158.597 C 326.010 159.351,326.006 162.550,325.717 163.310 C 325.430 164.065,324.517 164.026,324.408 163.253 C 324.342 162.793,323.692 162.498,323.692 162.928 C 323.692 163.665,323.077 163.932,322.564 163.420 L 322.044 162.899 321.635 163.403 C 321.411 163.680,321.047 163.873,320.828 163.830 C 320.226 163.715,319.907 158.725,320.475 158.301 C 321.265 157.710,322.072 157.951,322.570 158.927 M142.933 158.967 C 143.175 159.364,143.437 159.997,143.517 160.374 C 143.596 160.750,143.913 161.919,144.222 162.971 C 144.531 164.024,144.860 165.189,144.953 165.560 C 145.594 168.115,146.314 169.600,146.314 168.366 C 146.314 168.114,146.670 166.670,147.105 165.158 C 148.262 161.133,148.514 160.225,148.660 159.554 C 148.860 158.630,149.386 158.244,150.438 158.248 C 151.930 158.253,152.015 158.385,153.198 162.521 C 154.854 168.315,154.864 168.345,155.124 168.506 C 155.430 168.695,155.552 168.534,155.764 167.660 C 155.864 167.248,156.314 165.695,156.765 164.209 C 157.215 162.724,157.737 160.954,157.924 160.277 C 158.409 158.521,158.758 158.209,160.145 158.290 C 161.584 158.374,161.658 158.719,160.837 161.535 C 159.988 164.449,159.668 165.673,159.490 166.685 C 159.403 167.181,159.077 168.447,158.766 169.499 C 158.454 170.551,158.050 171.919,157.867 172.538 C 157.684 173.157,157.434 174.119,157.310 174.676 C 157.031 175.934,156.238 176.702,155.218 176.702 C 153.870 176.702,153.503 176.118,152.390 172.200 C 150.900 166.954,150.141 165.010,150.141 166.442 C 150.141 166.757,150.002 167.396,149.832 167.863 C 149.663 168.329,149.298 169.572,149.023 170.625 C 148.747 171.677,148.380 172.987,148.206 173.535 C 148.032 174.083,147.890 174.753,147.890 175.023 C 147.890 176.801,144.756 177.279,144.081 175.604 C 143.590 174.387,142.037 168.690,142.037 168.107 C 142.037 167.773,141.944 167.442,141.829 167.371 C 141.715 167.301,141.552 166.915,141.468 166.514 C 141.383 166.113,141.063 164.924,140.757 163.872 C 140.451 162.819,140.054 161.413,139.876 160.747 C 139.698 160.081,139.515 159.474,139.470 159.397 C 138.725 158.118,142.158 157.692,142.933 158.967 M241.523 158.680 C 242.293 160.119,241.619 161.465,239.993 161.732 C 237.144 162.199,236.485 163.795,236.392 170.456 C 236.320 175.623,236.302 175.813,235.835 176.139 C 235.259 176.543,233.403 176.588,233.022 176.207 C 232.634 175.820,232.634 159.352,233.022 158.965 C 233.765 158.221,236.128 158.831,236.128 159.766 C 236.128 160.047,236.269 159.996,236.747 159.544 C 238.078 158.285,241.026 157.751,241.523 158.680 M168.374 161.228 C 167.265 161.813,165.831 163.840,165.947 164.660 C 166.007 165.086,166.205 165.113,169.668 165.172 L 173.326 165.233 173.324 164.496 C 173.316 161.891,170.564 160.074,168.374 161.228 M185.819 160.982 C 181.663 163.270,181.922 172.186,186.178 173.332 C 189.829 174.315,191.906 167.522,189.471 162.559 C 188.749 161.087,186.999 160.332,185.819 160.982 M222.172 160.989 C 221.171 161.265,220.355 162.039,219.716 163.317 C 218.834 165.082,218.867 165.102,222.850 165.166 C 226.844 165.230,226.979 165.191,226.667 164.062 C 226.035 161.775,224.107 160.456,222.172 160.989 M288.083 161.038 C 286.970 161.367,285.927 162.347,285.385 163.572 C 284.659 165.213,284.678 165.222,288.907 165.222 L 292.628 165.222 292.628 164.538 C 292.628 162.255,290.225 160.404,288.083 161.038 " stroke="none" fill="#f3f3f5" fill-rule="evenodd"></path><path id="path2" d="M134.159 83.433 C 133.973 83.494,133.618 83.625,133.371 83.724 C 132.909 83.908,128.055 85.438,126.843 85.782 C 122.281 87.076,121.598 87.458,123.093 87.875 C 123.298 87.933,124.328 88.231,125.380 88.539 C 126.432 88.847,128.357 89.366,129.657 89.692 C 130.957 90.019,132.615 90.437,133.341 90.621 C 134.697 90.965,135.427 90.884,138.661 90.028 C 148.553 87.409,149.011 87.064,143.885 86.103 C 143.062 85.948,139.441 84.842,137.985 84.301 C 136.951 83.916,134.821 83.282,134.639 83.304 C 134.561 83.314,134.344 83.372,134.159 83.433 M167.473 84.449 C 165.554 85.071,163.782 85.663,163.534 85.765 C 163.286 85.868,162.737 86.011,162.313 86.084 C 161.292 86.260,158.920 87.132,158.920 87.330 C 158.920 87.722,161.460 88.540,166.685 89.832 C 167.676 90.076,169.134 90.441,169.925 90.642 C 171.102 90.941,171.501 90.958,172.115 90.736 C 172.528 90.586,173.349 90.382,173.940 90.282 C 176.000 89.933,182.590 88.063,183.441 87.585 C 184.029 87.255,182.345 86.446,180.304 86.078 C 179.512 85.935,173.948 84.203,172.365 83.606 C 171.256 83.188,171.489 83.148,167.473 84.449 M118.777 90.189 C 118.571 90.395,118.593 110.354,118.799 110.642 C 118.890 110.769,119.724 111.109,120.653 111.397 C 121.581 111.686,123.962 112.478,125.943 113.157 C 131.748 115.146,132.314 115.316,132.683 115.174 C 133.154 114.993,133.221 94.856,132.752 94.286 C 132.597 94.098,131.913 93.772,131.232 93.562 C 130.551 93.352,129.184 92.918,128.194 92.599 C 127.203 92.280,126.089 91.934,125.718 91.829 C 125.346 91.724,124.333 91.426,123.467 91.166 C 120.054 90.144,119.034 89.932,118.777 90.189 M149.312 90.272 C 148.794 90.376,147.376 90.775,146.160 91.158 C 144.945 91.542,142.938 92.170,141.699 92.553 C 137.959 93.713,137.293 93.953,137.067 94.226 C 136.632 94.749,136.688 115.012,137.124 115.150 C 137.331 115.216,138.546 114.904,139.825 114.458 C 141.104 114.012,143.163 113.293,144.401 112.861 C 145.639 112.429,147.158 111.938,147.777 111.770 C 149.888 111.195,150.620 110.889,150.833 110.491 C 150.960 110.254,151.022 106.077,150.987 100.126 C 150.922 89.037,151.072 89.920,149.312 90.272 M155.246 90.187 C 155.034 90.398,155.059 110.347,155.271 110.681 C 155.366 110.829,156.358 111.213,157.478 111.534 C 158.597 111.855,160.518 112.472,161.748 112.905 C 165.796 114.331,168.619 115.250,168.949 115.250 C 169.228 115.250,169.274 113.741,169.274 104.698 L 169.274 94.146 167.980 93.688 C 167.268 93.435,165.622 92.906,164.322 92.511 C 163.022 92.116,161.553 91.663,161.058 91.504 C 157.578 90.386,155.514 89.919,155.246 90.187 M185.369 90.380 C 183.933 90.766,181.909 91.377,179.066 92.281 C 177.828 92.675,176.450 93.089,176.004 93.200 C 175.559 93.312,174.723 93.605,174.147 93.852 L 173.101 94.300 173.101 104.670 C 173.101 113.851,173.141 115.055,173.451 115.174 C 173.822 115.316,175.153 114.918,178.841 113.563 C 180.079 113.109,181.396 112.649,181.767 112.541 C 186.233 111.252,187.131 110.894,187.447 110.277 C 187.740 109.707,187.878 91.133,187.596 90.395 C 187.434 89.974,186.894 89.970,185.369 90.380 M76.083 115.157 C 74.412 115.704,72.893 116.153,72.707 116.155 C 72.231 116.162,67.957 117.659,67.712 117.905 C 67.478 118.138,68.596 118.581,71.244 119.307 C 72.234 119.578,73.298 119.884,73.607 119.987 C 73.917 120.091,74.626 120.243,75.183 120.325 C 75.740 120.407,77.057 120.722,78.109 121.024 L 80.023 121.574 82.161 121.017 C 83.337 120.711,85.059 120.291,85.988 120.083 C 89.684 119.258,92.866 118.212,92.573 117.919 C 92.318 117.664,88.718 116.433,87.351 116.133 C 86.787 116.009,85.080 115.507,83.558 115.016 C 80.152 113.919,79.855 113.925,76.083 115.157 M115.138 114.345 C 114.452 114.635,110.500 115.855,109.736 116.013 C 108.545 116.260,103.995 117.821,103.995 117.983 C 103.995 118.309,108.802 119.752,112.099 120.416 C 112.656 120.528,113.904 120.828,114.872 121.083 L 116.633 121.547 118.361 121.073 C 119.312 120.813,120.748 120.462,121.553 120.294 C 124.173 119.747,127.973 118.689,128.740 118.292 C 129.395 117.954,129.213 117.823,127.181 117.170 C 126.500 116.952,125.610 116.633,125.203 116.462 C 124.797 116.291,124.255 116.151,123.999 116.151 C 123.742 116.151,122.657 115.859,121.586 115.503 C 117.398 114.110,116.204 113.896,115.138 114.345 M151.829 118.978 C 151.581 119.035,150.822 119.194,150.141 119.332 C 145.492 120.275,142.952 122.267,141.837 125.846 C 141.180 127.956,141.470 128.343,143.994 128.732 C 147.363 129.251,148.263 129.040,148.677 127.631 C 149.717 124.090,154.823 123.759,155.962 127.158 C 156.863 129.848,156.371 130.449,152.920 130.876 C 146.318 131.693,143.325 133.317,141.500 137.071 C 139.577 141.029,140.919 146.770,144.176 148.517 C 147.927 150.531,152.639 149.972,155.955 147.121 C 157.456 145.830,157.278 145.796,158.809 147.667 C 160.767 150.060,160.967 150.036,164.264 147.006 C 166.402 145.042,166.460 144.830,165.327 143.182 C 163.983 141.228,164.007 141.403,163.879 132.808 C 163.744 123.794,163.787 124.023,161.811 121.880 C 160.049 119.968,154.520 118.361,151.829 118.978 M221.272 119.003 C 215.795 119.734,211.473 123.143,211.333 126.843 C 211.281 128.202,211.537 128.401,213.747 128.730 C 217.403 129.274,217.943 129.108,218.698 127.214 C 220.046 123.829,225.018 123.977,225.757 127.425 C 226.376 130.310,226.252 130.437,222.353 130.918 C 220.852 131.104,219.463 131.338,219.266 131.439 C 219.069 131.541,218.503 131.696,218.008 131.786 C 216.964 131.974,214.165 133.264,213.504 133.862 C 212.763 134.533,211.442 136.264,211.302 136.747 C 211.231 136.995,211.018 137.603,210.829 138.098 C 210.318 139.443,210.360 142.770,210.912 144.555 C 212.638 150.145,220.401 151.531,225.625 147.183 C 227.243 145.836,227.145 145.831,228.234 147.305 C 230.146 149.893,230.887 149.973,233.117 147.830 C 233.913 147.064,234.738 146.347,234.952 146.236 C 236.084 145.645,236.172 144.709,235.227 143.308 C 233.645 140.964,233.663 141.077,233.657 133.322 C 233.653 127.947,233.579 126.069,233.339 125.331 C 233.167 124.801,232.966 124.101,232.892 123.775 C 232.236 120.894,226.071 118.363,221.272 119.003 M156.106 119.610 C 159.782 120.327,161.208 121.204,162.679 123.652 L 163.515 125.042 163.585 132.583 C 163.668 141.457,163.632 141.147,164.783 142.927 C 166.077 144.929,166.083 144.905,163.659 147.095 C 160.896 149.592,160.772 149.591,158.710 147.046 C 157.527 145.587,157.175 145.569,155.700 146.895 C 151.528 150.646,144.458 150.122,142.069 145.884 C 140.608 143.292,140.593 138.214,142.042 136.765 C 142.163 136.644,142.262 136.384,142.262 136.188 C 142.262 135.055,147.193 131.908,148.969 131.908 C 149.226 131.908,149.715 131.802,150.057 131.672 C 150.398 131.542,151.793 131.332,153.157 131.204 C 156.449 130.897,156.443 130.901,156.443 129.001 C 156.443 125.066,153.315 123.140,150.253 125.189 C 149.228 125.876,148.959 126.238,148.111 128.081 C 147.909 128.522,146.338 128.621,144.008 128.339 C 142.074 128.106,141.718 127.866,141.952 126.956 C 142.031 126.646,142.166 126.038,142.251 125.605 C 143.085 121.369,149.932 118.406,156.106 119.610 M181.767 119.565 C 180.015 120.156,179.180 120.694,178.359 121.758 C 177.284 123.152,177.153 123.165,177.153 121.881 C 177.153 120.081,176.588 119.752,173.499 119.752 C 171.556 119.752,170.831 119.836,170.450 120.103 L 169.949 120.453 169.949 134.614 C 169.949 148.383,169.961 148.781,170.385 149.007 C 170.929 149.299,176.469 149.310,176.927 149.020 C 177.216 148.838,177.282 147.406,177.380 139.176 C 177.495 129.520,177.516 129.262,178.325 127.679 C 179.009 126.340,181.314 125.847,182.602 126.764 C 183.990 127.753,184.007 127.880,184.131 138.735 C 184.264 150.456,183.821 149.240,187.957 149.240 C 191.936 149.240,191.515 150.390,191.624 139.223 C 191.727 128.580,191.727 128.581,193.367 127.124 C 194.486 126.131,195.698 125.992,196.894 126.721 C 198.327 127.595,198.312 127.470,198.312 138.521 C 198.312 147.507,198.350 148.571,198.682 148.903 C 199.084 149.305,205.269 149.338,205.666 148.940 C 205.768 148.837,205.853 143.316,205.853 136.672 L 205.853 124.592 205.220 123.391 C 202.493 118.213,195.102 117.791,191.751 122.622 C 190.930 123.805,190.785 123.809,190.201 122.664 C 188.838 119.992,184.848 118.526,181.767 119.565 M225.886 119.610 C 232.496 120.899,233.204 122.195,233.346 133.258 C 233.455 141.767,233.358 141.042,234.656 143.050 C 235.952 145.054,236.036 144.761,233.513 147.051 C 230.671 149.629,230.328 149.599,228.064 146.565 C 227.356 145.616,226.983 145.675,225.339 146.995 C 220.285 151.050,212.906 149.807,211.272 144.626 C 210.189 141.189,210.872 137.262,212.943 135.017 C 214.216 133.637,217.416 131.908,218.695 131.908 C 218.982 131.908,219.494 131.802,219.834 131.673 C 220.173 131.544,221.495 131.340,222.771 131.219 C 226.461 130.869,226.710 130.641,226.250 128.026 C 225.461 123.545,220.306 123.066,218.276 127.284 L 217.643 128.598 215.349 128.458 C 211.665 128.232,211.593 128.205,211.593 127.051 C 211.593 124.898,214.424 121.354,216.852 120.468 C 219.744 119.412,223.193 119.085,225.886 119.610 M272.482 119.414 C 272.358 119.456,271.528 119.708,270.638 119.974 C 261.984 122.556,259.549 139.185,266.751 146.517 C 272.198 152.062,281.327 150.511,284.854 143.443 C 287.532 138.078,287.629 132.667,285.168 126.055 C 284.364 123.896,281.289 120.788,279.320 120.145 C 277.060 119.407,273.592 119.037,272.482 119.414 M302.391 119.716 C 300.791 120.269,300.181 120.713,299.095 122.117 C 298.028 123.496,297.814 123.413,297.809 121.622 C 297.804 119.943,297.453 119.752,294.364 119.752 C 292.036 119.752,291.161 119.939,290.774 120.518 C 290.683 120.654,290.607 127.015,290.606 134.652 L 290.602 148.539 291.102 148.890 C 291.695 149.305,296.865 149.398,297.595 149.007 C 298.013 148.783,298.030 148.451,298.030 140.586 C 298.030 128.702,298.714 126.280,302.069 126.280 C 304.959 126.280,305.098 126.824,305.234 138.683 C 305.368 150.428,304.952 149.240,308.932 149.240 C 313.242 149.240,312.775 150.642,312.769 137.722 C 312.763 125.711,312.693 124.981,311.318 122.578 C 309.720 119.785,305.814 118.533,302.391 119.716 M278.811 120.308 C 281.791 121.283,283.966 123.740,285.428 127.783 L 286.390 130.445 286.402 134.496 C 286.414 138.970,286.273 139.618,284.365 143.838 C 282.088 148.874,274.099 151.060,269.097 148.017 C 262.082 143.748,260.651 130.140,266.489 123.215 C 267.822 121.633,269.462 120.428,270.282 120.428 C 270.514 120.428,270.808 120.323,270.936 120.195 C 271.598 119.533,276.663 119.606,278.811 120.308 M187.179 120.245 C 188.403 120.713,189.524 121.798,189.928 122.904 C 190.414 124.234,191.133 124.297,191.856 123.073 C 194.705 118.249,202.439 118.523,204.891 123.536 L 205.627 125.042 205.687 136.635 C 205.724 143.888,205.664 148.354,205.527 148.565 C 205.355 148.830,204.676 148.919,202.390 148.976 C 198.118 149.085,198.537 150.266,198.537 138.116 C 198.537 129.075,198.500 128.053,198.150 127.443 C 197.244 125.865,194.791 125.516,193.292 126.752 C 191.430 128.287,191.461 128.099,191.334 138.924 C 191.272 144.206,191.137 148.612,191.034 148.715 C 190.710 149.038,185.095 148.944,184.761 148.610 C 184.531 148.379,184.462 146.236,184.438 138.578 C 184.400 126.581,184.253 126.055,180.927 126.055 C 177.475 126.055,177.293 126.671,177.153 138.811 C 177.091 144.155,176.956 148.612,176.852 148.715 C 176.489 149.078,170.633 148.941,170.395 148.565 C 170.266 148.362,170.180 142.739,170.178 134.448 C 170.174 118.388,169.748 120.203,173.520 120.203 C 176.559 120.203,176.702 120.299,176.702 122.336 C 176.702 124.103,177.095 124.127,178.256 122.430 C 180.005 119.873,183.786 118.947,187.179 120.245 M240.455 120.103 C 239.996 120.424,239.955 120.635,239.955 122.648 C 239.955 125.869,239.675 125.694,245.039 125.830 C 250.318 125.964,250.138 125.791,248.000 128.670 C 247.091 129.894,246.070 131.351,245.732 131.908 C 245.393 132.465,244.558 133.680,243.876 134.609 C 239.387 140.722,238.857 141.814,238.839 144.992 C 238.819 148.579,239.238 149.014,241.632 147.895 C 246.415 145.659,251.972 145.588,257.175 147.699 C 259.907 148.807,260.215 148.569,260.213 145.343 C 260.211 142.669,259.969 141.994,258.807 141.416 C 256.555 140.296,254.610 139.774,251.998 139.591 C 249.422 139.410,249.422 139.363,252.013 135.808 C 253.080 134.344,254.222 132.704,254.551 132.165 C 254.880 131.625,255.804 130.308,256.605 129.238 C 259.366 125.551,259.539 125.163,259.539 122.652 C 259.539 120.959,259.458 120.379,259.185 120.106 C 258.653 119.575,241.214 119.572,240.455 120.103 M308.109 120.198 C 311.889 121.504,312.437 123.810,312.437 138.433 C 312.437 150.127,312.785 149.015,309.123 149.015 C 305.293 149.015,305.685 150.073,305.675 139.722 C 305.667 130.258,305.515 128.525,304.585 127.218 C 303.225 125.308,300.350 125.579,299.015 127.743 C 297.886 129.573,297.812 130.308,297.809 139.722 C 297.805 148.217,297.789 148.558,297.370 148.782 C 296.644 149.171,291.919 149.079,291.328 148.665 L 290.827 148.314 290.827 134.612 C 290.827 118.463,290.420 120.203,294.204 120.203 C 297.459 120.203,297.580 120.279,297.580 122.333 C 297.580 124.177,298.006 124.424,298.847 123.066 C 300.779 119.947,304.262 118.868,308.109 120.198 M258.834 120.342 C 259.326 120.687,259.350 120.823,259.272 122.762 C 259.179 125.069,258.938 125.585,256.366 128.981 C 255.663 129.910,254.798 131.140,254.443 131.715 C 253.764 132.816,250.537 137.343,250.293 137.535 C 249.975 137.787,249.379 139.330,249.515 139.550 C 249.595 139.680,250.322 139.786,251.129 139.786 C 253.450 139.786,257.629 140.943,259.032 141.973 L 259.764 142.510 259.764 145.207 C 259.764 148.438,259.752 148.450,257.449 147.497 C 253.902 146.030,253.629 145.976,249.634 145.976 C 245.621 145.976,245.184 146.061,241.789 147.496 C 239.420 148.497,239.392 148.465,239.392 144.711 L 239.392 141.696 240.844 139.559 C 241.642 138.384,242.987 136.460,243.833 135.284 C 244.679 134.108,245.545 132.854,245.758 132.498 C 246.202 131.753,246.945 130.681,248.827 128.069 C 250.705 125.460,250.784 125.520,245.221 125.380 C 239.845 125.245,240.179 125.406,240.184 122.947 C 240.187 120.877,240.252 120.652,240.968 120.246 C 241.763 119.795,258.179 119.884,258.834 120.342 M63.973 120.698 C 63.771 120.900,63.703 123.448,63.703 130.777 C 63.703 141.784,63.643 141.379,65.335 141.774 C 65.861 141.897,67.912 142.566,69.893 143.261 C 76.605 145.617,77.479 145.895,77.794 145.774 C 78.274 145.590,78.263 125.112,77.782 124.714 C 77.485 124.467,75.603 123.850,70.568 122.348 C 69.578 122.052,67.809 121.499,66.638 121.119 C 64.188 120.324,64.326 120.345,63.973 120.698 M93.528 121.104 C 92.538 121.446,90.968 121.949,90.039 122.222 C 89.111 122.495,87.946 122.858,87.451 123.028 C 86.956 123.198,85.639 123.604,84.524 123.930 C 83.410 124.255,82.372 124.684,82.217 124.881 C 81.921 125.260,81.784 144.757,82.072 145.508 C 82.267 146.015,82.668 145.959,85.200 145.067 C 91.146 142.973,94.056 141.979,94.879 141.760 C 96.440 141.346,96.342 142.085,96.342 130.755 L 96.342 120.428 95.836 120.455 C 95.557 120.470,94.519 120.762,93.528 121.104 M100.319 120.578 C 100.236 120.660,100.169 125.253,100.169 130.785 C 100.169 142.071,100.056 141.338,101.860 141.781 C 102.354 141.902,104.378 142.573,106.359 143.271 C 114.124 146.009,114.135 146.012,114.488 145.530 C 114.951 144.896,114.951 125.338,114.487 124.874 C 114.185 124.572,113.529 124.347,107.710 122.554 C 106.224 122.096,104.128 121.430,103.052 121.074 C 101.027 120.405,100.574 120.323,100.319 120.578 M129.994 121.101 C 129.004 121.441,127.029 122.078,125.605 122.518 C 124.181 122.957,122.054 123.615,120.878 123.981 L 118.739 124.646 118.681 135.149 C 118.613 147.262,118.344 146.206,121.249 145.214 C 125.755 143.676,129.618 142.299,130.019 142.088 C 130.253 141.965,130.869 141.794,131.388 141.708 C 132.917 141.455,132.853 141.877,132.978 131.253 C 133.123 119.027,133.390 119.935,129.994 121.101 M272.796 125.218 C 272.376 125.500,271.838 126.133,271.601 126.625 C 271.364 127.116,271.080 127.703,270.970 127.928 C 270.098 129.714,270.204 138.238,271.135 141.083 C 272.380 144.891,276.317 145.255,278.154 141.732 C 279.434 139.276,279.443 130.492,278.168 127.212 C 277.266 124.891,274.701 123.939,272.796 125.218 M276.083 125.349 C 277.771 126.117,278.360 127.607,278.669 131.889 C 279.241 139.822,277.873 143.832,274.594 143.836 C 271.855 143.840,270.793 141.095,270.793 134.011 C 270.793 126.652,272.566 123.749,276.083 125.349 M154.530 134.750 C 151.315 135.387,150.764 135.624,149.535 136.901 C 147.123 139.410,148.313 143.943,151.459 144.229 C 154.391 144.495,156.443 141.586,156.443 137.165 C 156.443 134.681,156.231 134.413,154.530 134.750 M224.198 134.755 C 220.129 135.428,218.109 137.182,218.065 140.080 C 217.979 145.761,224.799 145.481,226.027 139.754 C 226.843 135.950,226.279 134.411,224.198 134.755 M156.082 135.415 C 156.899 137.544,155.447 142.265,153.629 143.388 C 149.935 145.671,146.660 140.366,149.761 137.122 C 151.243 135.572,155.682 134.373,156.082 135.415 M225.795 135.549 C 226.083 136.087,225.936 138.852,225.545 140.262 C 224.375 144.481,219.505 145.255,218.573 141.370 C 217.855 138.377,219.550 136.061,222.960 135.375 C 225.019 134.961,225.496 134.990,225.795 135.549 M96.567 145.063 C 96.134 145.230,95.172 145.530,94.429 145.730 C 93.686 145.931,91.913 146.460,90.490 146.906 C 89.066 147.352,87.546 147.827,87.113 147.963 C 84.902 148.653,85.484 148.981,91.390 150.376 C 92.319 150.595,93.635 150.928,94.316 151.115 C 98.430 152.246,98.131 152.228,100.791 151.514 C 103.298 150.842,103.711 150.737,107.526 149.802 C 110.726 149.018,111.091 148.865,110.745 148.449 C 110.593 148.265,110.354 148.115,110.214 148.116 C 110.075 148.117,108.542 147.665,106.809 147.111 C 99.403 144.748,98.081 144.483,96.567 145.063 M82.206 151.311 C 82.004 151.513,81.936 154.072,81.936 161.441 C 81.936 172.393,81.879 171.986,83.450 172.323 C 83.793 172.396,84.309 172.552,84.596 172.668 C 84.883 172.785,86.200 173.245,87.522 173.691 C 88.845 174.137,90.585 174.749,91.390 175.052 C 93.278 175.761,95.937 176.476,96.165 176.335 C 96.262 176.275,96.342 171.534,96.342 165.799 C 96.342 154.386,96.417 154.990,94.970 154.735 C 94.110 154.584,91.374 153.774,86.210 152.144 C 82.240 150.890,82.560 150.957,82.206 151.311 M111.424 151.843 C 106.617 153.415,102.765 154.565,101.719 154.740 C 100.090 155.013,100.157 154.512,100.223 165.918 L 100.281 176.140 101.305 176.107 C 101.867 176.089,103.083 175.808,104.006 175.482 C 104.929 175.156,107.001 174.439,108.610 173.889 C 113.830 172.104,114.312 171.908,114.628 171.435 C 114.928 170.985,114.834 151.615,114.530 151.311 C 114.169 150.950,114.138 150.955,111.424 151.843 M260.534 151.691 C 258.558 152.895,259.354 155.656,261.677 155.656 C 262.845 155.656,263.522 155.123,263.724 154.045 C 264.102 152.032,262.234 150.654,260.534 151.691 M262.906 152.209 C 263.566 152.917,263.542 154.493,262.865 154.968 C 261.497 155.926,259.592 154.895,259.843 153.332 C 260.087 151.806,261.908 151.138,262.906 152.209 M180.079 152.446 L 179.516 152.743 179.458 163.945 C 179.419 171.412,179.478 175.295,179.634 175.588 C 180.035 176.336,181.057 176.157,181.822 175.203 L 182.483 174.379 182.968 174.864 C 186.567 178.464,192.978 175.676,194.016 170.061 C 195.591 161.541,190.443 155.467,184.353 158.660 L 183.005 159.366 183.005 156.132 C 183.005 153.570,182.937 152.840,182.676 152.624 C 182.179 152.211,180.714 152.111,180.079 152.446 M182.426 152.970 C 182.714 153.258,182.780 153.908,182.780 156.446 C 182.780 159.761,182.868 160.044,183.710 159.417 C 186.015 157.701,189.818 157.995,191.744 160.039 C 194.635 163.107,194.691 170.327,191.852 173.924 C 189.848 176.462,185.483 176.798,183.186 174.589 C 182.461 173.892,182.061 173.994,181.447 175.034 C 180.973 175.837,180.578 175.986,180.124 175.532 C 179.724 175.132,179.735 152.927,180.135 152.766 C 180.757 152.515,182.090 152.634,182.426 152.970 M244.009 158.074 C 243.193 158.502,243.212 158.796,244.251 161.873 C 245.265 164.876,245.384 165.245,246.493 168.824 C 246.895 170.124,247.353 171.441,247.511 171.750 C 247.668 172.060,248.026 173.066,248.307 173.986 C 248.971 176.165,249.294 176.477,250.887 176.477 C 252.886 176.477,253.096 176.230,254.137 172.651 C 254.966 169.798,257.864 160.995,258.334 159.898 C 258.879 158.628,258.666 158.183,257.400 157.943 C 255.739 157.627,254.769 158.639,254.287 161.191 C 253.976 162.833,251.348 170.408,251.115 170.331 C 250.982 170.287,250.499 168.992,250.044 167.455 C 248.527 162.335,247.127 158.469,246.711 158.246 C 245.984 157.857,244.591 157.768,244.009 158.074 M260.136 158.206 C 259.585 158.815,259.567 175.798,260.117 176.349 C 260.638 176.869,262.730 176.830,263.218 176.291 C 263.818 175.627,263.782 158.712,263.179 158.167 C 262.590 157.634,260.631 157.659,260.136 158.206 M168.149 158.145 C 167.963 158.211,167.280 158.433,166.631 158.638 C 165.117 159.117,163.947 160.309,162.819 162.521 L 161.958 164.209 161.958 167.473 L 161.958 170.737 162.823 172.313 C 164.784 175.889,167.528 177.190,171.415 176.386 C 175.795 175.480,178.652 171.453,175.514 170.608 C 174.374 170.301,173.931 170.520,172.909 171.900 C 170.904 174.604,166.858 173.648,165.914 170.247 C 165.254 167.872,165.139 167.923,171.114 167.923 C 177.360 167.923,177.153 167.995,177.150 165.833 C 177.145 162.402,175.498 159.612,172.876 158.592 C 171.876 158.203,168.804 157.912,168.149 158.145 M204.045 158.211 C 199.982 158.941,198.029 162.944,200.175 166.145 C 200.924 167.262,202.709 168.121,205.477 168.695 C 208.926 169.411,209.792 169.933,209.792 171.296 C 209.792 174.104,204.627 174.399,202.630 171.705 L 201.801 170.587 200.675 170.731 C 198.536 171.003,198.326 171.966,199.949 174.060 C 202.325 177.127,209.762 177.473,212.163 174.628 C 215.501 170.674,213.091 166.264,207.091 165.347 C 204.112 164.891,203.039 164.246,203.039 162.911 C 203.039 160.650,206.777 160.268,208.888 162.314 C 210.096 163.484,210.316 163.555,211.626 163.191 C 212.943 162.825,212.894 161.806,211.471 159.941 C 210.432 158.578,206.760 157.723,204.045 158.211 M221.159 158.238 C 214.047 159.798,212.658 172.466,219.234 175.793 C 220.483 176.424,223.127 176.823,224.141 176.532 C 224.606 176.399,225.411 176.223,225.931 176.141 C 227.630 175.872,230.181 173.031,230.009 171.599 C 229.951 171.117,229.744 170.952,228.838 170.664 L 227.737 170.314 226.551 171.579 C 223.589 174.735,220.026 173.916,219.218 169.893 C 218.811 167.866,218.653 167.923,224.626 167.923 C 231.221 167.923,231.223 167.922,230.386 164.371 C 230.091 163.119,229.855 162.573,228.771 160.634 C 227.713 158.742,224.078 157.598,221.159 158.238 M271.356 158.219 C 268.172 158.804,265.965 161.656,265.624 165.622 C 264.961 173.352,268.640 177.565,274.915 176.261 C 277.073 175.813,279.572 172.748,279.572 170.552 C 279.572 168.648,276.342 169.141,275.885 171.114 C 275.480 172.862,273.325 173.944,271.764 173.182 C 268.581 171.628,268.216 164.496,271.178 161.749 C 272.711 160.328,275.352 161.348,275.957 163.596 C 276.602 165.990,279.866 165.801,279.481 163.392 C 278.909 159.813,275.274 157.498,271.356 158.219 M287.451 158.161 C 280.342 159.529,278.347 170.681,284.387 175.287 C 286.938 177.233,292.046 176.944,294.173 174.733 C 296.316 172.505,296.560 171.307,294.980 170.768 C 294.016 170.440,292.854 170.596,292.853 171.055 C 292.852 171.423,291.258 172.907,290.538 173.207 C 288.052 174.246,284.975 172.250,284.975 169.599 C 284.975 167.821,284.641 167.923,290.416 167.923 C 296.618 167.923,296.455 167.977,296.455 165.946 C 296.454 162.938,294.589 159.674,292.315 158.703 C 291.225 158.238,288.582 157.943,287.451 158.161 M302.757 158.237 C 297.238 159.288,296.203 165.878,301.247 167.858 C 302.450 168.331,305.331 169.049,306.023 169.049 C 306.762 169.049,308.136 170.007,308.373 170.688 C 309.450 173.777,303.921 174.686,301.475 171.822 C 300.831 171.069,300.274 170.625,299.973 170.626 C 295.407 170.638,297.993 175.404,303.082 176.356 C 308.425 177.356,312.212 175.108,312.212 170.935 C 312.212 167.837,310.068 165.967,305.796 165.337 C 303.418 164.986,302.332 164.517,302.072 163.729 C 301.136 160.891,305.437 159.834,307.607 162.369 C 308.744 163.696,311.311 163.646,311.311 162.296 C 311.311 159.508,306.949 157.438,302.757 158.237 M315.296 158.161 C 314.956 158.502,315.163 159.165,315.670 159.358 C 316.358 159.620,316.488 159.999,316.488 161.733 C 316.488 163.454,316.626 163.872,317.193 163.872 C 317.761 163.872,318.101 162.947,318.059 161.513 C 318.006 159.717,318.028 159.652,318.756 159.398 C 319.295 159.210,319.432 159.044,319.375 158.644 C 319.301 158.126,315.752 157.705,315.296 158.161 M320.475 158.301 C 319.907 158.725,320.226 163.715,320.828 163.830 C 321.047 163.873,321.411 163.680,321.635 163.403 L 322.044 162.899 322.564 163.420 C 323.077 163.932,323.692 163.665,323.692 162.928 C 323.692 162.498,324.342 162.793,324.408 163.253 C 324.517 164.026,325.430 164.065,325.717 163.310 C 326.006 162.550,326.010 159.351,325.723 158.597 C 325.315 157.523,323.467 157.906,323.467 159.064 C 323.467 159.935,323.052 159.872,322.570 158.927 C 322.072 157.951,321.265 157.710,320.475 158.301 M139.580 158.751 C 139.475 159.029,139.425 159.320,139.470 159.397 C 139.515 159.474,139.698 160.081,139.876 160.747 C 140.054 161.413,140.451 162.819,140.757 163.872 C 141.063 164.924,141.383 166.113,141.468 166.514 C 141.552 166.915,141.715 167.301,141.829 167.371 C 141.944 167.442,142.037 167.773,142.037 168.107 C 142.037 168.690,143.590 174.387,144.081 175.604 C 144.756 177.279,147.890 176.801,147.890 175.023 C 147.890 174.753,148.032 174.083,148.206 173.535 C 148.380 172.987,148.747 171.677,149.023 170.625 C 149.298 169.572,149.663 168.329,149.832 167.863 C 150.002 167.396,150.141 166.757,150.141 166.442 C 150.141 165.010,150.900 166.954,152.390 172.200 C 153.503 176.118,153.870 176.702,155.218 176.702 C 156.238 176.702,157.031 175.934,157.310 174.676 C 157.434 174.119,157.684 173.157,157.867 172.538 C 158.050 171.919,158.454 170.551,158.766 169.499 C 159.077 168.447,159.403 167.181,159.490 166.685 C 159.668 165.673,159.988 164.449,160.837 161.535 C 161.658 158.719,161.584 158.374,160.145 158.290 C 158.758 158.209,158.409 158.521,157.924 160.277 C 157.737 160.954,157.215 162.724,156.765 164.209 C 156.314 165.695,155.864 167.248,155.764 167.660 C 155.552 168.534,155.430 168.695,155.124 168.506 C 154.864 168.345,154.854 168.315,153.198 162.521 C 152.015 158.385,151.930 158.253,150.438 158.248 C 149.386 158.244,148.860 158.630,148.660 159.554 C 148.514 160.225,148.262 161.133,147.105 165.158 C 146.670 166.670,146.314 168.114,146.314 168.366 C 146.314 169.600,145.594 168.115,144.953 165.560 C 144.860 165.189,144.531 164.024,144.222 162.971 C 143.913 161.919,143.596 160.750,143.517 160.374 C 143.172 158.733,142.625 158.244,141.133 158.244 C 139.928 158.244,139.750 158.302,139.580 158.751 M238.154 158.619 C 237.721 158.806,237.088 159.221,236.747 159.544 C 236.269 159.996,236.128 160.047,236.128 159.766 C 236.128 158.831,233.765 158.221,233.022 158.965 C 232.634 159.352,232.634 175.820,233.022 176.207 C 233.403 176.588,235.259 176.543,235.835 176.139 C 236.302 175.813,236.320 175.623,236.392 170.456 C 236.485 163.795,237.144 162.199,239.993 161.732 C 241.619 161.465,242.293 160.119,241.523 158.680 C 241.232 158.136,239.357 158.103,238.154 158.619 M246.393 158.417 C 246.850 158.722,248.118 162.291,250.310 169.443 C 250.872 171.276,251.205 171.462,251.719 170.231 C 252.057 169.422,252.208 168.973,253.259 165.672 C 253.515 164.868,253.868 163.877,254.043 163.470 C 254.218 163.064,254.361 162.588,254.361 162.413 C 254.361 161.369,255.520 158.513,255.995 158.386 C 258.584 157.692,258.616 158.200,256.382 164.547 C 255.750 166.342,254.979 168.672,254.669 169.724 C 253.563 173.472,253.423 173.901,252.966 174.936 C 252.566 175.842,252.401 175.996,251.744 176.073 C 250.525 176.215,249.453 176.014,249.283 175.610 C 248.909 174.725,247.524 170.739,246.690 168.149 C 245.756 165.246,245.477 164.422,244.519 161.733 C 243.717 159.481,243.571 158.770,243.854 158.487 C 244.127 158.214,246.012 158.162,246.393 158.417 M262.784 158.381 C 263.394 158.615,263.317 175.917,262.705 176.244 C 261.923 176.662,260.724 176.527,260.339 175.977 C 259.880 175.321,259.804 158.969,260.259 158.514 C 260.541 158.232,262.171 158.146,262.784 158.381 M318.683 158.386 C 319.353 158.566,319.325 158.837,318.619 159.014 C 317.874 159.201,317.614 159.936,317.614 161.860 C 317.614 163.045,317.538 163.421,317.300 163.421 C 316.842 163.421,316.714 162.907,316.714 161.078 C 316.714 159.567,316.672 159.423,316.151 159.145 C 314.942 158.497,316.905 157.909,318.683 158.386 M321.794 158.417 C 321.926 158.507,322.271 159.078,322.561 159.683 C 323.112 160.835,323.686 160.740,323.695 159.496 C 323.700 158.780,324.006 158.456,324.723 158.404 L 325.380 158.357 325.444 160.889 C 325.521 163.974,324.949 164.652,324.541 161.958 C 324.420 161.158,323.819 161.461,323.495 162.485 C 323.134 163.626,322.789 163.475,322.296 161.961 C 321.920 160.808,321.586 160.888,321.431 162.167 C 321.151 164.493,320.548 163.580,320.544 160.822 C 320.540 158.507,320.905 157.805,321.794 158.417 M142.580 158.976 C 142.760 159.254,143.129 160.293,143.398 161.283 C 143.915 163.179,144.110 163.860,145.072 167.136 C 145.800 169.616,146.539 170.395,146.539 168.683 C 146.539 168.373,146.636 167.937,146.755 167.715 C 146.948 167.354,148.029 163.421,148.585 161.058 C 149.096 158.886,149.440 158.441,150.551 158.515 C 151.686 158.590,151.754 158.672,152.288 160.608 C 152.493 161.351,152.862 162.617,153.108 163.421 C 153.643 165.176,154.054 166.587,154.390 167.831 C 154.668 168.859,155.471 169.783,155.622 169.248 C 155.782 168.683,156.627 165.826,157.346 163.421 C 157.735 162.122,158.158 160.703,158.286 160.270 C 158.707 158.842,159.067 158.469,160.026 158.469 C 161.348 158.469,161.347 158.534,159.930 163.421 C 159.732 164.102,159.428 165.318,159.253 166.123 C 158.943 167.547,158.435 169.452,157.693 171.975 C 157.492 172.656,157.189 173.766,157.018 174.440 C 156.670 175.813,156.232 176.254,155.219 176.249 C 154.126 176.243,153.937 175.986,153.129 173.402 C 152.128 170.201,152.019 169.835,151.641 168.374 C 150.927 165.615,150.285 164.616,150.011 165.841 C 149.935 166.182,149.741 166.866,149.579 167.361 C 149.310 168.185,149.045 169.153,148.222 172.313 C 148.061 172.932,147.809 173.894,147.662 174.451 C 147.302 175.816,146.870 176.253,145.885 176.249 C 144.505 176.243,144.611 176.450,142.812 170.287 C 142.632 169.668,142.389 168.628,142.272 167.976 C 142.155 167.325,141.998 166.692,141.924 166.571 C 141.849 166.450,141.654 165.869,141.492 165.280 C 141.329 164.691,141.023 163.602,140.811 162.859 C 140.105 160.384,139.827 159.075,139.944 158.770 C 140.155 158.221,142.194 158.380,142.580 158.976 M172.643 158.844 C 175.121 159.752,176.917 162.772,176.925 166.042 C 176.928 167.538,177.193 167.473,171.101 167.473 C 165.425 167.473,165.447 167.468,165.449 168.925 C 165.455 173.629,170.122 175.497,173.227 172.037 L 174.366 170.768 175.365 170.978 C 176.934 171.308,176.808 172.479,175.012 174.269 C 172.452 176.820,167.003 176.882,164.598 174.388 C 160.489 170.125,161.759 160.810,166.706 158.932 C 168.176 158.374,171.238 158.328,172.643 158.844 M209.016 158.820 C 211.027 159.405,212.870 161.791,211.990 162.670 C 211.560 163.100,209.733 163.136,209.598 162.717 C 208.634 159.733,202.724 160.099,202.724 163.142 C 202.724 164.571,203.421 164.946,207.878 165.913 C 212.212 166.853,214.007 169.057,213.040 172.251 C 211.523 177.262,202.181 177.783,199.643 172.999 C 198.590 171.013,201.126 170.095,202.428 171.990 C 204.453 174.941,210.014 174.445,210.057 171.310 C 210.072 170.266,209.503 169.468,208.475 169.092 C 207.715 168.813,204.776 168.149,204.305 168.149 C 203.068 168.149,200.620 166.517,200.082 165.335 C 198.015 160.791,203.083 157.095,209.016 158.820 M225.844 158.839 C 228.296 159.615,230.276 163.022,230.276 166.467 C 230.276 167.471,230.264 167.473,224.517 167.473 C 218.208 167.473,218.173 167.490,218.931 170.193 C 220.074 174.266,223.700 175.149,226.575 172.056 C 228.593 169.883,230.636 170.776,229.114 173.166 C 227.602 175.538,226.429 176.097,222.939 176.105 C 217.461 176.119,214.764 172.207,215.595 165.455 C 216.260 160.058,220.680 157.204,225.844 158.839 M241.169 158.825 C 241.413 159.463,241.316 160.956,241.024 161.054 C 240.869 161.106,240.311 161.259,239.783 161.394 C 236.807 162.156,235.924 164.456,235.911 171.474 L 235.903 175.812 235.335 176.070 C 234.949 176.246,234.499 176.263,233.928 176.122 L 233.089 175.914 233.030 167.601 C 232.966 158.505,232.902 158.929,234.339 158.923 C 235.205 158.919,235.678 159.242,235.678 159.837 C 235.678 160.690,236.275 160.766,236.913 159.995 C 237.937 158.757,240.837 157.960,241.169 158.825 M275.603 158.906 C 278.570 160.178,280.484 164.779,278.042 164.769 C 276.937 164.764,276.723 164.598,276.306 163.415 C 275.647 161.547,273.982 160.482,272.294 160.847 C 267.671 161.848,267.711 172.866,272.341 173.882 C 273.792 174.201,275.922 172.638,276.322 170.962 C 276.567 169.937,276.838 169.724,277.904 169.724 C 279.740 169.724,279.614 171.519,277.590 174.181 C 275.743 176.612,270.923 176.899,268.407 174.729 C 265.034 171.819,265.033 163.345,268.405 159.972 C 269.864 158.514,273.448 157.983,275.603 158.906 M291.728 158.825 C 294.087 159.639,296.207 163.042,296.223 166.042 C 296.231 167.537,296.485 167.473,290.514 167.473 C 284.476 167.473,284.657 167.405,284.783 169.644 C 285.025 173.914,289.316 175.312,292.404 172.126 C 294.576 169.886,296.687 170.794,294.984 173.235 C 291.800 177.799,284.985 177.253,282.301 172.218 C 278.411 164.919,284.463 156.320,291.728 158.825 M307.780 158.839 C 309.549 159.400,310.861 160.813,310.861 162.159 C 310.861 163.449,308.937 163.435,307.825 162.136 C 305.956 159.951,302.389 160.116,301.628 162.422 C 301.143 163.890,302.283 165.095,304.498 165.456 C 308.788 166.154,310.367 166.904,311.362 168.718 C 312.369 170.553,312.075 172.748,310.589 174.496 C 307.780 177.801,298.030 175.932,298.030 172.088 C 298.030 170.563,299.998 170.616,301.342 172.177 C 303.224 174.361,306.533 174.619,308.294 172.718 C 310.152 170.713,307.196 168.215,302.870 168.134 C 299.020 168.062,296.987 162.602,299.816 159.932 C 301.276 158.556,305.189 158.018,307.780 158.839 M186.229 160.433 C 182.518 161.111,181.220 170.218,184.465 172.807 C 187.816 175.481,190.783 172.804,190.751 167.136 C 190.725 162.639,188.906 159.943,186.229 160.433 M168.042 161.009 C 166.566 161.845,165.087 164.547,165.745 165.205 C 165.899 165.359,167.366 165.447,169.765 165.447 L 173.542 165.447 173.680 164.901 C 174.363 162.178,170.584 159.569,168.042 161.009 M221.717 160.795 C 220.345 161.431,219.531 162.466,219.059 164.176 C 218.719 165.408,218.920 165.467,223.215 165.397 L 227.012 165.335 227.078 164.767 C 227.373 162.244,223.993 159.740,221.717 160.795 M287.372 160.946 C 285.899 161.681,284.651 163.508,284.792 164.724 L 284.862 165.335 288.785 165.397 C 293.111 165.465,293.185 165.442,292.954 164.120 C 292.471 161.357,289.702 159.783,287.372 160.946 M171.427 161.176 C 172.114 161.437,173.321 163.550,173.324 164.496 L 173.326 165.233 169.668 165.172 C 165.400 165.099,165.362 165.072,166.622 162.986 C 167.832 160.982,169.382 160.398,171.427 161.176 M188.147 161.152 C 191.410 162.817,191.214 171.860,187.885 173.211 C 182.729 175.303,180.778 163.758,185.819 160.982 C 186.484 160.615,187.196 160.668,188.147 161.152 M224.584 161.195 C 225.668 161.594,227.264 164.622,226.613 165.043 C 226.461 165.141,224.768 165.197,222.850 165.166 C 218.867 165.102,218.834 165.082,219.716 163.317 C 220.824 161.099,222.427 160.401,224.584 161.195 M291.243 161.691 C 291.973 162.371,292.628 163.718,292.628 164.538 L 292.628 165.222 288.907 165.222 C 284.678 165.222,284.659 165.213,285.385 163.572 C 286.508 161.033,289.506 160.071,291.243 161.691 " stroke="none" fill="#fcb437" fill-rule="evenodd"></path></g></svg>
