<svg id="svg" xmlns="http://www.w3.org/2000/svg" xmlns:xlink="http://www.w3.org/1999/xlink" width="80" height="81.934" viewBox="0, 0, 400,449.6666666666667"><g id="svgg"><path id="path0" d="M191.674 0.691 C 186.586 1.790,185.094 2.492,173.083 9.444 C 162.517 15.559,159.745 17.162,152.500 21.341 C 148.283 23.773,142.883 26.892,140.500 28.273 C 138.117 29.653,134.292 31.861,132.000 33.180 C 126.706 36.226,113.808 43.672,108.167 46.939 C 105.783 48.320,101.958 50.528,99.667 51.847 C 94.373 54.892,81.475 62.339,75.833 65.606 C 73.450 66.986,69.550 69.239,67.167 70.611 C 58.027 75.873,56.709 76.633,52.500 79.066 C 50.117 80.444,46.142 82.744,43.667 84.177 C 41.192 85.610,37.292 87.861,35.000 89.180 C 30.978 91.493,27.102 93.731,19.000 98.417 C 10.265 103.468,4.259 111.117,1.087 121.231 L 0.167 124.167 0.063 223.667 C -0.016 299.382,0.053 323.724,0.355 325.500 C 1.152 330.199,4.219 337.529,5.272 337.252 C 5.664 337.149,83.432 292.437,84.242 291.848 C 84.284 291.818,82.845 288.877,81.046 285.313 C 49.009 221.853,72.097 144.669,133.684 109.348 C 195.965 73.629,276.425 94.113,313.648 155.164 L 315.558 158.297 354.863 135.617 C 376.480 123.144,394.347 112.764,394.566 112.552 C 395.206 111.936,391.715 107.110,388.195 103.746 C 384.976 100.668,385.453 100.972,368.167 90.992 C 363.950 88.558,358.550 85.439,356.167 84.061 C 353.783 82.683,349.958 80.474,347.667 79.152 C 331.575 69.867,327.675 67.615,323.833 65.394 C 321.450 64.017,317.625 61.807,315.333 60.485 C 300.068 51.676,295.356 48.957,291.667 46.826 C 283.782 42.271,278.815 39.403,271.167 34.990 C 266.950 32.557,261.550 29.439,259.167 28.061 C 256.783 26.683,252.958 24.473,250.667 23.150 C 248.375 21.827,243.575 19.053,240.000 16.986 C 213.690 1.776,214.986 2.466,210.167 1.106 C 205.850 -0.111,196.373 -0.324,191.674 0.691 M190.500 159.189 C 145.055 166.120,119.239 216.933,141.205 256.213 L 142.369 258.294 146.268 256.027 C 148.412 254.781,173.117 240.519,201.167 224.334 C 229.217 208.148,253.329 194.232,254.750 193.408 C 257.833 191.620,257.806 191.811,255.464 188.301 C 241.281 167.050,215.299 155.406,190.500 159.189 M307.250 202.916 C 309.313 202.974,312.688 202.974,314.750 202.916 C 316.813 202.857,315.125 202.809,311.000 202.809 C 306.875 202.809,305.188 202.857,307.250 202.916 M362.917 202.916 C 364.979 202.974,368.354 202.974,370.417 202.916 C 372.479 202.857,370.792 202.809,366.667 202.809 C 362.542 202.809,360.854 202.857,362.917 202.916 M292.583 232.582 C 294.646 232.641,298.021 232.641,300.083 232.582 C 302.146 232.524,300.458 232.476,296.333 232.476 C 292.208 232.476,290.521 232.524,292.583 232.582 M322.250 232.582 C 324.313 232.641,327.688 232.641,329.750 232.582 C 331.813 232.524,330.125 232.476,326.000 232.476 C 321.875 232.476,320.188 232.524,322.250 232.582 M348.065 232.582 C 350.026 232.641,353.326 232.641,355.398 232.582 C 357.471 232.524,355.867 232.476,351.833 232.475 C 347.800 232.475,346.104 232.523,348.065 232.582 M377.732 232.582 C 379.692 232.641,382.992 232.641,385.065 232.582 C 387.138 232.524,385.533 232.476,381.500 232.475 C 377.467 232.475,375.771 232.523,377.732 232.582 " stroke="none" fill="#649cd3" fill-rule="evenodd"></path><path id="path1" d="M192.128 92.016 C 127.657 95.690,74.594 146.149,67.530 210.500 C 57.927 297.978,134.709 370.685,221.667 356.456 C 259.902 350.199,295.540 325.942,314.447 293.304 L 315.333 291.775 286.648 275.173 C 270.691 265.938,257.845 258.703,257.697 258.869 C 257.552 259.033,256.370 260.742,255.072 262.667 C 231.837 297.124,182.098 301.668,152.665 272.022 C 124.364 243.516,127.670 196.357,159.678 171.991 C 190.496 148.532,235.509 156.506,256.144 189.079 C 257.626 191.419,257.825 191.606,258.466 191.268 C 259.996 190.460,314.527 158.884,314.910 158.584 C 315.443 158.167,315.361 158.016,311.140 151.617 C 285.050 112.071,239.603 89.311,192.128 92.016 M303.667 210.333 L 303.667 217.667 296.333 217.667 L 289.000 217.667 289.000 225.000 L 289.000 232.333 296.327 232.333 L 303.654 232.333 303.744 239.750 L 303.833 247.167 311.083 247.257 L 318.333 247.346 318.333 239.840 L 318.333 232.333 325.833 232.333 L 333.333 232.333 333.333 225.000 L 333.333 217.667 325.833 217.667 L 318.333 217.667 318.333 210.333 L 318.333 203.000 311.000 203.000 L 303.667 203.000 303.667 210.333 M359.333 210.333 L 359.333 217.667 352.000 217.667 L 344.667 217.667 344.667 225.000 L 344.667 232.333 352.000 232.333 L 359.333 232.333 359.333 239.833 L 359.333 247.333 366.667 247.333 L 374.000 247.333 374.000 239.833 L 374.000 232.333 381.333 232.333 L 388.667 232.333 388.667 225.000 L 388.667 217.667 381.333 217.667 L 374.000 217.667 374.000 210.333 L 374.000 203.000 366.667 203.000 L 359.333 203.000 359.333 210.333 " stroke="none" fill="#fbfbfb" fill-rule="evenodd"></path><path id="path2" d="M355.657 135.281 C 334.121 147.723,303.525 165.398,287.667 174.560 C 271.808 183.721,245.558 198.871,229.333 208.225 C 213.108 217.579,186.902 232.695,171.097 241.817 L 142.361 258.403 143.645 260.421 C 170.108 302.043,230.312 301.855,256.642 260.070 C 257.253 259.100,257.862 258.350,257.994 258.403 C 258.126 258.456,271.148 265.974,286.931 275.110 L 315.627 291.719 314.269 293.943 C 262.309 379.027,138.524 379.746,86.609 295.266 C 85.106 292.820,84.444 292.014,84.060 292.162 C 83.407 292.412,5.592 337.311,5.244 337.638 C 4.535 338.304,10.321 345.541,13.721 348.240 C 15.612 349.741,178.721 444.198,184.000 446.848 C 188.857 449.287,190.154 449.500,200.167 449.500 L 209.167 449.500 212.299 448.407 C 214.234 447.731,217.738 445.988,221.466 443.846 C 301.440 397.890,384.736 349.497,386.747 347.820 C 392.242 343.237,396.805 335.933,399.234 327.833 C 399.804 325.930,399.837 321.008,399.919 225.803 L 400.005 125.773 399.178 122.512 C 398.331 119.172,395.772 112.974,395.157 112.773 C 394.969 112.711,377.194 122.840,355.657 135.281 M318.667 210.167 L 318.667 217.667 326.000 217.667 L 333.333 217.667 333.333 225.167 L 333.333 232.667 326.000 232.667 L 318.667 232.667 318.667 240.000 L 318.667 247.333 311.167 247.333 L 303.667 247.333 303.667 240.006 L 303.667 232.679 296.250 232.590 L 288.833 232.500 288.744 225.083 L 288.654 217.667 296.160 217.667 L 303.667 217.667 303.667 210.167 L 303.667 202.667 311.167 202.667 L 318.667 202.667 318.667 210.167 M374.256 210.250 L 374.346 217.667 381.673 217.667 L 389.000 217.667 389.000 225.167 L 389.000 232.667 381.667 232.667 L 374.333 232.667 374.333 240.000 L 374.333 247.333 366.667 247.333 L 359.000 247.333 359.000 240.000 L 359.000 232.667 351.667 232.667 L 344.333 232.667 344.333 225.167 L 344.333 217.667 351.667 217.667 L 359.000 217.667 359.000 210.389 C 359.000 206.386,359.103 203.008,359.228 202.883 C 359.354 202.757,362.767 202.695,366.812 202.744 L 374.167 202.833 374.256 210.250 " stroke="none" fill="#044d8d" fill-rule="evenodd"></path><path id="path3" d="M193.250 91.908 C 193.846 91.982,194.821 91.982,195.417 91.908 C 196.012 91.834,195.525 91.773,194.333 91.773 C 193.142 91.773,192.654 91.834,193.250 91.908 M204.250 91.908 C 204.846 91.982,205.821 91.982,206.417 91.908 C 207.012 91.834,206.525 91.773,205.333 91.773 C 204.142 91.773,203.654 91.834,204.250 91.908 M210.417 92.230 C 210.737 92.314,211.262 92.314,211.583 92.230 C 211.904 92.146,211.642 92.077,211.000 92.077 C 210.358 92.077,210.096 92.146,210.417 92.230 M108.322 128.250 L 106.500 130.167 108.417 128.345 C 110.197 126.652,110.486 126.333,110.239 126.333 C 110.187 126.333,109.324 127.196,108.322 128.250 M290.667 127.500 C 291.289 128.142,291.872 128.667,291.964 128.667 C 292.056 128.667,291.622 128.142,291.000 127.500 C 290.378 126.858,289.794 126.333,289.703 126.333 C 289.611 126.333,290.045 126.858,290.667 127.500 M102.821 133.750 L 101.167 135.500 102.917 133.846 C 103.879 132.936,104.667 132.149,104.667 132.096 C 104.667 131.847,104.358 132.124,102.821 133.750 M297.000 133.771 C 297.000 133.828,297.487 134.316,298.083 134.854 L 299.167 135.833 298.188 134.750 C 297.275 133.740,297.000 133.513,297.000 133.771 M197.735 158.580 C 198.965 158.644,201.065 158.645,202.402 158.581 C 203.739 158.518,202.733 158.465,200.167 158.465 C 197.600 158.464,196.506 158.516,197.735 158.580 M243.667 174.771 C 243.667 174.828,244.154 175.316,244.750 175.854 L 245.833 176.833 244.854 175.750 C 243.942 174.740,243.667 174.513,243.667 174.771 M154.484 176.417 L 153.167 177.833 154.583 176.516 C 155.362 175.791,156.000 175.153,156.000 175.099 C 156.000 174.847,155.710 175.099,154.484 176.417 M150.982 179.917 L 149.833 181.167 151.083 180.018 C 152.247 178.949,152.487 178.667,152.232 178.667 C 152.176 178.667,151.614 179.229,150.982 179.917 M248.667 179.771 C 248.667 179.828,249.154 180.316,249.750 180.854 L 250.833 181.833 249.854 180.750 C 248.942 179.740,248.667 179.513,248.667 179.771 M318.476 210.333 C 318.476 214.458,318.524 216.146,318.582 214.083 C 318.641 212.021,318.641 208.646,318.582 206.583 C 318.524 204.521,318.476 206.208,318.476 210.333 M66.762 218.167 C 66.765 219.083,66.829 219.419,66.906 218.912 C 66.982 218.405,66.980 217.655,66.901 217.245 C 66.822 216.835,66.760 217.250,66.762 218.167 M344.476 225.000 C 344.476 229.125,344.524 230.813,344.582 228.750 C 344.641 226.688,344.641 223.313,344.582 221.250 C 344.524 219.188,344.476 220.875,344.476 225.000 M388.809 225.000 C 388.809 229.125,388.857 230.813,388.916 228.750 C 388.974 226.688,388.974 223.313,388.916 221.250 C 388.857 219.188,388.809 220.875,388.809 225.000 M133.424 221.333 C 133.424 222.158,133.489 222.496,133.569 222.083 C 133.648 221.671,133.648 220.996,133.569 220.583 C 133.489 220.171,133.424 220.508,133.424 221.333 M133.429 228.833 C 133.431 229.750,133.496 230.085,133.573 229.579 C 133.649 229.072,133.647 228.322,133.568 227.912 C 133.489 227.502,133.426 227.917,133.429 228.833 M66.762 232.167 C 66.765 233.083,66.829 233.419,66.906 232.912 C 66.982 232.405,66.980 231.655,66.901 231.245 C 66.822 230.835,66.760 231.250,66.762 232.167 M318.476 239.667 C 318.476 243.792,318.524 245.479,318.582 243.417 C 318.641 241.354,318.641 237.979,318.582 235.917 C 318.524 233.854,318.476 235.542,318.476 239.667 M246.990 272.250 L 244.833 274.500 247.083 272.343 C 248.321 271.157,249.333 270.144,249.333 270.093 C 249.333 269.848,248.994 270.160,246.990 272.250 M152.667 272.167 C 153.662 273.175,154.552 274.000,154.644 274.000 C 154.736 274.000,153.996 273.175,153.000 272.167 C 152.004 271.158,151.114 270.333,151.023 270.333 C 150.931 270.333,151.671 271.158,152.667 272.167 M192.750 358.230 C 193.071 358.314,193.596 358.314,193.917 358.230 C 194.237 358.146,193.975 358.077,193.333 358.077 C 192.692 358.077,192.429 358.146,192.750 358.230 " stroke="none" fill="#9abddf" fill-rule="evenodd"></path><path id="path4" d="M359.143 210.333 C 359.143 214.458,359.190 216.146,359.249 214.083 C 359.307 212.021,359.307 208.646,359.249 206.583 C 359.190 204.521,359.143 206.208,359.143 210.333 M374.143 210.333 C 374.143 214.458,374.190 216.146,374.249 214.083 C 374.307 212.021,374.307 208.646,374.249 206.583 C 374.190 204.521,374.143 206.208,374.143 210.333 M288.809 225.000 C 288.809 229.125,288.857 230.813,288.916 228.750 C 288.974 226.688,288.974 223.313,288.916 221.250 C 288.857 219.188,288.809 220.875,288.809 225.000 M359.143 240.000 C 359.143 244.125,359.190 245.813,359.249 243.750 C 359.307 241.688,359.307 238.313,359.249 236.250 C 359.190 234.188,359.143 235.875,359.143 240.000 M374.143 240.000 C 374.143 244.125,374.190 245.813,374.249 243.750 C 374.307 241.688,374.307 238.313,374.249 236.250 C 374.190 234.188,374.143 235.875,374.143 240.000 M294.146 319.417 L 293.167 320.500 294.250 319.521 C 294.846 318.983,295.333 318.495,295.333 318.438 C 295.333 318.180,295.058 318.407,294.146 319.417 " stroke="none" fill="#4d8ac6" fill-rule="evenodd"></path></g></svg>
