<svg id="svg" xmlns="http://www.w3.org/2000/svg" xmlns:xlink="http://www.w3.org/1999/xlink" width="90" height="90" viewBox="0, 0, 400,400"><g id="svgg"><path id="path0" d="M192.125 83.646 C 191.713 83.701,189.969 83.869,188.250 84.020 C 167.180 85.869,145.035 94.831,127.762 108.499 C 84.901 142.415,71.307 201.359,94.983 250.627 C 132.704 329.123,240.935 339.616,293.318 269.856 C 296.169 266.060,301.467 257.869,301.218 257.644 C 301.064 257.505,250.948 229.964,250.622 229.839 C 250.450 229.773,249.611 230.788,248.677 232.190 C 228.183 262.975,184.838 267.344,158.747 241.253 C 135.969 218.475,135.976 181.548,158.762 158.762 C 184.691 132.834,227.929 137.017,248.406 167.435 C 249.689 169.340,249.833 169.473,250.334 169.209 C 251.912 168.375,299.910 140.914,300.099 140.736 C 300.362 140.491,297.892 136.460,294.969 132.361 C 275.766 105.438,246.313 88.097,213.000 84.101 C 209.832 83.721,194.142 83.379,192.125 83.646 " stroke="none" fill="#fbfbfb" fill-rule="evenodd"></path><path id="path1" d="M327.396 125.130 C 312.832 133.445,300.739 140.409,300.521 140.606 C 299.936 141.135,250.202 169.530,249.676 169.636 C 249.343 169.703,149.033 226.743,148.534 227.149 C 148.484 227.190,149.135 228.382,149.980 229.799 C 171.828 266.428,224.443 267.827,248.339 232.415 C 249.282 231.018,250.136 229.786,250.237 229.677 C 250.375 229.529,300.939 257.106,301.431 257.597 C 301.685 257.852,296.321 266.093,293.276 270.125 C 242.959 336.750,140.631 330.657,99.020 258.558 C 98.287 257.289,97.647 256.250,97.598 256.250 C 97.548 256.250,85.566 263.063,70.971 271.389 C 56.376 279.716,44.303 286.478,44.142 286.416 C 43.981 286.354,43.483 285.588,43.035 284.714 C 41.910 282.515,42.305 283.910,43.519 286.421 C 44.766 289.001,47.527 292.018,50.085 293.597 C 53.286 295.573,190.572 372.557,192.375 373.387 C 197.069 375.550,202.931 375.550,207.625 373.387 C 209.428 372.557,346.714 295.573,349.915 293.597 C 353.583 291.334,356.569 287.363,357.799 283.114 L 358.375 281.125 358.375 200.125 C 358.375 121.930,358.359 119.060,357.909 117.250 C 357.184 114.332,354.861 109.978,354.044 110.006 C 353.951 110.009,341.959 116.815,327.396 125.130 M41.623 200.250 C 41.623 244.044,41.652 261.959,41.687 240.062 C 41.723 218.166,41.723 182.334,41.687 160.437 C 41.652 138.541,41.623 156.456,41.623 200.250 " stroke="none" fill="#333f9f" fill-rule="evenodd"></path><path id="path2" d="M195.500 25.384 C 194.606 25.573,193.256 25.980,192.500 26.287 C 190.974 26.909,50.949 105.245,49.139 106.491 C 45.811 108.780,43.172 112.596,42.132 116.625 C 41.645 118.508,41.539 278.871,42.022 281.646 C 42.340 283.473,43.743 286.375,44.308 286.375 C 44.523 286.375,56.607 279.585,71.162 271.286 L 97.625 256.197 95.346 251.632 C 66.666 194.186,90.620 123.776,148.553 95.238 C 203.044 68.394,269.584 88.206,300.395 140.448 C 300.448 140.539,353.529 110.280,353.865 109.968 C 354.200 109.656,351.478 106.958,349.625 105.764 C 348.482 105.028,219.549 32.988,213.192 29.533 C 212.468 29.139,211.313 28.492,210.625 28.094 C 205.889 25.351,200.344 24.358,195.500 25.384 M195.500 141.922 C 158.143 144.742,133.001 182.351,144.654 217.982 C 146.060 222.284,148.196 227.049,148.672 226.949 C 149.211 226.835,249.480 169.649,249.491 169.449 C 249.509 169.094,246.565 164.976,244.566 162.560 C 232.854 148.412,214.089 140.519,195.500 141.922 M117.375 282.500 C 118.607 283.738,119.671 284.750,119.740 284.750 C 119.808 284.750,118.857 283.738,117.625 282.500 C 116.393 281.262,115.329 280.250,115.260 280.250 C 115.192 280.250,116.143 281.262,117.375 282.500 M282.370 282.563 L 280.125 284.875 282.438 282.630 C 283.709 281.396,284.750 280.355,284.750 280.318 C 284.750 280.136,284.455 280.415,282.370 282.563 " stroke="none" fill="#5c6cbb" fill-rule="evenodd"></path><path id="path3" d="M194.813 83.422 C 195.053 83.485,195.447 83.485,195.688 83.422 C 195.928 83.359,195.731 83.308,195.250 83.308 C 194.769 83.308,194.572 83.359,194.813 83.422 M204.313 83.422 C 204.553 83.485,204.947 83.485,205.188 83.422 C 205.428 83.359,205.231 83.308,204.750 83.308 C 204.269 83.308,204.072 83.359,204.313 83.422 M117.370 117.563 L 114.875 120.125 117.438 117.630 C 118.847 116.257,120.000 115.104,120.000 115.067 C 120.000 114.886,119.688 115.182,117.370 117.563 M282.375 117.500 C 283.745 118.875,284.922 120.000,284.991 120.000 C 285.059 120.000,283.995 118.875,282.625 117.500 C 281.255 116.125,280.078 115.000,280.009 115.000 C 279.941 115.000,281.005 116.125,282.375 117.500 M83.308 195.250 C 83.308 195.731,83.359 195.928,83.422 195.688 C 83.485 195.447,83.485 195.053,83.422 194.813 C 83.359 194.572,83.308 194.769,83.308 195.250 M83.308 204.750 C 83.308 205.231,83.359 205.428,83.422 205.188 C 83.485 204.947,83.485 204.553,83.422 204.313 C 83.359 204.072,83.308 204.269,83.308 204.750 " stroke="none" fill="#8b94cc" fill-rule="evenodd"></path><path id="path4" d="M197.938 83.436 C 199.072 83.482,200.928 83.482,202.063 83.436 C 203.197 83.390,202.269 83.352,200.000 83.352 C 197.731 83.352,196.803 83.390,197.938 83.436 M191.563 83.672 C 191.803 83.735,192.197 83.735,192.438 83.672 C 192.678 83.609,192.481 83.558,192.000 83.558 C 191.519 83.558,191.322 83.609,191.563 83.672 M207.563 83.672 C 207.803 83.735,208.197 83.735,208.438 83.672 C 208.678 83.609,208.481 83.558,208.000 83.558 C 207.519 83.558,207.322 83.609,207.563 83.672 M199.563 141.672 C 199.803 141.735,200.197 141.735,200.438 141.672 C 200.678 141.609,200.481 141.558,200.000 141.558 C 199.519 141.558,199.322 141.609,199.563 141.672 M158.613 158.813 L 157.625 159.875 158.688 158.887 C 159.676 157.968,159.865 157.750,159.676 157.750 C 159.635 157.750,159.157 158.228,158.613 158.813 M241.125 158.750 C 241.662 159.300,242.158 159.750,242.226 159.750 C 242.295 159.750,241.912 159.300,241.375 158.750 C 240.838 158.200,240.342 157.750,240.274 157.750 C 240.205 157.750,240.588 158.200,241.125 158.750 M83.558 192.000 C 83.558 192.481,83.609 192.678,83.672 192.438 C 83.735 192.197,83.735 191.803,83.672 191.563 C 83.609 191.322,83.558 191.519,83.558 192.000 M83.352 200.000 C 83.352 202.269,83.390 203.197,83.436 202.063 C 83.482 200.928,83.482 199.072,83.436 197.938 C 83.390 196.803,83.352 197.731,83.352 200.000 M141.575 200.000 C 141.575 200.756,141.622 201.066,141.679 200.688 C 141.736 200.309,141.736 199.691,141.679 199.313 C 141.622 198.934,141.575 199.244,141.575 200.000 M83.558 208.000 C 83.558 208.481,83.609 208.678,83.672 208.438 C 83.735 208.197,83.735 207.803,83.672 207.563 C 83.609 207.322,83.558 207.519,83.558 208.000 M158.625 241.250 C 159.441 242.075,160.166 242.750,160.234 242.750 C 160.303 242.750,159.691 242.075,158.875 241.250 C 158.059 240.425,157.334 239.750,157.266 239.750 C 157.197 239.750,157.809 240.425,158.625 241.250 M241.117 241.313 L 239.625 242.875 241.188 241.383 C 242.047 240.562,242.750 239.859,242.750 239.820 C 242.750 239.636,242.503 239.861,241.117 241.313 M198.938 258.433 C 199.522 258.486,200.478 258.486,201.063 258.433 C 201.647 258.380,201.169 258.337,200.000 258.337 C 198.831 258.337,198.353 258.380,198.938 258.433 M198.438 316.685 C 199.297 316.734,200.703 316.734,201.563 316.685 C 202.422 316.636,201.719 316.596,200.000 316.596 C 198.281 316.596,197.578 316.636,198.438 316.685 " stroke="none" fill="#a8b0da" fill-rule="evenodd"></path></g></svg>
