<svg id="svg" xmlns="http://www.w3.org/2000/svg" xmlns:xlink="http://www.w3.org/1999/xlink" width="100" height="100" viewBox="0, 0, 400,400"><g id="svgg"><path id="path0" d="M57.200 56.400 C 57.200 57.067,56.933 57.200,55.600 57.200 C 54.267 57.200,54.000 57.333,54.000 58.000 C 54.000 58.504,53.733 58.800,53.280 58.800 C 52.884 58.800,52.318 59.025,52.021 59.300 C 51.584 59.706,51.535 59.687,51.760 59.200 C 51.912 58.870,51.737 59.005,51.370 59.500 C 51.003 59.995,50.454 60.400,50.151 60.400 C 49.848 60.400,49.600 60.676,49.600 61.013 C 49.600 61.350,49.251 61.755,48.824 61.913 C 48.397 62.071,48.050 62.290,48.052 62.400 C 48.065 63.024,47.160 64.800,46.829 64.800 C 46.614 64.800,46.151 65.404,45.800 66.143 C 45.450 66.881,44.631 67.995,43.982 68.618 C 43.332 69.240,42.803 70.121,42.806 70.575 C 42.810 71.125,42.916 71.236,43.124 70.908 C 43.353 70.549,43.646 70.656,44.218 71.308 C 44.984 72.182,45.002 73.253,45.096 124.600 C 45.200 181.171,45.082 178.338,47.383 179.444 C 48.053 179.765,49.251 180.427,50.047 180.914 C 51.904 182.051,56.629 184.870,57.626 185.436 C 58.049 185.675,58.711 186.135,59.097 186.458 C 59.484 186.781,60.250 187.267,60.800 187.538 C 62.424 188.339,63.549 189.031,64.297 189.688 C 64.684 190.028,65.405 190.429,65.900 190.580 C 66.395 190.730,66.800 191.010,66.800 191.200 C 66.800 191.390,67.179 191.666,67.641 191.813 C 68.370 192.044,69.448 192.689,72.000 194.422 C 72.959 195.073,74.498 195.930,75.900 196.595 C 76.615 196.934,77.200 197.349,77.200 197.518 C 77.200 197.686,77.695 198.051,78.300 198.327 C 79.673 198.955,81.281 199.890,83.600 201.410 C 84.590 202.060,85.850 202.818,86.400 203.095 C 86.950 203.372,87.940 203.954,88.600 204.388 C 89.260 204.821,90.331 205.474,90.980 205.840 C 91.630 206.205,92.408 206.750,92.709 207.052 C 93.010 207.353,93.416 207.600,93.611 207.600 C 93.920 207.600,96.263 209.020,97.400 209.897 C 97.620 210.067,98.250 210.441,98.800 210.730 C 100.482 211.611,102.116 212.575,104.000 213.800 C 104.990 214.443,106.288 215.247,106.884 215.585 C 109.934 217.316,112.623 218.981,112.814 219.258 C 112.931 219.428,114.101 220.136,115.414 220.829 C 116.726 221.523,118.084 222.340,118.431 222.645 C 118.779 222.950,119.246 223.200,119.470 223.200 C 119.693 223.200,120.202 223.560,120.600 224.000 C 120.998 224.440,121.628 224.800,122.000 224.800 C 122.372 224.800,123.002 225.160,123.400 225.600 C 123.798 226.040,124.268 226.400,124.444 226.400 C 124.718 226.400,126.845 227.693,128.219 228.694 C 129.027 229.283,131.010 230.403,132.100 230.887 C 132.705 231.156,133.200 231.514,133.200 231.682 C 133.200 231.851,133.785 232.258,134.500 232.587 C 135.851 233.208,135.988 233.288,139.598 235.595 C 140.807 236.368,142.247 237.225,142.798 237.500 C 143.349 237.774,144.340 238.354,145.000 238.788 C 145.660 239.221,146.740 239.876,147.400 240.244 C 148.060 240.611,148.690 241.022,148.800 241.156 C 149.063 241.477,151.066 242.629,152.700 243.398 C 153.415 243.735,154.000 244.149,154.000 244.318 C 154.000 244.486,154.495 244.838,155.100 245.098 C 155.705 245.358,156.560 245.799,157.000 246.077 C 157.820 246.597,162.367 249.426,163.800 250.309 C 164.240 250.580,164.967 250.963,165.416 251.159 C 165.865 251.356,166.458 251.788,166.733 252.119 C 167.008 252.450,167.675 252.833,168.216 252.968 C 168.757 253.104,169.200 253.392,169.200 253.608 C 169.200 253.823,169.456 254.000,169.769 254.000 C 170.082 254.000,170.847 254.412,171.469 254.916 C 172.091 255.419,173.050 256.051,173.600 256.320 C 174.150 256.589,175.140 257.167,175.800 257.605 C 176.460 258.043,177.573 258.669,178.273 258.995 C 178.973 259.321,179.665 259.782,179.812 260.019 C 179.958 260.256,180.465 260.628,180.939 260.845 C 181.412 261.063,182.520 261.678,183.400 262.212 C 184.280 262.746,185.585 263.490,186.300 263.866 C 187.015 264.241,187.600 264.677,187.600 264.835 C 187.600 264.993,188.095 265.325,188.700 265.573 C 190.179 266.181,191.442 266.933,192.329 267.736 C 192.733 268.101,193.342 268.400,193.683 268.400 C 194.023 268.400,194.511 268.652,194.767 268.961 C 195.215 269.500,198.617 271.278,200.132 271.765 C 200.794 271.977,205.813 269.580,208.788 267.631 C 209.344 267.266,210.160 266.759,210.600 266.505 C 211.040 266.250,212.660 265.269,214.200 264.325 C 218.132 261.915,217.937 262.031,222.066 259.622 C 224.120 258.424,226.610 256.883,227.600 256.197 C 228.590 255.511,229.670 254.830,230.000 254.684 C 230.330 254.537,231.320 253.967,232.200 253.418 C 233.080 252.869,234.430 252.050,235.200 251.598 C 235.970 251.147,237.081 250.468,237.669 250.089 C 238.256 249.710,240.506 248.351,242.669 247.069 C 244.831 245.787,249.030 243.214,252.000 241.350 C 254.970 239.487,257.670 237.848,258.000 237.708 C 258.330 237.568,259.050 237.151,259.600 236.781 C 262.314 234.954,265.213 233.171,265.868 232.924 C 266.271 232.773,267.410 232.088,268.400 231.402 C 269.390 230.716,271.190 229.570,272.400 228.855 C 273.610 228.139,276.490 226.403,278.800 224.995 C 281.110 223.588,284.142 221.754,285.539 220.918 C 286.935 220.083,288.492 219.130,289.000 218.800 C 289.508 218.470,291.065 217.518,292.461 216.684 C 293.858 215.851,296.260 214.374,297.800 213.403 C 299.340 212.433,301.140 211.357,301.800 211.014 C 302.460 210.670,304.260 209.590,305.800 208.614 C 307.340 207.638,310.130 205.915,312.000 204.787 C 313.870 203.658,316.210 202.213,317.200 201.575 C 318.190 200.938,319.360 200.223,319.800 199.987 C 320.240 199.752,321.255 199.163,322.056 198.679 C 322.857 198.196,324.567 197.180,325.856 196.422 C 327.145 195.665,329.011 194.479,330.002 193.788 C 330.993 193.097,331.983 192.457,332.202 192.366 C 332.601 192.199,338.422 188.724,340.183 187.600 C 340.700 187.270,342.265 186.318,343.661 185.484 C 345.058 184.651,347.460 183.168,349.000 182.190 C 350.540 181.211,352.363 180.145,353.051 179.820 C 355.043 178.881,354.989 180.262,355.199 124.733 C 355.310 95.546,355.498 71.569,355.617 71.449 C 356.366 70.701,357.584 71.851,358.393 74.069 C 359.305 76.571,359.926 77.167,359.128 74.774 C 357.785 70.751,357.434 69.983,356.557 69.159 C 356.031 68.665,355.600 68.023,355.600 67.734 C 355.600 67.444,355.240 66.982,354.800 66.707 C 354.360 66.432,354.000 65.891,354.000 65.504 C 354.000 64.872,353.559 64.617,352.700 64.753 C 352.535 64.779,352.400 64.256,352.400 63.590 C 352.400 62.660,352.163 62.290,351.376 61.991 C 350.813 61.777,350.455 61.434,350.582 61.230 C 350.708 61.025,350.449 60.743,350.006 60.602 C 349.563 60.461,349.200 60.168,349.200 59.949 C 349.200 59.731,349.020 59.664,348.800 59.800 C 348.580 59.936,348.400 59.767,348.400 59.424 C 348.400 58.997,348.020 58.800,347.200 58.800 C 346.267 58.800,346.000 58.622,346.000 58.000 C 346.000 57.333,345.733 57.200,344.400 57.200 C 343.071 57.200,342.800 57.066,342.800 56.406 C 342.800 55.499,238.361 55.092,237.802 55.997 C 237.459 56.552,162.543 56.555,162.200 56.000 C 161.639 55.093,57.200 55.490,57.200 56.400 M44.625 70.280 C 44.439 70.764,44.257 70.817,43.924 70.484 C 43.591 70.151,43.616 69.863,44.022 69.373 C 44.643 68.626,45.034 69.214,44.625 70.280 M356.572 70.445 C 356.179 71.081,355.648 70.819,355.708 70.020 C 355.753 69.435,355.894 69.346,356.279 69.666 C 356.561 69.899,356.693 70.250,356.572 70.445 M42.080 72.080 C 41.816 72.344,41.600 72.963,41.600 73.456 C 41.600 73.949,41.420 74.464,41.200 74.600 C 40.980 74.736,40.800 75.053,40.800 75.304 C 40.800 76.146,41.529 75.044,42.125 73.300 C 42.767 71.422,42.766 71.394,42.080 72.080 M216.252 108.820 C 216.859 109.051,218.681 109.407,220.300 109.613 C 221.920 109.818,223.635 110.259,224.111 110.593 C 224.588 110.927,225.436 111.200,225.995 111.200 C 226.554 111.200,227.639 111.536,228.406 111.947 C 229.173 112.357,230.373 112.819,231.072 112.972 C 231.772 113.126,232.559 113.510,232.821 113.826 C 233.083 114.142,233.501 114.402,233.749 114.404 C 233.997 114.406,235.332 115.126,236.716 116.004 C 238.100 116.882,239.330 117.600,239.451 117.600 C 240.556 117.600,251.200 128.774,251.200 129.935 C 251.200 130.137,251.452 130.511,251.761 130.767 C 252.069 131.023,252.804 132.260,253.395 133.516 C 253.986 134.772,254.814 136.466,255.235 137.279 C 255.656 138.093,256.000 139.085,256.000 139.485 C 256.000 139.885,256.360 140.884,256.800 141.704 C 257.240 142.525,257.600 143.790,257.600 144.515 C 257.600 145.239,257.907 146.905,258.283 148.216 C 259.145 151.223,259.298 163.489,258.498 165.400 C 258.221 166.060,257.835 167.893,257.638 169.474 C 257.442 171.055,256.993 172.760,256.641 173.263 C 256.288 173.766,255.994 174.543,255.987 174.989 C 255.981 175.435,255.532 176.700,254.991 177.800 C 254.450 178.900,254.006 180.025,254.004 180.300 C 254.002 180.575,253.823 180.800,253.608 180.800 C 253.392 180.800,253.106 181.237,252.972 181.771 C 252.838 182.304,252.384 183.052,251.964 183.433 C 251.544 183.813,251.200 184.365,251.200 184.660 C 251.200 184.955,249.673 186.682,247.807 188.498 C 243.456 192.732,243.215 192.931,241.683 193.566 C 240.977 193.858,240.400 194.241,240.400 194.417 C 240.400 194.593,239.815 194.862,239.100 195.014 C 238.385 195.167,237.551 195.493,237.248 195.739 C 235.013 197.544,222.483 197.471,220.326 195.640 C 216.616 192.493,215.913 191.259,214.721 185.800 C 214.133 183.108,212.400 181.646,212.400 183.843 C 212.400 184.149,212.040 184.760,211.600 185.200 C 211.160 185.640,210.800 186.141,210.800 186.313 C 210.800 186.927,204.401 192.812,203.014 193.474 C 202.236 193.845,201.600 194.295,201.600 194.474 C 201.600 194.653,201.387 194.800,201.126 194.800 C 200.866 194.800,199.921 195.137,199.026 195.548 C 198.132 195.960,195.310 196.696,192.756 197.185 L 188.113 198.073 184.556 197.199 C 179.107 195.860,172.400 191.329,172.400 188.987 C 172.400 188.724,172.040 188.050,171.600 187.491 C 171.160 186.931,170.800 186.104,170.800 185.652 C 170.800 185.200,170.440 183.916,170.000 182.800 C 168.973 180.195,168.852 172.407,169.803 170.131 C 170.135 169.337,170.521 167.709,170.662 166.513 C 170.802 165.317,171.251 163.685,171.659 162.885 C 172.066 162.085,172.400 161.192,172.400 160.899 C 172.400 160.607,172.722 159.880,173.116 159.284 C 174.232 157.595,174.744 156.698,175.332 155.400 C 175.631 154.740,176.174 153.953,176.538 153.651 C 176.902 153.349,177.200 152.918,177.200 152.692 C 177.200 152.174,184.950 144.400,185.466 144.400 C 185.677 144.400,186.233 144.042,186.702 143.605 C 187.171 143.168,188.640 142.259,189.966 141.585 C 191.292 140.911,192.473 140.205,192.591 140.015 C 192.708 139.825,193.513 139.550,194.379 139.404 C 195.245 139.257,196.153 138.897,196.397 138.603 C 196.641 138.310,197.759 137.943,198.881 137.789 C 200.004 137.634,201.538 137.251,202.292 136.936 C 204.245 136.120,219.212 136.117,221.208 136.933 C 221.973 137.245,223.477 137.628,224.549 137.783 C 225.621 137.937,227.211 138.436,228.083 138.890 L 229.669 139.717 229.389 142.558 C 229.235 144.121,228.926 145.747,228.702 146.172 C 228.478 146.596,228.136 148.369,227.941 150.111 C 227.746 151.853,227.386 153.653,227.141 154.111 C 226.896 154.569,226.541 156.325,226.352 158.013 C 226.163 159.701,225.736 161.733,225.404 162.528 C 225.072 163.324,224.800 164.885,224.800 165.997 C 224.800 167.110,224.440 169.044,224.000 170.296 C 222.669 174.084,222.817 184.605,224.236 187.026 C 225.949 189.948,230.506 191.706,232.611 190.257 C 233.045 189.958,234.058 189.593,234.861 189.446 C 235.665 189.299,236.424 188.913,236.549 188.589 C 236.673 188.265,237.055 188.000,237.396 188.000 C 238.898 188.000,244.927 180.783,245.823 177.913 C 245.980 177.411,246.354 176.645,246.654 176.211 C 246.954 175.777,247.200 175.054,247.200 174.605 C 247.200 174.156,247.560 173.116,248.000 172.296 C 248.440 171.475,248.803 170.127,248.806 169.301 C 248.810 168.476,249.073 166.720,249.392 165.400 C 250.170 162.178,250.174 154.309,249.400 151.335 C 249.070 150.069,248.794 148.305,248.786 147.416 C 248.779 146.527,248.425 145.080,248.000 144.200 C 247.575 143.320,247.221 142.260,247.214 141.844 C 247.201 141.154,246.021 138.271,245.150 136.800 C 244.954 136.470,244.575 135.750,244.306 135.200 C 243.569 133.689,241.214 130.307,240.252 129.376 C 239.783 128.923,238.949 128.023,238.399 127.376 C 235.966 124.516,226.585 118.400,224.632 118.400 C 224.377 118.400,223.463 118.040,222.600 117.600 C 221.737 117.160,220.461 116.800,219.764 116.800 C 219.068 116.800,217.801 116.491,216.949 116.114 C 214.686 115.113,197.494 115.072,194.800 116.062 C 193.810 116.425,192.144 116.827,191.097 116.954 C 190.050 117.081,188.790 117.439,188.297 117.748 C 187.804 118.057,186.743 118.425,185.940 118.566 C 185.137 118.706,184.260 119.086,183.991 119.411 C 183.722 119.735,183.271 120.000,182.988 120.000 C 182.350 120.000,178.390 122.007,177.671 122.694 C 177.381 122.972,176.914 123.200,176.633 123.200 C 176.353 123.200,175.798 123.560,175.400 124.000 C 175.002 124.440,174.494 124.800,174.272 124.800 C 174.049 124.800,173.582 125.069,173.234 125.398 C 172.885 125.728,171.790 126.672,170.800 127.497 C 168.360 129.531,164.246 133.848,162.901 135.787 C 162.295 136.659,161.485 137.694,161.100 138.087 C 160.715 138.479,160.400 139.055,160.400 139.367 C 160.400 139.678,160.242 139.993,160.049 140.067 C 159.629 140.226,156.000 147.044,156.000 147.673 C 156.000 147.915,155.661 148.852,155.246 149.756 C 154.121 152.210,152.788 156.830,152.794 158.251 C 152.797 158.939,152.487 160.199,152.105 161.051 C 151.059 163.381,151.055 181.570,152.100 183.480 C 152.485 184.184,152.800 185.303,152.800 185.965 C 152.800 186.628,153.160 188.084,153.600 189.200 C 154.040 190.316,154.400 191.555,154.400 191.954 C 154.400 192.352,154.760 193.093,155.200 193.600 C 155.640 194.107,156.000 194.842,156.000 195.233 C 156.000 195.623,156.257 196.199,156.570 196.513 C 156.884 196.827,157.429 197.695,157.781 198.442 C 158.577 200.131,159.225 201.217,160.000 202.160 C 161.106 203.507,167.458 209.791,168.531 210.600 C 169.115 211.040,169.987 211.720,170.470 212.111 C 170.953 212.502,171.764 212.926,172.274 213.054 C 172.783 213.182,173.200 213.428,173.200 213.600 C 173.200 213.772,173.905 214.195,174.766 214.540 C 175.627 214.884,176.448 215.354,176.590 215.583 C 176.731 215.812,177.197 216.000,177.625 216.000 C 178.053 216.000,179.075 216.360,179.896 216.800 C 180.716 217.240,181.895 217.600,182.514 217.600 C 183.133 217.600,184.206 217.893,184.898 218.251 C 188.185 219.950,207.622 219.973,213.000 218.284 C 214.100 217.938,215.720 217.482,216.600 217.271 C 218.784 216.748,220.676 216.061,222.721 215.051 L 224.442 214.200 225.198 215.200 C 227.236 217.893,226.994 220.926,224.703 221.411 C 223.986 221.562,222.839 222.027,222.153 222.443 C 221.467 222.859,220.521 223.200,220.051 223.200 C 219.582 223.200,218.525 223.560,217.704 224.000 C 216.884 224.440,215.448 224.800,214.514 224.800 C 213.580 224.800,212.048 225.115,211.108 225.500 C 209.610 226.114,207.902 226.200,197.200 226.200 C 186.335 226.200,184.860 226.123,183.720 225.500 C 183.016 225.115,181.753 224.800,180.914 224.800 C 180.075 224.800,178.761 224.466,177.994 224.059 C 177.227 223.651,175.943 223.196,175.140 223.048 C 174.337 222.900,173.460 222.514,173.191 222.189 C 172.922 221.865,172.347 221.600,171.914 221.600 C 171.481 221.600,170.669 221.240,170.109 220.800 C 169.550 220.360,168.784 220.000,168.408 220.000 C 168.032 220.000,167.398 219.640,167.000 219.200 C 166.602 218.760,166.062 218.400,165.800 218.400 C 165.538 218.400,164.998 218.040,164.600 217.600 C 164.202 217.160,163.643 216.800,163.358 216.800 C 163.073 216.800,162.696 216.571,162.520 216.290 C 162.344 216.010,161.741 215.489,161.179 215.133 C 159.619 214.143,155.621 210.127,153.503 207.422 C 152.460 206.090,151.380 204.738,151.103 204.418 C 150.826 204.098,150.375 203.378,150.100 202.818 C 149.826 202.258,149.242 201.260,148.805 200.600 C 148.367 199.940,147.894 199.130,147.754 198.800 C 147.613 198.470,147.071 197.266,146.549 196.125 C 146.027 194.983,145.600 193.691,145.600 193.253 C 145.600 192.815,145.339 192.196,145.020 191.877 C 144.701 191.559,144.317 190.331,144.166 189.149 C 144.015 187.967,143.601 186.460,143.246 185.800 C 142.401 184.230,142.270 162.376,143.097 160.932 C 143.370 160.455,143.777 158.773,144.001 157.194 C 144.225 155.616,144.676 153.941,145.004 153.473 C 145.332 153.005,145.600 152.164,145.600 151.605 C 145.600 151.046,145.960 149.916,146.400 149.096 C 146.840 148.275,147.200 147.264,147.200 146.850 C 147.200 146.437,147.469 145.875,147.797 145.602 C 148.126 145.330,148.582 144.408,148.813 143.553 C 149.043 142.699,149.384 142.000,149.572 142.000 C 149.760 142.000,150.026 141.550,150.164 141.001 C 150.364 140.204,154.489 133.771,156.046 131.828 C 158.647 128.581,161.304 125.809,164.029 123.498 C 165.003 122.673,166.085 121.728,166.434 121.398 C 166.782 121.069,167.206 120.800,167.376 120.800 C 167.642 120.800,168.609 120.095,170.709 118.370 C 170.988 118.140,171.753 117.765,172.409 117.537 C 173.064 117.309,173.600 116.973,173.600 116.792 C 173.600 116.610,174.216 116.259,174.968 116.011 C 175.720 115.762,176.552 115.298,176.817 114.980 C 177.082 114.661,177.653 114.400,178.086 114.400 C 178.519 114.400,179.331 114.040,179.891 113.600 C 180.450 113.160,181.289 112.794,181.754 112.786 C 182.219 112.779,183.320 112.425,184.200 112.000 C 185.080 111.575,186.250 111.220,186.800 111.211 C 187.350 111.202,188.340 110.912,189.000 110.566 C 189.660 110.219,191.640 109.784,193.400 109.598 C 195.160 109.412,197.050 109.078,197.600 108.855 C 198.949 108.310,214.831 108.279,216.252 108.820 M206.600 144.012 C 202.392 144.925,200.096 145.526,199.382 145.902 C 198.952 146.129,198.150 146.523,197.600 146.778 C 195.804 147.610,194.129 148.588,193.452 149.200 C 193.087 149.530,191.930 150.520,190.882 151.400 C 188.902 153.062,185.600 156.885,185.600 157.515 C 185.600 157.713,185.240 158.202,184.800 158.600 C 184.360 158.998,184.000 159.634,184.000 160.013 C 184.000 160.392,183.742 160.917,183.426 161.179 C 183.110 161.441,182.726 162.225,182.573 162.922 C 182.420 163.618,182.050 164.563,181.750 165.020 C 181.450 165.478,181.094 166.740,180.958 167.826 C 180.823 168.912,180.461 170.571,180.156 171.514 C 179.439 173.723,179.444 177.569,180.166 179.492 C 180.477 180.321,180.839 181.490,180.971 182.090 C 182.286 188.082,191.564 191.676,197.800 188.609 C 198.900 188.068,200.025 187.619,200.300 187.613 C 200.575 187.606,200.800 187.432,200.800 187.227 C 200.800 187.022,201.162 186.739,201.604 186.599 C 202.540 186.302,207.493 181.535,208.625 179.840 C 209.051 179.203,209.715 178.213,210.101 177.640 C 210.486 177.068,211.069 176.027,211.395 175.327 C 211.721 174.627,212.171 173.942,212.394 173.804 C 212.617 173.666,212.800 173.246,212.800 172.870 C 212.800 172.495,213.132 171.561,213.539 170.794 C 213.945 170.027,214.395 168.518,214.539 167.440 C 214.683 166.363,214.986 165.258,215.211 164.986 C 215.437 164.715,215.719 163.256,215.839 161.746 C 215.958 160.236,216.311 158.280,216.621 157.400 C 216.932 156.520,217.356 154.450,217.563 152.800 C 217.769 151.150,218.166 149.049,218.444 148.131 C 219.093 145.985,218.605 145.336,216.067 144.969 C 215.040 144.821,214.020 144.559,213.800 144.389 C 213.153 143.887,208.337 143.635,206.600 144.012 " stroke="none" fill="#e0e0df" fill-rule="evenodd"></path><path id="path1" d="M376.507 164.400 C 376.130 164.840,375.620 165.200,375.373 165.200 C 375.126 165.200,374.598 165.560,374.200 166.000 C 373.802 166.440,373.247 166.800,372.967 166.800 C 372.686 166.800,372.155 167.102,371.785 167.472 C 371.416 167.841,370.600 168.426,369.973 168.772 C 367.396 170.190,364.167 172.194,363.671 172.681 C 363.381 172.966,362.914 173.200,362.633 173.200 C 362.353 173.200,361.813 173.544,361.433 173.964 C 361.052 174.384,360.304 174.838,359.771 174.972 C 359.237 175.106,358.800 175.392,358.800 175.608 C 358.800 175.823,358.545 176.000,358.234 176.000 C 357.686 176.000,356.406 176.933,354.649 178.612 C 354.182 179.058,353.350 179.648,352.800 179.922 C 352.250 180.197,350.540 181.219,349.000 182.195 C 347.460 183.171,345.058 184.651,343.661 185.484 C 342.265 186.318,340.700 187.270,340.183 187.600 C 338.422 188.724,332.601 192.199,332.202 192.366 C 331.983 192.457,330.993 193.097,330.002 193.788 C 329.011 194.479,327.145 195.665,325.856 196.422 C 324.567 197.180,322.857 198.196,322.056 198.679 C 321.255 199.163,320.240 199.752,319.800 199.987 C 319.360 200.223,318.190 200.938,317.200 201.575 C 316.210 202.213,313.870 203.658,312.000 204.787 C 310.130 205.915,307.340 207.638,305.800 208.614 C 304.260 209.590,302.460 210.670,301.800 211.014 C 301.140 211.357,299.340 212.433,297.800 213.403 C 296.260 214.374,293.858 215.851,292.461 216.684 C 291.065 217.518,289.508 218.470,289.000 218.800 C 288.492 219.130,286.935 220.083,285.539 220.918 C 284.142 221.754,281.110 223.588,278.800 224.995 C 276.490 226.403,273.610 228.139,272.400 228.855 C 271.190 229.570,269.390 230.716,268.400 231.402 C 267.410 232.088,266.271 232.773,265.868 232.924 C 265.213 233.171,262.314 234.954,259.600 236.781 C 259.050 237.151,258.330 237.568,258.000 237.708 C 257.670 237.848,254.970 239.487,252.000 241.350 C 249.030 243.214,244.831 245.787,242.669 247.069 C 240.506 248.351,238.256 249.710,237.669 250.089 C 237.081 250.468,235.970 251.147,235.200 251.598 C 234.430 252.050,233.080 252.869,232.200 253.418 C 231.320 253.967,230.330 254.537,230.000 254.684 C 229.670 254.830,228.590 255.511,227.600 256.197 C 226.610 256.883,224.120 258.424,222.066 259.622 C 217.919 262.042,218.146 261.906,214.071 264.404 C 212.460 265.392,210.480 266.593,209.671 267.073 C 206.699 268.838,205.352 269.658,203.200 271.012 C 200.169 272.920,199.537 272.824,194.952 269.755 C 192.778 268.300,190.640 266.942,190.200 266.737 C 188.945 266.154,187.669 265.382,186.903 264.742 C 186.516 264.419,185.750 263.938,185.200 263.673 C 184.650 263.408,183.660 262.836,183.000 262.400 C 182.340 261.965,181.215 261.304,180.500 260.931 C 179.785 260.557,179.200 260.123,179.200 259.965 C 179.200 259.807,178.705 259.480,178.100 259.238 C 177.495 258.996,175.740 258.002,174.200 257.029 C 172.660 256.056,170.320 254.613,169.000 253.821 C 167.680 253.030,166.330 252.205,166.000 251.987 C 165.194 251.454,158.815 247.580,155.661 245.707 C 154.265 244.878,152.708 243.930,152.200 243.600 C 151.692 243.270,150.135 242.315,148.739 241.478 C 147.342 240.640,144.940 239.161,143.400 238.190 C 141.860 237.220,140.060 236.147,139.400 235.807 C 138.740 235.467,136.940 234.391,135.400 233.415 C 133.860 232.439,131.070 230.721,129.200 229.598 C 127.330 228.474,124.990 227.028,124.000 226.385 C 123.010 225.742,121.840 225.023,121.400 224.787 C 120.960 224.552,119.945 223.963,119.144 223.479 C 118.343 222.996,116.633 221.980,115.344 221.222 C 114.055 220.465,112.190 219.291,111.200 218.613 C 110.210 217.936,108.950 217.159,108.400 216.887 C 107.850 216.614,106.860 216.038,106.200 215.607 C 105.540 215.176,104.370 214.452,103.600 214.000 C 102.830 213.548,101.721 212.868,101.135 212.489 C 99.644 211.524,95.734 209.158,94.017 208.180 C 93.224 207.729,91.592 206.717,90.388 205.932 C 88.390 204.629,87.366 203.998,82.885 201.309 C 82.068 200.820,81.040 200.231,80.600 200.001 C 80.160 199.772,78.990 199.056,78.000 198.410 C 76.460 197.406,73.807 195.782,70.273 193.681 C 69.793 193.395,68.140 192.374,66.600 191.411 C 65.060 190.448,62.651 188.971,61.247 188.130 C 59.842 187.288,58.102 186.240,57.379 185.800 C 56.656 185.360,54.862 184.280,53.394 183.400 C 51.925 182.520,50.245 181.490,49.661 181.112 C 49.078 180.734,48.060 180.124,47.400 179.757 C 46.740 179.390,45.321 178.395,44.248 177.545 C 43.174 176.695,42.049 176.000,41.748 176.000 C 41.446 176.000,41.200 175.822,41.200 175.605 C 41.200 175.388,40.615 174.934,39.900 174.595 C 38.169 173.774,36.956 173.055,36.103 172.342 C 35.716 172.019,34.950 171.533,34.400 171.262 C 32.722 170.434,31.640 169.761,30.871 169.064 C 30.467 168.699,29.954 168.400,29.730 168.400 C 29.507 168.400,28.998 168.040,28.600 167.600 C 28.202 167.160,27.566 166.800,27.187 166.800 C 26.808 166.800,26.280 166.537,26.013 166.215 C 25.746 165.894,25.139 165.513,24.664 165.368 C 24.189 165.224,23.506 164.848,23.146 164.532 C 21.605 163.182,21.600 163.467,21.600 257.897 C 21.600 348.668,21.605 349.281,22.400 350.291 C 22.840 350.850,23.200 351.709,23.200 352.200 C 23.200 352.691,23.560 353.550,24.000 354.109 C 24.440 354.669,24.800 355.240,24.800 355.379 C 24.800 356.867,29.977 362.056,33.615 364.216 C 34.000 364.444,34.559 364.830,34.857 365.074 C 35.156 365.318,36.030 365.705,36.800 365.934 C 37.570 366.163,38.971 366.633,39.914 366.978 C 42.596 367.960,359.691 367.732,361.200 366.748 C 361.750 366.389,362.710 365.977,363.333 365.832 C 365.427 365.345,370.905 361.413,372.646 359.148 C 373.385 358.186,374.147 357.209,374.341 356.975 C 374.534 356.741,374.926 356.111,375.211 355.575 C 375.497 355.039,375.949 354.420,376.216 354.200 C 376.483 353.980,376.816 353.182,376.955 352.426 C 377.095 351.671,377.479 350.755,377.808 350.391 C 378.530 349.594,378.727 166.513,378.008 164.622 C 377.540 163.391,377.390 163.369,376.507 164.400 " stroke="none" fill="#fbcc44" fill-rule="evenodd"></path><path id="path2" d="M192.525 32.323 C 192.043 32.392,191.592 32.747,191.522 33.110 C 191.439 33.543,190.986 33.776,190.211 33.785 C 189.423 33.795,188.889 34.078,188.611 34.632 C 188.381 35.090,187.958 35.386,187.670 35.290 C 187.383 35.194,187.048 35.495,186.927 35.958 C 186.798 36.449,186.383 36.800,185.930 36.800 C 185.502 36.800,185.264 36.980,185.400 37.200 C 185.536 37.420,185.361 37.600,185.011 37.600 C 184.661 37.600,184.279 37.850,184.162 38.156 C 184.041 38.471,183.622 38.626,183.192 38.514 C 182.638 38.369,182.370 38.581,182.186 39.312 C 182.001 40.050,181.737 40.256,181.168 40.108 C 180.589 39.956,180.400 40.115,180.400 40.753 C 180.400 41.613,180.108 41.746,178.500 41.616 C 177.833 41.562,177.600 41.757,177.600 42.371 C 177.600 42.933,177.343 43.200,176.800 43.200 C 176.267 43.200,176.000 43.467,176.000 44.000 C 176.000 44.779,175.606 44.982,174.421 44.812 C 174.102 44.766,173.648 44.994,173.411 45.318 C 173.174 45.642,172.625 45.976,172.190 46.060 C 171.725 46.150,171.396 46.539,171.391 47.007 C 171.384 47.548,171.152 47.760,170.660 47.675 C 170.204 47.597,169.858 47.855,169.722 48.375 C 169.590 48.880,169.176 49.202,168.653 49.206 C 168.184 49.209,167.530 49.387,167.200 49.600 C 166.691 49.929,166.710 49.989,167.324 49.994 C 167.722 49.997,167.934 50.183,167.796 50.407 C 167.658 50.630,167.392 50.719,167.206 50.604 C 166.627 50.246,164.800 51.147,164.800 51.790 C 164.800 52.154,164.437 52.402,163.900 52.406 C 162.861 52.413,161.909 52.929,161.982 53.445 C 162.009 53.640,161.677 53.856,161.243 53.924 C 160.250 54.081,160.267 55.600,161.262 55.600 C 161.642 55.600,162.064 55.780,162.200 56.000 C 162.524 56.524,236.924 56.553,237.905 56.029 C 238.287 55.825,238.915 55.561,239.300 55.442 C 240.389 55.105,240.125 54.405,238.809 54.142 C 238.154 54.011,237.389 53.610,237.109 53.252 C 236.656 52.672,236.677 52.660,237.300 53.149 C 237.758 53.508,238.000 53.543,238.000 53.249 C 238.000 53.002,237.820 52.778,237.600 52.750 C 237.380 52.723,237.020 52.655,236.800 52.600 C 236.580 52.545,236.130 52.477,235.800 52.450 C 235.470 52.423,235.200 52.019,235.200 51.553 C 235.200 50.863,235.013 50.742,234.186 50.901 C 233.629 51.007,233.262 51.004,233.372 50.895 C 233.482 50.785,233.392 50.358,233.172 49.947 C 232.716 49.095,231.765 48.957,231.465 49.700 C 231.304 50.100,231.257 50.100,231.232 49.700 C 231.214 49.425,230.940 49.200,230.623 49.200 C 230.251 49.200,230.104 48.900,230.208 48.356 C 230.343 47.658,230.211 47.543,229.440 47.690 C 228.696 47.832,228.548 47.722,228.700 47.139 C 228.822 46.674,228.621 46.314,228.145 46.144 C 227.735 45.998,227.103 45.624,226.739 45.313 C 226.376 45.002,225.746 44.804,225.339 44.873 C 224.820 44.962,224.560 44.720,224.467 44.060 C 224.361 43.310,224.142 43.156,223.387 43.300 C 222.866 43.400,222.452 43.373,222.467 43.241 C 222.617 41.932,222.320 41.600,221.000 41.600 C 219.867 41.600,219.600 41.448,219.600 40.800 C 219.600 40.360,219.465 40.021,219.300 40.047 C 218.480 40.177,218.074 39.925,217.875 39.165 C 217.733 38.621,217.403 38.381,216.928 38.477 C 216.512 38.560,215.876 38.218,215.445 37.679 C 214.971 37.086,214.414 36.808,213.945 36.930 C 213.233 37.117,213.028 36.792,213.170 35.700 C 213.206 35.425,212.867 35.200,212.418 35.200 C 211.968 35.200,211.600 34.949,211.600 34.643 C 211.600 33.877,210.339 33.455,209.938 34.086 C 209.678 34.496,209.611 34.490,209.606 34.057 C 209.603 33.740,209.351 33.610,209.000 33.745 C 208.592 33.901,208.400 33.723,208.400 33.187 C 208.400 32.754,208.175 32.375,207.900 32.345 C 206.808 32.223,193.344 32.204,192.525 32.323 M44.022 69.373 C 43.616 69.863,43.591 70.151,43.924 70.484 C 44.257 70.817,44.439 70.764,44.625 70.280 C 45.034 69.214,44.643 68.626,44.022 69.373 M355.708 70.020 C 355.648 70.819,356.179 71.081,356.572 70.445 C 356.693 70.250,356.561 69.899,356.279 69.666 C 355.894 69.346,355.753 69.435,355.708 70.020 M42.115 71.220 C 41.724 72.257,41.736 72.385,42.193 72.006 C 42.602 71.666,42.566 72.034,42.050 73.477 C 41.672 74.534,41.198 75.342,40.997 75.270 C 40.538 75.108,40.065 76.272,40.028 77.654 C 40.013 78.234,39.731 79.224,39.402 79.854 C 38.888 80.840,38.805 85.062,38.802 110.050 C 38.800 140.508,38.757 141.600,37.578 141.600 C 37.133 141.600,36.806 141.946,36.728 142.500 C 36.642 143.101,36.367 143.361,35.900 143.282 C 35.429 143.203,35.200 143.425,35.200 143.958 C 35.200 144.586,34.887 144.778,33.700 144.876 C 32.610 144.966,32.213 145.177,32.247 145.649 C 32.280 146.101,32.060 146.236,31.523 146.096 C 30.977 145.953,30.688 146.143,30.530 146.747 C 30.407 147.216,30.058 147.600,29.753 147.600 C 29.449 147.600,29.200 147.791,29.200 148.024 C 29.200 148.257,29.425 148.318,29.700 148.159 C 29.975 148.001,29.764 148.350,29.230 148.935 C 28.251 150.010,27.744 150.337,28.200 149.600 C 28.336 149.380,28.257 149.200,28.024 149.200 C 27.791 149.200,27.600 149.386,27.600 149.613 C 27.600 149.841,26.961 150.404,26.180 150.865 C 25.243 151.417,24.681 152.094,24.530 152.851 C 24.375 153.626,24.056 154.000,23.550 154.000 C 23.081 154.000,22.800 154.283,22.800 154.757 C 22.800 155.174,22.532 155.617,22.205 155.743 C 21.582 155.982,17.762 163.557,16.529 167.000 C 15.409 170.126,15.418 352.976,16.538 357.570 C 18.031 363.694,25.562 374.800,28.222 374.800 C 28.463 374.800,29.056 375.221,29.540 375.736 C 30.489 376.746,32.582 377.729,37.000 379.242 L 39.800 380.200 200.200 380.200 L 360.600 380.200 362.715 379.300 C 363.878 378.805,365.141 378.400,365.521 378.400 C 366.453 378.400,369.165 376.939,370.422 375.759 C 370.984 375.232,371.628 374.800,371.854 374.800 C 374.394 374.800,382.192 363.530,383.201 358.400 C 383.439 357.190,383.899 355.299,384.223 354.197 C 385.206 350.861,384.894 169.906,383.902 168.200 C 383.519 167.540,383.204 166.631,383.202 166.180 C 383.199 165.096,378.954 156.786,377.969 155.936 C 377.546 155.571,377.200 154.986,377.200 154.636 C 377.200 154.267,376.865 154.000,376.400 154.000 C 375.900 154.000,375.600 153.733,375.600 153.289 C 375.600 152.263,374.407 150.712,373.798 150.945 C 373.508 151.057,373.186 150.790,373.069 150.343 C 372.954 149.902,372.503 149.447,372.067 149.333 C 371.631 149.219,371.184 148.783,371.074 148.363 C 370.965 147.943,370.609 147.600,370.284 147.600 C 369.959 147.600,369.599 147.240,369.484 146.800 C 369.369 146.360,368.988 146.000,368.637 146.000 C 368.287 146.000,368.000 145.730,368.000 145.400 C 368.000 144.967,367.556 144.800,366.400 144.800 C 365.067 144.800,364.800 144.667,364.800 144.000 C 364.800 143.467,364.533 143.200,364.000 143.200 C 363.467 143.200,363.200 142.933,363.200 142.400 C 363.200 141.884,362.933 141.600,362.450 141.600 C 361.238 141.600,361.200 140.647,361.200 109.969 C 361.200 92.789,361.046 80.461,360.825 79.919 C 360.619 79.413,360.340 78.320,360.205 77.489 C 360.070 76.658,359.800 76.077,359.604 76.197 C 359.409 76.318,358.854 75.333,358.371 74.008 C 357.888 72.684,357.352 71.600,357.179 71.600 C 357.007 71.600,356.594 71.496,356.262 71.368 C 355.800 71.191,355.603 71.542,355.422 72.868 C 355.108 75.171,354.931 178.000,355.242 178.000 C 355.374 178.000,355.969 177.550,356.562 177.000 C 357.156 176.450,357.902 176.000,358.221 176.000 C 358.539 176.000,358.800 175.823,358.800 175.608 C 358.800 175.392,359.237 175.106,359.771 174.972 C 360.304 174.838,361.052 174.384,361.433 173.964 C 361.813 173.544,362.353 173.200,362.633 173.200 C 362.914 173.200,363.381 172.966,363.671 172.681 C 364.167 172.194,367.396 170.190,369.973 168.772 C 370.600 168.426,371.416 167.841,371.785 167.472 C 372.155 167.102,372.686 166.800,372.967 166.800 C 373.247 166.800,373.802 166.440,374.200 166.000 C 374.598 165.560,375.172 165.200,375.475 165.200 C 375.777 165.200,376.123 164.944,376.243 164.631 C 376.652 163.567,377.607 163.566,378.011 164.629 C 378.727 166.513,378.527 349.596,377.808 350.391 C 377.479 350.755,377.095 351.671,376.955 352.426 C 376.816 353.182,376.483 353.980,376.216 354.200 C 375.949 354.420,375.497 355.039,375.211 355.575 C 374.926 356.111,374.534 356.741,374.341 356.975 C 374.147 357.209,373.385 358.186,372.646 359.148 C 370.905 361.413,365.427 365.345,363.333 365.832 C 362.710 365.977,361.750 366.389,361.200 366.748 C 359.691 367.732,42.596 367.960,39.914 366.978 C 38.971 366.633,37.570 366.163,36.800 365.934 C 36.030 365.705,35.156 365.318,34.857 365.074 C 34.559 364.830,34.000 364.444,33.615 364.216 C 29.977 362.056,24.800 356.867,24.800 355.379 C 24.800 355.240,24.440 354.669,24.000 354.109 C 23.560 353.550,23.200 352.691,23.200 352.200 C 23.200 351.709,22.840 350.850,22.400 350.291 C 21.605 349.281,21.600 348.668,21.600 257.897 C 21.600 163.467,21.605 163.182,23.146 164.532 C 23.506 164.848,24.189 165.224,24.664 165.368 C 25.139 165.513,25.746 165.894,26.013 166.215 C 26.280 166.537,26.808 166.800,27.187 166.800 C 27.566 166.800,28.202 167.160,28.600 167.600 C 28.998 168.040,29.507 168.400,29.730 168.400 C 29.954 168.400,30.467 168.699,30.871 169.064 C 31.640 169.761,32.722 170.434,34.400 171.262 C 34.950 171.533,35.716 172.019,36.103 172.342 C 36.956 173.055,38.169 173.774,39.900 174.595 C 40.615 174.934,41.200 175.388,41.200 175.605 C 41.200 175.822,41.446 176.000,41.748 176.000 C 42.049 176.000,43.264 176.765,44.448 177.700 C 46.272 179.141,46.494 179.235,45.904 178.321 C 45.254 177.311,45.202 173.830,45.104 124.711 L 45.000 72.181 44.100 71.215 C 43.481 70.550,43.191 70.429,43.172 70.825 C 43.153 71.217,43.055 71.174,42.863 70.690 C 42.630 70.100,42.504 70.189,42.115 71.220 M197.600 108.855 C 197.050 109.078,195.160 109.412,193.400 109.598 C 191.640 109.784,189.660 110.219,189.000 110.566 C 188.340 110.912,187.350 111.202,186.800 111.211 C 186.250 111.220,185.080 111.575,184.200 112.000 C 183.320 112.425,182.219 112.779,181.754 112.786 C 181.289 112.794,180.450 113.160,179.891 113.600 C 179.331 114.040,178.519 114.400,178.086 114.400 C 177.653 114.400,177.082 114.661,176.817 114.980 C 176.552 115.298,175.720 115.762,174.968 116.011 C 174.216 116.259,173.600 116.610,173.600 116.792 C 173.600 116.973,173.064 117.309,172.409 117.537 C 171.753 117.765,170.988 118.140,170.709 118.370 C 168.609 120.095,167.642 120.800,167.376 120.800 C 167.206 120.800,166.782 121.069,166.434 121.398 C 166.085 121.728,165.003 122.673,164.029 123.498 C 161.304 125.809,158.647 128.581,156.046 131.828 C 154.489 133.771,150.364 140.204,150.164 141.001 C 150.026 141.550,149.760 142.000,149.572 142.000 C 149.384 142.000,149.043 142.699,148.813 143.553 C 148.582 144.408,148.126 145.330,147.797 145.602 C 147.469 145.875,147.200 146.437,147.200 146.850 C 147.200 147.264,146.840 148.275,146.400 149.096 C 145.960 149.916,145.600 151.046,145.600 151.605 C 145.600 152.164,145.332 153.005,145.004 153.473 C 144.676 153.941,144.225 155.616,144.001 157.194 C 143.777 158.773,143.370 160.455,143.097 160.932 C 142.270 162.376,142.401 184.230,143.246 185.800 C 143.601 186.460,144.015 187.967,144.166 189.149 C 144.317 190.331,144.701 191.559,145.020 191.877 C 145.339 192.196,145.600 192.815,145.600 193.253 C 145.600 193.691,146.027 194.983,146.549 196.125 C 147.071 197.266,147.613 198.470,147.754 198.800 C 147.894 199.130,148.367 199.940,148.805 200.600 C 149.242 201.260,149.826 202.258,150.100 202.818 C 150.375 203.378,150.826 204.098,151.103 204.418 C 151.380 204.738,152.460 206.090,153.503 207.422 C 155.621 210.127,159.619 214.143,161.179 215.133 C 161.741 215.489,162.344 216.010,162.520 216.290 C 162.696 216.571,163.073 216.800,163.358 216.800 C 163.643 216.800,164.202 217.160,164.600 217.600 C 164.998 218.040,165.538 218.400,165.800 218.400 C 166.062 218.400,166.602 218.760,167.000 219.200 C 167.398 219.640,168.032 220.000,168.408 220.000 C 168.784 220.000,169.550 220.360,170.109 220.800 C 170.669 221.240,171.481 221.600,171.914 221.600 C 172.347 221.600,172.922 221.865,173.191 222.189 C 173.460 222.514,174.337 222.900,175.140 223.048 C 175.943 223.196,177.227 223.651,177.994 224.059 C 178.761 224.466,180.075 224.800,180.914 224.800 C 181.753 224.800,183.016 225.115,183.720 225.500 C 184.860 226.123,186.335 226.200,197.200 226.200 C 207.902 226.200,209.610 226.114,211.108 225.500 C 212.048 225.115,213.580 224.800,214.514 224.800 C 215.448 224.800,216.884 224.440,217.704 224.000 C 218.525 223.560,219.582 223.200,220.051 223.200 C 220.521 223.200,221.467 222.859,222.153 222.443 C 222.839 222.027,223.986 221.562,224.703 221.411 C 226.994 220.926,227.236 217.893,225.198 215.200 L 224.442 214.200 222.721 215.051 C 220.676 216.061,218.784 216.748,216.600 217.271 C 215.720 217.482,214.100 217.938,213.000 218.284 C 207.622 219.973,188.185 219.950,184.898 218.251 C 184.206 217.893,183.133 217.600,182.514 217.600 C 181.895 217.600,180.716 217.240,179.896 216.800 C 179.075 216.360,178.053 216.000,177.625 216.000 C 177.197 216.000,176.731 215.812,176.590 215.583 C 176.448 215.354,175.627 214.884,174.766 214.540 C 173.905 214.195,173.200 213.772,173.200 213.600 C 173.200 213.428,172.783 213.182,172.274 213.054 C 171.764 212.926,170.953 212.502,170.470 212.111 C 169.987 211.720,169.115 211.040,168.531 210.600 C 167.458 209.791,161.106 203.507,160.000 202.160 C 159.225 201.217,158.577 200.131,157.781 198.442 C 157.429 197.695,156.884 196.827,156.570 196.513 C 156.257 196.199,156.000 195.623,156.000 195.233 C 156.000 194.842,155.640 194.107,155.200 193.600 C 154.760 193.093,154.400 192.352,154.400 191.954 C 154.400 191.555,154.040 190.316,153.600 189.200 C 153.160 188.084,152.800 186.628,152.800 185.965 C 152.800 185.303,152.485 184.184,152.100 183.480 C 151.055 181.570,151.059 163.381,152.105 161.051 C 152.487 160.199,152.797 158.939,152.794 158.251 C 152.788 156.830,154.121 152.210,155.246 149.756 C 155.661 148.852,156.000 147.915,156.000 147.673 C 156.000 147.044,159.629 140.226,160.049 140.067 C 160.242 139.993,160.400 139.678,160.400 139.367 C 160.400 139.055,160.715 138.479,161.100 138.087 C 161.485 137.694,162.295 136.659,162.901 135.787 C 164.246 133.848,168.360 129.531,170.800 127.497 C 171.790 126.672,172.885 125.728,173.234 125.398 C 173.582 125.069,174.049 124.800,174.272 124.800 C 174.494 124.800,175.002 124.440,175.400 124.000 C 175.798 123.560,176.353 123.200,176.633 123.200 C 176.914 123.200,177.381 122.972,177.671 122.694 C 178.390 122.007,182.350 120.000,182.988 120.000 C 183.271 120.000,183.722 119.735,183.991 119.411 C 184.260 119.086,185.137 118.706,185.940 118.566 C 186.743 118.425,187.804 118.057,188.297 117.748 C 188.790 117.439,190.050 117.081,191.097 116.954 C 192.144 116.827,193.810 116.425,194.800 116.062 C 197.494 115.072,214.686 115.113,216.949 116.114 C 217.801 116.491,219.068 116.800,219.764 116.800 C 220.461 116.800,221.737 117.160,222.600 117.600 C 223.463 118.040,224.377 118.400,224.632 118.400 C 226.585 118.400,235.966 124.516,238.399 127.376 C 238.949 128.023,239.783 128.923,240.252 129.376 C 241.214 130.307,243.569 133.689,244.306 135.200 C 244.575 135.750,244.954 136.470,245.150 136.800 C 246.021 138.271,247.201 141.154,247.214 141.844 C 247.221 142.260,247.575 143.320,248.000 144.200 C 248.425 145.080,248.779 146.527,248.786 147.416 C 248.794 148.305,249.070 150.069,249.400 151.335 C 250.174 154.309,250.170 162.178,249.392 165.400 C 249.073 166.720,248.810 168.476,248.806 169.301 C 248.803 170.127,248.440 171.475,248.000 172.296 C 247.560 173.116,247.200 174.156,247.200 174.605 C 247.200 175.054,246.954 175.777,246.654 176.211 C 246.354 176.645,245.980 177.411,245.823 177.913 C 244.927 180.783,238.898 188.000,237.396 188.000 C 237.055 188.000,236.673 188.265,236.549 188.589 C 236.424 188.913,235.665 189.299,234.861 189.446 C 234.058 189.593,233.045 189.958,232.611 190.257 C 230.506 191.706,225.949 189.948,224.236 187.026 C 222.817 184.605,222.669 174.084,224.000 170.296 C 224.440 169.044,224.800 167.110,224.800 165.997 C 224.800 164.885,225.072 163.324,225.404 162.528 C 225.736 161.733,226.163 159.701,226.352 158.013 C 226.541 156.325,226.896 154.569,227.141 154.111 C 227.386 153.653,227.746 151.853,227.941 150.111 C 228.136 148.369,228.478 146.596,228.702 146.172 C 228.926 145.747,229.235 144.121,229.389 142.558 L 229.669 139.717 228.083 138.890 C 227.211 138.436,225.621 137.937,224.549 137.783 C 223.477 137.628,221.973 137.245,221.208 136.933 C 219.212 136.117,204.245 136.120,202.292 136.936 C 201.538 137.251,200.004 137.634,198.881 137.789 C 197.759 137.943,196.641 138.310,196.397 138.603 C 196.153 138.897,195.245 139.257,194.379 139.404 C 193.513 139.550,192.708 139.825,192.591 140.015 C 192.473 140.205,191.292 140.911,189.966 141.585 C 188.640 142.259,187.171 143.168,186.702 143.605 C 186.233 144.042,185.677 144.400,185.466 144.400 C 184.950 144.400,177.200 152.174,177.200 152.692 C 177.200 152.918,176.902 153.349,176.538 153.651 C 176.174 153.953,175.631 154.740,175.332 155.400 C 174.744 156.698,174.232 157.595,173.116 159.284 C 172.722 159.880,172.400 160.607,172.400 160.899 C 172.400 161.192,172.066 162.085,171.659 162.885 C 171.251 163.685,170.802 165.317,170.662 166.513 C 170.521 167.709,170.135 169.337,169.803 170.131 C 168.852 172.407,168.973 180.195,170.000 182.800 C 170.440 183.916,170.800 185.200,170.800 185.652 C 170.800 186.104,171.160 186.931,171.600 187.491 C 172.040 188.050,172.400 188.724,172.400 188.987 C 172.400 191.329,179.107 195.860,184.556 197.199 L 188.113 198.073 192.756 197.185 C 195.310 196.696,198.132 195.960,199.026 195.548 C 199.921 195.137,200.866 194.800,201.126 194.800 C 201.387 194.800,201.600 194.653,201.600 194.474 C 201.600 194.295,202.236 193.845,203.014 193.474 C 204.401 192.812,210.800 186.927,210.800 186.313 C 210.800 186.141,211.160 185.640,211.600 185.200 C 212.040 184.760,212.400 184.149,212.400 183.843 C 212.400 181.646,214.133 183.108,214.721 185.800 C 215.913 191.259,216.616 192.493,220.326 195.640 C 222.483 197.471,235.013 197.544,237.248 195.739 C 237.551 195.493,238.385 195.167,239.100 195.014 C 239.815 194.862,240.400 194.593,240.400 194.417 C 240.400 194.241,240.977 193.858,241.683 193.566 C 243.215 192.931,243.456 192.732,247.807 188.498 C 249.673 186.682,251.200 184.955,251.200 184.660 C 251.200 184.365,251.544 183.813,251.964 183.433 C 252.384 183.052,252.838 182.304,252.972 181.771 C 253.106 181.237,253.392 180.800,253.608 180.800 C 253.823 180.800,254.002 180.575,254.004 180.300 C 254.006 180.025,254.450 178.900,254.991 177.800 C 255.532 176.700,255.981 175.435,255.987 174.989 C 255.994 174.543,256.288 173.766,256.641 173.263 C 256.993 172.760,257.442 171.055,257.638 169.474 C 257.835 167.893,258.221 166.060,258.498 165.400 C 259.298 163.489,259.145 151.223,258.283 148.216 C 257.907 146.905,257.600 145.239,257.600 144.515 C 257.600 143.790,257.240 142.525,256.800 141.704 C 256.360 140.884,256.000 139.885,256.000 139.485 C 256.000 139.085,255.656 138.093,255.235 137.279 C 254.814 136.466,253.986 134.772,253.395 133.516 C 252.804 132.260,252.069 131.023,251.761 130.767 C 251.452 130.511,251.200 130.137,251.200 129.935 C 251.200 128.774,240.556 117.600,239.451 117.600 C 239.330 117.600,238.100 116.882,236.716 116.004 C 235.332 115.126,233.997 114.406,233.749 114.404 C 233.501 114.402,233.083 114.142,232.821 113.826 C 232.559 113.510,231.772 113.126,231.072 112.972 C 230.373 112.819,229.173 112.357,228.406 111.947 C 227.639 111.536,226.554 111.200,225.995 111.200 C 225.436 111.200,224.588 110.927,224.111 110.593 C 223.635 110.259,221.920 109.818,220.300 109.613 C 218.681 109.407,216.859 109.051,216.252 108.820 C 214.831 108.279,198.949 108.310,197.600 108.855 M213.800 144.389 C 214.020 144.559,215.040 144.821,216.067 144.969 C 218.605 145.336,219.093 145.985,218.444 148.131 C 218.166 149.049,217.769 151.150,217.563 152.800 C 217.356 154.450,216.932 156.520,216.621 157.400 C 216.311 158.280,215.958 160.236,215.839 161.746 C 215.719 163.256,215.437 164.715,215.211 164.986 C 214.986 165.258,214.683 166.363,214.539 167.440 C 214.395 168.518,213.945 170.027,213.539 170.794 C 213.132 171.561,212.800 172.495,212.800 172.870 C 212.800 173.246,212.617 173.666,212.394 173.804 C 212.171 173.942,211.721 174.627,211.395 175.327 C 211.069 176.027,210.486 177.068,210.101 177.640 C 209.715 178.213,209.051 179.203,208.625 179.840 C 207.493 181.535,202.540 186.302,201.604 186.599 C 201.162 186.739,200.800 187.022,200.800 187.227 C 200.800 187.432,200.575 187.606,200.300 187.613 C 200.025 187.619,198.900 188.068,197.800 188.609 C 191.564 191.676,182.286 188.082,180.971 182.090 C 180.839 181.490,180.477 180.321,180.166 179.492 C 179.444 177.569,179.439 173.723,180.156 171.514 C 180.461 170.571,180.823 168.912,180.958 167.826 C 181.094 166.740,181.450 165.478,181.750 165.020 C 182.050 164.563,182.420 163.618,182.573 162.922 C 182.726 162.225,183.110 161.441,183.426 161.179 C 183.742 160.917,184.000 160.392,184.000 160.013 C 184.000 159.634,184.360 158.998,184.800 158.600 C 185.240 158.202,185.600 157.713,185.600 157.515 C 185.600 156.885,188.902 153.062,190.882 151.400 C 191.930 150.520,193.087 149.530,193.452 149.200 C 194.129 148.588,195.804 147.610,197.600 146.778 C 198.150 146.523,198.952 146.129,199.382 145.902 C 200.096 145.526,202.392 144.925,206.600 144.012 C 208.337 143.635,213.153 143.887,213.800 144.389 M48.162 180.200 C 48.972 180.750,49.753 181.200,49.895 181.200 C 50.038 181.200,49.545 180.750,48.800 180.200 C 48.055 179.650,47.274 179.200,47.066 179.200 C 46.859 179.200,47.351 179.650,48.162 180.200 M50.580 181.568 C 50.782 181.894,53.921 183.823,57.220 185.647 C 57.864 186.003,58.708 186.543,59.095 186.847 C 59.736 187.349,59.750 187.336,59.249 186.697 C 58.946 186.311,58.283 185.771,57.775 185.497 C 54.893 183.943,51.603 181.928,51.394 181.590 C 51.261 181.376,50.973 181.200,50.753 181.200 C 50.533 181.200,50.455 181.365,50.580 181.568 M60.400 187.620 C 61.872 188.619,62.613 188.857,61.656 188.023 C 61.136 187.570,60.506 187.203,60.256 187.206 C 60.005 187.209,60.070 187.396,60.400 187.620 M68.909 192.800 C 69.469 193.240,70.057 193.600,70.217 193.600 C 70.377 193.600,70.050 193.240,69.491 192.800 C 68.931 192.360,68.343 192.000,68.183 192.000 C 68.023 192.000,68.350 192.360,68.909 192.800 M78.962 199.000 C 79.772 199.550,80.553 200.000,80.695 200.000 C 80.838 200.000,80.345 199.550,79.600 199.000 C 78.855 198.450,78.074 198.000,77.866 198.000 C 77.659 198.000,78.151 198.450,78.962 199.000 M81.600 200.600 C 81.874 200.930,82.278 201.200,82.498 201.200 C 82.721 201.200,82.678 200.935,82.400 200.600 C 82.126 200.270,81.722 200.000,81.502 200.000 C 81.279 200.000,81.322 200.265,81.600 200.600 M86.000 203.220 C 87.472 204.219,88.213 204.457,87.256 203.623 C 86.736 203.170,86.106 202.803,85.856 202.806 C 85.605 202.809,85.670 202.996,86.000 203.220 M88.433 204.544 C 89.158 205.169,92.851 207.600,93.077 207.600 C 93.417 207.600,92.368 206.775,90.282 205.400 C 89.026 204.572,87.818 204.013,88.433 204.544 M95.600 208.963 C 95.600 209.043,96.050 209.403,96.600 209.763 C 97.150 210.124,97.600 210.263,97.600 210.073 C 97.600 209.884,97.150 209.523,96.600 209.273 C 96.050 209.022,95.600 208.883,95.600 208.963 M99.362 211.400 C 100.172 211.950,100.953 212.400,101.095 212.400 C 101.238 212.400,100.745 211.950,100.000 211.400 C 99.255 210.850,98.474 210.400,98.266 210.400 C 98.059 210.400,98.551 210.850,99.362 211.400 M101.804 212.806 C 101.941 213.029,102.717 213.571,103.527 214.010 C 105.331 214.988,106.301 215.588,107.549 216.500 C 108.077 216.885,108.699 217.200,108.932 217.200 C 109.165 217.200,108.745 216.750,108.000 216.200 C 107.255 215.650,106.498 215.200,106.318 215.200 C 106.139 215.200,105.095 214.570,104.000 213.800 C 101.955 212.362,101.364 212.095,101.804 212.806 M109.600 217.405 C 109.600 217.481,110.399 218.083,111.376 218.742 C 112.353 219.401,113.070 219.729,112.969 219.470 C 112.803 219.043,109.600 217.080,109.600 217.405 M115.200 221.063 C 116.190 221.644,117.284 222.362,117.631 222.659 C 118.348 223.273,118.960 223.383,118.624 222.838 C 118.365 222.420,114.163 219.998,113.706 220.004 C 113.538 220.006,114.210 220.483,115.200 221.063 M122.199 225.198 C 122.334 225.417,122.840 225.803,123.322 226.056 C 124.194 226.513,124.195 226.510,123.438 225.658 C 122.675 224.798,121.736 224.450,122.199 225.198 M125.246 227.117 C 127.045 228.471,128.400 229.218,128.400 228.858 C 128.400 228.659,127.866 228.276,127.213 228.005 C 126.561 227.735,125.819 227.263,125.564 226.957 C 125.310 226.651,124.920 226.400,124.697 226.400 C 124.474 226.400,124.721 226.723,125.246 227.117 M128.833 229.321 C 128.925 229.388,129.540 229.758,130.200 230.145 L 131.400 230.847 130.456 230.024 C 129.936 229.571,129.321 229.200,129.089 229.200 C 128.857 229.200,128.742 229.254,128.833 229.321 M134.033 232.521 C 134.125 232.588,134.740 232.958,135.400 233.345 L 136.600 234.047 135.656 233.224 C 135.136 232.771,134.521 232.400,134.289 232.400 C 134.057 232.400,133.942 232.454,134.033 232.521 M138.000 235.000 C 138.745 235.550,139.535 236.000,139.755 236.000 C 139.975 236.000,139.545 235.550,138.800 235.000 C 138.055 234.450,137.265 234.000,137.045 234.000 C 136.825 234.000,137.255 234.450,138.000 235.000 M142.033 237.321 C 142.125 237.388,142.740 237.758,143.400 238.145 L 144.600 238.847 143.656 238.024 C 143.136 237.571,142.521 237.200,142.289 237.200 C 142.057 237.200,141.942 237.254,142.033 237.321 M145.646 239.517 C 147.445 240.871,148.800 241.618,148.800 241.258 C 148.800 241.059,148.266 240.676,147.613 240.405 C 146.961 240.135,146.219 239.663,145.964 239.357 C 145.710 239.051,145.320 238.800,145.097 238.800 C 144.874 238.800,145.121 239.123,145.646 239.517 M150.562 242.600 C 151.372 243.150,152.153 243.600,152.295 243.600 C 152.438 243.600,151.945 243.150,151.200 242.600 C 150.455 242.050,149.674 241.600,149.466 241.600 C 149.259 241.600,149.751 242.050,150.562 242.600 M154.433 244.921 C 154.525 244.988,155.140 245.358,155.800 245.745 L 157.000 246.447 156.056 245.624 C 155.536 245.171,154.921 244.800,154.689 244.800 C 154.457 244.800,154.342 244.854,154.433 244.921 M158.046 247.124 C 159.254 248.040,162.000 249.627,162.000 249.408 C 162.000 249.167,157.773 246.400,157.405 246.400 C 157.233 246.400,157.521 246.726,158.046 247.124 M164.000 250.800 C 164.550 251.230,165.166 251.586,165.369 251.591 C 165.571 251.596,166.111 251.915,166.569 252.300 C 167.399 252.999,167.399 252.999,166.638 252.100 C 166.219 251.605,165.656 251.200,165.387 251.200 C 165.118 251.200,164.674 250.930,164.400 250.600 C 164.126 250.270,163.699 250.004,163.451 250.009 C 163.203 250.014,163.450 250.370,164.000 250.800 M170.200 254.468 C 170.640 254.712,171.279 255.112,171.620 255.356 C 171.960 255.600,171.815 255.395,171.297 254.900 C 170.779 254.405,170.140 254.005,169.878 254.012 C 169.615 254.019,169.760 254.224,170.200 254.468 M173.200 256.420 C 174.672 257.419,175.413 257.657,174.456 256.823 C 173.936 256.370,173.306 256.003,173.056 256.006 C 172.805 256.009,172.870 256.196,173.200 256.420 M176.509 258.400 C 177.069 258.840,177.657 259.200,177.817 259.200 C 177.977 259.200,177.650 258.840,177.091 258.400 C 176.531 257.960,175.943 257.600,175.783 257.600 C 175.623 257.600,175.950 257.960,176.509 258.400 M179.200 260.000 C 179.707 260.440,180.213 260.800,180.323 260.800 C 180.434 260.800,180.198 260.440,179.800 260.000 C 179.402 259.560,178.896 259.200,178.677 259.200 C 178.457 259.200,178.693 259.560,179.200 260.000 M181.709 261.600 C 182.269 262.040,182.857 262.400,183.017 262.400 C 183.177 262.400,182.850 262.040,182.291 261.600 C 181.731 261.160,181.143 260.800,180.983 260.800 C 180.823 260.800,181.150 261.160,181.709 261.600 M184.344 263.213 C 184.864 263.646,185.473 264.000,185.698 264.000 C 185.924 264.000,185.650 263.640,185.091 263.200 C 183.776 262.166,183.102 262.178,184.344 263.213 M187.000 264.800 C 187.398 265.240,187.904 265.600,188.123 265.600 C 188.343 265.600,188.107 265.240,187.600 264.800 C 187.093 264.360,186.587 264.000,186.477 264.000 C 186.366 264.000,186.602 264.360,187.000 264.800 M189.200 266.200 C 189.474 266.530,189.878 266.800,190.098 266.800 C 190.321 266.800,190.278 266.535,190.000 266.200 C 189.726 265.870,189.322 265.600,189.102 265.600 C 188.879 265.600,188.922 265.865,189.200 266.200 M193.233 268.559 C 196.587 271.764,200.227 272.872,202.600 271.410 C 204.516 270.230,204.233 270.053,202.276 271.208 C 201.492 271.671,200.585 271.912,200.153 271.773 C 198.612 271.275,195.217 269.502,194.767 268.961 C 194.511 268.652,194.024 268.400,193.684 268.400 C 193.345 268.400,193.142 268.472,193.233 268.559 " stroke="none" fill="#9a805f" fill-rule="evenodd"></path></g></svg>
