<svg id="svg" xmlns="http://www.w3.org/2000/svg" xmlns:xlink="http://www.w3.org/1999/xlink" width="80" height="80" viewBox="0, 0, 400,400"><g id="svgg"><path id="path0" d="M6.000 0.362 C 6.000 0.562,5.109 0.847,4.020 0.997 C 1.656 1.322,1.360 1.626,0.992 4.100 C 0.836 5.145,0.550 6.000,0.355 6.000 C 0.149 6.000,0.000 88.002,0.000 201.200 C 0.000 308.560,0.144 396.400,0.320 396.400 C 0.495 396.400,0.867 397.030,1.146 397.800 C 1.535 398.878,1.876 399.200,2.626 399.200 C 3.162 399.200,3.600 399.380,3.600 399.600 C 3.600 399.866,69.400 400.000,200.200 400.000 C 331.000 400.000,396.800 399.866,396.800 399.600 C 396.800 399.380,397.124 399.200,397.520 399.200 C 397.916 399.200,398.456 398.984,398.720 398.720 C 398.984 398.456,399.200 397.916,399.200 397.520 C 399.200 397.124,399.380 396.800,399.600 396.800 C 400.395 396.800,400.126 4.555,399.330 2.751 C 398.848 1.659,398.344 1.163,397.530 0.985 C 396.909 0.848,396.400 0.571,396.400 0.368 C 396.400 0.144,319.834 0.000,201.200 0.000 C 84.809 0.000,6.000 0.146,6.000 0.362 M383.646 8.912 C 389.120 11.637,392.094 15.259,392.837 20.104 C 393.628 25.269,393.109 382.400,392.308 383.864 C 391.928 384.559,391.478 385.189,391.308 385.264 C 391.139 385.339,390.503 386.163,389.897 387.097 C 389.290 388.030,388.030 389.290,387.097 389.897 C 386.163 390.503,385.339 391.139,385.264 391.308 C 385.189 391.478,384.559 391.928,383.864 392.308 C 382.400 393.109,25.269 393.628,20.104 392.837 C 15.444 392.123,11.796 389.233,9.041 384.073 L 7.400 381.000 7.400 200.600 L 7.400 20.200 8.342 18.400 C 8.860 17.410,9.611 15.963,10.011 15.184 C 10.777 13.692,14.466 10.000,15.191 10.000 C 15.426 10.000,16.304 9.546,17.143 8.990 C 19.745 7.269,17.621 7.289,201.203 7.244 L 380.206 7.200 383.646 8.912 M348.029 176.643 C 346.615 176.952,345.175 177.451,344.829 177.751 C 344.483 178.052,343.522 178.613,342.693 178.998 C 337.603 181.362,335.013 188.202,336.519 195.305 C 336.833 196.786,341.876 202.400,342.892 202.400 C 343.117 202.400,344.313 202.913,345.551 203.540 C 346.788 204.167,349.240 204.986,351.000 205.360 C 352.760 205.735,355.190 206.382,356.400 206.800 C 357.610 207.218,359.628 207.760,360.885 208.005 C 363.424 208.500,367.314 211.280,367.751 212.913 C 369.153 218.140,365.492 221.872,357.512 223.355 C 352.823 224.227,344.980 220.454,343.141 216.443 C 340.797 211.331,341.294 211.814,338.239 211.681 C 333.543 211.476,332.770 213.557,335.462 219.158 C 337.354 223.092,338.803 224.825,342.011 226.985 C 344.439 228.620,345.972 229.178,351.400 230.404 C 353.892 230.967,359.769 230.868,361.686 230.230 C 362.629 229.917,364.210 229.452,365.200 229.197 C 379.819 225.434,379.650 203.347,364.979 200.414 C 363.891 200.196,361.830 199.584,360.400 199.054 C 358.970 198.524,356.346 197.794,354.568 197.432 C 345.196 195.526,341.886 191.135,346.170 186.292 C 350.197 181.739,363.666 182.941,365.561 188.023 C 365.802 188.670,366.188 189.706,366.417 190.324 C 367.289 192.674,370.970 193.547,373.500 192.004 C 375.017 191.079,375.112 190.320,374.042 187.674 C 373.625 186.643,373.063 185.214,372.792 184.497 C 372.269 183.110,367.910 178.800,367.031 178.800 C 366.743 178.800,366.008 178.407,365.398 177.927 C 363.112 176.129,353.597 175.425,348.029 176.643 M40.099 177.073 C 34.969 177.320,35.400 174.883,35.400 203.668 C 35.400 226.462,35.444 228.016,36.114 228.686 C 36.775 229.347,38.189 229.408,55.343 229.511 L 73.859 229.623 74.929 228.630 C 76.137 227.511,76.254 226.582,75.434 224.619 C 74.564 222.538,74.328 222.503,60.000 222.323 C 49.348 222.190,46.354 222.036,45.400 221.573 L 44.200 220.990 44.090 214.929 C 43.982 209.006,44.002 208.843,44.955 207.734 L 45.931 206.600 52.465 206.337 C 56.059 206.192,61.655 206.057,64.900 206.037 C 71.803 205.994,72.400 205.726,72.400 202.670 C 72.400 199.530,71.657 199.206,64.374 199.166 C 43.745 199.054,43.997 199.147,44.005 191.678 C 44.014 183.949,42.710 184.549,60.200 184.236 C 75.317 183.966,74.586 184.160,74.297 180.480 C 74.206 179.314,73.876 178.115,73.565 177.816 C 72.986 177.259,47.836 176.701,40.099 177.073 M318.405 177.394 C 318.036 177.838,317.847 183.083,317.656 198.165 C 317.365 221.081,317.652 219.305,313.826 221.900 C 311.162 223.707,308.949 223.475,305.904 221.068 C 305.008 220.359,304.000 217.943,304.000 216.502 C 304.000 214.316,303.056 213.600,300.177 213.600 C 296.393 213.600,295.823 214.282,296.109 218.460 C 297.181 234.092,321.966 235.102,325.353 219.651 C 326.637 213.798,326.151 178.047,324.776 177.177 C 323.793 176.555,318.965 176.720,318.405 177.394 M134.200 190.375 C 133.540 190.537,132.242 191.058,131.316 191.534 C 129.233 192.605,128.172 192.620,125.944 191.609 C 123.511 190.505,121.954 190.572,120.770 191.832 L 119.800 192.864 119.673 212.132 C 119.467 243.343,119.533 243.847,123.805 243.747 C 127.169 243.668,127.249 243.515,127.677 236.330 C 128.147 228.430,128.195 228.363,132.416 229.821 C 134.645 230.591,135.855 230.794,137.200 230.623 C 139.902 230.278,145.132 228.432,145.700 227.622 C 145.975 227.230,146.800 226.544,147.534 226.098 C 149.193 225.090,151.845 221.617,152.204 219.983 C 152.352 219.310,152.906 217.692,153.436 216.388 C 154.588 213.554,154.814 206.999,153.840 204.714 C 153.532 203.991,152.798 202.101,152.210 200.513 C 149.653 193.616,140.960 188.722,134.200 190.375 M236.000 190.806 C 228.327 191.414,223.600 195.949,223.600 202.700 C 223.600 207.651,228.036 211.517,236.323 213.788 C 239.673 214.706,242.586 215.622,244.901 216.487 C 246.539 217.098,246.932 218.956,245.845 220.954 C 243.183 225.848,233.370 224.764,231.593 219.380 C 230.293 215.440,223.233 215.531,223.206 219.489 C 223.181 223.127,227.702 228.113,232.404 229.632 C 238.181 231.499,247.019 230.501,250.200 227.624 C 250.640 227.226,251.361 226.715,251.802 226.488 C 253.242 225.749,255.613 220.499,255.606 218.065 C 255.594 213.650,251.910 209.243,247.200 208.007 C 246.210 207.747,245.008 207.284,244.528 206.977 C 243.521 206.332,238.213 204.800,236.986 204.800 C 235.964 204.800,232.462 202.626,232.142 201.794 C 230.180 196.680,242.817 195.703,245.385 200.771 L 246.413 202.800 249.162 202.800 C 253.054 202.800,253.799 202.156,253.189 199.318 C 251.905 193.344,245.292 190.069,236.000 190.806 M171.296 191.648 C 170.277 192.301,169.623 192.430,168.296 192.238 C 160.121 191.054,160.453 190.726,159.950 200.471 C 159.461 209.948,160.126 227.897,160.998 228.769 C 161.320 229.091,162.624 229.423,163.943 229.518 C 167.872 229.803,167.997 229.536,168.012 220.900 C 168.040 204.999,168.907 200.978,172.692 199.199 C 174.175 198.502,174.658 198.445,175.918 198.822 C 179.635 199.935,181.138 198.804,181.311 194.765 L 181.400 192.685 179.600 191.754 C 177.164 190.494,173.178 190.443,171.296 191.648 M193.323 192.029 C 186.956 194.416,183.514 199.217,182.338 207.353 C 181.599 212.468,183.454 220.561,186.042 223.509 C 186.679 224.234,187.200 224.961,187.200 225.123 C 187.200 225.285,187.842 225.764,188.628 226.187 C 189.413 226.610,190.221 227.265,190.423 227.644 C 190.626 228.022,192.278 228.842,194.096 229.466 C 202.522 232.358,212.760 229.449,216.164 223.195 C 216.754 222.111,217.408 221.118,217.618 220.989 C 218.116 220.681,218.109 218.552,217.607 217.614 C 217.230 216.909,213.201 216.070,211.600 216.362 C 210.682 216.530,209.594 217.645,208.767 219.265 C 205.216 226.222,194.459 225.083,192.211 217.513 C 191.015 213.485,190.595 213.619,205.410 213.319 C 215.536 213.114,217.693 212.970,218.104 212.474 C 218.944 211.460,218.755 204.101,217.845 202.400 C 217.433 201.630,216.678 200.163,216.166 199.140 C 212.674 192.154,201.921 188.806,193.323 192.029 M268.000 191.840 C 255.668 196.856,258.601 210.118,272.820 213.634 C 274.679 214.093,276.932 214.814,277.826 215.235 C 278.721 215.656,279.908 216.000,280.464 216.000 C 283.813 216.000,283.707 221.476,280.326 223.102 C 275.529 225.409,270.962 223.844,267.806 218.810 C 266.141 216.155,265.839 216.043,262.477 216.851 C 260.409 217.348,259.600 218.082,259.600 219.463 C 259.600 220.652,262.275 225.505,263.205 226.003 C 263.603 226.216,264.452 226.914,265.093 227.555 C 268.907 231.368,281.891 231.630,286.400 227.984 C 286.950 227.539,287.968 226.813,288.662 226.370 C 290.083 225.464,292.406 220.362,292.402 218.155 C 292.395 214.281,288.404 209.445,284.157 208.167 C 283.249 207.894,281.747 207.283,280.821 206.811 C 279.894 206.338,277.665 205.630,275.866 205.237 C 269.999 203.954,268.250 202.549,269.387 200.030 C 271.347 195.682,279.609 196.462,282.652 201.283 L 283.675 202.902 286.383 202.708 C 289.793 202.464,290.000 202.324,290.000 200.255 C 290.000 193.096,277.071 188.151,268.000 191.840 M81.429 192.229 C 80.638 193.019,80.639 193.368,81.429 194.024 C 81.775 194.311,82.387 195.189,82.789 195.973 C 83.191 196.758,84.033 198.058,84.660 198.862 C 85.287 199.666,86.160 200.917,86.600 201.642 C 87.749 203.536,88.025 203.968,89.739 206.542 C 91.765 209.585,91.602 210.352,87.709 216.092 C 86.028 218.571,84.280 221.190,83.826 221.912 C 83.372 222.633,82.325 224.253,81.501 225.512 C 79.230 228.978,79.638 229.600,84.183 229.600 C 86.998 229.600,89.925 227.726,90.643 225.464 C 90.948 224.502,92.906 222.017,95.545 219.241 L 97.289 217.405 99.049 219.403 C 100.018 220.501,101.212 222.053,101.705 222.852 C 105.219 228.550,106.649 229.600,110.900 229.600 C 114.893 229.600,115.946 228.416,113.771 226.373 C 113.205 225.841,112.362 224.730,111.898 223.903 C 111.433 223.076,110.909 222.400,110.733 222.400 C 110.557 222.400,109.957 221.500,109.400 220.400 C 108.843 219.300,108.238 218.400,108.057 218.400 C 107.876 218.400,107.238 217.545,106.640 216.500 C 104.827 213.329,103.935 211.852,103.147 210.712 L 102.394 209.625 103.897 207.370 C 104.724 206.130,105.940 204.257,106.600 203.206 C 108.550 200.103,109.913 198.124,111.885 195.530 L 113.745 193.085 112.828 192.342 C 111.784 191.497,108.129 191.318,106.133 192.014 C 104.929 192.433,102.860 194.656,101.306 197.200 C 100.835 197.970,99.735 199.296,98.860 200.147 L 97.270 201.694 95.635 200.380 C 94.736 199.657,94.000 198.942,94.000 198.789 C 94.000 198.637,93.284 197.699,92.408 196.705 C 91.533 195.710,90.634 194.416,90.411 193.829 C 89.640 191.800,83.034 190.623,81.429 192.229 M140.592 197.774 C 146.760 201.936,147.644 215.968,142.062 221.103 C 134.302 228.242,125.666 220.055,127.580 207.374 C 127.810 205.848,128.092 204.039,128.207 203.353 C 128.951 198.920,136.950 195.316,140.592 197.774 M202.926 197.573 C 205.369 198.140,207.611 199.948,208.665 202.199 L 209.601 204.200 208.756 204.900 C 207.698 205.776,193.730 205.970,192.880 205.120 C 190.866 203.106,194.558 198.475,198.848 197.632 C 201.204 197.169,201.186 197.169,202.926 197.573 " stroke="none" fill="#f3f33d" fill-rule="evenodd"></path><path id="path1" d="M22.038 9.085 C 21.729 9.208,20.849 9.734,20.083 10.254 C 19.316 10.774,18.336 11.200,17.905 11.200 C 16.660 11.200,11.664 16.275,11.196 18.016 C 10.977 18.830,10.393 20.010,9.899 20.638 L 9.000 21.780 8.899 200.658 L 8.797 379.535 9.844 380.779 C 10.419 381.463,11.055 382.757,11.257 383.655 C 11.692 385.592,14.400 388.512,16.173 388.958 C 16.818 389.119,17.867 389.690,18.504 390.226 L 19.661 391.200 200.817 391.200 L 381.972 391.200 383.339 390.000 C 384.091 389.340,384.862 388.797,385.053 388.793 C 385.462 388.786,388.800 385.394,388.800 384.986 C 388.800 384.832,389.340 384.091,390.000 383.339 L 391.200 381.972 391.200 200.817 L 391.200 19.661 390.226 18.504 C 389.690 17.867,389.119 16.818,388.958 16.173 C 388.503 14.362,385.593 11.692,383.581 11.240 C 382.640 11.029,381.447 10.396,380.921 9.828 L 379.968 8.800 201.284 8.832 C 103.008 8.849,22.347 8.963,22.038 9.085 M63.000 171.449 C 65.300 172.358,50.134 173.541,45.765 172.794 C 42.335 172.207,41.720 171.748,43.889 171.394 C 44.720 171.258,45.670 171.076,46.000 170.991 C 47.061 170.714,62.172 171.122,63.000 171.449 M362.317 171.810 C 362.715 171.947,362.731 172.181,362.386 172.825 C 361.409 174.651,364.165 175.970,366.188 174.645 C 368.125 173.375,369.721 174.094,369.328 176.058 C 369.100 177.199,370.893 177.897,371.267 176.813 C 371.347 176.579,371.627 176.567,371.974 176.782 C 372.441 177.072,372.454 177.253,372.044 177.747 C 371.300 178.643,371.662 180.111,372.760 180.657 C 373.289 180.920,373.944 181.784,374.218 182.582 C 374.492 183.379,375.198 184.478,375.788 185.024 C 376.857 186.015,376.859 186.028,376.791 191.508 C 376.732 196.233,376.863 197.531,377.725 200.800 C 378.593 204.089,378.652 204.685,378.164 205.231 C 377.337 206.157,377.473 207.025,378.557 207.735 C 380.610 209.081,380.460 219.492,378.356 221.645 C 377.193 222.835,376.858 224.142,377.600 224.600 C 377.820 224.736,378.000 225.107,378.000 225.424 C 378.000 225.741,377.820 226.000,377.600 226.000 C 377.380 226.000,377.200 225.730,377.200 225.400 C 377.200 224.059,374.554 224.665,374.145 226.100 C 373.895 226.973,373.492 227.441,372.916 227.524 C 371.247 227.765,370.616 230.400,372.227 230.400 C 373.052 230.400,372.932 231.101,372.024 231.587 C 371.508 231.863,371.166 231.868,371.001 231.601 C 370.441 230.696,368.800 231.158,368.800 232.220 C 368.800 234.004,365.304 235.011,363.414 233.772 C 361.808 232.720,350.229 232.881,348.748 233.976 C 346.970 235.290,341.932 233.939,342.890 232.405 C 343.629 231.222,342.703 230.401,341.678 231.329 C 340.608 232.298,339.783 232.171,336.991 230.610 C 332.860 228.299,327.994 228.488,325.126 231.070 C 324.756 231.403,323.856 231.704,323.126 231.738 C 322.391 231.772,321.568 232.110,321.279 232.497 C 320.215 233.923,319.369 234.059,315.917 233.359 C 312.061 232.578,306.685 232.772,304.155 233.785 C 302.634 234.393,302.316 234.383,298.872 233.616 C 294.332 232.605,293.879 232.605,288.621 233.633 C 284.547 234.428,284.312 234.434,283.295 233.768 C 281.876 232.838,273.651 232.490,270.200 233.214 C 267.143 233.856,266.608 233.839,261.923 232.958 C 257.808 232.184,257.165 232.230,250.003 233.797 C 247.638 234.314,247.316 234.304,246.403 233.682 C 245.452 233.035,236.956 232.830,230.222 233.292 C 228.840 233.387,228.615 233.279,228.411 232.430 C 228.184 231.486,227.200 230.746,227.200 231.520 C 227.200 232.246,225.534 232.343,222.810 231.775 C 220.780 231.352,219.594 231.310,218.144 231.608 C 213.670 232.530,213.626 232.532,213.364 231.851 C 212.883 230.596,211.469 231.047,211.734 232.372 C 212.018 233.791,210.326 234.440,208.723 233.527 C 208.066 233.152,205.958 233.000,201.400 233.000 C 196.842 233.000,194.734 233.152,194.077 233.527 C 192.462 234.447,190.697 233.778,191.008 232.363 C 191.247 231.275,191.184 231.200,190.032 231.200 C 189.354 231.200,188.800 231.363,188.800 231.563 C 188.800 232.157,187.217 231.560,186.652 230.753 C 186.364 230.342,186.018 230.116,185.883 230.251 C 185.747 230.386,184.458 229.655,183.018 228.628 C 177.095 224.401,172.568 224.313,171.397 228.400 C 170.428 231.780,162.857 233.890,159.200 231.800 C 157.031 230.560,151.995 231.307,145.332 233.856 C 143.974 234.375,142.225 234.800,141.444 234.800 C 140.382 234.800,140.080 234.943,140.243 235.368 C 140.387 235.743,139.667 236.442,138.131 237.421 C 136.849 238.237,135.144 239.422,134.342 240.053 C 132.485 241.514,132.253 241.495,131.253 239.800 C 129.865 237.448,129.315 238.042,128.915 242.327 C 128.587 245.839,128.347 246.001,123.471 245.994 C 118.974 245.988,117.563 245.541,117.147 243.991 C 116.028 239.828,115.809 239.401,114.729 239.276 C 113.216 239.101,110.000 236.180,110.000 234.980 C 110.000 233.889,108.966 233.200,107.326 233.200 C 106.707 233.199,104.850 232.908,103.200 232.552 C 99.806 231.819,90.233 231.642,88.979 232.289 C 88.128 232.728,78.742 233.309,74.084 233.211 C 70.916 233.145,66.800 233.833,66.800 234.428 C 66.800 234.633,66.428 234.800,65.974 234.800 C 65.519 234.800,64.767 235.004,64.302 235.252 C 61.786 236.599,44.855 236.398,43.200 235.002 C 41.981 233.974,40.137 233.294,37.800 233.010 C 34.413 232.599,34.103 232.349,33.527 229.559 C 33.119 227.584,32.824 227.026,31.946 226.572 C 29.660 225.390,29.066 220.530,29.065 203.000 C 29.065 186.185,29.620 181.818,31.901 180.708 C 32.708 180.316,33.053 179.719,33.418 178.088 C 33.678 176.926,34.007 175.860,34.149 175.718 C 35.376 174.491,74.195 174.823,75.443 176.072 C 76.345 176.974,77.216 181.720,76.937 184.210 C 76.731 186.045,76.816 186.333,77.916 187.510 L 79.121 188.800 89.914 188.800 L 100.708 188.800 101.363 189.800 C 102.192 191.064,102.697 191.064,103.273 189.800 C 103.720 188.818,103.812 188.800,108.364 188.790 C 110.914 188.785,113.720 188.584,114.600 188.343 C 116.410 187.848,117.002 187.836,121.200 188.209 C 124.618 188.513,126.400 188.047,126.400 186.849 C 126.400 184.675,136.949 184.454,137.931 186.608 C 138.422 187.687,142.173 188.672,143.946 188.188 C 145.476 187.770,147.853 187.848,150.661 188.407 C 155.069 189.286,165.722 188.416,167.136 187.062 C 168.566 185.691,170.282 185.637,170.780 186.946 C 171.114 187.825,171.424 187.913,175.157 188.177 C 178.996 188.450,180.006 188.364,181.800 187.616 C 182.935 187.143,191.467 186.378,192.303 186.675 C 192.686 186.810,193.270 187.146,193.600 187.419 C 194.004 187.755,196.548 187.991,201.400 188.145 C 205.360 188.270,208.645 188.378,208.700 188.386 C 208.755 188.394,208.800 188.921,208.800 189.557 C 208.800 190.904,209.577 191.341,211.003 190.799 C 211.641 190.556,212.000 190.109,212.000 189.555 C 212.000 188.729,212.104 188.705,214.300 189.032 C 217.273 189.474,222.199 189.489,224.060 189.061 C 225.415 188.750,225.560 188.808,226.064 189.863 C 226.683 191.157,228.025 191.534,228.780 190.624 C 229.435 189.835,229.016 188.124,228.100 187.847 C 227.715 187.731,228.480 187.734,229.800 187.856 C 231.120 187.977,235.708 188.104,239.996 188.138 L 247.792 188.200 247.996 189.357 C 248.347 191.349,251.199 191.894,251.775 190.079 C 251.972 189.458,252.476 189.363,255.501 189.380 C 257.426 189.391,259.945 189.242,261.100 189.048 C 263.091 188.715,263.200 188.741,263.200 189.557 C 263.200 190.703,264.916 191.534,265.788 190.810 C 266.721 190.036,266.520 188.888,265.343 188.272 C 264.682 187.926,264.454 187.614,264.735 187.440 C 264.981 187.288,265.555 187.362,266.010 187.605 C 266.464 187.849,268.133 188.059,269.718 188.073 C 281.231 188.175,284.035 188.440,284.423 189.461 C 284.640 190.032,285.473 190.740,286.432 191.170 C 287.333 191.573,288.411 192.465,288.829 193.152 C 289.247 193.838,289.865 194.400,290.204 194.400 C 291.117 194.400,291.599 196.095,291.606 199.326 C 291.614 202.914,291.881 203.386,293.705 203.044 C 294.909 202.818,295.189 202.923,295.778 203.822 C 298.218 207.547,301.785 209.834,304.092 209.155 C 309.247 207.636,310.344 205.201,311.012 193.800 C 311.541 184.756,312.872 180.392,313.976 184.076 C 315.463 189.042,315.970 188.513,316.280 181.674 C 316.586 174.930,316.473 175.044,322.544 175.301 C 328.036 175.533,328.516 175.659,329.137 177.022 C 329.657 178.163,330.099 178.244,330.983 177.360 C 331.335 177.008,332.653 176.486,333.911 176.199 C 335.170 175.913,337.597 175.180,339.305 174.570 L 342.411 173.461 343.221 174.330 C 344.078 175.250,344.708 175.358,346.784 174.943 C 348.436 174.613,348.729 173.801,347.621 172.623 C 347.135 172.105,346.932 171.622,347.167 171.543 C 347.755 171.345,361.678 171.591,362.317 171.810 M189.598 189.403 C 189.156 189.935,189.167 190.139,189.663 190.635 C 190.472 191.443,191.676 190.936,191.521 189.853 C 191.371 188.803,190.303 188.553,189.598 189.403 M68.812 195.184 C 68.046 195.669,68.294 195.875,70.000 196.173 C 71.517 196.437,72.668 195.958,72.228 195.245 C 71.895 194.707,69.630 194.667,68.812 195.184 M80.656 198.278 C 80.178 198.756,80.398 199.600,81.000 199.600 C 81.330 199.600,81.600 199.341,81.600 199.024 C 81.600 198.355,81.029 197.904,80.656 198.278 M76.000 203.743 C 76.000 206.584,76.496 207.448,77.111 205.682 C 77.582 204.331,77.191 201.530,76.499 201.300 C 76.134 201.178,76.000 201.837,76.000 203.743 M71.733 209.200 C 69.496 209.310,67.534 209.532,67.374 209.693 C 67.055 210.012,70.219 211.577,71.211 211.591 C 71.547 211.596,72.224 211.881,72.714 212.225 C 74.113 213.205,76.172 212.839,76.318 211.585 C 76.598 209.188,76.198 208.980,71.733 209.200 M338.535 209.277 C 339.340 209.570,339.799 209.561,340.115 209.245 C 340.442 208.918,340.140 208.808,338.980 208.832 C 337.418 208.863,337.413 208.868,338.535 209.277 M67.800 218.742 C 64.237 219.603,64.818 219.978,70.185 220.282 C 74.947 220.551,76.214 220.142,74.948 218.743 C 74.101 217.806,71.673 217.806,67.800 218.742 M78.400 225.000 C 78.400 225.330,78.580 225.600,78.800 225.600 C 79.020 225.600,79.200 225.330,79.200 225.000 C 79.200 224.670,79.020 224.400,78.800 224.400 C 78.580 224.400,78.400 224.670,78.400 225.000 M101.757 228.167 C 101.426 229.029,101.887 230.104,102.500 229.900 C 102.775 229.808,103.000 229.313,103.000 228.800 C 103.000 227.704,102.109 227.250,101.757 228.167 M148.100 227.892 C 147.494 228.104,147.436 229.452,148.018 229.811 C 148.525 230.124,149.600 229.298,149.600 228.594 C 149.600 228.004,148.822 227.640,148.100 227.892 M223.895 228.078 C 223.596 228.913,224.357 230.000,225.241 230.000 C 226.430 230.000,226.153 227.850,224.941 227.678 C 224.468 227.610,223.998 227.790,223.895 228.078 M261.716 228.044 C 261.082 228.678,261.530 229.600,262.471 229.600 C 263.049 229.600,263.222 229.371,263.128 228.731 C 262.977 227.709,262.354 227.406,261.716 228.044 M186.144 228.603 C 186.004 228.965,186.153 229.525,186.474 229.846 C 187.275 230.646,188.475 230.128,188.321 229.049 C 188.169 227.986,186.511 227.646,186.144 228.603 M375.600 228.400 C 375.600 228.620,375.330 228.800,375.000 228.800 C 374.670 228.800,374.400 228.620,374.400 228.400 C 374.400 228.180,374.670 228.000,375.000 228.000 C 375.330 228.000,375.600 228.180,375.600 228.400 M324.000 228.800 C 324.000 229.020,324.270 229.200,324.600 229.200 C 324.930 229.200,325.200 229.020,325.200 228.800 C 325.200 228.580,324.930 228.400,324.600 228.400 C 324.270 228.400,324.000 228.580,324.000 228.800 M338.892 228.875 C 339.139 229.617,340.000 229.740,340.000 229.033 C 340.000 228.685,339.715 228.400,339.367 228.400 C 339.018 228.400,338.805 228.614,338.892 228.875 " stroke="none" fill="#040404" fill-rule="evenodd"></path><path id="path2" d="M18.196 10.160 C 13.796 12.313,12.180 13.945,10.036 18.398 L 8.400 21.797 8.400 201.068 L 8.400 380.339 9.423 381.554 C 9.985 382.222,10.546 383.388,10.669 384.145 C 10.967 385.982,13.791 388.687,17.360 390.555 L 20.121 392.000 200.363 392.000 C 303.592 392.000,381.132 391.849,381.839 391.646 C 384.904 390.767,390.767 384.904,391.646 381.839 C 391.849 381.132,392.000 303.592,392.000 200.363 L 392.000 20.121 390.555 17.360 C 388.634 13.688,385.986 10.964,384.036 10.652 C 383.204 10.519,382.139 9.973,381.607 9.408 L 380.661 8.400 201.226 8.400 L 21.792 8.400 18.196 10.160 M380.921 9.828 C 381.447 10.396,382.640 11.029,383.581 11.240 C 385.593 11.692,388.503 14.362,388.958 16.173 C 389.119 16.818,389.690 17.867,390.226 18.504 L 391.200 19.661 391.200 200.817 L 391.200 381.972 390.000 383.339 C 389.340 384.091,388.800 384.832,388.800 384.986 C 388.800 385.394,385.462 388.786,385.053 388.793 C 384.862 388.797,384.091 389.340,383.339 390.000 L 381.972 391.200 200.817 391.200 L 19.661 391.200 18.504 390.226 C 17.867 389.690,16.818 389.119,16.173 388.958 C 14.400 388.512,11.692 385.592,11.257 383.655 C 11.055 382.757,10.419 381.463,9.844 380.779 L 8.797 379.535 8.899 200.658 L 9.000 21.780 9.899 20.638 C 10.393 20.010,10.977 18.830,11.196 18.016 C 11.664 16.275,16.660 11.200,17.905 11.200 C 18.336 11.200,19.316 10.774,20.083 10.254 C 20.849 9.734,21.729 9.208,22.038 9.085 C 22.347 8.963,103.008 8.849,201.284 8.832 L 379.968 8.800 380.921 9.828 M46.000 170.991 C 45.670 171.076,44.720 171.258,43.889 171.394 C 41.720 171.748,42.335 172.207,45.765 172.794 C 50.134 173.541,65.300 172.358,63.000 171.449 C 62.172 171.122,47.061 170.714,46.000 170.991 M347.167 171.543 C 346.932 171.622,347.135 172.105,347.621 172.623 C 348.729 173.801,348.436 174.613,346.784 174.943 C 344.708 175.358,344.078 175.250,343.221 174.330 L 342.411 173.461 339.305 174.570 C 337.597 175.180,335.170 175.913,333.911 176.199 C 332.653 176.486,331.335 177.008,330.983 177.360 C 330.099 178.244,329.657 178.163,329.137 177.022 C 328.516 175.659,328.036 175.533,322.544 175.301 C 316.473 175.044,316.586 174.930,316.280 181.674 C 315.970 188.513,315.463 189.042,313.976 184.076 C 312.872 180.392,311.541 184.756,311.012 193.800 C 310.344 205.201,309.247 207.636,304.092 209.155 C 301.785 209.834,298.218 207.547,295.778 203.822 C 295.189 202.923,294.909 202.818,293.705 203.044 C 291.881 203.386,291.614 202.914,291.606 199.326 C 291.599 196.095,291.117 194.400,290.204 194.400 C 289.865 194.400,289.247 193.838,288.829 193.152 C 288.411 192.465,287.333 191.573,286.432 191.170 C 285.473 190.740,284.640 190.032,284.423 189.461 C 284.035 188.440,281.231 188.175,269.718 188.073 C 268.133 188.059,266.464 187.849,266.010 187.605 C 265.555 187.362,264.981 187.288,264.735 187.440 C 264.454 187.614,264.682 187.926,265.343 188.272 C 266.520 188.888,266.721 190.036,265.788 190.810 C 264.916 191.534,263.200 190.703,263.200 189.557 C 263.200 188.741,263.091 188.715,261.100 189.048 C 259.945 189.242,257.426 189.391,255.501 189.380 C 252.476 189.363,251.972 189.458,251.775 190.079 C 251.199 191.894,248.347 191.349,247.996 189.357 L 247.792 188.200 239.996 188.138 C 235.708 188.104,231.120 187.977,229.800 187.856 C 228.480 187.734,227.715 187.731,228.100 187.847 C 229.016 188.124,229.435 189.835,228.780 190.624 C 228.025 191.534,226.683 191.157,226.064 189.863 C 225.560 188.808,225.415 188.750,224.060 189.061 C 222.199 189.489,217.273 189.474,214.300 189.032 C 212.104 188.705,212.000 188.729,212.000 189.555 C 212.000 190.109,211.641 190.556,211.003 190.799 C 209.577 191.341,208.800 190.904,208.800 189.557 C 208.800 188.921,208.755 188.394,208.700 188.386 C 208.645 188.378,205.360 188.270,201.400 188.145 C 196.548 187.991,194.004 187.755,193.600 187.419 C 193.270 187.146,192.686 186.810,192.303 186.675 C 191.467 186.378,182.935 187.143,181.800 187.616 C 180.006 188.364,178.996 188.450,175.157 188.177 C 171.424 187.913,171.114 187.825,170.780 186.946 C 170.282 185.637,168.566 185.691,167.136 187.062 C 165.722 188.416,155.069 189.286,150.661 188.407 C 147.853 187.848,145.476 187.770,143.946 188.188 C 142.173 188.672,138.422 187.687,137.931 186.608 C 136.949 184.454,126.400 184.675,126.400 186.849 C 126.400 188.047,124.618 188.513,121.200 188.209 C 117.002 187.836,116.410 187.848,114.600 188.343 C 113.720 188.584,110.914 188.785,108.364 188.790 C 103.812 188.800,103.720 188.818,103.273 189.800 C 102.697 191.064,102.192 191.064,101.363 189.800 L 100.708 188.800 89.914 188.800 L 79.121 188.800 77.916 187.510 C 76.816 186.333,76.731 186.045,76.937 184.210 C 77.216 181.720,76.345 176.974,75.443 176.072 C 74.195 174.823,35.376 174.491,34.149 175.718 C 34.007 175.860,33.678 176.926,33.418 178.088 C 33.053 179.719,32.708 180.316,31.901 180.708 C 29.620 181.818,29.065 186.185,29.065 203.000 C 29.066 220.530,29.660 225.390,31.946 226.572 C 32.824 227.026,33.119 227.584,33.527 229.559 C 34.103 232.349,34.413 232.599,37.800 233.010 C 40.137 233.294,41.981 233.974,43.200 235.002 C 44.855 236.398,61.786 236.599,64.302 235.252 C 64.767 235.004,65.519 234.800,65.974 234.800 C 66.428 234.800,66.800 234.633,66.800 234.428 C 66.800 233.833,70.916 233.145,74.084 233.211 C 78.742 233.309,88.128 232.728,88.979 232.289 C 90.233 231.642,99.806 231.819,103.200 232.552 C 104.850 232.908,106.707 233.199,107.326 233.200 C 108.966 233.200,110.000 233.889,110.000 234.980 C 110.000 236.180,113.216 239.101,114.729 239.276 C 115.809 239.401,116.028 239.828,117.147 243.991 C 117.563 245.541,118.974 245.988,123.471 245.994 C 128.347 246.001,128.587 245.839,128.915 242.327 C 129.315 238.042,129.865 237.448,131.253 239.800 C 132.253 241.495,132.485 241.514,134.342 240.053 C 135.144 239.422,136.849 238.237,138.131 237.421 C 139.667 236.442,140.387 235.743,140.243 235.368 C 140.080 234.943,140.382 234.800,141.444 234.800 C 142.225 234.800,143.974 234.375,145.332 233.856 C 147.747 232.932,149.374 232.429,152.600 231.611 C 154.861 231.037,158.023 231.127,159.200 231.800 C 162.857 233.890,170.428 231.780,171.397 228.400 C 172.568 224.313,177.095 224.401,183.018 228.628 C 184.458 229.655,185.747 230.386,185.883 230.251 C 186.018 230.116,186.364 230.342,186.652 230.753 C 187.217 231.560,188.800 232.157,188.800 231.563 C 188.800 231.363,189.354 231.200,190.032 231.200 C 191.184 231.200,191.247 231.275,191.008 232.363 C 190.697 233.778,192.462 234.447,194.077 233.527 C 194.734 233.152,196.842 233.000,201.400 233.000 C 205.958 233.000,208.066 233.152,208.723 233.527 C 210.326 234.440,212.018 233.791,211.734 232.372 C 211.469 231.047,212.883 230.596,213.364 231.851 C 213.626 232.532,213.670 232.530,218.144 231.608 C 219.594 231.310,220.780 231.352,222.810 231.775 C 225.534 232.343,227.200 232.246,227.200 231.520 C 227.200 230.746,228.184 231.486,228.411 232.430 C 228.615 233.279,228.840 233.387,230.222 233.292 C 236.956 232.830,245.452 233.035,246.403 233.682 C 247.316 234.304,247.638 234.314,250.003 233.797 C 257.165 232.230,257.808 232.184,261.923 232.958 C 266.608 233.839,267.143 233.856,270.200 233.214 C 273.651 232.490,281.876 232.838,283.295 233.768 C 284.312 234.434,284.547 234.428,288.621 233.633 C 293.879 232.605,294.332 232.605,298.872 233.616 C 302.316 234.383,302.634 234.393,304.155 233.785 C 306.685 232.772,312.061 232.578,315.917 233.359 C 319.369 234.059,320.215 233.923,321.279 232.497 C 321.568 232.110,322.391 231.772,323.126 231.738 C 323.856 231.704,324.756 231.403,325.126 231.070 C 327.994 228.488,332.860 228.299,336.991 230.610 C 339.783 232.171,340.608 232.298,341.678 231.329 C 342.703 230.401,343.629 231.222,342.890 232.405 C 341.932 233.939,346.970 235.290,348.748 233.976 C 350.229 232.881,361.808 232.720,363.414 233.772 C 365.304 235.011,368.800 234.004,368.800 232.220 C 368.800 231.158,370.441 230.696,371.001 231.601 C 371.166 231.868,371.508 231.863,372.024 231.587 C 372.932 231.101,373.052 230.400,372.227 230.400 C 370.616 230.400,371.247 227.765,372.916 227.524 C 373.492 227.441,373.895 226.973,374.145 226.100 C 374.554 224.665,377.200 224.059,377.200 225.400 C 377.200 225.730,377.380 226.000,377.600 226.000 C 377.820 226.000,378.000 225.741,378.000 225.424 C 378.000 225.107,377.820 224.736,377.600 224.600 C 376.858 224.142,377.193 222.835,378.356 221.645 C 380.460 219.492,380.610 209.081,378.557 207.735 C 377.473 207.025,377.337 206.157,378.164 205.231 C 378.652 204.685,378.593 204.089,377.725 200.800 C 376.863 197.531,376.732 196.233,376.791 191.508 C 376.859 186.028,376.857 186.015,375.788 185.024 C 375.198 184.478,374.492 183.379,374.218 182.582 C 373.944 181.784,373.289 180.920,372.760 180.657 C 371.662 180.111,371.300 178.643,372.044 177.747 C 372.454 177.253,372.441 177.072,371.974 176.782 C 371.627 176.567,371.347 176.579,371.267 176.813 C 370.893 177.897,369.100 177.199,369.328 176.058 C 369.721 174.094,368.125 173.375,366.188 174.645 C 364.165 175.970,361.409 174.651,362.386 172.825 C 362.731 172.181,362.715 171.947,362.317 171.810 C 361.678 171.591,347.755 171.345,347.167 171.543 M359.835 174.816 C 360.820 175.265,362.649 175.821,363.898 176.052 C 365.225 176.297,366.647 176.873,367.316 177.436 C 367.946 177.966,368.720 178.400,369.037 178.400 C 369.353 178.400,369.948 178.954,370.360 179.630 C 370.771 180.307,371.498 181.134,371.976 181.468 C 372.453 181.802,373.288 183.004,373.831 184.138 C 374.374 185.272,375.082 186.650,375.403 187.200 C 377.625 191.000,374.986 194.782,370.064 194.851 C 366.572 194.900,364.809 193.258,364.794 189.940 C 364.786 188.282,364.477 187.791,363.200 187.408 C 362.650 187.243,361.780 186.724,361.268 186.254 C 359.814 184.923,351.391 184.959,350.500 186.300 C 350.171 186.795,349.714 187.200,349.483 187.200 C 348.789 187.200,347.600 188.475,347.600 189.219 C 347.600 189.639,347.176 190.020,346.526 190.183 L 345.452 190.452 346.426 190.936 C 346.975 191.209,347.461 191.852,347.540 192.410 C 347.728 193.733,348.226 193.987,350.646 193.994 C 352.129 193.998,352.994 194.237,353.788 194.862 C 354.948 195.775,358.542 196.783,360.671 196.794 C 361.616 196.798,362.194 197.122,362.924 198.055 C 363.815 199.194,364.174 199.334,366.827 199.577 C 368.775 199.755,369.810 200.030,369.933 200.400 C 370.035 200.705,370.562 201.349,371.105 201.832 C 375.001 205.297,375.907 206.479,377.006 209.536 C 378.707 214.260,377.586 221.261,374.734 223.729 C 374.180 224.208,373.425 225.095,373.055 225.700 C 372.684 226.305,372.128 226.800,371.818 226.800 C 371.508 226.800,370.873 227.336,370.407 227.991 C 369.855 228.766,368.903 229.380,367.679 229.752 C 366.646 230.066,364.990 230.696,364.000 231.152 C 361.158 232.463,350.926 232.396,347.688 231.046 C 346.430 230.521,344.804 229.964,344.076 229.809 C 343.333 229.650,342.207 228.928,341.512 228.163 C 340.830 227.413,340.068 226.800,339.818 226.800 C 339.225 226.800,335.600 222.954,335.600 222.324 C 335.600 222.057,335.063 221.284,334.406 220.606 C 333.137 219.297,332.400 216.632,332.400 213.355 C 332.400 210.702,333.366 210.243,338.440 210.488 C 343.584 210.735,344.048 211.110,344.373 215.273 L 344.600 218.177 346.020 218.589 C 346.800 218.815,347.950 219.405,348.574 219.900 C 349.634 220.741,350.093 220.800,355.594 220.800 C 362.981 220.800,363.744 220.565,364.417 218.077 C 364.696 217.045,365.063 216.018,365.232 215.795 C 365.801 215.047,364.655 212.294,363.499 211.631 C 362.893 211.284,362.296 210.685,362.172 210.300 C 361.818 209.204,360.894 208.929,356.600 208.639 C 353.185 208.409,352.378 208.216,351.079 207.316 C 350.097 206.635,348.684 206.142,347.094 205.925 C 345.410 205.695,344.310 205.294,343.616 204.658 C 343.057 204.146,342.026 203.502,341.324 203.225 C 340.622 202.949,339.080 201.705,337.896 200.461 L 335.743 198.200 335.276 194.200 C 334.961 191.509,334.935 189.676,335.195 188.600 C 335.407 187.720,335.585 186.232,335.590 185.293 C 335.608 182.110,341.700 176.940,346.471 176.058 C 347.712 175.828,349.416 175.271,350.258 174.820 C 352.398 173.673,357.321 173.671,359.835 174.816 M73.740 176.377 C 74.959 176.841,75.194 177.538,75.297 180.986 C 75.419 185.129,75.013 185.365,66.743 185.951 C 56.876 186.650,55.753 186.745,51.103 187.276 L 46.806 187.767 46.850 191.884 C 46.874 194.148,47.007 196.001,47.147 196.001 C 47.286 196.002,48.930 196.181,50.800 196.399 C 52.670 196.618,58.019 196.968,62.687 197.177 C 73.023 197.641,74.395 198.281,74.399 202.641 C 74.402 206.912,72.610 207.817,63.490 208.150 C 59.480 208.296,54.110 208.615,51.556 208.859 L 46.913 209.302 46.656 212.912 C 46.317 217.696,46.332 220.388,46.700 220.451 C 47.956 220.665,50.606 220.790,62.376 221.194 C 77.322 221.707,77.200 221.682,77.200 224.186 C 77.200 227.089,78.729 228.079,79.846 225.900 C 80.213 225.185,80.937 224.091,81.456 223.469 C 81.975 222.847,82.400 222.006,82.400 221.600 C 82.400 221.194,82.895 220.277,83.500 219.563 C 84.824 218.001,86.110 215.963,87.137 213.800 C 87.555 212.920,88.280 211.857,88.748 211.438 C 89.856 210.447,89.834 209.045,88.700 208.302 C 88.205 207.978,87.549 207.012,87.243 206.156 C 86.937 205.300,86.352 204.171,85.943 203.646 C 85.534 203.121,85.200 202.358,85.200 201.949 C 85.200 201.541,84.664 200.728,84.008 200.144 C 83.353 199.560,82.699 198.704,82.555 198.241 C 82.411 197.779,81.688 196.724,80.947 195.899 C 79.532 194.322,79.262 192.942,79.990 191.026 C 80.888 188.663,89.463 189.780,90.818 192.436 C 91.253 193.287,92.133 194.255,92.776 194.587 C 93.418 194.919,94.045 195.508,94.168 195.896 C 94.687 197.519,97.236 199.008,97.953 198.106 C 98.309 197.659,99.008 197.085,99.506 196.830 C 100.004 196.574,100.634 195.862,100.906 195.246 C 101.178 194.630,102.437 193.198,103.704 192.063 L 106.008 190.000 109.924 190.000 C 112.436 190.000,114.012 190.172,114.320 190.480 C 115.034 191.194,114.929 194.595,114.174 195.222 C 113.829 195.508,113.263 196.295,112.915 196.971 C 112.568 197.647,111.770 198.826,111.142 199.591 C 110.514 200.356,110.000 201.210,110.000 201.488 C 110.000 201.766,109.480 202.457,108.845 203.023 C 108.209 203.589,107.585 204.576,107.457 205.217 C 107.329 205.857,106.766 207.073,106.207 207.917 C 105.131 209.544,105.322 211.654,106.590 212.141 C 106.884 212.254,107.249 212.912,107.401 213.604 C 107.553 214.296,108.187 215.317,108.810 215.872 C 109.525 216.509,110.041 217.461,110.208 218.450 C 110.408 219.634,110.756 220.164,111.631 220.616 C 112.267 220.945,112.899 221.655,113.034 222.193 C 113.169 222.731,113.637 223.285,114.074 223.423 C 114.511 223.562,115.050 224.198,115.273 224.838 C 116.104 227.222,116.677 226.185,116.674 222.300 C 116.659 198.444,117.379 191.403,119.978 190.012 C 121.421 189.240,126.748 189.501,127.891 190.400 C 129.193 191.425,129.598 191.400,130.710 190.226 C 132.424 188.418,142.128 188.486,144.140 190.320 C 144.613 190.751,145.810 191.471,146.800 191.919 C 149.437 193.113,152.225 195.939,152.567 197.767 C 152.837 199.205,153.786 199.958,155.984 200.479 C 156.491 200.599,158.350 196.130,158.384 194.711 C 158.481 190.580,164.438 187.827,167.709 190.400 C 169.025 191.435,169.436 191.409,170.873 190.200 C 173.075 188.347,178.970 188.977,181.591 191.344 C 182.477 192.145,183.382 192.800,183.601 192.800 C 184.324 192.800,184.017 194.064,183.000 195.273 C 182.263 196.149,182.000 196.927,182.000 198.231 C 182.000 200.678,183.169 200.458,183.813 197.889 C 184.169 196.473,188.594 192.505,190.193 192.169 C 190.857 192.030,191.875 191.470,192.455 190.926 C 195.072 188.471,206.102 188.496,208.040 190.960 C 208.627 191.707,209.233 192.000,210.185 192.000 C 211.145 192.000,212.050 192.444,213.449 193.600 C 214.514 194.480,215.502 195.200,215.644 195.200 C 215.786 195.200,216.145 195.785,216.440 196.500 C 216.736 197.215,217.603 198.374,218.368 199.075 C 220.062 200.629,220.288 202.020,220.000 209.108 C 219.862 212.512,219.641 214.129,219.284 214.349 C 218.908 214.581,218.873 214.941,219.157 215.686 C 219.991 217.880,219.121 222.540,217.586 224.099 C 216.824 224.873,216.020 225.697,215.800 225.930 C 214.424 227.385,211.652 229.542,210.827 229.798 C 210.291 229.964,209.050 230.528,208.067 231.050 C 205.122 232.616,196.870 232.472,193.736 230.800 C 192.499 230.140,191.252 229.600,190.964 229.600 C 190.676 229.600,189.960 228.970,189.373 228.200 C 188.786 227.430,188.066 226.800,187.773 226.800 C 186.928 226.800,184.831 224.381,183.785 222.200 C 183.257 221.100,182.429 219.711,181.945 219.114 C 180.872 217.791,179.917 204.377,180.763 202.521 C 181.474 200.961,181.020 200.797,176.277 200.902 L 171.800 201.000 171.733 203.279 C 171.696 204.533,171.473 206.513,171.238 207.679 C 170.826 209.731,170.236 216.147,169.739 224.000 C 169.366 229.885,167.928 231.492,163.372 231.114 C 160.440 230.871,159.221 229.713,158.765 226.737 C 158.317 223.809,156.749 218.000,156.407 218.000 C 156.254 218.000,155.922 218.453,155.670 219.006 C 155.418 219.559,154.764 220.216,154.217 220.465 C 153.645 220.726,153.034 221.492,152.776 222.272 C 152.246 223.878,150.316 225.846,148.486 226.647 C 147.764 226.963,146.972 227.662,146.727 228.201 C 146.447 228.814,145.595 229.436,144.441 229.869 C 143.428 230.249,142.150 230.877,141.600 231.265 C 139.826 232.517,132.681 232.758,131.139 231.618 C 129.430 230.355,129.312 230.633,128.535 237.756 C 127.715 245.274,127.761 245.200,123.825 245.200 C 119.087 245.200,118.388 244.277,117.617 237.000 C 117.100 232.112,116.446 230.533,115.213 231.193 C 112.092 232.863,105.527 230.994,104.000 228.000 C 103.536 227.091,102.847 226.398,102.261 226.251 C 101.607 226.087,101.081 225.487,100.652 224.413 C 100.222 223.339,99.697 222.739,99.042 222.575 C 98.460 222.429,97.972 221.943,97.827 221.365 C 97.533 220.195,96.969 220.111,96.685 221.195 C 96.571 221.633,96.010 222.168,95.439 222.385 C 94.867 222.602,94.400 223.042,94.400 223.363 C 94.400 223.683,93.856 224.333,93.191 224.806 C 92.526 225.280,91.621 226.375,91.180 227.240 C 89.365 230.798,83.613 232.340,78.889 230.536 C 77.219 229.899,77.071 229.906,75.076 230.733 C 72.430 231.829,40.374 232.184,37.438 231.150 C 34.004 229.940,34.200 231.618,34.200 203.453 C 34.200 175.658,34.103 176.635,36.892 176.290 C 39.726 175.939,72.794 176.017,73.740 176.377 M326.783 177.019 C 328.167 178.426,328.571 184.519,328.452 202.200 L 328.345 218.200 327.326 219.271 C 326.697 219.932,326.087 221.292,325.733 222.824 C 325.069 225.699,322.906 228.094,319.400 229.840 C 318.300 230.388,316.950 231.095,316.400 231.412 C 314.988 232.226,306.203 232.222,304.800 231.408 C 304.250 231.088,302.990 230.451,302.000 229.991 C 299.531 228.845,295.743 224.815,295.184 222.742 L 294.747 221.118 293.274 222.821 C 292.463 223.757,291.641 224.811,291.446 225.162 C 290.648 226.601,287.283 229.334,285.600 229.910 C 284.610 230.248,283.371 230.857,282.846 231.263 C 281.060 232.643,271.277 232.334,268.200 230.800 C 266.880 230.142,265.580 229.602,265.310 229.602 C 265.041 229.601,264.540 229.058,264.198 228.396 C 263.856 227.734,263.070 226.969,262.453 226.696 C 259.854 225.547,258.346 223.114,258.111 219.691 C 257.855 215.959,258.227 215.376,261.105 215.000 C 265.327 214.447,266.068 213.094,262.884 211.749 C 261.194 211.035,260.907 210.732,260.446 209.170 C 260.159 208.197,259.536 206.979,259.062 206.465 C 257.918 205.225,257.970 199.995,259.141 198.400 C 259.545 197.850,260.193 196.788,260.580 196.039 C 261.461 194.334,263.296 192.754,265.164 192.090 C 265.954 191.809,266.885 191.205,267.233 190.748 C 268.827 188.655,281.036 188.620,283.321 190.701 C 283.805 191.141,284.830 191.703,285.600 191.950 C 288.288 192.810,290.495 196.006,290.709 199.348 C 290.934 202.858,290.482 203.503,286.900 204.796 C 284.685 205.595,283.487 206.796,284.900 206.802 C 286.377 206.809,288.319 207.702,288.797 208.594 C 289.089 209.140,289.649 209.688,290.040 209.813 C 290.432 209.937,291.078 210.695,291.476 211.498 C 292.391 213.341,294.041 213.984,295.558 213.089 C 301.130 209.797,304.000 211.382,307.400 219.630 C 307.814 220.635,307.906 220.647,313.492 220.420 C 313.763 220.409,314.092 219.973,314.223 219.450 C 314.354 218.928,314.869 218.315,315.367 218.088 C 316.470 217.585,316.800 213.241,316.800 199.201 C 316.800 185.487,317.213 177.244,317.937 176.520 C 318.891 175.566,325.734 175.952,326.783 177.019 M191.521 189.853 C 191.676 190.936,190.472 191.443,189.663 190.635 C 189.167 190.139,189.156 189.935,189.598 189.403 C 190.303 188.553,191.371 188.803,191.521 189.853 M245.988 190.328 C 246.663 190.827,247.976 191.562,248.907 191.961 C 251.726 193.172,253.528 195.046,253.834 197.088 C 253.981 198.071,254.540 199.381,255.091 200.035 C 256.854 202.131,255.013 204.090,249.700 205.769 C 248.337 206.200,248.617 206.669,250.409 206.955 C 252.240 207.248,256.600 211.263,257.055 213.077 C 257.581 215.174,256.601 223.667,255.767 224.240 C 255.345 224.530,254.820 224.978,254.600 225.235 C 252.622 227.549,249.972 229.671,248.600 230.041 C 247.720 230.279,246.439 230.817,245.753 231.237 C 243.505 232.612,234.517 232.331,231.410 230.787 C 230.096 230.134,228.792 229.600,228.514 229.600 C 228.235 229.600,227.601 228.966,227.104 228.192 C 226.607 227.418,225.810 226.682,225.333 226.557 C 223.875 226.175,221.337 221.764,221.100 219.200 C 220.789 215.824,221.130 215.310,223.878 215.008 C 226.845 214.683,228.000 214.201,228.000 213.291 C 228.000 212.424,224.905 211.415,224.155 212.037 C 222.912 213.069,222.076 211.356,222.332 208.301 C 222.364 207.917,222.033 207.017,221.597 206.301 C 220.314 204.198,220.483 200.508,221.946 198.668 C 222.577 197.874,223.316 196.686,223.589 196.026 C 223.862 195.366,224.431 194.717,224.854 194.583 C 225.276 194.449,225.896 193.920,226.232 193.408 C 226.567 192.895,227.269 192.369,227.790 192.238 C 228.312 192.107,229.271 191.552,229.923 191.003 C 232.375 188.940,243.480 188.474,245.988 190.328 M72.228 195.245 C 72.668 195.958,71.517 196.437,70.000 196.173 C 68.294 195.875,68.046 195.669,68.812 195.184 C 69.630 194.667,71.895 194.707,72.228 195.245 M81.600 199.024 C 81.600 199.341,81.330 199.600,81.000 199.600 C 80.398 199.600,80.178 198.756,80.656 198.278 C 81.029 197.904,81.600 198.355,81.600 199.024 M134.358 198.600 C 134.051 198.980,133.215 199.843,132.500 200.519 C 131.785 201.194,131.200 201.988,131.200 202.282 C 131.200 202.576,130.770 203.013,130.245 203.252 C 128.149 204.207,128.166 217.227,130.264 218.025 C 130.784 218.222,131.406 218.814,131.645 219.339 C 132.011 220.143,132.465 220.335,134.499 220.547 C 142.676 221.402,144.090 219.147,143.384 206.380 C 143.097 201.202,143.094 201.189,142.048 200.950 C 141.472 200.819,140.535 200.168,139.968 199.504 C 138.666 197.980,135.297 197.438,134.358 198.600 M242.485 201.434 C 241.877 202.520,242.369 203.600,243.472 203.600 C 244.335 203.600,244.436 203.446,244.325 202.303 C 244.184 200.842,243.102 200.331,242.485 201.434 M77.249 203.015 C 77.519 204.679,76.955 206.943,76.361 206.576 C 75.772 206.212,75.905 201.102,76.499 201.300 C 76.773 201.391,77.110 202.163,77.249 203.015 M279.849 202.452 C 279.057 203.377,279.469 203.981,280.900 203.994 C 281.663 204.001,281.709 203.848,281.348 202.500 C 281.048 201.381,280.773 201.372,279.849 202.452 M76.318 211.585 C 76.172 212.839,74.113 213.205,72.714 212.225 C 72.224 211.881,71.547 211.596,71.211 211.591 C 70.219 211.577,67.055 210.012,67.374 209.693 C 67.534 209.532,69.496 209.310,71.733 209.200 C 76.198 208.980,76.598 209.188,76.318 211.585 M340.115 209.245 C 339.799 209.561,339.340 209.570,338.535 209.277 C 337.413 208.868,337.418 208.863,338.980 208.832 C 340.140 208.808,340.442 208.918,340.115 209.245 M233.121 217.500 C 233.321 219.977,233.743 220.566,234.879 219.958 C 235.571 219.588,235.567 219.504,234.801 218.001 C 234.360 217.138,234.000 216.155,234.000 215.816 C 234.000 215.477,233.760 215.200,233.467 215.200 C 233.063 215.200,232.979 215.758,233.121 217.500 M242.800 218.176 C 242.800 219.023,243.477 219.297,243.758 218.565 C 244.100 217.673,244.073 217.600,243.400 217.600 C 243.070 217.600,242.800 217.859,242.800 218.176 M74.948 218.743 C 76.214 220.142,74.947 220.551,70.185 220.282 C 64.818 219.978,64.237 219.603,67.800 218.742 C 71.673 217.806,74.101 217.806,74.948 218.743 M205.280 218.480 C 204.486 219.274,204.735 220.000,205.800 220.000 C 206.828 220.000,206.978 219.730,206.557 218.633 C 206.267 217.876,205.925 217.835,205.280 218.480 M270.667 218.267 C 269.948 218.985,270.419 220.400,271.376 220.400 C 272.604 220.400,272.961 219.848,272.404 218.808 C 271.975 218.005,271.177 217.756,270.667 218.267 M280.241 218.636 C 279.938 219.427,280.266 220.000,281.024 220.000 C 281.647 220.000,281.738 219.625,281.357 218.633 C 281.046 217.822,280.553 217.824,280.241 218.636 M79.200 225.000 C 79.200 225.330,79.020 225.600,78.800 225.600 C 78.580 225.600,78.400 225.330,78.400 225.000 C 78.400 224.670,78.580 224.400,78.800 224.400 C 79.020 224.400,79.200 224.670,79.200 225.000 M103.000 228.800 C 103.000 229.313,102.775 229.808,102.500 229.900 C 101.887 230.104,101.426 229.029,101.757 228.167 C 102.109 227.250,103.000 227.704,103.000 228.800 M149.600 228.594 C 149.600 229.298,148.525 230.124,148.018 229.811 C 147.436 229.452,147.494 228.104,148.100 227.892 C 148.822 227.640,149.600 228.004,149.600 228.594 M225.927 228.900 C 226.028 229.781,225.891 230.000,225.241 230.000 C 224.357 230.000,223.596 228.913,223.895 228.078 C 224.247 227.092,225.790 227.717,225.927 228.900 M263.128 228.731 C 263.222 229.371,263.049 229.600,262.471 229.600 C 261.530 229.600,261.082 228.678,261.716 228.044 C 262.354 227.406,262.977 227.709,263.128 228.731 M188.321 229.049 C 188.475 230.128,187.275 230.646,186.474 229.846 C 185.659 229.031,186.179 227.913,187.298 228.072 C 187.859 228.152,188.246 228.521,188.321 229.049 M374.400 228.400 C 374.400 228.620,374.670 228.800,375.000 228.800 C 375.330 228.800,375.600 228.620,375.600 228.400 C 375.600 228.180,375.330 228.000,375.000 228.000 C 374.670 228.000,374.400 228.180,374.400 228.400 M325.200 228.800 C 325.200 229.020,324.930 229.200,324.600 229.200 C 324.270 229.200,324.000 229.020,324.000 228.800 C 324.000 228.580,324.270 228.400,324.600 228.400 C 324.930 228.400,325.200 228.580,325.200 228.800 M340.000 229.033 C 340.000 229.740,339.139 229.617,338.892 228.875 C 338.805 228.614,339.018 228.400,339.367 228.400 C 339.715 228.400,340.000 228.685,340.000 229.033 " stroke="none" fill="#57572d" fill-rule="evenodd"></path><path id="path3" d="M20.434 7.634 C 19.463 7.825,17.982 8.435,17.143 8.990 C 16.304 9.546,15.426 10.000,15.191 10.000 C 14.466 10.000,10.777 13.692,10.011 15.184 C 9.611 15.963,8.860 17.410,8.342 18.400 L 7.400 20.200 7.400 200.600 L 7.400 381.000 9.041 384.073 C 11.796 389.233,15.444 392.123,20.104 392.837 C 25.269 393.628,382.400 393.109,383.864 392.308 C 384.559 391.928,385.189 391.478,385.264 391.308 C 385.339 391.139,386.163 390.503,387.097 389.897 C 388.030 389.290,389.290 388.030,389.897 387.097 C 390.503 386.163,391.139 385.339,391.308 385.264 C 391.478 385.189,391.928 384.559,392.308 383.864 C 393.109 382.400,393.628 25.269,392.837 20.104 C 392.094 15.259,389.120 11.637,383.646 8.912 L 380.206 7.200 201.203 7.244 C 102.109 7.268,21.412 7.442,20.434 7.634 M381.607 9.408 C 382.139 9.973,383.204 10.519,384.036 10.652 C 385.986 10.964,388.634 13.688,390.555 17.360 L 392.000 20.121 392.000 200.363 C 392.000 303.592,391.849 381.132,391.646 381.839 C 390.767 384.904,384.904 390.767,381.839 391.646 C 381.132 391.849,303.592 392.000,200.363 392.000 L 20.121 392.000 17.360 390.555 C 13.791 388.687,10.967 385.982,10.669 384.145 C 10.546 383.388,9.985 382.222,9.423 381.554 L 8.400 380.339 8.400 201.068 L 8.400 21.797 10.036 18.398 C 12.180 13.945,13.796 12.313,18.196 10.160 L 21.792 8.400 201.226 8.400 L 380.661 8.400 381.607 9.408 M350.258 174.820 C 349.416 175.271,347.712 175.828,346.471 176.058 C 341.700 176.940,335.608 182.110,335.590 185.293 C 335.585 186.232,335.407 187.720,335.195 188.600 C 334.935 189.676,334.961 191.509,335.276 194.200 L 335.743 198.200 337.896 200.461 C 339.080 201.705,340.622 202.949,341.324 203.225 C 342.026 203.502,343.057 204.146,343.616 204.658 C 344.310 205.294,345.410 205.695,347.094 205.925 C 348.684 206.142,350.097 206.635,351.079 207.316 C 352.378 208.216,353.185 208.409,356.600 208.639 C 360.894 208.929,361.818 209.204,362.172 210.300 C 362.296 210.685,362.893 211.284,363.499 211.631 C 364.655 212.294,365.801 215.047,365.232 215.795 C 365.063 216.018,364.696 217.045,364.417 218.077 C 363.744 220.565,362.981 220.800,355.594 220.800 C 350.093 220.800,349.634 220.741,348.574 219.900 C 347.950 219.405,346.800 218.815,346.020 218.589 L 344.600 218.177 344.373 215.273 C 344.048 211.110,343.584 210.735,338.440 210.488 C 333.366 210.243,332.400 210.702,332.400 213.355 C 332.400 216.632,333.137 219.297,334.406 220.606 C 335.063 221.284,335.600 222.057,335.600 222.324 C 335.600 222.954,339.225 226.800,339.818 226.800 C 340.068 226.800,340.830 227.413,341.512 228.163 C 342.207 228.928,343.333 229.650,344.076 229.809 C 344.804 229.964,346.430 230.521,347.688 231.046 C 350.926 232.396,361.158 232.463,364.000 231.152 C 364.990 230.696,366.646 230.066,367.679 229.752 C 368.903 229.380,369.855 228.766,370.407 227.991 C 370.873 227.336,371.508 226.800,371.818 226.800 C 372.128 226.800,372.684 226.305,373.055 225.700 C 373.425 225.095,374.180 224.208,374.734 223.729 C 377.586 221.261,378.707 214.260,377.006 209.536 C 375.907 206.479,375.001 205.297,371.105 201.832 C 370.562 201.349,370.035 200.705,369.933 200.400 C 369.810 200.030,368.775 199.755,366.827 199.577 C 364.174 199.334,363.815 199.194,362.924 198.055 C 362.194 197.122,361.616 196.798,360.671 196.794 C 358.542 196.783,354.948 195.775,353.788 194.862 C 352.994 194.237,352.129 193.998,350.646 193.994 C 348.226 193.987,347.728 193.733,347.540 192.410 C 347.461 191.852,346.975 191.209,346.426 190.936 L 345.452 190.452 346.526 190.183 C 347.176 190.020,347.600 189.639,347.600 189.219 C 347.600 188.475,348.789 187.200,349.483 187.200 C 349.714 187.200,350.171 186.795,350.500 186.300 C 351.391 184.959,359.814 184.923,361.268 186.254 C 361.780 186.724,362.650 187.243,363.200 187.408 C 364.477 187.791,364.786 188.282,364.794 189.940 C 364.809 193.258,366.572 194.900,370.064 194.851 C 374.986 194.782,377.625 191.000,375.403 187.200 C 375.082 186.650,374.374 185.272,373.831 184.138 C 373.288 183.004,372.453 181.802,371.976 181.468 C 371.498 181.134,370.771 180.307,370.360 179.630 C 369.948 178.954,369.353 178.400,369.037 178.400 C 368.720 178.400,367.946 177.966,367.316 177.436 C 366.647 176.873,365.225 176.297,363.898 176.052 C 362.649 175.821,360.820 175.265,359.835 174.816 C 357.321 173.671,352.398 173.673,350.258 174.820 M36.892 176.290 C 34.103 176.635,34.200 175.658,34.200 203.453 C 34.200 231.618,34.004 229.940,37.438 231.150 C 40.374 232.184,72.430 231.829,75.076 230.733 C 77.071 229.906,77.219 229.899,78.889 230.536 C 83.613 232.340,89.365 230.798,91.180 227.240 C 91.621 226.375,92.526 225.280,93.191 224.806 C 93.856 224.333,94.400 223.683,94.400 223.363 C 94.400 223.042,94.867 222.602,95.439 222.385 C 96.010 222.168,96.571 221.633,96.685 221.195 C 96.969 220.111,97.533 220.195,97.827 221.365 C 97.972 221.943,98.460 222.429,99.042 222.575 C 99.697 222.739,100.222 223.339,100.652 224.413 C 101.081 225.487,101.607 226.087,102.261 226.251 C 102.847 226.398,103.536 227.091,104.000 228.000 C 105.527 230.994,112.092 232.863,115.213 231.193 C 116.446 230.533,117.100 232.112,117.617 237.000 C 118.388 244.277,119.087 245.200,123.825 245.200 C 127.761 245.200,127.715 245.274,128.535 237.756 C 129.312 230.633,129.430 230.355,131.139 231.618 C 132.681 232.758,139.826 232.517,141.600 231.265 C 142.150 230.877,143.428 230.249,144.441 229.869 C 145.595 229.436,146.447 228.814,146.727 228.201 C 146.972 227.662,147.764 226.963,148.486 226.647 C 150.316 225.846,152.246 223.878,152.776 222.272 C 153.034 221.492,153.645 220.726,154.217 220.465 C 154.764 220.216,155.418 219.559,155.670 219.006 C 155.922 218.453,156.254 218.000,156.407 218.000 C 156.749 218.000,158.317 223.809,158.765 226.737 C 159.221 229.713,160.440 230.871,163.372 231.114 C 167.928 231.492,169.366 229.885,169.739 224.000 C 170.236 216.147,170.826 209.731,171.238 207.679 C 171.473 206.513,171.696 204.533,171.733 203.279 L 171.800 201.000 176.277 200.902 C 181.020 200.797,181.474 200.961,180.763 202.521 C 179.917 204.377,180.872 217.791,181.945 219.114 C 182.429 219.711,183.257 221.100,183.785 222.200 C 184.831 224.381,186.928 226.800,187.773 226.800 C 188.066 226.800,188.786 227.430,189.373 228.200 C 189.960 228.970,190.676 229.600,190.964 229.600 C 191.252 229.600,192.499 230.140,193.736 230.800 C 196.870 232.472,205.122 232.616,208.067 231.050 C 209.050 230.528,210.291 229.964,210.827 229.798 C 211.652 229.542,214.424 227.385,215.800 225.930 C 216.020 225.697,216.824 224.873,217.586 224.099 C 219.121 222.540,219.991 217.880,219.157 215.686 C 218.873 214.941,218.908 214.581,219.284 214.349 C 219.641 214.129,219.862 212.512,220.000 209.108 C 220.288 202.020,220.062 200.629,218.368 199.075 C 217.603 198.374,216.736 197.215,216.440 196.500 C 216.145 195.785,215.786 195.200,215.644 195.200 C 215.502 195.200,214.514 194.480,213.449 193.600 C 212.050 192.444,211.145 192.000,210.185 192.000 C 209.233 192.000,208.627 191.707,208.040 190.960 C 206.102 188.496,195.072 188.471,192.455 190.926 C 191.875 191.470,190.857 192.030,190.193 192.169 C 188.594 192.505,184.169 196.473,183.813 197.889 C 183.169 200.458,182.000 200.678,182.000 198.231 C 182.000 196.927,182.263 196.149,183.000 195.273 C 184.017 194.064,184.324 192.800,183.601 192.800 C 183.382 192.800,182.477 192.145,181.591 191.344 C 178.970 188.977,173.075 188.347,170.873 190.200 C 169.436 191.409,169.025 191.435,167.709 190.400 C 164.438 187.827,158.481 190.580,158.384 194.711 C 158.350 196.130,156.491 200.599,155.984 200.479 C 153.786 199.958,152.837 199.205,152.567 197.767 C 152.225 195.939,149.437 193.113,146.800 191.919 C 145.810 191.471,144.613 190.751,144.140 190.320 C 142.128 188.486,132.424 188.418,130.710 190.226 C 129.598 191.400,129.193 191.425,127.891 190.400 C 126.748 189.501,121.421 189.240,119.978 190.012 C 117.379 191.403,116.659 198.444,116.674 222.300 C 116.677 226.185,116.104 227.222,115.273 224.838 C 115.050 224.198,114.511 223.562,114.074 223.423 C 113.637 223.285,113.169 222.731,113.034 222.193 C 112.899 221.655,112.267 220.945,111.631 220.616 C 110.756 220.164,110.408 219.634,110.208 218.450 C 110.041 217.461,109.525 216.509,108.810 215.872 C 108.187 215.317,107.553 214.296,107.401 213.604 C 107.249 212.912,106.884 212.254,106.590 212.141 C 105.322 211.654,105.131 209.544,106.207 207.917 C 106.766 207.073,107.329 205.857,107.457 205.217 C 107.585 204.576,108.209 203.589,108.845 203.023 C 109.480 202.457,110.000 201.766,110.000 201.488 C 110.000 201.210,110.514 200.356,111.142 199.591 C 111.770 198.826,112.568 197.647,112.915 196.971 C 113.263 196.295,113.829 195.508,114.174 195.222 C 114.929 194.595,115.034 191.194,114.320 190.480 C 114.012 190.172,112.436 190.000,109.924 190.000 L 106.008 190.000 103.704 192.063 C 102.437 193.198,101.178 194.630,100.906 195.246 C 100.634 195.862,100.004 196.574,99.506 196.830 C 99.008 197.085,98.309 197.659,97.953 198.106 C 97.236 199.008,94.687 197.519,94.168 195.896 C 94.045 195.508,93.418 194.919,92.776 194.587 C 92.133 194.255,91.253 193.287,90.818 192.436 C 89.463 189.780,80.888 188.663,79.990 191.026 C 79.262 192.942,79.532 194.322,80.947 195.899 C 81.688 196.724,82.411 197.779,82.555 198.241 C 82.699 198.704,83.353 199.560,84.008 200.144 C 84.664 200.728,85.200 201.541,85.200 201.949 C 85.200 202.358,85.534 203.121,85.943 203.646 C 86.352 204.171,86.937 205.300,87.243 206.156 C 87.549 207.012,88.205 207.978,88.700 208.302 C 89.834 209.045,89.856 210.447,88.748 211.438 C 88.280 211.857,87.555 212.920,87.137 213.800 C 86.110 215.963,84.824 218.001,83.500 219.563 C 82.895 220.277,82.400 221.194,82.400 221.600 C 82.400 222.006,81.975 222.847,81.456 223.469 C 80.937 224.091,80.213 225.185,79.846 225.900 C 78.729 228.079,77.200 227.089,77.200 224.186 C 77.200 221.682,77.322 221.707,62.376 221.194 C 50.606 220.790,47.956 220.665,46.700 220.451 C 46.332 220.388,46.317 217.696,46.656 212.912 L 46.913 209.302 51.556 208.859 C 54.110 208.615,59.480 208.296,63.490 208.150 C 72.610 207.817,74.402 206.912,74.399 202.641 C 74.395 198.281,73.023 197.641,62.687 197.177 C 58.019 196.968,52.670 196.618,50.800 196.399 C 48.930 196.181,47.286 196.002,47.147 196.001 C 47.007 196.001,46.874 194.148,46.850 191.884 L 46.806 187.767 51.103 187.276 C 55.753 186.745,56.876 186.650,66.743 185.951 C 75.013 185.365,75.419 185.129,75.297 180.986 C 75.194 177.538,74.959 176.841,73.740 176.377 C 72.794 176.017,39.726 175.939,36.892 176.290 M317.937 176.520 C 317.213 177.244,316.800 185.487,316.800 199.201 C 316.800 213.241,316.470 217.585,315.367 218.088 C 314.869 218.315,314.354 218.928,314.223 219.450 C 314.092 219.973,313.763 220.409,313.492 220.420 C 307.906 220.647,307.814 220.635,307.400 219.630 C 304.000 211.382,301.130 209.797,295.558 213.089 C 294.041 213.984,292.391 213.341,291.476 211.498 C 291.078 210.695,290.432 209.937,290.040 209.813 C 289.649 209.688,289.089 209.140,288.797 208.594 C 288.319 207.702,286.377 206.809,284.900 206.802 C 283.487 206.796,284.685 205.595,286.900 204.796 C 290.482 203.503,290.934 202.858,290.709 199.348 C 290.495 196.006,288.288 192.810,285.600 191.950 C 284.830 191.703,283.805 191.141,283.321 190.701 C 281.036 188.620,268.827 188.655,267.233 190.748 C 266.885 191.205,265.954 191.809,265.164 192.090 C 263.296 192.754,261.461 194.334,260.580 196.039 C 260.193 196.788,259.545 197.850,259.141 198.400 C 257.970 199.995,257.918 205.225,259.062 206.465 C 259.536 206.979,260.159 208.197,260.446 209.170 C 260.907 210.732,261.194 211.035,262.884 211.749 C 266.068 213.094,265.327 214.447,261.105 215.000 C 258.227 215.376,257.855 215.959,258.111 219.691 C 258.346 223.114,259.854 225.547,262.453 226.696 C 263.070 226.969,263.856 227.734,264.198 228.396 C 264.540 229.058,265.041 229.601,265.310 229.602 C 265.580 229.602,266.880 230.142,268.200 230.800 C 271.277 232.334,281.060 232.643,282.846 231.263 C 283.371 230.857,284.610 230.248,285.600 229.910 C 287.283 229.334,290.648 226.601,291.446 225.162 C 291.641 224.811,292.463 223.757,293.274 222.821 L 294.747 221.118 295.184 222.742 C 295.743 224.815,299.531 228.845,302.000 229.991 C 302.990 230.451,304.250 231.088,304.800 231.408 C 306.203 232.222,314.988 232.226,316.400 231.412 C 316.950 231.095,318.300 230.388,319.400 229.840 C 322.906 228.094,325.069 225.699,325.733 222.824 C 326.087 221.292,326.697 219.932,327.326 219.271 L 328.345 218.200 328.452 202.200 C 328.571 184.519,328.167 178.426,326.783 177.019 C 325.734 175.952,318.891 175.566,317.937 176.520 M361.644 176.541 C 363.098 176.823,364.787 177.446,365.398 177.927 C 366.008 178.407,366.743 178.800,367.031 178.800 C 367.910 178.800,372.269 183.110,372.792 184.497 C 373.063 185.214,373.625 186.643,374.042 187.674 C 375.112 190.320,375.017 191.079,373.500 192.004 C 370.970 193.547,367.289 192.674,366.417 190.324 C 366.188 189.706,365.802 188.670,365.561 188.023 C 363.666 182.941,350.197 181.739,346.170 186.292 C 341.886 191.135,345.196 195.526,354.568 197.432 C 356.346 197.794,358.970 198.524,360.400 199.054 C 361.830 199.584,363.891 200.196,364.979 200.414 C 379.650 203.347,379.819 225.434,365.200 229.197 C 364.210 229.452,362.629 229.917,361.686 230.230 C 359.769 230.868,353.892 230.967,351.400 230.404 C 342.130 228.310,338.698 225.889,335.462 219.158 C 332.770 213.557,333.543 211.476,338.239 211.681 C 341.294 211.814,340.797 211.331,343.141 216.443 C 344.980 220.454,352.823 224.227,357.512 223.355 C 365.492 221.872,369.153 218.140,367.751 212.913 C 367.314 211.280,363.424 208.500,360.885 208.005 C 359.628 207.760,357.610 207.218,356.400 206.800 C 355.190 206.382,352.760 205.735,351.000 205.360 C 349.240 204.986,346.788 204.167,345.551 203.540 C 344.313 202.913,343.117 202.400,342.892 202.400 C 341.876 202.400,336.833 196.786,336.519 195.305 C 335.978 192.753,336.231 186.288,336.924 184.947 C 337.938 182.986,341.078 179.748,342.693 178.998 C 343.522 178.613,344.483 178.052,344.829 177.751 C 346.582 176.228,356.383 175.523,361.644 176.541 M73.565 177.816 C 73.876 178.115,74.206 179.314,74.297 180.480 C 74.586 184.160,75.317 183.966,60.200 184.236 C 42.710 184.549,44.014 183.949,44.005 191.678 C 43.997 199.147,43.745 199.054,64.374 199.166 C 71.657 199.206,72.400 199.530,72.400 202.670 C 72.400 205.726,71.803 205.994,64.900 206.037 C 61.655 206.057,56.059 206.192,52.465 206.337 L 45.931 206.600 44.955 207.734 C 44.002 208.843,43.982 209.006,44.090 214.929 L 44.200 220.990 45.400 221.573 C 46.354 222.036,49.348 222.190,60.000 222.323 C 74.328 222.503,74.564 222.538,75.434 224.619 C 76.254 226.582,76.137 227.511,74.929 228.630 L 73.859 229.623 55.343 229.511 C 38.189 229.408,36.775 229.347,36.114 228.686 C 35.444 228.016,35.400 226.462,35.400 203.668 C 35.400 174.883,34.969 177.320,40.099 177.073 C 47.836 176.701,72.986 177.259,73.565 177.816 M324.776 177.177 C 326.151 178.047,326.637 213.798,325.353 219.651 C 321.966 235.102,297.181 234.092,296.109 218.460 C 295.823 214.282,296.393 213.600,300.177 213.600 C 303.056 213.600,304.000 214.316,304.000 216.502 C 304.000 223.235,312.358 225.209,316.571 219.471 C 317.375 218.377,317.408 217.738,317.656 198.165 C 317.847 183.083,318.036 177.838,318.405 177.394 C 318.965 176.720,323.793 176.555,324.776 177.177 M232.654 189.621 C 231.803 189.833,230.574 190.455,229.923 191.003 C 229.271 191.552,228.312 192.107,227.790 192.238 C 227.269 192.369,226.567 192.895,226.232 193.408 C 225.896 193.920,225.276 194.449,224.854 194.583 C 224.431 194.717,223.862 195.366,223.589 196.026 C 223.316 196.686,222.577 197.874,221.946 198.668 C 220.483 200.508,220.314 204.198,221.597 206.301 C 222.033 207.017,222.364 207.917,222.332 208.301 C 222.076 211.356,222.912 213.069,224.155 212.037 C 224.905 211.415,228.000 212.424,228.000 213.291 C 228.000 214.201,226.845 214.683,223.878 215.008 C 221.130 215.310,220.789 215.824,221.100 219.200 C 221.337 221.764,223.875 226.175,225.333 226.557 C 225.810 226.682,226.607 227.418,227.104 228.192 C 227.601 228.966,228.235 229.600,228.514 229.600 C 228.792 229.600,230.096 230.134,231.410 230.787 C 234.517 232.331,243.505 232.612,245.753 231.237 C 246.439 230.817,247.720 230.279,248.600 230.041 C 249.972 229.671,252.622 227.549,254.600 225.235 C 254.820 224.978,255.345 224.530,255.767 224.240 C 256.601 223.667,257.581 215.174,257.055 213.077 C 256.600 211.263,252.240 207.248,250.409 206.955 C 248.617 206.669,248.337 206.200,249.700 205.769 C 255.013 204.090,256.854 202.131,255.091 200.035 C 254.540 199.381,253.981 198.071,253.834 197.088 C 253.528 195.046,251.726 193.172,248.907 191.961 C 247.976 191.562,246.663 190.827,245.988 190.328 C 244.606 189.306,235.793 188.839,232.654 189.621 M140.026 190.443 C 145.580 191.634,150.393 195.612,152.210 200.513 C 152.798 202.101,153.532 203.991,153.840 204.714 C 154.814 206.999,154.588 213.554,153.436 216.388 C 152.906 217.692,152.352 219.310,152.204 219.983 C 151.845 221.617,149.193 225.090,147.534 226.098 C 146.800 226.544,145.975 227.230,145.700 227.622 C 145.132 228.432,139.902 230.278,137.200 230.623 C 135.855 230.794,134.645 230.591,132.416 229.821 C 128.195 228.363,128.147 228.430,127.677 236.330 C 127.249 243.515,127.169 243.668,123.805 243.747 C 119.533 243.847,119.467 243.343,119.673 212.132 L 119.800 192.864 120.770 191.832 C 121.954 190.572,123.511 190.505,125.944 191.609 C 128.172 192.620,129.233 192.605,131.316 191.534 C 134.313 189.994,136.597 189.708,140.026 190.443 M246.639 192.122 C 250.170 193.492,252.483 196.032,253.189 199.318 C 253.799 202.156,253.054 202.800,249.162 202.800 L 246.413 202.800 245.385 200.771 C 242.817 195.703,230.180 196.680,232.142 201.794 C 232.462 202.626,235.964 204.800,236.986 204.800 C 238.213 204.800,243.521 206.332,244.528 206.977 C 245.008 207.284,246.210 207.747,247.200 208.007 C 251.910 209.243,255.594 213.650,255.606 218.065 C 255.613 220.499,253.242 225.749,251.802 226.488 C 251.361 226.715,250.640 227.226,250.200 227.624 C 247.019 230.501,238.181 231.499,232.404 229.632 C 227.702 228.113,223.181 223.127,223.206 219.489 C 223.233 215.531,230.293 215.440,231.593 219.380 C 233.370 224.764,243.183 225.848,245.845 220.954 C 246.932 218.956,246.539 217.098,244.901 216.487 C 242.586 215.622,239.673 214.706,236.323 213.788 C 226.031 210.967,222.217 206.307,224.139 198.897 C 225.975 191.820,237.168 188.449,246.639 192.122 M179.600 191.754 L 181.400 192.685 181.311 194.765 C 181.138 198.804,179.635 199.935,175.918 198.822 C 174.658 198.445,174.175 198.502,172.692 199.199 C 168.907 200.978,168.040 204.999,168.012 220.900 C 167.997 229.536,167.872 229.803,163.943 229.518 C 162.624 229.423,161.320 229.091,160.998 228.769 C 160.126 227.897,159.461 209.948,159.950 200.471 C 160.453 190.726,160.121 191.054,168.296 192.238 C 169.623 192.430,170.277 192.301,171.296 191.648 C 173.178 190.443,177.164 190.494,179.600 191.754 M208.159 192.109 C 211.166 193.405,214.968 196.743,216.166 199.140 C 216.678 200.163,217.433 201.630,217.845 202.400 C 218.755 204.101,218.944 211.460,218.104 212.474 C 217.693 212.970,215.536 213.114,205.410 213.319 C 190.595 213.619,191.015 213.485,192.211 217.513 C 194.459 225.083,205.216 226.222,208.767 219.265 C 209.594 217.645,210.682 216.530,211.600 216.362 C 213.201 216.070,217.230 216.909,217.607 217.614 C 218.109 218.552,218.116 220.681,217.618 220.989 C 217.408 221.118,216.754 222.111,216.164 223.195 C 212.760 229.449,202.522 232.358,194.096 229.466 C 192.278 228.842,190.626 228.022,190.423 227.644 C 190.221 227.265,189.413 226.610,188.628 226.187 C 187.842 225.764,187.200 225.285,187.200 225.123 C 187.200 224.961,186.679 224.234,186.042 223.509 C 182.112 219.033,181.095 208.646,183.856 201.196 C 187.024 192.649,199.011 188.167,208.159 192.109 M283.316 192.087 C 287.252 193.792,290.000 197.151,290.000 200.255 C 290.000 202.324,289.793 202.464,286.383 202.708 L 283.675 202.902 282.652 201.283 C 279.609 196.462,271.347 195.682,269.387 200.030 C 268.250 202.549,269.999 203.954,275.866 205.237 C 277.665 205.630,279.894 206.338,280.821 206.811 C 281.747 207.283,283.249 207.894,284.157 208.167 C 288.404 209.445,292.395 214.281,292.402 218.155 C 292.406 220.362,290.083 225.464,288.662 226.370 C 287.968 226.813,286.950 227.539,286.400 227.984 C 281.891 231.630,268.907 231.368,265.093 227.555 C 264.452 226.914,263.603 226.216,263.205 226.003 C 262.275 225.505,259.600 220.652,259.600 219.463 C 259.600 218.082,260.409 217.348,262.477 216.851 C 265.839 216.043,266.141 216.155,267.806 218.810 C 270.962 223.844,275.529 225.409,280.326 223.102 C 283.707 221.476,283.813 216.000,280.464 216.000 C 279.908 216.000,278.721 215.656,277.826 215.235 C 276.932 214.814,274.679 214.093,272.820 213.634 C 260.959 210.701,256.529 201.427,263.696 194.536 C 267.688 190.698,277.332 189.494,283.316 192.087 M88.615 192.181 C 89.446 192.528,90.168 193.191,90.411 193.829 C 90.634 194.416,91.533 195.710,92.408 196.705 C 93.284 197.699,94.000 198.637,94.000 198.789 C 94.000 198.942,94.736 199.657,95.635 200.380 L 97.270 201.694 98.860 200.147 C 99.735 199.296,100.835 197.970,101.306 197.200 C 102.860 194.656,104.929 192.433,106.133 192.014 C 108.129 191.318,111.784 191.497,112.828 192.342 L 113.745 193.085 111.885 195.530 C 109.913 198.124,108.550 200.103,106.600 203.206 C 105.940 204.257,104.724 206.130,103.897 207.370 L 102.394 209.625 103.147 210.712 C 103.935 211.852,104.827 213.329,106.640 216.500 C 107.238 217.545,107.876 218.400,108.057 218.400 C 108.238 218.400,108.843 219.300,109.400 220.400 C 109.957 221.500,110.557 222.400,110.733 222.400 C 110.909 222.400,111.433 223.076,111.898 223.903 C 112.362 224.730,113.205 225.841,113.771 226.373 C 115.946 228.416,114.893 229.600,110.900 229.600 C 106.649 229.600,105.219 228.550,101.705 222.852 C 101.212 222.053,100.018 220.501,99.049 219.403 L 97.289 217.405 95.545 219.241 C 92.906 222.017,90.948 224.502,90.643 225.464 C 89.925 227.726,86.998 229.600,84.183 229.600 C 79.638 229.600,79.230 228.978,81.501 225.512 C 82.325 224.253,83.372 222.633,83.826 221.912 C 84.280 221.190,86.028 218.571,87.709 216.092 C 91.602 210.352,91.765 209.585,89.739 206.542 C 88.025 203.968,87.749 203.536,86.600 201.642 C 86.160 200.917,85.287 199.666,84.660 198.862 C 84.033 198.058,83.191 196.758,82.789 195.973 C 82.387 195.189,81.775 194.311,81.429 194.024 C 79.115 192.104,84.888 190.623,88.615 192.181 M134.167 197.208 C 132.398 197.753,128.467 201.806,128.207 203.353 C 126.463 213.755,127.382 218.704,131.638 221.828 C 140.205 228.116,148.115 217.598,144.971 204.099 C 143.712 198.695,139.031 195.709,134.167 197.208 M198.848 197.632 C 194.558 198.475,190.866 203.106,192.880 205.120 C 193.730 205.970,207.698 205.776,208.756 204.900 L 209.601 204.200 208.665 202.199 C 207.611 199.948,205.369 198.140,202.926 197.573 C 201.186 197.169,201.204 197.169,198.848 197.632 M139.968 199.504 C 140.535 200.168,141.472 200.819,142.048 200.950 C 143.094 201.189,143.097 201.202,143.384 206.380 C 144.090 219.147,142.676 221.402,134.499 220.547 C 132.465 220.335,132.011 220.143,131.645 219.339 C 131.406 218.814,130.784 218.222,130.264 218.025 C 128.166 217.227,128.149 204.207,130.245 203.252 C 130.770 203.013,131.200 202.576,131.200 202.282 C 131.200 201.988,131.785 201.194,132.500 200.519 C 133.215 199.843,134.051 198.980,134.358 198.600 C 135.297 197.438,138.666 197.980,139.968 199.504 M244.325 202.303 C 244.436 203.446,244.335 203.600,243.472 203.600 C 242.369 203.600,241.877 202.520,242.485 201.434 C 243.102 200.331,244.184 200.842,244.325 202.303 M281.348 202.500 C 281.709 203.848,281.663 204.001,280.900 203.994 C 279.469 203.981,279.057 203.377,279.849 202.452 C 280.773 201.372,281.048 201.381,281.348 202.500 M234.000 215.816 C 234.000 216.155,234.360 217.138,234.801 218.001 C 235.627 219.620,234.981 220.872,233.732 220.072 C 233.056 219.639,232.815 215.200,233.467 215.200 C 233.760 215.200,234.000 215.477,234.000 215.816 M244.000 217.767 C 244.000 218.377,243.455 219.158,243.158 218.974 C 242.573 218.612,242.751 217.600,243.400 217.600 C 243.730 217.600,244.000 217.675,244.000 217.767 M206.557 218.633 C 206.978 219.730,206.828 220.000,205.800 220.000 C 204.735 220.000,204.486 219.274,205.280 218.480 C 205.925 217.835,206.267 217.876,206.557 218.633 M272.404 218.808 C 272.961 219.848,272.604 220.400,271.376 220.400 C 270.620 220.400,270.400 220.190,270.400 219.467 C 270.400 217.826,271.658 217.413,272.404 218.808 M281.357 218.633 C 281.738 219.625,281.647 220.000,281.024 220.000 C 280.266 220.000,279.938 219.427,280.241 218.636 C 280.553 217.824,281.046 217.822,281.357 218.633 " stroke="none" fill="#84841c" fill-rule="evenodd"></path></g></svg>
