<svg id="svg" xmlns="http://www.w3.org/2000/svg" xmlns:xlink="http://www.w3.org/1999/xlink" width="90" height="90" viewBox="0, 0, 400,400"><g id="svgg"><path id="path0" d="M173.257 110.150 C 172.759 110.777,171.216 113.671,162.996 129.400 C 160.244 134.666,157.314 140.236,155.001 144.600 C 154.068 146.360,152.175 149.960,150.793 152.600 C 147.170 159.523,142.243 168.859,139.606 173.800 C 137.950 176.904,134.145 184.166,130.490 191.200 C 127.777 196.422,125.873 200.044,122.818 205.800 C 118.992 213.010,116.512 217.728,114.094 222.400 C 112.784 224.930,111.038 228.260,110.213 229.800 C 107.762 234.376,101.011 247.178,94.497 259.600 C 93.286 261.910,91.442 265.420,90.400 267.400 C 89.358 269.380,87.465 272.980,86.194 275.400 C 84.923 277.820,83.073 281.330,82.084 283.200 C 81.096 285.070,79.434 288.220,78.391 290.200 C 77.349 292.180,75.908 294.880,75.188 296.200 C 73.082 300.064,68.000 310.365,68.000 310.770 C 68.000 310.974,67.685 311.204,67.300 311.280 C 66.854 311.368,66.762 311.520,67.046 311.699 C 67.374 311.906,202.522 177.230,209.000 170.241 C 216.156 162.521,216.281 162.340,214.225 162.673 C 213.193 162.841,212.580 162.685,211.771 162.048 C 211.177 161.582,210.478 161.200,210.216 161.200 C 209.614 161.200,208.000 159.506,208.000 158.874 C 208.000 158.613,207.816 158.400,207.590 158.400 C 207.235 158.400,206.833 157.676,206.370 156.200 C 206.301 155.980,205.917 155.448,205.516 155.018 C 205.115 154.587,204.048 152.787,203.145 151.018 C 202.241 149.248,201.288 147.530,201.027 147.200 C 200.765 146.870,200.112 145.745,199.576 144.700 C 199.040 143.655,198.466 142.800,198.301 142.800 C 198.135 142.800,198.000 142.440,198.000 142.000 C 198.000 141.560,197.820 141.200,197.600 141.200 C 197.380 141.200,197.200 140.840,197.200 140.400 C 197.200 139.960,197.065 139.599,196.900 139.597 C 196.541 139.593,195.600 137.656,195.600 136.920 C 195.600 136.634,195.464 136.400,195.298 136.400 C 195.131 136.400,194.746 135.815,194.441 135.100 C 194.136 134.385,193.570 133.440,193.183 133.000 C 192.797 132.560,191.426 130.130,190.137 127.600 C 188.848 125.070,186.977 121.830,185.979 120.400 C 184.981 118.970,183.912 117.260,183.603 116.600 C 182.493 114.226,179.976 112.000,178.403 112.000 C 177.252 112.000,176.840 111.776,176.293 110.850 C 175.582 109.646,173.956 109.271,173.257 110.150 M315.800 324.000 C 314.942 324.568,314.800 324.795,315.300 324.797 C 315.685 324.799,316.000 324.620,316.000 324.400 C 316.000 324.180,316.259 324.000,316.576 324.000 C 316.893 324.000,317.264 323.820,317.400 323.600 C 317.792 322.965,317.102 323.138,315.800 324.000 M204.400 384.400 C 203.912 384.715,203.964 384.789,204.676 384.794 C 205.158 384.797,205.664 384.620,205.800 384.400 C 206.115 383.891,205.188 383.891,204.400 384.400 " stroke="none" fill="#f4860c" fill-rule="evenodd"></path><path id="path1" d="M117.044 16.471 C 117.136 16.620,116.849 16.857,116.406 16.998 C 115.963 17.139,115.600 17.441,115.600 17.670 C 115.600 17.898,115.310 17.974,114.955 17.838 C 114.511 17.668,114.378 17.764,114.526 18.150 C 114.682 18.557,114.503 18.651,113.870 18.496 C 113.392 18.378,113.129 18.422,113.286 18.594 C 113.677 19.020,112.853 20.480,112.385 20.190 C 112.178 20.063,112.116 20.238,112.247 20.579 C 112.378 20.921,112.691 21.208,112.943 21.218 C 113.194 21.228,112.945 21.453,112.389 21.718 C 111.508 22.138,111.409 22.380,111.620 23.600 L 111.861 25.000 112.291 23.977 C 114.714 18.218,123.722 16.853,126.936 21.758 C 128.254 23.769,131.477 29.650,136.058 38.400 C 136.576 39.390,137.135 40.260,137.300 40.333 C 137.465 40.407,137.600 40.797,137.600 41.200 C 137.600 41.603,137.735 41.993,137.900 42.067 C 138.065 42.140,138.759 43.280,139.443 44.600 C 141.547 48.662,142.591 50.591,142.800 50.800 C 142.910 50.910,143.446 51.900,143.990 53.000 C 144.535 54.100,145.075 55.090,145.190 55.200 C 145.306 55.310,145.899 56.390,146.508 57.600 C 147.118 58.810,148.313 61.060,149.165 62.600 C 150.016 64.140,151.318 66.615,152.057 68.100 C 152.795 69.585,153.535 70.800,153.700 70.800 C 153.865 70.800,154.000 71.076,154.000 71.414 C 154.000 71.752,154.301 72.488,154.670 73.050 C 155.623 74.505,156.603 76.269,157.865 78.800 C 158.469 80.010,159.062 81.090,159.184 81.200 C 159.305 81.310,159.963 82.480,160.645 83.800 C 162.710 87.794,163.789 89.789,164.000 90.000 C 164.110 90.110,164.650 91.142,165.200 92.294 C 165.750 93.445,166.315 94.390,166.457 94.394 C 166.598 94.397,166.823 94.837,166.957 95.372 C 167.091 95.907,167.426 96.587,167.701 96.884 C 167.975 97.181,168.981 98.994,169.936 100.912 C 170.890 102.831,171.835 104.400,172.036 104.400 C 172.236 104.400,172.400 104.659,172.400 104.976 C 172.400 105.293,172.547 105.644,172.727 105.755 C 172.907 105.866,173.055 105.445,173.055 104.819 C 173.055 104.042,172.888 103.745,172.527 103.883 C 172.059 104.063,171.745 102.721,171.963 101.470 C 171.994 101.289,171.854 101.243,171.652 101.368 C 171.243 101.621,170.629 100.480,170.754 99.700 C 170.799 99.425,170.602 99.199,170.318 99.197 C 169.740 99.193,168.800 97.422,168.800 96.336 C 168.800 95.948,168.395 95.238,167.900 94.757 C 167.405 94.276,167.270 94.012,167.600 94.171 C 167.967 94.347,167.928 94.237,167.500 93.886 C 167.115 93.570,166.762 92.847,166.715 92.278 C 166.651 91.502,166.505 91.347,166.131 91.658 C 165.755 91.970,165.672 91.866,165.793 91.236 C 165.882 90.776,165.774 90.400,165.553 90.400 C 165.333 90.400,165.250 90.242,165.369 90.050 C 165.488 89.857,165.085 89.002,164.474 88.150 C 163.863 87.297,163.124 86.015,162.833 85.300 C 162.541 84.585,162.184 84.000,162.039 84.000 C 161.773 84.000,160.810 81.905,160.572 80.807 C 160.501 80.481,160.254 80.151,160.022 80.074 C 159.790 79.997,159.600 79.678,159.600 79.367 C 159.600 79.055,159.441 78.800,159.247 78.800 C 158.903 78.800,158.270 77.304,158.357 76.700 C 158.381 76.535,158.111 76.400,157.757 76.400 C 157.365 76.400,157.200 76.178,157.333 75.829 C 157.454 75.515,157.306 75.054,157.004 74.803 C 156.703 74.553,156.523 74.000,156.605 73.574 C 156.687 73.148,156.587 72.800,156.384 72.800 C 156.180 72.800,155.537 71.855,154.956 70.700 C 154.374 69.545,153.740 68.540,153.547 68.466 C 153.353 68.392,153.297 68.167,153.421 67.966 C 153.545 67.765,153.437 67.600,153.181 67.600 C 152.924 67.600,152.818 67.330,152.945 67.000 C 153.071 66.670,153.001 66.400,152.787 66.400 C 152.574 66.400,152.400 66.119,152.400 65.776 C 152.400 65.433,152.246 65.248,152.058 65.364 C 151.870 65.481,151.804 65.086,151.912 64.488 C 152.021 63.890,151.973 63.526,151.807 63.681 C 151.412 64.048,150.281 62.916,150.572 62.445 C 150.695 62.246,150.526 61.981,150.198 61.854 C 149.869 61.728,149.596 61.394,149.591 61.113 C 149.586 60.831,149.230 60.150,148.800 59.600 C 148.370 59.050,148.014 58.094,148.009 57.476 C 148.004 56.831,147.830 56.458,147.600 56.600 C 147.233 56.827,147.022 56.280,147.163 55.470 C 147.194 55.289,147.035 55.255,146.810 55.394 C 146.581 55.536,146.400 55.284,146.400 54.824 C 146.400 54.371,146.265 53.999,146.100 53.997 C 145.680 53.993,144.800 52.001,144.800 51.054 C 144.800 50.621,144.683 50.384,144.540 50.527 C 144.185 50.882,143.228 49.565,143.213 48.700 C 143.206 48.315,142.858 47.658,142.441 47.241 C 142.023 46.823,141.447 45.833,141.160 45.041 C 140.874 44.248,140.483 43.600,140.293 43.600 C 140.102 43.600,140.060 43.240,140.200 42.800 C 140.385 42.216,140.272 42.000,139.780 42.000 C 139.304 42.000,139.168 41.766,139.316 41.200 C 139.431 40.760,139.401 40.400,139.249 40.400 C 139.097 40.400,138.654 39.860,138.264 39.200 C 137.874 38.540,137.689 38.000,137.854 38.000 C 138.018 38.000,137.821 37.757,137.415 37.461 C 136.951 37.121,136.797 36.728,137.001 36.399 C 137.214 36.054,137.167 35.973,136.862 36.162 C 136.588 36.331,136.400 36.193,136.400 35.824 C 136.400 35.481,136.220 35.200,136.000 35.200 C 135.780 35.200,135.600 34.829,135.600 34.376 C 135.600 33.923,135.420 33.664,135.200 33.800 C 134.804 34.044,134.636 33.507,134.779 32.460 C 134.820 32.163,134.661 32.038,134.427 32.183 C 134.167 32.344,134.000 32.047,134.000 31.424 C 134.000 30.861,133.820 30.400,133.600 30.400 C 133.380 30.400,133.200 30.130,133.200 29.800 C 133.200 29.470,133.032 29.200,132.826 29.200 C 132.620 29.200,132.224 28.570,131.946 27.800 C 131.667 27.030,131.295 26.400,131.120 26.400 C 130.944 26.400,130.800 26.055,130.800 25.633 C 130.800 25.212,130.612 24.804,130.382 24.727 C 130.152 24.651,129.935 24.198,129.899 23.722 C 129.863 23.245,129.691 22.944,129.517 23.051 C 129.343 23.159,129.200 22.959,129.200 22.607 C 129.200 22.255,128.840 21.580,128.400 21.108 C 127.960 20.636,127.600 19.895,127.600 19.463 C 127.600 18.688,127.587 18.687,126.707 19.438 C 126.010 20.033,125.931 20.049,126.347 19.511 C 126.987 18.684,126.536 18.104,124.387 16.993 C 123.016 16.284,119.076 15.875,119.450 16.481 C 119.558 16.656,119.356 16.800,119.000 16.800 C 118.644 16.800,118.452 16.639,118.574 16.442 C 118.695 16.246,118.363 16.111,117.836 16.142 C 117.308 16.174,116.952 16.322,117.044 16.471 M122.253 17.324 C 122.635 17.178,122.732 17.312,122.562 17.755 C 122.366 18.267,121.710 18.400,119.391 18.400 C 117.416 18.400,116.407 18.562,116.283 18.900 C 116.141 19.287,115.976 19.274,115.550 18.841 C 115.248 18.534,115.213 18.402,115.472 18.548 C 115.732 18.694,116.058 18.630,116.196 18.407 C 116.334 18.183,116.851 18.000,117.344 18.000 C 117.837 18.000,118.411 17.835,118.620 17.634 C 119.132 17.141,120.915 16.889,121.349 17.248 C 121.541 17.407,121.948 17.442,122.253 17.324 M110.965 25.100 C 111.120 25.375,111.102 25.600,110.924 25.600 C 110.482 25.599,110.586 28.150,111.038 28.400 C 111.598 28.709,111.720 25.555,111.169 25.047 C 110.805 24.713,110.754 24.726,110.965 25.100 M110.267 31.467 C 109.852 31.882,109.953 33.200,110.400 33.200 C 110.620 33.200,110.800 32.750,110.800 32.200 C 110.800 31.153,110.708 31.026,110.267 31.467 M109.443 35.833 C 109.062 36.825,109.158 38.400,109.600 38.400 C 109.820 38.400,110.000 37.680,110.000 36.800 C 110.000 35.095,109.836 34.809,109.443 35.833 M108.629 41.299 C 108.456 41.904,108.455 42.714,108.627 43.099 C 109.019 43.974,109.353 42.562,109.100 41.100 C 108.954 40.254,108.926 40.265,108.629 41.299 M107.705 46.083 C 107.653 46.966,107.788 47.984,108.007 48.344 C 108.297 48.824,108.383 48.431,108.329 46.879 C 108.240 44.339,107.839 43.826,107.705 46.083 M107.067 50.667 C 106.643 51.090,106.757 53.600,107.200 53.600 C 107.420 53.600,107.600 52.880,107.600 52.000 C 107.600 50.365,107.534 50.200,107.067 50.667 M106.245 56.475 C 106.105 57.176,106.172 57.932,106.395 58.155 C 106.668 58.428,106.800 58.014,106.800 56.880 C 106.800 54.877,106.595 54.727,106.245 56.475 M105.585 60.500 C 105.195 63.083,105.192 63.600,105.567 63.600 C 105.805 63.600,106.000 62.880,106.000 62.000 C 106.000 60.795,105.703 59.720,105.585 60.500 M104.669 65.900 C 104.348 66.438,104.491 68.400,104.850 68.400 C 105.043 68.400,105.200 67.770,105.200 67.000 C 105.200 65.637,105.032 65.289,104.669 65.900 M198.132 68.234 C 198.023 68.517,197.687 68.655,197.386 68.539 C 197.085 68.424,196.605 68.477,196.319 68.658 C 196.034 68.840,195.710 69.006,195.600 69.028 C 194.772 69.197,194.045 69.749,194.239 70.063 C 194.368 70.272,194.142 70.748,193.737 71.121 C 193.332 71.495,192.942 72.070,192.870 72.400 C 192.798 72.730,192.573 73.060,192.370 73.133 C 192.167 73.207,192.000 73.532,192.000 73.857 C 192.000 74.182,191.820 74.336,191.600 74.200 C 191.380 74.064,191.200 74.296,191.200 74.714 C 191.200 75.133,190.840 75.802,190.400 76.200 C 189.960 76.598,189.594 77.301,189.587 77.762 C 189.572 78.796,188.638 80.093,188.197 79.694 C 188.018 79.532,187.986 79.715,188.124 80.100 C 188.262 80.485,188.215 80.800,188.019 80.800 C 187.824 80.800,187.538 81.385,187.385 82.100 C 187.232 82.815,186.764 83.726,186.345 84.124 C 185.925 84.522,185.687 85.017,185.815 85.224 C 185.943 85.431,185.722 85.603,185.324 85.606 C 184.710 85.611,184.691 85.671,185.200 86.000 C 185.636 86.282,185.657 86.389,185.276 86.394 C 184.988 86.397,184.865 86.581,185.002 86.803 C 185.139 87.024,184.981 87.309,184.651 87.436 C 184.321 87.563,184.135 87.886,184.238 88.155 C 184.341 88.424,183.880 89.398,183.213 90.319 C 182.546 91.240,182.000 92.275,182.000 92.620 C 182.000 92.965,181.831 93.143,181.624 93.015 C 181.418 92.887,181.273 93.114,181.304 93.519 C 181.374 94.452,180.088 97.200,179.581 97.200 C 179.372 97.200,179.200 97.571,179.200 98.024 C 179.200 98.477,179.020 98.736,178.800 98.600 C 178.580 98.464,178.400 98.687,178.400 99.096 C 178.400 99.505,178.184 100.056,177.920 100.320 C 177.656 100.584,177.588 100.800,177.769 100.800 C 177.950 100.800,177.874 101.070,177.600 101.400 C 177.322 101.735,177.279 102.000,177.502 102.000 C 178.229 102.000,178.901 100.905,178.317 100.670 C 177.946 100.522,177.971 100.454,178.405 100.432 C 178.954 100.403,179.973 98.645,184.453 90.000 C 185.194 88.570,185.935 87.340,186.100 87.267 C 186.265 87.193,186.400 86.788,186.400 86.367 C 186.400 85.945,186.536 85.600,186.703 85.600 C 186.870 85.600,187.455 84.615,188.003 83.411 C 188.551 82.207,189.135 81.217,189.300 81.211 C 189.465 81.205,189.600 80.840,189.600 80.400 C 189.600 79.960,189.780 79.600,190.000 79.600 C 190.220 79.600,190.400 79.240,190.400 78.800 C 190.400 78.360,190.580 78.000,190.800 78.000 C 191.020 78.000,191.200 77.640,191.200 77.200 C 191.200 76.760,191.380 76.400,191.600 76.400 C 191.820 76.400,192.000 76.164,192.000 75.875 C 192.000 75.587,192.360 74.964,192.800 74.492 C 193.240 74.020,193.600 73.452,193.600 73.231 C 193.600 73.009,193.946 72.643,194.369 72.417 C 194.792 72.190,195.377 71.779,195.669 71.503 C 199.245 68.119,206.171 70.384,208.813 75.800 C 209.350 76.900,209.896 77.890,210.027 78.000 C 210.157 78.110,210.519 78.785,210.830 79.500 C 211.380 80.765,212.126 81.168,212.574 80.442 C 212.856 79.986,211.806 77.927,211.345 78.033 C 211.155 78.076,210.460 77.052,209.800 75.756 C 209.140 74.460,208.464 73.340,208.298 73.266 C 208.131 73.192,208.098 72.966,208.223 72.763 C 208.348 72.560,208.168 72.111,207.822 71.765 C 207.476 71.419,207.294 70.972,207.417 70.772 C 207.541 70.573,207.331 70.528,206.951 70.674 C 206.418 70.879,206.321 70.783,206.524 70.254 C 206.698 69.799,206.554 69.496,206.093 69.349 C 205.712 69.227,205.040 68.980,204.600 68.800 C 204.160 68.620,203.440 68.332,203.000 68.161 C 201.611 67.619,198.349 67.668,198.132 68.234 M103.773 72.163 C 103.785 73.133,103.931 73.843,104.098 73.740 C 104.506 73.487,104.485 70.400,104.075 70.400 C 103.897 70.400,103.761 71.193,103.773 72.163 M102.988 76.602 C 103.034 78.967,103.600 79.419,103.600 77.090 C 103.600 76.077,103.455 75.158,103.277 75.048 C 103.100 74.938,102.970 75.638,102.988 76.602 M212.433 81.171 C 211.949 81.478,211.962 81.725,212.524 82.865 C 212.886 83.599,213.201 84.110,213.224 84.000 C 213.565 82.375,213.554 81.600,213.190 81.600 C 212.950 81.600,212.864 81.420,213.000 81.200 C 213.302 80.711,213.171 80.704,212.433 81.171 M102.202 81.597 C 102.067 81.815,102.141 82.310,102.366 82.697 C 102.717 83.300,102.777 83.244,102.788 82.300 C 102.801 81.150,102.616 80.928,102.202 81.597 M213.791 83.640 C 213.489 85.016,213.922 85.743,214.742 85.236 C 215.185 84.962,215.178 84.811,214.700 84.364 C 214.381 84.067,214.205 83.503,214.307 83.112 C 214.410 82.720,214.397 82.400,214.278 82.400 C 214.160 82.400,213.941 82.958,213.791 83.640 M214.612 85.981 C 214.439 86.260,214.456 86.604,214.649 86.745 C 214.842 86.885,215.450 87.942,216.000 89.094 C 216.550 90.245,217.135 91.190,217.300 91.194 C 217.465 91.197,217.600 91.560,217.600 92.000 C 217.600 92.507,217.856 92.788,218.300 92.768 C 218.745 92.748,218.812 92.661,218.483 92.530 C 218.078 92.367,218.070 92.197,218.449 91.741 C 218.839 91.271,218.785 91.119,218.166 90.948 C 217.709 90.822,216.901 89.674,216.163 88.104 C 215.346 86.364,214.820 85.644,214.612 85.981 M101.484 86.800 C 101.369 87.239,101.438 87.700,101.638 87.823 C 101.837 87.946,102.000 87.587,102.000 87.024 C 102.000 85.798,101.772 85.699,101.484 86.800 M100.468 91.600 C 100.503 92.480,100.680 93.200,100.863 93.200 C 101.045 93.200,101.166 92.480,101.132 91.600 C 101.097 90.720,100.920 90.000,100.737 90.000 C 100.555 90.000,100.434 90.720,100.468 91.600 M218.400 93.800 C 218.400 94.130,218.580 94.400,218.800 94.400 C 219.020 94.400,219.200 94.670,219.200 95.000 C 219.200 96.057,219.798 95.640,219.862 94.538 C 219.906 93.779,219.822 93.637,219.568 94.039 C 219.282 94.490,219.211 94.463,219.206 93.900 C 219.203 93.515,219.020 93.200,218.800 93.200 C 218.580 93.200,218.400 93.470,218.400 93.800 M288.400 94.459 C 287.276 94.770,265.552 116.292,178.399 203.438 C 118.668 263.164,69.528 312.201,69.199 312.409 C 68.695 312.728,68.716 312.789,69.333 312.794 C 69.736 312.797,71.140 313.430,72.454 314.200 C 73.768 314.970,74.914 315.600,75.000 315.600 C 75.086 315.600,76.202 316.206,77.479 316.946 C 79.679 318.221,81.094 319.016,85.500 321.449 C 86.545 322.027,87.940 322.818,88.600 323.208 C 89.889 323.970,104.802 332.308,109.034 334.633 C 110.444 335.408,113.789 337.293,116.465 338.821 C 119.142 340.350,121.400 341.600,121.482 341.600 C 121.565 341.600,124.100 343.015,127.116 344.745 C 130.132 346.475,133.860 348.571,135.400 349.403 C 136.940 350.235,138.380 351.044,138.600 351.200 C 138.820 351.356,140.260 352.167,141.800 353.003 C 143.340 353.839,147.480 356.138,151.000 358.113 C 154.520 360.087,158.210 362.154,159.200 362.706 C 160.190 363.258,162.170 364.381,163.600 365.201 C 165.030 366.020,167.280 367.287,168.600 368.015 C 169.920 368.742,173.880 370.959,177.400 372.940 C 193.121 381.788,197.041 383.022,204.400 381.442 C 208.759 380.506,209.132 380.334,220.400 374.087 C 231.307 368.041,232.170 367.560,234.200 366.395 C 235.080 365.890,236.700 364.992,237.800 364.400 C 238.900 363.808,240.520 362.910,241.400 362.405 C 244.315 360.732,258.888 352.623,262.800 350.497 C 264.230 349.720,265.580 348.956,265.800 348.800 C 266.020 348.644,267.460 347.834,269.000 347.000 C 271.809 345.479,292.174 334.171,294.800 332.675 C 295.570 332.236,297.370 331.252,298.800 330.488 C 300.230 329.724,301.799 328.852,302.287 328.549 C 303.313 327.912,305.177 326.867,310.200 324.111 C 312.180 323.024,314.655 321.655,315.700 321.068 C 319.911 318.701,321.497 317.826,323.591 316.712 C 324.796 316.072,325.966 315.404,326.191 315.230 C 327.583 314.149,332.903 311.600,333.766 311.600 C 334.418 311.600,334.800 311.379,334.800 311.000 C 334.800 310.670,334.620 310.400,334.400 310.400 C 334.180 310.400,334.000 310.119,334.000 309.776 C 334.000 309.429,333.807 309.272,333.565 309.421 C 333.264 309.608,333.172 308.829,333.265 306.877 C 333.371 304.661,333.294 304.153,332.900 304.481 C 332.511 304.805,332.400 304.460,332.400 302.929 C 332.400 301.846,332.625 300.729,332.900 300.447 C 333.303 300.033,333.245 299.959,332.600 300.067 C 331.891 300.185,331.788 299.950,331.692 298.000 C 331.615 296.423,331.698 295.970,331.986 296.400 C 332.478 297.134,332.528 296.421,332.039 295.649 C 331.847 295.346,331.489 295.221,331.245 295.372 C 330.937 295.562,330.800 294.909,330.800 293.257 C 330.800 291.719,330.978 290.795,331.300 290.665 C 331.685 290.510,331.679 290.456,331.276 290.432 C 330.967 290.413,330.876 290.196,331.053 289.900 C 331.257 289.560,331.137 289.576,330.677 289.949 C 330.056 290.452,330.000 290.310,330.000 288.225 C 330.000 286.975,330.150 286.045,330.333 286.159 C 330.517 286.272,330.667 286.119,330.667 285.818 C 330.667 285.503,330.356 285.332,329.933 285.413 C 329.301 285.535,329.200 285.278,329.200 283.553 C 329.200 282.322,329.354 281.648,329.600 281.800 C 330.188 282.163,330.087 281.630,329.448 280.990 C 329.144 280.687,328.784 280.550,328.648 280.686 C 328.511 280.822,328.400 279.913,328.400 278.667 C 328.400 277.420,328.580 276.400,328.800 276.400 C 329.020 276.400,329.200 276.212,329.200 275.982 C 329.200 275.753,328.885 275.618,328.500 275.682 C 327.914 275.781,327.782 275.441,327.692 273.600 C 327.615 272.023,327.698 271.570,327.986 272.000 C 328.331 272.515,328.389 272.501,328.394 271.900 C 328.398 271.465,328.098 271.200,327.600 271.200 C 326.881 271.200,326.800 270.933,326.800 268.576 C 326.800 266.695,326.931 266.034,327.262 266.238 C 327.541 266.411,327.615 266.348,327.449 266.079 C 327.298 265.835,326.910 265.736,326.587 265.860 C 326.116 266.041,326.001 265.664,326.006 263.943 C 326.011 262.392,326.121 261.966,326.407 262.400 C 326.769 262.949,326.774 262.578,326.430 260.851 C 326.413 260.769,326.130 260.926,325.800 261.200 C 325.279 261.633,325.200 261.400,325.200 259.425 C 325.200 258.012,325.351 257.246,325.600 257.400 C 325.820 257.536,326.000 257.359,326.000 257.006 C 326.000 256.617,325.724 256.411,325.300 256.482 C 324.728 256.578,324.578 256.252,324.478 254.700 C 324.405 253.557,324.524 252.800,324.778 252.800 C 325.293 252.800,325.342 251.335,324.837 251.023 C 324.638 250.900,324.580 251.204,324.710 251.699 C 324.930 252.543,324.902 252.557,324.272 251.929 C 323.803 251.460,323.600 250.583,323.600 249.029 C 323.600 247.803,323.441 246.800,323.247 246.800 C 322.928 246.800,322.554 244.226,322.226 239.773 C 322.160 238.878,321.902 237.765,321.653 237.299 C 320.906 235.903,321.067 233.206,321.900 233.168 C 322.322 233.149,322.401 233.056,322.098 232.934 C 321.821 232.823,321.697 232.567,321.821 232.366 C 321.945 232.165,321.872 232.000,321.657 232.000 C 321.442 232.000,321.191 232.225,321.098 232.500 C 320.904 233.076,319.933 227.691,319.853 225.600 C 319.818 224.672,319.969 224.234,320.300 224.300 C 320.575 224.355,320.797 224.175,320.794 223.900 C 320.784 223.088,320.122 222.278,319.687 222.546 C 319.109 222.904,318.727 220.996,319.042 219.318 C 319.234 218.293,319.181 217.965,318.855 218.166 C 318.559 218.349,318.386 218.055,318.360 217.324 C 318.275 214.921,318.148 213.777,317.903 213.200 C 317.364 211.934,317.376 208.800,317.921 208.800 C 318.210 208.800,318.341 208.628,318.211 208.417 C 318.081 208.207,317.728 208.130,317.426 208.245 C 317.011 208.405,316.844 207.916,316.739 206.237 C 316.631 204.522,316.736 203.982,317.200 203.856 C 317.533 203.765,317.400 203.672,316.900 203.646 C 316.086 203.604,316.000 203.398,316.000 201.480 C 316.000 200.314,315.837 199.189,315.637 198.980 C 315.292 198.619,315.061 197.109,314.553 191.900 C 314.430 190.635,314.165 189.600,313.964 189.600 C 313.764 189.600,313.600 188.430,313.600 187.000 C 313.600 185.437,313.769 184.400,314.024 184.400 C 314.257 184.400,314.329 184.209,314.185 183.976 C 314.020 183.708,313.721 183.819,313.374 184.276 C 312.890 184.915,312.824 184.709,312.813 182.524 C 312.806 181.162,312.620 179.936,312.400 179.800 C 311.860 179.466,311.889 175.071,312.435 174.525 C 312.748 174.212,312.748 174.015,312.435 173.822 C 312.193 173.672,312.000 173.829,312.000 174.176 C 312.000 174.519,311.820 174.800,311.600 174.800 C 311.380 174.800,311.200 173.810,311.200 172.600 C 311.200 171.390,311.380 170.400,311.600 170.400 C 312.125 170.400,312.117 169.320,311.590 168.994 C 311.365 168.855,311.230 168.956,311.290 169.220 C 311.351 169.484,311.175 169.782,310.900 169.883 C 310.535 170.017,310.400 169.418,310.400 167.667 C 310.400 166.140,310.582 165.180,310.900 165.029 C 311.175 164.898,310.995 164.866,310.500 164.958 C 309.456 165.152,309.080 161.097,310.100 160.645 C 310.375 160.523,310.240 160.463,309.800 160.512 C 308.960 160.604,308.867 160.194,308.154 153.200 C 308.031 151.990,307.765 150.829,307.565 150.620 C 307.364 150.411,307.200 149.412,307.200 148.400 C 307.200 147.388,307.040 146.389,306.843 146.180 C 306.647 145.971,306.376 144.720,306.240 143.400 C 305.740 138.546,305.508 136.991,305.224 136.600 C 305.065 136.380,304.888 135.301,304.831 134.203 C 304.774 133.105,304.614 132.025,304.476 131.803 C 304.338 131.581,304.072 130.230,303.885 128.800 C 303.550 126.229,303.213 124.070,302.419 119.400 C 302.194 118.080,301.826 115.830,301.600 114.400 C 299.249 99.510,299.281 99.662,298.015 97.822 C 295.908 94.760,292.114 93.433,288.400 94.459 M99.970 95.700 C 99.954 95.975,99.865 96.605,99.773 97.100 C 99.681 97.595,99.784 98.000,100.003 98.000 C 100.221 98.000,100.400 97.370,100.400 96.600 C 100.400 95.312,100.038 94.555,99.970 95.700 M220.000 96.600 C 220.000 96.930,220.180 97.200,220.400 97.200 C 220.620 97.200,220.800 96.930,220.800 96.600 C 220.800 96.270,220.620 96.000,220.400 96.000 C 220.180 96.000,220.000 96.270,220.000 96.600 M220.938 97.817 C 220.808 98.157,220.809 98.542,220.941 98.674 C 221.287 99.020,222.433 97.977,222.172 97.555 C 221.831 97.002,221.199 97.137,220.938 97.817 M279.137 98.800 C 278.446 99.460,278.044 100.000,278.242 100.000 C 278.440 100.000,279.112 99.460,279.735 98.800 C 280.358 98.140,280.761 97.600,280.630 97.600 C 280.500 97.600,279.828 98.140,279.137 98.800 M221.496 99.093 C 221.408 99.262,221.733 100.173,222.218 101.118 C 222.835 102.321,223.170 102.654,223.334 102.229 C 223.466 101.883,223.272 101.450,222.883 101.223 C 222.494 100.996,222.415 100.819,222.700 100.812 C 222.975 100.805,223.200 100.536,223.200 100.213 C 223.200 99.829,222.969 99.714,222.534 99.881 C 222.106 100.045,221.966 99.979,222.141 99.696 C 222.291 99.453,222.243 99.150,222.034 99.021 C 221.826 98.892,221.583 98.925,221.496 99.093 M99.080 101.736 C 98.967 102.031,99.035 102.526,99.231 102.836 C 99.491 103.247,99.589 103.101,99.594 102.300 C 99.601 101.106,99.404 100.890,99.080 101.736 M223.612 103.300 C 223.605 103.905,223.780 104.400,224.000 104.400 C 224.220 104.400,224.400 104.760,224.400 105.200 C 224.400 105.640,224.580 106.000,224.800 106.000 C 225.020 106.000,225.200 106.360,225.200 106.800 C 225.200 107.240,225.380 107.600,225.600 107.600 C 225.820 107.600,226.000 107.960,226.000 108.400 C 226.000 108.840,226.180 109.200,226.400 109.200 C 226.620 109.200,226.800 109.571,226.800 110.024 C 226.800 110.477,226.980 110.736,227.200 110.600 C 227.420 110.464,227.600 110.613,227.600 110.931 C 227.600 111.906,228.726 113.742,229.383 113.839 C 229.724 113.889,229.901 113.763,229.774 113.558 C 229.648 113.354,229.332 113.314,229.072 113.470 C 228.803 113.632,228.836 113.462,229.149 113.077 C 229.562 112.567,229.575 112.400,229.202 112.400 C 228.899 112.400,228.790 112.081,228.922 111.577 C 229.100 110.896,229.037 110.837,228.559 111.234 C 228.094 111.620,228.027 111.596,228.214 111.108 C 228.346 110.764,228.181 110.401,227.830 110.267 C 227.491 110.137,227.309 109.782,227.425 109.479 C 227.541 109.176,227.377 108.713,227.059 108.449 C 226.742 108.186,226.570 107.638,226.676 107.230 C 226.783 106.823,226.646 106.352,226.373 106.183 C 226.053 105.985,225.978 106.041,226.162 106.338 C 226.319 106.592,226.351 106.800,226.234 106.800 C 225.890 106.800,224.749 104.401,225.090 104.394 C 225.260 104.391,225.205 104.256,224.966 104.094 C 224.727 103.932,224.327 103.440,224.078 103.000 C 223.655 102.254,223.623 102.275,223.612 103.300 M176.300 103.357 C 175.372 104.061,175.414 104.374,176.400 104.116 C 176.840 104.001,177.200 103.658,177.200 103.353 C 177.200 102.686,177.183 102.687,176.300 103.357 M98.279 106.957 C 98.115 107.374,98.075 107.809,98.191 107.924 C 98.555 108.289,98.876 107.691,98.724 106.931 C 98.583 106.235,98.562 106.236,98.279 106.957 M232.000 117.121 C 232.000 117.387,231.710 117.466,231.300 117.313 C 230.678 117.079,230.663 117.128,231.170 117.750 C 231.693 118.393,231.770 118.397,232.107 117.795 C 232.308 117.435,232.367 117.033,232.237 116.903 C 232.106 116.773,232.000 116.871,232.000 117.121 M235.424 125.013 C 234.658 125.591,234.659 125.600,235.457 125.600 C 235.910 125.600,236.267 125.336,236.267 125.000 C 236.267 124.670,236.252 124.406,236.233 124.413 C 236.215 124.420,235.851 124.690,235.424 125.013 M251.286 126.624 C 250.783 127.161,250.527 127.600,250.716 127.600 C 250.906 127.600,251.483 127.150,252.000 126.600 C 252.517 126.050,252.773 125.611,252.570 125.624 C 252.366 125.638,251.789 126.088,251.286 126.624 M246.235 131.803 C 245.595 132.353,245.158 132.891,245.265 132.998 C 245.371 133.104,245.974 132.654,246.604 131.996 C 247.999 130.539,247.816 130.443,246.235 131.803 M94.260 131.787 C 94.136 132.110,94.187 132.468,94.372 132.583 C 94.557 132.697,94.803 132.433,94.917 131.996 C 95.156 131.081,94.599 130.904,94.260 131.787 M93.167 140.900 C 92.945 141.566,93.005 142.880,93.266 143.041 C 93.450 143.154,93.600 142.697,93.600 142.024 C 93.600 141.048,93.341 140.377,93.167 140.900 M92.266 146.141 C 92.092 146.988,92.046 147.779,92.165 147.898 C 92.527 148.261,92.868 146.937,92.722 145.734 C 92.594 144.678,92.563 144.705,92.266 146.141 M307.220 144.800 C 307.216 144.910,307.471 145.720,307.788 146.600 C 308.105 147.480,308.366 147.840,308.368 147.400 C 308.371 146.735,307.245 144.185,307.220 144.800 M231.123 148.609 C 230.091 149.594,229.379 150.400,229.540 150.400 C 229.701 150.400,230.628 149.590,231.600 148.600 C 233.877 146.280,233.558 146.286,231.123 148.609 M91.567 150.300 C 91.548 150.465,91.488 151.013,91.432 151.517 C 91.377 152.021,91.476 152.524,91.654 152.633 C 91.832 152.743,91.953 152.196,91.924 151.416 C 91.877 150.165,91.658 149.480,91.567 150.300 M90.533 156.782 C 90.533 157.433,90.683 157.872,90.867 157.759 C 91.050 157.645,91.200 157.113,91.200 156.576 C 91.200 156.039,91.050 155.600,90.867 155.600 C 90.683 155.600,90.533 156.132,90.533 156.782 M198.798 181.100 L 181.000 199.000 198.900 181.202 C 208.745 171.413,216.800 163.358,216.800 163.302 C 216.800 163.020,215.341 164.462,198.798 181.100 M85.600 186.176 C 85.600 187.067,86.226 187.244,86.292 186.372 C 86.324 185.948,86.181 185.600,85.975 185.600 C 85.769 185.600,85.600 185.859,85.600 186.176 M319.693 219.200 C 319.693 219.970,319.775 220.285,319.876 219.900 C 319.976 219.515,319.976 218.885,319.876 218.500 C 319.775 218.115,319.693 218.430,319.693 219.200 M322.818 241.224 C 322.808 241.786,323.064 242.596,323.387 243.024 C 324.127 244.001,324.131 243.797,323.412 241.800 C 322.934 240.475,322.832 240.376,322.818 241.224 M323.628 245.876 C 323.613 246.358,323.780 246.864,324.000 247.000 C 324.473 247.292,324.473 246.901,324.000 245.800 C 323.669 245.029,323.655 245.031,323.628 245.876 " stroke="none" fill="#fccb2c" fill-rule="evenodd"></path><path id="path2" d="M117.000 20.355 C 114.655 21.437,112.800 23.892,112.800 25.915 C 112.800 26.534,112.636 27.211,112.435 27.420 C 112.235 27.629,111.974 28.790,111.855 30.000 C 111.737 31.210,111.442 33.370,111.200 34.800 C 110.958 36.230,110.663 38.390,110.545 39.600 C 110.426 40.810,110.165 41.971,109.965 42.180 C 109.764 42.389,109.600 43.568,109.600 44.800 C 109.600 46.032,109.436 47.211,109.235 47.420 C 109.035 47.629,108.774 48.790,108.655 50.000 C 108.537 51.210,108.243 53.370,108.002 54.800 C 107.762 56.230,107.474 58.300,107.363 59.400 C 107.252 60.500,107.002 61.760,106.807 62.200 C 106.612 62.640,106.352 63.990,106.230 65.200 C 106.108 66.410,105.827 68.480,105.607 69.800 C 105.110 72.775,104.486 76.649,103.997 79.800 C 103.792 81.120,103.433 83.370,103.200 84.800 C 102.967 86.230,102.618 88.480,102.425 89.800 C 102.232 91.120,101.861 93.460,101.602 95.000 C 101.028 98.415,100.554 101.366,100.028 104.800 C 99.809 106.230,99.457 108.480,99.245 109.800 C 99.033 111.120,98.655 113.637,98.407 115.394 C 98.158 117.151,97.597 120.661,97.160 123.194 C 96.723 125.727,96.117 129.600,95.813 131.800 C 95.508 134.000,94.994 137.330,94.669 139.200 C 94.345 141.070,93.866 144.130,93.606 146.000 C 93.346 147.870,92.980 150.120,92.792 151.000 C 92.605 151.880,92.265 153.950,92.036 155.600 C 91.808 157.250,91.517 159.230,91.390 160.000 C 91.263 160.770,91.004 162.390,90.814 163.600 C 90.624 164.810,90.258 167.060,90.000 168.600 C 89.436 171.970,88.780 176.125,87.616 183.700 C 87.405 185.075,87.047 187.280,86.821 188.600 C 86.595 189.920,86.215 192.260,85.975 193.800 C 85.736 195.340,85.368 197.680,85.158 199.000 C 84.948 200.320,84.607 202.480,84.400 203.800 C 84.193 205.120,83.844 207.280,83.625 208.600 C 83.406 209.920,83.028 212.260,82.786 213.800 C 82.544 215.340,82.173 217.680,81.961 219.000 C 81.750 220.320,81.407 222.480,81.200 223.800 C 80.993 225.120,80.633 227.370,80.400 228.800 C 79.837 232.255,79.304 235.630,78.820 238.800 C 78.602 240.230,78.233 242.570,78.000 244.000 C 77.767 245.430,77.418 247.680,77.225 249.000 C 77.032 250.320,76.661 252.660,76.402 254.200 C 75.903 257.169,75.540 259.535,74.837 264.400 C 74.599 266.050,74.146 268.840,73.831 270.600 C 73.515 272.360,73.145 274.790,73.007 276.000 C 72.869 277.210,72.601 279.100,72.411 280.200 C 72.222 281.300,71.860 283.640,71.607 285.400 C 71.355 287.160,70.986 289.320,70.788 290.200 C 70.590 291.080,70.319 292.610,70.187 293.600 C 69.950 295.371,69.521 298.270,68.796 303.000 C 68.594 304.320,68.264 306.507,68.062 307.860 C 67.861 309.213,67.574 310.518,67.425 310.760 C 67.275 311.002,67.343 311.200,67.576 311.200 C 67.809 311.200,68.000 311.020,68.000 310.799 C 68.000 310.371,73.009 300.198,75.188 296.200 C 75.908 294.880,77.349 292.180,78.391 290.200 C 79.434 288.220,81.096 285.070,82.084 283.200 C 83.073 281.330,84.923 277.820,86.194 275.400 C 87.465 272.980,89.358 269.380,90.400 267.400 C 91.442 265.420,93.286 261.910,94.497 259.600 C 101.011 247.178,107.762 234.376,110.213 229.800 C 111.038 228.260,112.784 224.930,114.094 222.400 C 116.512 217.728,118.992 213.010,122.818 205.800 C 125.873 200.044,127.777 196.422,130.490 191.200 C 134.145 184.166,137.950 176.904,139.606 173.800 C 142.243 168.859,147.170 159.523,150.793 152.600 C 152.175 149.960,154.068 146.360,155.001 144.600 C 157.314 140.236,160.244 134.666,162.996 129.400 C 171.284 113.541,172.759 110.777,173.277 110.127 C 173.528 109.811,173.262 108.943,172.481 107.527 C 171.836 106.357,170.268 103.420,168.996 101.000 C 167.723 98.580,166.232 95.790,165.682 94.800 C 165.131 93.810,164.078 91.875,163.341 90.500 C 162.603 89.125,161.345 86.785,160.545 85.300 C 159.745 83.815,158.608 81.700,158.018 80.600 C 157.428 79.500,155.858 76.620,154.530 74.200 C 153.202 71.780,151.159 68.000,149.991 65.800 C 148.822 63.600,147.132 60.449,146.233 58.797 C 145.335 57.146,144.330 55.256,144.001 54.597 C 143.671 53.939,143.310 53.310,143.198 53.200 C 143.087 53.090,142.440 51.920,141.762 50.600 C 141.084 49.280,140.077 47.390,139.526 46.400 C 138.974 45.410,137.661 42.980,136.608 41.000 C 135.555 39.020,134.566 37.220,134.409 37.000 C 134.102 36.569,130.243 29.320,128.233 25.400 C 125.564 20.192,121.404 18.324,117.000 20.355 M197.400 71.397 C 195.284 72.140,193.823 73.899,191.370 78.660 C 190.253 80.827,188.297 84.580,187.022 87.000 C 181.738 97.033,179.974 100.400,178.015 104.187 C 176.882 106.379,175.774 108.391,175.553 108.656 C 174.757 109.615,176.793 111.989,178.417 111.995 C 179.976 112.000,182.501 114.243,183.603 116.600 C 183.912 117.260,184.981 118.970,185.979 120.400 C 186.977 121.830,188.848 125.070,190.137 127.600 C 191.426 130.130,192.797 132.560,193.183 133.000 C 193.570 133.440,194.136 134.385,194.441 135.100 C 194.746 135.815,195.131 136.400,195.298 136.400 C 195.464 136.400,195.600 136.634,195.600 136.920 C 195.600 137.656,196.541 139.593,196.900 139.597 C 197.065 139.599,197.200 139.960,197.200 140.400 C 197.200 140.840,197.380 141.200,197.600 141.200 C 197.820 141.200,198.000 141.560,198.000 142.000 C 198.000 142.440,198.135 142.800,198.301 142.800 C 198.466 142.800,199.040 143.655,199.576 144.700 C 200.112 145.745,200.765 146.870,201.027 147.200 C 201.288 147.530,202.241 149.248,203.145 151.018 C 204.048 152.787,205.115 154.587,205.516 155.018 C 205.917 155.448,206.301 155.980,206.370 156.200 C 206.833 157.676,207.235 158.400,207.590 158.400 C 207.816 158.400,208.000 158.639,208.000 158.930 C 208.000 159.547,209.655 161.200,210.272 161.200 C 210.503 161.200,211.177 161.582,211.771 162.048 C 212.582 162.687,213.192 162.841,214.234 162.672 C 215.692 162.435,215.713 162.581,214.458 164.200 C 214.117 164.640,219.815 159.061,227.119 151.802 C 234.424 144.544,240.400 138.350,240.400 138.039 C 240.400 137.542,236.365 129.549,231.194 119.800 C 230.260 118.040,228.734 115.160,227.802 113.400 C 226.870 111.640,225.391 108.850,224.516 107.200 C 223.641 105.550,221.793 102.040,220.409 99.400 C 219.025 96.760,217.217 93.340,216.391 91.800 C 214.881 88.983,210.923 81.442,208.633 77.019 C 205.825 71.595,202.118 69.740,197.400 71.397 M77.524 238.600 C 77.434 239.370,77.504 240.000,77.680 240.000 C 77.856 240.000,78.000 239.370,78.000 238.600 C 78.000 237.830,77.930 237.200,77.844 237.200 C 77.758 237.200,77.614 237.830,77.524 238.600 " stroke="none" fill="#fca40f" fill-rule="evenodd"></path><path id="path3" d="M116.348 19.602 C 114.755 20.445,112.958 22.384,112.297 23.977 L 111.872 25.000 111.612 23.800 L 111.351 22.600 111.159 24.072 C 111.054 24.882,111.121 25.449,111.309 25.333 C 111.496 25.217,111.594 25.905,111.525 26.861 C 111.444 27.989,111.224 28.565,110.900 28.500 C 110.610 28.442,110.400 28.807,110.400 29.367 C 110.400 29.899,110.279 30.649,110.132 31.033 C 109.949 31.509,110.013 31.639,110.332 31.442 C 110.643 31.250,110.800 31.497,110.800 32.176 C 110.800 32.739,110.620 33.200,110.400 33.200 C 110.175 33.200,110.000 34.322,110.000 35.767 C 110.000 37.353,109.823 38.392,109.538 38.487 C 109.242 38.586,109.103 39.548,109.151 41.152 C 109.200 42.795,109.083 43.575,108.813 43.408 C 108.586 43.268,108.400 43.433,108.400 43.776 C 108.400 44.811,108.351 44.977,107.866 45.577 C 107.505 46.024,107.512 46.086,107.900 45.853 C 108.269 45.631,108.398 46.003,108.394 47.276 C 108.391 48.224,108.251 48.785,108.085 48.523 C 107.892 48.220,107.626 48.543,107.355 49.407 C 107.121 50.155,107.080 50.674,107.265 50.560 C 107.449 50.446,107.600 51.083,107.600 51.976 C 107.600 52.869,107.420 53.600,107.200 53.600 C 106.977 53.600,106.800 54.675,106.800 56.024 C 106.800 57.537,106.650 58.354,106.400 58.200 C 106.148 58.044,106.000 58.996,106.000 60.776 C 106.000 62.329,105.838 63.600,105.639 63.600 C 105.441 63.600,105.088 64.146,104.855 64.814 C 104.604 65.533,104.588 65.931,104.816 65.790 C 105.034 65.655,105.200 66.169,105.200 66.976 C 105.200 67.759,105.020 68.400,104.800 68.400 C 104.580 68.400,104.400 68.745,104.400 69.167 C 104.400 69.588,104.175 70.024,103.900 70.135 C 103.500 70.296,103.500 70.343,103.900 70.368 C 104.213 70.388,104.400 71.008,104.400 72.024 C 104.400 72.917,104.250 73.555,104.067 73.441 C 103.679 73.202,103.600 73.784,103.609 76.800 C 103.614 78.404,103.507 78.837,103.214 78.400 C 102.903 77.936,102.811 78.089,102.806 79.076 C 102.803 79.778,102.620 80.464,102.400 80.600 C 102.180 80.736,102.000 81.027,102.000 81.247 C 102.000 81.467,102.180 81.536,102.400 81.400 C 102.631 81.257,102.797 81.628,102.794 82.276 C 102.789 83.149,102.701 83.266,102.400 82.800 C 102.112 82.354,102.011 82.584,102.006 83.700 C 102.002 84.597,101.807 85.200,101.520 85.200 C 101.147 85.200,101.147 85.307,101.520 85.680 C 102.099 86.259,102.170 88.152,101.600 87.800 C 101.348 87.644,101.200 88.596,101.200 90.376 C 101.200 91.992,101.029 93.200,100.800 93.200 C 100.578 93.200,100.400 94.267,100.400 95.600 C 100.400 96.920,100.244 98.000,100.052 98.000 C 99.861 98.000,99.606 98.585,99.486 99.300 C 99.366 100.015,99.146 100.960,98.996 101.400 C 98.777 102.045,98.808 102.084,99.156 101.600 C 99.502 101.119,99.588 101.237,99.588 102.200 C 99.588 103.121,99.497 103.260,99.200 102.800 C 98.910 102.351,98.811 102.561,98.806 103.633 C 98.803 104.422,98.675 105.191,98.523 105.344 C 98.371 105.496,98.190 106.021,98.122 106.510 C 98.023 107.216,98.079 107.276,98.393 106.800 C 98.714 106.312,98.789 106.368,98.794 107.100 C 98.797 107.595,98.620 108.000,98.400 108.000 C 98.180 108.000,98.000 108.372,98.000 108.826 C 98.000 109.281,97.820 109.990,97.599 110.402 C 97.331 110.903,97.331 111.234,97.599 111.399 C 97.820 111.536,97.997 111.952,97.994 112.324 C 97.989 112.871,97.920 112.893,97.634 112.441 C 97.285 111.890,97.107 113.290,97.159 116.182 C 97.171 116.833,96.960 117.505,96.690 117.676 C 96.330 117.905,96.359 117.991,96.800 118.000 C 97.274 118.010,97.290 118.082,96.875 118.345 C 96.586 118.528,96.335 119.291,96.317 120.039 C 96.299 120.788,96.085 121.532,95.842 121.694 C 95.535 121.898,95.552 121.990,95.900 121.994 C 96.175 121.997,96.400 122.270,96.400 122.600 C 96.400 122.930,96.200 123.200,95.955 123.200 C 95.689 123.200,95.579 123.676,95.682 124.379 C 95.777 125.027,95.708 125.467,95.528 125.355 C 95.016 125.039,95.144 126.184,95.680 126.720 C 96.053 127.093,96.053 127.200,95.680 127.200 C 95.416 127.200,95.229 127.335,95.264 127.500 C 95.298 127.665,95.223 128.070,95.096 128.400 C 94.655 129.545,94.518 131.173,94.853 131.286 C 95.038 131.349,94.927 131.907,94.605 132.527 C 94.283 133.147,93.916 134.947,93.789 136.527 C 93.662 138.107,93.537 139.625,93.512 139.900 C 93.487 140.175,93.317 140.400,93.133 140.400 C 92.950 140.400,92.800 140.591,92.800 140.824 C 92.800 141.057,92.980 141.136,93.200 141.000 C 93.434 140.855,93.600 141.270,93.600 142.000 C 93.600 142.730,93.434 143.145,93.200 143.000 C 92.980 142.864,92.800 143.113,92.800 143.553 C 92.800 143.993,92.620 144.464,92.400 144.600 C 92.180 144.736,92.018 145.242,92.040 145.724 C 92.077 146.539,92.102 146.531,92.400 145.600 C 92.688 144.702,92.724 144.750,92.760 146.076 C 92.782 146.888,92.620 147.664,92.400 147.800 C 92.180 147.936,92.000 148.677,92.000 149.447 C 92.000 150.217,91.857 150.759,91.683 150.651 C 91.509 150.544,91.337 150.846,91.301 151.323 C 91.249 152.010,91.314 152.066,91.612 151.595 C 91.910 151.123,91.989 151.191,91.994 151.924 C 91.997 152.439,91.823 152.738,91.600 152.600 C 91.215 152.362,91.030 154.079,91.184 156.460 C 91.221 157.044,91.060 157.639,90.826 157.784 C 90.592 157.929,90.400 158.541,90.400 159.144 C 90.400 159.747,90.192 160.448,89.937 160.703 C 89.586 161.054,89.610 161.334,90.037 161.860 C 90.402 162.310,90.424 162.448,90.100 162.253 C 89.747 162.041,89.600 162.288,89.600 163.096 C 89.600 163.725,89.375 164.482,89.100 164.779 C 88.700 165.210,88.700 165.261,89.100 165.035 C 89.375 164.880,89.600 164.943,89.600 165.176 C 89.600 165.409,89.420 165.600,89.200 165.600 C 88.980 165.600,88.800 166.464,88.800 167.520 C 88.800 168.576,88.584 169.656,88.320 169.920 C 87.947 170.293,87.947 170.400,88.320 170.400 C 88.584 170.400,88.800 170.591,88.800 170.824 C 88.800 171.057,88.650 171.155,88.467 171.041 C 88.283 170.928,88.113 171.412,88.088 172.118 C 87.933 176.527,87.890 176.870,87.558 176.346 C 87.329 175.985,87.207 176.341,87.196 177.400 C 87.188 178.280,87.005 179.760,86.791 180.689 C 86.576 181.617,86.361 183.296,86.312 184.420 C 86.263 185.543,86.083 186.549,85.912 186.655 C 85.740 186.761,85.600 187.722,85.600 188.790 C 85.600 189.954,85.399 190.827,85.100 190.967 C 84.700 191.153,84.700 191.247,85.100 191.433 C 85.375 191.562,85.600 191.932,85.600 192.257 C 85.600 192.582,85.439 192.748,85.242 192.626 C 84.869 192.395,84.512 194.178,84.144 198.100 C 84.026 199.365,83.765 200.400,83.564 200.400 C 83.364 200.400,83.203 200.715,83.206 201.100 C 83.211 201.698,83.269 201.713,83.600 201.200 C 83.833 200.839,83.990 200.790,83.994 201.076 C 83.997 201.338,83.820 201.664,83.600 201.800 C 83.380 201.936,83.200 202.947,83.200 204.047 C 83.200 205.147,83.050 205.955,82.867 205.841 C 82.363 205.530,82.455 206.956,82.961 207.294 C 83.264 207.497,83.245 207.590,82.900 207.594 C 82.596 207.598,82.400 208.150,82.400 209.000 C 82.400 209.770,82.251 210.400,82.068 210.400 C 81.784 210.400,81.601 211.995,81.438 215.900 C 81.417 216.395,81.265 216.800,81.100 216.800 C 80.935 216.800,80.800 217.476,80.800 218.303 C 80.800 219.129,80.622 220.426,80.404 221.184 C 80.187 221.943,79.980 223.472,79.944 224.582 C 79.908 225.692,79.748 226.690,79.588 226.800 C 79.323 226.983,78.749 232.000,78.643 235.061 C 78.620 235.755,78.465 236.240,78.300 236.138 C 77.960 235.928,77.888 236.430,77.989 238.290 C 78.028 239.000,77.917 239.810,77.743 240.090 C 77.569 240.371,77.364 241.500,77.289 242.600 C 77.213 243.700,76.982 244.660,76.775 244.733 C 76.569 244.807,76.400 245.042,76.400 245.257 C 76.400 245.472,76.580 245.536,76.800 245.400 C 77.020 245.264,77.200 245.343,77.200 245.576 C 77.200 245.809,77.043 246.000,76.851 246.000 C 76.659 246.000,76.485 246.829,76.464 247.842 C 76.444 248.856,76.270 249.891,76.078 250.142 C 75.885 250.394,75.686 251.590,75.634 252.800 C 75.582 254.010,75.374 255.171,75.170 255.380 C 74.674 255.889,74.697 256.511,75.200 256.200 C 75.420 256.064,75.600 256.244,75.600 256.600 C 75.600 256.956,75.456 257.158,75.280 257.049 C 75.104 256.941,74.916 257.510,74.862 258.314 C 74.807 259.118,74.636 259.871,74.482 259.988 C 73.964 260.378,73.966 261.277,74.486 261.919 C 74.878 262.403,74.882 262.482,74.500 262.253 C 74.138 262.036,74.000 262.337,74.000 263.343 C 74.000 264.108,73.775 264.824,73.500 264.935 C 73.115 265.090,73.121 265.144,73.524 265.168 C 73.812 265.186,73.937 265.378,73.803 265.595 C 73.668 265.813,73.456 266.848,73.332 267.895 C 73.207 268.943,72.948 270.100,72.756 270.468 C 72.525 270.908,72.576 271.204,72.903 271.336 C 73.297 271.495,73.296 271.543,72.900 271.568 C 72.580 271.589,72.400 272.239,72.400 273.376 C 72.400 274.353,72.249 275.246,72.064 275.360 C 71.879 275.475,71.695 276.495,71.655 277.627 C 71.615 278.759,71.406 280.015,71.191 280.417 C 70.976 280.819,70.800 282.049,70.800 283.150 C 70.800 284.252,70.649 285.246,70.464 285.360 C 70.171 285.542,69.873 288.422,69.932 290.509 C 69.943 290.898,69.799 291.123,69.611 291.007 C 69.424 290.891,69.174 291.833,69.054 293.098 C 68.846 295.307,68.483 297.823,67.627 303.000 C 67.408 304.320,67.050 306.750,66.831 308.400 C 66.611 310.050,66.327 311.822,66.199 312.338 C 65.923 313.446,66.594 314.400,67.649 314.400 C 68.062 314.400,68.400 314.553,68.400 314.740 C 68.400 314.927,69.615 315.689,71.100 316.432 C 72.585 317.176,73.890 317.877,74.000 317.992 C 74.110 318.106,74.920 318.578,75.800 319.039 C 77.714 320.043,80.940 321.855,82.600 322.858 C 83.260 323.257,84.610 323.982,85.600 324.469 C 86.590 324.957,87.490 325.458,87.600 325.583 C 87.710 325.708,88.700 326.258,89.800 326.805 C 90.900 327.352,91.860 327.935,91.933 328.100 C 92.007 328.265,92.412 328.400,92.833 328.400 C 93.255 328.400,93.600 328.580,93.600 328.800 C 93.600 329.020,93.793 329.200,94.028 329.200 C 94.263 329.200,95.208 329.711,96.128 330.335 C 97.048 330.959,98.385 331.723,99.100 332.032 C 99.815 332.342,100.400 332.731,100.400 332.898 C 100.400 333.064,100.566 333.200,100.768 333.200 C 100.971 333.200,102.726 334.120,104.668 335.245 C 106.611 336.370,109.640 338.055,111.400 338.989 C 114.738 340.762,116.191 341.574,119.200 343.348 C 120.190 343.932,121.675 344.720,122.500 345.099 C 123.325 345.478,124.000 345.926,124.000 346.094 C 124.000 346.262,124.360 346.400,124.800 346.400 C 125.240 346.400,125.600 346.559,125.600 346.753 C 125.600 346.948,125.915 347.207,126.300 347.329 C 126.985 347.546,129.204 348.804,129.600 349.200 C 129.898 349.498,131.379 350.321,135.600 352.535 C 137.690 353.632,140.071 354.950,140.892 355.464 C 141.713 355.979,142.497 356.400,142.634 356.400 C 142.772 356.400,143.684 356.940,144.662 357.600 C 145.640 358.260,146.701 358.800,147.020 358.800 C 147.339 358.800,147.600 358.938,147.600 359.106 C 147.600 359.274,148.275 359.722,149.100 360.101 C 149.925 360.480,151.500 361.331,152.600 361.991 C 153.700 362.652,155.230 363.500,156.000 363.875 C 156.770 364.251,157.490 364.658,157.600 364.779 C 157.950 365.166,160.174 366.441,160.900 366.671 C 161.285 366.793,161.600 367.052,161.600 367.247 C 161.600 367.441,161.960 367.600,162.400 367.600 C 162.840 367.600,163.200 367.736,163.200 367.902 C 163.200 368.069,163.785 368.462,164.500 368.776 C 165.215 369.090,166.700 369.912,167.800 370.601 C 168.900 371.291,170.385 372.089,171.100 372.376 C 171.815 372.663,172.400 373.055,172.400 373.249 C 172.400 373.442,172.760 373.600,173.200 373.600 C 173.640 373.600,174.000 373.754,174.000 373.943 C 174.000 374.132,174.990 374.713,176.200 375.236 C 177.410 375.758,178.400 376.290,178.400 376.418 C 178.400 376.546,179.030 376.898,179.800 377.200 C 180.570 377.502,181.200 377.896,181.200 378.075 C 181.200 378.254,181.470 378.400,181.800 378.400 C 182.130 378.400,182.400 378.580,182.400 378.800 C 182.400 379.020,182.760 379.200,183.200 379.200 C 183.640 379.200,184.000 379.380,184.000 379.600 C 184.000 379.820,184.270 380.000,184.600 380.000 C 184.930 380.000,185.200 380.146,185.200 380.325 C 185.200 380.504,185.830 380.898,186.600 381.200 C 187.370 381.502,188.000 381.896,188.000 382.075 C 188.000 382.254,188.324 382.400,188.720 382.400 C 189.116 382.400,189.611 382.549,189.820 382.730 C 190.029 382.912,190.920 383.257,191.800 383.497 C 192.680 383.738,194.120 384.143,195.000 384.397 C 196.890 384.945,203.373 384.728,206.000 384.029 C 206.990 383.766,208.295 383.451,208.900 383.330 C 209.505 383.209,210.000 382.986,210.000 382.835 C 210.000 382.684,210.675 382.319,211.500 382.024 C 212.325 381.729,213.090 381.378,213.200 381.244 C 213.517 380.857,215.731 379.573,216.500 379.329 C 216.885 379.207,217.200 378.948,217.200 378.753 C 217.200 378.559,217.560 378.400,218.000 378.400 C 218.440 378.400,218.800 378.254,218.800 378.075 C 218.800 377.896,219.430 377.502,220.200 377.200 C 220.970 376.898,221.600 376.504,221.600 376.325 C 221.600 376.146,221.870 376.000,222.200 376.000 C 222.530 376.000,222.800 375.820,222.800 375.600 C 222.800 375.380,223.136 375.200,223.546 375.200 C 223.956 375.200,224.721 374.880,225.246 374.489 C 225.771 374.099,226.735 373.514,227.389 373.189 C 229.131 372.326,237.110 367.908,239.200 366.649 C 240.190 366.053,241.315 365.462,241.700 365.336 C 242.085 365.210,242.400 364.948,242.400 364.753 C 242.400 364.559,242.760 364.400,243.200 364.400 C 243.640 364.400,244.000 364.264,244.000 364.098 C 244.000 363.931,244.585 363.542,245.300 363.232 C 246.015 362.923,247.352 362.159,248.272 361.535 C 249.192 360.911,250.227 360.400,250.572 360.400 C 250.917 360.400,251.200 360.264,251.200 360.098 C 251.200 359.931,251.785 359.540,252.500 359.228 C 253.215 358.916,254.430 358.267,255.200 357.785 C 256.740 356.823,270.721 349.096,271.385 348.840 C 271.613 348.752,271.890 348.572,272.000 348.440 C 272.205 348.194,274.030 347.173,277.200 345.532 C 278.190 345.019,279.060 344.465,279.133 344.300 C 279.207 344.135,279.612 344.000,280.033 344.000 C 280.455 344.000,280.800 343.820,280.800 343.600 C 280.800 343.380,281.070 343.200,281.400 343.200 C 281.730 343.200,282.000 343.020,282.000 342.800 C 282.000 342.580,282.360 342.400,282.800 342.400 C 283.240 342.400,283.600 342.241,283.600 342.047 C 283.600 341.852,283.915 341.588,284.300 341.459 C 284.685 341.331,285.900 340.712,287.000 340.085 C 288.100 339.458,290.800 337.980,293.000 336.802 C 295.200 335.623,297.090 334.556,297.200 334.430 C 297.310 334.303,298.120 333.823,299.000 333.362 C 299.880 332.900,301.320 332.117,302.200 331.622 C 303.080 331.126,304.520 330.333,305.400 329.860 C 306.280 329.387,307.090 328.908,307.200 328.795 C 307.310 328.682,308.255 328.158,309.300 327.632 C 310.345 327.105,311.200 326.523,311.200 326.337 C 311.200 326.152,311.661 326.000,312.224 326.000 C 312.804 326.000,313.140 325.827,313.000 325.600 C 312.864 325.380,313.051 325.200,313.415 325.200 C 313.779 325.200,314.579 324.842,315.192 324.405 C 315.806 323.968,317.094 323.246,318.054 322.799 C 319.014 322.352,320.970 321.272,322.400 320.398 C 323.830 319.524,326.350 318.132,328.000 317.304 C 329.650 316.477,331.060 315.665,331.133 315.500 C 331.207 315.335,331.522 315.200,331.833 315.200 C 332.145 315.200,332.400 315.020,332.400 314.800 C 332.400 314.580,332.642 314.400,332.938 314.400 C 333.662 314.400,334.800 313.097,334.800 312.269 C 334.800 310.909,329.336 312.788,326.191 315.230 C 325.966 315.404,324.796 316.072,323.591 316.712 C 321.517 317.816,319.739 318.797,315.600 321.123 C 314.610 321.680,312.180 323.024,310.200 324.111 C 305.177 326.867,303.313 327.912,302.287 328.549 C 301.799 328.852,300.230 329.724,298.800 330.488 C 297.370 331.252,295.570 332.236,294.800 332.675 C 292.174 334.171,271.809 345.479,269.000 347.000 C 267.460 347.834,266.020 348.644,265.800 348.800 C 265.580 348.956,264.230 349.720,262.800 350.497 C 258.888 352.623,244.315 360.732,241.400 362.405 C 240.520 362.910,238.900 363.808,237.800 364.400 C 236.700 364.992,235.080 365.890,234.200 366.395 C 232.170 367.560,231.307 368.041,220.400 374.087 C 209.132 380.334,208.759 380.506,204.400 381.442 C 197.041 383.022,193.121 381.788,177.400 372.940 C 173.880 370.959,169.920 368.742,168.600 368.015 C 167.280 367.287,165.030 366.020,163.600 365.201 C 162.170 364.381,160.190 363.258,159.200 362.706 C 158.210 362.154,154.520 360.087,151.000 358.113 C 147.480 356.138,143.340 353.839,141.800 353.003 C 140.260 352.167,138.820 351.356,138.600 351.200 C 138.380 351.044,136.940 350.235,135.400 349.403 C 133.860 348.571,130.132 346.475,127.116 344.745 C 124.100 343.015,121.565 341.600,121.482 341.600 C 121.400 341.600,119.142 340.350,116.465 338.821 C 113.789 337.293,110.444 335.408,109.034 334.633 C 104.802 332.308,89.889 323.970,88.600 323.208 C 87.940 322.818,86.545 322.027,85.500 321.449 C 81.094 319.016,79.679 318.221,77.479 316.946 C 76.202 316.206,75.086 315.600,75.000 315.600 C 74.914 315.600,73.768 314.970,72.454 314.200 C 71.140 313.430,69.691 312.800,69.233 312.800 C 68.353 312.800,68.215 312.510,68.719 311.717 C 68.888 311.451,94.386 285.801,125.380 254.717 C 227.447 152.353,241.092 138.610,241.571 137.685 C 242.034 136.789,240.541 132.688,239.485 131.955 C 239.291 131.821,239.162 131.641,239.199 131.555 C 239.447 130.978,238.617 129.184,238.180 129.352 C 237.893 129.462,237.420 129.248,237.129 128.876 C 236.654 128.269,236.671 128.256,237.300 128.749 C 237.906 129.224,238.000 129.209,238.000 128.636 C 238.000 128.273,237.741 127.876,237.425 127.754 C 237.083 127.623,236.951 127.264,237.100 126.867 C 237.317 126.286,237.262 126.271,236.675 126.749 C 236.096 127.220,236.000 127.210,236.000 126.682 C 236.000 126.344,236.225 125.976,236.500 125.865 C 236.775 125.754,236.460 125.635,235.800 125.600 C 235.140 125.565,234.825 125.446,235.100 125.335 C 235.903 125.011,235.675 124.000,234.800 124.000 C 234.360 124.000,234.000 123.837,234.000 123.637 C 234.000 123.438,234.405 123.364,234.900 123.472 C 235.414 123.585,235.626 123.526,235.395 123.335 C 235.172 123.151,234.544 122.100,234.000 121.000 C 232.858 118.690,230.579 115.051,230.945 116.121 C 231.101 116.580,231.035 116.745,230.761 116.576 C 230.524 116.429,230.414 115.990,230.516 115.599 C 230.753 114.695,230.311 113.975,229.441 113.847 C 228.224 113.669,227.062 110.646,228.080 110.307 C 228.375 110.208,228.290 110.043,227.859 109.878 C 227.469 109.728,227.259 109.772,227.386 109.977 C 227.511 110.179,227.430 110.458,227.207 110.596 C 226.981 110.735,226.800 110.480,226.800 110.024 C 226.800 109.571,226.620 109.200,226.400 109.200 C 226.180 109.200,226.000 108.840,226.000 108.400 C 226.000 107.960,225.820 107.600,225.600 107.600 C 225.380 107.600,225.200 107.240,225.200 106.800 C 225.200 106.360,225.020 106.000,224.800 106.000 C 224.580 106.000,224.400 105.640,224.400 105.200 C 224.400 104.760,224.220 104.400,224.000 104.400 C 223.780 104.400,223.612 103.905,223.627 103.300 C 223.654 102.220,223.662 102.216,224.088 103.100 C 224.327 103.595,224.679 104.000,224.870 104.000 C 225.062 104.000,224.924 103.550,224.563 103.000 C 223.859 101.925,223.209 101.689,223.185 102.500 C 223.177 102.775,222.791 102.190,222.328 101.200 C 221.864 100.210,221.511 99.355,221.543 99.300 C 221.679 99.062,222.190 99.429,222.100 99.700 C 222.045 99.865,222.180 100.000,222.400 100.000 C 222.881 100.000,222.904 99.584,222.462 98.886 C 222.282 98.603,221.836 98.488,221.468 98.629 C 221.009 98.805,220.800 98.677,220.800 98.219 C 220.800 97.853,220.964 97.654,221.165 97.778 C 221.366 97.902,221.491 97.738,221.443 97.413 C 221.334 96.670,220.800 96.105,220.800 96.733 C 220.800 96.990,220.620 97.200,220.400 97.200 C 219.830 97.200,219.903 96.099,220.485 95.905 C 220.816 95.795,220.688 95.384,220.085 94.618 C 219.598 93.999,219.200 93.696,219.200 93.946 C 219.200 94.196,219.020 94.400,218.800 94.400 C 218.239 94.400,218.299 93.300,218.871 93.110 C 219.442 92.919,218.945 91.998,218.276 92.006 C 217.990 92.010,218.039 92.167,218.400 92.400 C 218.913 92.731,218.898 92.789,218.300 92.794 C 217.865 92.798,217.600 92.498,217.600 92.000 C 217.600 91.560,217.465 91.197,217.300 91.194 C 217.135 91.190,216.550 90.245,216.000 89.094 C 215.450 87.942,214.822 86.872,214.603 86.717 C 214.343 86.531,214.348 86.292,214.620 86.020 C 214.903 85.737,215.402 86.416,216.216 88.193 C 216.867 89.616,217.518 90.784,217.663 90.790 C 218.025 90.804,217.585 89.238,217.152 88.970 C 216.958 88.851,216.800 88.403,216.800 87.976 C 216.800 87.549,216.663 87.200,216.495 87.200 C 216.327 87.200,216.012 86.795,215.795 86.300 C 215.575 85.798,215.046 85.400,214.600 85.400 C 214.064 85.400,213.756 85.089,213.666 84.456 C 213.582 83.860,213.691 83.609,213.962 83.776 C 214.226 83.940,214.299 83.803,214.153 83.421 C 214.022 83.079,213.743 82.800,213.534 82.800 C 213.324 82.800,213.256 82.968,213.383 83.172 C 213.509 83.377,213.468 83.634,213.291 83.744 C 213.114 83.853,212.721 83.380,212.417 82.694 C 212.008 81.769,211.986 81.405,212.332 81.289 C 213.083 81.039,212.870 80.457,212.100 80.656 C 211.605 80.784,211.234 80.451,210.832 79.518 C 210.520 78.793,210.157 78.110,210.027 78.000 C 209.896 77.890,209.350 76.900,208.813 75.800 C 206.171 70.384,199.245 68.119,195.669 71.503 C 195.377 71.779,194.792 72.190,194.369 72.417 C 193.946 72.643,193.600 73.009,193.600 73.231 C 193.600 73.452,193.240 74.020,192.800 74.492 C 192.360 74.964,192.000 75.587,192.000 75.875 C 192.000 76.164,191.820 76.400,191.600 76.400 C 191.380 76.400,191.200 76.760,191.200 77.200 C 191.200 77.640,191.020 78.000,190.800 78.000 C 190.580 78.000,190.400 78.360,190.400 78.800 C 190.400 79.240,190.220 79.600,190.000 79.600 C 189.780 79.600,189.600 79.960,189.600 80.400 C 189.600 80.840,189.465 81.205,189.300 81.211 C 189.135 81.217,188.551 82.207,188.003 83.411 C 187.455 84.615,186.870 85.600,186.703 85.600 C 186.536 85.600,186.400 85.945,186.400 86.367 C 186.400 86.788,186.265 87.193,186.100 87.267 C 185.935 87.340,185.195 88.570,184.456 90.000 C 178.862 100.821,179.102 100.427,178.045 100.507 C 177.580 100.542,177.200 100.838,177.200 101.165 C 177.200 101.628,177.307 101.653,177.680 101.280 C 178.274 100.686,178.943 100.645,178.585 101.225 C 178.440 101.458,177.890 101.814,177.361 102.015 C 176.833 102.216,176.400 102.575,176.400 102.814 C 176.400 103.052,176.580 103.136,176.800 103.000 C 177.020 102.864,177.200 103.012,177.200 103.330 C 177.200 103.647,176.795 104.018,176.300 104.153 C 175.549 104.359,175.499 104.465,176.000 104.794 C 176.518 105.134,176.508 105.189,175.927 105.194 C 175.557 105.197,175.139 105.561,175.000 106.001 C 174.727 106.859,173.600 106.218,173.600 105.205 C 173.600 104.956,173.417 104.866,173.193 105.004 C 172.970 105.142,172.908 105.451,173.055 105.689 C 173.215 105.949,173.137 106.009,172.862 105.838 C 172.608 105.681,172.400 105.371,172.400 105.148 C 172.400 104.925,172.128 104.471,171.796 104.139 C 171.464 103.807,171.312 103.342,171.458 103.106 C 171.604 102.870,171.547 102.786,171.330 102.920 C 171.114 103.053,170.321 101.866,169.568 100.281 C 168.816 98.697,167.975 97.162,167.701 96.872 C 167.426 96.582,167.091 95.907,166.957 95.372 C 166.823 94.837,166.598 94.397,166.457 94.394 C 166.315 94.390,165.750 93.445,165.200 92.294 C 164.650 91.142,164.110 90.110,164.000 90.000 C 163.789 89.789,162.710 87.794,160.645 83.800 C 159.963 82.480,159.305 81.310,159.184 81.200 C 159.062 81.090,158.469 80.010,157.865 78.800 C 156.603 76.269,155.623 74.505,154.670 73.050 C 154.301 72.488,154.000 71.752,154.000 71.414 C 154.000 71.076,153.865 70.800,153.700 70.800 C 153.535 70.800,152.795 69.585,152.057 68.100 C 151.318 66.615,150.016 64.140,149.165 62.600 C 148.313 61.060,147.118 58.810,146.508 57.600 C 145.899 56.390,145.306 55.310,145.190 55.200 C 145.075 55.090,144.535 54.100,143.990 53.000 C 143.446 51.900,142.910 50.910,142.800 50.800 C 142.591 50.591,141.547 48.662,139.443 44.600 C 138.759 43.280,138.065 42.140,137.900 42.067 C 137.735 41.993,137.600 41.603,137.600 41.200 C 137.600 40.797,137.465 40.407,137.300 40.333 C 137.135 40.260,136.576 39.390,136.058 38.400 C 131.477 29.650,128.254 23.769,126.936 21.758 C 125.113 18.977,119.641 17.862,116.348 19.602 M123.313 20.141 C 125.203 20.936,126.843 22.688,128.233 25.400 C 130.243 29.320,134.102 36.569,134.409 37.000 C 134.566 37.220,135.555 39.020,136.608 41.000 C 137.661 42.980,138.974 45.410,139.526 46.400 C 140.077 47.390,141.084 49.280,141.762 50.600 C 142.440 51.920,143.087 53.090,143.198 53.200 C 143.310 53.310,143.671 53.939,144.001 54.597 C 144.330 55.256,145.335 57.146,146.233 58.797 C 147.132 60.449,148.822 63.600,149.991 65.800 C 151.159 68.000,153.202 71.780,154.530 74.200 C 155.858 76.620,157.428 79.500,158.018 80.600 C 158.608 81.700,159.745 83.815,160.545 85.300 C 161.345 86.785,162.603 89.125,163.341 90.500 C 164.078 91.875,165.132 93.810,165.683 94.800 C 166.234 95.790,167.776 98.670,169.109 101.200 C 170.442 103.730,171.949 106.581,172.459 107.536 C 174.296 110.973,174.609 110.777,178.110 104.004 C 179.192 101.912,181.118 98.220,182.391 95.800 C 187.854 85.410,189.025 83.178,191.097 79.200 C 194.553 72.564,195.661 71.450,199.297 70.952 C 203.264 70.408,206.197 72.315,208.633 77.019 C 210.923 81.442,214.881 88.983,216.391 91.800 C 217.217 93.340,219.025 96.760,220.409 99.400 C 221.793 102.040,223.641 105.550,224.516 107.200 C 225.391 108.850,226.870 111.640,227.802 113.400 C 228.734 115.160,230.260 118.040,231.194 119.800 C 237.048 130.835,240.443 137.668,240.330 138.186 C 240.173 138.907,227.984 151.194,137.654 241.691 C 99.066 280.351,67.329 311.880,67.127 311.755 C 66.917 311.625,66.958 311.291,67.223 310.972 C 67.477 310.666,67.853 309.287,68.057 307.908 C 68.261 306.528,68.594 304.320,68.796 303.000 C 69.521 298.270,69.950 295.371,70.187 293.600 C 70.319 292.610,70.590 291.080,70.788 290.200 C 70.986 289.320,71.355 287.160,71.607 285.400 C 71.860 283.640,72.222 281.300,72.411 280.200 C 72.601 279.100,72.869 277.210,73.007 276.000 C 73.145 274.790,73.515 272.360,73.831 270.600 C 74.146 268.840,74.599 266.050,74.837 264.400 C 75.540 259.535,75.903 257.169,76.402 254.200 C 76.661 252.660,77.032 250.320,77.225 249.000 C 77.418 247.680,77.767 245.430,78.000 244.000 C 78.233 242.570,78.602 240.230,78.820 238.800 C 79.304 235.630,79.837 232.255,80.400 228.800 C 80.633 227.370,80.993 225.120,81.200 223.800 C 81.407 222.480,81.750 220.320,81.961 219.000 C 82.173 217.680,82.544 215.340,82.786 213.800 C 83.028 212.260,83.406 209.920,83.625 208.600 C 83.844 207.280,84.193 205.120,84.400 203.800 C 84.607 202.480,84.948 200.320,85.158 199.000 C 85.368 197.680,85.736 195.340,85.975 193.800 C 86.215 192.260,86.595 189.920,86.821 188.600 C 87.047 187.280,87.405 185.075,87.616 183.700 C 88.780 176.125,89.436 171.970,90.000 168.600 C 90.258 167.060,90.624 164.810,90.814 163.600 C 91.004 162.390,91.263 160.770,91.390 160.000 C 91.517 159.230,91.808 157.250,92.036 155.600 C 92.265 153.950,92.605 151.880,92.792 151.000 C 92.980 150.120,93.346 147.870,93.606 146.000 C 93.866 144.130,94.345 141.070,94.669 139.200 C 94.994 137.330,95.508 134.000,95.813 131.800 C 96.117 129.600,96.723 125.727,97.160 123.194 C 97.597 120.661,98.158 117.151,98.407 115.394 C 98.655 113.637,99.033 111.120,99.245 109.800 C 99.457 108.480,99.809 106.230,100.028 104.800 C 100.554 101.366,101.028 98.415,101.602 95.000 C 101.861 93.460,102.232 91.120,102.425 89.800 C 102.618 88.480,102.967 86.230,103.200 84.800 C 103.433 83.370,103.792 81.120,103.997 79.800 C 104.486 76.649,105.110 72.775,105.607 69.800 C 105.827 68.480,106.108 66.410,106.230 65.200 C 106.352 63.990,106.612 62.640,106.807 62.200 C 107.002 61.760,107.252 60.500,107.363 59.400 C 107.474 58.300,107.762 56.230,108.002 54.800 C 108.243 53.370,108.537 51.210,108.655 50.000 C 108.774 48.790,109.035 47.629,109.235 47.420 C 109.436 47.211,109.600 46.032,109.600 44.800 C 109.600 43.568,109.764 42.389,109.965 42.180 C 110.165 41.971,110.426 40.810,110.545 39.600 C 110.663 38.390,110.958 36.230,111.200 34.800 C 111.442 33.370,111.737 31.210,111.855 30.000 C 111.974 28.790,112.235 27.629,112.435 27.420 C 112.636 27.211,112.800 26.534,112.800 25.915 C 112.800 21.646,118.910 18.290,123.313 20.141 M206.400 70.400 C 206.907 70.840,207.413 71.200,207.523 71.200 C 207.634 71.200,207.398 70.840,207.000 70.400 C 206.602 69.960,206.096 69.600,205.877 69.600 C 205.657 69.600,205.893 69.960,206.400 70.400 M183.657 88.857 C 183.375 89.309,183.232 89.766,183.340 89.873 C 183.447 89.981,183.744 89.678,184.000 89.200 C 184.605 88.070,184.324 87.790,183.657 88.857 M180.262 95.400 C 179.709 96.390,179.415 97.200,179.609 97.200 C 179.804 97.200,180.271 96.525,180.648 95.700 C 181.026 94.875,181.405 94.065,181.491 93.900 C 181.577 93.735,181.562 93.600,181.458 93.600 C 181.354 93.600,180.816 94.410,180.262 95.400 M168.832 96.420 C 168.791 97.213,169.703 99.193,170.110 99.197 C 170.281 99.199,170.171 98.705,169.865 98.100 C 169.560 97.495,169.209 96.730,169.086 96.400 C 168.893 95.880,168.859 95.882,168.832 96.420 M171.167 101.062 C 171.625 101.756,172.000 102.701,172.000 103.162 C 172.000 103.623,172.155 104.000,172.345 104.000 C 172.967 104.000,172.351 102.149,171.332 100.963 L 170.334 99.800 171.167 101.062 M254.175 124.100 L 253.000 125.400 254.300 124.225 C 255.015 123.579,255.600 122.994,255.600 122.925 C 255.600 122.616,255.270 122.888,254.175 124.100 " stroke="none" fill="#f4ab22" fill-rule="evenodd"></path><path id="path4" d="M118.544 16.490 C 118.297 16.890,119.175 16.841,120.200 16.398 C 120.882 16.103,120.833 16.062,119.868 16.116 C 119.245 16.151,118.650 16.319,118.544 16.490 M120.000 17.113 C 119.450 17.198,118.829 17.432,118.620 17.634 C 118.411 17.835,117.837 18.000,117.344 18.000 C 116.851 18.000,116.334 18.183,116.196 18.407 C 116.058 18.630,115.732 18.694,115.472 18.548 C 115.213 18.402,115.248 18.534,115.550 18.841 C 115.976 19.274,116.141 19.287,116.283 18.900 C 116.407 18.562,117.416 18.400,119.391 18.400 C 121.710 18.400,122.366 18.267,122.562 17.755 C 122.732 17.312,122.635 17.178,122.253 17.324 C 121.948 17.442,121.541 17.407,121.349 17.248 C 121.157 17.089,120.550 17.029,120.000 17.113 M288.212 91.580 C 288.070 91.811,287.695 92.000,287.381 92.000 C 286.418 92.000,266.800 111.106,266.800 112.044 C 266.800 112.240,266.649 112.400,266.465 112.400 C 266.144 112.400,264.712 113.793,256.515 122.076 C 254.488 124.124,250.393 128.201,247.414 131.134 C 244.272 134.229,241.888 136.909,241.735 137.516 C 241.573 138.161,236.697 143.353,229.036 151.035 C 222.196 157.895,183.255 196.883,142.500 237.676 C 101.745 278.469,68.400 312.067,68.400 312.337 C 68.400 313.411,73.352 308.507,177.800 204.010 C 237.200 144.582,286.373 95.602,287.072 95.164 C 290.498 93.023,295.556 94.248,298.009 97.813 C 299.282 99.664,299.247 99.498,301.600 114.400 C 301.826 115.830,302.194 118.080,302.419 119.400 C 303.213 124.070,303.550 126.229,303.885 128.800 C 304.072 130.230,304.338 131.581,304.476 131.803 C 304.614 132.025,304.774 133.105,304.831 134.203 C 304.888 135.301,305.065 136.380,305.224 136.600 C 305.508 136.991,305.740 138.546,306.240 143.400 C 306.376 144.720,306.647 145.971,306.843 146.180 C 307.040 146.389,307.200 147.388,307.200 148.400 C 307.200 149.412,307.364 150.411,307.565 150.620 C 307.765 150.829,308.035 152.035,308.165 153.300 C 308.294 154.565,308.506 156.635,308.635 157.900 C 308.765 159.165,309.035 160.371,309.235 160.580 C 309.436 160.789,309.600 161.925,309.600 163.104 C 309.600 164.431,309.752 165.153,310.000 165.000 C 310.539 164.667,310.517 160.800,309.976 160.800 C 309.743 160.800,309.631 160.665,309.726 160.500 C 309.822 160.335,309.735 159.210,309.534 158.000 C 308.961 154.546,308.421 150.776,308.196 148.654 C 308.083 147.584,307.869 146.511,307.720 146.270 C 307.571 146.030,307.393 144.846,307.323 143.639 C 307.254 142.432,307.057 141.345,306.886 141.223 C 306.715 141.100,306.585 140.190,306.597 139.200 C 306.609 138.210,306.481 136.986,306.312 136.479 C 306.143 135.973,305.915 134.803,305.805 133.879 C 305.695 132.956,305.424 131.315,305.202 130.234 C 304.981 129.152,304.888 128.179,304.996 128.070 C 305.104 127.962,304.990 127.629,304.742 127.330 C 304.494 127.031,304.246 125.845,304.191 124.693 C 304.068 122.150,303.689 119.478,303.184 117.600 C 302.829 116.280,302.641 114.955,302.132 110.200 C 302.014 109.100,301.784 108.020,301.620 107.800 C 301.457 107.580,301.281 106.320,301.231 105.000 C 301.180 103.680,300.973 102.540,300.769 102.467 C 300.566 102.393,300.400 101.467,300.400 100.407 C 300.400 97.651,298.051 93.236,296.390 92.870 C 296.066 92.798,295.740 92.573,295.667 92.370 C 295.593 92.166,295.188 92.000,294.767 92.000 C 294.345 92.000,294.000 91.847,294.000 91.661 C 294.000 91.159,288.520 91.082,288.212 91.580 M310.406 167.500 C 310.403 168.904,310.575 170.000,310.800 170.000 C 311.312 170.000,311.312 166.393,310.800 165.600 C 310.527 165.177,310.410 165.738,310.406 167.500 M311.200 172.600 C 311.200 173.810,311.380 174.800,311.600 174.800 C 311.822 174.800,312.000 175.859,312.000 177.176 C 312.000 178.483,312.180 179.664,312.400 179.800 C 312.620 179.936,312.800 181.153,312.800 182.504 C 312.800 184.294,312.920 184.840,313.241 184.519 C 313.521 184.239,313.589 183.296,313.428 181.939 C 313.288 180.762,313.074 178.675,312.952 177.300 C 312.831 175.925,312.567 174.800,312.366 174.800 C 312.165 174.800,312.000 173.810,312.000 172.600 C 312.000 171.390,311.820 170.400,311.600 170.400 C 311.380 170.400,311.200 171.390,311.200 172.600 M313.600 187.200 C 313.600 188.520,313.764 189.600,313.964 189.600 C 314.165 189.600,314.430 190.635,314.553 191.900 C 315.061 197.109,315.292 198.619,315.637 198.980 C 315.837 199.189,316.000 200.314,316.000 201.480 C 316.000 202.751,316.176 203.600,316.439 203.600 C 316.733 203.600,316.794 202.911,316.623 201.500 C 316.484 200.345,316.272 198.184,316.152 196.697 C 316.032 195.210,315.769 194.096,315.567 194.220 C 315.363 194.346,315.200 193.560,315.200 192.450 C 315.200 191.351,315.029 190.002,314.820 189.452 C 314.611 188.902,314.397 187.630,314.345 186.626 C 314.206 183.936,313.600 184.403,313.600 187.200 M316.737 206.199 C 316.812 207.410,317.047 208.400,317.258 208.400 C 317.765 208.400,317.517 204.302,317.000 204.131 C 316.755 204.050,316.653 204.852,316.737 206.199 M317.521 210.700 C 317.590 211.745,317.762 212.870,317.903 213.200 C 318.147 213.773,318.273 214.902,318.360 217.287 C 318.388 218.033,318.572 218.309,318.947 218.165 C 319.473 217.963,319.241 215.489,318.519 213.600 C 318.392 213.270,318.328 212.419,318.374 211.709 C 318.468 210.297,318.105 208.800,317.670 208.800 C 317.518 208.800,317.451 209.655,317.521 210.700 M319.037 219.600 C 318.707 221.209,319.330 223.469,319.790 222.333 C 319.939 221.966,319.895 220.886,319.692 219.933 L 319.324 218.200 319.037 219.600 M319.735 224.626 C 319.592 224.998,319.677 226.134,319.923 227.151 C 320.169 228.168,320.491 229.873,320.637 230.940 C 320.924 233.036,321.595 232.774,321.372 230.654 C 320.828 225.499,320.645 224.352,320.341 224.163 C 320.150 224.046,319.878 224.254,319.735 224.626 M321.200 234.826 C 321.200 235.721,321.404 236.833,321.653 237.299 C 321.902 237.765,322.160 238.878,322.226 239.773 C 322.554 244.226,322.928 246.800,323.247 246.800 C 323.441 246.800,323.600 247.803,323.600 249.029 C 323.600 250.486,323.810 251.467,324.206 251.863 C 324.943 252.601,324.710 248.903,323.886 246.800 C 323.597 246.063,323.225 243.418,322.944 240.100 C 322.827 238.725,322.601 237.600,322.441 237.600 C 322.281 237.600,322.170 236.835,322.193 235.900 C 322.243 233.951,322.066 233.200,321.557 233.200 C 321.361 233.200,321.200 233.932,321.200 234.826 M324.400 254.576 C 324.400 255.553,324.580 256.464,324.800 256.600 C 325.047 256.752,325.200 256.071,325.200 254.824 C 325.200 253.711,325.020 252.800,324.800 252.800 C 324.580 252.800,324.400 253.599,324.400 254.576 M325.200 259.253 C 325.200 260.757,325.360 261.467,325.700 261.467 C 326.047 261.467,326.158 260.908,326.061 259.634 C 325.855 256.915,325.200 256.626,325.200 259.253 M326.006 263.900 C 326.003 265.055,326.180 266.000,326.400 266.000 C 326.912 266.000,326.912 263.192,326.400 262.400 C 326.122 261.970,326.011 262.397,326.006 263.900 M326.806 268.700 C 326.803 270.104,326.975 271.200,327.200 271.200 C 327.712 271.200,327.712 267.593,327.200 266.800 C 326.927 266.377,326.810 266.938,326.806 268.700 M327.606 273.476 C 327.603 274.618,327.780 275.664,328.000 275.800 C 328.521 276.122,328.521 272.806,328.000 272.000 C 327.722 271.570,327.611 271.988,327.606 273.476 M328.400 278.600 C 328.400 279.996,328.551 280.754,328.800 280.600 C 329.020 280.464,329.200 279.564,329.200 278.600 C 329.200 277.636,329.020 276.736,328.800 276.600 C 328.551 276.446,328.400 277.204,328.400 278.600 M329.200 283.600 C 329.200 284.863,329.353 285.553,329.600 285.400 C 329.820 285.264,330.000 284.454,330.000 283.600 C 330.000 282.746,329.820 281.936,329.600 281.800 C 329.353 281.647,329.200 282.337,329.200 283.600 M330.000 288.200 C 330.000 289.596,330.151 290.354,330.400 290.200 C 330.620 290.064,330.800 289.164,330.800 288.200 C 330.800 287.236,330.620 286.336,330.400 286.200 C 330.151 286.046,330.000 286.804,330.000 288.200 M330.806 293.124 C 330.802 294.706,330.949 295.555,331.200 295.400 C 331.711 295.084,331.711 291.990,331.200 291.200 C 330.927 290.778,330.810 291.347,330.806 293.124 M331.606 297.876 C 331.603 299.018,331.780 300.064,332.000 300.200 C 332.521 300.522,332.521 297.206,332.000 296.400 C 331.722 295.970,331.611 296.388,331.606 297.876 M332.400 302.733 C 332.400 304.013,332.569 304.667,332.900 304.667 C 333.250 304.668,333.358 304.088,333.261 302.734 C 333.081 300.222,332.400 300.221,332.400 302.733 M333.240 307.324 C 333.215 308.780,333.349 309.555,333.600 309.400 C 334.063 309.114,334.063 307.446,333.600 306.000 C 333.356 305.239,333.270 305.556,333.240 307.324 " stroke="none" fill="#fcd456" fill-rule="evenodd"></path></g></svg>
