<svg id="svg" xmlns="http://www.w3.org/2000/svg" xmlns:xlink="http://www.w3.org/1999/xlink" width="133.3" height="66.67" viewBox="0, 0, 400,200"><g id="svgg"><path id="path0" d="M292.138 28.529 C 291.981 28.686,289.765 29.598,289.537 29.599 C 289.026 29.602,285.714 32.725,285.497 33.408 C 285.429 33.622,285.259 33.913,285.118 34.053 C 283.768 35.404,283.778 45.407,285.131 46.760 C 285.279 46.907,285.454 47.247,285.521 47.514 C 285.588 47.781,285.711 48.000,285.794 48.000 C 285.878 48.000,286.202 48.370,286.515 48.822 C 288.157 51.191,291.639 52.500,296.300 52.500 C 300.501 52.500,302.870 51.785,305.243 49.800 C 306.138 49.051,307.799 46.351,307.801 45.639 C 307.802 45.453,307.959 45.030,308.151 44.700 C 308.449 44.188,308.500 43.556,308.500 40.400 C 308.500 37.244,308.449 36.612,308.151 36.100 C 307.959 35.770,307.802 35.347,307.801 35.161 C 307.794 33.280,304.845 30.412,301.539 29.072 L 299.900 28.407 296.083 28.403 C 293.984 28.402,292.209 28.458,292.138 28.529 M334.717 41.647 C 334.394 42.765,334.167 44.225,334.273 44.501 C 334.344 44.686,334.275 45.121,334.120 45.468 C 333.965 45.816,333.788 46.579,333.727 47.164 C 333.666 47.749,333.477 48.505,333.308 48.844 C 333.139 49.184,333.000 49.727,333.000 50.051 C 333.000 50.374,332.853 50.968,332.673 51.370 C 332.079 52.700,331.655 53.692,331.402 54.350 C 331.264 54.708,331.072 55.000,330.976 55.000 C 330.879 55.000,330.800 55.105,330.800 55.234 C 330.800 55.363,330.650 55.634,330.468 55.836 C 330.285 56.038,330.038 56.364,329.918 56.561 C 329.184 57.769,328.797 58.223,327.584 59.300 C 326.182 60.545,323.800 61.972,323.095 61.990 C 322.871 61.995,322.500 62.132,322.270 62.294 C 322.039 62.455,321.457 62.646,320.975 62.718 C 320.494 62.791,319.830 62.963,319.500 63.103 C 319.170 63.242,318.360 63.433,317.700 63.528 L 316.500 63.700 316.500 69.600 L 316.500 75.500 321.109 75.554 L 325.719 75.607 326.359 76.192 L 327.000 76.777 327.000 97.577 C 327.000 109.240,327.077 118.424,327.175 118.485 C 327.271 118.544,327.404 119.067,327.471 119.646 C 327.678 121.454,327.915 122.684,328.135 123.100 C 328.252 123.320,328.407 123.828,328.479 124.230 C 328.551 124.631,328.743 125.070,328.905 125.204 C 329.067 125.339,329.200 125.606,329.200 125.798 C 329.200 125.989,329.380 126.375,329.600 126.655 C 329.820 126.934,330.000 127.261,330.000 127.381 C 330.000 127.682,331.684 129.811,332.309 130.300 C 332.590 130.520,333.108 130.935,333.460 131.223 C 333.812 131.510,334.685 132.033,335.400 132.384 C 336.115 132.736,336.835 133.095,337.000 133.183 C 337.877 133.650,340.097 134.207,341.549 134.324 C 342.548 134.405,343.288 134.564,343.424 134.729 C 343.762 135.136,354.447 135.126,354.785 134.718 C 354.941 134.530,355.665 134.393,356.960 134.308 C 358.027 134.238,359.130 134.055,359.410 133.902 C 359.691 133.749,360.411 133.560,361.010 133.482 C 361.610 133.403,362.280 133.228,362.500 133.092 C 362.720 132.956,363.234 132.786,363.642 132.715 C 364.049 132.644,364.634 132.454,364.942 132.294 C 365.249 132.134,365.625 132.002,365.778 132.001 C 366.143 132.000,369.410 130.721,370.750 130.056 C 371.978 129.446,371.995 129.352,371.182 127.630 C 370.842 126.911,370.490 125.912,370.400 125.411 C 370.310 124.910,370.014 123.870,369.741 123.100 C 369.468 122.330,369.187 121.430,369.115 121.100 C 369.044 120.770,368.756 119.860,368.476 119.079 L 367.967 117.658 367.134 117.814 C 366.675 117.900,366.030 118.112,365.700 118.284 C 365.370 118.456,364.895 118.598,364.644 118.599 C 364.393 118.599,363.853 118.741,363.444 118.913 C 363.035 119.085,361.890 119.294,360.900 119.379 C 359.910 119.463,358.903 119.638,358.663 119.766 C 358.035 120.102,355.110 120.073,354.823 119.728 C 354.699 119.578,354.077 119.408,353.442 119.351 C 352.038 119.223,349.415 117.619,349.403 116.881 C 349.402 116.761,349.220 116.499,349.000 116.300 C 348.780 116.101,348.599 115.794,348.599 115.619 C 348.598 115.444,348.441 115.030,348.249 114.700 C 347.828 113.976,347.590 76.766,348.001 75.998 C 348.206 75.615,348.493 75.602,358.156 75.552 L 368.100 75.500 368.153 68.850 C 368.182 65.192,368.182 62.180,368.153 62.155 C 368.124 62.130,363.555 62.062,358.000 62.005 L 347.900 61.900 347.800 51.700 L 347.700 41.500 341.245 41.447 C 336.178 41.406,334.774 41.449,334.717 41.647 M227.752 63.877 C 227.540 64.038,226.489 64.196,225.060 64.281 C 223.770 64.358,222.609 64.510,222.479 64.618 C 222.349 64.726,221.760 64.869,221.171 64.937 C 220.582 65.005,219.786 65.227,219.403 65.431 C 219.020 65.634,218.468 65.800,218.177 65.800 C 217.887 65.800,217.542 65.929,217.411 66.087 C 217.280 66.245,216.886 66.437,216.536 66.514 C 216.186 66.591,215.586 66.821,215.203 67.027 C 214.820 67.232,214.446 67.400,214.374 67.400 C 214.301 67.400,213.445 67.940,212.471 68.600 C 211.497 69.260,210.475 69.951,210.200 70.136 C 209.368 70.694,207.407 72.649,206.825 73.500 C 206.523 73.940,205.956 74.755,205.564 75.311 C 205.172 75.868,204.784 76.543,204.702 76.811 C 204.620 77.080,204.435 77.435,204.292 77.600 C 204.149 77.765,203.970 78.144,203.896 78.442 C 203.822 78.740,203.635 79.088,203.480 79.216 C 203.326 79.344,203.200 79.667,203.200 79.932 C 203.200 80.198,203.031 80.750,202.824 81.158 C 202.617 81.566,202.382 82.471,202.302 83.169 C 202.222 83.867,202.032 84.677,201.879 84.969 C 201.463 85.767,201.477 94.536,201.896 95.133 C 202.058 95.365,202.252 96.083,202.326 96.728 C 202.400 97.372,202.627 98.214,202.830 98.597 C 203.034 98.980,203.200 99.451,203.200 99.643 C 203.200 99.834,203.484 100.511,203.831 101.145 C 204.178 101.780,204.561 102.483,204.681 102.707 C 205.523 104.271,207.504 106.603,209.125 107.938 C 210.385 108.975,210.848 109.306,211.850 109.887 C 213.016 110.564,213.141 111.225,212.201 111.759 C 211.872 111.947,211.602 112.168,211.601 112.250 C 211.601 112.333,211.488 112.401,211.350 112.403 C 211.017 112.408,204.064 119.464,203.300 120.573 C 202.008 122.448,201.988 122.484,201.285 124.143 C 200.867 125.132,200.864 129.838,201.281 130.434 C 201.456 130.684,201.600 131.083,201.600 131.320 C 201.600 132.203,203.693 134.478,205.661 135.733 C 206.677 136.382,206.586 136.591,204.290 138.847 C 203.253 139.866,202.404 140.775,202.402 140.866 C 202.401 140.958,202.096 141.408,201.724 141.866 C 201.353 142.325,200.982 142.925,200.901 143.200 C 200.819 143.475,200.638 143.835,200.498 144.000 C 200.358 144.165,200.179 144.696,200.099 145.180 C 200.020 145.663,199.830 146.358,199.677 146.723 C 199.277 147.682,199.293 152.757,199.700 153.731 C 199.865 154.126,200.000 154.577,200.000 154.733 C 200.000 154.992,200.888 156.921,201.462 157.910 C 202.849 160.297,208.040 163.889,210.997 164.507 C 211.380 164.587,211.875 164.765,212.097 164.903 C 212.319 165.041,212.990 165.215,213.589 165.289 C 214.187 165.363,214.772 165.486,214.889 165.562 C 215.559 165.999,221.585 166.761,224.556 166.784 C 225.899 166.794,226.862 166.904,227.331 167.100 C 228.373 167.536,238.111 167.530,238.688 167.094 C 238.959 166.889,239.623 166.796,240.888 166.786 C 243.024 166.769,245.090 166.555,247.300 166.122 C 248.180 165.949,249.140 165.806,249.433 165.804 C 249.727 165.802,249.997 165.730,250.033 165.645 C 250.070 165.560,250.685 165.345,251.400 165.167 C 252.684 164.846,253.040 164.733,255.200 163.957 C 257.136 163.262,259.798 161.993,259.799 161.763 C 259.800 161.688,259.989 161.567,260.221 161.493 C 260.623 161.366,261.834 160.629,262.342 160.203 C 262.474 160.091,262.667 160.000,262.769 160.000 C 263.505 160.000,268.295 154.380,268.692 153.050 C 268.766 152.803,268.904 152.600,268.998 152.600 C 269.091 152.600,269.229 152.308,269.304 151.950 C 269.378 151.593,269.552 151.120,269.689 150.900 C 269.827 150.680,270.006 150.140,270.088 149.700 C 270.169 149.260,270.338 148.777,270.462 148.626 C 271.156 147.787,271.187 137.794,270.500 136.400 C 270.364 136.125,270.196 135.580,270.125 135.189 C 270.054 134.798,269.817 134.126,269.598 133.696 C 269.379 133.267,269.200 132.799,269.200 132.658 C 269.200 132.516,269.107 132.400,268.994 132.400 C 268.880 132.400,268.723 132.243,268.644 132.050 C 268.385 131.419,266.551 129.211,266.190 129.097 C 265.996 129.035,265.786 128.853,265.725 128.692 C 265.663 128.532,265.519 128.400,265.404 128.400 C 265.290 128.400,264.748 128.085,264.200 127.700 C 263.652 127.315,263.154 127.000,263.094 127.000 C 263.033 127.000,262.413 126.734,261.717 126.408 C 261.020 126.082,259.876 125.667,259.175 125.486 C 258.474 125.304,257.720 125.085,257.500 124.999 C 257.280 124.912,256.560 124.737,255.900 124.609 C 255.240 124.481,254.430 124.297,254.100 124.201 C 253.770 124.105,252.465 123.966,251.200 123.892 C 249.882 123.815,248.722 123.646,248.484 123.496 C 248.197 123.317,246.758 123.189,243.884 123.088 C 241.113 122.991,239.565 122.857,239.300 122.691 C 239.021 122.517,237.261 122.398,233.500 122.299 C 230.064 122.209,227.954 122.075,227.700 121.929 C 227.469 121.797,225.947 121.658,224.100 121.600 L 220.900 121.500 220.920 120.800 C 220.934 120.296,221.262 119.626,222.091 118.411 C 222.724 117.482,223.294 116.582,223.358 116.411 C 223.502 116.023,224.232 114.954,224.500 114.740 C 224.823 114.481,229.035 114.802,229.489 115.120 C 230.059 115.519,240.106 115.528,241.059 115.130 C 241.415 114.981,242.467 114.793,243.397 114.712 C 244.327 114.631,245.541 114.393,246.094 114.183 C 246.647 113.972,247.342 113.800,247.638 113.800 C 247.934 113.800,248.232 113.710,248.300 113.600 C 248.368 113.490,248.821 113.300,249.306 113.178 C 249.791 113.056,250.292 112.831,250.418 112.678 C 250.545 112.525,250.885 112.397,251.174 112.394 C 251.464 112.391,252.238 112.031,252.896 111.594 C 253.553 111.157,254.192 110.800,254.315 110.800 C 254.438 110.800,254.701 110.620,254.900 110.400 C 255.099 110.180,255.344 110.000,255.444 110.000 C 255.545 110.000,255.924 109.685,256.287 109.300 C 256.650 108.915,257.039 108.600,257.152 108.600 C 257.455 108.600,259.356 106.655,259.501 106.196 C 259.570 105.978,259.700 105.800,259.789 105.800 C 260.082 105.800,262.357 102.250,262.503 101.567 C 262.581 101.200,262.773 100.754,262.931 100.575 C 263.088 100.396,263.273 99.901,263.340 99.475 C 263.408 99.049,263.573 98.520,263.708 98.300 C 263.985 97.847,264.246 96.084,264.207 94.929 C 264.193 94.505,264.321 93.946,264.491 93.686 C 264.891 93.075,264.916 90.210,264.528 89.440 C 264.378 89.143,264.200 88.144,264.132 87.221 C 264.064 86.298,263.883 85.351,263.729 85.117 C 263.576 84.883,263.387 84.316,263.310 83.857 C 263.232 83.398,263.047 82.922,262.897 82.798 C 262.748 82.674,262.568 82.309,262.497 81.986 C 262.426 81.664,262.294 81.400,262.204 81.400 C 262.113 81.400,261.946 81.132,261.831 80.804 C 261.717 80.477,261.527 80.094,261.410 79.954 C 259.915 78.181,259.798 77.600,260.934 77.600 C 261.201 77.600,261.663 77.475,261.960 77.322 C 262.344 77.125,263.808 77.003,267.038 76.898 C 273.008 76.706,272.400 77.408,272.400 70.704 C 272.400 66.699,272.340 65.385,272.150 65.262 C 272.012 65.173,265.681 65.055,258.081 65.000 C 247.065 64.920,244.197 64.847,243.944 64.637 C 243.744 64.471,242.792 64.333,241.364 64.264 C 239.961 64.195,238.931 64.048,238.657 63.877 C 238.029 63.484,228.269 63.484,227.752 63.877 M280.025 64.050 C 279.933 64.297,279.901 64.842,279.952 65.259 C 280.014 65.759,279.944 66.134,279.748 66.359 C 279.539 66.599,279.410 67.427,279.313 69.150 C 279.230 70.634,279.063 71.818,278.889 72.150 C 278.108 73.647,278.606 74.808,280.235 75.292 C 280.794 75.458,281.356 75.680,281.484 75.786 C 281.611 75.892,282.072 76.069,282.508 76.178 C 285.035 76.813,286.747 77.589,287.300 78.350 C 287.902 79.177,287.934 121.915,287.333 122.278 C 287.131 122.400,286.780 122.658,286.552 122.850 C 286.272 123.087,285.798 123.200,285.082 123.200 C 284.501 123.200,283.773 123.305,283.463 123.433 C 283.153 123.562,281.955 123.764,280.800 123.883 L 278.700 124.100 278.644 129.100 C 278.613 131.850,278.637 134.303,278.698 134.551 L 278.808 135.002 298.154 134.951 L 317.500 134.900 317.500 129.500 L 317.500 124.100 315.500 123.875 C 314.400 123.751,313.186 123.548,312.801 123.425 C 312.417 123.301,311.671 123.200,311.143 123.200 C 310.576 123.200,309.861 123.035,309.392 122.796 L 308.600 122.392 308.600 93.312 C 308.600 77.319,308.545 64.090,308.479 63.916 C 308.369 63.632,306.932 63.600,294.274 63.600 L 280.190 63.600 280.025 64.050 M236.800 77.300 C 237.075 77.457,237.556 77.589,237.870 77.593 C 238.440 77.600,238.988 77.807,240.944 78.754 C 242.099 79.313,244.296 81.365,244.741 82.300 C 244.898 82.630,245.284 83.395,245.600 84.000 C 246.016 84.796,246.180 85.404,246.194 86.200 C 246.205 86.830,246.338 87.466,246.506 87.688 C 246.890 88.195,246.886 89.945,246.500 90.869 C 246.335 91.264,246.197 91.883,246.193 92.244 C 246.189 92.605,246.013 93.260,245.800 93.700 C 245.587 94.140,245.411 94.565,245.407 94.644 C 245.373 95.369,242.103 99.000,241.484 99.000 C 241.361 99.000,241.054 99.180,240.800 99.400 C 240.546 99.620,240.193 99.800,240.014 99.800 C 239.835 99.800,239.494 99.937,239.255 100.104 C 238.220 100.829,231.924 101.310,230.100 100.804 C 226.808 99.890,224.749 98.839,223.696 97.533 C 223.415 97.185,223.009 96.690,222.793 96.433 C 222.577 96.176,222.400 95.850,222.400 95.707 C 222.400 95.565,222.265 95.337,222.100 95.200 C 221.935 95.063,221.799 94.760,221.799 94.526 C 221.798 94.291,221.641 93.830,221.449 93.500 C 221.021 92.765,220.922 86.078,221.330 85.581 C 221.457 85.426,221.663 84.918,221.788 84.450 C 221.913 83.983,222.092 83.600,222.186 83.600 C 222.280 83.600,222.414 83.373,222.483 83.095 C 222.621 82.545,222.687 82.457,224.241 80.731 C 224.821 80.088,225.561 79.423,225.887 79.255 C 226.214 79.086,226.604 78.825,226.755 78.674 C 226.905 78.523,227.192 78.400,227.392 78.400 C 227.593 78.400,228.149 78.222,228.628 78.004 C 229.108 77.787,229.737 77.607,230.027 77.604 C 230.317 77.602,230.812 77.466,231.127 77.301 C 231.913 76.891,236.084 76.891,236.800 77.300 M225.800 140.322 C 228.723 140.407,230.475 140.540,230.800 140.701 C 231.130 140.865,233.002 140.998,236.299 141.094 C 239.048 141.173,241.471 141.331,241.683 141.445 C 241.895 141.558,243.021 141.722,244.184 141.809 C 245.431 141.902,246.546 142.097,246.900 142.282 C 247.230 142.456,247.635 142.600,247.800 142.603 C 248.352 142.612,250.000 143.786,250.000 144.169 C 250.000 144.372,250.189 144.709,250.419 144.918 C 250.965 145.411,250.915 147.921,250.347 148.548 C 250.156 148.759,250.000 149.068,250.000 149.235 C 250.000 149.496,249.595 150.106,249.055 150.659 C 248.125 151.610,244.853 153.138,243.304 153.345 C 242.867 153.403,242.286 153.597,242.013 153.775 C 241.231 154.288,224.535 154.265,223.748 153.750 C 223.443 153.550,222.835 153.400,222.330 153.400 C 220.981 153.400,218.191 151.905,216.850 150.463 L 215.800 149.335 215.800 147.174 C 215.800 144.808,215.942 144.368,217.373 142.300 C 219.066 139.854,218.951 139.944,220.190 140.074 C 220.800 140.138,223.325 140.250,225.800 140.322 " stroke="none" fill="#3b3330" fill-rule="evenodd"></path><path id="path1" d="M0.000 100.000 L 0.000 200.000 200.000 200.000 L 400.000 200.000 400.000 100.000 L 400.000 0.000 200.000 0.000 L 0.000 0.000 0.000 100.000 M300.748 28.200 C 301.158 28.420,301.642 28.600,301.823 28.600 C 302.003 28.600,302.263 28.735,302.400 28.900 C 302.537 29.065,302.791 29.200,302.964 29.200 C 303.317 29.200,304.814 30.163,305.060 30.549 C 305.148 30.687,305.310 30.800,305.420 30.800 C 305.663 30.800,306.585 31.822,306.594 32.102 C 306.597 32.213,306.780 32.416,307.000 32.554 C 307.220 32.691,307.400 32.946,307.400 33.120 C 307.400 33.294,307.580 33.666,307.800 33.945 C 308.020 34.225,308.200 34.626,308.200 34.837 C 308.200 35.048,308.358 35.508,308.550 35.860 C 308.849 36.408,308.900 37.063,308.900 40.400 C 308.900 43.737,308.849 44.392,308.550 44.940 C 308.358 45.292,308.200 45.752,308.200 45.963 C 308.200 46.174,308.020 46.575,307.800 46.855 C 307.580 47.134,307.400 47.492,307.400 47.651 C 307.400 47.809,307.220 48.101,307.000 48.300 C 306.780 48.499,306.600 48.752,306.600 48.862 C 306.600 49.104,305.100 50.599,304.516 50.940 C 301.598 52.643,299.852 53.046,295.731 52.967 C 293.538 52.924,292.157 52.816,291.980 52.673 C 291.826 52.548,291.385 52.380,291.000 52.298 C 290.109 52.110,288.400 51.255,288.400 50.997 C 288.400 50.888,288.293 50.800,288.162 50.800 C 287.784 50.800,286.603 49.925,286.601 49.644 C 286.601 49.503,286.465 49.336,286.300 49.272 C 286.135 49.209,286.000 49.036,286.000 48.889 C 286.000 48.741,285.869 48.547,285.709 48.457 C 285.348 48.255,284.400 46.501,284.400 46.034 C 284.400 45.844,284.243 45.466,284.050 45.195 C 283.743 44.761,283.700 44.174,283.700 40.400 C 283.700 36.626,283.743 36.039,284.050 35.605 C 284.243 35.334,284.400 34.956,284.400 34.766 C 284.400 34.072,285.367 32.633,286.717 31.320 C 288.524 29.562,288.706 29.400,288.879 29.400 C 289.058 29.400,291.114 28.480,291.800 28.093 C 292.675 27.599,299.786 27.684,300.748 28.200 M103.000 28.495 C 103.495 28.757,104.192 29.115,104.550 29.289 C 104.908 29.463,105.200 29.694,105.200 29.803 C 105.200 29.911,105.357 30.000,105.549 30.000 C 106.017 30.000,169.236 93.201,170.066 94.500 C 171.028 96.004,171.206 96.358,171.615 97.579 C 172.087 98.990,172.134 101.697,171.701 102.527 C 171.537 102.842,171.402 103.291,171.401 103.526 C 171.401 103.760,171.271 104.058,171.113 104.189 C 170.955 104.320,170.765 104.714,170.690 105.064 C 170.527 105.831,107.286 169.255,105.344 170.600 C 103.492 171.881,103.056 172.000,100.206 172.000 C 97.728 172.000,97.108 171.880,96.000 171.187 C 95.835 171.084,95.475 170.905,95.200 170.790 C 94.532 170.512,29.659 105.667,29.281 104.900 C 29.118 104.570,28.769 103.895,28.505 103.400 C 27.513 101.545,27.833 96.810,29.017 95.800 C 29.082 95.745,29.234 95.409,29.355 95.054 C 29.477 94.699,29.694 94.272,29.838 94.104 C 31.326 92.374,73.722 50.200,73.973 50.200 C 74.334 50.200,89.910 65.672,90.319 66.436 C 90.510 66.793,90.507 67.037,90.303 67.594 C 88.718 71.922,91.066 78.560,94.700 80.026 C 94.810 80.070,95.238 80.316,95.650 80.573 L 96.400 81.040 96.400 100.802 L 96.400 120.564 95.785 121.082 C 95.446 121.367,95.055 121.600,94.916 121.600 C 94.776 121.600,94.499 121.780,94.300 122.000 C 94.101 122.220,93.844 122.400,93.729 122.400 C 93.471 122.400,92.200 123.611,92.200 123.856 C 92.200 123.953,91.896 124.408,91.524 124.866 C 91.153 125.325,90.783 125.925,90.704 126.200 C 90.624 126.475,90.444 126.882,90.305 127.104 C 89.265 128.760,89.783 134.164,91.141 135.816 C 91.283 135.989,91.400 136.245,91.400 136.383 C 91.400 137.216,94.650 139.863,96.344 140.408 C 96.760 140.542,97.190 140.720,97.300 140.802 C 98.161 141.449,102.164 141.384,103.700 140.699 C 104.030 140.551,104.541 140.371,104.835 140.298 C 105.129 140.224,105.728 139.857,106.167 139.482 C 106.605 139.107,107.046 138.800,107.146 138.800 C 107.442 138.800,109.260 136.377,109.775 135.297 C 110.036 134.749,110.373 134.045,110.525 133.734 C 111.716 131.283,110.482 126.208,108.059 123.590 C 107.443 122.925,106.546 122.151,106.065 121.869 C 105.584 121.587,105.103 121.192,104.995 120.991 C 104.666 120.375,104.734 81.813,105.066 81.686 C 105.359 81.573,119.908 95.996,120.095 96.584 C 120.157 96.778,120.060 97.559,119.881 98.319 C 119.383 100.430,119.322 101.674,119.669 102.646 C 119.837 103.115,120.028 103.828,120.093 104.230 C 120.157 104.631,120.343 105.070,120.505 105.204 C 120.667 105.339,120.800 105.604,120.800 105.793 C 120.800 105.983,120.980 106.301,121.200 106.500 C 121.420 106.699,121.600 106.964,121.600 107.089 C 121.600 107.571,124.744 110.200,125.321 110.200 C 125.430 110.200,125.626 110.306,125.755 110.435 C 127.175 111.855,132.721 111.657,135.269 110.094 C 136.503 109.338,138.000 108.190,138.000 108.001 C 138.000 107.921,138.278 107.505,138.619 107.078 C 142.476 102.231,140.577 94.182,134.927 91.425 C 132.796 90.385,129.333 90.073,126.933 90.704 C 126.394 90.846,125.992 90.481,118.861 83.377 C 109.994 74.541,109.523 73.965,110.624 73.285 C 110.870 73.133,110.848 68.653,110.600 68.500 C 110.490 68.432,110.400 68.169,110.400 67.916 C 110.400 66.289,107.257 62.652,104.807 61.443 L 103.300 60.700 100.500 60.721 C 98.960 60.733,97.400 60.770,97.034 60.804 C 96.314 60.872,80.000 44.944,80.000 44.173 C 80.000 43.845,92.374 31.330,93.866 30.148 C 96.569 28.007,100.681 27.263,103.000 28.495 M347.968 41.309 C 348.134 41.674,348.200 44.628,348.200 51.704 L 348.200 61.589 358.183 61.645 C 363.674 61.675,368.242 61.775,368.333 61.866 C 368.598 62.130,368.663 74.569,368.405 75.448 L 368.185 76.196 358.243 76.248 L 348.300 76.300 348.249 94.678 C 348.219 105.309,348.274 113.150,348.377 113.278 C 348.476 113.400,348.661 114.011,348.789 114.635 C 348.917 115.259,349.152 115.877,349.311 116.009 C 349.470 116.141,349.600 116.353,349.600 116.480 C 349.600 116.882,351.140 118.065,352.534 118.733 C 353.638 119.262,360.851 119.271,362.154 118.745 C 362.624 118.555,363.285 118.400,363.624 118.400 C 363.962 118.400,364.523 118.270,364.870 118.111 C 367.064 117.103,368.400 116.939,368.400 117.677 C 368.400 117.803,368.580 118.242,368.800 118.652 C 369.020 119.063,369.200 119.604,369.200 119.855 C 369.200 120.106,369.327 120.492,369.481 120.713 C 369.636 120.934,369.829 121.561,369.910 122.107 C 369.991 122.653,370.224 123.414,370.429 123.797 C 370.633 124.180,370.800 124.752,370.800 125.066 C 370.800 125.381,371.115 126.302,371.500 127.114 C 372.514 129.251,372.058 130.770,370.389 130.806 C 370.230 130.810,369.925 130.945,369.712 131.106 C 369.498 131.268,369.183 131.401,369.012 131.401 C 368.840 131.402,368.445 131.535,368.133 131.698 C 367.822 131.861,367.192 132.089,366.733 132.205 C 366.275 132.321,365.720 132.499,365.500 132.599 C 364.621 133.001,362.043 133.800,361.628 133.800 C 361.385 133.800,360.984 133.933,360.736 134.095 C 360.489 134.257,359.615 134.449,358.793 134.522 C 357.972 134.595,357.210 134.720,357.100 134.801 C 356.178 135.475,341.996 135.470,341.100 134.795 C 340.990 134.712,340.342 134.581,339.659 134.504 C 338.977 134.426,338.313 134.236,338.185 134.081 C 338.056 133.927,337.793 133.800,337.600 133.800 C 337.275 133.800,335.984 133.233,334.482 132.430 C 333.246 131.770,330.601 129.419,330.600 128.979 C 330.600 128.913,330.375 128.616,330.100 128.319 C 329.825 128.022,329.600 127.660,329.600 127.514 C 329.600 127.368,329.474 127.144,329.320 127.016 C 329.165 126.888,328.981 126.551,328.910 126.268 C 328.839 125.984,328.650 125.621,328.490 125.462 C 328.331 125.302,328.200 124.994,328.200 124.778 C 328.200 124.561,328.020 124.031,327.800 123.600 C 327.580 123.169,327.400 122.437,327.400 121.974 C 327.400 121.452,327.267 120.984,327.050 120.745 C 326.722 120.382,326.696 118.997,326.644 98.629 L 326.587 76.900 326.144 76.554 C 325.753 76.250,325.148 76.208,321.074 76.204 L 316.449 76.200 316.221 75.650 C 316.064 75.271,316.010 73.296,316.047 69.305 L 316.100 63.509 316.700 63.330 C 317.030 63.232,317.525 63.039,317.800 62.902 C 318.075 62.765,318.926 62.592,319.691 62.517 C 320.457 62.442,321.177 62.307,321.291 62.216 C 321.406 62.126,321.860 61.943,322.300 61.810 C 323.931 61.316,326.009 60.115,327.354 58.887 C 328.681 57.676,331.200 54.274,331.200 53.693 C 331.200 53.538,331.391 52.981,331.624 52.455 C 331.857 51.930,332.166 51.230,332.311 50.900 C 332.457 50.570,332.634 49.805,332.707 49.200 C 332.779 48.595,332.957 47.913,333.101 47.684 C 333.246 47.455,333.427 46.420,333.504 45.384 C 333.580 44.348,333.768 43.301,333.921 43.057 C 334.075 42.813,334.200 42.314,334.200 41.947 C 334.200 40.784,334.101 40.800,341.208 40.800 L 347.736 40.800 347.968 41.309 M241.800 63.660 C 242.185 63.825,243.130 64.025,243.900 64.104 C 244.670 64.184,245.426 64.350,245.581 64.474 C 245.780 64.635,249.725 64.729,259.181 64.800 L 272.500 64.900 272.555 70.700 C 272.622 77.733,272.866 77.200,269.582 77.200 C 268.185 77.200,267.138 77.302,266.654 77.485 C 266.205 77.655,264.869 77.805,263.347 77.855 C 260.514 77.948,260.387 77.987,260.983 78.583 C 261.212 78.812,261.400 79.084,261.400 79.186 C 261.400 79.288,261.513 79.490,261.651 79.636 C 261.788 79.781,262.168 80.440,262.494 81.100 C 262.820 81.760,263.155 82.329,263.237 82.365 C 263.320 82.400,263.449 82.760,263.524 83.165 C 263.599 83.569,263.777 84.080,263.920 84.300 C 264.063 84.520,264.243 85.105,264.321 85.600 C 264.399 86.095,264.576 86.680,264.716 86.900 C 265.188 87.647,265.199 95.363,264.729 96.088 C 264.582 96.315,264.410 97.009,264.347 97.632 C 264.284 98.255,264.099 98.975,263.936 99.232 C 263.773 99.489,263.580 99.986,263.507 100.336 C 263.434 100.686,263.245 101.080,263.087 101.211 C 262.929 101.342,262.800 101.658,262.800 101.912 C 262.800 102.381,260.489 106.000,260.189 106.000 C 260.100 106.000,259.964 106.200,259.886 106.444 C 259.741 106.901,257.713 109.000,257.416 109.000 C 257.325 109.000,256.929 109.294,256.537 109.654 C 256.144 110.013,255.315 110.620,254.693 111.004 C 254.071 111.387,253.252 111.903,252.873 112.150 C 252.493 112.397,252.092 112.600,251.982 112.600 C 251.872 112.600,251.088 112.926,250.241 113.324 C 249.393 113.722,248.340 114.096,247.900 114.155 C 247.460 114.214,246.920 114.378,246.700 114.519 C 246.480 114.660,245.805 114.833,245.200 114.903 C 244.595 114.973,243.920 115.105,243.700 115.196 C 241.895 115.947,227.694 115.935,226.910 115.182 C 226.351 114.646,224.683 114.982,224.340 115.700 C 224.157 116.085,223.925 116.400,223.825 116.400 C 223.725 116.400,223.582 116.647,223.506 116.950 C 223.431 117.253,223.253 117.635,223.111 117.800 C 222.238 118.816,221.400 120.270,221.400 120.769 L 221.400 121.343 227.350 121.489 C 230.623 121.570,233.390 121.710,233.501 121.801 C 233.611 121.893,234.916 122.019,236.401 122.082 C 242.985 122.360,244.312 122.444,244.500 122.592 C 244.610 122.678,246.087 122.813,247.782 122.891 C 249.735 122.981,251.017 123.128,251.282 123.293 C 251.512 123.437,252.542 123.613,253.570 123.686 C 254.599 123.758,255.634 123.938,255.870 124.086 C 256.107 124.233,256.767 124.412,257.337 124.482 C 257.908 124.553,258.628 124.742,258.937 124.904 C 259.247 125.065,259.703 125.198,259.951 125.199 C 260.199 125.199,260.737 125.380,261.148 125.600 C 261.558 125.820,261.997 126.000,262.123 126.000 C 262.248 126.000,262.463 126.135,262.600 126.300 C 262.737 126.465,263.018 126.600,263.224 126.600 C 263.431 126.600,263.780 126.780,264.000 127.000 C 264.220 127.220,264.440 127.400,264.490 127.400 C 264.633 127.400,266.250 128.538,266.821 129.041 C 267.502 129.640,268.800 131.284,268.800 131.546 C 268.800 131.659,268.945 131.871,269.122 132.019 C 269.454 132.294,270.400 134.201,270.400 134.594 C 270.400 134.715,270.539 135.027,270.710 135.287 C 270.880 135.547,271.073 136.422,271.137 137.230 C 271.202 138.039,271.334 138.801,271.431 138.925 C 271.681 139.244,271.702 145.733,271.454 146.046 C 271.344 146.186,271.204 146.866,271.145 147.557 C 271.085 148.249,270.893 149.033,270.718 149.300 C 270.543 149.567,270.400 149.982,270.400 150.221 C 270.400 150.611,269.845 152.006,269.375 152.800 C 269.277 152.965,269.087 153.325,268.953 153.600 C 268.818 153.875,268.651 154.145,268.582 154.200 C 268.513 154.255,268.306 154.593,268.123 154.950 C 267.940 155.308,267.702 155.600,267.595 155.600 C 267.488 155.600,267.400 155.732,267.400 155.892 C 267.400 156.561,261.790 161.599,261.044 161.600 C 260.965 161.600,260.382 161.960,259.748 162.400 C 259.114 162.840,258.529 163.203,258.448 163.207 C 258.367 163.211,257.940 163.387,257.500 163.600 C 257.060 163.813,256.554 163.989,256.374 163.993 C 256.195 163.997,255.946 164.124,255.821 164.275 C 255.695 164.426,255.225 164.609,254.775 164.681 C 254.326 164.753,253.702 164.944,253.389 165.106 C 253.076 165.268,252.658 165.401,252.460 165.401 C 252.262 165.402,251.855 165.530,251.556 165.686 C 251.257 165.842,250.492 166.034,249.856 166.113 C 249.220 166.192,248.355 166.377,247.933 166.525 C 247.511 166.673,246.296 166.855,245.233 166.928 C 244.002 167.013,243.122 167.178,242.809 167.381 C 242.063 167.865,223.996 167.847,222.500 167.360 C 221.950 167.181,220.645 166.979,219.600 166.910 C 218.555 166.842,217.340 166.659,216.900 166.505 C 216.460 166.350,215.584 166.167,214.953 166.098 C 214.322 166.029,213.755 165.888,213.691 165.786 C 213.628 165.684,213.372 165.600,213.123 165.600 C 212.164 165.600,207.709 163.765,205.701 162.543 C 204.096 161.567,201.905 159.552,201.394 158.582 C 201.254 158.317,201.082 158.055,201.011 158.000 C 200.801 157.837,200.000 156.394,200.000 156.178 C 200.000 156.068,199.798 155.555,199.550 155.039 C 198.947 153.781,198.860 146.765,199.434 145.652 C 199.617 145.296,199.830 144.711,199.906 144.352 C 199.982 143.993,200.159 143.565,200.299 143.400 C 200.438 143.235,200.615 142.895,200.692 142.645 C 200.768 142.394,201.138 141.854,201.514 141.445 C 201.890 141.035,202.199 140.602,202.199 140.481 C 202.200 140.361,203.010 139.489,204.000 138.543 C 205.802 136.823,206.105 136.302,205.450 136.056 C 204.895 135.846,203.304 134.534,202.571 133.681 C 202.202 133.251,201.788 132.781,201.650 132.636 C 201.513 132.490,201.400 132.246,201.400 132.092 C 201.400 131.938,201.212 131.452,200.982 131.011 C 200.307 129.715,200.492 124.291,201.255 123.000 C 201.548 122.505,201.936 121.836,202.118 121.513 C 202.299 121.191,202.707 120.651,203.023 120.313 C 203.339 119.976,203.599 119.624,203.599 119.530 C 203.601 119.239,211.073 111.804,211.497 111.672 C 212.536 111.348,212.405 110.747,211.138 110.022 C 210.554 109.687,209.748 109.096,209.348 108.707 C 208.947 108.318,208.548 107.997,208.460 107.993 C 208.236 107.984,207.400 107.268,207.400 107.085 C 207.400 107.002,207.262 106.791,207.092 106.617 C 206.035 105.529,205.179 104.438,205.076 104.050 C 205.010 103.803,204.881 103.600,204.789 103.600 C 204.609 103.600,204.370 103.194,203.414 101.258 C 203.076 100.575,202.800 99.883,202.800 99.720 C 202.800 99.557,202.716 99.372,202.613 99.308 C 202.511 99.245,202.326 98.677,202.203 98.047 C 202.080 97.416,201.871 96.684,201.740 96.419 C 201.406 95.749,201.399 83.583,201.732 83.181 C 201.860 83.026,202.056 82.450,202.169 81.900 C 202.442 80.561,202.999 78.973,203.330 78.584 C 203.479 78.411,203.600 78.130,203.600 77.961 C 203.600 77.792,203.780 77.425,204.000 77.145 C 204.220 76.866,204.400 76.512,204.400 76.359 C 204.400 76.206,204.533 75.906,204.696 75.691 C 204.858 75.476,205.353 74.830,205.796 74.256 C 206.238 73.682,206.600 73.151,206.600 73.077 C 206.600 72.876,209.512 70.001,209.721 69.995 C 209.819 69.993,210.247 69.678,210.672 69.295 C 211.097 68.913,211.517 68.600,211.607 68.600 C 211.696 68.600,212.030 68.381,212.349 68.112 C 213.134 67.452,215.136 66.430,215.942 66.279 C 216.304 66.211,216.600 66.090,216.600 66.011 C 216.600 65.812,219.634 64.800,220.230 64.800 C 220.494 64.800,220.905 64.664,221.141 64.499 C 221.382 64.330,222.260 64.142,223.136 64.072 C 223.996 64.003,224.837 63.828,225.005 63.683 C 225.648 63.128,240.513 63.107,241.800 63.660 M308.690 63.519 C 308.979 63.808,309.008 66.567,308.995 92.966 L 308.982 122.094 309.541 122.274 C 309.848 122.373,310.190 122.523,310.300 122.608 C 310.410 122.693,311.535 122.828,312.800 122.908 C 314.194 122.996,315.255 123.161,315.495 123.327 C 315.711 123.477,316.256 123.600,316.705 123.600 C 317.153 123.600,317.628 123.708,317.760 123.840 C 318.057 124.137,318.098 134.535,317.804 135.000 C 317.566 135.378,279.486 135.567,278.789 135.194 C 278.408 134.990,278.396 134.785,278.447 129.341 L 278.500 123.700 279.475 123.638 C 280.012 123.604,280.642 123.455,280.875 123.307 C 281.123 123.150,282.255 122.978,283.591 122.894 C 285.847 122.753,286.671 122.484,287.247 121.700 C 287.328 121.590,287.392 111.960,287.391 100.300 L 287.387 79.100 286.887 78.531 C 286.515 78.108,285.730 77.738,283.828 77.087 C 282.421 76.606,281.006 76.075,280.685 75.907 C 280.363 75.740,279.859 75.602,279.564 75.601 C 278.463 75.599,278.329 75.195,278.474 72.325 C 278.546 70.900,278.693 69.629,278.800 69.500 C 278.983 69.279,279.132 67.621,279.179 65.279 C 279.195 64.491,279.312 64.138,279.690 63.729 L 280.181 63.200 294.276 63.200 C 306.907 63.200,308.405 63.233,308.690 63.519 M230.300 77.937 C 229.970 77.991,229.587 78.129,229.448 78.244 C 229.309 78.359,228.809 78.525,228.335 78.613 C 225.697 79.106,222.366 82.788,222.015 85.600 C 221.939 86.205,221.770 86.897,221.639 87.137 C 221.356 87.655,221.309 91.826,221.584 92.110 C 221.685 92.215,221.865 92.833,221.983 93.484 C 222.102 94.135,222.323 94.810,222.476 94.984 C 222.628 95.158,222.807 95.480,222.874 95.700 C 223.224 96.849,226.170 99.265,227.530 99.517 C 227.953 99.596,228.521 99.804,228.791 99.980 C 229.542 100.469,237.985 100.456,238.529 99.966 C 238.733 99.782,239.170 99.565,239.500 99.485 C 239.830 99.405,240.315 99.173,240.577 98.970 C 240.839 98.766,241.136 98.600,241.235 98.600 C 241.428 98.600,241.494 98.553,242.616 97.616 C 243.512 96.868,244.980 94.751,245.133 93.985 C 245.196 93.668,245.372 93.306,245.524 93.180 C 245.676 93.054,245.800 92.624,245.800 92.224 C 245.800 91.824,245.877 91.228,245.971 90.899 C 246.240 89.958,245.831 85.646,245.381 84.687 C 245.172 84.240,245.000 83.778,245.000 83.661 C 245.000 83.545,244.874 83.344,244.720 83.216 C 244.565 83.088,244.385 82.769,244.319 82.506 C 244.060 81.472,240.439 78.600,239.395 78.600 C 239.226 78.600,238.866 78.443,238.595 78.252 C 238.099 77.903,231.938 77.669,230.300 77.937 M218.724 141.080 C 218.436 141.413,218.200 141.802,218.200 141.943 C 218.200 142.084,218.105 142.200,217.990 142.200 C 217.874 142.200,217.688 142.463,217.576 142.784 C 217.464 143.105,217.243 143.417,217.086 143.478 C 216.929 143.538,216.797 143.748,216.793 143.944 C 216.789 144.140,216.613 144.660,216.400 145.100 C 215.907 146.120,215.844 148.616,216.300 149.071 C 216.465 149.236,216.601 149.445,216.603 149.536 C 216.608 149.820,218.546 151.600,218.849 151.600 C 219.009 151.600,219.346 151.780,219.600 152.000 C 219.854 152.220,220.232 152.400,220.441 152.400 C 220.649 152.400,221.069 152.529,221.374 152.687 C 221.679 152.844,222.709 153.037,223.663 153.114 C 224.730 153.201,225.483 153.360,225.623 153.527 C 225.960 153.934,238.660 153.924,239.746 153.517 C 240.161 153.361,241.168 153.179,241.985 153.112 C 242.802 153.045,243.590 152.891,243.737 152.769 C 243.884 152.647,244.424 152.469,244.937 152.373 C 245.450 152.278,246.018 152.064,246.200 151.900 C 246.383 151.735,246.668 151.600,246.835 151.600 C 247.002 151.600,247.294 151.428,247.484 151.218 C 247.674 151.008,248.025 150.782,248.265 150.716 C 248.728 150.588,249.520 149.488,249.719 148.695 C 249.785 148.432,249.965 148.112,250.120 147.984 C 250.460 147.702,250.509 145.491,250.180 145.287 C 250.058 145.212,249.836 144.856,249.686 144.496 C 248.898 142.610,245.349 142.008,231.100 141.344 C 228.007 141.200,225.529 140.998,225.300 140.870 C 225.080 140.748,223.628 140.609,222.074 140.561 L 219.248 140.474 218.724 141.080 " stroke="none" fill="#fbfbfb" fill-rule="evenodd"></path><path id="path2" d="M291.800 28.093 C 291.114 28.480,289.058 29.400,288.879 29.400 C 288.706 29.400,288.524 29.562,286.717 31.320 C 285.367 32.633,284.400 34.072,284.400 34.766 C 284.400 34.956,284.243 35.334,284.050 35.605 C 283.743 36.039,283.700 36.626,283.700 40.400 C 283.700 44.174,283.743 44.761,284.050 45.195 C 284.243 45.466,284.400 45.844,284.400 46.034 C 284.400 46.501,285.348 48.255,285.709 48.457 C 285.869 48.547,286.000 48.741,286.000 48.889 C 286.000 49.036,286.135 49.209,286.300 49.272 C 286.465 49.336,286.601 49.503,286.601 49.644 C 286.603 49.925,287.784 50.800,288.162 50.800 C 288.293 50.800,288.400 50.888,288.400 50.997 C 288.400 51.255,290.109 52.110,291.000 52.298 C 291.385 52.380,291.826 52.548,291.980 52.673 C 292.157 52.816,293.538 52.924,295.731 52.967 C 299.852 53.046,301.598 52.643,304.516 50.940 C 305.100 50.599,306.600 49.104,306.600 48.862 C 306.600 48.752,306.780 48.499,307.000 48.300 C 307.220 48.101,307.400 47.809,307.400 47.651 C 307.400 47.492,307.580 47.134,307.800 46.855 C 308.020 46.575,308.200 46.174,308.200 45.963 C 308.200 45.752,308.358 45.292,308.550 44.940 C 308.849 44.392,308.900 43.737,308.900 40.400 C 308.900 37.063,308.849 36.408,308.550 35.860 C 308.358 35.508,308.200 35.048,308.200 34.837 C 308.200 34.626,308.020 34.225,307.800 33.945 C 307.580 33.666,307.400 33.294,307.400 33.120 C 307.400 32.946,307.220 32.691,307.000 32.554 C 306.780 32.416,306.597 32.213,306.594 32.102 C 306.585 31.822,305.663 30.800,305.420 30.800 C 305.310 30.800,305.148 30.687,305.060 30.549 C 304.814 30.163,303.317 29.200,302.964 29.200 C 302.791 29.200,302.537 29.065,302.400 28.900 C 302.263 28.735,302.003 28.600,301.823 28.600 C 301.642 28.600,301.158 28.420,300.748 28.200 C 299.786 27.684,292.675 27.599,291.800 28.093 M301.539 29.072 C 304.845 30.412,307.794 33.280,307.801 35.161 C 307.802 35.347,307.959 35.770,308.151 36.100 C 308.449 36.612,308.500 37.244,308.500 40.400 C 308.500 43.556,308.449 44.188,308.151 44.700 C 307.959 45.030,307.802 45.453,307.801 45.639 C 307.799 46.351,306.138 49.051,305.243 49.800 C 302.870 51.785,300.501 52.500,296.300 52.500 C 291.639 52.500,288.157 51.191,286.515 48.822 C 286.202 48.370,285.878 48.000,285.794 48.000 C 285.711 48.000,285.588 47.781,285.521 47.514 C 285.454 47.247,285.279 46.907,285.131 46.760 C 283.778 45.407,283.768 35.404,285.118 34.053 C 285.259 33.913,285.429 33.622,285.497 33.408 C 285.714 32.725,289.026 29.602,289.537 29.599 C 289.765 29.598,291.981 28.686,292.138 28.529 C 292.209 28.458,293.984 28.402,296.083 28.403 L 299.900 28.407 301.539 29.072 M334.440 41.040 C 334.308 41.172,334.200 41.580,334.200 41.947 C 334.200 42.314,334.075 42.813,333.921 43.057 C 333.768 43.301,333.580 44.348,333.504 45.384 C 333.427 46.420,333.246 47.455,333.101 47.684 C 332.957 47.913,332.779 48.595,332.707 49.200 C 332.634 49.805,332.457 50.570,332.311 50.900 C 332.166 51.230,331.857 51.930,331.624 52.455 C 331.391 52.981,331.200 53.538,331.200 53.693 C 331.200 54.274,328.681 57.676,327.354 58.887 C 326.009 60.115,323.931 61.316,322.300 61.810 C 321.860 61.943,321.406 62.126,321.291 62.216 C 321.177 62.307,320.457 62.442,319.691 62.517 C 318.926 62.592,318.075 62.765,317.800 62.902 C 317.525 63.039,317.030 63.232,316.700 63.330 L 316.100 63.509 316.047 69.305 C 316.010 73.296,316.064 75.271,316.221 75.650 L 316.449 76.200 321.074 76.204 C 325.148 76.208,325.753 76.250,326.144 76.554 L 326.587 76.900 326.644 98.629 C 326.696 118.997,326.722 120.382,327.050 120.745 C 327.267 120.984,327.400 121.452,327.400 121.974 C 327.400 122.437,327.580 123.169,327.800 123.600 C 328.020 124.031,328.200 124.561,328.200 124.778 C 328.200 124.994,328.331 125.302,328.490 125.462 C 328.650 125.621,328.839 125.984,328.910 126.268 C 328.981 126.551,329.165 126.888,329.320 127.016 C 329.474 127.144,329.600 127.368,329.600 127.514 C 329.600 127.660,329.825 128.022,330.100 128.319 C 330.375 128.616,330.600 128.913,330.600 128.979 C 330.601 129.419,333.246 131.770,334.482 132.430 C 335.984 133.233,337.275 133.800,337.600 133.800 C 337.793 133.800,338.056 133.927,338.185 134.081 C 338.313 134.236,338.977 134.426,339.659 134.504 C 340.342 134.581,340.990 134.712,341.100 134.795 C 341.996 135.470,356.178 135.475,357.100 134.801 C 357.210 134.720,357.972 134.595,358.793 134.522 C 359.615 134.449,360.489 134.257,360.736 134.095 C 360.984 133.933,361.385 133.800,361.628 133.800 C 362.043 133.800,364.621 133.001,365.500 132.599 C 365.720 132.499,366.275 132.321,366.733 132.205 C 367.192 132.089,367.822 131.861,368.133 131.698 C 368.445 131.535,368.840 131.402,369.012 131.401 C 369.183 131.401,369.498 131.268,369.712 131.106 C 369.925 130.945,370.230 130.810,370.389 130.806 C 372.058 130.770,372.514 129.251,371.500 127.114 C 371.115 126.302,370.800 125.381,370.800 125.066 C 370.800 124.752,370.633 124.180,370.429 123.797 C 370.224 123.414,369.991 122.653,369.910 122.107 C 369.829 121.561,369.636 120.934,369.481 120.713 C 369.327 120.492,369.200 120.106,369.200 119.855 C 369.200 119.604,369.020 119.063,368.800 118.652 C 368.580 118.242,368.400 117.803,368.400 117.677 C 368.400 116.939,367.064 117.103,364.870 118.111 C 364.523 118.270,363.962 118.400,363.624 118.400 C 363.285 118.400,362.624 118.555,362.154 118.745 C 360.851 119.271,353.638 119.262,352.534 118.733 C 351.140 118.065,349.600 116.882,349.600 116.480 C 349.600 116.353,349.470 116.141,349.311 116.009 C 349.152 115.877,348.917 115.259,348.789 114.635 C 348.661 114.011,348.476 113.400,348.377 113.278 C 348.274 113.150,348.219 105.309,348.249 94.678 L 348.300 76.300 358.243 76.248 L 368.185 76.196 368.405 75.448 C 368.663 74.569,368.598 62.130,368.333 61.866 C 368.242 61.775,363.674 61.675,358.183 61.645 L 348.200 61.589 348.200 51.704 C 348.200 44.628,348.134 41.674,347.968 41.309 L 347.736 40.800 341.208 40.800 C 336.397 40.800,334.617 40.863,334.440 41.040 M347.800 51.700 L 347.900 61.900 358.000 62.005 C 363.555 62.062,368.124 62.130,368.153 62.155 C 368.182 62.180,368.182 65.192,368.153 68.850 L 368.100 75.500 358.156 75.552 C 348.493 75.602,348.206 75.615,348.001 75.998 C 347.590 76.766,347.828 113.976,348.249 114.700 C 348.441 115.030,348.598 115.444,348.599 115.619 C 348.599 115.794,348.780 116.101,349.000 116.300 C 349.220 116.499,349.402 116.761,349.403 116.881 C 349.415 117.619,352.038 119.223,353.442 119.351 C 354.077 119.408,354.699 119.578,354.823 119.728 C 355.110 120.073,358.035 120.102,358.663 119.766 C 358.903 119.638,359.910 119.463,360.900 119.379 C 361.890 119.294,363.035 119.085,363.444 118.913 C 363.853 118.741,364.393 118.599,364.644 118.599 C 364.895 118.598,365.370 118.456,365.700 118.284 C 366.030 118.112,366.675 117.900,367.134 117.814 L 367.967 117.658 368.476 119.079 C 368.756 119.860,369.044 120.770,369.115 121.100 C 369.187 121.430,369.468 122.330,369.741 123.100 C 370.014 123.870,370.310 124.910,370.400 125.411 C 370.490 125.912,370.842 126.911,371.182 127.630 C 371.995 129.352,371.978 129.446,370.750 130.056 C 369.410 130.721,366.143 132.000,365.778 132.001 C 365.625 132.002,365.249 132.134,364.942 132.294 C 364.634 132.454,364.049 132.644,363.642 132.715 C 363.234 132.786,362.720 132.956,362.500 133.092 C 362.280 133.228,361.610 133.403,361.010 133.482 C 360.411 133.560,359.691 133.749,359.410 133.902 C 359.130 134.055,358.027 134.238,356.960 134.308 C 355.665 134.393,354.941 134.530,354.785 134.718 C 354.447 135.126,343.762 135.136,343.424 134.729 C 343.288 134.564,342.548 134.405,341.549 134.324 C 340.097 134.207,337.877 133.650,337.000 133.183 C 336.835 133.095,336.115 132.736,335.400 132.384 C 334.685 132.033,333.812 131.510,333.460 131.223 C 333.108 130.935,332.590 130.520,332.309 130.300 C 331.684 129.811,330.000 127.682,330.000 127.381 C 330.000 127.261,329.820 126.934,329.600 126.655 C 329.380 126.375,329.200 125.989,329.200 125.798 C 329.200 125.606,329.067 125.339,328.905 125.204 C 328.743 125.070,328.551 124.631,328.479 124.230 C 328.407 123.828,328.252 123.320,328.135 123.100 C 327.915 122.684,327.678 121.454,327.471 119.646 C 327.404 119.067,327.271 118.544,327.175 118.485 C 327.077 118.424,327.000 109.240,327.000 97.577 L 327.000 76.777 326.359 76.192 L 325.719 75.607 321.109 75.554 L 316.500 75.500 316.500 69.600 L 316.500 63.700 317.700 63.528 C 318.360 63.433,319.170 63.242,319.500 63.103 C 319.830 62.963,320.494 62.791,320.975 62.718 C 321.457 62.646,322.039 62.455,322.270 62.294 C 322.500 62.132,322.871 61.995,323.095 61.990 C 323.800 61.972,326.182 60.545,327.584 59.300 C 328.797 58.223,329.184 57.769,329.918 56.561 C 330.038 56.364,330.285 56.038,330.468 55.836 C 330.650 55.634,330.800 55.363,330.800 55.234 C 330.800 55.105,330.879 55.000,330.976 55.000 C 331.072 55.000,331.264 54.708,331.402 54.350 C 331.655 53.692,332.079 52.700,332.673 51.370 C 332.853 50.968,333.000 50.374,333.000 50.051 C 333.000 49.727,333.139 49.184,333.308 48.844 C 333.477 48.505,333.666 47.749,333.727 47.164 C 333.788 46.579,333.965 45.816,334.120 45.468 C 334.275 45.121,334.344 44.686,334.273 44.501 C 334.167 44.225,334.394 42.765,334.717 41.647 C 334.774 41.449,336.178 41.406,341.245 41.447 L 347.700 41.500 347.800 51.700 M226.705 63.335 C 225.937 63.382,225.172 63.539,225.005 63.683 C 224.837 63.828,223.996 64.003,223.136 64.072 C 222.260 64.142,221.382 64.330,221.141 64.499 C 220.905 64.664,220.494 64.800,220.230 64.800 C 219.634 64.800,216.600 65.812,216.600 66.011 C 216.600 66.090,216.304 66.211,215.942 66.279 C 215.136 66.430,213.134 67.452,212.349 68.112 C 212.030 68.381,211.696 68.600,211.607 68.600 C 211.517 68.600,211.097 68.913,210.672 69.295 C 210.247 69.678,209.819 69.993,209.721 69.995 C 209.512 70.001,206.600 72.876,206.600 73.077 C 206.600 73.151,206.238 73.682,205.796 74.256 C 205.353 74.830,204.858 75.476,204.696 75.691 C 204.533 75.906,204.400 76.206,204.400 76.359 C 204.400 76.512,204.220 76.866,204.000 77.145 C 203.780 77.425,203.600 77.792,203.600 77.961 C 203.600 78.130,203.479 78.411,203.330 78.584 C 202.999 78.973,202.442 80.561,202.169 81.900 C 202.056 82.450,201.860 83.026,201.732 83.181 C 201.399 83.583,201.406 95.749,201.740 96.419 C 201.871 96.684,202.080 97.416,202.203 98.047 C 202.326 98.677,202.511 99.245,202.613 99.308 C 202.716 99.372,202.800 99.557,202.800 99.720 C 202.800 99.883,203.076 100.575,203.414 101.258 C 204.370 103.194,204.609 103.600,204.789 103.600 C 204.881 103.600,205.010 103.803,205.076 104.050 C 205.179 104.438,206.035 105.529,207.092 106.617 C 207.262 106.791,207.400 107.002,207.400 107.085 C 207.400 107.268,208.236 107.984,208.460 107.993 C 208.548 107.997,208.947 108.318,209.348 108.707 C 209.748 109.096,210.554 109.687,211.138 110.022 C 212.405 110.747,212.536 111.348,211.497 111.672 C 211.073 111.804,203.601 119.239,203.599 119.530 C 203.599 119.624,203.339 119.976,203.023 120.313 C 202.707 120.651,202.299 121.191,202.118 121.513 C 201.936 121.836,201.548 122.505,201.255 123.000 C 200.492 124.291,200.307 129.715,200.982 131.011 C 201.212 131.452,201.400 131.938,201.400 132.092 C 201.400 132.246,201.513 132.490,201.650 132.636 C 201.788 132.781,202.202 133.251,202.571 133.681 C 203.304 134.534,204.895 135.846,205.450 136.056 C 206.105 136.302,205.802 136.823,204.000 138.543 C 203.010 139.489,202.200 140.361,202.199 140.481 C 202.199 140.602,201.890 141.035,201.514 141.445 C 201.138 141.854,200.768 142.394,200.692 142.645 C 200.615 142.895,200.438 143.235,200.299 143.400 C 200.159 143.565,199.982 143.993,199.906 144.352 C 199.830 144.711,199.617 145.296,199.434 145.652 C 198.860 146.765,198.947 153.781,199.550 155.039 C 199.798 155.555,200.000 156.068,200.000 156.178 C 200.000 156.394,200.801 157.837,201.011 158.000 C 201.082 158.055,201.254 158.317,201.394 158.582 C 201.905 159.552,204.096 161.567,205.701 162.543 C 207.709 163.765,212.164 165.600,213.123 165.600 C 213.372 165.600,213.628 165.684,213.691 165.786 C 213.755 165.888,214.322 166.029,214.953 166.098 C 215.584 166.167,216.460 166.350,216.900 166.505 C 217.340 166.659,218.555 166.842,219.600 166.910 C 220.645 166.979,221.950 167.181,222.500 167.360 C 223.996 167.847,242.063 167.865,242.809 167.381 C 243.122 167.178,244.002 167.013,245.233 166.928 C 246.296 166.855,247.511 166.673,247.933 166.525 C 248.355 166.377,249.220 166.192,249.856 166.113 C 250.492 166.034,251.257 165.842,251.556 165.686 C 251.855 165.530,252.262 165.402,252.460 165.401 C 252.658 165.401,253.076 165.268,253.389 165.106 C 253.702 164.944,254.326 164.753,254.775 164.681 C 255.225 164.609,255.695 164.426,255.821 164.275 C 255.946 164.124,256.195 163.997,256.374 163.993 C 256.554 163.989,257.060 163.813,257.500 163.600 C 257.940 163.387,258.367 163.211,258.448 163.207 C 258.529 163.203,259.114 162.840,259.748 162.400 C 260.382 161.960,260.965 161.600,261.044 161.600 C 261.790 161.599,267.400 156.561,267.400 155.892 C 267.400 155.732,267.488 155.600,267.595 155.600 C 267.702 155.600,267.940 155.308,268.123 154.950 C 268.306 154.593,268.513 154.255,268.582 154.200 C 268.651 154.145,268.818 153.875,268.953 153.600 C 269.087 153.325,269.277 152.965,269.375 152.800 C 269.845 152.006,270.400 150.611,270.400 150.221 C 270.400 149.982,270.543 149.567,270.718 149.300 C 270.893 149.033,271.085 148.249,271.145 147.557 C 271.204 146.866,271.344 146.186,271.454 146.046 C 271.702 145.733,271.681 139.244,271.431 138.925 C 271.334 138.801,271.202 138.039,271.137 137.230 C 271.073 136.422,270.880 135.547,270.710 135.287 C 270.539 135.027,270.400 134.715,270.400 134.594 C 270.400 134.201,269.454 132.294,269.122 132.019 C 268.945 131.871,268.800 131.659,268.800 131.546 C 268.800 131.284,267.502 129.640,266.821 129.041 C 266.250 128.538,264.633 127.400,264.490 127.400 C 264.440 127.400,264.220 127.220,264.000 127.000 C 263.780 126.780,263.431 126.600,263.224 126.600 C 263.018 126.600,262.737 126.465,262.600 126.300 C 262.463 126.135,262.248 126.000,262.123 126.000 C 261.997 126.000,261.558 125.820,261.148 125.600 C 260.737 125.380,260.199 125.199,259.951 125.199 C 259.703 125.198,259.247 125.065,258.937 124.904 C 258.628 124.742,257.908 124.553,257.337 124.482 C 256.767 124.412,256.107 124.233,255.870 124.086 C 255.634 123.938,254.599 123.758,253.570 123.686 C 252.542 123.613,251.512 123.437,251.282 123.293 C 251.017 123.128,249.735 122.981,247.782 122.891 C 246.087 122.813,244.610 122.678,244.500 122.592 C 244.312 122.444,242.985 122.360,236.401 122.082 C 234.916 122.019,233.611 121.893,233.501 121.801 C 233.390 121.710,230.623 121.570,227.350 121.489 L 221.400 121.343 221.400 120.769 C 221.400 120.270,222.238 118.816,223.111 117.800 C 223.253 117.635,223.431 117.253,223.506 116.950 C 223.582 116.647,223.725 116.400,223.825 116.400 C 223.925 116.400,224.157 116.085,224.340 115.700 C 224.683 114.982,226.351 114.646,226.910 115.182 C 227.694 115.935,241.895 115.947,243.700 115.196 C 243.920 115.105,244.595 114.973,245.200 114.903 C 245.805 114.833,246.480 114.660,246.700 114.519 C 246.920 114.378,247.460 114.214,247.900 114.155 C 248.340 114.096,249.393 113.722,250.241 113.324 C 251.088 112.926,251.872 112.600,251.982 112.600 C 252.092 112.600,252.493 112.397,252.873 112.150 C 253.252 111.903,254.071 111.387,254.693 111.004 C 255.315 110.620,256.144 110.013,256.537 109.654 C 256.929 109.294,257.325 109.000,257.416 109.000 C 257.713 109.000,259.741 106.901,259.886 106.444 C 259.964 106.200,260.100 106.000,260.189 106.000 C 260.489 106.000,262.800 102.381,262.800 101.912 C 262.800 101.658,262.929 101.342,263.087 101.211 C 263.245 101.080,263.434 100.686,263.507 100.336 C 263.580 99.986,263.773 99.489,263.936 99.232 C 264.099 98.975,264.284 98.255,264.347 97.632 C 264.410 97.009,264.582 96.315,264.729 96.088 C 265.199 95.363,265.188 87.647,264.716 86.900 C 264.576 86.680,264.399 86.095,264.321 85.600 C 264.243 85.105,264.063 84.520,263.920 84.300 C 263.777 84.080,263.599 83.569,263.524 83.165 C 263.449 82.760,263.320 82.400,263.237 82.365 C 263.155 82.329,262.820 81.760,262.494 81.100 C 262.168 80.440,261.788 79.781,261.651 79.636 C 261.513 79.490,261.400 79.288,261.400 79.186 C 261.400 79.084,261.212 78.812,260.983 78.583 C 260.387 77.987,260.514 77.948,263.347 77.855 C 264.869 77.805,266.205 77.655,266.654 77.485 C 267.138 77.302,268.185 77.200,269.582 77.200 C 272.866 77.200,272.622 77.733,272.555 70.700 L 272.500 64.900 259.181 64.800 C 249.725 64.729,245.780 64.635,245.581 64.474 C 245.426 64.350,244.670 64.184,243.900 64.104 C 243.130 64.025,242.185 63.825,241.800 63.660 C 241.093 63.356,230.212 63.122,226.705 63.335 M279.690 63.729 C 279.312 64.138,279.195 64.491,279.179 65.279 C 279.132 67.621,278.983 69.279,278.800 69.500 C 278.693 69.629,278.546 70.900,278.474 72.325 C 278.329 75.195,278.463 75.599,279.564 75.601 C 279.859 75.602,280.363 75.740,280.685 75.907 C 281.006 76.075,282.421 76.606,283.828 77.087 C 285.730 77.738,286.515 78.108,286.887 78.531 L 287.387 79.100 287.391 100.300 C 287.392 111.960,287.328 121.590,287.247 121.700 C 286.671 122.484,285.847 122.753,283.591 122.894 C 282.255 122.978,281.123 123.150,280.875 123.307 C 280.642 123.455,280.012 123.604,279.475 123.638 L 278.500 123.700 278.447 129.341 C 278.396 134.785,278.408 134.990,278.789 135.194 C 279.486 135.567,317.566 135.378,317.804 135.000 C 318.098 134.535,318.057 124.137,317.760 123.840 C 317.628 123.708,317.153 123.600,316.705 123.600 C 316.256 123.600,315.711 123.477,315.495 123.327 C 315.255 123.161,314.194 122.996,312.800 122.908 C 311.535 122.828,310.410 122.693,310.300 122.608 C 310.190 122.523,309.848 122.373,309.541 122.274 L 308.982 122.094 308.995 92.966 C 309.008 66.567,308.979 63.808,308.690 63.519 C 308.405 63.233,306.907 63.200,294.276 63.200 L 280.181 63.200 279.690 63.729 M238.657 63.877 C 238.931 64.048,239.961 64.195,241.364 64.264 C 242.792 64.333,243.744 64.471,243.944 64.637 C 244.197 64.847,247.065 64.920,258.081 65.000 C 265.681 65.055,272.012 65.173,272.150 65.262 C 272.340 65.385,272.400 66.699,272.400 70.704 C 272.400 77.408,273.008 76.706,267.038 76.898 C 263.808 77.003,262.344 77.125,261.960 77.322 C 261.663 77.475,261.201 77.600,260.934 77.600 C 259.798 77.600,259.915 78.181,261.410 79.954 C 261.527 80.094,261.717 80.477,261.831 80.804 C 261.946 81.132,262.113 81.400,262.204 81.400 C 262.294 81.400,262.426 81.664,262.497 81.986 C 262.568 82.309,262.748 82.674,262.897 82.798 C 263.047 82.922,263.232 83.398,263.310 83.857 C 263.387 84.316,263.576 84.883,263.729 85.117 C 263.883 85.351,264.064 86.298,264.132 87.221 C 264.200 88.144,264.378 89.143,264.528 89.440 C 264.916 90.210,264.891 93.075,264.491 93.686 C 264.321 93.946,264.193 94.505,264.207 94.929 C 264.246 96.084,263.985 97.847,263.708 98.300 C 263.573 98.520,263.408 99.049,263.340 99.475 C 263.273 99.901,263.088 100.396,262.931 100.575 C 262.773 100.754,262.581 101.200,262.503 101.567 C 262.357 102.250,260.082 105.800,259.789 105.800 C 259.700 105.800,259.570 105.978,259.501 106.196 C 259.356 106.655,257.455 108.600,257.152 108.600 C 257.039 108.600,256.650 108.915,256.287 109.300 C 255.924 109.685,255.545 110.000,255.444 110.000 C 255.344 110.000,255.099 110.180,254.900 110.400 C 254.701 110.620,254.438 110.800,254.315 110.800 C 254.192 110.800,253.553 111.157,252.896 111.594 C 252.238 112.031,251.464 112.391,251.174 112.394 C 250.885 112.397,250.545 112.525,250.418 112.678 C 250.292 112.831,249.791 113.056,249.306 113.178 C 248.821 113.300,248.368 113.490,248.300 113.600 C 248.232 113.710,247.934 113.800,247.638 113.800 C 247.342 113.800,246.647 113.972,246.094 114.183 C 245.541 114.393,244.327 114.631,243.397 114.712 C 242.467 114.793,241.415 114.981,241.059 115.130 C 240.106 115.528,230.059 115.519,229.489 115.120 C 229.035 114.802,224.823 114.481,224.500 114.740 C 224.232 114.954,223.502 116.023,223.358 116.411 C 223.294 116.582,222.724 117.482,222.091 118.411 C 221.262 119.626,220.934 120.296,220.920 120.800 L 220.900 121.500 224.100 121.600 C 225.947 121.658,227.469 121.797,227.700 121.929 C 227.954 122.075,230.064 122.209,233.500 122.299 C 237.261 122.398,239.021 122.517,239.300 122.691 C 239.565 122.857,241.113 122.991,243.884 123.088 C 246.758 123.189,248.197 123.317,248.484 123.496 C 248.722 123.646,249.882 123.815,251.200 123.892 C 252.465 123.966,253.770 124.105,254.100 124.201 C 254.430 124.297,255.240 124.481,255.900 124.609 C 256.560 124.737,257.280 124.912,257.500 124.999 C 257.720 125.085,258.474 125.304,259.175 125.486 C 259.876 125.667,261.020 126.082,261.717 126.408 C 262.413 126.734,263.033 127.000,263.094 127.000 C 263.154 127.000,263.652 127.315,264.200 127.700 C 264.748 128.085,265.290 128.400,265.404 128.400 C 265.519 128.400,265.663 128.532,265.725 128.692 C 265.786 128.853,265.996 129.035,266.190 129.097 C 266.551 129.211,268.385 131.419,268.644 132.050 C 268.723 132.243,268.880 132.400,268.994 132.400 C 269.107 132.400,269.200 132.516,269.200 132.658 C 269.200 132.799,269.379 133.267,269.598 133.696 C 269.817 134.126,270.054 134.798,270.125 135.189 C 270.196 135.580,270.364 136.125,270.500 136.400 C 271.187 137.794,271.156 147.787,270.462 148.626 C 270.338 148.777,270.169 149.260,270.088 149.700 C 270.006 150.140,269.827 150.680,269.689 150.900 C 269.552 151.120,269.378 151.593,269.304 151.950 C 269.229 152.308,269.091 152.600,268.998 152.600 C 268.904 152.600,268.766 152.803,268.692 153.050 C 268.295 154.380,263.505 160.000,262.769 160.000 C 262.667 160.000,262.474 160.091,262.342 160.203 C 261.834 160.629,260.623 161.366,260.221 161.493 C 259.989 161.567,259.800 161.688,259.799 161.763 C 259.798 161.993,257.136 163.262,255.200 163.957 C 253.040 164.733,252.684 164.846,251.400 165.167 C 250.685 165.345,250.070 165.560,250.033 165.645 C 249.997 165.730,249.727 165.802,249.433 165.804 C 249.140 165.806,248.180 165.949,247.300 166.122 C 245.090 166.555,243.024 166.769,240.888 166.786 C 239.623 166.796,238.959 166.889,238.688 167.094 C 238.111 167.530,228.373 167.536,227.331 167.100 C 226.862 166.904,225.899 166.794,224.556 166.784 C 221.585 166.761,215.559 165.999,214.889 165.562 C 214.772 165.486,214.187 165.363,213.589 165.289 C 212.990 165.215,212.319 165.041,212.097 164.903 C 211.875 164.765,211.380 164.587,210.997 164.507 C 208.040 163.889,202.849 160.297,201.462 157.910 C 200.888 156.921,200.000 154.992,200.000 154.733 C 200.000 154.577,199.865 154.126,199.700 153.731 C 199.293 152.757,199.277 147.682,199.677 146.723 C 199.830 146.358,200.020 145.663,200.099 145.180 C 200.179 144.696,200.358 144.165,200.498 144.000 C 200.638 143.835,200.819 143.475,200.901 143.200 C 200.982 142.925,201.353 142.325,201.724 141.866 C 202.096 141.408,202.401 140.958,202.402 140.866 C 202.404 140.775,203.253 139.866,204.290 138.847 C 206.586 136.591,206.677 136.382,205.661 135.733 C 203.693 134.478,201.600 132.203,201.600 131.320 C 201.600 131.083,201.456 130.684,201.281 130.434 C 201.025 130.069,200.967 129.465,200.988 127.382 C 201.019 124.173,201.213 123.603,203.300 120.573 C 204.064 119.464,211.017 112.408,211.350 112.403 C 211.488 112.401,211.601 112.333,211.601 112.250 C 211.602 112.168,211.872 111.947,212.201 111.759 C 213.141 111.225,213.016 110.564,211.850 109.887 C 210.140 108.896,208.178 107.279,206.999 105.890 C 206.327 105.099,204.953 103.212,204.681 102.707 C 204.561 102.483,204.178 101.780,203.831 101.145 C 203.484 100.511,203.200 99.834,203.200 99.643 C 203.200 99.451,203.034 98.980,202.830 98.597 C 202.627 98.214,202.400 97.372,202.326 96.728 C 202.252 96.083,202.058 95.365,201.896 95.133 C 201.477 94.536,201.463 85.767,201.879 84.969 C 202.032 84.677,202.222 83.867,202.302 83.169 C 202.382 82.471,202.617 81.566,202.824 81.158 C 203.031 80.750,203.200 80.198,203.200 79.932 C 203.200 79.667,203.326 79.344,203.480 79.216 C 203.635 79.088,203.822 78.740,203.896 78.442 C 203.970 78.144,204.149 77.765,204.292 77.600 C 204.435 77.435,204.620 77.080,204.702 76.811 C 204.784 76.543,205.172 75.868,205.564 75.311 C 205.956 74.755,206.523 73.940,206.825 73.500 C 207.407 72.649,209.368 70.694,210.200 70.136 C 210.475 69.951,211.497 69.260,212.471 68.600 C 213.445 67.940,214.301 67.400,214.374 67.400 C 214.446 67.400,214.820 67.232,215.203 67.027 C 215.586 66.821,216.186 66.591,216.536 66.514 C 216.886 66.437,217.280 66.245,217.411 66.087 C 217.542 65.929,217.887 65.800,218.177 65.800 C 218.468 65.800,219.020 65.634,219.403 65.431 C 219.786 65.227,220.582 65.005,221.171 64.937 C 221.760 64.869,222.349 64.726,222.479 64.618 C 222.609 64.510,223.770 64.358,225.060 64.281 C 226.489 64.196,227.540 64.038,227.752 63.877 C 228.269 63.484,238.029 63.484,238.657 63.877 M308.479 63.916 C 308.545 64.090,308.600 77.319,308.600 93.312 L 308.600 122.392 309.392 122.796 C 309.861 123.035,310.576 123.200,311.143 123.200 C 311.671 123.200,312.417 123.301,312.801 123.425 C 313.186 123.548,314.400 123.751,315.500 123.875 L 317.500 124.100 317.500 129.500 L 317.500 134.900 298.154 134.951 L 278.808 135.002 278.698 134.551 C 278.637 134.303,278.613 131.850,278.644 129.100 L 278.700 124.100 280.800 123.883 C 281.955 123.764,283.153 123.562,283.463 123.433 C 283.773 123.305,284.501 123.200,285.082 123.200 C 285.798 123.200,286.272 123.087,286.552 122.850 C 286.780 122.658,287.131 122.400,287.333 122.278 C 287.934 121.915,287.902 79.177,287.300 78.350 C 286.747 77.589,285.035 76.813,282.508 76.178 C 282.072 76.069,281.611 75.892,281.484 75.786 C 281.356 75.680,280.794 75.458,280.235 75.292 C 278.606 74.808,278.108 73.647,278.889 72.150 C 279.063 71.818,279.230 70.634,279.313 69.150 C 279.410 67.427,279.539 66.599,279.748 66.359 C 279.944 66.134,280.014 65.759,279.952 65.259 C 279.901 64.842,279.933 64.297,280.025 64.050 L 280.190 63.600 294.274 63.600 C 306.932 63.600,308.369 63.632,308.479 63.916 M231.127 77.301 C 230.812 77.466,230.317 77.602,230.027 77.604 C 229.737 77.607,229.108 77.787,228.628 78.004 C 228.149 78.222,227.593 78.400,227.392 78.400 C 227.192 78.400,226.905 78.523,226.755 78.674 C 226.604 78.825,226.214 79.086,225.887 79.255 C 225.561 79.423,224.821 80.088,224.241 80.731 C 222.687 82.457,222.621 82.545,222.483 83.095 C 222.414 83.373,222.280 83.600,222.186 83.600 C 222.092 83.600,221.913 83.983,221.788 84.450 C 221.663 84.918,221.457 85.426,221.330 85.581 C 220.922 86.078,221.021 92.765,221.449 93.500 C 221.641 93.830,221.798 94.291,221.799 94.526 C 221.799 94.760,221.935 95.063,222.100 95.200 C 222.265 95.337,222.400 95.565,222.400 95.707 C 222.400 95.850,222.577 96.176,222.793 96.433 C 223.009 96.690,223.415 97.185,223.696 97.533 C 224.749 98.839,226.808 99.890,230.100 100.804 C 231.924 101.310,238.220 100.829,239.255 100.104 C 239.494 99.937,239.835 99.800,240.014 99.800 C 240.193 99.800,240.546 99.620,240.800 99.400 C 241.054 99.180,241.361 99.000,241.484 99.000 C 242.103 99.000,245.373 95.369,245.407 94.644 C 245.411 94.565,245.587 94.140,245.800 93.700 C 246.013 93.260,246.189 92.605,246.193 92.244 C 246.197 91.883,246.335 91.264,246.500 90.869 C 246.886 89.945,246.890 88.195,246.506 87.688 C 246.338 87.466,246.205 86.830,246.194 86.200 C 246.180 85.404,246.016 84.796,245.600 84.000 C 245.284 83.395,244.898 82.630,244.741 82.300 C 244.296 81.365,242.099 79.313,240.944 78.754 C 238.988 77.807,238.440 77.600,237.870 77.593 C 237.556 77.589,237.075 77.457,236.800 77.300 C 236.084 76.891,231.913 76.891,231.127 77.301 M238.595 78.252 C 238.866 78.443,239.226 78.600,239.395 78.600 C 240.439 78.600,244.060 81.472,244.319 82.506 C 244.385 82.769,244.565 83.088,244.720 83.216 C 244.874 83.344,245.000 83.545,245.000 83.661 C 245.000 83.778,245.172 84.240,245.381 84.687 C 245.831 85.646,246.240 89.958,245.971 90.899 C 245.877 91.228,245.800 91.824,245.800 92.224 C 245.800 92.624,245.676 93.054,245.524 93.180 C 245.372 93.306,245.196 93.668,245.133 93.985 C 244.980 94.751,243.512 96.868,242.616 97.616 C 241.494 98.553,241.428 98.600,241.235 98.600 C 241.136 98.600,240.839 98.766,240.577 98.970 C 240.315 99.173,239.830 99.405,239.500 99.485 C 239.170 99.565,238.733 99.782,238.529 99.966 C 237.985 100.456,229.542 100.469,228.791 99.980 C 228.521 99.804,227.953 99.596,227.530 99.517 C 226.170 99.265,223.224 96.849,222.874 95.700 C 222.807 95.480,222.628 95.158,222.476 94.984 C 222.323 94.810,222.102 94.135,221.983 93.484 C 221.865 92.833,221.685 92.215,221.584 92.110 C 221.309 91.826,221.356 87.655,221.639 87.137 C 221.770 86.897,221.939 86.205,222.015 85.600 C 222.366 82.788,225.697 79.106,228.335 78.613 C 228.809 78.525,229.309 78.359,229.448 78.244 C 230.130 77.680,237.792 77.686,238.595 78.252 M218.572 140.629 C 216.071 143.937,215.800 144.576,215.800 147.174 L 215.800 149.335 216.850 150.463 C 218.191 151.905,220.981 153.400,222.330 153.400 C 222.835 153.400,223.443 153.550,223.748 153.750 C 224.535 154.265,241.231 154.288,242.013 153.775 C 242.286 153.597,242.867 153.403,243.304 153.345 C 244.853 153.138,248.125 151.610,249.055 150.659 C 249.595 150.106,250.000 149.496,250.000 149.235 C 250.000 149.068,250.156 148.759,250.347 148.548 C 250.915 147.921,250.965 145.411,250.419 144.918 C 250.189 144.709,250.000 144.372,250.000 144.169 C 250.000 143.786,248.352 142.612,247.800 142.603 C 247.635 142.600,247.230 142.456,246.900 142.282 C 246.546 142.097,245.431 141.902,244.184 141.809 C 243.021 141.722,241.895 141.558,241.683 141.445 C 241.471 141.331,239.048 141.173,236.299 141.094 C 233.002 140.998,231.130 140.865,230.800 140.701 C 230.475 140.540,228.723 140.407,225.800 140.322 C 223.325 140.250,220.800 140.138,220.190 140.074 C 219.110 139.961,219.066 139.975,218.572 140.629 M225.300 140.870 C 225.529 140.998,228.007 141.200,231.100 141.344 C 245.349 142.008,248.898 142.610,249.686 144.496 C 249.836 144.856,250.058 145.212,250.180 145.287 C 250.509 145.491,250.460 147.702,250.120 147.984 C 249.965 148.112,249.785 148.432,249.719 148.695 C 249.520 149.488,248.728 150.588,248.265 150.716 C 248.025 150.782,247.674 151.008,247.484 151.218 C 247.294 151.428,247.002 151.600,246.835 151.600 C 246.668 151.600,246.383 151.735,246.200 151.900 C 246.018 152.064,245.450 152.278,244.937 152.373 C 244.424 152.469,243.884 152.647,243.737 152.769 C 243.590 152.891,242.802 153.045,241.985 153.112 C 241.168 153.179,240.161 153.361,239.746 153.517 C 238.660 153.924,225.960 153.934,225.623 153.527 C 225.483 153.360,224.730 153.201,223.663 153.114 C 222.709 153.037,221.679 152.844,221.374 152.687 C 221.069 152.529,220.649 152.400,220.441 152.400 C 220.232 152.400,219.854 152.220,219.600 152.000 C 219.346 151.780,219.009 151.600,218.849 151.600 C 218.546 151.600,216.608 149.820,216.603 149.536 C 216.601 149.445,216.465 149.236,216.300 149.071 C 215.844 148.616,215.907 146.120,216.400 145.100 C 216.613 144.660,216.789 144.140,216.793 143.944 C 216.797 143.748,216.929 143.538,217.086 143.478 C 217.243 143.417,217.464 143.105,217.576 142.784 C 217.688 142.463,217.874 142.200,217.990 142.200 C 218.105 142.200,218.200 142.084,218.200 141.943 C 218.200 141.802,218.436 141.413,218.724 141.080 L 219.248 140.474 222.074 140.561 C 223.628 140.609,225.080 140.748,225.300 140.870 " stroke="none" fill="#9c947c" fill-rule="evenodd"></path><path id="path3" d="M96.074 28.781 C 95.290 29.192,94.296 29.807,93.866 30.148 C 92.374 31.330,80.000 43.845,80.000 44.173 C 80.000 44.944,96.314 60.872,97.034 60.804 C 97.400 60.770,98.960 60.733,100.500 60.721 L 103.300 60.700 104.807 61.443 C 107.257 62.652,110.400 66.289,110.400 67.916 C 110.400 68.169,110.490 68.432,110.600 68.500 C 110.848 68.653,110.870 73.133,110.624 73.285 C 109.523 73.965,109.994 74.541,118.861 83.377 C 125.992 90.481,126.394 90.846,126.933 90.704 C 127.985 90.427,132.052 90.353,132.895 90.595 C 139.964 92.625,143.050 101.510,138.619 107.078 C 138.278 107.505,138.000 107.921,138.000 108.001 C 138.000 108.190,136.503 109.338,135.269 110.094 C 132.721 111.657,127.175 111.855,125.755 110.435 C 125.626 110.306,125.430 110.200,125.321 110.200 C 124.744 110.200,121.600 107.571,121.600 107.089 C 121.600 106.964,121.420 106.699,121.200 106.500 C 120.980 106.301,120.800 105.983,120.800 105.793 C 120.800 105.604,120.667 105.339,120.505 105.204 C 120.343 105.070,120.157 104.631,120.093 104.230 C 120.028 103.828,119.837 103.115,119.669 102.646 C 119.322 101.674,119.383 100.430,119.881 98.319 C 120.060 97.559,120.157 96.778,120.095 96.584 C 119.908 95.996,105.359 81.573,105.066 81.686 C 104.734 81.813,104.666 120.375,104.995 120.991 C 105.103 121.192,105.584 121.587,106.065 121.869 C 107.982 122.993,109.756 125.348,110.484 127.738 C 110.893 129.080,110.919 132.923,110.525 133.734 C 110.373 134.045,110.036 134.749,109.775 135.297 C 109.260 136.377,107.442 138.800,107.146 138.800 C 107.046 138.800,106.605 139.107,106.167 139.482 C 105.728 139.857,105.129 140.224,104.835 140.298 C 104.541 140.371,104.030 140.551,103.700 140.699 C 102.164 141.384,98.161 141.449,97.300 140.802 C 97.190 140.720,96.760 140.542,96.344 140.408 C 94.650 139.863,91.400 137.216,91.400 136.383 C 91.400 136.245,91.283 135.989,91.141 135.816 C 89.783 134.164,89.265 128.760,90.305 127.104 C 90.444 126.882,90.624 126.475,90.704 126.200 C 90.783 125.925,91.153 125.325,91.524 124.866 C 91.896 124.408,92.200 123.953,92.200 123.856 C 92.200 123.611,93.471 122.400,93.729 122.400 C 93.844 122.400,94.101 122.220,94.300 122.000 C 94.499 121.780,94.776 121.600,94.916 121.600 C 95.055 121.600,95.446 121.367,95.785 121.082 L 96.400 120.564 96.400 100.802 L 96.400 81.040 95.650 80.573 C 95.238 80.316,94.810 80.070,94.700 80.026 C 91.066 78.560,88.718 71.922,90.303 67.594 C 90.507 67.037,90.510 66.793,90.319 66.436 C 89.910 65.672,74.334 50.200,73.973 50.200 C 73.722 50.200,31.326 92.374,29.838 94.104 C 29.694 94.272,29.477 94.699,29.355 95.054 C 29.234 95.409,29.082 95.745,29.017 95.800 C 27.833 96.810,27.513 101.545,28.505 103.400 C 28.769 103.895,29.118 104.570,29.281 104.900 C 29.659 105.667,94.532 170.512,95.200 170.790 C 95.475 170.905,95.835 171.084,96.000 171.187 C 98.333 172.647,102.790 172.367,105.344 170.600 C 107.286 169.255,170.527 105.831,170.690 105.064 C 170.765 104.714,170.955 104.320,171.113 104.189 C 171.271 104.058,171.401 103.760,171.401 103.526 C 171.402 103.291,171.537 102.842,171.701 102.527 C 172.134 101.697,172.087 98.990,171.615 97.579 C 171.206 96.358,171.028 96.004,170.066 94.500 C 169.236 93.201,106.017 30.000,105.549 30.000 C 105.357 30.000,105.200 29.911,105.200 29.803 C 105.200 29.694,104.908 29.463,104.550 29.289 C 104.192 29.115,103.495 28.757,103.000 28.495 C 101.412 27.651,97.956 27.794,96.074 28.781 " stroke="none" fill="#eb4f2c" fill-rule="evenodd"></path></g></svg>
