<svg id="svg" xmlns="http://www.w3.org/2000/svg" xmlns:xlink="http://www.w3.org/1999/xlink" width="80" height="80" viewBox="0, 0, 400,400"><g id="svgg"><path id="path0" d="M191.000 42.797 C 189.900 42.980,187.290 43.150,185.200 43.175 C 183.110 43.199,180.680 43.398,179.800 43.618 C 178.920 43.837,176.400 44.270,174.200 44.581 C 172.000 44.892,169.480 45.328,168.600 45.550 C 167.720 45.773,166.055 46.145,164.900 46.377 C 160.277 47.308,158.547 47.732,157.400 48.213 C 156.740 48.490,155.436 48.842,154.502 48.993 C 153.568 49.145,152.712 49.418,152.600 49.600 C 152.488 49.782,151.632 50.053,150.698 50.204 C 149.764 50.354,148.601 50.730,148.114 51.038 C 147.627 51.347,146.904 51.600,146.508 51.600 C 146.112 51.600,145.116 51.960,144.296 52.400 C 143.475 52.840,142.532 53.200,142.200 53.200 C 141.868 53.200,140.925 53.560,140.104 54.000 C 139.284 54.440,138.399 54.800,138.138 54.800 C 137.690 54.800,137.020 55.099,133.521 56.857 C 132.707 57.266,131.784 57.600,131.470 57.600 C 131.155 57.600,130.689 57.852,130.433 58.161 C 130.177 58.469,129.481 58.843,128.888 58.992 C 128.294 59.141,127.716 59.384,127.604 59.532 C 127.492 59.679,126.230 60.391,124.800 61.113 C 121.053 63.005,117.897 64.795,117.169 65.440 C 116.821 65.748,116.394 66.000,116.219 66.000 C 115.950 66.000,111.870 68.540,110.600 69.498 C 110.380 69.664,109.046 70.581,107.637 71.535 C 104.389 73.733,102.839 74.842,101.956 75.600 C 100.620 76.747,99.803 77.414,96.810 79.800 C 90.098 85.150,80.210 95.006,75.490 101.050 C 74.566 102.232,73.673 103.200,73.505 103.200 C 73.337 103.200,73.200 103.410,73.200 103.666 C 73.200 103.923,72.923 104.418,72.584 104.766 C 71.625 105.753,68.467 109.969,66.865 112.400 C 66.068 113.610,65.277 114.660,65.108 114.733 C 64.939 114.807,64.800 115.055,64.800 115.286 C 64.800 115.516,64.160 116.595,63.378 117.683 C 62.596 118.772,61.784 120.053,61.572 120.531 C 61.361 121.009,60.830 121.940,60.393 122.600 C 59.956 123.260,59.321 124.340,58.981 125.000 C 58.642 125.660,57.657 127.460,56.793 129.000 C 55.929 130.540,55.036 132.250,54.808 132.800 C 54.581 133.350,54.126 134.278,53.797 134.862 C 53.469 135.446,53.200 136.189,53.200 136.513 C 53.200 136.837,52.935 137.322,52.611 137.591 C 52.286 137.860,51.908 138.686,51.769 139.426 C 51.630 140.166,51.265 140.980,50.958 141.235 C 50.651 141.490,50.394 141.991,50.386 142.349 C 50.379 142.707,50.025 143.720,49.600 144.600 C 49.175 145.480,48.821 146.481,48.814 146.824 C 48.806 147.166,48.536 147.796,48.213 148.224 C 47.890 148.651,47.614 149.360,47.599 149.800 C 47.585 150.240,47.225 151.320,46.800 152.200 C 46.375 153.080,46.021 154.261,46.014 154.824 C 46.006 155.386,45.736 156.196,45.413 156.624 C 45.090 157.051,44.822 157.670,44.819 158.000 C 44.815 158.330,44.465 159.770,44.042 161.200 C 42.904 165.040,42.400 167.081,41.815 170.200 C 41.527 171.740,41.097 173.900,40.859 175.000 C 40.621 176.100,40.235 178.350,40.001 180.000 C 39.767 181.650,39.378 184.260,39.136 185.800 C 38.521 189.714,38.545 220.122,39.167 223.800 C 39.427 225.340,39.885 228.400,40.185 230.600 C 40.484 232.800,40.911 235.140,41.133 235.800 C 41.355 236.460,41.645 237.935,41.779 239.077 C 41.912 240.219,42.287 241.788,42.611 242.564 C 42.935 243.340,43.200 244.529,43.200 245.207 C 43.200 245.885,43.473 246.968,43.807 247.613 C 44.140 248.258,44.525 249.597,44.660 250.589 C 44.796 251.580,45.153 252.595,45.454 252.845 C 45.754 253.094,46.006 253.771,46.014 254.349 C 46.021 254.927,46.375 256.120,46.800 257.000 C 47.225 257.880,47.585 258.960,47.599 259.400 C 47.614 259.840,47.890 260.549,48.213 260.976 C 48.536 261.404,48.806 262.034,48.814 262.376 C 48.821 262.719,49.175 263.720,49.600 264.600 C 50.025 265.480,50.379 266.442,50.386 266.738 C 50.394 267.034,50.658 267.754,50.973 268.338 C 51.287 268.922,51.939 270.300,52.420 271.400 C 52.901 272.500,53.454 273.670,53.648 274.000 C 53.843 274.330,54.181 275.050,54.401 275.600 C 54.620 276.150,54.981 276.870,55.202 277.200 C 55.424 277.530,55.707 278.070,55.831 278.400 C 55.956 278.730,56.228 279.270,56.437 279.600 C 56.645 279.930,57.085 280.740,57.414 281.400 C 57.743 282.060,58.181 282.870,58.388 283.200 C 58.595 283.530,59.627 285.298,60.682 287.129 C 61.737 288.960,62.780 290.760,63.000 291.129 C 63.701 292.305,66.564 296.592,66.787 296.800 C 66.906 296.910,67.542 297.810,68.201 298.800 C 68.861 299.790,69.580 300.820,69.800 301.090 C 70.020 301.359,70.560 302.044,71.000 302.610 C 71.440 303.177,72.115 304.019,72.500 304.481 C 72.885 304.944,73.203 305.430,73.206 305.561 C 73.209 305.693,73.940 306.610,74.830 307.600 C 75.720 308.590,77.547 310.660,78.890 312.200 C 83.080 317.003,94.870 328.400,95.649 328.400 C 95.842 328.400,96.000 328.542,96.000 328.715 C 96.000 329.302,110.296 339.979,111.100 339.992 C 111.375 339.996,111.600 340.170,111.600 340.378 C 111.600 340.730,112.297 341.187,114.800 342.476 C 115.350 342.759,116.038 343.218,116.329 343.495 C 116.619 343.773,117.078 344.000,117.349 344.000 C 117.619 344.000,118.057 344.217,118.322 344.482 C 118.843 345.003,122.775 347.301,124.400 348.034 C 124.950 348.282,125.670 348.643,126.000 348.836 C 126.330 349.029,128.130 349.918,130.000 350.813 C 131.870 351.707,134.120 352.791,135.000 353.221 C 135.880 353.650,136.810 354.002,137.068 354.001 C 137.325 354.000,138.045 354.261,138.668 354.580 C 140.958 355.754,143.468 356.800,144.026 356.814 C 144.342 356.821,145.320 357.175,146.200 357.600 C 148.048 358.493,154.257 358.719,155.701 357.946 C 159.463 355.933,159.709 354.518,159.368 336.876 L 159.080 321.927 157.840 322.126 C 157.158 322.236,155.790 322.544,154.800 322.810 C 151.272 323.758,133.058 323.512,130.098 322.476 C 128.723 321.994,127.158 321.600,126.622 321.600 C 126.086 321.600,125.536 321.420,125.400 321.200 C 125.264 320.980,124.353 320.598,123.376 320.352 C 122.399 320.106,121.600 319.766,121.600 319.596 C 121.600 319.426,121.140 319.171,120.577 319.030 C 120.014 318.889,118.666 318.149,117.581 317.387 C 116.496 316.624,115.501 316.000,115.370 316.000 C 115.149 316.000,113.900 314.911,111.236 312.399 C 109.566 310.824,106.800 307.185,106.800 306.564 C 106.800 306.254,106.640 306.000,106.443 306.000 C 106.247 306.000,105.805 305.295,105.460 304.434 C 105.116 303.573,104.646 302.752,104.417 302.610 C 104.188 302.469,104.000 302.018,104.000 301.609 C 104.000 301.200,103.726 300.355,103.392 299.732 C 103.058 299.110,102.608 298.150,102.393 297.600 C 102.178 297.050,101.831 296.330,101.623 296.000 C 101.415 295.670,100.473 294.050,99.531 292.400 C 98.588 290.750,97.633 289.191,97.409 288.935 C 97.184 288.679,96.551 287.869,96.002 287.135 C 94.082 284.568,90.084 280.872,87.154 278.956 C 79.183 273.742,77.822 269.475,83.677 268.055 C 87.791 267.058,94.962 268.202,98.400 270.404 C 98.730 270.615,99.540 271.038,100.200 271.343 C 102.222 272.278,107.492 276.686,109.236 278.903 C 110.144 280.056,111.048 281.060,111.244 281.133 C 111.440 281.207,111.600 281.494,111.600 281.771 C 111.600 282.049,111.960 282.602,112.400 283.000 C 112.840 283.398,113.200 283.870,113.200 284.049 C 113.200 284.862,117.508 290.639,119.846 292.962 C 123.179 296.273,124.413 297.147,128.400 299.017 C 129.610 299.585,130.935 300.232,131.344 300.456 C 134.897 302.395,150.509 302.378,152.983 300.432 C 153.212 300.252,154.111 299.976,154.980 299.819 C 155.848 299.662,156.923 299.279,157.369 298.967 C 157.814 298.655,158.490 298.400,158.871 298.400 C 159.359 298.400,159.641 297.956,159.823 296.900 C 159.966 296.075,160.334 294.629,160.642 293.686 C 160.949 292.743,161.201 291.663,161.202 291.286 C 161.204 290.909,161.457 290.117,161.765 289.527 C 162.073 288.937,162.443 287.914,162.588 287.255 C 162.733 286.595,163.110 285.841,163.426 285.579 C 163.742 285.317,164.000 284.852,164.000 284.547 C 164.000 283.963,166.326 280.435,167.726 278.895 C 169.060 277.428,167.340 276.643,161.501 276.053 C 159.577 275.859,157.777 275.522,157.501 275.304 C 157.225 275.087,155.952 274.791,154.670 274.648 C 153.389 274.504,151.702 274.119,150.922 273.793 C 150.141 273.467,149.029 273.199,148.451 273.198 C 147.873 273.196,146.897 272.933,146.283 272.612 C 145.669 272.292,144.499 271.908,143.683 271.758 C 142.867 271.609,141.845 271.242,141.411 270.943 C 140.977 270.644,140.367 270.400,140.055 270.400 C 139.215 270.400,130.770 266.396,128.200 264.779 C 127.540 264.364,126.460 263.724,125.800 263.358 C 120.455 260.389,108.000 247.789,108.000 245.351 C 108.000 245.048,107.859 244.800,107.686 244.800 C 107.513 244.800,106.838 243.771,106.186 242.514 C 105.534 241.256,104.775 239.984,104.500 239.685 C 104.225 239.387,104.000 238.900,104.000 238.604 C 104.000 238.307,103.732 237.555,103.405 236.932 C 102.407 235.031,101.200 232.074,101.198 231.522 C 101.196 231.235,100.944 230.520,100.638 229.933 C 100.332 229.346,99.952 228.086,99.793 227.133 C 99.635 226.180,99.257 224.914,98.953 224.320 C 98.649 223.726,98.400 222.629,98.400 221.883 C 98.400 221.137,98.122 219.644,97.783 218.564 C 97.444 217.484,96.991 214.620,96.777 212.200 C 96.564 209.780,96.221 206.540,96.015 205.000 C 95.531 201.373,95.540 192.366,96.030 189.800 C 96.240 188.700,96.583 186.352,96.792 184.582 C 97.001 182.813,97.448 180.703,97.786 179.895 C 98.124 179.087,98.400 177.920,98.400 177.302 C 98.400 176.684,98.647 175.823,98.949 175.389 C 99.251 174.955,99.634 173.970,99.800 173.200 C 99.966 172.430,100.349 171.445,100.651 171.011 C 100.953 170.577,101.200 169.924,101.200 169.560 C 101.200 169.196,101.458 168.683,101.774 168.421 C 102.090 168.159,102.462 167.430,102.600 166.800 C 102.738 166.170,103.110 165.441,103.426 165.179 C 103.742 164.917,104.000 164.460,104.000 164.164 C 104.000 163.733,106.072 160.391,107.697 158.200 C 109.160 156.228,111.839 152.973,112.089 152.867 C 112.548 152.670,112.467 151.027,111.973 150.533 C 111.504 150.064,110.597 146.434,109.941 142.400 C 109.319 138.571,109.758 123.465,110.551 121.400 C 110.888 120.520,111.174 119.260,111.185 118.600 C 111.196 117.940,111.448 116.933,111.746 116.363 C 112.044 115.792,112.419 114.622,112.580 113.763 C 112.742 112.903,113.152 111.660,113.494 111.000 C 113.835 110.340,114.242 109.530,114.399 109.200 C 114.815 108.327,122.781 108.143,125.000 108.955 C 125.880 109.277,127.380 109.662,128.333 109.811 C 129.286 109.960,130.546 110.332,131.133 110.638 C 131.720 110.944,132.571 111.196,133.024 111.198 C 133.476 111.199,134.196 111.464,134.624 111.787 C 135.051 112.110,135.673 112.380,136.006 112.387 C 136.339 112.394,137.239 112.732,138.006 113.139 C 138.773 113.545,139.895 113.998,140.500 114.146 C 141.105 114.294,141.600 114.578,141.600 114.776 C 141.600 114.974,142.128 115.252,142.772 115.394 C 143.417 115.536,144.159 115.910,144.421 116.226 C 144.683 116.542,145.153 116.800,145.465 116.800 C 145.777 116.800,146.520 117.122,147.116 117.516 C 149.093 118.822,149.790 119.225,150.900 119.702 C 151.505 119.962,152.000 120.316,152.000 120.488 C 152.000 120.659,152.206 120.800,152.459 120.800 C 152.711 120.800,153.926 121.475,155.159 122.300 C 157.560 123.907,158.675 124.604,159.549 125.046 C 159.851 125.198,160.931 125.024,161.949 124.660 C 162.967 124.295,164.291 123.997,164.892 123.998 C 165.492 123.999,166.662 123.738,167.492 123.418 C 168.321 123.097,170.350 122.650,172.000 122.425 C 173.650 122.199,176.350 121.822,178.000 121.588 C 187.589 120.227,190.764 119.999,200.200 119.994 C 209.671 119.990,216.244 120.454,223.600 121.645 C 225.030 121.877,227.460 122.235,229.000 122.441 C 230.540 122.648,232.479 123.083,233.308 123.408 C 234.138 123.734,235.308 123.999,235.908 123.998 C 236.509 123.997,237.833 124.295,238.851 124.660 C 240.747 125.339,241.028 125.299,242.857 124.096 C 244.052 123.309,247.760 121.030,249.944 119.740 C 250.745 119.267,252.480 118.314,253.800 117.622 C 255.120 116.930,256.470 116.192,256.800 115.981 C 257.130 115.771,257.850 115.420,258.400 115.201 C 258.950 114.981,259.670 114.643,260.000 114.448 C 261.295 113.685,264.317 112.399,264.844 112.387 C 265.150 112.380,265.749 112.110,266.176 111.787 C 266.604 111.464,267.324 111.199,267.776 111.198 C 268.229 111.196,269.094 110.937,269.698 110.622 C 270.302 110.307,271.649 109.922,272.691 109.765 C 273.734 109.609,275.169 109.238,275.881 108.941 C 280.439 107.036,287.600 108.753,287.600 111.751 C 287.600 112.240,287.792 112.832,288.027 113.067 C 288.430 113.470,289.143 116.129,290.047 120.600 C 290.269 121.700,290.712 123.860,291.031 125.400 C 291.711 128.685,291.813 139.387,291.180 141.052 C 290.949 141.659,290.591 143.496,290.383 145.134 C 290.175 146.771,289.832 148.320,289.620 148.576 C 288.189 150.300,288.702 152.897,290.979 155.464 C 292.390 157.054,292.364 157.018,294.853 160.800 C 297.024 164.101,300.400 170.657,300.400 171.575 C 300.400 171.824,300.650 172.427,300.955 172.914 C 301.260 173.401,301.627 174.467,301.770 175.283 C 301.913 176.099,302.292 177.269,302.612 177.883 C 302.933 178.497,303.196 179.562,303.198 180.250 C 303.199 180.937,303.512 182.287,303.893 183.250 C 304.790 185.512,304.943 210.279,304.077 213.000 C 303.797 213.880,303.405 216.100,303.205 217.934 C 303.006 219.767,302.664 221.481,302.447 221.744 C 302.229 222.006,301.925 223.205,301.771 224.410 C 301.617 225.614,301.246 227.086,300.946 227.680 C 300.646 228.274,300.394 229.084,300.386 229.480 C 300.379 229.876,300.025 230.920,299.600 231.800 C 299.175 232.680,298.821 233.642,298.814 233.938 C 298.806 234.234,298.551 234.954,298.247 235.538 C 297.943 236.122,297.186 237.680,296.564 239.000 C 295.943 240.320,295.333 241.490,295.209 241.600 C 295.085 241.710,294.755 242.250,294.476 242.800 C 292.934 245.837,289.998 249.927,287.306 252.788 C 286.588 253.552,286.000 254.317,286.000 254.488 C 286.000 254.660,285.730 254.800,285.400 254.800 C 285.070 254.800,284.800 255.070,284.800 255.400 C 284.800 255.730,284.665 256.004,284.500 256.010 C 284.335 256.015,283.210 256.920,282.000 258.020 C 279.984 259.853,273.828 264.285,272.400 264.932 C 272.070 265.081,270.900 265.731,269.800 266.375 C 268.700 267.020,267.544 267.559,267.231 267.573 C 266.919 267.588,266.379 267.833,266.031 268.119 C 265.684 268.404,264.320 269.049,263.000 269.552 C 261.680 270.054,259.970 270.711,259.200 271.011 C 258.430 271.311,257.203 271.674,256.473 271.816 C 255.743 271.959,254.663 272.327,254.073 272.635 C 253.483 272.943,252.527 273.196,251.949 273.198 C 251.371 273.199,250.276 273.460,249.516 273.777 C 248.756 274.095,247.159 274.471,245.967 274.614 C 244.775 274.757,243.080 275.115,242.200 275.410 C 241.320 275.705,239.177 276.059,237.437 276.196 C 233.695 276.490,231.445 277.405,232.524 278.194 C 232.896 278.466,233.200 278.803,233.200 278.944 C 233.200 279.085,233.515 279.530,233.900 279.934 C 234.982 281.068,236.248 283.071,237.229 285.200 C 237.483 285.750,237.919 286.650,238.199 287.200 C 238.479 287.750,238.839 288.830,239.000 289.600 C 239.161 290.370,239.442 291.187,239.625 291.415 C 239.808 291.644,240.150 293.034,240.385 294.505 C 240.620 295.976,240.989 297.646,241.206 298.216 C 241.451 298.859,241.600 309.548,241.600 326.400 C 241.600 355.450,241.543 354.676,243.845 356.912 L 245.377 358.400 249.290 358.400 C 252.439 358.400,253.494 358.244,254.696 357.600 C 255.516 357.160,256.551 356.794,256.994 356.787 C 257.437 356.780,258.149 356.510,258.576 356.187 C 259.004 355.864,259.614 355.600,259.933 355.600 C 260.251 355.600,261.342 355.221,262.356 354.757 C 263.370 354.293,264.740 353.682,265.400 353.398 C 268.773 351.947,282.020 345.217,282.400 344.760 C 282.510 344.628,283.050 344.286,283.600 344.000 C 287.022 342.221,297.981 334.678,301.200 331.885 C 301.530 331.599,302.924 330.473,304.299 329.382 C 305.673 328.292,306.798 327.265,306.799 327.100 C 306.799 326.935,306.966 326.800,307.168 326.800 C 307.371 326.800,308.239 326.125,309.097 325.300 C 318.531 316.231,320.825 313.832,325.261 308.400 C 326.429 306.970,327.613 305.656,327.892 305.480 C 328.172 305.304,328.400 304.899,328.400 304.580 C 328.400 304.261,328.550 304.000,328.733 304.000 C 328.916 304.000,329.638 303.145,330.339 302.100 C 331.039 301.055,332.419 299.120,333.406 297.800 C 334.392 296.480,335.323 295.130,335.475 294.800 C 335.626 294.470,336.347 293.347,337.075 292.304 C 337.804 291.261,338.400 290.325,338.400 290.224 C 338.400 290.123,338.934 289.249,339.586 288.283 C 340.238 287.316,340.963 286.092,341.196 285.563 C 341.428 285.033,342.056 283.880,342.590 283.000 C 343.125 282.120,343.673 281.130,343.810 280.800 C 343.946 280.470,344.217 279.930,344.413 279.600 C 344.749 279.032,347.543 273.314,349.224 269.756 C 349.651 268.852,350.000 267.817,350.000 267.456 C 350.000 267.095,350.166 266.800,350.368 266.800 C 350.571 266.800,350.858 266.215,351.007 265.500 C 351.157 264.785,351.507 263.837,351.787 263.394 C 352.066 262.951,352.432 261.961,352.599 261.194 C 352.766 260.427,353.149 259.445,353.451 259.011 C 353.753 258.577,354.000 257.762,354.000 257.200 C 354.000 256.638,354.255 255.814,354.567 255.369 C 354.879 254.923,355.262 253.848,355.419 252.980 C 355.575 252.111,355.930 250.950,356.207 250.400 C 356.485 249.850,356.897 248.500,357.124 247.400 C 357.352 246.300,357.732 244.635,357.969 243.700 C 358.206 242.765,358.595 241.235,358.832 240.300 C 359.233 238.724,359.777 235.777,360.771 229.800 C 363.302 214.575,363.296 195.368,360.757 179.600 C 360.527 178.170,360.118 175.560,359.850 173.800 C 359.581 172.040,359.145 170.207,358.881 169.726 C 358.616 169.246,358.400 168.217,358.400 167.441 C 358.400 166.665,358.040 165.116,357.600 164.000 C 357.160 162.884,356.800 161.518,356.800 160.965 C 356.800 160.413,356.554 159.474,356.253 158.880 C 355.953 158.286,355.578 157.089,355.420 156.220 C 355.263 155.352,354.879 154.277,354.567 153.831 C 354.255 153.386,354.000 152.611,354.000 152.110 C 354.000 151.608,353.640 150.525,353.200 149.704 C 352.760 148.884,352.400 147.909,352.400 147.538 C 352.400 147.168,352.152 146.355,351.849 145.732 C 351.546 145.110,351.023 143.970,350.687 143.200 C 350.352 142.430,349.685 140.900,349.207 139.800 C 347.064 134.876,346.511 133.733,343.203 127.400 C 342.514 126.080,341.603 124.460,341.179 123.800 C 340.755 123.140,340.186 122.150,339.913 121.600 C 339.641 121.050,338.829 119.747,338.109 118.704 C 337.389 117.661,336.800 116.715,336.800 116.600 C 336.800 116.485,336.170 115.494,335.400 114.396 C 334.630 113.298,333.345 111.455,332.545 110.300 C 331.744 109.145,330.124 106.995,328.945 105.521 C 327.765 104.048,326.800 102.743,326.800 102.622 C 326.800 102.500,326.125 101.695,325.300 100.831 C 324.475 99.968,322.911 98.213,321.824 96.931 C 318.374 92.861,308.567 83.321,304.626 80.200 C 303.792 79.540,302.815 78.717,302.455 78.371 C 302.095 78.025,301.170 77.318,300.400 76.800 C 299.630 76.282,298.694 75.575,298.319 75.229 C 297.240 74.232,296.734 73.859,294.500 72.419 C 293.345 71.675,292.400 70.916,292.400 70.733 C 292.400 70.550,292.218 70.400,291.996 70.400 C 291.774 70.400,290.730 69.815,289.676 69.100 C 286.524 66.961,286.246 66.791,285.100 66.298 C 284.495 66.038,284.000 65.686,284.000 65.518 C 284.000 65.349,283.415 64.936,282.700 64.601 C 281.985 64.265,280.140 63.289,278.600 62.432 C 277.060 61.575,274.810 60.387,273.600 59.792 C 272.390 59.197,271.130 58.550,270.800 58.353 C 270.470 58.156,269.930 57.897,269.600 57.778 C 269.270 57.658,268.370 57.236,267.600 56.838 C 266.830 56.441,265.705 55.997,265.100 55.851 C 264.495 55.704,264.000 55.408,264.000 55.192 C 264.000 54.977,263.678 54.800,263.285 54.800 C 262.891 54.800,261.863 54.440,261.000 54.000 C 260.137 53.560,259.149 53.200,258.804 53.200 C 258.460 53.200,257.814 52.945,257.369 52.633 C 256.923 52.321,255.848 51.936,254.980 51.776 C 254.111 51.617,253.045 51.242,252.611 50.943 C 252.177 50.644,251.457 50.399,251.011 50.398 C 250.565 50.396,249.681 50.124,249.047 49.794 C 248.413 49.463,247.153 49.079,246.247 48.941 C 245.341 48.802,244.114 48.444,243.520 48.144 C 242.926 47.845,241.976 47.600,241.410 47.600 C 240.843 47.600,239.356 47.240,238.104 46.800 C 236.852 46.360,235.101 45.999,234.214 45.998 C 233.326 45.996,232.134 45.752,231.565 45.455 C 230.995 45.158,229.061 44.787,227.267 44.630 C 225.472 44.473,223.418 44.157,222.702 43.926 C 219.908 43.027,194.958 42.139,191.000 42.797 M96.072 274.496 C 96.215 275.499,97.442 275.922,98.142 275.211 C 98.487 274.861,98.408 274.604,97.824 274.173 C 96.664 273.317,95.924 273.454,96.072 274.496 M102.452 279.903 C 101.928 280.881,103.213 282.400,104.564 282.400 C 105.898 282.400,105.951 281.269,104.674 280.070 C 103.553 279.016,102.951 278.971,102.452 279.903 M108.800 288.971 C 108.800 291.011,110.050 292.016,111.767 291.357 C 113.247 290.790,111.453 287.600,109.654 287.600 C 108.948 287.600,108.800 287.838,108.800 288.971 M116.900 297.235 C 115.724 297.678,115.763 298.457,117.036 299.969 C 118.898 302.183,121.648 301.332,120.367 298.939 C 119.643 297.586,118.049 296.803,116.900 297.235 M127.666 304.521 C 126.870 305.479,127.576 306.696,129.158 307.098 C 131.094 307.590,132.400 307.104,132.400 305.893 C 132.400 304.415,128.654 303.330,127.666 304.521 M154.142 304.677 C 153.187 304.864,152.713 306.344,153.283 307.362 C 154.178 308.962,158.577 307.364,158.117 305.605 C 157.846 304.568,156.410 304.233,154.142 304.677 M141.029 306.629 C 140.204 307.453,140.234 308.126,141.131 308.938 C 142.533 310.206,145.600 309.354,145.600 307.697 C 145.600 306.834,144.322 306.000,143.000 306.000 C 142.261 306.000,141.374 306.283,141.029 306.629 " stroke="none" fill="#fafafa" fill-rule="evenodd"></path><path id="path1" d="M0.000 200.000 L 0.000 400.000 200.000 400.000 L 400.000 400.000 400.000 200.000 L 400.000 0.000 200.000 0.000 L 0.000 0.000 0.000 200.000 M210.800 41.624 C 212.670 41.819,216.270 42.165,218.800 42.394 C 221.330 42.623,224.210 43.002,225.200 43.238 C 226.190 43.473,228.286 43.814,229.858 43.996 C 231.430 44.178,233.064 44.513,233.489 44.741 C 233.914 44.968,235.238 45.280,236.431 45.434 C 237.624 45.588,239.050 45.888,239.600 46.101 C 240.150 46.314,241.590 46.724,242.800 47.013 C 246.902 47.993,248.597 48.484,249.800 49.041 C 250.460 49.347,251.622 49.718,252.382 49.865 C 253.143 50.012,254.223 50.372,254.782 50.664 C 255.342 50.956,256.081 51.196,256.424 51.198 C 256.766 51.199,257.396 51.464,257.824 51.787 C 258.251 52.110,258.877 52.380,259.215 52.387 C 259.554 52.394,260.537 52.760,261.400 53.200 C 262.263 53.640,263.210 54.000,263.505 54.000 C 263.800 54.000,264.707 54.351,265.521 54.780 C 266.334 55.209,267.270 55.658,267.600 55.778 C 267.930 55.897,268.470 56.157,268.800 56.355 C 269.130 56.553,271.650 57.835,274.400 59.203 C 277.150 60.572,280.120 62.117,281.000 62.638 C 281.880 63.158,282.870 63.710,283.200 63.865 C 283.530 64.020,284.250 64.445,284.800 64.811 C 285.350 65.177,286.970 66.221,288.400 67.130 C 289.830 68.040,291.180 68.925,291.400 69.099 C 291.620 69.272,292.841 70.099,294.113 70.937 C 296.402 72.444,303.269 77.699,305.200 79.421 C 305.750 79.912,307.010 81.007,308.000 81.854 C 314.929 87.787,325.305 98.788,329.794 104.959 C 330.450 105.862,331.125 106.660,331.294 106.733 C 331.462 106.807,331.600 107.035,331.600 107.241 C 331.600 107.447,332.244 108.467,333.032 109.508 C 336.189 113.680,337.600 115.770,337.600 116.272 C 337.600 116.563,337.758 116.800,337.951 116.800 C 338.145 116.800,338.527 117.340,338.800 118.000 C 339.073 118.660,339.438 119.200,339.609 119.200 C 339.781 119.200,340.123 119.695,340.370 120.300 C 340.936 121.689,342.049 123.608,342.700 124.314 C 342.975 124.613,343.200 125.092,343.200 125.380 C 343.200 125.667,343.452 126.111,343.761 126.367 C 344.069 126.623,344.443 127.319,344.592 127.912 C 344.741 128.506,344.995 129.084,345.157 129.196 C 345.318 129.308,346.314 131.200,347.370 133.400 C 349.205 137.222,349.560 138.005,350.913 141.200 C 351.239 141.970,351.887 143.460,352.353 144.511 C 352.819 145.562,353.200 146.693,353.200 147.025 C 353.200 147.357,353.452 148.027,353.761 148.514 C 354.069 149.001,354.452 150.030,354.612 150.800 C 354.772 151.570,355.149 152.555,355.451 152.989 C 355.753 153.423,356.000 154.197,356.000 154.709 C 356.000 155.221,356.265 156.152,356.589 156.778 C 356.912 157.404,357.297 158.700,357.443 159.658 C 357.589 160.616,357.863 161.597,358.052 161.837 C 358.388 162.268,359.089 165.286,360.225 171.200 C 360.542 172.850,360.908 174.470,361.039 174.800 C 361.170 175.130,361.525 177.290,361.827 179.600 C 362.129 181.910,362.581 184.790,362.832 186.000 C 363.469 189.072,363.452 220.605,362.811 223.600 C 362.553 224.810,362.166 227.330,361.951 229.200 C 361.737 231.070,361.316 233.500,361.016 234.600 C 360.717 235.700,360.353 237.632,360.208 238.894 C 360.063 240.155,359.793 241.280,359.609 241.394 C 359.425 241.508,359.151 242.546,359.000 243.700 C 358.849 244.855,358.472 246.323,358.163 246.961 C 357.853 247.600,357.596 248.590,357.591 249.161 C 357.586 249.733,357.226 250.985,356.791 251.944 C 356.356 252.903,356.000 254.083,356.000 254.567 C 356.000 255.051,355.736 255.796,355.413 256.224 C 355.090 256.651,354.820 257.327,354.813 257.726 C 354.806 258.125,354.457 259.295,354.037 260.326 C 353.617 261.357,352.868 263.280,352.372 264.600 C 350.966 268.338,346.670 277.829,345.581 279.600 C 345.378 279.930,344.943 280.740,344.614 281.400 C 344.285 282.060,343.841 282.870,343.628 283.200 C 343.414 283.530,342.206 285.600,340.944 287.800 C 339.682 290.000,338.053 292.653,337.325 293.696 C 336.596 294.739,336.000 295.689,336.000 295.808 C 336.000 295.926,335.325 296.893,334.500 297.956 C 333.675 299.019,332.730 300.298,332.400 300.799 C 331.404 302.310,325.944 309.305,324.629 310.755 C 320.504 315.301,318.650 317.264,315.742 320.158 C 311.591 324.290,306.259 329.190,304.200 330.766 C 303.320 331.439,302.336 332.218,302.014 332.495 C 300.905 333.451,297.224 336.203,295.186 337.600 C 294.063 338.370,292.932 339.180,292.672 339.400 C 291.729 340.200,285.160 344.387,284.000 344.929 C 283.670 345.083,282.860 345.558,282.200 345.984 C 280.559 347.045,274.676 350.186,273.600 350.577 C 273.270 350.697,272.730 350.976,272.400 351.198 C 272.070 351.419,271.350 351.780,270.800 351.999 C 270.250 352.219,269.530 352.552,269.200 352.740 C 267.914 353.474,265.750 354.384,264.716 354.625 C 264.120 354.765,263.423 355.131,263.167 355.439 C 262.911 355.748,262.347 356.000,261.913 356.000 C 261.479 356.000,260.646 356.268,260.062 356.595 C 258.123 357.680,252.222 359.586,249.847 359.893 C 247.307 360.222,244.153 358.919,242.446 356.837 L 241.000 355.074 240.767 328.437 C 240.533 301.764,240.245 295.917,239.015 292.975 C 238.677 292.165,238.400 291.147,238.400 290.713 C 238.400 290.279,238.144 289.446,237.831 288.862 C 237.518 288.278,236.855 286.900,236.357 285.800 C 235.395 283.676,234.702 282.595,232.300 279.476 C 229.765 276.185,229.992 275.936,236.000 275.416 C 237.430 275.292,239.484 274.923,240.564 274.595 C 241.644 274.268,243.224 274.000,244.076 274.000 C 244.929 274.000,246.208 273.757,246.919 273.459 C 247.631 273.162,249.110 272.785,250.207 272.622 C 251.303 272.459,252.380 272.183,252.600 272.009 C 252.820 271.835,253.810 271.503,254.800 271.271 C 255.790 271.040,257.500 270.552,258.600 270.186 C 260.518 269.549,261.467 269.161,265.000 267.572 C 265.880 267.175,266.870 266.751,267.200 266.628 C 267.530 266.506,268.070 266.230,268.400 266.016 C 268.730 265.803,270.051 265.037,271.335 264.314 C 278.740 260.147,283.536 256.087,288.476 249.800 C 292.554 244.611,292.379 244.880,294.798 240.104 C 295.493 238.732,296.228 237.506,296.431 237.381 C 296.634 237.255,296.800 236.868,296.800 236.520 C 296.800 236.172,297.135 235.148,297.544 234.244 C 298.496 232.143,299.171 230.217,299.664 228.200 C 299.879 227.320,300.217 226.296,300.416 225.924 C 300.614 225.552,300.970 224.041,301.205 222.566 C 301.441 221.091,301.786 219.595,301.971 219.242 C 302.157 218.889,302.428 217.250,302.574 215.600 C 302.720 213.950,303.109 211.160,303.439 209.400 C 304.645 202.954,303.682 182.676,302.022 179.576 C 301.839 179.233,301.476 177.931,301.217 176.683 C 300.958 175.435,300.578 174.310,300.373 174.183 C 300.168 174.057,300.000 173.668,300.000 173.320 C 300.000 172.690,299.234 170.900,297.247 166.885 C 295.458 163.271,293.369 160.067,289.755 155.391 C 287.410 152.356,287.305 152.127,287.823 151.191 C 288.125 150.646,288.378 149.696,288.386 149.080 C 288.394 148.464,288.662 147.454,288.982 146.834 C 289.467 145.898,290.446 137.721,290.519 134.000 C 290.572 131.328,289.551 121.741,289.037 120.080 C 288.717 119.046,288.250 117.390,287.998 116.400 C 286.254 109.527,285.855 109.078,281.718 109.321 C 277.884 109.546,272.035 110.605,271.463 111.177 C 271.230 111.410,270.578 111.600,270.014 111.600 C 269.450 111.600,268.316 111.960,267.496 112.400 C 266.675 112.840,265.715 113.200,265.363 113.200 C 265.011 113.200,264.246 113.469,263.662 113.797 C 263.078 114.126,262.150 114.575,261.600 114.796 C 261.050 115.017,260.330 115.354,260.000 115.545 C 259.670 115.736,258.230 116.471,256.800 117.179 C 253.066 119.027,247.449 122.308,243.924 124.700 C 241.798 126.143,239.420 126.423,237.557 125.451 C 236.983 125.151,235.485 124.778,234.228 124.621 C 232.971 124.464,231.331 124.080,230.584 123.768 C 229.837 123.455,228.358 123.200,227.297 123.200 C 226.236 123.200,224.295 122.920,222.984 122.577 C 216.654 120.924,191.782 120.590,181.600 122.022 C 180.170 122.223,177.650 122.578,176.000 122.811 C 174.350 123.044,172.190 123.434,171.200 123.677 C 170.210 123.920,168.230 124.328,166.800 124.584 C 165.370 124.840,163.693 125.263,163.074 125.525 C 161.581 126.155,158.524 126.134,158.120 125.492 C 157.944 125.212,157.350 124.755,156.800 124.476 C 155.653 123.894,154.911 123.445,152.400 121.815 C 149.966 120.236,146.559 118.392,142.000 116.187 C 139.910 115.176,137.722 114.090,137.138 113.774 C 136.554 113.458,135.834 113.194,135.538 113.186 C 135.242 113.179,134.280 112.825,133.400 112.400 C 132.520 111.975,131.473 111.621,131.074 111.614 C 130.674 111.606,129.954 111.386,129.474 111.124 C 128.391 110.534,123.124 109.591,119.439 109.327 C 116.026 109.083,114.944 109.581,114.386 111.652 C 114.162 112.485,113.803 113.274,113.589 113.407 C 113.375 113.539,113.199 114.222,113.198 114.924 C 113.196 115.626,112.925 116.718,112.595 117.350 C 112.265 117.983,111.884 119.513,111.748 120.750 C 111.612 121.988,111.253 123.983,110.951 125.184 C 110.207 128.135,110.206 139.462,110.950 142.416 C 111.252 143.617,111.604 145.418,111.731 146.418 C 111.858 147.418,112.240 148.768,112.579 149.418 C 113.679 151.529,113.381 152.585,110.744 155.903 C 107.941 159.430,105.954 162.374,104.605 165.000 C 104.266 165.660,103.837 166.470,103.653 166.800 C 103.469 167.130,102.956 168.210,102.513 169.200 C 102.071 170.190,101.425 171.630,101.080 172.400 C 100.734 173.170,100.327 174.424,100.175 175.187 C 100.023 175.950,99.741 176.850,99.548 177.187 C 97.010 181.629,96.164 205.360,98.185 215.400 C 98.495 216.940,98.927 219.100,99.144 220.200 C 100.004 224.563,100.846 227.806,101.213 228.173 C 101.426 228.386,101.600 228.981,101.600 229.496 C 101.600 230.011,101.960 231.138,102.400 232.000 C 102.840 232.862,103.200 233.780,103.200 234.038 C 103.200 234.676,106.448 241.267,107.088 241.929 C 107.370 242.219,107.600 242.609,107.600 242.794 C 107.600 243.163,109.920 246.858,111.073 248.324 C 114.194 252.294,117.633 255.876,120.745 258.400 C 121.695 259.170,122.680 259.984,122.936 260.209 C 124.860 261.904,130.745 265.290,135.600 267.495 C 136.590 267.945,138.230 268.693,139.244 269.157 C 140.258 269.620,141.362 270.000,141.698 270.000 C 142.034 270.000,142.824 270.269,143.454 270.598 C 144.084 270.926,144.960 271.197,145.400 271.200 C 145.840 271.203,146.694 271.463,147.298 271.778 C 147.902 272.093,149.249 272.478,150.291 272.635 C 151.334 272.791,152.769 273.162,153.481 273.459 C 154.192 273.757,155.377 274.000,156.115 274.000 C 156.852 274.000,158.376 274.274,159.502 274.608 C 160.627 274.942,163.298 275.381,165.436 275.583 C 170.431 276.056,170.980 276.675,168.691 279.254 C 167.981 280.054,167.168 281.044,166.885 281.454 C 165.553 283.385,163.200 288.106,163.200 288.850 C 163.200 289.164,162.936 289.799,162.613 290.260 C 162.290 290.721,161.918 291.886,161.785 292.849 C 161.094 297.888,159.977 299.455,156.400 300.404 C 155.410 300.666,154.420 300.998,154.200 301.140 C 153.980 301.283,152.720 301.611,151.400 301.869 C 150.080 302.127,148.190 302.524,147.200 302.752 C 144.861 303.289,138.645 303.297,136.600 302.765 C 135.720 302.536,133.948 302.109,132.662 301.816 C 131.375 301.523,130.124 301.084,129.882 300.842 C 129.639 300.599,129.192 300.400,128.890 300.400 C 126.972 300.400,116.800 292.375,116.800 290.862 C 116.800 290.608,116.642 290.400,116.448 290.400 C 116.085 290.400,112.400 285.168,112.400 284.654 C 112.400 284.496,112.221 284.149,112.003 283.883 C 111.785 283.617,110.916 282.500,110.073 281.400 C 108.434 279.263,102.737 273.886,101.155 272.984 C 98.810 271.646,95.272 270.000,94.741 270.000 C 94.422 270.000,93.939 269.779,93.670 269.510 C 93.118 268.958,85.631 268.555,83.468 268.961 C 80.721 269.476,80.549 272.140,83.104 274.623 C 84.568 276.046,87.798 278.400,88.286 278.400 C 88.422 278.400,88.818 278.655,89.166 278.967 C 96.044 285.123,97.637 287.070,102.073 294.743 C 102.664 295.765,103.159 296.893,103.173 297.251 C 103.188 297.609,103.465 298.122,103.789 298.391 C 104.114 298.660,104.492 299.486,104.631 300.226 C 104.770 300.966,105.135 301.780,105.442 302.035 C 105.749 302.290,106.006 302.791,106.012 303.149 C 106.045 304.834,111.378 311.691,114.331 313.846 C 115.503 314.701,116.768 315.670,117.142 316.000 C 118.100 316.846,123.562 319.514,125.000 319.839 C 125.660 319.988,126.425 320.288,126.700 320.504 C 128.977 322.298,150.028 323.473,152.862 321.965 C 154.090 321.311,159.126 321.040,159.791 321.592 C 160.911 322.522,160.680 352.752,159.536 355.043 C 157.738 358.643,150.392 361.852,149.022 359.635 C 148.897 359.434,148.093 359.151,147.235 359.006 C 146.376 358.861,145.342 358.491,144.937 358.184 C 144.532 357.877,143.860 357.620,143.444 357.613 C 143.028 357.606,141.858 357.221,140.844 356.757 C 139.830 356.293,138.460 355.695,137.800 355.429 C 136.035 354.716,129.366 351.682,128.400 351.154 C 128.070 350.973,126.585 350.245,125.100 349.536 C 123.615 348.827,122.400 348.101,122.400 347.923 C 122.400 347.746,122.051 347.600,121.624 347.600 C 121.197 347.600,120.725 347.402,120.575 347.159 C 120.425 346.917,119.739 346.460,119.051 346.144 C 117.954 345.640,114.540 343.600,112.800 342.409 C 112.470 342.183,110.670 340.994,108.800 339.767 C 106.930 338.541,105.028 337.191,104.574 336.769 C 104.120 336.346,103.544 336.000,103.294 336.000 C 103.044 336.000,102.696 335.775,102.520 335.500 C 102.344 335.225,101.545 334.550,100.744 333.999 C 95.590 330.456,82.323 317.922,77.035 311.600 C 72.209 305.830,67.141 299.184,64.529 295.200 C 64.024 294.430,63.453 293.608,63.259 293.374 C 62.800 292.819,59.403 287.059,57.532 283.664 C 54.764 278.641,50.281 269.352,49.779 267.600 C 49.621 267.050,49.246 266.245,48.946 265.811 C 48.646 265.377,48.400 264.701,48.400 264.310 C 48.400 263.918,48.040 262.925,47.600 262.104 C 47.160 261.284,46.800 260.215,46.800 259.730 C 46.800 259.244,46.625 258.739,46.411 258.607 C 46.197 258.474,45.826 257.609,45.587 256.683 C 45.349 255.757,44.894 254.433,44.577 253.740 C 44.259 253.046,44.000 252.092,44.000 251.620 C 44.000 251.147,43.747 250.272,43.439 249.675 C 43.130 249.078,42.747 247.692,42.588 246.595 C 42.429 245.498,42.151 244.413,41.971 244.185 C 41.790 243.956,41.445 242.535,41.204 241.027 C 40.963 239.518,40.616 237.995,40.433 237.642 C 40.249 237.289,39.969 235.756,39.811 234.234 C 39.652 232.713,39.272 230.643,38.965 229.634 C 38.659 228.626,38.401 226.720,38.392 225.400 C 38.382 224.080,38.116 221.110,37.800 218.800 C 37.016 213.072,37.019 196.470,37.804 190.600 C 38.128 188.180,38.395 185.198,38.397 183.973 C 38.399 182.748,38.657 180.858,38.971 179.773 C 39.285 178.688,39.667 176.540,39.821 175.000 C 39.974 173.460,40.273 171.867,40.485 171.459 C 40.698 171.052,41.039 169.536,41.244 168.090 C 41.449 166.645,41.770 165.268,41.958 165.031 C 42.145 164.794,42.429 163.702,42.588 162.605 C 42.747 161.508,43.130 160.122,43.439 159.525 C 43.747 158.928,44.006 158.026,44.014 157.520 C 44.021 157.014,44.375 155.880,44.800 155.000 C 45.225 154.120,45.579 153.029,45.586 152.576 C 45.594 152.124,45.864 151.404,46.187 150.976 C 46.510 150.549,46.780 149.837,46.787 149.394 C 46.794 148.951,47.160 147.916,47.600 147.096 C 48.040 146.275,48.400 145.315,48.400 144.963 C 48.400 144.611,48.660 143.846,48.978 143.262 C 49.296 142.678,49.819 141.570,50.139 140.800 C 52.895 134.178,57.568 125.007,60.432 120.600 C 61.290 119.280,62.155 117.833,62.354 117.384 C 62.553 116.935,63.005 116.327,63.358 116.035 C 63.711 115.742,64.000 115.342,64.000 115.147 C 64.000 114.738,66.541 111.000,67.652 109.774 C 68.063 109.320,68.400 108.820,68.400 108.662 C 68.400 108.270,71.601 104.232,72.044 104.067 C 72.240 103.993,72.400 103.743,72.400 103.510 C 72.400 101.938,88.670 85.175,96.673 78.500 C 97.794 77.565,98.810 76.800,98.931 76.800 C 99.052 76.800,99.747 76.255,100.475 75.588 C 101.204 74.922,102.880 73.631,104.200 72.719 C 110.181 68.588,112.845 66.800,113.020 66.800 C 113.123 66.800,114.105 66.170,115.200 65.400 C 116.295 64.630,117.276 64.000,117.378 64.000 C 117.481 64.000,118.518 63.438,119.682 62.751 C 123.571 60.458,136.742 54.000,137.531 54.000 C 137.696 54.000,138.537 53.640,139.400 53.200 C 140.263 52.760,141.246 52.394,141.585 52.387 C 141.923 52.380,142.549 52.110,142.976 51.787 C 143.404 51.464,144.128 51.200,144.587 51.200 C 145.046 51.200,145.777 50.957,146.211 50.661 C 146.645 50.364,147.630 50.003,148.400 49.859 C 149.170 49.715,150.340 49.347,151.000 49.041 C 152.236 48.469,154.129 47.926,158.066 47.014 C 159.312 46.725,160.526 46.369,160.763 46.223 C 161.000 46.076,162.320 45.777,163.697 45.557 C 165.074 45.337,166.971 44.897,167.914 44.578 C 168.857 44.260,170.260 44.000,171.032 44.000 C 171.804 44.000,173.553 43.731,174.918 43.402 C 176.283 43.073,179.560 42.610,182.200 42.374 C 184.840 42.138,188.170 41.806,189.600 41.635 C 193.222 41.204,206.702 41.197,210.800 41.624 M98.969 273.940 C 100.202 276.324,97.635 277.631,95.500 275.707 C 94.804 275.080,94.557 273.576,95.067 273.067 C 95.873 272.260,98.392 272.824,98.969 273.940 M105.154 279.100 C 106.284 280.038,106.664 282.079,105.859 282.883 C 104.543 284.200,101.200 282.288,101.200 280.218 C 101.200 278.404,103.525 277.747,105.154 279.100 M112.164 288.031 C 114.424 290.716,112.528 294.189,109.784 292.390 C 106.890 290.491,106.886 286.800,109.779 286.800 C 110.795 286.800,111.385 287.104,112.164 288.031 M119.211 296.288 C 122.698 298.712,122.567 302.000,118.983 302.000 C 115.779 302.000,113.837 296.646,116.758 295.865 C 117.939 295.548,118.217 295.596,119.211 296.288 M131.923 303.858 C 133.652 305.291,133.702 307.131,132.038 308.114 C 130.607 308.959,129.446 308.989,128.657 308.200 C 128.327 307.870,127.861 307.600,127.622 307.600 C 127.383 307.600,126.887 306.971,126.521 306.203 C 125.126 303.278,129.126 301.541,131.923 303.858 M157.539 303.829 C 158.232 304.175,158.800 304.701,158.800 304.997 C 158.800 305.292,158.902 305.801,159.027 306.126 C 159.463 307.262,157.215 308.800,155.120 308.800 C 151.026 308.800,150.556 305.160,154.467 303.743 C 156.217 303.110,156.089 303.106,157.539 303.829 M145.818 306.182 C 147.051 307.415,147.051 308.012,145.819 309.342 C 143.777 311.545,139.600 310.391,139.600 307.623 C 139.600 305.190,143.843 304.207,145.818 306.182 " stroke="none" fill="#040404" fill-rule="evenodd"></path><path id="path2" d="M189.600 41.635 C 188.170 41.806,184.840 42.138,182.200 42.374 C 179.560 42.610,176.283 43.073,174.918 43.402 C 173.553 43.731,171.804 44.000,171.032 44.000 C 170.260 44.000,168.857 44.260,167.914 44.578 C 166.971 44.897,165.074 45.337,163.697 45.557 C 162.320 45.777,161.000 46.076,160.763 46.223 C 160.526 46.369,159.312 46.725,158.066 47.014 C 154.129 47.926,152.236 48.469,151.000 49.041 C 150.340 49.347,149.170 49.715,148.400 49.859 C 147.630 50.003,146.645 50.364,146.211 50.661 C 145.777 50.957,145.046 51.200,144.587 51.200 C 144.128 51.200,143.404 51.464,142.976 51.787 C 142.549 52.110,141.923 52.380,141.585 52.387 C 141.246 52.394,140.263 52.760,139.400 53.200 C 138.537 53.640,137.696 54.000,137.531 54.000 C 136.742 54.000,123.571 60.458,119.682 62.751 C 118.518 63.438,117.481 64.000,117.378 64.000 C 117.276 64.000,116.295 64.630,115.200 65.400 C 114.105 66.170,113.123 66.800,113.020 66.800 C 112.845 66.800,110.181 68.588,104.200 72.719 C 102.880 73.631,101.204 74.922,100.475 75.588 C 99.747 76.255,99.052 76.800,98.931 76.800 C 98.810 76.800,97.794 77.565,96.673 78.500 C 88.670 85.175,72.400 101.938,72.400 103.510 C 72.400 103.743,72.240 103.993,72.044 104.067 C 71.601 104.232,68.400 108.270,68.400 108.662 C 68.400 108.820,68.063 109.320,67.652 109.774 C 66.541 111.000,64.000 114.738,64.000 115.147 C 64.000 115.342,63.711 115.742,63.358 116.035 C 63.005 116.327,62.553 116.935,62.354 117.384 C 62.155 117.833,61.290 119.280,60.432 120.600 C 57.568 125.007,52.895 134.178,50.139 140.800 C 49.819 141.570,49.296 142.678,48.978 143.262 C 48.660 143.846,48.400 144.611,48.400 144.963 C 48.400 145.315,48.040 146.275,47.600 147.096 C 47.160 147.916,46.794 148.951,46.787 149.394 C 46.780 149.837,46.510 150.549,46.187 150.976 C 45.864 151.404,45.594 152.124,45.586 152.576 C 45.579 153.029,45.225 154.120,44.800 155.000 C 44.375 155.880,44.021 157.014,44.014 157.520 C 44.006 158.026,43.747 158.928,43.439 159.525 C 43.130 160.122,42.747 161.508,42.588 162.605 C 42.429 163.702,42.145 164.794,41.958 165.031 C 41.770 165.268,41.449 166.645,41.244 168.090 C 41.039 169.536,40.698 171.052,40.485 171.459 C 40.273 171.867,39.974 173.460,39.821 175.000 C 39.667 176.540,39.285 178.688,38.971 179.773 C 38.657 180.858,38.399 182.748,38.397 183.973 C 38.395 185.198,38.128 188.180,37.804 190.600 C 37.019 196.470,37.016 213.072,37.800 218.800 C 38.116 221.110,38.382 224.080,38.392 225.400 C 38.401 226.720,38.659 228.626,38.965 229.634 C 39.272 230.643,39.652 232.713,39.811 234.234 C 39.969 235.756,40.249 237.289,40.433 237.642 C 40.616 237.995,40.963 239.518,41.204 241.027 C 41.445 242.535,41.790 243.956,41.971 244.185 C 42.151 244.413,42.429 245.498,42.588 246.595 C 42.747 247.692,43.130 249.078,43.439 249.675 C 43.747 250.272,44.000 251.147,44.000 251.620 C 44.000 252.092,44.259 253.046,44.577 253.740 C 44.894 254.433,45.349 255.757,45.587 256.683 C 45.826 257.609,46.197 258.474,46.411 258.607 C 46.625 258.739,46.800 259.244,46.800 259.730 C 46.800 260.215,47.160 261.284,47.600 262.104 C 48.040 262.925,48.400 263.918,48.400 264.310 C 48.400 264.701,48.646 265.377,48.946 265.811 C 49.246 266.245,49.621 267.050,49.779 267.600 C 50.281 269.352,54.764 278.641,57.532 283.664 C 59.403 287.059,62.800 292.819,63.259 293.374 C 63.453 293.608,64.024 294.430,64.529 295.200 C 67.141 299.184,72.209 305.830,77.035 311.600 C 82.323 317.922,95.590 330.456,100.744 333.999 C 101.545 334.550,102.344 335.225,102.520 335.500 C 102.696 335.775,103.044 336.000,103.294 336.000 C 103.544 336.000,104.120 336.346,104.574 336.769 C 105.028 337.191,106.930 338.541,108.800 339.767 C 110.670 340.994,112.470 342.183,112.800 342.409 C 114.540 343.600,117.954 345.640,119.051 346.144 C 119.739 346.460,120.425 346.917,120.575 347.159 C 120.725 347.402,121.197 347.600,121.624 347.600 C 122.051 347.600,122.400 347.746,122.400 347.923 C 122.400 348.101,123.615 348.827,125.100 349.536 C 126.585 350.245,128.070 350.973,128.400 351.154 C 129.366 351.682,136.035 354.716,137.800 355.429 C 138.460 355.695,139.830 356.293,140.844 356.757 C 141.858 357.221,143.028 357.606,143.444 357.613 C 143.860 357.620,144.532 357.877,144.937 358.184 C 145.342 358.491,146.376 358.861,147.235 359.006 C 148.093 359.151,148.897 359.434,149.022 359.635 C 150.392 361.852,157.738 358.643,159.536 355.043 C 160.680 352.752,160.911 322.522,159.791 321.592 C 159.126 321.040,154.090 321.311,152.862 321.965 C 150.028 323.473,128.977 322.298,126.700 320.504 C 126.425 320.288,125.660 319.988,125.000 319.839 C 123.562 319.514,118.100 316.846,117.142 316.000 C 116.768 315.670,115.503 314.701,114.331 313.846 C 111.378 311.691,106.045 304.834,106.012 303.149 C 106.006 302.791,105.749 302.290,105.442 302.035 C 105.135 301.780,104.770 300.966,104.631 300.226 C 104.492 299.486,104.114 298.660,103.789 298.391 C 103.465 298.122,103.188 297.609,103.173 297.251 C 103.159 296.893,102.664 295.765,102.073 294.743 C 97.637 287.070,96.044 285.123,89.166 278.967 C 88.818 278.655,88.422 278.400,88.286 278.400 C 87.798 278.400,84.568 276.046,83.104 274.623 C 80.549 272.140,80.721 269.476,83.468 268.961 C 85.631 268.555,93.118 268.958,93.670 269.510 C 93.939 269.779,94.422 270.000,94.741 270.000 C 95.272 270.000,98.810 271.646,101.155 272.984 C 102.737 273.886,108.434 279.263,110.073 281.400 C 110.916 282.500,111.785 283.617,112.003 283.883 C 112.221 284.149,112.400 284.496,112.400 284.654 C 112.400 285.168,116.085 290.400,116.448 290.400 C 116.642 290.400,116.800 290.608,116.800 290.862 C 116.800 292.375,126.972 300.400,128.890 300.400 C 129.192 300.400,129.639 300.599,129.882 300.842 C 130.124 301.084,131.375 301.523,132.662 301.816 C 133.948 302.109,135.720 302.536,136.600 302.765 C 138.645 303.297,144.861 303.289,147.200 302.752 C 148.190 302.524,150.080 302.127,151.400 301.869 C 152.720 301.611,153.980 301.283,154.200 301.140 C 154.420 300.998,155.410 300.666,156.400 300.404 C 159.977 299.455,161.094 297.888,161.785 292.849 C 161.918 291.886,162.290 290.721,162.613 290.260 C 162.936 289.799,163.200 289.164,163.200 288.850 C 163.200 288.106,165.553 283.385,166.885 281.454 C 167.168 281.044,167.981 280.054,168.691 279.254 C 170.980 276.675,170.431 276.056,165.436 275.583 C 163.298 275.381,160.627 274.942,159.502 274.608 C 158.376 274.274,156.852 274.000,156.115 274.000 C 155.377 274.000,154.192 273.757,153.481 273.459 C 152.769 273.162,151.334 272.791,150.291 272.635 C 149.249 272.478,147.902 272.093,147.298 271.778 C 146.694 271.463,145.840 271.203,145.400 271.200 C 144.960 271.197,144.084 270.926,143.454 270.598 C 142.824 270.269,142.034 270.000,141.698 270.000 C 141.362 270.000,140.258 269.620,139.244 269.157 C 138.230 268.693,136.590 267.945,135.600 267.495 C 130.745 265.290,124.860 261.904,122.936 260.209 C 122.680 259.984,121.695 259.170,120.745 258.400 C 117.633 255.876,114.194 252.294,111.073 248.324 C 109.920 246.858,107.600 243.163,107.600 242.794 C 107.600 242.609,107.370 242.219,107.088 241.929 C 106.448 241.267,103.200 234.676,103.200 234.038 C 103.200 233.780,102.840 232.862,102.400 232.000 C 101.960 231.138,101.600 230.011,101.600 229.496 C 101.600 228.981,101.426 228.386,101.213 228.173 C 100.846 227.806,100.004 224.563,99.144 220.200 C 98.927 219.100,98.495 216.940,98.185 215.400 C 96.164 205.360,97.010 181.629,99.548 177.187 C 99.741 176.850,100.023 175.950,100.175 175.187 C 100.327 174.424,100.734 173.170,101.080 172.400 C 101.425 171.630,102.071 170.190,102.513 169.200 C 102.956 168.210,103.469 167.130,103.653 166.800 C 103.837 166.470,104.266 165.660,104.605 165.000 C 105.954 162.374,107.941 159.430,110.744 155.903 C 113.381 152.585,113.679 151.529,112.579 149.418 C 112.240 148.768,111.858 147.418,111.731 146.418 C 111.604 145.418,111.252 143.617,110.950 142.416 C 110.206 139.462,110.207 128.135,110.951 125.184 C 111.253 123.983,111.612 121.988,111.748 120.750 C 111.884 119.513,112.265 117.983,112.595 117.350 C 112.925 116.718,113.196 115.626,113.198 114.924 C 113.199 114.222,113.375 113.539,113.589 113.407 C 113.803 113.274,114.162 112.485,114.386 111.652 C 114.944 109.581,116.026 109.083,119.439 109.327 C 123.124 109.591,128.391 110.534,129.474 111.124 C 129.954 111.386,130.674 111.606,131.074 111.614 C 131.473 111.621,132.520 111.975,133.400 112.400 C 134.280 112.825,135.242 113.179,135.538 113.186 C 135.834 113.194,136.554 113.458,137.138 113.774 C 137.722 114.090,139.910 115.176,142.000 116.187 C 146.559 118.392,149.966 120.236,152.400 121.815 C 154.911 123.445,155.653 123.894,156.800 124.476 C 157.350 124.755,157.944 125.212,158.120 125.492 C 158.524 126.134,161.581 126.155,163.074 125.525 C 163.693 125.263,165.370 124.840,166.800 124.584 C 168.230 124.328,170.210 123.920,171.200 123.677 C 172.190 123.434,174.350 123.044,176.000 122.811 C 177.650 122.578,180.170 122.223,181.600 122.022 C 191.782 120.590,216.654 120.924,222.984 122.577 C 224.295 122.920,226.236 123.200,227.297 123.200 C 228.358 123.200,229.837 123.455,230.584 123.768 C 231.331 124.080,232.971 124.464,234.228 124.621 C 235.485 124.778,236.983 125.151,237.557 125.451 C 239.420 126.423,241.798 126.143,243.924 124.700 C 247.449 122.308,253.066 119.027,256.800 117.179 C 258.230 116.471,259.670 115.736,260.000 115.545 C 260.330 115.354,261.050 115.017,261.600 114.796 C 262.150 114.575,263.078 114.126,263.662 113.797 C 264.246 113.469,265.011 113.200,265.363 113.200 C 265.715 113.200,266.675 112.840,267.496 112.400 C 268.316 111.960,269.450 111.600,270.014 111.600 C 270.578 111.600,271.230 111.410,271.463 111.177 C 272.035 110.605,277.884 109.546,281.718 109.321 C 285.855 109.078,286.254 109.527,287.998 116.400 C 288.250 117.390,288.717 119.046,289.037 120.080 C 289.551 121.741,290.572 131.328,290.519 134.000 C 290.446 137.721,289.467 145.898,288.982 146.834 C 288.662 147.454,288.394 148.464,288.386 149.080 C 288.378 149.696,288.125 150.646,287.823 151.191 C 287.305 152.127,287.410 152.356,289.755 155.391 C 293.369 160.067,295.458 163.271,297.247 166.885 C 299.234 170.900,300.000 172.690,300.000 173.320 C 300.000 173.668,300.168 174.057,300.373 174.183 C 300.578 174.310,300.958 175.435,301.217 176.683 C 301.476 177.931,301.839 179.233,302.022 179.576 C 303.682 182.676,304.645 202.954,303.439 209.400 C 303.109 211.160,302.720 213.950,302.574 215.600 C 302.428 217.250,302.157 218.889,301.971 219.242 C 301.786 219.595,301.441 221.091,301.205 222.566 C 300.970 224.041,300.614 225.552,300.416 225.924 C 300.217 226.296,299.879 227.320,299.664 228.200 C 299.171 230.217,298.496 232.143,297.544 234.244 C 297.135 235.148,296.800 236.172,296.800 236.520 C 296.800 236.868,296.634 237.255,296.431 237.381 C 296.228 237.506,295.493 238.732,294.798 240.104 C 292.379 244.880,292.554 244.611,288.476 249.800 C 285.659 253.385,284.421 254.665,280.200 258.357 C 278.170 260.133,275.101 262.195,271.335 264.314 C 270.051 265.037,268.730 265.803,268.400 266.016 C 268.070 266.230,267.530 266.506,267.200 266.628 C 266.870 266.751,265.880 267.175,265.000 267.572 C 261.467 269.161,260.518 269.549,258.600 270.186 C 257.500 270.552,255.790 271.040,254.800 271.271 C 253.810 271.503,252.820 271.835,252.600 272.009 C 252.380 272.183,251.303 272.459,250.207 272.622 C 249.110 272.785,247.631 273.162,246.919 273.459 C 246.208 273.757,244.929 274.000,244.076 274.000 C 243.224 274.000,241.644 274.268,240.564 274.595 C 239.484 274.923,237.430 275.292,236.000 275.416 C 229.992 275.936,229.765 276.185,232.300 279.476 C 234.702 282.595,235.395 283.676,236.357 285.800 C 236.855 286.900,237.518 288.278,237.831 288.862 C 238.144 289.446,238.400 290.279,238.400 290.713 C 238.400 291.147,238.677 292.165,239.015 292.975 C 240.245 295.917,240.533 301.764,240.767 328.437 L 241.000 355.074 242.446 356.837 C 244.153 358.919,247.307 360.222,249.847 359.893 C 252.222 359.586,258.123 357.680,260.062 356.595 C 260.646 356.268,261.479 356.000,261.913 356.000 C 262.347 356.000,262.911 355.748,263.167 355.439 C 263.423 355.131,264.120 354.765,264.716 354.625 C 265.750 354.384,267.914 353.474,269.200 352.740 C 269.530 352.552,270.250 352.219,270.800 351.999 C 271.350 351.780,272.070 351.419,272.400 351.198 C 272.730 350.976,273.270 350.697,273.600 350.577 C 274.676 350.186,280.559 347.045,282.200 345.984 C 282.860 345.558,283.670 345.083,284.000 344.929 C 285.160 344.387,291.729 340.200,292.672 339.400 C 292.932 339.180,294.063 338.370,295.186 337.600 C 297.224 336.203,300.905 333.451,302.014 332.495 C 302.336 332.218,303.320 331.439,304.200 330.766 C 306.259 329.190,311.591 324.290,315.742 320.158 C 318.650 317.264,320.504 315.301,324.629 310.755 C 325.944 309.305,331.404 302.310,332.400 300.799 C 332.730 300.298,333.675 299.019,334.500 297.956 C 335.325 296.893,336.000 295.926,336.000 295.808 C 336.000 295.689,336.596 294.739,337.325 293.696 C 338.053 292.653,339.682 290.000,340.944 287.800 C 342.206 285.600,343.414 283.530,343.628 283.200 C 343.841 282.870,344.285 282.060,344.614 281.400 C 344.943 280.740,345.378 279.930,345.581 279.600 C 346.670 277.829,350.966 268.338,352.372 264.600 C 352.868 263.280,353.617 261.357,354.037 260.326 C 354.457 259.295,354.806 258.125,354.813 257.726 C 354.820 257.327,355.090 256.651,355.413 256.224 C 355.736 255.796,356.000 255.051,356.000 254.567 C 356.000 254.083,356.356 252.903,356.791 251.944 C 357.226 250.985,357.586 249.733,357.591 249.161 C 357.596 248.590,357.853 247.600,358.163 246.961 C 358.472 246.323,358.849 244.855,359.000 243.700 C 359.151 242.546,359.425 241.508,359.609 241.394 C 359.793 241.280,360.063 240.155,360.208 238.894 C 360.353 237.632,360.717 235.700,361.016 234.600 C 361.316 233.500,361.737 231.070,361.951 229.200 C 362.166 227.330,362.553 224.810,362.811 223.600 C 363.452 220.605,363.469 189.072,362.832 186.000 C 362.581 184.790,362.129 181.910,361.827 179.600 C 361.525 177.290,361.170 175.130,361.039 174.800 C 360.908 174.470,360.542 172.850,360.225 171.200 C 359.089 165.286,358.388 162.268,358.052 161.837 C 357.863 161.597,357.589 160.616,357.443 159.658 C 357.297 158.700,356.912 157.404,356.589 156.778 C 356.265 156.152,356.000 155.221,356.000 154.709 C 356.000 154.197,355.753 153.423,355.451 152.989 C 355.149 152.555,354.772 151.570,354.612 150.800 C 354.452 150.030,354.069 149.001,353.761 148.514 C 353.452 148.027,353.200 147.357,353.200 147.025 C 353.200 146.693,352.819 145.562,352.353 144.511 C 351.887 143.460,351.239 141.970,350.913 141.200 C 349.560 138.005,349.205 137.222,347.370 133.400 C 346.314 131.200,345.318 129.308,345.157 129.196 C 344.995 129.084,344.741 128.506,344.592 127.912 C 344.443 127.319,344.069 126.623,343.761 126.367 C 343.452 126.111,343.200 125.667,343.200 125.380 C 343.200 125.092,342.975 124.613,342.700 124.314 C 342.049 123.608,340.936 121.689,340.370 120.300 C 340.123 119.695,339.781 119.200,339.609 119.200 C 339.438 119.200,339.073 118.660,338.800 118.000 C 338.527 117.340,338.145 116.800,337.951 116.800 C 337.758 116.800,337.600 116.563,337.600 116.272 C 337.600 115.770,336.189 113.680,333.032 109.508 C 332.244 108.467,331.600 107.447,331.600 107.241 C 331.600 107.035,331.462 106.807,331.294 106.733 C 331.125 106.660,330.450 105.862,329.794 104.959 C 325.305 98.788,314.929 87.787,308.000 81.854 C 307.010 81.007,305.750 79.912,305.200 79.421 C 303.269 77.699,296.402 72.444,294.113 70.937 C 292.841 70.099,291.620 69.272,291.400 69.099 C 291.180 68.925,289.830 68.040,288.400 67.130 C 286.970 66.221,285.350 65.177,284.800 64.811 C 284.250 64.445,283.530 64.020,283.200 63.865 C 282.870 63.710,281.880 63.158,281.000 62.638 C 280.120 62.117,277.150 60.572,274.400 59.203 C 271.650 57.835,269.130 56.553,268.800 56.355 C 268.470 56.157,267.930 55.897,267.600 55.778 C 267.270 55.658,266.334 55.209,265.521 54.780 C 264.707 54.351,263.800 54.000,263.505 54.000 C 263.210 54.000,262.263 53.640,261.400 53.200 C 260.537 52.760,259.554 52.394,259.215 52.387 C 258.877 52.380,258.251 52.110,257.824 51.787 C 257.396 51.464,256.766 51.199,256.424 51.198 C 256.081 51.196,255.342 50.956,254.782 50.664 C 254.223 50.372,253.143 50.012,252.382 49.865 C 251.622 49.718,250.460 49.347,249.800 49.041 C 248.597 48.484,246.902 47.993,242.800 47.013 C 241.590 46.724,240.150 46.314,239.600 46.101 C 239.050 45.888,237.624 45.588,236.431 45.434 C 235.238 45.280,233.914 44.968,233.489 44.741 C 233.064 44.513,231.430 44.178,229.858 43.996 C 228.286 43.814,226.190 43.473,225.200 43.238 C 224.210 43.002,221.330 42.623,218.800 42.394 C 216.270 42.165,212.670 41.819,210.800 41.624 C 206.702 41.197,193.222 41.204,189.600 41.635 M215.800 43.151 C 218.880 43.347,221.986 43.696,222.702 43.926 C 223.418 44.157,225.472 44.473,227.267 44.630 C 229.061 44.787,230.995 45.158,231.565 45.455 C 232.134 45.752,233.326 45.996,234.214 45.998 C 235.101 45.999,236.852 46.360,238.104 46.800 C 239.356 47.240,240.843 47.600,241.410 47.600 C 241.976 47.600,242.926 47.845,243.520 48.144 C 244.114 48.444,245.341 48.802,246.247 48.941 C 247.153 49.079,248.413 49.463,249.047 49.794 C 249.681 50.124,250.565 50.396,251.011 50.398 C 251.457 50.399,252.177 50.644,252.611 50.943 C 253.045 51.242,254.111 51.617,254.980 51.776 C 255.848 51.936,256.923 52.321,257.369 52.633 C 257.814 52.945,258.460 53.200,258.804 53.200 C 259.149 53.200,260.137 53.560,261.000 54.000 C 261.863 54.440,262.891 54.800,263.285 54.800 C 263.678 54.800,264.000 54.977,264.000 55.192 C 264.000 55.408,264.495 55.704,265.100 55.851 C 265.705 55.997,266.830 56.441,267.600 56.838 C 268.370 57.236,269.270 57.658,269.600 57.778 C 269.930 57.897,270.470 58.156,270.800 58.353 C 271.130 58.550,272.390 59.197,273.600 59.792 C 274.810 60.387,277.060 61.575,278.600 62.432 C 280.140 63.289,281.985 64.265,282.700 64.601 C 283.415 64.936,284.000 65.349,284.000 65.518 C 284.000 65.686,284.495 66.038,285.100 66.298 C 286.246 66.791,286.524 66.961,289.676 69.100 C 290.730 69.815,291.774 70.400,291.996 70.400 C 292.218 70.400,292.400 70.550,292.400 70.733 C 292.400 70.916,293.345 71.675,294.500 72.419 C 296.734 73.859,297.240 74.232,298.319 75.229 C 298.694 75.575,299.630 76.282,300.400 76.800 C 301.170 77.318,302.095 78.025,302.455 78.371 C 302.815 78.717,303.792 79.540,304.626 80.200 C 308.567 83.321,318.374 92.861,321.824 96.931 C 322.911 98.213,324.475 99.968,325.300 100.831 C 326.125 101.695,326.800 102.500,326.800 102.622 C 326.800 102.743,327.765 104.048,328.945 105.521 C 330.124 106.995,331.744 109.145,332.545 110.300 C 333.345 111.455,334.630 113.298,335.400 114.396 C 336.170 115.494,336.800 116.485,336.800 116.600 C 336.800 116.715,337.389 117.661,338.109 118.704 C 338.829 119.747,339.641 121.050,339.913 121.600 C 340.186 122.150,340.755 123.140,341.179 123.800 C 341.603 124.460,342.514 126.080,343.203 127.400 C 346.511 133.733,347.064 134.876,349.207 139.800 C 349.685 140.900,350.352 142.430,350.687 143.200 C 351.023 143.970,351.546 145.110,351.849 145.732 C 352.152 146.355,352.400 147.168,352.400 147.538 C 352.400 147.909,352.760 148.884,353.200 149.704 C 353.640 150.525,354.000 151.608,354.000 152.110 C 354.000 152.611,354.255 153.386,354.567 153.831 C 354.879 154.277,355.263 155.352,355.420 156.220 C 355.578 157.089,355.953 158.286,356.253 158.880 C 356.554 159.474,356.800 160.413,356.800 160.965 C 356.800 161.518,357.160 162.884,357.600 164.000 C 358.040 165.116,358.400 166.665,358.400 167.441 C 358.400 168.217,358.616 169.246,358.881 169.726 C 359.145 170.207,359.581 172.040,359.850 173.800 C 360.118 175.560,360.527 178.170,360.757 179.600 C 363.296 195.368,363.302 214.575,360.771 229.800 C 359.777 235.777,359.233 238.724,358.832 240.300 C 358.595 241.235,358.206 242.765,357.969 243.700 C 357.732 244.635,357.352 246.300,357.124 247.400 C 356.897 248.500,356.485 249.850,356.207 250.400 C 355.930 250.950,355.575 252.111,355.419 252.980 C 355.262 253.848,354.879 254.923,354.567 255.369 C 354.255 255.814,354.000 256.638,354.000 257.200 C 354.000 257.762,353.753 258.577,353.451 259.011 C 353.149 259.445,352.766 260.427,352.599 261.194 C 352.432 261.961,352.066 262.951,351.787 263.394 C 351.507 263.837,351.157 264.785,351.007 265.500 C 350.858 266.215,350.571 266.800,350.368 266.800 C 350.166 266.800,350.000 267.095,350.000 267.456 C 350.000 267.817,349.651 268.852,349.224 269.756 C 347.543 273.314,344.749 279.032,344.413 279.600 C 344.217 279.930,343.946 280.470,343.810 280.800 C 343.673 281.130,343.125 282.120,342.590 283.000 C 342.056 283.880,341.428 285.033,341.196 285.563 C 340.963 286.092,340.238 287.316,339.586 288.283 C 338.934 289.249,338.400 290.123,338.400 290.224 C 338.400 290.325,337.804 291.261,337.075 292.304 C 336.347 293.347,335.626 294.470,335.475 294.800 C 335.323 295.130,334.392 296.480,333.406 297.800 C 332.419 299.120,331.039 301.055,330.339 302.100 C 329.638 303.145,328.916 304.000,328.733 304.000 C 328.550 304.000,328.400 304.261,328.400 304.580 C 328.400 304.899,328.172 305.304,327.892 305.480 C 327.613 305.656,326.429 306.970,325.261 308.400 C 320.825 313.832,318.531 316.231,309.097 325.300 C 308.239 326.125,307.371 326.800,307.168 326.800 C 306.966 326.800,306.799 326.935,306.799 327.100 C 306.798 327.265,305.673 328.292,304.299 329.382 C 302.924 330.473,301.530 331.599,301.200 331.885 C 297.981 334.678,287.022 342.221,283.600 344.000 C 283.050 344.286,282.510 344.628,282.400 344.760 C 282.020 345.217,268.773 351.947,265.400 353.398 C 264.740 353.682,263.370 354.293,262.356 354.757 C 261.342 355.221,260.251 355.600,259.933 355.600 C 259.614 355.600,259.004 355.864,258.576 356.187 C 258.149 356.510,257.437 356.780,256.994 356.787 C 256.551 356.794,255.516 357.160,254.696 357.600 C 253.494 358.244,252.439 358.400,249.290 358.400 L 245.377 358.400 243.845 356.912 C 241.543 354.676,241.600 355.450,241.600 326.400 C 241.600 309.548,241.451 298.859,241.206 298.216 C 240.989 297.646,240.620 295.976,240.385 294.505 C 240.150 293.034,239.808 291.644,239.625 291.415 C 239.442 291.187,239.161 290.370,239.000 289.600 C 238.839 288.830,238.479 287.750,238.199 287.200 C 237.919 286.650,237.483 285.750,237.229 285.200 C 236.248 283.071,234.982 281.068,233.900 279.934 C 233.515 279.530,233.200 279.085,233.200 278.944 C 233.200 278.803,232.896 278.466,232.524 278.194 C 231.445 277.405,233.695 276.490,237.437 276.196 C 239.177 276.059,241.320 275.705,242.200 275.410 C 243.080 275.115,244.775 274.757,245.967 274.614 C 247.159 274.471,248.756 274.095,249.516 273.777 C 250.276 273.460,251.371 273.199,251.949 273.198 C 252.527 273.196,253.483 272.943,254.073 272.635 C 254.663 272.327,255.743 271.959,256.473 271.816 C 257.203 271.674,258.430 271.311,259.200 271.011 C 259.970 270.711,261.680 270.054,263.000 269.552 C 264.320 269.049,265.684 268.404,266.031 268.119 C 266.379 267.833,266.919 267.588,267.231 267.573 C 267.544 267.559,268.700 267.020,269.800 266.375 C 270.900 265.731,272.070 265.081,272.400 264.932 C 273.828 264.285,279.984 259.853,282.000 258.020 C 283.210 256.920,284.335 256.015,284.500 256.010 C 284.665 256.004,284.800 255.730,284.800 255.400 C 284.800 255.070,285.070 254.800,285.400 254.800 C 285.730 254.800,286.000 254.660,286.000 254.488 C 286.000 254.317,286.588 253.552,287.306 252.788 C 289.998 249.927,292.934 245.837,294.476 242.800 C 294.755 242.250,295.085 241.710,295.209 241.600 C 295.333 241.490,295.943 240.320,296.564 239.000 C 297.186 237.680,297.943 236.122,298.247 235.538 C 298.551 234.954,298.806 234.234,298.814 233.938 C 298.821 233.642,299.175 232.680,299.600 231.800 C 300.025 230.920,300.379 229.876,300.386 229.480 C 300.394 229.084,300.646 228.274,300.946 227.680 C 301.246 227.086,301.617 225.614,301.771 224.410 C 301.925 223.205,302.229 222.006,302.447 221.744 C 302.664 221.481,303.006 219.767,303.205 217.934 C 303.405 216.100,303.797 213.880,304.077 213.000 C 304.943 210.279,304.790 185.512,303.893 183.250 C 303.512 182.287,303.199 180.937,303.198 180.250 C 303.196 179.562,302.933 178.497,302.612 177.883 C 302.292 177.269,301.913 176.099,301.770 175.283 C 301.627 174.467,301.260 173.401,300.955 172.914 C 300.650 172.427,300.400 171.824,300.400 171.575 C 300.400 170.657,297.024 164.101,294.853 160.800 C 292.364 157.018,292.390 157.054,290.979 155.464 C 288.702 152.897,288.189 150.300,289.620 148.576 C 289.832 148.320,290.175 146.771,290.383 145.134 C 290.591 143.496,290.949 141.659,291.180 141.052 C 291.813 139.387,291.711 128.685,291.031 125.400 C 290.712 123.860,290.269 121.700,290.047 120.600 C 289.143 116.129,288.430 113.470,288.027 113.067 C 287.792 112.832,287.600 112.240,287.600 111.751 C 287.600 108.753,280.439 107.036,275.881 108.941 C 275.169 109.238,273.734 109.609,272.691 109.765 C 271.649 109.922,270.302 110.307,269.698 110.622 C 269.094 110.937,268.229 111.196,267.776 111.198 C 267.324 111.199,266.604 111.464,266.176 111.787 C 265.749 112.110,265.150 112.380,264.844 112.387 C 264.317 112.399,261.295 113.685,260.000 114.448 C 259.670 114.643,258.950 114.981,258.400 115.201 C 257.850 115.420,257.130 115.771,256.800 115.981 C 256.470 116.192,255.120 116.930,253.800 117.622 C 252.480 118.314,250.745 119.267,249.944 119.740 C 247.760 121.030,244.052 123.309,242.857 124.096 C 241.028 125.299,240.747 125.339,238.851 124.660 C 237.833 124.295,236.509 123.997,235.908 123.998 C 235.308 123.999,234.138 123.734,233.308 123.408 C 232.479 123.083,230.540 122.648,229.000 122.441 C 227.460 122.235,225.030 121.877,223.600 121.645 C 216.244 120.454,209.671 119.990,200.200 119.994 C 190.764 119.999,187.589 120.227,178.000 121.588 C 176.350 121.822,173.650 122.199,172.000 122.425 C 170.350 122.650,168.321 123.097,167.492 123.418 C 166.662 123.738,165.492 123.999,164.892 123.998 C 164.291 123.997,162.967 124.295,161.949 124.660 C 160.931 125.024,159.851 125.198,159.549 125.046 C 158.675 124.604,157.560 123.907,155.159 122.300 C 153.926 121.475,152.711 120.800,152.459 120.800 C 152.206 120.800,152.000 120.659,152.000 120.488 C 152.000 120.316,151.505 119.962,150.900 119.702 C 149.790 119.225,149.093 118.822,147.116 117.516 C 146.520 117.122,145.777 116.800,145.465 116.800 C 145.153 116.800,144.683 116.542,144.421 116.226 C 144.159 115.910,143.417 115.536,142.772 115.394 C 142.128 115.252,141.600 114.974,141.600 114.776 C 141.600 114.578,141.105 114.294,140.500 114.146 C 139.895 113.998,138.773 113.545,138.006 113.139 C 137.239 112.732,136.339 112.394,136.006 112.387 C 135.673 112.380,135.051 112.110,134.624 111.787 C 134.196 111.464,133.476 111.199,133.024 111.198 C 132.571 111.196,131.720 110.944,131.133 110.638 C 130.546 110.332,129.286 109.960,128.333 109.811 C 127.380 109.662,125.880 109.277,125.000 108.955 C 122.781 108.143,114.815 108.327,114.399 109.200 C 114.242 109.530,113.835 110.340,113.494 111.000 C 113.152 111.660,112.742 112.903,112.580 113.763 C 112.419 114.622,112.044 115.792,111.746 116.363 C 111.448 116.933,111.196 117.940,111.185 118.600 C 111.174 119.260,110.888 120.520,110.551 121.400 C 109.758 123.465,109.319 138.571,109.941 142.400 C 110.597 146.434,111.504 150.064,111.973 150.533 C 112.467 151.027,112.548 152.670,112.089 152.867 C 111.839 152.973,109.160 156.228,107.697 158.200 C 106.072 160.391,104.000 163.733,104.000 164.164 C 104.000 164.460,103.742 164.917,103.426 165.179 C 103.110 165.441,102.738 166.170,102.600 166.800 C 102.462 167.430,102.090 168.159,101.774 168.421 C 101.458 168.683,101.200 169.196,101.200 169.560 C 101.200 169.924,100.953 170.577,100.651 171.011 C 100.349 171.445,99.966 172.430,99.800 173.200 C 99.634 173.970,99.251 174.955,98.949 175.389 C 98.647 175.823,98.400 176.684,98.400 177.302 C 98.400 177.920,98.124 179.087,97.786 179.895 C 97.448 180.703,97.001 182.813,96.792 184.582 C 96.583 186.352,96.240 188.700,96.030 189.800 C 95.540 192.366,95.531 201.373,96.015 205.000 C 96.221 206.540,96.564 209.780,96.777 212.200 C 96.991 214.620,97.444 217.484,97.783 218.564 C 98.122 219.644,98.400 221.137,98.400 221.883 C 98.400 222.629,98.649 223.726,98.953 224.320 C 99.257 224.914,99.635 226.180,99.793 227.133 C 99.952 228.086,100.332 229.346,100.638 229.933 C 100.944 230.520,101.196 231.235,101.198 231.522 C 101.200 232.074,102.407 235.031,103.405 236.932 C 103.732 237.555,104.000 238.307,104.000 238.604 C 104.000 238.900,104.225 239.387,104.500 239.685 C 104.775 239.984,105.534 241.256,106.186 242.514 C 106.838 243.771,107.513 244.800,107.686 244.800 C 107.859 244.800,108.000 245.048,108.000 245.351 C 108.000 247.789,120.455 260.389,125.800 263.358 C 126.460 263.724,127.540 264.364,128.200 264.779 C 130.770 266.396,139.215 270.400,140.055 270.400 C 140.367 270.400,140.977 270.644,141.411 270.943 C 141.845 271.242,142.867 271.609,143.683 271.758 C 144.499 271.908,145.669 272.292,146.283 272.612 C 146.897 272.933,147.873 273.196,148.451 273.198 C 149.029 273.199,150.141 273.467,150.922 273.793 C 151.702 274.119,153.389 274.504,154.670 274.648 C 155.952 274.791,157.225 275.087,157.501 275.304 C 157.777 275.522,159.577 275.859,161.501 276.053 C 167.340 276.643,169.060 277.428,167.726 278.895 C 166.326 280.435,164.000 283.963,164.000 284.547 C 164.000 284.852,163.742 285.317,163.426 285.579 C 163.110 285.841,162.733 286.595,162.588 287.255 C 162.443 287.914,162.073 288.937,161.765 289.527 C 161.457 290.117,161.204 290.909,161.202 291.286 C 161.201 291.663,160.949 292.743,160.642 293.686 C 160.334 294.629,159.966 296.075,159.823 296.900 C 159.641 297.956,159.359 298.400,158.871 298.400 C 158.490 298.400,157.814 298.655,157.369 298.967 C 156.923 299.279,155.848 299.662,154.980 299.819 C 154.111 299.976,153.212 300.252,152.983 300.432 C 150.509 302.378,134.897 302.395,131.344 300.456 C 130.935 300.232,129.610 299.585,128.400 299.017 C 124.413 297.147,123.179 296.273,119.846 292.962 C 117.508 290.639,113.200 284.862,113.200 284.049 C 113.200 283.870,112.840 283.398,112.400 283.000 C 111.960 282.602,111.600 282.049,111.600 281.771 C 111.600 281.494,111.440 281.207,111.244 281.133 C 111.048 281.060,110.144 280.056,109.236 278.903 C 107.492 276.686,102.222 272.278,100.200 271.343 C 99.540 271.038,98.730 270.615,98.400 270.404 C 94.962 268.202,87.791 267.058,83.677 268.055 C 77.822 269.475,79.183 273.742,87.154 278.956 C 90.084 280.872,94.082 284.568,96.002 287.135 C 96.551 287.869,97.184 288.679,97.409 288.935 C 97.633 289.191,98.588 290.750,99.531 292.400 C 100.473 294.050,101.415 295.670,101.623 296.000 C 101.831 296.330,102.178 297.050,102.393 297.600 C 102.608 298.150,103.058 299.110,103.392 299.732 C 103.726 300.355,104.000 301.200,104.000 301.609 C 104.000 302.018,104.188 302.469,104.417 302.610 C 104.646 302.752,105.116 303.573,105.460 304.434 C 105.805 305.295,106.247 306.000,106.443 306.000 C 106.640 306.000,106.800 306.254,106.800 306.564 C 106.800 307.185,109.566 310.824,111.236 312.399 C 113.900 314.911,115.149 316.000,115.370 316.000 C 115.501 316.000,116.496 316.624,117.581 317.387 C 118.666 318.149,120.014 318.889,120.577 319.030 C 121.140 319.171,121.600 319.426,121.600 319.596 C 121.600 319.766,122.399 320.106,123.376 320.352 C 124.353 320.598,125.264 320.980,125.400 321.200 C 125.536 321.420,126.086 321.600,126.622 321.600 C 127.158 321.600,128.723 321.994,130.098 322.476 C 133.058 323.512,151.272 323.758,154.800 322.810 C 155.790 322.544,157.158 322.236,157.840 322.126 L 159.080 321.927 159.368 336.876 C 159.709 354.518,159.463 355.933,155.701 357.946 C 154.257 358.719,148.048 358.493,146.200 357.600 C 145.320 357.175,144.342 356.821,144.026 356.814 C 143.468 356.800,140.958 355.754,138.668 354.580 C 138.045 354.261,137.325 354.000,137.068 354.001 C 136.810 354.002,135.880 353.650,135.000 353.221 C 134.120 352.791,131.870 351.707,130.000 350.813 C 128.130 349.918,126.330 349.029,126.000 348.836 C 125.670 348.643,124.950 348.282,124.400 348.034 C 122.775 347.301,118.843 345.003,118.322 344.482 C 118.057 344.217,117.619 344.000,117.349 344.000 C 117.078 344.000,116.619 343.773,116.329 343.495 C 116.038 343.218,115.350 342.759,114.800 342.476 C 112.297 341.187,111.600 340.730,111.600 340.378 C 111.600 340.170,111.375 339.996,111.100 339.992 C 110.296 339.979,96.000 329.302,96.000 328.715 C 96.000 328.542,95.842 328.400,95.649 328.400 C 94.870 328.400,83.080 317.003,78.890 312.200 C 77.547 310.660,75.720 308.590,74.830 307.600 C 73.940 306.610,73.209 305.693,73.206 305.561 C 73.203 305.430,72.885 304.944,72.500 304.481 C 72.115 304.019,71.440 303.177,71.000 302.610 C 70.560 302.044,70.020 301.359,69.800 301.090 C 69.580 300.820,68.861 299.790,68.201 298.800 C 67.542 297.810,66.906 296.910,66.787 296.800 C 66.564 296.592,63.701 292.305,63.000 291.129 C 62.780 290.760,61.737 288.960,60.682 287.129 C 59.627 285.298,58.595 283.530,58.388 283.200 C 58.181 282.870,57.743 282.060,57.414 281.400 C 57.085 280.740,56.645 279.930,56.437 279.600 C 56.228 279.270,55.956 278.730,55.831 278.400 C 55.707 278.070,55.424 277.530,55.202 277.200 C 54.981 276.870,54.620 276.150,54.401 275.600 C 54.181 275.050,53.843 274.330,53.648 274.000 C 53.454 273.670,52.901 272.500,52.420 271.400 C 51.939 270.300,51.287 268.922,50.973 268.338 C 50.658 267.754,50.394 267.034,50.386 266.738 C 50.379 266.442,50.025 265.480,49.600 264.600 C 49.175 263.720,48.821 262.719,48.814 262.376 C 48.806 262.034,48.536 261.404,48.213 260.976 C 47.890 260.549,47.614 259.840,47.599 259.400 C 47.585 258.960,47.225 257.880,46.800 257.000 C 46.375 256.120,46.021 254.927,46.014 254.349 C 46.006 253.771,45.754 253.094,45.454 252.845 C 45.153 252.595,44.796 251.580,44.660 250.589 C 44.525 249.597,44.140 248.258,43.807 247.613 C 43.473 246.968,43.200 245.885,43.200 245.207 C 43.200 244.529,42.935 243.340,42.611 242.564 C 42.287 241.788,41.912 240.219,41.779 239.077 C 41.645 237.935,41.355 236.460,41.133 235.800 C 40.911 235.140,40.484 232.800,40.185 230.600 C 39.885 228.400,39.427 225.340,39.167 223.800 C 38.545 220.122,38.521 189.714,39.136 185.800 C 39.378 184.260,39.767 181.650,40.001 180.000 C 40.235 178.350,40.621 176.100,40.859 175.000 C 41.097 173.900,41.527 171.740,41.815 170.200 C 42.400 167.081,42.904 165.040,44.042 161.200 C 44.465 159.770,44.815 158.330,44.819 158.000 C 44.822 157.670,45.090 157.051,45.413 156.624 C 45.736 156.196,46.006 155.386,46.014 154.824 C 46.021 154.261,46.375 153.080,46.800 152.200 C 47.225 151.320,47.585 150.240,47.599 149.800 C 47.614 149.360,47.890 148.651,48.213 148.224 C 48.536 147.796,48.806 147.166,48.814 146.824 C 48.821 146.481,49.175 145.480,49.600 144.600 C 50.025 143.720,50.379 142.707,50.386 142.349 C 50.394 141.991,50.651 141.490,50.958 141.235 C 51.265 140.980,51.630 140.166,51.769 139.426 C 51.908 138.686,52.286 137.860,52.611 137.591 C 52.935 137.322,53.200 136.837,53.200 136.513 C 53.200 136.189,53.469 135.446,53.797 134.862 C 54.126 134.278,54.581 133.350,54.808 132.800 C 55.036 132.250,55.929 130.540,56.793 129.000 C 57.657 127.460,58.642 125.660,58.981 125.000 C 59.321 124.340,59.956 123.260,60.393 122.600 C 60.830 121.940,61.361 121.009,61.572 120.531 C 61.784 120.053,62.596 118.772,63.378 117.683 C 64.160 116.595,64.800 115.516,64.800 115.286 C 64.800 115.055,64.939 114.807,65.108 114.733 C 65.277 114.660,66.068 113.610,66.865 112.400 C 68.467 109.969,71.625 105.753,72.584 104.766 C 72.923 104.418,73.200 103.923,73.200 103.666 C 73.200 103.410,73.337 103.200,73.505 103.200 C 73.673 103.200,74.566 102.232,75.490 101.050 C 80.210 95.006,90.098 85.150,96.810 79.800 C 99.803 77.414,100.620 76.747,101.956 75.600 C 102.839 74.842,104.389 73.733,107.637 71.535 C 109.046 70.581,110.380 69.664,110.600 69.498 C 111.870 68.540,115.950 66.000,116.219 66.000 C 116.394 66.000,116.821 65.748,117.169 65.440 C 117.897 64.795,121.053 63.005,124.800 61.113 C 126.230 60.391,127.492 59.679,127.604 59.532 C 127.716 59.384,128.294 59.141,128.888 58.992 C 129.481 58.843,130.177 58.469,130.433 58.161 C 130.689 57.852,131.155 57.600,131.470 57.600 C 131.784 57.600,132.707 57.266,133.521 56.857 C 137.020 55.099,137.690 54.800,138.138 54.800 C 138.399 54.800,139.284 54.440,140.104 54.000 C 140.925 53.560,141.868 53.200,142.200 53.200 C 142.532 53.200,143.475 52.840,144.296 52.400 C 145.116 51.960,146.112 51.600,146.508 51.600 C 146.904 51.600,147.627 51.347,148.114 51.038 C 148.601 50.730,149.764 50.354,150.698 50.204 C 151.632 50.053,152.488 49.782,152.600 49.600 C 152.712 49.418,153.568 49.145,154.502 48.993 C 155.436 48.842,156.740 48.490,157.400 48.213 C 158.547 47.732,160.277 47.308,164.900 46.377 C 166.055 46.145,167.720 45.773,168.600 45.550 C 169.480 45.328,172.000 44.892,174.200 44.581 C 176.400 44.270,178.920 43.837,179.800 43.618 C 180.680 43.398,183.110 43.199,185.200 43.175 C 187.290 43.150,189.900 42.980,191.000 42.797 C 193.279 42.418,207.456 42.620,215.800 43.151 M95.067 273.067 C 94.557 273.576,94.804 275.080,95.500 275.707 C 97.635 277.631,100.202 276.324,98.969 273.940 C 98.392 272.824,95.873 272.260,95.067 273.067 M97.824 274.173 C 98.408 274.604,98.487 274.861,98.142 275.211 C 97.442 275.922,96.215 275.499,96.072 274.496 C 95.924 273.454,96.664 273.317,97.824 274.173 M101.680 278.880 C 100.436 280.124,101.982 282.919,104.123 283.299 C 105.669 283.573,106.544 282.635,106.236 281.035 C 105.818 278.871,103.015 277.545,101.680 278.880 M104.674 280.070 C 105.951 281.269,105.898 282.400,104.564 282.400 C 103.213 282.400,101.928 280.881,102.452 279.903 C 102.951 278.971,103.553 279.016,104.674 280.070 M108.014 287.574 C 107.149 289.191,107.861 291.128,109.784 292.390 C 112.528 294.189,114.424 290.716,112.164 288.031 C 110.910 286.540,108.697 286.297,108.014 287.574 M111.454 288.621 C 112.949 290.233,112.555 291.600,110.596 291.600 C 109.636 291.600,108.800 290.376,108.800 288.971 C 108.800 287.246,110.029 287.083,111.454 288.621 M116.758 295.865 C 113.837 296.646,115.779 302.000,118.983 302.000 C 122.567 302.000,122.698 298.712,119.211 296.288 C 118.217 295.596,117.939 295.548,116.758 295.865 M120.367 298.939 C 121.648 301.332,118.898 302.183,117.036 299.969 C 115.763 298.457,115.724 297.678,116.900 297.235 C 118.049 296.803,119.643 297.586,120.367 298.939 M126.797 303.803 C 125.815 304.848,126.413 307.600,127.622 307.600 C 127.861 307.600,128.327 307.870,128.657 308.200 C 130.073 309.616,133.200 308.219,133.200 306.172 C 133.200 303.309,128.793 301.679,126.797 303.803 M154.467 303.743 C 150.556 305.160,151.026 308.800,155.120 308.800 C 157.215 308.800,159.463 307.262,159.027 306.126 C 158.902 305.801,158.800 305.292,158.800 304.997 C 158.800 304.701,158.232 304.175,157.539 303.829 C 156.089 303.106,156.217 303.110,154.467 303.743 M131.072 304.480 C 132.680 305.062,132.943 306.625,131.522 307.151 C 130.181 307.647,127.713 306.877,127.453 305.881 C 127.000 304.148,128.522 303.558,131.072 304.480 M157.063 304.642 C 159.315 305.247,157.637 308.000,155.017 308.000 C 153.473 308.000,152.825 307.249,153.105 305.784 C 153.321 304.653,155.144 304.128,157.063 304.642 M140.489 305.823 C 139.358 306.615,139.313 308.513,140.400 309.600 C 142.166 311.366,146.800 310.008,146.800 307.723 C 146.800 305.669,142.540 304.386,140.489 305.823 M144.971 306.629 C 146.870 308.527,143.150 310.765,141.131 308.938 C 139.703 307.645,140.750 306.000,143.000 306.000 C 143.739 306.000,144.626 306.283,144.971 306.629 " stroke="none" fill="#848484" fill-rule="evenodd"></path></g></svg>
