<svg id="svg" xmlns="http://www.w3.org/2000/svg" xmlns:xlink="http://www.w3.org/1999/xlink" width="90" height="90" viewBox="0, 0, 400,400"><g id="svgg"><path id="path0" d="M84.667 27.000 L 84.667 54.000 93.833 54.000 L 103.000 54.000 103.000 45.000 L 103.000 36.000 111.000 36.000 L 119.000 36.000 119.000 45.000 L 119.000 54.000 128.167 54.000 L 137.333 54.000 137.333 27.000 L 137.333 0.000 128.167 0.000 L 119.000 0.000 119.000 8.833 L 119.000 17.667 110.833 17.667 L 102.667 17.667 102.667 8.833 L 102.667 0.000 93.667 0.000 L 84.667 0.000 84.667 27.000 M145.000 9.000 L 145.000 18.000 152.833 18.000 L 160.667 18.000 160.667 36.000 L 160.667 54.000 169.833 54.000 L 179.000 54.000 179.000 36.000 L 179.000 18.000 187.000 18.000 L 195.000 18.000 195.000 9.000 L 195.000 0.000 170.000 0.000 L 145.000 0.000 145.000 9.000 M202.667 27.000 L 202.667 54.000 211.663 54.000 L 220.659 54.000 220.746 41.113 L 220.833 28.227 226.796 37.447 C 230.075 42.518,232.850 46.665,232.963 46.664 C 233.075 46.662,235.867 42.503,239.167 37.421 L 245.167 28.180 245.254 41.090 L 245.341 54.000 254.504 54.000 L 263.667 54.000 263.667 27.000 L 263.667 0.000 254.047 0.000 L 244.427 0.000 238.780 9.292 L 233.133 18.583 227.483 9.293 L 221.833 0.002 212.250 0.001 L 202.667 0.000 202.667 27.000 M272.333 27.000 L 272.333 54.000 294.167 54.000 L 316.000 54.000 316.000 45.000 L 316.000 36.000 303.333 36.000 L 290.667 36.000 290.667 18.000 L 290.667 0.000 281.500 0.000 L 272.333 0.000 272.333 27.000 " stroke="none" fill="#040404" fill-rule="evenodd"></path><path id="path1" d="M58.170 79.583 C 58.268 80.271,64.047 145.033,71.013 223.500 C 77.978 301.967,83.751 366.617,83.841 367.167 L 84.004 368.167 141.586 384.089 C 173.255 392.846,199.469 400.009,199.838 400.006 C 200.663 399.999,315.601 368.177,315.908 367.870 C 316.029 367.749,321.862 303.266,328.871 224.575 C 335.880 145.884,341.694 80.787,341.791 79.917 L 341.969 78.333 199.980 78.333 L 57.992 78.333 58.170 79.583 M288.645 138.750 C 288.633 139.346,287.921 147.333,287.062 156.500 L 285.500 173.167 217.750 173.251 L 150.000 173.335 149.998 174.251 C 149.996 175.570,153.005 208.753,153.172 209.248 C 153.282 209.578,166.619 209.664,217.711 209.665 C 253.131 209.666,282.147 209.704,282.191 209.750 C 282.250 209.812,273.188 311.601,272.599 317.489 L 272.500 318.478 236.167 328.570 L 199.833 338.662 163.667 328.604 C 143.775 323.072,127.429 318.490,127.341 318.420 C 127.170 318.284,122.384 265.990,122.352 263.914 L 122.333 262.661 140.083 262.747 L 157.832 262.833 159.051 276.785 C 159.721 284.458,160.396 290.852,160.551 290.993 C 160.706 291.135,169.627 293.598,180.376 296.467 L 199.918 301.685 219.376 296.477 C 230.077 293.613,238.975 291.134,239.148 290.970 C 239.321 290.805,240.320 281.107,241.368 269.418 C 242.415 257.730,243.339 247.454,243.421 246.583 L 243.569 245.000 182.149 245.000 L 120.729 245.000 120.528 243.417 C 120.317 241.757,111.000 138.731,111.000 138.056 C 111.000 137.760,132.361 137.667,199.833 137.667 L 288.667 137.667 288.645 138.750 " stroke="none" fill="#e44c24" fill-rule="evenodd"></path><path id="path2" d="M111.000 138.056 C 111.000 138.731,120.317 241.757,120.528 243.417 L 120.729 245.000 182.149 245.000 L 243.569 245.000 243.421 246.583 C 243.339 247.454,242.415 257.730,241.368 269.418 C 240.320 281.107,239.321 290.805,239.148 290.970 C 238.975 291.134,230.077 293.613,219.376 296.477 L 199.918 301.685 180.376 296.467 C 169.627 293.598,160.706 291.135,160.551 290.993 C 160.396 290.852,159.721 284.458,159.051 276.785 L 157.832 262.833 140.083 262.747 L 122.333 262.661 122.352 263.914 C 122.384 265.990,127.170 318.284,127.341 318.420 C 127.429 318.490,143.775 323.072,163.667 328.604 L 199.833 338.662 236.167 328.570 L 272.500 318.478 272.599 317.489 C 273.188 311.601,282.250 209.812,282.191 209.750 C 282.147 209.704,253.131 209.666,217.711 209.665 C 166.619 209.664,153.282 209.578,153.172 209.248 C 153.005 208.753,149.996 175.570,149.998 174.251 L 150.000 173.335 217.750 173.251 L 285.500 173.167 287.062 156.500 C 287.921 147.333,288.633 139.346,288.645 138.750 L 288.667 137.667 199.833 137.667 C 132.361 137.667,111.000 137.760,111.000 138.056 " stroke="none" fill="#f3f3f3" fill-rule="evenodd"></path></g></svg>
