<svg id="svg" xmlns="http://www.w3.org/2000/svg" xmlns:xlink="http://www.w3.org/1999/xlink" width="120" height="76.67" viewBox="0, 0, 400,266.6666666666667"><g id="svgg"><path id="path0" d="M0.000 133.333 L 0.000 266.667 200.000 266.667 L 400.000 266.667 400.000 133.333 L 400.000 0.000 200.000 0.000 L 0.000 0.000 0.000 133.333 M219.125 15.887 C 225.546 27.561,219.681 40.924,201.467 56.123 C 184.664 70.144,183.508 77.579,195.473 94.667 C 201.844 103.766,201.677 104.458,194.731 97.730 C 173.781 77.437,174.044 67.818,195.993 51.467 C 214.544 37.646,219.655 29.117,217.702 15.234 C 217.474 13.617,218.012 13.864,219.125 15.887 M236.000 47.702 C 236.000 47.832,235.790 48.008,235.533 48.094 C 232.940 48.960,220.178 58.033,216.218 61.825 C 208.631 69.091,208.494 73.867,215.593 83.600 C 221.735 92.021,220.673 98.464,211.996 105.406 C 208.515 108.191,206.715 108.917,208.539 106.800 C 212.480 102.225,212.285 96.752,207.992 91.467 C 200.947 82.794,199.401 75.802,202.903 68.463 C 206.434 61.065,217.863 53.223,231.733 48.681 C 232.980 48.273,234.240 47.841,234.533 47.721 C 235.258 47.425,236.000 47.415,236.000 47.702 M251.832 102.802 C 260.530 105.068,263.933 113.445,259.155 120.837 C 256.620 124.759,251.359 128.722,245.356 131.233 C 238.529 134.087,232.508 135.416,237.542 132.958 C 244.485 129.567,251.819 122.850,253.791 118.078 C 256.997 110.317,249.940 102.509,241.641 104.635 C 239.621 105.153,239.733 105.148,239.733 104.724 C 239.733 103.055,247.850 101.765,251.832 102.802 M180.533 103.961 C 180.533 104.086,179.603 104.452,178.467 104.774 C 158.000 110.571,160.995 114.174,186.267 114.157 C 202.066 114.147,223.578 112.371,233.667 110.245 C 234.906 109.984,234.484 110.509,232.733 111.407 C 231.817 111.876,230.287 112.680,229.333 113.191 C 220.814 117.765,179.561 119.886,162.075 116.650 C 150.945 114.590,150.342 112.163,160.001 108.313 C 166.934 105.549,180.533 102.667,180.533 103.961 M174.133 123.249 C 174.133 123.423,173.895 123.819,173.604 124.129 C 171.585 126.278,173.706 128.283,178.667 128.917 C 191.212 130.520,204.832 129.992,220.137 127.311 L 222.808 126.843 224.404 128.045 C 225.282 128.706,226.690 129.581,227.533 129.988 C 228.377 130.396,229.067 130.778,229.067 130.838 C 229.067 131.421,217.850 133.874,211.667 134.643 C 210.383 134.803,208.343 135.058,207.133 135.211 C 198.963 136.244,185.547 135.914,177.600 134.484 C 166.192 132.432,162.927 127.892,170.400 124.470 C 171.060 124.167,172.080 123.701,172.667 123.433 C 173.930 122.855,174.133 122.830,174.133 123.249 M177.719 141.718 C 175.755 144.716,182.050 146.221,196.667 146.248 C 203.926 146.261,206.857 146.019,212.933 144.903 C 217.240 144.113,217.907 144.117,219.220 144.946 C 219.869 145.356,221.658 146.266,223.196 146.968 C 226.267 148.371,226.510 148.594,225.410 149.003 C 225.001 149.155,224.007 149.526,223.200 149.827 C 209.255 155.028,188.517 155.584,177.207 151.060 C 169.602 148.017,169.200 144.458,176.133 141.567 C 177.810 140.868,178.249 140.910,177.719 141.718 M164.494 152.826 C 165.674 153.237,165.538 153.599,164.200 153.606 C 160.762 153.623,153.060 156.217,151.133 158.007 C 148.937 160.047,151.545 161.557,160.267 163.296 C 168.795 164.995,176.176 165.467,194.267 165.467 C 212.675 165.467,221.414 164.965,233.733 163.203 C 247.972 161.166,253.202 158.798,251.897 154.981 C 251.559 153.992,253.094 154.912,253.719 156.073 C 257.506 163.105,227.523 169.939,192.933 169.928 C 179.611 169.924,173.905 169.597,159.333 168.002 C 143.378 166.256,138.533 164.411,140.404 160.792 C 141.950 157.803,150.725 154.082,159.467 152.711 C 160.909 152.484,163.697 152.548,164.494 152.826 M261.333 163.559 C 261.333 164.371,259.172 167.204,257.752 168.253 C 249.431 174.400,229.445 177.843,202.000 177.857 C 184.099 177.866,167.201 176.100,163.600 173.844 C 162.609 173.223,162.553 173.223,167.515 173.848 C 201.631 178.147,249.852 173.012,259.969 164.004 C 260.953 163.128,261.333 163.004,261.333 163.559 M152.200 188.779 C 152.733 188.812,152.679 236.698,152.143 239.765 C 151.150 245.445,148.289 249.280,142.942 252.100 C 140.010 253.646,140.337 253.703,138.305 251.288 C 136.390 249.012,136.373 248.872,137.904 248.011 C 139.535 247.094,141.968 244.574,142.808 242.930 C 144.401 239.816,144.348 240.744,144.463 213.738 C 144.521 200.101,144.670 188.881,144.794 188.805 C 144.970 188.697,150.565 188.677,152.200 188.779 M179.467 201.927 C 183.986 203.014,186.965 206.018,187.718 210.249 C 187.892 211.227,188.000 217.161,188.000 225.782 L 188.000 239.733 185.060 239.733 C 181.834 239.733,181.600 239.596,181.600 237.698 C 181.600 235.947,181.255 235.936,178.738 237.603 C 169.055 244.022,158.539 240.203,158.535 230.267 C 158.532 223.362,161.846 219.858,170.286 217.843 C 171.009 217.670,173.520 217.455,175.867 217.365 L 180.133 217.200 180.118 214.267 C 180.101 211.039,179.872 210.320,178.400 208.881 C 176.164 206.695,169.666 206.608,163.137 208.677 C 161.313 209.255,161.455 209.361,160.820 206.942 C 160.178 204.495,160.163 204.525,162.477 203.664 C 168.055 201.590,175.078 200.872,179.467 201.927 M250.181 202.008 C 254.475 203.061,257.236 205.731,258.123 209.688 C 258.325 210.589,258.494 227.950,258.407 238.875 L 258.400 239.751 255.401 239.675 L 252.402 239.600 252.182 238.000 C 251.889 235.869,251.797 235.826,250.152 237.053 C 242.046 243.101,231.042 241.159,229.174 233.352 C 226.849 223.630,234.097 217.333,247.611 217.333 L 250.667 217.333 250.667 214.525 C 250.667 210.616,250.004 209.187,247.600 207.918 C 245.356 206.733,238.333 207.071,234.052 208.570 C 232.016 209.283,231.871 209.190,231.311 206.815 C 230.763 204.492,230.765 204.488,232.819 203.699 C 238.346 201.576,245.558 200.874,250.181 202.008 M201.095 202.667 C 201.215 202.887,202.227 206.067,203.344 209.733 C 204.460 213.400,205.917 218.140,206.582 220.267 C 207.891 224.461,209.333 229.923,209.333 230.690 C 209.333 231.968,210.183 231.519,210.637 230.000 C 210.768 229.560,211.495 227.160,212.252 224.667 C 214.073 218.667,215.606 212.302,216.492 207.067 C 216.889 204.720,217.308 202.650,217.423 202.467 C 217.665 202.080,224.940 201.979,225.175 202.359 C 225.537 202.945,223.285 212.968,221.211 220.000 C 219.624 225.380,217.283 231.963,215.758 235.333 C 215.492 235.920,214.941 237.153,214.532 238.073 L 213.789 239.745 208.962 239.673 L 204.135 239.600 203.779 238.533 C 203.582 237.947,202.524 234.527,201.427 230.933 C 200.329 227.340,198.962 222.900,198.388 221.067 C 197.814 219.233,196.910 216.293,196.378 214.533 C 194.379 207.919,193.364 204.644,193.086 203.916 C 192.392 202.096,192.359 202.111,196.838 202.193 C 200.098 202.252,200.918 202.344,201.095 202.667 M260.843 202.700 C 260.793 202.902,260.733 203.417,260.709 203.845 C 260.686 204.273,260.517 204.673,260.333 204.734 C 259.974 204.853,259.838 202.651,260.183 202.306 C 260.474 202.015,260.943 202.296,260.843 202.700 M263.467 203.384 C 263.467 203.576,263.647 203.733,263.867 203.733 C 264.089 203.733,264.267 203.970,264.267 204.267 C 264.267 204.890,263.786 204.981,263.563 204.400 C 263.392 203.955,262.667 203.847,262.667 204.267 C 262.667 204.413,262.571 204.533,262.453 204.533 C 262.131 204.533,262.186 202.562,262.514 202.338 C 262.827 202.125,263.467 202.827,263.467 203.384 M265.600 203.422 C 265.600 204.733,265.347 204.975,264.893 204.099 C 264.365 203.081,264.434 202.400,265.067 202.400 C 265.507 202.400,265.600 202.578,265.600 203.422 M173.867 222.303 C 167.642 223.212,165.341 225.666,166.191 230.489 C 167.132 235.833,175.979 236.329,179.933 231.259 C 180.479 230.560,180.399 222.508,179.845 222.295 C 179.407 222.127,175.033 222.133,173.867 222.303 M243.733 222.406 C 238.918 222.992,236.540 225.199,236.535 229.086 C 236.527 235.207,242.311 236.757,249.006 232.427 L 250.679 231.346 250.606 226.806 L 250.533 222.267 248.000 222.231 C 246.607 222.211,244.687 222.289,243.733 222.406 " stroke="none" fill="#fbfbfb" fill-rule="evenodd"></path><path id="path1" d="M243.176 102.917 C 241.195 103.446,239.733 104.213,239.733 104.724 C 239.733 105.148,239.621 105.153,241.641 104.635 C 249.940 102.509,256.997 110.317,253.791 118.078 C 251.819 122.850,244.485 129.567,237.542 132.958 C 232.508 135.416,238.529 134.087,245.356 131.233 C 258.558 125.712,264.568 115.962,259.599 108.125 C 256.620 103.427,249.602 101.202,243.176 102.917 M176.000 104.152 C 168.609 105.100,159.580 107.873,155.182 110.544 C 148.870 114.379,158.193 117.328,179.200 118.141 C 197.934 118.867,223.455 116.347,229.333 113.191 C 230.287 112.680,231.817 111.876,232.733 111.407 C 234.484 110.509,234.906 109.984,233.667 110.245 C 223.578 112.371,202.066 114.147,186.267 114.157 C 160.995 114.174,158.000 110.571,178.467 104.774 C 182.073 103.753,181.075 103.501,176.000 104.152 M172.667 123.433 C 172.080 123.701,171.060 124.167,170.400 124.470 C 162.927 127.892,166.192 132.432,177.600 134.484 C 185.547 135.914,198.963 136.244,207.133 135.211 C 208.343 135.058,210.383 134.803,211.667 134.643 C 217.850 133.874,229.067 131.421,229.067 130.838 C 229.067 130.778,228.377 130.396,227.533 129.988 C 226.690 129.581,225.282 128.706,224.404 128.045 L 222.808 126.843 220.137 127.311 C 204.832 129.992,191.212 130.520,178.667 128.917 C 173.706 128.283,171.585 126.278,173.604 124.129 C 174.679 122.985,174.285 122.693,172.667 123.433 M176.133 141.567 C 169.200 144.458,169.602 148.017,177.207 151.060 C 188.517 155.584,209.255 155.028,223.200 149.827 C 224.007 149.526,225.001 149.155,225.410 149.003 C 226.510 148.594,226.267 148.371,223.196 146.968 C 221.658 146.266,219.869 145.356,219.220 144.946 C 217.907 144.117,217.240 144.113,212.933 144.903 C 206.857 146.019,203.926 146.261,196.667 146.248 C 182.050 146.221,175.755 144.716,177.719 141.718 C 178.249 140.910,177.810 140.868,176.133 141.567 M159.467 152.711 C 150.725 154.082,141.950 157.803,140.404 160.792 C 138.533 164.411,143.378 166.256,159.333 168.002 C 173.905 169.597,179.611 169.924,192.933 169.928 C 227.523 169.939,257.506 163.105,253.719 156.073 C 253.094 154.912,251.559 153.992,251.897 154.981 C 253.202 158.798,247.972 161.166,233.733 163.203 C 228.012 164.021,223.633 164.458,214.533 165.118 C 207.968 165.595,180.280 165.595,174.800 165.119 C 167.854 164.516,163.900 164.020,160.267 163.296 C 149.780 161.206,147.812 159.257,153.467 156.564 C 156.648 155.049,161.841 153.618,164.200 153.606 C 164.823 153.603,165.333 153.492,165.333 153.359 C 165.333 152.712,161.888 152.331,159.467 152.711 M259.969 164.004 C 249.852 173.012,201.631 178.147,167.515 173.848 C 162.553 173.223,162.609 173.223,163.600 173.844 C 167.201 176.100,184.099 177.866,202.000 177.857 C 233.576 177.841,255.303 173.248,260.288 165.534 C 261.810 163.179,261.667 162.492,259.969 164.004 " stroke="none" fill="#5884a1" fill-rule="evenodd"></path><path id="path2" d="M217.702 15.234 C 219.655 29.117,214.544 37.646,195.993 51.467 C 174.044 67.818,173.781 77.437,194.731 97.730 C 201.677 104.458,201.844 103.766,195.473 94.667 C 183.508 77.579,184.664 70.144,201.467 56.123 C 217.843 42.458,224.220 30.343,220.694 19.600 C 219.387 15.618,217.334 12.623,217.702 15.234 M234.533 47.721 C 234.240 47.841,232.980 48.273,231.733 48.681 C 217.863 53.223,206.434 61.065,202.903 68.463 C 199.401 75.802,200.947 82.794,207.992 91.467 C 212.489 97.003,212.531 101.437,208.143 107.361 C 206.745 109.247,211.182 106.375,214.157 103.467 C 220.855 96.920,221.257 91.365,215.593 83.600 C 208.494 73.867,208.631 69.091,216.218 61.825 C 220.178 58.033,232.940 48.960,235.533 48.094 C 235.790 48.008,236.000 47.832,236.000 47.702 C 236.000 47.415,235.258 47.425,234.533 47.721 M144.794 188.805 C 144.670 188.881,144.521 200.101,144.463 213.738 C 144.348 240.744,144.401 239.816,142.808 242.930 C 141.968 244.574,139.535 247.094,137.904 248.011 C 136.373 248.872,136.390 249.012,138.305 251.288 C 140.337 253.703,140.010 253.646,142.942 252.100 C 148.289 249.280,151.150 245.445,152.143 239.765 C 152.679 236.698,152.733 188.812,152.200 188.779 C 150.565 188.677,144.970 188.697,144.794 188.805 M171.127 201.616 C 167.312 202.008,160.732 203.898,160.428 204.690 C 160.308 205.001,161.213 208.769,161.468 209.024 C 161.544 209.100,162.295 208.944,163.137 208.677 C 169.666 206.608,176.164 206.695,178.400 208.881 C 179.872 210.320,180.101 211.039,180.118 214.267 L 180.133 217.200 175.867 217.365 C 173.520 217.455,171.009 217.670,170.286 217.843 C 161.846 219.858,158.532 223.362,158.535 230.267 C 158.539 240.203,169.055 244.022,178.738 237.603 C 181.255 235.936,181.600 235.947,181.600 237.698 C 181.600 239.596,181.834 239.733,185.060 239.733 L 188.000 239.733 188.000 225.782 C 188.000 217.161,187.892 211.227,187.718 210.249 C 186.557 203.725,180.630 200.642,171.127 201.616 M241.508 201.621 C 238.079 201.968,231.949 203.678,231.103 204.524 C 230.745 204.882,231.660 208.789,232.145 208.975 C 232.342 209.050,233.200 208.868,234.052 208.570 C 238.333 207.071,245.356 206.733,247.600 207.918 C 250.004 209.187,250.667 210.616,250.667 214.525 L 250.667 217.333 247.611 217.333 C 234.097 217.333,226.849 223.630,229.174 233.352 C 231.042 241.159,242.046 243.101,250.152 237.053 C 251.797 235.826,251.889 235.869,252.182 238.000 L 252.402 239.600 255.401 239.675 L 258.400 239.751 258.407 238.875 C 258.494 227.950,258.325 210.589,258.123 209.688 C 256.739 203.512,250.891 200.673,241.508 201.621 M192.800 202.642 C 192.800 202.930,192.929 203.503,193.086 203.916 C 193.364 204.644,194.379 207.919,196.378 214.533 C 196.910 216.293,197.814 219.233,198.388 221.067 C 198.962 222.900,200.329 227.340,201.427 230.933 C 202.524 234.527,203.582 237.947,203.779 238.533 L 204.135 239.600 208.962 239.673 L 213.789 239.745 214.532 238.073 C 214.941 237.153,215.492 235.920,215.758 235.333 C 216.959 232.678,218.990 227.151,220.313 222.933 C 222.286 216.644,224.250 208.820,225.091 203.892 C 225.398 202.095,225.480 202.133,221.333 202.133 C 216.923 202.133,217.411 201.636,216.492 207.067 C 215.606 212.302,214.073 218.667,212.252 224.667 C 211.495 227.160,210.768 229.560,210.637 230.000 C 210.183 231.519,209.333 231.968,209.333 230.690 C 209.333 229.923,207.891 224.461,206.582 220.267 C 205.917 218.140,204.460 213.400,203.344 209.733 C 202.227 206.067,201.215 202.887,201.095 202.667 C 200.710 201.964,192.800 201.941,192.800 202.642 M260.183 202.306 C 259.838 202.651,259.974 204.853,260.333 204.734 C 260.517 204.673,260.686 204.273,260.709 203.845 C 260.733 203.417,260.793 202.902,260.843 202.700 C 260.943 202.296,260.474 202.015,260.183 202.306 M262.514 202.338 C 262.186 202.562,262.131 204.533,262.453 204.533 C 262.571 204.533,262.667 204.413,262.667 204.267 C 262.667 203.847,263.392 203.955,263.563 204.400 C 263.786 204.981,264.267 204.890,264.267 204.267 C 264.267 203.970,264.089 203.733,263.867 203.733 C 263.647 203.733,263.467 203.576,263.467 203.384 C 263.467 202.827,262.827 202.125,262.514 202.338 M264.542 203.000 C 264.550 203.591,265.096 204.533,265.429 204.533 C 265.523 204.533,265.600 204.053,265.600 203.467 C 265.600 202.578,265.511 202.400,265.067 202.400 C 264.689 202.400,264.536 202.575,264.542 203.000 M179.845 222.295 C 180.399 222.508,180.479 230.560,179.933 231.259 C 175.979 236.329,167.132 235.833,166.191 230.489 C 165.341 225.666,167.642 223.212,173.867 222.303 C 175.033 222.133,179.407 222.127,179.845 222.295 M250.606 226.806 L 250.679 231.346 249.006 232.427 C 242.311 236.757,236.527 235.207,236.535 229.086 C 236.541 224.197,240.020 222.117,248.000 222.231 L 250.533 222.267 250.606 226.806 " stroke="none" fill="#e6710c" fill-rule="evenodd"></path></g></svg>
