<svg id="svg" xmlns="http://www.w3.org/2000/svg" xmlns:xlink="http://www.w3.org/1999/xlink" width="80" height="85.69" viewBox="0, 0, 400,453.48837209302326"><g id="svgg"><path id="path0" d="M399.467 1.867 C 399.089 2.244,399.188 6.041,399.600 7.000 C 399.833 7.543,399.953 6.804,399.972 4.700 C 400.000 1.592,399.961 1.372,399.467 1.867 M0.000 9.967 C 0.000 11.708,0.165 13.193,0.366 13.267 C 0.568 13.340,0.793 14.555,0.866 15.967 C 0.949 17.563,1.189 18.597,1.500 18.700 C 2.105 18.902,2.204 13.407,1.634 11.200 C 1.436 10.430,1.159 9.125,1.018 8.300 C 0.579 5.714,0.000 6.661,0.000 9.967 M398.400 17.544 C 398.400 19.785,398.537 20.762,398.827 20.583 C 399.062 20.438,399.149 20.044,399.020 19.709 C 398.892 19.373,398.950 18.896,399.149 18.649 C 399.665 18.011,399.495 15.334,398.900 14.740 C 398.500 14.340,398.400 14.901,398.400 17.544 M2.006 27.300 C 2.014 30.340,2.630 31.703,2.868 29.205 C 3.075 27.039,2.815 24.800,2.356 24.800 C 2.160 24.800,2.003 25.925,2.006 27.300 M397.200 30.751 C 397.200 33.587,397.883 35.530,398.061 33.200 C 398.299 30.079,398.186 28.321,397.722 27.935 C 397.300 27.585,397.200 28.123,397.200 30.751 M3.119 38.900 C 2.670 40.243,3.208 44.135,3.763 43.567 C 3.948 43.377,4.101 41.138,4.041 39.500 C 3.999 38.376,3.419 37.999,3.119 38.900 M396.013 43.900 C 396.005 45.682,396.163 46.800,396.424 46.800 C 396.657 46.800,396.736 46.620,396.600 46.400 C 396.464 46.180,396.501 46.000,396.683 46.000 C 397.267 46.000,397.197 42.547,396.597 41.755 C 396.084 41.078,396.024 41.299,396.013 43.900 M4.305 51.700 C 3.970 52.629,4.261 55.621,4.732 56.092 C 5.089 56.449,5.200 55.925,5.200 53.880 C 5.200 51.454,4.771 50.409,4.305 51.700 M394.800 56.833 C 394.800 58.889,394.934 59.622,395.289 59.504 C 396.147 59.218,396.021 54.000,395.157 54.000 C 394.960 54.000,394.800 55.275,394.800 56.833 M5.380 66.373 C 5.392 68.098,5.598 69.358,5.919 69.679 C 6.343 70.103,6.416 69.624,6.319 67.031 C 6.169 63.025,5.352 62.453,5.380 66.373 M393.600 69.354 C 393.600 71.195,393.706 71.534,394.220 71.337 C 394.983 71.044,394.879 67.555,394.100 67.298 C 393.740 67.180,393.600 67.756,393.600 69.354 M6.632 77.500 C 6.213 78.820,6.493 82.379,7.052 82.843 C 7.508 83.222,7.600 82.754,7.600 80.049 C 7.600 77.032,7.153 75.856,6.632 77.500 M392.400 82.600 C 392.400 85.314,392.967 87.379,393.251 85.700 C 393.514 84.145,393.451 80.355,393.159 80.175 C 392.954 80.048,392.891 79.777,393.017 79.572 C 393.144 79.368,393.057 79.200,392.824 79.200 C 392.559 79.200,392.400 80.474,392.400 82.600 M217.300 87.528 C 216.775 87.602,216.400 87.936,216.399 88.328 C 216.300 158.970,216.478 259.838,216.702 260.062 C 216.870 260.230,219.435 259.911,222.403 259.354 C 225.372 258.797,228.790 258.188,230.000 258.000 C 232.489 257.613,242.370 255.828,245.400 255.217 C 246.500 254.995,250.010 254.370,253.200 253.827 C 256.390 253.285,260.620 252.551,262.600 252.197 C 264.580 251.843,267.280 251.375,268.600 251.158 C 269.920 250.941,273.250 250.339,276.000 249.821 C 278.750 249.303,282.800 248.572,285.000 248.196 C 287.200 247.821,290.120 247.267,291.489 246.965 C 295.319 246.121,295.358 246.166,295.065 251.165 C 294.929 253.494,294.633 259.720,294.409 265.000 C 293.510 286.183,293.501 286.233,290.336 287.019 C 288.333 287.517,280.287 289.648,270.200 292.352 C 267.780 293.001,263.280 294.194,260.200 295.003 C 257.120 295.813,253.340 296.813,251.800 297.226 C 245.802 298.836,239.603 300.487,235.200 301.650 C 232.670 302.317,228.620 303.401,226.200 304.057 C 223.780 304.714,221.080 305.424,220.200 305.635 C 219.320 305.846,218.105 306.217,217.500 306.458 L 216.400 306.897 216.400 330.049 C 216.400 350.447,216.472 353.200,217.005 353.200 C 217.338 353.200,218.913 352.829,220.505 352.375 C 222.097 351.921,225.380 351.032,227.800 350.400 C 233.410 348.934,240.792 347.011,245.400 345.814 C 247.380 345.300,251.520 344.206,254.600 343.383 C 257.680 342.560,260.830 341.742,261.600 341.565 C 263.178 341.203,266.245 340.400,269.800 339.417 C 272.803 338.588,290.110 334.067,292.000 333.619 C 292.770 333.436,295.830 332.650,298.800 331.872 C 301.770 331.094,306.360 329.894,309.000 329.204 C 325.582 324.875,324.392 325.489,324.413 321.256 C 324.421 319.795,324.602 316.710,324.815 314.400 C 325.029 312.090,325.380 307.770,325.595 304.800 C 326.221 296.161,327.152 284.179,327.585 279.200 C 327.805 276.670,328.260 271.000,328.596 266.600 C 328.933 262.200,329.393 256.530,329.620 254.000 C 330.011 249.634,330.322 245.413,331.196 232.600 C 331.406 229.520,331.767 225.020,331.998 222.600 C 332.229 220.180,332.590 215.770,332.800 212.800 C 333.010 209.830,333.368 204.990,333.594 202.045 C 334.148 194.840,335.314 195.405,323.200 197.006 C 320.670 197.340,314.100 198.152,308.600 198.809 C 294.259 200.522,289.031 201.155,285.400 201.621 C 283.640 201.847,278.600 202.480,274.200 203.027 C 254.566 205.472,255.561 205.382,255.165 204.757 C 254.587 203.845,254.700 135.460,255.280 134.880 C 255.647 134.513,265.460 134.399,296.980 134.394 C 319.651 134.391,338.432 134.240,338.716 134.061 C 339.045 133.852,339.361 132.152,339.590 129.367 C 339.786 126.965,340.139 122.930,340.373 120.400 C 340.607 117.870,340.986 113.640,341.215 111.000 C 341.445 108.360,341.985 102.299,342.415 97.531 C 343.221 88.616,343.184 87.602,342.057 87.598 C 314.291 87.492,217.932 87.438,217.300 87.528 M145.867 87.867 C 145.720 88.013,145.597 134.678,145.594 191.567 C 145.591 248.455,145.441 295.231,145.262 295.513 C 145.000 295.927,144.520 295.912,142.769 295.435 C 140.553 294.832,132.694 292.633,121.100 289.372 C 117.525 288.366,113.610 287.278,112.400 286.954 C 111.190 286.630,109.660 286.214,109.000 286.029 C 108.340 285.845,106.360 285.291,104.600 284.799 C 102.840 284.306,99.870 283.486,98.000 282.976 C 96.130 282.466,93.250 281.661,91.600 281.187 C 89.032 280.448,86.374 279.711,80.200 278.022 C 75.734 276.801,72.749 275.959,71.131 275.467 C 69.795 275.059,69.140 275.020,68.831 275.329 C 68.166 275.994,68.233 320.030,68.900 320.896 C 69.330 321.455,72.961 322.582,83.400 325.399 C 87.182 326.420,92.605 327.926,95.600 328.787 C 97.250 329.261,100.220 330.092,102.200 330.632 C 104.180 331.173,106.790 331.900,108.000 332.248 C 109.210 332.596,111.190 333.144,112.400 333.466 C 115.371 334.257,115.898 334.403,124.400 336.789 C 128.470 337.932,132.340 339.010,133.000 339.186 C 133.660 339.362,135.640 339.908,137.400 340.400 C 139.160 340.892,141.140 341.436,141.800 341.609 C 142.460 341.782,146.330 342.860,150.400 344.005 C 157.654 346.046,159.079 346.443,161.700 347.152 C 162.415 347.345,166.330 348.441,170.400 349.586 C 174.470 350.732,178.790 351.946,180.000 352.285 C 181.210 352.624,182.560 352.924,183.000 352.951 C 183.777 352.999,184.569 91.687,183.802 88.500 L 183.585 87.600 164.859 87.600 C 154.560 87.600,146.013 87.720,145.867 87.867 M7.675 92.950 C 7.586 94.955,7.694 95.551,8.181 95.737 C 8.703 95.938,8.800 95.539,8.800 93.187 C 8.800 89.438,7.841 89.236,7.675 92.950 M391.700 92.665 C 391.358 92.803,391.200 93.884,391.200 96.082 C 391.200 98.940,391.269 99.241,391.819 98.784 C 392.296 98.388,392.716 92.072,392.242 92.432 C 392.219 92.449,391.975 92.554,391.700 92.665 M8.893 105.680 C 8.906 108.409,9.079 109.200,9.660 109.200 C 10.208 109.200,9.898 103.497,9.340 103.312 C 9.026 103.208,8.884 103.956,8.893 105.680 M390.000 108.967 C 390.000 111.287,390.130 112.000,390.555 112.000 C 391.303 112.000,391.250 106.352,390.500 106.101 C 390.129 105.977,390.000 106.717,390.000 108.967 M10.049 118.174 C 9.989 119.659,10.145 120.422,10.582 120.785 C 11.128 121.238,11.200 121.016,11.200 118.892 C 11.200 115.678,10.176 115.040,10.049 118.174 M388.800 121.400 C 388.800 123.036,388.939 123.620,389.300 123.500 C 389.608 123.397,389.800 122.591,389.800 121.400 C 389.800 120.209,389.608 119.403,389.300 119.300 C 388.939 119.180,388.800 119.764,388.800 121.400 M11.200 131.090 C 11.200 132.924,11.400 134.107,11.798 134.624 C 12.341 135.329,12.387 135.090,12.298 132.032 C 12.171 127.681,11.200 126.848,11.200 131.090 M388.079 132.349 C 387.720 132.572,387.596 133.433,387.679 135.124 C 387.772 137.016,387.919 137.501,388.321 137.251 C 388.680 137.028,388.804 136.167,388.721 134.476 C 388.628 132.584,388.481 132.099,388.079 132.349 M12.667 141.867 C 12.073 142.461,12.374 148.000,13.000 148.000 C 13.483 148.000,13.600 147.378,13.600 144.800 C 13.600 141.860,13.376 141.157,12.667 141.867 M386.800 148.024 C 386.800 150.071,386.946 151.157,387.200 151.000 C 387.420 150.864,387.600 149.413,387.600 147.776 C 387.600 146.059,387.431 144.800,387.200 144.800 C 386.966 144.800,386.800 146.141,386.800 148.024 M13.685 158.534 C 13.851 163.161,14.800 163.302,14.800 158.700 C 14.800 155.937,14.690 155.333,14.185 155.333 C 13.673 155.333,13.589 155.871,13.685 158.534 M385.600 161.200 C 385.600 164.027,386.315 165.965,386.449 163.500 C 386.696 158.952,386.610 158.000,385.957 158.000 C 385.761 158.000,385.600 159.440,385.600 161.200 M14.800 171.000 C 14.800 172.663,14.949 173.555,15.200 173.400 C 15.420 173.264,15.600 172.184,15.600 171.000 C 15.600 169.816,15.420 168.736,15.200 168.600 C 14.949 168.445,14.800 169.337,14.800 171.000 M384.400 174.167 C 384.400 175.615,384.559 176.800,384.753 176.800 C 385.589 176.800,385.728 171.976,384.900 171.700 C 384.534 171.578,384.400 172.238,384.400 174.167 M15.956 181.476 C 15.681 183.506,15.831 185.694,16.272 186.059 C 16.700 186.415,16.800 186.037,16.800 184.073 C 16.800 182.141,16.141 180.114,15.956 181.476 M383.200 187.367 C 383.200 189.482,383.303 189.935,383.700 189.562 C 384.437 188.871,384.497 185.779,383.786 185.188 C 383.281 184.770,383.200 185.072,383.200 187.367 M17.349 194.306 C 16.778 194.678,16.907 198.758,17.523 199.819 C 17.887 200.447,17.978 199.955,17.988 197.300 C 17.995 195.485,17.955 194.003,17.900 194.006 C 17.845 194.009,17.597 194.144,17.349 194.306 M382.267 197.067 C 382.120 197.213,382.006 198.788,382.013 200.567 C 382.024 203.389,382.095 203.708,382.573 203.078 C 382.923 202.616,383.108 201.357,383.087 199.578 C 383.056 196.954,382.889 196.444,382.267 197.067 M18.208 209.767 C 18.325 215.012,19.200 215.453,19.200 210.267 C 19.200 207.775,19.067 206.933,18.673 206.933 C 18.280 206.933,18.162 207.657,18.208 209.767 M381.067 210.267 C 380.503 210.831,380.761 215.668,381.326 215.140 C 381.637 214.850,381.865 213.693,381.883 212.324 C 381.911 210.148,381.705 209.628,381.067 210.267 M19.464 221.100 C 19.083 221.723,19.447 226.407,19.913 226.873 C 20.296 227.256,20.400 226.657,20.400 224.080 C 20.400 221.204,20.061 220.124,19.464 221.100 M379.613 226.867 C 379.624 230.120,379.696 230.507,380.175 229.875 C 380.890 228.932,380.828 223.542,380.100 223.300 C 379.723 223.174,379.603 224.054,379.613 226.867 M20.583 236.100 C 20.708 238.754,20.719 238.800,21.200 238.800 C 21.422 238.800,21.600 237.733,21.600 236.400 C 21.600 234.614,21.457 234.000,21.042 234.000 C 20.623 234.000,20.509 234.523,20.583 236.100 M378.400 239.143 C 378.400 241.953,378.967 243.267,379.413 241.490 C 379.791 239.984,379.451 236.679,378.900 236.498 C 378.532 236.377,378.400 237.074,378.400 239.143 M21.705 249.145 C 21.723 250.836,21.932 252.021,22.267 252.334 C 22.708 252.745,22.800 252.317,22.800 249.859 C 22.800 247.674,22.651 246.828,22.238 246.670 C 21.787 246.497,21.681 246.990,21.705 249.145 M377.700 249.465 C 377.356 249.604,377.204 250.684,377.213 252.933 C 377.224 255.941,377.274 256.137,377.833 255.400 C 378.268 254.827,378.410 253.833,378.333 251.900 C 378.273 250.415,378.219 249.214,378.212 249.232 C 378.206 249.249,377.975 249.354,377.700 249.465 M22.800 261.718 C 22.800 263.562,22.977 264.449,23.419 264.816 C 23.969 265.272,24.025 265.005,23.919 262.397 C 23.761 258.506,22.800 257.923,22.800 261.718 M376.000 264.987 C 376.000 267.123,376.105 267.535,376.600 267.345 C 377.039 267.176,377.200 266.484,377.200 264.757 C 377.200 262.929,377.065 262.400,376.600 262.400 C 376.129 262.400,376.000 262.954,376.000 264.987 M24.000 275.167 C 24.000 278.128,24.266 279.330,24.842 278.974 C 25.508 278.562,25.282 272.400,24.600 272.400 C 24.124 272.400,24.000 272.974,24.000 275.167 M374.800 277.967 C 374.800 279.898,374.928 280.400,375.420 280.400 C 375.921 280.400,376.017 279.965,375.920 278.132 C 375.748 274.875,374.800 274.735,374.800 277.967 M25.700 285.658 C 25.143 286.218,25.064 290.133,25.585 291.400 C 26.135 292.738,26.452 291.287,26.319 288.040 C 26.224 285.731,26.100 285.255,25.700 285.658 M374.267 287.867 C 373.832 288.301,373.957 294.400,374.400 294.400 C 374.635 294.400,374.800 293.000,374.800 291.000 C 374.800 287.593,374.762 287.371,374.267 287.867 M26.437 301.800 C 26.523 305.047,27.033 305.853,27.260 303.100 C 27.454 300.744,27.225 298.800,26.754 298.800 C 26.521 298.800,26.391 300.035,26.437 301.800 M372.800 304.527 C 372.800 307.065,373.306 309.098,373.535 307.482 C 373.897 304.937,373.803 302.334,373.336 301.947 C 372.896 301.582,372.800 302.044,372.800 304.527 M27.496 312.100 C 27.171 312.956,27.516 316.476,27.969 316.929 C 28.277 317.237,28.400 316.539,28.400 314.480 C 28.400 311.873,27.991 310.796,27.496 312.100 M372.100 314.665 C 371.758 314.803,371.600 315.888,371.600 318.100 C 371.600 320.688,372.011 322.121,372.250 320.367 C 372.278 320.165,372.347 319.955,372.404 319.900 C 372.497 319.810,372.731 314.355,372.638 314.432 C 372.617 314.449,372.375 314.554,372.100 314.665 M28.707 324.900 C 28.390 325.786,28.725 329.285,29.169 329.729 C 29.477 330.037,29.600 329.337,29.600 327.280 C 29.600 324.687,29.182 323.572,28.707 324.900 M370.400 330.354 C 370.400 332.390,370.500 332.737,371.028 332.534 C 371.806 332.235,371.694 328.365,370.900 328.100 C 370.537 327.979,370.400 328.595,370.400 330.354 M29.804 338.100 C 29.469 339.523,29.812 343.172,30.330 343.690 C 30.690 344.050,30.800 343.347,30.800 340.680 C 30.800 337.383,30.285 336.051,29.804 338.100 M369.700 340.265 C 369.362 340.401,369.200 341.444,369.200 343.482 C 369.200 346.162,369.269 346.441,369.820 345.983 C 370.293 345.591,370.414 344.818,370.329 342.734 C 370.267 341.230,370.213 340.014,370.208 340.032 C 370.204 340.049,369.975 340.154,369.700 340.265 M31.347 351.000 C 30.856 351.868,30.823 356.556,31.304 357.038 C 31.893 357.627,32.032 356.838,31.917 353.550 C 31.821 350.813,31.717 350.347,31.347 351.000 M368.000 356.600 C 368.000 358.875,368.129 359.624,368.500 359.500 C 368.835 359.389,369.000 358.432,369.000 356.603 C 369.000 354.776,368.835 353.817,368.500 353.703 C 368.129 353.577,368.000 354.323,368.000 356.600 M32.144 366.933 C 32.225 370.993,33.200 371.148,33.200 367.100 C 33.200 364.835,33.069 364.133,32.644 364.133 C 32.218 364.133,32.102 364.784,32.144 366.933 M367.056 367.078 C 366.501 367.632,366.773 373.585,367.342 373.367 C 367.720 373.222,367.908 372.266,367.962 370.215 C 368.033 367.522,367.715 366.419,367.056 367.078 M33.353 379.250 C 33.383 380.572,33.591 381.396,33.922 381.507 C 34.318 381.639,34.415 381.169,34.322 379.572 C 34.158 376.745,33.289 376.457,33.353 379.250 M365.600 382.500 C 365.600 384.547,365.725 385.067,366.217 385.067 C 366.718 385.067,366.813 384.614,366.717 382.665 C 366.549 379.212,365.600 379.072,365.600 382.500 M34.405 391.700 C 34.412 394.186,34.753 395.676,35.245 395.372 C 35.906 394.964,35.678 389.600,35.000 389.600 C 34.542 389.600,34.401 390.098,34.405 391.700 M364.400 395.467 C 364.400 397.452,364.530 398.000,365.000 398.000 C 365.470 398.000,365.600 397.452,365.600 395.467 C 365.600 393.481,365.470 392.933,365.000 392.933 C 364.530 392.933,364.400 393.481,364.400 395.467 M36.100 403.065 C 35.395 403.350,35.471 406.195,36.200 406.800 C 36.721 407.233,36.800 407.003,36.800 405.049 C 36.800 403.812,36.755 402.814,36.700 402.832 C 36.645 402.849,36.375 402.954,36.100 403.065 M363.200 406.400 C 363.200 406.844,363.467 407.200,363.800 407.200 C 364.133 407.200,364.400 406.844,364.400 406.400 C 364.400 405.956,364.133 405.600,363.800 405.600 C 363.467 405.600,363.200 405.956,363.200 406.400 M38.000 407.827 C 38.000 408.271,38.311 408.416,39.069 408.327 C 40.626 408.142,40.764 407.200,39.233 407.200 C 38.380 407.200,38.000 407.393,38.000 407.827 M360.000 407.800 C 360.000 408.166,360.373 408.400,360.957 408.400 C 361.484 408.400,362.018 408.130,362.145 407.800 C 362.317 407.350,362.079 407.200,361.187 407.200 C 360.399 407.200,360.000 407.401,360.000 407.800 M42.498 408.900 C 42.751 409.669,44.400 409.780,44.400 409.028 C 44.400 408.619,44.039 408.400,43.367 408.400 C 42.719 408.400,42.395 408.587,42.498 408.900 M356.000 409.000 C 356.000 409.330,356.338 409.600,356.751 409.600 C 357.164 409.600,357.726 409.330,358.000 409.000 C 358.425 408.488,358.314 408.400,357.249 408.400 C 356.405 408.400,356.000 408.595,356.000 409.000 M46.400 410.200 C 46.674 410.530,47.236 410.800,47.649 410.800 C 48.062 410.800,48.400 410.530,48.400 410.200 C 48.400 409.795,47.995 409.600,47.151 409.600 C 46.086 409.600,45.975 409.688,46.400 410.200 M351.600 410.138 C 351.600 410.812,353.680 410.761,353.906 410.081 C 354.008 409.776,353.616 409.600,352.833 409.600 C 352.067 409.600,351.600 409.804,351.600 410.138 M50.800 411.400 C 50.800 411.773,51.178 412.000,51.800 412.000 C 52.422 412.000,52.800 411.773,52.800 411.400 C 52.800 411.027,52.422 410.800,51.800 410.800 C 51.178 410.800,50.800 411.027,50.800 411.400 M347.700 411.300 C 347.952 412.057,349.200 412.164,349.200 411.429 C 349.200 411.058,348.858 410.800,348.367 410.800 C 347.878 410.800,347.602 411.007,347.700 411.300 M55.478 412.256 C 55.337 412.396,55.313 412.659,55.424 412.838 C 55.673 413.242,56.800 412.848,56.800 412.357 C 56.800 411.947,55.859 411.875,55.478 412.256 M343.600 412.400 C 343.600 412.620,343.949 412.800,344.376 412.800 C 344.803 412.800,345.264 412.620,345.400 412.400 C 345.540 412.173,345.204 412.000,344.624 412.000 C 344.061 412.000,343.600 412.180,343.600 412.400 M59.180 413.776 C 59.443 414.093,59.915 414.254,60.229 414.133 C 61.169 413.773,60.875 413.200,59.751 413.200 C 58.883 413.200,58.785 413.300,59.180 413.776 M339.600 413.765 C 339.600 414.429,340.885 414.344,341.112 413.665 C 341.197 413.409,340.892 413.200,340.433 413.200 C 339.975 413.200,339.600 413.454,339.600 413.765 M63.200 415.000 C 63.474 415.330,63.946 415.600,64.249 415.600 C 64.552 415.600,64.800 415.330,64.800 415.000 C 64.800 414.619,64.417 414.400,63.751 414.400 C 62.864 414.400,62.779 414.493,63.200 415.000 M335.300 414.900 C 335.449 415.346,335.847 415.419,337.200 415.250 C 338.185 415.127,337.472 414.400,336.367 414.400 C 335.558 414.400,335.191 414.572,335.300 414.900 M67.200 416.000 C 67.200 416.220,67.650 416.400,68.200 416.400 C 68.750 416.400,69.200 416.220,69.200 416.000 C 69.200 415.780,68.750 415.600,68.200 415.600 C 67.650 415.600,67.200 415.780,67.200 416.000 M331.200 416.000 C 331.983 416.506,332.800 416.506,332.800 416.000 C 332.800 415.780,332.305 415.603,331.700 415.606 C 330.843 415.611,330.732 415.698,331.200 416.000 M71.700 416.900 C 71.792 417.175,72.107 417.400,72.400 417.400 C 72.693 417.400,73.008 417.175,73.100 416.900 C 73.199 416.603,72.916 416.400,72.400 416.400 C 71.884 416.400,71.601 416.603,71.700 416.900 M326.800 417.000 C 326.800 417.333,327.156 417.600,327.600 417.600 C 328.044 417.600,328.400 417.333,328.400 417.000 C 328.400 416.667,328.044 416.400,327.600 416.400 C 327.156 416.400,326.800 416.667,326.800 417.000 M75.200 418.200 C 75.200 418.846,75.566 418.941,76.567 418.557 C 77.541 418.184,77.317 417.600,76.200 417.600 C 75.578 417.600,75.200 417.827,75.200 418.200 M322.933 418.200 C 322.933 418.562,323.304 418.800,323.867 418.800 C 324.430 418.800,324.800 418.562,324.800 418.200 C 324.800 417.838,324.430 417.600,323.867 417.600 C 323.304 417.600,322.933 417.838,322.933 418.200 M79.600 419.400 C 79.600 419.733,79.956 420.000,80.400 420.000 C 80.844 420.000,81.200 419.733,81.200 419.400 C 81.200 419.067,80.844 418.800,80.400 418.800 C 79.956 418.800,79.600 419.067,79.600 419.400 M318.800 419.429 C 318.800 419.802,319.072 420.006,319.467 419.929 C 320.470 419.735,320.608 418.800,319.633 418.800 C 319.142 418.800,318.800 419.058,318.800 419.429 M83.298 420.500 C 83.552 421.276,85.600 421.389,85.600 420.627 C 85.600 420.193,85.220 420.000,84.367 420.000 C 83.559 420.000,83.190 420.173,83.298 420.500 M314.400 420.600 C 314.400 421.000,314.800 421.200,315.600 421.200 C 316.400 421.200,316.800 421.000,316.800 420.600 C 316.800 420.200,316.400 420.000,315.600 420.000 C 314.800 420.000,314.400 420.200,314.400 420.600 M88.100 421.700 C 88.192 421.975,88.597 422.200,89.000 422.200 C 89.403 422.200,89.808 421.975,89.900 421.700 C 90.006 421.383,89.676 421.200,89.000 421.200 C 88.324 421.200,87.994 421.383,88.100 421.700 M310.255 421.800 C 310.507 422.455,310.806 422.526,311.765 422.158 C 312.648 421.819,312.146 421.200,310.989 421.200 C 310.297 421.200,310.090 421.369,310.255 421.800 M92.184 423.018 C 93.040 423.666,93.662 423.614,93.908 422.875 C 94.010 422.570,93.589 422.405,92.733 422.413 C 91.469 422.425,91.440 422.456,92.184 423.018 M306.400 423.033 C 306.400 423.382,306.614 423.595,306.875 423.508 C 307.617 423.261,307.740 422.400,307.033 422.400 C 306.685 422.400,306.400 422.685,306.400 423.033 M96.492 424.075 C 96.739 424.817,97.600 424.940,97.600 424.233 C 97.600 423.885,97.315 423.600,96.967 423.600 C 96.618 423.600,96.405 423.814,96.492 424.075 M302.400 424.200 C 302.400 424.530,302.651 424.800,302.957 424.800 C 303.264 424.800,303.618 424.530,303.745 424.200 C 303.901 423.792,303.723 423.600,303.187 423.600 C 302.754 423.600,302.400 423.870,302.400 424.200 M99.600 425.200 C 99.600 425.420,99.735 425.613,99.900 425.630 C 100.065 425.646,100.605 425.735,101.100 425.827 C 101.707 425.940,102.000 425.800,102.000 425.397 C 102.000 425.000,101.598 424.800,100.800 424.800 C 100.140 424.800,99.600 424.980,99.600 425.200 M298.000 425.397 C 298.000 425.800,298.293 425.940,298.900 425.827 C 299.395 425.735,299.935 425.646,300.100 425.630 C 301.011 425.539,300.209 424.800,299.200 424.800 C 298.402 424.800,298.000 425.000,298.000 425.397 M104.366 426.559 C 104.621 426.866,105.183 427.025,105.615 426.912 C 106.839 426.592,106.538 426.000,105.151 426.000 C 104.127 426.000,103.986 426.101,104.366 426.559 M294.043 426.615 C 294.391 426.962,294.949 427.118,295.329 426.972 C 296.435 426.548,296.089 426.000,294.714 426.000 C 293.558 426.000,293.490 426.062,294.043 426.615 M108.000 427.600 C 108.000 427.820,108.255 428.000,108.567 428.000 C 108.879 428.000,109.419 428.109,109.767 428.243 C 110.182 428.402,110.400 428.265,110.400 427.843 C 110.400 427.395,110.036 427.200,109.200 427.200 C 108.540 427.200,108.000 427.380,108.000 427.600 M289.600 427.600 C 289.600 427.820,290.039 428.000,290.576 428.000 C 291.113 428.000,291.664 427.820,291.800 427.600 C 291.944 427.367,291.537 427.200,290.824 427.200 C 290.151 427.200,289.600 427.380,289.600 427.600 M112.600 428.800 C 112.736 429.020,113.287 429.200,113.824 429.200 C 114.361 429.200,114.800 429.020,114.800 428.800 C 114.800 428.580,114.249 428.400,113.576 428.400 C 112.863 428.400,112.456 428.567,112.600 428.800 M285.200 428.733 C 285.200 428.917,285.740 429.067,286.400 429.067 C 287.060 429.067,287.600 428.917,287.600 428.733 C 287.600 428.550,287.060 428.400,286.400 428.400 C 285.740 428.400,285.200 428.550,285.200 428.733 M117.055 429.800 C 117.182 430.130,117.536 430.400,117.843 430.400 C 118.149 430.400,118.400 430.130,118.400 429.800 C 118.400 429.470,118.046 429.200,117.613 429.200 C 117.077 429.200,116.899 429.392,117.055 429.800 M281.600 429.800 C 281.600 430.133,281.956 430.400,282.400 430.400 C 282.844 430.400,283.200 430.133,283.200 429.800 C 283.200 429.467,282.844 429.200,282.400 429.200 C 281.956 429.200,281.600 429.467,281.600 429.800 M120.400 431.028 C 120.400 431.445,120.692 431.613,121.269 431.528 C 122.549 431.339,122.686 430.400,121.433 430.400 C 120.761 430.400,120.400 430.619,120.400 431.028 M277.200 431.006 C 277.200 431.434,277.554 431.586,278.400 431.521 C 279.065 431.471,279.600 431.200,279.600 430.915 C 279.600 430.609,279.112 430.400,278.400 430.400 C 277.594 430.400,277.200 430.599,277.200 431.006 M124.400 431.957 C 124.400 432.354,125.364 432.800,126.220 432.800 C 126.549 432.800,126.681 432.556,126.545 432.200 C 126.301 431.564,124.400 431.349,124.400 431.957 M273.200 432.200 C 273.200 432.533,273.556 432.800,274.000 432.800 C 274.444 432.800,274.800 432.533,274.800 432.200 C 274.800 431.867,274.444 431.600,274.000 431.600 C 273.556 431.600,273.200 431.867,273.200 432.200 M128.655 433.400 C 128.782 433.730,129.316 434.000,129.843 434.000 C 130.427 434.000,130.800 433.766,130.800 433.400 C 130.800 433.001,130.401 432.800,129.613 432.800 C 128.721 432.800,128.483 432.950,128.655 433.400 M268.800 433.406 C 268.800 434.164,271.082 434.084,271.377 433.316 C 271.515 432.956,271.156 432.800,270.187 432.800 C 269.214 432.800,268.800 432.981,268.800 433.406 M133.200 434.600 C 133.200 434.933,133.556 435.200,134.000 435.200 C 134.444 435.200,134.800 434.933,134.800 434.600 C 134.800 434.267,134.444 434.000,134.000 434.000 C 133.556 434.000,133.200 434.267,133.200 434.600 M264.498 434.500 C 264.752 435.276,266.800 435.389,266.800 434.627 C 266.800 434.193,266.420 434.000,265.567 434.000 C 264.759 434.000,264.390 434.173,264.498 434.500 M137.021 435.566 C 136.897 435.767,137.021 436.008,137.298 436.101 C 137.988 436.333,139.200 435.984,139.200 435.553 C 139.200 435.086,137.311 435.097,137.021 435.566 M260.800 435.829 C 260.800 436.202,261.072 436.406,261.467 436.329 C 262.470 436.135,262.608 435.200,261.633 435.200 C 261.142 435.200,260.800 435.458,260.800 435.829 M141.400 436.800 C 141.264 437.020,141.239 437.200,141.344 437.200 C 141.449 437.200,141.819 437.309,142.167 437.443 C 142.582 437.602,142.800 437.465,142.800 437.043 C 142.800 436.337,141.794 436.163,141.400 436.800 M256.900 436.900 C 256.992 437.175,257.397 437.400,257.800 437.400 C 258.203 437.400,258.608 437.175,258.700 436.900 C 258.806 436.583,258.476 436.400,257.800 436.400 C 257.124 436.400,256.794 436.583,256.900 436.900 M144.899 438.096 C 145.115 438.744,146.882 438.747,147.099 438.100 C 147.210 437.770,146.836 437.600,146.000 437.600 C 145.170 437.600,144.790 437.771,144.899 438.096 M252.400 438.200 C 252.400 438.530,252.648 438.800,252.951 438.800 C 253.254 438.800,253.726 438.530,254.000 438.200 C 254.421 437.693,254.336 437.600,253.449 437.600 C 252.783 437.600,252.400 437.819,252.400 438.200 M149.688 439.265 C 149.915 439.944,151.200 440.029,151.200 439.365 C 151.200 439.054,150.825 438.800,150.367 438.800 C 149.908 438.800,149.603 439.009,149.688 439.265 M248.100 439.300 C 248.249 439.746,248.647 439.819,250.000 439.650 C 250.985 439.527,250.272 438.800,249.167 438.800 C 248.358 438.800,247.991 438.972,248.100 439.300 M153.800 440.400 C 153.936 440.620,154.397 440.800,154.824 440.800 C 155.251 440.800,155.600 440.620,155.600 440.400 C 155.600 440.180,155.139 440.000,154.576 440.000 C 153.996 440.000,153.660 440.173,153.800 440.400 M244.000 440.400 C 244.000 440.620,244.349 440.800,244.776 440.800 C 245.203 440.800,245.664 440.620,245.800 440.400 C 245.940 440.173,245.604 440.000,245.024 440.000 C 244.461 440.000,244.000 440.180,244.000 440.400 M157.600 441.400 C 157.600 441.733,157.956 442.000,158.400 442.000 C 158.844 442.000,159.200 441.733,159.200 441.400 C 159.200 441.067,158.844 440.800,158.400 440.800 C 157.956 440.800,157.600 441.067,157.600 441.400 M240.000 441.400 C 240.000 441.730,240.161 442.000,240.357 442.000 C 240.554 442.000,240.818 441.730,240.945 441.400 C 241.085 441.035,240.945 440.800,240.587 440.800 C 240.264 440.800,240.000 441.070,240.000 441.400 M161.478 442.256 C 161.024 442.709,161.620 443.200,162.624 443.200 C 163.225 443.200,163.600 442.969,163.600 442.600 C 163.600 442.001,161.993 441.741,161.478 442.256 M236.000 442.600 C 236.000 442.933,236.356 443.200,236.800 443.200 C 237.244 443.200,237.600 442.933,237.600 442.600 C 237.600 442.267,237.244 442.000,236.800 442.000 C 236.356 442.000,236.000 442.267,236.000 442.600 M165.878 443.456 C 165.424 443.909,166.020 444.400,167.024 444.400 C 167.625 444.400,168.000 444.169,168.000 443.800 C 168.000 443.201,166.393 442.941,165.878 443.456 M232.000 443.750 C 232.000 444.066,232.415 444.300,232.976 444.300 C 233.513 444.300,234.048 444.053,234.164 443.750 C 234.314 443.359,234.031 443.200,233.187 443.200 C 232.447 443.200,232.000 443.407,232.000 443.750 M170.000 445.000 C 170.274 445.330,170.836 445.600,171.249 445.600 C 171.662 445.600,172.000 445.330,172.000 445.000 C 172.000 444.595,171.595 444.400,170.751 444.400 C 169.686 444.400,169.575 444.488,170.000 445.000 M227.600 445.028 C 227.600 445.445,227.892 445.613,228.469 445.528 C 229.749 445.339,229.886 444.400,228.633 444.400 C 227.961 444.400,227.600 444.619,227.600 445.028 M174.000 445.957 C 174.000 446.463,175.088 446.818,175.800 446.545 C 176.817 446.155,176.464 445.600,175.200 445.600 C 174.540 445.600,174.000 445.761,174.000 445.957 M223.600 446.200 C 223.600 446.530,223.870 446.800,224.200 446.800 C 224.530 446.800,224.800 446.530,224.800 446.200 C 224.800 445.870,224.530 445.600,224.200 445.600 C 223.870 445.600,223.600 445.870,223.600 446.200 M178.800 447.400 C 178.800 447.730,179.070 448.000,179.400 448.000 C 179.730 448.000,180.000 447.730,180.000 447.400 C 180.000 447.070,179.730 446.800,179.400 446.800 C 179.070 446.800,178.800 447.070,178.800 447.400 M219.200 447.387 C 219.200 447.841,219.494 447.988,220.210 447.892 C 221.519 447.717,221.520 447.037,220.212 446.873 C 219.498 446.784,219.200 446.935,219.200 447.387 M182.263 448.621 C 182.539 449.338,184.056 449.248,184.302 448.500 C 184.410 448.173,184.044 448.000,183.246 448.000 C 182.307 448.000,182.080 448.143,182.263 448.621 M215.200 448.600 C 215.200 448.933,215.556 449.200,216.000 449.200 C 216.444 449.200,216.800 448.933,216.800 448.600 C 216.800 448.267,216.444 448.000,216.000 448.000 C 215.556 448.000,215.200 448.267,215.200 448.600 M186.900 449.700 C 186.992 449.975,187.307 450.200,187.600 450.200 C 187.893 450.200,188.208 449.975,188.300 449.700 C 188.399 449.403,188.116 449.200,187.600 449.200 C 187.084 449.200,186.801 449.403,186.900 449.700 M211.283 449.855 C 211.643 450.215,212.222 450.400,212.569 450.267 C 213.656 449.850,213.258 449.200,211.914 449.200 C 210.724 449.200,210.677 449.248,211.283 449.855 M190.400 450.773 C 190.400 451.259,191.876 451.724,192.396 451.402 C 193.188 450.913,192.781 450.400,191.600 450.400 C 190.940 450.400,190.400 450.568,190.400 450.773 M207.000 450.800 C 206.864 451.020,206.808 451.214,206.876 451.231 C 207.946 451.495,208.381 451.426,208.560 450.961 C 208.810 450.310,207.393 450.164,207.000 450.800 M195.196 452.196 C 195.696 452.798,196.400 452.669,196.400 451.976 C 196.400 451.769,196.018 451.600,195.551 451.600 C 194.845 451.600,194.785 451.700,195.196 452.196 M202.800 452.177 C 202.800 452.818,204.256 452.704,204.951 452.009 C 205.230 451.730,204.953 451.600,204.080 451.600 C 203.232 451.600,202.800 451.795,202.800 452.177 " stroke="none" fill="#f5f5f5" fill-rule="evenodd"></path><path id="path1" d="M398.806 3.100 C 398.809 4.805,398.956 6.427,399.132 6.704 C 399.308 6.980,399.372 6.112,399.276 4.774 C 399.167 3.274,399.272 2.168,399.550 1.890 C 400.201 1.239,400.103 0.000,399.400 0.000 C 398.918 0.000,398.801 0.608,398.806 3.100 M0.000 4.967 C 0.000 5.938,0.181 6.794,0.403 6.868 C 0.624 6.941,1.003 8.125,1.245 9.498 C 1.747 12.350,2.559 12.491,2.204 9.665 C 1.597 4.835,0.000 1.431,0.000 4.967 M398.217 10.699 C 398.098 11.011,398.036 13.366,398.080 15.933 C 398.144 19.614,398.190 19.949,398.297 17.519 C 398.394 15.309,398.570 14.490,398.919 14.624 C 399.265 14.757,399.404 14.142,399.402 12.472 C 399.400 10.226,398.764 9.275,398.217 10.699 M2.000 22.767 C 2.000 23.885,2.169 24.800,2.375 24.800 C 2.581 24.800,2.826 25.385,2.920 26.100 C 3.014 26.815,3.070 25.974,3.045 24.232 C 3.015 22.087,2.839 21.011,2.500 20.899 C 2.144 20.781,2.000 21.318,2.000 22.767 M397.035 23.767 C 396.912 24.225,396.845 26.760,396.887 29.400 C 396.949 33.326,396.987 33.603,397.097 30.919 C 397.194 28.558,397.368 27.689,397.716 27.823 C 398.062 27.956,398.206 27.286,398.221 25.471 C 398.241 22.926,397.533 21.909,397.035 23.767 M2.901 29.400 C 2.905 30.280,2.987 30.593,3.083 30.095 C 3.179 29.598,3.175 28.878,3.075 28.495 C 2.975 28.113,2.896 28.520,2.901 29.400 M2.961 36.169 C 2.988 37.929,3.143 38.643,3.470 38.517 C 3.743 38.413,4.012 38.813,4.110 39.469 C 4.204 40.091,4.304 39.250,4.334 37.600 C 4.387 34.617,4.201 33.873,3.361 33.720 C 3.076 33.669,2.935 34.532,2.961 36.169 M200.937 36.200 C 199.974 36.911,200.351 419.341,201.316 419.527 C 201.709 419.603,202.969 419.390,204.116 419.055 C 206.141 418.463,209.118 417.616,212.800 416.585 C 213.790 416.308,215.770 415.771,217.200 415.393 C 218.630 415.014,220.610 414.478,221.600 414.201 C 222.590 413.925,224.120 413.505,225.000 413.269 C 227.094 412.706,232.225 411.295,234.000 410.792 C 235.904 410.253,243.652 408.134,246.600 407.346 C 247.920 406.993,249.810 406.472,250.800 406.189 C 255.384 404.874,264.562 402.344,268.000 401.446 C 270.090 400.900,273.420 399.992,275.400 399.428 C 277.380 398.864,279.630 398.225,280.400 398.007 C 282.170 397.507,287.359 396.079,289.200 395.586 C 290.916 395.126,298.339 393.094,304.000 391.535 C 306.310 390.899,309.100 390.131,310.200 389.829 C 311.300 389.527,313.280 388.984,314.600 388.621 C 315.920 388.259,317.630 387.795,318.400 387.592 C 319.170 387.388,320.790 386.943,322.000 386.604 C 323.210 386.264,325.820 385.532,327.800 384.978 C 332.873 383.556,332.264 385.155,333.584 369.800 C 334.015 364.787,334.969 354.296,335.585 347.800 C 335.815 345.380,336.271 340.250,336.598 336.400 C 336.925 332.550,337.388 327.330,337.625 324.800 C 337.863 322.270,338.207 318.310,338.390 316.000 C 338.573 313.690,338.924 309.640,339.169 307.000 C 339.415 304.360,339.887 299.140,340.219 295.400 C 340.550 291.660,340.992 286.800,341.199 284.600 C 341.407 282.400,341.680 279.250,341.806 277.600 C 341.933 275.950,342.208 272.980,342.419 271.000 C 342.630 269.020,342.978 265.150,343.193 262.400 C 343.407 259.650,343.863 254.340,344.206 250.600 C 344.889 243.134,345.761 233.243,346.391 225.800 C 346.615 223.160,346.972 219.200,347.184 217.000 C 347.595 212.740,348.307 204.702,349.593 189.800 C 350.029 184.740,350.566 178.800,350.786 176.600 C 351.006 174.400,351.461 169.360,351.797 165.400 C 352.133 161.440,352.594 156.400,352.820 154.200 C 353.047 152.000,353.395 148.130,353.595 145.600 C 354.401 135.401,355.204 126.123,355.396 124.800 C 355.508 124.030,355.779 121.150,355.998 118.400 C 356.218 115.650,356.659 110.520,356.978 107.000 C 357.298 103.480,357.751 98.350,357.985 95.600 C 358.219 92.850,358.589 88.890,358.806 86.800 C 359.024 84.710,359.476 79.670,359.810 75.600 C 360.486 67.374,360.943 62.205,363.013 39.346 C 363.173 37.584,363.119 36.397,362.871 36.244 C 362.160 35.805,201.532 35.761,200.937 36.200 M395.845 37.328 C 395.716 37.807,395.640 40.000,395.675 42.200 C 395.733 45.874,395.757 45.988,395.969 43.600 C 396.162 41.426,396.274 41.125,396.652 41.764 C 397.016 42.380,397.100 41.976,397.087 39.682 C 397.070 36.827,396.347 35.456,395.845 37.328 M4.093 42.000 C 4.093 42.770,4.175 43.085,4.276 42.700 C 4.376 42.315,4.376 41.685,4.276 41.300 C 4.175 40.915,4.093 41.230,4.093 42.000 M4.131 48.727 C 4.176 50.333,4.367 51.199,4.676 51.200 C 4.938 51.200,5.222 51.875,5.309 52.700 C 5.395 53.525,5.483 52.850,5.505 51.200 C 5.536 48.827,4.966 45.321,4.822 47.000 C 4.803 47.220,4.625 47.142,4.425 46.827 C 4.190 46.455,4.087 47.119,4.131 48.727 M394.811 50.971 C 394.585 51.565,394.432 53.345,394.472 54.926 C 394.528 57.143,394.578 57.366,394.694 55.900 C 394.844 54.003,395.381 53.375,395.721 54.700 C 395.819 55.085,395.874 54.286,395.842 52.926 C 395.776 50.100,395.408 49.402,394.811 50.971 M5.256 61.321 C 5.220 62.898,5.368 63.579,5.781 63.737 C 6.153 63.880,6.409 64.710,6.504 66.079 C 6.593 67.351,6.666 66.759,6.686 64.600 C 6.714 61.620,6.188 57.586,6.034 59.600 C 5.996 60.086,5.923 60.098,5.647 59.663 C 5.434 59.326,5.288 59.943,5.256 61.321 M393.395 65.315 C 393.245 66.918,393.205 68.673,393.307 69.215 C 393.437 69.910,393.507 69.746,393.546 68.657 C 393.589 67.439,393.731 67.165,394.221 67.353 C 394.750 67.556,394.825 67.206,394.727 64.996 C 394.565 61.363,393.747 61.559,393.395 65.315 M6.465 74.807 C 6.480 76.453,6.577 77.575,6.680 77.300 C 7.125 76.110,7.572 76.984,7.704 79.300 C 7.797 80.940,7.859 80.424,7.883 77.800 C 7.913 74.528,7.399 70.248,7.234 72.400 C 7.193 72.929,7.143 72.930,6.813 72.407 C 6.561 72.009,6.447 72.798,6.465 74.807 M392.249 78.133 C 392.111 79.452,392.089 80.622,392.199 80.733 C 392.310 80.843,392.400 80.543,392.400 80.067 C 392.400 79.590,392.591 79.200,392.824 79.200 C 393.057 79.200,393.144 79.368,393.017 79.572 C 392.891 79.777,392.970 80.058,393.193 80.196 C 393.451 80.355,393.600 79.585,393.600 78.090 C 393.600 74.766,392.598 74.797,392.249 78.133 M8.083 86.274 C 7.381 87.542,7.448 90.400,8.180 90.400 C 8.603 90.400,8.799 91.024,8.904 92.700 C 9.000 94.222,9.058 93.782,9.077 91.400 C 9.114 86.732,8.781 85.013,8.083 86.274 M145.862 87.500 C 145.760 87.665,154.151 87.751,164.510 87.692 C 179.389 87.607,183.411 87.691,183.665 88.092 C 184.420 89.281,184.056 352.727,183.300 353.168 C 182.915 353.392,182.789 353.581,183.020 353.588 C 183.251 353.595,183.656 353.384,183.920 353.120 C 184.619 352.421,184.619 88.379,183.920 87.680 C 183.376 87.136,146.195 86.961,145.862 87.500 M342.057 87.598 C 343.184 87.602,343.221 88.616,342.415 97.531 C 341.985 102.299,341.445 108.360,341.215 111.000 C 340.986 113.640,340.607 117.870,340.373 120.400 C 340.139 122.930,339.786 126.965,339.590 129.367 C 339.361 132.152,339.045 133.852,338.716 134.061 C 338.432 134.240,319.651 134.391,296.980 134.394 C 265.460 134.399,255.647 134.513,255.280 134.880 C 254.700 135.460,254.587 203.845,255.165 204.757 C 255.561 205.382,254.566 205.472,274.200 203.027 C 278.600 202.480,283.640 201.847,285.400 201.621 C 289.031 201.155,294.259 200.522,308.600 198.809 C 314.100 198.152,320.670 197.340,323.200 197.006 C 335.314 195.405,334.148 194.840,333.594 202.045 C 333.368 204.990,333.010 209.830,332.800 212.800 C 332.590 215.770,332.229 220.180,331.998 222.600 C 331.767 225.020,331.406 229.520,331.196 232.600 C 330.322 245.413,330.011 249.634,329.620 254.000 C 329.393 256.530,328.933 262.200,328.596 266.600 C 328.260 271.000,327.805 276.670,327.585 279.200 C 327.152 284.179,326.221 296.161,325.595 304.800 C 325.380 307.770,325.029 312.090,324.815 314.400 C 324.602 316.710,324.421 319.795,324.413 321.256 C 324.395 324.930,324.014 325.278,318.400 326.747 C 315.870 327.409,311.640 328.515,309.000 329.204 C 306.360 329.894,301.770 331.094,298.800 331.872 C 295.830 332.650,292.770 333.436,292.000 333.619 C 290.110 334.067,272.803 338.588,269.800 339.417 C 266.245 340.400,263.178 341.203,261.600 341.565 C 260.830 341.742,257.680 342.560,254.600 343.383 C 251.520 344.206,247.380 345.300,245.400 345.814 C 240.792 347.011,233.410 348.934,227.800 350.400 C 225.380 351.032,222.097 351.921,220.505 352.375 C 218.913 352.829,217.338 353.200,217.005 353.200 C 216.472 353.200,216.400 350.447,216.400 330.049 L 216.400 306.897 217.500 306.458 C 218.105 306.217,219.320 305.846,220.200 305.635 C 221.080 305.424,223.780 304.714,226.200 304.057 C 228.620 303.401,232.670 302.317,235.200 301.650 C 239.603 300.487,245.802 298.836,251.800 297.226 C 253.340 296.813,257.120 295.813,260.200 295.003 C 263.280 294.194,267.780 293.001,270.200 292.352 C 280.287 289.648,288.333 287.517,290.336 287.019 C 293.501 286.233,293.510 286.183,294.409 265.000 C 294.633 259.720,294.929 253.494,295.065 251.165 C 295.358 246.166,295.319 246.121,291.489 246.965 C 290.120 247.267,287.200 247.821,285.000 248.196 C 282.800 248.572,278.750 249.303,276.000 249.821 C 273.250 250.339,269.920 250.941,268.600 251.158 C 267.280 251.375,264.580 251.843,262.600 252.197 C 260.620 252.551,256.390 253.285,253.200 253.827 C 250.010 254.370,246.500 254.995,245.400 255.217 C 242.370 255.828,232.489 257.613,230.000 258.000 C 228.790 258.188,225.372 258.797,222.403 259.354 C 219.435 259.911,216.870 260.230,216.702 260.062 C 216.478 259.838,216.300 158.970,216.399 88.328 C 216.400 87.936,216.775 87.602,217.300 87.528 C 217.932 87.438,314.291 87.492,342.057 87.598 M145.101 191.900 L 145.000 295.400 143.800 295.316 L 142.600 295.232 143.746 295.665 C 144.643 296.003,144.968 295.978,145.240 295.549 C 145.599 294.982,145.759 88.400,145.401 88.400 C 145.291 88.400,145.156 134.975,145.101 191.900 M391.762 88.706 C 390.907 89.279,390.735 92.690,391.550 92.903 C 392.180 93.068,392.284 92.790,392.357 90.746 C 392.404 89.456,392.387 88.403,392.321 88.406 C 392.254 88.409,392.003 88.544,391.762 88.706 M9.043 99.833 C 8.561 101.089,8.816 102.816,9.600 103.600 C 10.538 104.538,10.590 104.297,10.146 101.056 C 9.886 99.159,9.476 98.705,9.043 99.833 M390.267 101.467 C 389.702 102.031,389.982 105.908,390.605 106.146 C 391.109 106.340,391.200 105.949,391.153 103.789 C 391.100 101.356,390.901 100.833,390.267 101.467 M10.209 112.771 C 9.851 113.900,10.091 116.791,10.522 116.525 C 10.724 116.400,11.064 116.546,11.278 116.849 C 11.539 117.220,11.590 116.763,11.433 115.444 C 11.305 114.368,11.200 113.153,11.200 112.744 C 11.200 111.768,10.522 111.786,10.209 112.771 M388.800 117.324 C 388.800 118.574,388.988 119.186,389.422 119.353 C 389.939 119.551,390.023 119.278,389.922 117.727 C 389.758 115.223,388.800 114.878,388.800 117.324 M11.443 125.033 C 10.977 126.247,11.187 128.309,11.800 128.545 C 12.288 128.732,12.400 128.368,12.400 126.587 C 12.400 124.473,11.943 123.730,11.443 125.033 M387.600 130.233 C 387.600 133.171,388.548 133.031,388.721 130.069 C 388.818 128.414,388.718 128.000,388.221 128.000 C 387.734 128.000,387.600 128.481,387.600 130.233 M12.656 137.478 C 12.064 138.069,12.380 141.983,13.000 141.745 C 13.419 141.584,13.600 140.931,13.600 139.581 C 13.600 137.750,13.223 136.910,12.656 137.478 M386.642 141.435 C 386.509 141.782,386.436 143.986,386.479 146.333 C 386.544 149.822,386.584 150.071,386.697 147.700 C 386.773 146.105,387.007 144.800,387.218 144.800 C 387.702 144.800,387.724 141.324,387.242 141.026 C 387.045 140.904,386.775 141.088,386.642 141.435 M13.765 150.548 C 13.412 151.466,13.773 155.406,14.200 155.304 C 14.759 155.169,14.960 150.000,14.406 150.000 C 14.169 150.000,13.880 150.246,13.765 150.548 M385.417 153.499 C 385.298 153.811,385.237 156.436,385.281 159.333 C 385.343 163.292,385.396 163.771,385.498 161.264 C 385.597 158.815,385.766 157.978,386.129 158.118 C 386.492 158.257,386.630 157.588,386.644 155.621 C 386.663 153.038,386.021 151.927,385.417 153.499 M15.056 164.278 C 14.626 164.708,14.772 168.212,15.239 168.679 C 15.491 168.931,15.619 170.075,15.539 171.360 C 15.463 172.593,15.535 173.601,15.700 173.601 C 15.865 173.600,16.000 171.541,16.000 169.024 C 16.000 164.844,15.749 163.584,15.056 164.278 M385.200 166.424 C 385.200 166.657,385.042 166.750,384.849 166.630 C 384.280 166.278,383.995 168.618,384.078 172.950 C 384.141 176.174,384.185 176.449,384.297 174.300 C 384.388 172.539,384.604 171.600,384.918 171.600 C 385.243 171.599,385.417 170.687,385.451 168.800 C 385.479 167.260,385.434 166.000,385.351 166.000 C 385.268 166.000,385.200 166.191,385.200 166.424 M15.740 178.866 C 15.770 180.552,15.922 181.727,16.076 181.477 C 16.479 180.824,16.752 181.773,16.915 184.400 C 16.990 185.610,17.083 184.620,17.120 182.200 C 17.157 179.780,17.013 177.530,16.800 177.200 C 16.587 176.870,16.397 176.780,16.378 177.000 C 16.359 177.220,16.196 177.040,16.014 176.600 C 15.806 176.094,15.705 176.929,15.740 178.866 M383.056 180.484 C 382.921 180.988,382.841 183.020,382.878 185.000 C 382.917 187.104,383.007 187.798,383.095 186.670 C 383.221 185.059,383.340 184.818,383.813 185.211 C 384.294 185.610,384.366 185.243,384.290 182.773 C 384.200 179.871,383.546 178.657,383.056 180.484 M16.984 192.211 C 16.973 193.811,17.106 194.368,17.465 194.230 C 17.815 194.096,18.004 194.712,18.105 196.320 C 18.208 197.961,18.270 197.571,18.324 194.929 C 18.392 191.626,17.978 189.997,17.071 190.000 C 17.032 190.000,16.993 190.995,16.984 192.211 M382.011 194.171 C 381.785 194.765,381.629 196.365,381.664 197.726 C 381.703 199.248,381.789 199.661,381.886 198.800 C 381.974 198.030,382.294 197.208,382.599 196.973 C 382.950 196.703,383.102 195.994,383.014 195.043 C 382.833 193.097,382.522 192.826,382.011 194.171 M18.117 204.980 C 18.155 206.996,18.275 207.470,18.665 207.146 C 19.056 206.821,19.195 207.414,19.302 209.866 C 19.433 212.871,19.442 212.834,19.520 208.950 C 19.611 204.351,19.332 202.400,18.584 202.400 C 18.211 202.400,18.082 203.115,18.117 204.980 M381.233 206.157 C 380.867 206.600,380.631 208.009,380.568 210.122 C 380.515 211.925,380.555 212.770,380.658 212.000 C 380.761 211.230,381.115 210.393,381.445 210.140 C 381.875 209.809,382.010 209.086,381.922 207.574 C 381.813 205.692,381.740 205.542,381.233 206.157 M19.560 215.700 C 19.121 216.804,19.300 221.136,19.777 220.953 C 20.235 220.778,20.389 221.225,20.503 223.065 C 20.622 224.970,20.662 224.774,20.720 222.000 C 20.812 217.585,20.179 214.143,19.560 215.700 M379.424 221.233 C 379.270 222.797,379.247 224.180,379.372 224.305 C 379.497 224.431,379.600 224.214,379.600 223.824 C 379.600 223.358,379.806 223.193,380.200 223.345 C 381.015 223.657,381.063 219.516,380.252 218.843 C 379.801 218.469,379.655 218.889,379.424 221.233 M20.652 230.100 C 20.185 231.842,20.366 234.000,20.978 234.000 C 21.380 234.000,21.602 234.579,21.706 235.900 C 21.824 237.400,21.870 237.211,21.923 235.000 C 22.033 230.464,21.306 227.661,20.652 230.100 M378.218 234.867 C 378.065 236.630,378.043 238.176,378.169 238.303 C 378.296 238.430,378.400 238.034,378.400 237.424 C 378.400 236.602,378.556 236.374,379.000 236.545 C 379.491 236.733,379.600 236.350,379.600 234.430 C 379.600 230.550,378.566 230.877,378.218 234.867 M21.825 242.759 C 21.422 243.411,21.685 247.194,22.115 246.929 C 22.321 246.802,22.657 246.946,22.862 247.249 C 23.100 247.600,23.140 246.928,22.972 245.400 C 22.702 242.940,22.294 242.000,21.825 242.759 M377.200 247.195 C 377.200 248.427,377.425 249.482,377.759 249.816 C 378.237 250.294,378.309 250.021,378.259 247.921 C 378.183 244.762,377.200 244.089,377.200 247.195 M22.800 257.424 C 22.800 258.558,22.998 259.190,23.400 259.345 C 23.730 259.471,24.000 259.971,24.000 260.454 C 24.000 260.938,24.112 261.221,24.249 261.085 C 24.763 260.571,23.973 255.733,23.375 255.733 C 22.966 255.733,22.800 256.220,22.800 257.424 M376.000 260.767 C 376.000 261.980,376.161 262.400,376.624 262.400 C 377.099 262.400,377.219 262.048,377.124 260.931 C 376.946 258.821,376.000 258.683,376.000 260.767 M24.045 270.000 C 23.975 271.940,24.077 272.400,24.579 272.400 C 25.071 272.400,25.200 271.903,25.200 270.000 C 25.200 268.264,25.052 267.600,24.666 267.600 C 24.289 267.600,24.106 268.308,24.045 270.000 M375.056 271.078 C 374.502 271.631,374.789 275.510,375.400 275.745 C 375.892 275.933,376.000 275.548,376.000 273.611 C 376.000 271.403,375.655 270.478,375.056 271.078 M68.243 275.433 C 68.109 275.781,68.000 286.001,68.000 298.144 C 68.000 321.697,68.029 322.057,69.923 321.968 C 70.470 321.943,70.485 321.896,70.000 321.722 C 68.408 321.154,68.400 321.030,68.400 298.004 C 68.400 281.236,68.518 275.642,68.880 275.280 C 69.201 274.959,69.215 274.800,68.923 274.800 C 68.682 274.800,68.376 275.085,68.243 275.433 M83.633 278.944 C 83.725 279.023,84.340 279.208,85.000 279.356 C 85.876 279.552,86.038 279.515,85.600 279.218 C 85.060 278.853,83.232 278.598,83.633 278.944 M25.485 281.100 C 24.917 282.146,25.166 286.126,25.767 285.627 C 26.201 285.267,26.400 284.424,26.400 282.951 C 26.400 281.063,25.973 280.199,25.485 281.100 M94.400 281.982 C 94.730 282.205,95.345 282.391,95.767 282.394 C 96.790 282.402,96.471 282.173,95.000 281.844 C 94.124 281.648,93.962 281.685,94.400 281.982 M97.400 282.800 C 97.840 282.989,98.470 283.144,98.800 283.144 C 99.178 283.144,99.104 283.017,98.600 282.800 C 98.160 282.611,97.530 282.456,97.200 282.456 C 96.822 282.456,96.896 282.583,97.400 282.800 M102.400 284.200 C 103.170 284.497,104.070 284.739,104.400 284.739 C 104.730 284.739,104.370 284.497,103.600 284.200 C 102.830 283.903,101.930 283.661,101.600 283.661 C 101.270 283.661,101.630 283.903,102.400 284.200 M373.842 284.235 C 373.709 284.582,373.636 287.056,373.680 289.733 C 373.744 293.588,373.790 293.935,373.899 291.401 C 373.975 289.642,374.209 288.031,374.419 287.821 C 374.901 287.339,374.920 284.122,374.442 283.826 C 374.245 283.704,373.975 283.888,373.842 284.235 M119.000 288.800 C 119.440 288.989,120.070 289.144,120.400 289.144 C 120.778 289.144,120.704 289.017,120.200 288.800 C 119.760 288.611,119.130 288.456,118.800 288.456 C 118.422 288.456,118.496 288.583,119.000 288.800 M129.633 291.744 C 129.725 291.823,130.340 292.008,131.000 292.156 C 131.876 292.352,132.038 292.315,131.600 292.018 C 131.060 291.653,129.232 291.398,129.633 291.744 M26.400 296.600 C 26.400 297.810,26.569 298.800,26.775 298.800 C 26.981 298.800,27.222 299.385,27.311 300.100 C 27.399 300.815,27.501 300.110,27.536 298.533 C 27.571 296.956,27.491 295.381,27.357 295.033 C 26.856 293.727,26.400 294.475,26.400 296.600 M373.200 296.792 C 372.726 297.091,372.592 298.161,372.561 301.885 C 372.540 304.478,372.593 305.484,372.679 304.119 C 372.790 302.361,372.980 301.694,373.330 301.829 C 373.693 301.968,373.830 301.269,373.845 299.209 C 373.856 297.664,373.850 296.403,373.832 296.406 C 373.815 296.409,373.530 296.583,373.200 296.792 M27.301 303.000 C 27.305 303.880,27.387 304.193,27.483 303.695 C 27.579 303.198,27.575 302.478,27.475 302.095 C 27.375 301.713,27.296 302.120,27.301 303.000 M27.322 309.312 C 27.377 311.131,27.542 311.843,27.879 311.714 C 28.208 311.588,28.404 312.261,28.503 313.865 C 28.606 315.516,28.671 315.076,28.724 312.361 C 28.789 309.065,28.690 308.396,28.022 307.625 L 27.243 306.727 27.322 309.312 M371.452 311.700 C 371.319 312.195,371.243 314.130,371.281 316.000 C 371.338 318.769,371.378 318.966,371.497 317.065 C 371.604 315.334,371.779 314.783,372.171 314.934 C 372.570 315.086,372.700 314.602,372.700 312.968 C 372.700 310.705,371.929 309.922,371.452 311.700 M28.562 322.349 C 28.589 323.994,28.743 324.643,29.078 324.515 C 29.401 324.391,29.604 325.021,29.704 326.466 C 29.828 328.249,29.864 328.099,29.926 325.550 C 30.013 321.960,29.690 320.000,29.012 320.000 C 28.679 320.000,28.536 320.747,28.562 322.349 M76.400 323.800 C 77.170 324.097,78.160 324.341,78.600 324.343 C 79.040 324.345,78.590 324.091,77.600 323.779 C 75.339 323.067,74.533 323.081,76.400 323.800 M370.250 325.088 C 370.113 326.091,370.030 327.832,370.067 328.956 C 370.126 330.742,370.155 330.806,370.293 329.467 C 370.403 328.411,370.615 327.997,370.976 328.135 C 371.371 328.287,371.495 327.762,371.483 325.985 C 371.463 323.039,370.615 322.422,370.250 325.088 M92.400 328.221 C 93.390 328.533,94.380 328.777,94.600 328.763 C 95.300 328.721,92.234 327.661,91.400 327.657 C 90.960 327.655,91.410 327.909,92.400 328.221 M29.705 335.520 C 29.697 336.994,29.775 337.975,29.879 337.700 C 30.326 336.511,30.772 337.383,30.904 339.700 C 31.005 341.475,31.057 341.097,31.083 338.400 C 31.122 334.416,30.893 333.053,30.160 332.920 C 29.877 332.869,29.715 333.797,29.705 335.520 M369.044 337.679 C 368.910 338.351,368.834 340.273,368.876 341.950 C 368.946 344.788,368.961 344.838,369.097 342.665 C 369.201 340.981,369.384 340.385,369.751 340.526 C 370.113 340.665,370.286 340.169,370.348 338.810 C 370.453 336.510,369.452 335.642,369.044 337.679 M126.800 337.800 C 127.570 338.097,128.560 338.341,129.000 338.343 C 129.440 338.345,128.990 338.091,128.000 337.779 C 125.739 337.067,124.933 337.081,126.800 337.800 M147.600 343.600 C 147.930 343.813,148.560 343.978,149.000 343.966 L 149.800 343.944 149.000 343.600 C 147.804 343.086,146.805 343.086,147.600 343.600 M30.933 345.821 C 30.933 346.120,31.083 346.272,31.267 346.159 C 31.450 346.045,31.600 346.143,31.600 346.376 C 31.600 346.609,31.450 346.800,31.266 346.800 C 31.082 346.800,30.892 347.925,30.844 349.300 C 30.763 351.614,30.802 351.740,31.366 351.000 C 31.936 350.251,31.979 350.340,32.047 352.400 C 32.093 353.799,32.185 354.163,32.298 353.400 C 32.599 351.361,31.980 345.678,31.433 345.468 C 31.158 345.363,30.933 345.521,30.933 345.821 M155.600 345.800 C 156.370 346.097,157.270 346.339,157.600 346.339 C 157.930 346.339,157.570 346.097,156.800 345.800 C 156.030 345.503,155.130 345.261,154.800 345.261 C 154.470 345.261,154.830 345.503,155.600 345.800 M162.000 347.600 C 163.368 348.038,164.419 348.038,163.400 347.600 C 162.960 347.411,162.240 347.262,161.800 347.268 C 161.157 347.277,161.196 347.343,162.000 347.600 M167.800 349.200 C 168.240 349.389,168.870 349.544,169.200 349.544 C 169.578 349.544,169.504 349.417,169.000 349.200 C 168.560 349.011,167.930 348.856,167.600 348.856 C 167.222 348.856,167.296 348.983,167.800 349.200 M368.561 349.506 C 368.319 349.668,368.003 350.880,367.858 352.200 C 367.698 353.658,367.735 354.384,367.953 354.049 C 368.150 353.746,368.511 353.621,368.755 353.772 C 369.063 353.962,369.200 353.300,369.200 351.624 C 369.200 350.291,369.155 349.203,369.100 349.206 C 369.045 349.209,368.802 349.344,368.561 349.506 M172.800 350.600 C 173.570 350.897,174.560 351.141,175.000 351.143 C 175.440 351.145,174.990 350.891,174.000 350.579 C 171.739 349.867,170.933 349.881,172.800 350.600 M32.480 360.503 C 31.776 361.353,31.937 364.951,32.652 364.357 C 33.044 364.031,33.189 364.411,33.304 366.069 C 33.419 367.726,33.458 367.532,33.479 365.200 C 33.514 361.182,33.188 359.648,32.480 360.503 M366.780 363.313 C 366.768 364.241,366.678 365.810,366.579 366.800 C 366.435 368.244,366.478 368.417,366.796 367.674 C 367.015 367.165,367.385 366.867,367.619 367.012 C 367.906 367.189,368.017 366.424,367.960 364.656 C 367.860 361.571,366.815 360.381,366.780 363.313 M33.700 373.256 C 32.996 373.966,33.050 377.057,33.771 377.334 C 34.085 377.454,34.418 378.058,34.511 378.676 C 34.803 380.620,34.759 377.313,34.460 374.876 C 34.252 373.174,34.101 372.853,33.700 373.256 M365.600 377.508 C 365.600 379.278,365.759 379.975,366.200 380.145 C 366.687 380.332,366.800 379.973,366.800 378.236 C 366.800 376.824,366.596 375.929,366.200 375.600 C 365.678 375.167,365.600 375.415,365.600 377.508 M34.659 386.474 C 34.215 388.131,34.364 389.600,34.976 389.600 C 35.324 389.600,35.620 390.115,35.723 390.900 C 35.818 391.615,35.820 390.850,35.728 389.201 C 35.554 386.078,35.085 384.881,34.659 386.474 M364.480 390.610 C 364.629 393.335,365.357 393.508,365.519 390.855 C 365.610 389.358,365.489 388.843,364.999 388.655 C 364.454 388.446,364.378 388.731,364.480 390.610 M36.100 399.074 C 35.498 400.126,35.432 403.200,36.013 403.200 C 36.646 403.200,36.860 402.285,36.724 400.149 C 36.611 398.366,36.557 398.274,36.100 399.074 M363.467 402.267 C 362.904 402.829,363.181 405.600,363.800 405.600 C 364.244 405.600,364.400 405.133,364.400 403.800 C 364.400 402.120,364.102 401.631,363.467 402.267 M40.245 407.828 C 40.065 408.297,40.222 408.423,40.871 408.328 C 41.347 408.257,41.811 407.975,41.902 407.700 C 42.145 406.961,40.530 407.085,40.245 407.828 M358.655 407.800 C 358.782 408.130,359.136 408.400,359.443 408.400 C 359.749 408.400,360.000 408.130,360.000 407.800 C 360.000 407.470,359.646 407.200,359.213 407.200 C 358.677 407.200,358.499 407.392,358.655 407.800 M354.900 408.265 C 354.097 408.589,354.325 409.600,355.200 409.600 C 355.733 409.600,356.000 409.333,356.000 408.800 C 356.000 407.992,355.808 407.898,354.900 408.265 M44.400 409.000 C 44.400 409.333,44.756 409.600,45.200 409.600 C 45.644 409.600,46.000 409.333,46.000 409.000 C 46.000 408.667,45.644 408.400,45.200 408.400 C 44.756 408.400,44.400 408.667,44.400 409.000 M48.301 410.066 C 48.523 410.915,50.000 411.072,50.000 410.247 C 50.000 409.942,49.575 409.612,49.055 409.513 C 48.294 409.367,48.147 409.475,48.301 410.066 M351.134 409.469 C 350.154 409.729,349.858 410.800,350.766 410.800 C 351.173 410.800,351.601 410.440,351.716 410.000 C 351.831 409.560,351.897 409.221,351.863 409.246 C 351.828 409.272,351.500 409.372,351.134 409.469 M52.300 410.665 C 52.575 410.776,52.800 411.122,52.800 411.433 C 52.800 411.745,53.070 412.000,53.400 412.000 C 53.730 412.000,54.000 411.749,54.000 411.443 C 54.000 410.881,53.130 410.373,52.267 410.432 C 51.945 410.453,51.956 410.526,52.300 410.665 M346.667 410.667 C 346.109 411.224,346.433 412.000,347.224 412.000 C 347.726 412.000,347.940 411.827,347.772 411.555 C 347.621 411.311,347.746 410.953,348.049 410.761 C 348.465 410.497,348.397 410.411,347.767 410.406 C 347.308 410.403,346.813 410.520,346.667 410.667 M56.400 411.983 C 56.933 412.354,56.933 412.444,56.400 412.794 C 55.932 413.101,56.048 413.189,56.929 413.194 C 58.395 413.202,58.276 411.857,56.796 411.683 C 56.003 411.589,55.923 411.650,56.400 411.983 M342.500 411.865 C 341.340 412.333,342.012 413.200,343.500 413.154 C 344.325 413.128,344.685 413.025,344.300 412.924 C 343.915 412.824,343.600 412.588,343.600 412.400 C 343.600 412.212,343.915 411.976,344.300 411.876 C 344.753 411.757,344.647 411.688,344.000 411.678 C 343.450 411.670,342.775 411.754,342.500 411.865 M59.931 413.071 C 60.462 413.181,60.779 413.477,60.670 413.762 C 60.550 414.075,60.800 414.237,61.339 414.197 C 62.947 414.079,62.316 413.004,60.600 412.939 C 59.720 412.906,59.419 412.965,59.931 413.071 M338.098 413.066 C 337.821 413.177,337.697 413.433,337.821 413.634 C 337.947 413.839,337.066 414.000,335.824 414.000 C 334.114 414.000,333.600 414.139,333.600 414.600 C 333.600 415.053,333.111 415.200,331.600 415.200 C 330.089 415.200,329.600 415.347,329.600 415.800 C 329.600 416.189,329.986 416.398,330.700 416.394 C 331.557 416.389,331.668 416.302,331.200 416.000 C 330.618 415.624,332.113 415.419,334.679 415.522 C 335.290 415.547,335.491 415.381,335.337 414.979 C 335.168 414.539,335.486 414.389,336.657 414.354 C 338.984 414.284,339.203 414.238,339.513 413.746 C 339.671 413.497,340.160 413.203,340.600 413.093 C 341.071 412.975,340.824 412.887,340.000 412.878 C 339.230 412.870,338.374 412.954,338.098 413.066 M62.667 414.267 C 62.260 414.673,62.349 415.200,62.824 415.200 C 63.057 415.200,63.136 415.020,63.000 414.800 C 62.860 414.573,63.196 414.400,63.776 414.400 C 64.342 414.400,64.800 414.629,64.800 414.913 C 64.800 415.254,65.506 415.457,66.900 415.517 C 68.055 415.567,69.060 415.786,69.133 416.004 C 69.207 416.222,69.606 416.400,70.021 416.400 C 70.527 416.400,70.699 416.203,70.545 415.800 C 70.388 415.392,69.749 415.200,68.545 415.200 C 67.341 415.200,66.701 415.008,66.545 414.600 C 66.309 413.986,63.213 413.720,62.667 414.267 M73.055 417.000 C 72.899 417.408,73.077 417.600,73.613 417.600 C 74.046 417.600,74.400 417.330,74.400 417.000 C 74.400 416.670,74.149 416.400,73.843 416.400 C 73.536 416.400,73.182 416.670,73.055 417.000 M325.692 416.875 C 325.939 417.617,326.800 417.740,326.800 417.033 C 326.800 416.685,326.515 416.400,326.167 416.400 C 325.818 416.400,325.605 416.614,325.692 416.875 M76.855 418.246 C 76.378 418.785,76.449 418.846,77.425 418.731 C 78.037 418.659,78.612 418.375,78.702 418.100 C 78.935 417.392,77.512 417.504,76.855 418.246 M321.333 418.200 C 321.333 418.618,321.621 418.797,322.167 418.719 C 322.625 418.654,323.000 418.420,323.000 418.200 C 323.000 417.980,322.625 417.746,322.167 417.681 C 321.621 417.603,321.333 417.782,321.333 418.200 M81.200 419.400 C 81.200 419.733,81.556 420.000,82.000 420.000 C 82.444 420.000,82.800 419.733,82.800 419.400 C 82.800 419.067,82.444 418.800,82.000 418.800 C 81.556 418.800,81.200 419.067,81.200 419.400 M317.478 419.056 C 317.104 419.429,317.555 420.000,318.224 420.000 C 318.541 420.000,318.800 419.730,318.800 419.400 C 318.800 418.798,317.956 418.578,317.478 419.056 M84.500 419.887 C 85.111 419.979,85.600 420.308,85.600 420.627 C 85.600 420.942,85.960 421.200,86.400 421.200 C 86.840 421.200,87.155 420.975,87.100 420.700 C 86.982 420.110,85.800 419.672,84.400 419.700 C 83.472 419.718,83.479 419.732,84.500 419.887 M313.677 419.885 C 312.678 420.076,312.681 420.925,313.681 421.119 C 314.028 421.187,314.390 420.881,314.511 420.419 C 314.629 419.969,314.697 419.625,314.663 419.654 C 314.628 419.684,314.185 419.788,313.677 419.885 M89.771 421.600 C 89.771 422.101,90.038 422.400,90.486 422.400 C 91.369 422.400,91.431 421.374,90.567 421.043 C 90.219 420.909,89.898 420.800,89.853 420.800 C 89.808 420.800,89.771 421.160,89.771 421.600 M309.300 421.065 C 308.509 421.384,308.719 422.400,309.575 422.400 C 310.104 422.400,310.331 422.146,310.290 421.600 C 310.228 420.772,310.141 420.725,309.300 421.065 M93.551 422.338 C 93.854 422.543,93.979 422.911,93.828 423.155 C 93.659 423.428,93.882 423.600,94.406 423.600 C 95.641 423.600,95.271 422.233,93.996 422.083 C 93.275 421.998,93.152 422.068,93.551 422.338 M305.249 422.361 C 304.946 422.553,304.821 422.911,304.972 423.155 C 305.414 423.870,306.289 423.668,306.516 422.800 C 306.737 421.954,306.190 421.765,305.249 422.361 M97.600 424.000 C 97.600 424.868,97.895 424.981,98.751 424.439 C 99.397 424.030,99.011 423.200,98.176 423.200 C 97.859 423.200,97.600 423.560,97.600 424.000 M301.000 423.600 C 300.665 424.142,301.117 424.800,301.824 424.800 C 302.141 424.800,302.400 424.440,302.400 424.000 C 302.400 423.172,301.435 422.896,301.000 423.600 M101.100 424.667 C 101.595 424.771,102.000 425.075,102.000 425.343 C 102.000 425.611,102.371 425.858,102.825 425.892 C 103.401 425.935,103.611 425.750,103.522 425.277 C 103.429 424.789,102.949 424.583,101.797 424.539 C 100.919 424.506,100.605 424.564,101.100 424.667 M296.600 424.800 C 296.464 425.020,296.464 425.380,296.600 425.600 C 296.974 426.205,298.000 426.079,298.000 425.428 C 298.000 425.113,298.405 424.778,298.900 424.682 C 299.467 424.573,299.254 424.489,298.324 424.454 C 297.512 424.425,296.736 424.580,296.600 424.800 M105.331 425.890 C 106.135 426.010,106.396 426.232,106.234 426.656 C 106.062 427.104,106.203 427.189,106.803 426.999 C 107.241 426.860,107.600 426.907,107.600 427.104 C 107.600 427.300,108.164 427.379,108.854 427.277 C 109.686 427.155,110.217 427.288,110.432 427.671 C 110.629 428.024,111.502 428.286,112.677 428.346 C 113.735 428.399,114.660 428.613,114.733 428.821 C 114.935 429.395,116.091 429.275,115.902 428.700 C 115.810 428.418,114.793 428.113,113.569 428.000 C 112.314 427.884,111.484 427.631,111.600 427.400 C 111.716 427.167,110.964 426.947,109.801 426.874 C 108.591 426.798,107.676 426.522,107.482 426.174 C 107.281 425.817,106.602 425.623,105.680 425.660 C 104.422 425.711,104.370 425.745,105.331 425.890 M292.480 426.080 C 292.216 426.344,292.000 426.674,292.000 426.813 C 292.000 427.226,293.398 426.998,293.423 426.582 C 293.435 426.372,293.975 426.086,294.623 425.947 C 295.781 425.699,295.778 425.694,294.380 425.647 C 293.599 425.621,292.744 425.816,292.480 426.080 M288.184 427.227 C 287.852 427.763,288.198 428.120,289.196 428.272 C 289.725 428.353,289.903 428.212,289.755 427.827 C 289.616 427.464,289.870 427.200,290.469 427.086 C 291.093 426.968,290.913 426.891,289.924 426.854 C 289.112 426.825,288.329 426.992,288.184 427.227 M284.255 428.600 C 284.115 428.965,284.255 429.200,284.613 429.200 C 284.936 429.200,285.200 429.032,285.200 428.827 C 285.200 428.621,285.695 428.378,286.300 428.287 C 287.212 428.148,287.151 428.110,285.943 428.060 C 284.974 428.020,284.408 428.201,284.255 428.600 M118.400 429.800 C 118.400 430.130,118.670 430.400,119.000 430.400 C 119.330 430.400,119.600 430.130,119.600 429.800 C 119.600 429.470,119.330 429.200,119.000 429.200 C 118.670 429.200,118.400 429.470,118.400 429.800 M280.255 429.800 C 280.382 430.130,280.736 430.400,281.043 430.400 C 281.349 430.400,281.600 430.130,281.600 429.800 C 281.600 429.470,281.246 429.200,280.813 429.200 C 280.277 429.200,280.099 429.392,280.255 429.800 M122.255 431.000 C 122.089 431.433,122.299 431.600,123.013 431.600 C 123.624 431.600,124.000 431.371,124.000 431.000 C 124.000 430.670,123.659 430.400,123.243 430.400 C 122.826 430.400,122.382 430.670,122.255 431.000 M275.700 430.900 C 275.952 431.657,277.200 431.764,277.200 431.029 C 277.200 430.658,276.858 430.400,276.367 430.400 C 275.878 430.400,275.602 430.607,275.700 430.900 M126.500 432.100 C 126.592 432.375,126.997 432.600,127.400 432.600 C 127.803 432.600,128.208 432.375,128.300 432.100 C 128.406 431.783,128.076 431.600,127.400 431.600 C 126.724 431.600,126.394 431.783,126.500 432.100 M271.487 432.116 C 271.364 432.439,271.648 432.663,272.245 432.712 C 272.859 432.763,273.200 432.579,273.200 432.196 C 273.200 431.466,271.763 431.399,271.487 432.116 M267.829 433.029 C 267.016 433.841,267.037 434.000,267.953 434.000 C 268.370 434.000,268.800 433.643,268.916 433.200 C 269.167 432.241,268.692 432.166,267.829 433.029 M130.800 433.400 C 130.800 433.733,131.156 434.000,131.600 434.000 C 132.044 434.000,132.400 433.733,132.400 433.400 C 132.400 433.067,132.044 432.800,131.600 432.800 C 131.156 432.800,130.800 433.067,130.800 433.400 M134.800 434.400 C 134.800 434.933,135.067 435.200,135.600 435.200 C 136.549 435.200,136.674 434.191,135.767 433.843 C 134.850 433.491,134.800 433.519,134.800 434.400 M263.892 434.037 C 263.117 434.488,263.313 435.200,264.211 435.200 C 264.532 435.200,264.682 434.957,264.558 434.635 C 264.431 434.303,264.642 433.992,265.071 433.881 C 265.547 433.758,265.592 433.681,265.200 433.659 C 264.870 433.640,264.281 433.810,263.892 434.037 M138.700 435.044 C 139.417 435.364,139.316 435.911,138.500 436.124 C 138.115 436.225,138.398 436.328,139.129 436.354 C 140.771 436.411,140.834 435.058,139.196 434.910 C 138.648 434.861,138.425 434.921,138.700 435.044 M259.700 435.065 C 258.897 435.389,259.125 436.400,260.000 436.400 C 260.440 436.400,260.800 436.145,260.800 435.833 C 260.800 435.522,261.025 435.176,261.300 435.065 C 261.575 434.954,261.440 434.863,261.000 434.863 C 260.560 434.863,259.975 434.954,259.700 435.065 M142.300 436.265 C 142.575 436.376,142.800 436.722,142.800 437.033 C 142.800 437.771,144.249 437.771,144.532 437.033 C 144.773 436.404,143.991 435.983,142.667 436.032 C 142.190 436.049,142.025 436.154,142.300 436.265 M255.394 436.663 C 254.982 437.075,254.028 437.339,252.866 437.363 C 250.980 437.400,250.109 438.417,251.700 438.724 C 252.127 438.806,252.400 438.613,252.400 438.229 C 252.400 437.817,252.761 437.600,253.449 437.600 C 254.381 437.600,254.437 437.674,253.949 438.265 C 253.451 438.869,253.484 438.886,254.300 438.451 C 254.795 438.188,255.200 437.823,255.200 437.641 C 255.200 437.460,255.653 437.397,256.206 437.503 C 256.987 437.653,257.159 437.559,256.976 437.083 C 256.828 436.697,257.011 436.400,257.471 436.281 C 257.967 436.153,257.858 436.078,257.129 436.046 C 256.539 436.021,255.759 436.298,255.394 436.663 M146.131 437.490 C 146.915 437.607,147.195 437.836,147.042 438.235 C 146.877 438.665,147.114 438.789,147.980 438.723 C 150.017 438.568,148.794 437.185,146.686 437.260 C 145.434 437.304,145.291 437.364,146.131 437.490 M150.400 438.692 C 150.730 438.817,151.109 439.086,151.241 439.289 C 151.764 440.087,153.601 439.949,153.170 439.143 C 152.886 438.613,152.346 438.409,151.286 438.432 C 150.469 438.449,150.070 438.566,150.400 438.692 M246.972 438.845 C 246.821 439.089,246.946 439.445,247.249 439.634 C 247.612 439.861,247.842 439.786,247.925 439.414 C 247.993 439.103,248.533 438.774,249.125 438.684 C 249.974 438.554,249.890 438.507,248.724 438.460 C 247.912 438.427,247.124 438.600,246.972 438.845 M154.700 439.882 C 155.195 439.978,155.600 440.223,155.600 440.428 C 155.600 440.633,155.870 440.800,156.200 440.800 C 156.530 440.800,156.800 440.530,156.800 440.200 C 156.800 439.764,156.391 439.615,155.300 439.654 C 154.371 439.688,154.143 439.775,154.700 439.882 M242.655 440.200 C 242.499 440.608,242.677 440.800,243.213 440.800 C 243.646 440.800,244.000 440.633,244.000 440.428 C 244.000 440.223,244.405 439.978,244.900 439.882 C 245.475 439.771,245.274 439.689,244.343 439.654 C 243.378 439.618,242.808 439.803,242.655 440.200 M159.200 441.355 C 159.200 441.660,159.714 441.985,160.342 442.077 C 161.286 442.215,161.452 442.119,161.296 441.522 C 161.071 440.662,159.200 440.512,159.200 441.355 M238.655 441.400 C 238.499 441.808,238.677 442.000,239.213 442.000 C 239.646 442.000,240.000 441.730,240.000 441.400 C 240.000 441.070,239.749 440.800,239.443 440.800 C 239.136 440.800,238.782 441.070,238.655 441.400 M163.600 442.571 C 163.600 442.942,163.942 443.200,164.433 443.200 C 165.408 443.200,165.270 442.265,164.267 442.071 C 163.872 441.994,163.600 442.198,163.600 442.571 M234.500 442.500 C 234.752 443.257,236.000 443.364,236.000 442.629 C 236.000 442.258,235.658 442.000,235.167 442.000 C 234.678 442.000,234.402 442.207,234.500 442.500 M168.000 443.800 C 168.000 444.133,168.356 444.400,168.800 444.400 C 169.244 444.400,169.600 444.133,169.600 443.800 C 169.600 443.467,169.244 443.200,168.800 443.200 C 168.356 443.200,168.000 443.467,168.000 443.800 M230.400 443.800 C 230.400 444.133,230.756 444.400,231.200 444.400 C 231.644 444.400,232.000 444.133,232.000 443.800 C 232.000 443.467,231.644 443.200,231.200 443.200 C 230.756 443.200,230.400 443.467,230.400 443.800 M172.000 444.800 C 172.000 445.240,172.259 445.600,172.576 445.600 C 173.411 445.600,173.797 444.770,173.151 444.361 C 172.295 443.819,172.000 443.932,172.000 444.800 M226.700 444.276 C 225.735 444.528,225.816 445.600,226.800 445.600 C 227.240 445.600,227.600 445.345,227.600 445.033 C 227.600 444.722,227.825 444.376,228.100 444.265 C 228.734 444.009,227.689 444.017,226.700 444.276 M176.251 445.682 C 176.389 445.906,176.254 446.257,175.951 446.462 C 175.550 446.733,175.664 446.803,176.369 446.717 C 177.599 446.568,177.890 445.769,176.816 445.488 C 176.319 445.358,176.098 445.434,176.251 445.682 M222.900 445.482 C 221.813 445.692,221.690 446.800,222.753 446.800 C 223.170 446.800,223.600 446.443,223.716 446.000 C 223.831 445.560,223.897 445.225,223.863 445.254 C 223.828 445.284,223.395 445.387,222.900 445.482 M179.500 446.665 C 179.775 446.776,180.000 447.122,180.000 447.433 C 180.000 448.166,181.049 448.171,181.330 447.439 C 181.622 446.676,181.260 446.394,180.033 446.432 C 179.465 446.449,179.225 446.554,179.500 446.665 M218.500 446.665 C 217.797 446.949,217.875 448.000,218.600 448.000 C 218.930 448.000,219.200 447.745,219.200 447.433 C 219.200 447.122,219.425 446.776,219.700 446.665 C 220.034 446.530,220.001 446.463,219.600 446.463 C 219.270 446.463,218.775 446.554,218.500 446.665 M183.729 447.881 C 184.158 447.992,184.369 448.303,184.242 448.635 C 184.091 449.028,184.326 449.200,185.013 449.200 C 185.590 449.200,186.000 448.969,186.000 448.643 C 186.000 447.997,185.108 447.580,183.867 447.646 C 183.148 447.685,183.124 447.725,183.729 447.881 M214.121 447.917 C 213.589 448.255,213.926 448.945,214.700 449.100 C 214.975 449.155,215.200 448.943,215.200 448.629 C 215.200 448.315,215.515 447.976,215.900 447.876 C 216.371 447.753,216.272 447.680,215.600 447.653 C 215.050 447.630,214.385 447.749,214.121 447.917 M187.729 449.081 C 188.162 449.193,188.370 449.502,188.240 449.841 C 188.077 450.266,188.274 450.366,189.010 450.232 C 189.572 450.131,190.000 450.243,190.000 450.493 C 190.000 450.735,190.105 450.829,190.232 450.701 C 190.856 450.077,189.517 448.802,188.286 448.846 C 187.554 448.873,187.314 448.974,187.729 449.081 M209.867 449.067 C 209.287 449.647,209.653 450.230,210.649 450.312 C 211.515 450.384,211.615 450.300,211.224 449.829 C 210.836 449.361,210.953 449.227,211.875 449.089 C 212.854 448.942,212.815 448.912,211.567 448.860 C 210.778 448.827,210.013 448.920,209.867 449.067 M191.600 450.295 C 192.150 450.397,192.728 450.688,192.885 450.940 C 193.192 451.434,193.344 451.474,195.243 451.550 C 196.088 451.584,196.421 451.767,196.285 452.122 C 196.140 452.500,196.545 452.648,197.742 452.655 C 198.654 452.661,199.085 452.592,198.700 452.503 C 198.315 452.414,198.000 452.085,198.000 451.771 C 198.000 451.363,197.498 451.200,196.243 451.200 C 195.050 451.200,194.412 451.007,194.255 450.600 C 194.095 450.183,193.503 450.017,192.313 450.054 C 191.197 450.090,190.948 450.174,191.600 450.295 M205.384 450.427 C 205.239 450.661,205.232 450.965,205.368 451.101 C 205.750 451.484,207.190 451.508,206.956 451.128 C 206.842 450.944,207.165 450.626,207.674 450.422 C 208.499 450.091,208.440 450.048,207.124 450.025 C 206.312 450.011,205.529 450.192,205.384 450.427 M201.096 451.955 C 200.941 452.547,201.103 452.697,201.849 452.655 C 202.372 452.625,202.800 452.388,202.800 452.128 C 202.800 451.868,203.205 451.578,203.700 451.482 C 204.198 451.386,203.862 451.285,202.947 451.254 C 201.636 451.211,201.252 451.356,201.096 451.955 " stroke="none" fill="#fbdb3b" fill-rule="evenodd"></path><path id="path2" d="M0.000 1.600 C 0.000 2.480,0.147 3.200,0.327 3.200 C 1.382 3.200,2.116 7.915,2.047 14.253 C 1.986 19.891,2.059 20.737,2.629 20.956 C 3.203 21.176,3.265 21.969,3.143 27.503 C 3.037 32.324,3.119 33.777,3.495 33.702 C 4.314 33.539,4.528 35.469,4.302 40.962 C 4.085 46.243,4.181 47.382,4.814 46.991 C 5.422 46.616,5.659 49.279,5.451 54.137 C 5.247 58.916,5.417 60.543,6.021 59.566 C 6.582 58.659,6.915 62.780,6.637 67.178 C 6.368 71.424,6.589 73.388,7.221 72.366 C 7.817 71.402,8.100 75.653,7.817 81.329 C 7.567 86.351,7.602 86.911,8.119 86.222 C 8.999 85.050,9.348 88.427,9.020 94.937 C 8.840 98.501,8.884 100.010,9.155 99.612 C 9.988 98.390,10.197 99.865,10.108 106.334 C 10.050 110.544,10.152 112.783,10.386 112.412 C 11.162 111.179,11.371 112.646,11.312 118.920 C 11.279 122.484,11.345 125.175,11.459 124.900 C 12.123 123.300,12.400 125.100,12.400 131.000 C 12.400 136.067,12.516 137.577,12.900 137.500 C 13.280 137.424,13.426 138.956,13.510 143.884 C 13.603 149.405,13.707 150.334,14.210 150.141 C 14.717 149.946,14.800 150.937,14.800 157.157 C 14.800 162.738,14.915 164.377,15.300 164.300 C 15.680 164.224,15.810 165.592,15.844 170.000 C 15.897 177.148,15.909 177.303,16.388 177.007 C 17.099 176.568,17.284 178.722,17.101 185.292 C 17.001 188.871,16.995 191.485,17.089 191.100 C 17.182 190.715,17.422 190.400,17.622 190.400 C 18.319 190.400,18.511 192.542,18.253 197.452 C 18.034 201.623,18.084 202.400,18.572 202.400 C 19.433 202.400,19.747 205.376,19.484 211.045 C 19.298 215.063,19.355 215.915,19.796 215.746 C 20.601 215.437,20.937 219.097,20.675 225.321 C 20.553 228.224,20.544 230.285,20.656 229.900 C 21.499 226.994,22.149 231.618,21.785 237.931 C 21.584 241.402,21.626 242.831,21.921 242.649 C 22.752 242.135,22.956 243.456,22.978 249.486 C 22.992 253.289,23.151 255.591,23.400 255.581 C 24.078 255.555,24.344 258.393,24.106 263.100 C 23.902 267.110,23.950 267.600,24.539 267.600 C 25.128 267.600,25.200 268.342,25.200 274.387 C 25.200 280.256,25.281 281.144,25.800 280.945 C 26.319 280.746,26.400 281.620,26.400 287.386 C 26.400 293.021,26.501 294.158,27.052 294.710 C 27.614 295.271,27.678 296.156,27.510 301.087 C 27.332 306.353,27.379 306.883,28.098 307.706 C 28.816 308.528,28.863 309.058,28.684 314.300 C 28.528 318.867,28.595 320.000,29.020 320.000 C 29.789 320.000,30.093 322.729,29.936 328.236 C 29.835 331.768,29.923 332.976,30.277 332.908 C 31.011 332.766,31.281 335.645,31.082 341.503 C 30.970 344.811,31.050 346.800,31.294 346.800 C 31.510 346.800,31.582 346.530,31.455 346.200 C 31.329 345.870,31.376 345.600,31.561 345.600 C 32.144 345.600,32.451 350.934,32.162 356.057 C 31.913 360.462,31.949 360.940,32.495 360.487 C 33.413 359.725,33.730 362.671,33.383 368.758 C 33.130 373.206,33.166 373.726,33.698 373.284 C 34.488 372.629,34.760 375.496,34.544 382.200 C 34.454 384.997,34.530 386.677,34.726 386.227 C 35.477 384.500,35.797 386.793,35.696 393.182 C 35.604 399.060,35.656 399.680,36.184 398.982 C 36.719 398.274,36.776 398.552,36.787 401.926 C 36.804 406.821,37.024 407.200,39.857 407.200 C 41.674 407.200,42.043 407.311,41.855 407.800 C 41.668 408.288,42.032 408.400,43.813 408.400 C 45.537 408.400,46.000 408.533,46.000 409.030 C 46.000 409.468,46.335 409.638,47.100 409.588 C 49.321 409.441,50.000 409.597,50.000 410.252 C 50.000 410.776,50.280 410.859,51.423 410.674 C 53.130 410.397,54.000 410.672,54.000 411.488 C 54.000 411.977,54.345 412.039,55.830 411.816 C 57.435 411.576,57.685 411.638,57.864 412.323 C 58.036 412.981,58.397 413.097,60.134 413.052 C 61.795 413.010,62.191 413.125,62.155 413.636 C 62.118 414.162,62.456 414.239,64.108 414.080 C 65.680 413.929,66.184 414.028,66.473 414.544 C 66.725 414.995,67.383 415.200,68.577 415.200 C 69.752 415.200,70.389 415.394,70.545 415.800 C 70.702 416.211,71.345 416.400,72.587 416.400 C 73.932 416.400,74.400 416.555,74.400 417.000 C 74.400 417.462,74.916 417.600,76.643 417.600 C 78.472 417.600,78.843 417.711,78.655 418.200 C 78.468 418.688,78.832 418.800,80.613 418.800 C 82.332 418.800,82.800 418.934,82.800 419.427 C 82.800 419.867,83.033 419.980,83.583 419.806 C 84.675 419.459,87.190 419.988,87.086 420.542 C 87.034 420.818,87.637 421.020,88.600 421.051 C 91.103 421.131,91.200 421.161,91.200 421.845 C 91.200 422.384,91.499 422.446,93.003 422.220 C 94.527 421.992,94.847 422.062,95.074 422.675 C 95.415 423.600,96.045 424.021,96.581 423.684 C 97.347 423.202,98.737 423.174,99.022 423.635 C 99.176 423.885,99.054 424.245,98.751 424.436 C 98.429 424.638,99.248 424.681,100.724 424.539 C 103.018 424.318,103.267 424.369,103.457 425.095 C 103.635 425.779,103.914 425.866,105.381 425.701 C 107.110 425.506,108.225 426.167,107.217 426.789 C 106.951 426.954,107.640 427.002,108.749 426.895 C 111.152 426.664,112.283 426.977,111.678 427.705 C 111.357 428.091,111.744 428.170,113.431 428.063 C 115.129 427.956,115.650 428.064,115.841 428.563 C 116.013 429.012,116.605 429.200,117.843 429.200 C 119.138 429.200,119.600 429.358,119.600 429.800 C 119.600 430.261,120.111 430.400,121.800 430.400 C 123.489 430.400,124.000 430.539,124.000 431.000 C 124.000 431.462,124.516 431.600,126.243 431.600 C 128.072 431.600,128.443 431.711,128.255 432.200 C 128.068 432.688,128.432 432.800,130.213 432.800 C 131.943 432.800,132.400 432.933,132.400 433.434 C 132.400 433.917,132.759 434.047,133.900 433.978 C 136.089 433.847,136.400 433.930,136.400 434.645 C 136.400 435.185,136.699 435.246,138.230 435.016 C 139.884 434.768,140.081 434.825,140.285 435.605 C 140.479 436.346,140.704 436.432,141.873 436.213 C 143.518 435.904,144.830 436.257,144.568 436.938 C 144.431 437.297,144.965 437.430,146.489 437.418 C 148.189 437.403,148.591 437.525,148.554 438.044 C 148.515 438.582,148.857 438.659,150.610 438.511 C 152.721 438.333,153.890 438.927,152.779 439.613 C 152.491 439.791,153.278 439.840,154.527 439.721 C 156.443 439.539,156.800 439.607,156.800 440.153 C 156.800 440.671,157.240 440.800,159.000 440.800 C 160.689 440.800,161.200 440.939,161.200 441.400 C 161.200 441.845,161.668 442.000,163.013 442.000 C 164.255 442.000,164.898 442.189,165.055 442.600 C 165.221 443.031,165.894 443.200,167.443 443.200 C 169.147 443.200,169.600 443.333,169.600 443.836 C 169.600 444.342,169.908 444.428,171.115 444.259 C 172.797 444.024,173.860 444.455,173.407 445.189 C 173.194 445.533,173.546 445.647,174.656 445.595 C 177.325 445.470,177.704 445.553,177.451 446.211 C 177.256 446.719,177.569 446.804,179.308 446.711 C 181.136 446.614,181.385 446.691,181.277 447.323 C 181.170 447.953,181.363 448.014,182.794 447.801 C 184.711 447.515,186.000 447.833,186.000 448.592 C 186.000 448.976,186.543 449.111,187.900 449.065 C 189.396 449.014,189.791 449.132,189.757 449.622 C 189.722 450.132,190.102 450.215,191.854 450.081 C 193.550 449.951,194.044 450.050,194.239 450.559 C 194.415 451.016,195.003 451.200,196.289 451.200 C 197.810 451.200,198.065 451.310,197.912 451.900 C 197.765 452.468,198.027 452.618,199.305 452.694 C 200.611 452.772,200.916 452.644,201.099 451.944 C 201.297 451.184,201.527 451.122,203.410 451.316 C 205.191 451.500,205.492 451.434,205.450 450.866 C 205.409 450.318,205.766 450.209,207.466 450.252 C 209.228 450.297,209.563 450.186,209.744 449.494 C 209.933 448.770,210.175 448.709,212.015 448.927 C 213.691 449.126,214.034 449.066,213.858 448.606 C 213.568 447.850,214.815 447.492,216.583 447.823 C 217.695 448.032,218.000 447.960,218.000 447.487 C 218.000 446.672,218.871 446.397,220.577 446.674 C 221.720 446.859,222.000 446.776,222.000 446.252 C 222.000 445.597,222.679 445.441,224.900 445.588 C 225.630 445.636,226.000 445.464,226.000 445.077 C 226.000 444.332,227.275 443.998,229.029 444.282 C 230.121 444.459,230.400 444.372,230.400 443.852 C 230.400 443.329,230.832 443.200,232.587 443.200 C 234.368 443.200,234.732 443.088,234.545 442.600 C 234.358 442.115,234.707 442.000,236.370 442.000 C 237.828 442.000,238.492 441.826,238.655 441.400 C 238.812 440.992,239.451 440.800,240.655 440.800 C 241.914 440.800,242.497 440.614,242.673 440.155 C 242.879 439.618,243.329 439.553,245.360 439.767 C 246.889 439.928,247.594 439.887,247.249 439.657 C 246.145 438.921,247.233 438.292,249.206 438.526 C 250.820 438.717,251.095 438.650,251.051 438.075 C 251.009 437.515,251.383 437.401,253.251 437.405 C 254.810 437.409,255.447 437.266,255.322 436.941 C 255.075 436.296,256.567 435.885,258.009 436.202 C 258.910 436.400,259.200 436.320,259.200 435.875 C 259.200 435.041,260.202 434.759,262.093 435.061 C 263.234 435.244,263.641 435.190,263.450 434.881 C 263.049 434.232,264.622 433.540,265.816 433.840 C 266.568 434.028,267.053 433.880,267.600 433.292 C 268.182 432.668,268.758 432.513,270.150 432.607 C 271.565 432.703,271.902 432.609,271.731 432.164 C 271.560 431.720,271.989 431.600,273.745 431.600 C 275.563 431.600,275.932 431.489,275.745 431.000 C 275.555 430.506,275.955 430.400,278.000 430.400 C 280.045 430.400,280.445 430.294,280.255 429.800 C 280.070 429.317,280.408 429.200,281.993 429.200 C 283.407 429.200,284.064 429.014,284.330 428.539 C 284.625 428.013,285.068 427.928,286.503 428.125 C 288.047 428.336,288.299 428.273,288.253 427.686 C 288.210 427.131,288.544 427.001,290.000 427.005 C 291.303 427.008,291.954 426.801,292.357 426.256 C 292.814 425.637,293.252 425.542,294.808 425.726 C 296.420 425.917,296.695 425.850,296.651 425.275 C 296.608 424.707,296.958 424.612,298.851 424.674 C 300.742 424.736,301.094 424.640,301.051 424.074 C 301.008 423.503,301.330 423.422,303.149 423.541 C 304.759 423.647,305.223 423.560,304.998 423.196 C 304.534 422.446,305.637 421.999,307.300 422.264 C 308.517 422.457,308.800 422.379,308.800 421.851 C 308.800 421.122,309.074 421.054,311.501 421.182 C 312.913 421.257,313.161 421.164,312.959 420.636 C 312.695 419.951,313.284 419.826,316.107 419.967 C 317.163 420.020,317.582 419.887,317.507 419.521 C 317.434 419.168,318.043 418.936,319.400 418.800 C 320.707 418.669,321.365 418.427,321.300 418.100 C 321.229 417.745,321.891 417.600,323.587 417.600 C 325.545 417.600,325.933 417.492,325.745 417.000 C 325.559 416.515,325.906 416.400,327.557 416.400 C 329.159 416.400,329.600 416.263,329.600 415.763 C 329.600 415.243,329.992 415.151,331.737 415.263 C 333.652 415.386,333.854 415.323,333.681 414.662 C 333.505 413.993,333.716 413.936,335.911 414.062 C 337.772 414.168,338.241 414.088,337.932 413.716 C 337.407 413.085,339.166 412.613,340.815 412.943 C 341.679 413.116,342.000 413.028,342.000 412.617 C 342.000 411.854,343.276 411.503,344.927 411.813 C 346.085 412.030,346.322 411.943,346.507 411.234 C 346.743 410.330,347.615 410.166,348.803 410.801 C 349.395 411.118,349.680 411.020,350.160 410.336 C 350.647 409.641,351.127 409.483,352.584 409.538 C 353.907 409.588,354.400 409.454,354.400 409.046 C 354.400 408.262,355.160 408.054,357.180 408.287 C 358.661 408.459,358.883 408.393,358.672 407.844 C 358.463 407.297,358.777 407.200,360.751 407.200 L 363.077 407.200 363.146 404.900 C 363.192 403.403,363.423 402.445,363.808 402.156 C 364.289 401.795,364.400 400.467,364.400 395.068 C 364.400 389.328,364.482 388.456,365.000 388.655 C 365.519 388.855,365.600 387.956,365.600 381.994 C 365.600 375.754,365.660 375.152,366.233 375.627 C 366.806 376.103,366.850 375.680,366.704 371.176 C 366.484 364.430,366.706 361.589,367.429 361.867 C 367.894 362.045,367.975 361.062,367.911 356.003 C 367.842 350.519,367.904 349.885,368.554 349.522 C 369.209 349.155,369.248 348.707,368.990 344.571 C 368.643 339.029,368.950 336.329,369.885 336.688 C 370.462 336.910,370.500 336.440,370.252 332.054 C 369.932 326.390,370.223 323.157,371.025 323.465 C 371.456 323.630,371.515 322.712,371.339 318.606 C 371.104 313.137,371.345 310.800,372.142 310.800 C 372.530 310.800,372.642 309.222,372.624 303.987 C 372.604 298.376,372.705 297.109,373.194 296.805 C 373.684 296.501,373.769 295.403,373.680 290.518 C 373.590 285.604,374.036 281.854,374.479 283.800 C 374.529 284.020,374.667 281.230,374.785 277.600 C 374.947 272.623,375.123 271.025,375.500 271.100 C 375.882 271.176,376.000 269.778,376.000 265.157 C 376.000 259.861,376.077 259.144,376.621 259.353 C 377.161 259.560,377.236 258.985,377.198 254.895 C 377.112 245.427,377.135 245.090,377.844 245.362 C 378.421 245.583,378.466 245.139,378.266 241.130 C 377.970 235.163,378.298 231.586,379.113 231.899 C 379.636 232.100,379.688 231.503,379.505 227.365 C 379.231 221.169,379.492 218.213,380.258 218.848 C 380.728 219.238,380.796 218.357,380.706 213.100 C 380.611 207.561,380.679 206.804,381.330 206.081 C 381.987 205.351,382.034 204.773,381.798 200.335 C 381.523 195.161,382.032 191.966,382.841 193.800 C 383.051 194.276,383.095 192.077,382.951 188.363 C 382.694 181.740,382.923 179.408,383.799 179.744 C 384.161 179.883,384.367 179.463,384.471 178.372 C 384.554 177.508,384.481 176.800,384.311 176.800 C 383.941 176.800,383.892 169.442,384.249 167.656 C 384.385 166.973,384.655 166.511,384.849 166.630 C 385.290 166.903,385.285 166.995,385.226 159.800 C 385.180 154.145,385.414 152.552,386.244 152.866 C 386.443 152.941,386.541 150.683,386.467 147.717 C 386.334 142.408,386.541 140.593,387.229 141.018 C 387.451 141.155,387.600 138.595,387.600 134.624 C 387.600 129.003,387.691 128.000,388.200 128.000 C 388.708 128.000,388.800 127.040,388.800 121.757 C 388.800 115.985,388.853 115.533,389.500 115.758 C 390.084 115.961,390.071 115.902,389.424 115.401 C 388.745 114.876,388.733 114.800,389.324 114.800 C 389.932 114.800,390.000 114.131,390.000 108.187 C 390.000 102.824,390.108 101.533,390.572 101.356 C 391.036 101.177,391.133 100.005,391.087 95.131 C 391.037 89.713,391.102 89.086,391.757 88.720 C 392.404 88.358,392.471 87.806,392.374 83.657 C 392.217 77.000,392.311 75.582,392.900 75.700 C 393.279 75.776,393.401 74.545,393.404 70.600 C 393.411 63.178,393.488 62.400,394.224 62.400 C 394.770 62.400,394.815 61.766,394.584 57.300 C 394.321 52.198,394.694 49.640,395.619 50.212 C 395.909 50.391,395.954 48.756,395.763 44.899 C 395.463 38.849,395.705 36.312,396.549 36.636 C 396.965 36.796,397.033 35.719,396.888 31.228 C 396.695 25.252,396.941 22.753,397.707 22.906 C 398.058 22.976,398.153 21.451,398.074 17.000 C 397.967 10.942,398.345 8.745,399.140 10.810 C 399.422 11.541,399.474 11.120,399.340 9.200 C 399.240 7.770,399.064 5.115,398.950 3.300 L 398.741 -0.000 199.371 -0.000 L 0.000 0.000 0.000 1.600 M362.871 36.244 C 363.119 36.397,363.173 37.584,363.013 39.346 C 360.943 62.205,360.486 67.374,359.810 75.600 C 359.476 79.670,359.024 84.710,358.806 86.800 C 358.589 88.890,358.219 92.850,357.985 95.600 C 357.751 98.350,357.298 103.480,356.978 107.000 C 356.659 110.520,356.218 115.650,355.998 118.400 C 355.779 121.150,355.508 124.030,355.396 124.800 C 355.204 126.123,354.401 135.401,353.595 145.600 C 353.395 148.130,353.047 152.000,352.820 154.200 C 352.594 156.400,352.133 161.440,351.797 165.400 C 351.461 169.360,351.006 174.400,350.786 176.600 C 350.566 178.800,350.029 184.740,349.593 189.800 C 348.307 204.702,347.595 212.740,347.184 217.000 C 346.972 219.200,346.615 223.160,346.391 225.800 C 345.761 233.243,344.889 243.134,344.206 250.600 C 343.863 254.340,343.407 259.650,343.193 262.400 C 342.978 265.150,342.630 269.020,342.419 271.000 C 342.208 272.980,341.933 275.950,341.806 277.600 C 341.680 279.250,341.407 282.400,341.199 284.600 C 340.992 286.800,340.550 291.660,340.219 295.400 C 339.887 299.140,339.415 304.360,339.169 307.000 C 338.924 309.640,338.573 313.690,338.390 316.000 C 338.207 318.310,337.863 322.270,337.625 324.800 C 337.388 327.330,336.925 332.550,336.598 336.400 C 336.271 340.250,335.815 345.380,335.585 347.800 C 334.969 354.296,334.015 364.787,333.584 369.800 C 332.264 385.155,332.873 383.556,327.800 384.978 C 325.820 385.532,323.210 386.264,322.000 386.604 C 320.790 386.943,319.170 387.388,318.400 387.592 C 317.630 387.795,315.920 388.259,314.600 388.621 C 313.280 388.984,311.300 389.527,310.200 389.829 C 309.100 390.131,306.310 390.899,304.000 391.535 C 298.339 393.094,290.916 395.126,289.200 395.586 C 287.359 396.079,282.170 397.507,280.400 398.007 C 279.630 398.225,277.380 398.864,275.400 399.428 C 273.420 399.992,270.090 400.900,268.000 401.446 C 264.562 402.344,255.384 404.874,250.800 406.189 C 249.810 406.472,247.920 406.993,246.600 407.346 C 243.652 408.134,235.904 410.253,234.000 410.792 C 232.225 411.295,227.094 412.706,225.000 413.269 C 224.120 413.505,222.590 413.925,221.600 414.201 C 220.610 414.478,218.630 415.014,217.200 415.393 C 215.770 415.771,213.790 416.308,212.800 416.585 C 209.118 417.616,206.141 418.463,204.116 419.055 C 202.969 419.390,201.709 419.603,201.316 419.527 C 200.351 419.341,199.974 36.911,200.937 36.200 C 201.532 35.761,362.160 35.805,362.871 36.244 M183.920 87.680 C 184.672 88.432,184.613 352.525,183.861 353.149 C 183.458 353.484,182.629 353.391,180.561 352.779 C 179.043 352.330,177.080 351.768,176.200 351.532 C 175.320 351.295,173.790 350.866,172.800 350.578 C 171.810 350.290,167.940 349.213,164.200 348.185 C 160.460 347.157,155.690 345.813,153.600 345.198 C 151.510 344.584,149.350 343.993,148.800 343.886 C 148.250 343.779,146.180 343.222,144.200 342.648 C 138.354 340.951,137.987 340.847,133.600 339.642 C 131.290 339.008,127.690 338.001,125.600 337.406 C 123.510 336.810,121.260 336.180,120.600 336.005 C 119.266 335.650,116.598 334.919,111.800 333.591 C 110.040 333.105,108.060 332.561,107.400 332.385 C 106.740 332.208,102.240 330.955,97.400 329.600 C 92.560 328.245,88.060 326.992,87.400 326.815 C 86.740 326.639,84.760 326.092,83.000 325.601 C 81.240 325.109,79.440 324.615,79.000 324.502 C 78.560 324.389,76.670 323.847,74.800 323.297 C 72.930 322.748,70.900 322.210,70.290 322.102 C 67.945 321.688,67.999 322.268,68.006 298.011 C 68.010 285.165,68.168 275.554,68.381 275.217 C 68.769 274.604,69.971 274.814,76.000 276.551 C 78.708 277.331,85.105 279.098,87.800 279.811 C 88.900 280.101,93.130 281.273,97.200 282.413 C 101.270 283.554,105.230 284.658,106.000 284.866 C 107.880 285.375,108.626 285.583,117.200 287.989 C 121.270 289.132,125.140 290.212,125.800 290.390 C 127.175 290.761,129.288 291.354,136.600 293.420 C 143.338 295.324,144.489 295.592,144.878 295.352 C 145.055 295.242,145.200 248.712,145.200 191.950 C 145.200 121.575,145.332 88.501,145.614 87.974 C 146.125 87.018,182.976 86.736,183.920 87.680 " stroke="none" fill="#d4bc34" fill-rule="evenodd"></path></g></svg>
