<svg id="svg" xmlns="http://www.w3.org/2000/svg" xmlns:xlink="http://www.w3.org/1999/xlink" width="100" height="100" viewBox="0, 0, 400,400"><g id="svgg"><path id="path0" d="M107.400 75.811 C 103.816 76.747,102.759 77.147,100.463 78.437 C 88.624 85.088,84.290 99.799,90.669 111.685 C 95.750 121.152,107.703 126.714,117.600 124.216 C 122.633 122.946,124.519 122.049,127.885 119.327 C 130.082 117.550,130.511 117.134,132.051 115.286 C 137.922 108.243,138.791 96.623,134.093 88.000 C 129.967 80.428,120.914 75.116,112.354 75.244 C 110.729 75.269,108.500 75.523,107.400 75.811 M87.600 225.000 L 87.600 312.400 112.400 312.400 L 137.200 312.400 137.200 225.000 L 137.200 137.600 112.400 137.600 L 87.600 137.600 87.600 225.000 M162.800 225.000 L 162.800 312.400 187.600 312.400 L 212.400 312.400 212.400 260.006 C 212.400 205.819,212.378 206.610,214.036 201.658 C 219.831 184.351,249.155 181.790,259.193 197.714 C 259.857 198.767,260.400 199.856,260.400 200.134 C 260.400 200.412,260.559 200.811,260.753 201.020 C 262.562 202.967,262.577 203.415,262.702 259.500 L 262.820 312.400 287.628 312.400 L 312.436 312.400 312.255 259.900 C 312.072 206.588,311.890 199.777,310.367 189.400 C 308.497 176.662,305.940 168.293,301.447 160.200 C 293.234 145.409,277.537 137.610,255.955 137.598 C 248.647 137.594,235.904 139.209,233.505 140.443 C 233.123 140.639,232.484 140.800,232.085 140.800 C 231.686 140.800,231.189 140.943,230.980 141.118 C 230.771 141.293,229.882 141.681,229.004 141.979 C 222.213 144.286,216.687 150.217,214.028 158.054 C 212.501 162.555,212.400 162.001,212.400 149.133 L 212.400 137.600 187.600 137.600 L 162.800 137.600 162.800 225.000 " stroke="none" fill="#fbfbfb" fill-rule="evenodd"></path><path id="path1" d="M17.300 0.288 C 16.585 0.378,16.000 0.619,16.000 0.825 C 16.000 1.031,15.676 1.200,15.280 1.200 C 14.386 1.200,12.407 2.094,12.403 2.500 C 12.401 2.665,12.130 2.800,11.800 2.800 C 11.470 2.800,11.200 2.980,11.200 3.200 C 11.200 3.420,11.023 3.600,10.807 3.600 C 9.863 3.600,3.600 9.863,3.600 10.807 C 3.600 11.023,3.420 11.200,3.200 11.200 C 2.980 11.200,2.800 11.470,2.800 11.800 C 2.800 12.130,2.665 12.401,2.500 12.403 C 2.102 12.407,1.200 14.379,1.200 15.246 C 1.200 15.624,0.975 16.008,0.700 16.100 C -0.083 16.361,-0.030 382.597,0.754 384.239 C 1.058 384.878,1.502 385.850,1.741 386.400 C 3.027 389.360,7.450 394.800,8.571 394.800 C 8.820 394.800,9.283 395.160,9.600 395.600 C 9.917 396.040,10.407 396.400,10.688 396.400 C 10.970 396.400,11.200 396.580,11.200 396.800 C 11.200 397.020,11.470 397.200,11.800 397.200 C 12.130 397.200,12.401 397.335,12.403 397.500 C 12.407 397.898,14.379 398.800,15.246 398.800 C 15.624 398.800,16.008 399.025,16.100 399.300 C 16.345 400.036,383.655 400.036,383.900 399.300 C 383.992 399.025,384.406 398.800,384.821 398.800 C 386.078 398.800,390.517 396.095,391.523 394.716 C 391.810 394.322,392.228 394.000,392.451 394.000 C 392.976 394.000,394.000 392.976,394.000 392.451 C 394.000 392.228,394.322 391.810,394.716 391.523 C 396.095 390.517,398.800 386.078,398.800 384.821 C 398.800 384.406,399.025 383.992,399.300 383.900 C 400.036 383.655,400.036 16.345,399.300 16.100 C 399.025 16.008,398.800 15.624,398.800 15.246 C 398.800 14.379,397.898 12.407,397.500 12.403 C 397.335 12.401,397.200 12.130,397.200 11.800 C 397.200 11.470,397.020 11.200,396.800 11.200 C 396.580 11.200,396.400 10.970,396.400 10.688 C 396.400 10.407,396.040 9.917,395.600 9.600 C 395.160 9.283,394.800 8.820,394.800 8.571 C 394.800 7.415,389.407 3.070,386.200 1.641 C 385.540 1.347,384.640 0.903,384.200 0.653 C 383.435 0.220,20.730 -0.141,17.300 0.288 M118.600 75.372 C 124.610 76.817,131.912 82.460,134.682 87.800 C 142.061 102.026,135.896 117.883,120.600 124.019 C 117.990 125.066,110.062 125.522,107.212 124.789 C 85.006 119.077,79.916 91.624,98.699 78.869 C 100.050 77.951,101.348 77.200,101.583 77.200 C 101.819 77.200,102.413 76.992,102.905 76.738 C 104.846 75.735,105.221 75.600,106.095 75.594 C 106.593 75.591,107.270 75.408,107.600 75.187 C 108.253 74.752,116.604 74.892,118.600 75.372 M137.501 225.103 L 137.602 312.806 112.501 312.703 L 87.400 312.600 87.297 225.400 C 87.241 177.440,87.281 137.974,87.386 137.697 C 87.537 137.299,92.772 137.215,112.489 137.297 L 137.400 137.400 137.501 225.103 M212.800 148.546 C 212.987 158.983,213.036 159.569,213.566 157.746 C 216.257 148.484,224.015 141.979,235.600 139.270 C 236.590 139.039,237.850 138.742,238.400 138.611 C 245.365 136.952,263.643 136.824,270.600 138.385 C 277.507 139.935,279.946 140.739,284.000 142.803 C 284.990 143.307,286.204 143.917,286.697 144.160 C 287.190 144.402,287.595 144.735,287.597 144.900 C 287.599 145.065,287.836 145.200,288.125 145.200 C 288.413 145.200,288.998 145.515,289.425 145.900 C 289.852 146.285,290.834 147.073,291.608 147.650 C 296.606 151.379,302.505 159.628,305.303 166.800 C 305.518 167.350,305.852 168.113,306.047 168.495 C 306.241 168.877,306.400 169.541,306.400 169.971 C 306.400 170.401,306.580 170.864,306.800 171.000 C 307.020 171.136,307.200 171.676,307.200 172.200 C 307.200 172.724,307.360 173.252,307.556 173.373 C 307.751 173.494,308.008 174.179,308.127 174.896 C 308.245 175.613,308.546 177.010,308.796 178.000 C 309.666 181.450,310.651 187.014,311.203 191.600 C 312.509 202.443,312.600 206.876,312.600 259.600 L 312.600 312.600 287.500 312.703 L 262.400 312.806 262.400 261.527 C 262.400 226.203,262.264 209.494,261.963 207.824 C 261.217 203.683,260.540 201.387,259.480 199.400 C 259.245 198.960,258.822 198.143,258.540 197.585 C 258.035 196.588,255.312 193.633,253.706 192.341 C 250.217 189.534,240.544 187.099,235.534 187.766 C 223.449 189.376,217.884 192.988,214.741 201.259 C 213.033 205.753,213.053 205.147,212.823 259.800 L 212.600 312.600 187.500 312.703 L 162.400 312.806 162.400 225.270 C 162.400 177.125,162.521 137.612,162.670 137.464 C 162.818 137.315,174.113 137.240,187.770 137.297 L 212.600 137.400 212.800 148.546 " stroke="none" fill="#047cb4" fill-rule="evenodd"></path><path id="path2" d="M107.600 75.187 C 107.270 75.408,106.593 75.591,106.095 75.594 C 105.221 75.600,104.846 75.735,102.905 76.738 C 102.413 76.992,101.819 77.200,101.583 77.200 C 100.047 77.200,93.918 82.430,91.733 85.607 C 78.628 104.654,96.076 129.992,118.600 124.626 C 124.629 123.189,131.873 117.591,134.678 112.200 C 142.065 98.004,135.888 82.113,120.600 75.981 C 118.180 75.010,108.730 74.433,107.600 75.187 M116.954 75.626 C 123.091 77.213,125.827 78.676,129.620 82.400 C 137.811 90.441,139.569 102.019,134.106 111.953 C 132.155 115.500,131.163 116.675,127.885 119.327 C 115.993 128.944,97.942 125.238,90.669 111.685 C 84.290 99.799,88.624 85.088,100.463 78.437 C 105.379 75.675,112.470 74.466,116.954 75.626 M87.386 137.697 C 87.281 137.974,87.241 177.440,87.297 225.400 L 87.400 312.600 112.501 312.703 L 137.602 312.806 137.501 225.103 L 137.400 137.400 112.489 137.297 C 92.772 137.215,87.537 137.299,87.386 137.697 M162.670 137.464 C 162.521 137.612,162.400 177.125,162.400 225.270 L 162.400 312.806 187.500 312.703 L 212.600 312.600 212.823 259.800 C 212.979 222.590,213.179 206.460,213.497 205.171 C 215.950 195.247,221.741 189.929,231.800 188.365 C 234.915 187.880,235.380 187.669,233.400 187.637 C 225.214 187.506,216.714 193.661,214.036 201.658 C 212.378 206.610,212.400 205.819,212.400 260.006 L 212.400 312.400 187.600 312.400 L 162.800 312.400 162.800 225.000 L 162.800 137.600 187.600 137.600 L 212.400 137.600 212.400 149.133 C 212.400 162.001,212.501 162.555,214.028 158.054 C 216.687 150.217,222.213 144.286,229.004 141.979 C 229.882 141.681,230.771 141.293,230.980 141.118 C 231.189 140.943,231.686 140.800,232.085 140.800 C 232.484 140.800,233.123 140.639,233.505 140.443 C 234.897 139.727,241.055 138.665,247.600 138.014 C 263.721 136.408,279.845 139.721,289.400 146.602 C 300.782 154.799,307.215 167.930,310.367 189.400 C 311.890 199.777,312.072 206.588,312.255 259.900 L 312.436 312.400 287.628 312.400 L 262.820 312.400 262.702 259.500 C 262.577 203.415,262.562 202.967,260.753 201.020 C 260.559 200.811,260.400 200.412,260.400 200.134 C 260.400 195.536,249.988 188.291,242.698 187.816 C 240.724 187.688,240.183 187.736,241.000 187.966 C 241.660 188.153,242.831 188.327,243.602 188.353 C 248.427 188.516,256.466 193.484,258.540 197.585 C 258.822 198.143,259.245 198.960,259.480 199.400 C 260.540 201.387,261.217 203.683,261.963 207.824 C 262.264 209.494,262.400 226.203,262.400 261.527 L 262.400 312.806 287.500 312.703 L 312.600 312.600 312.600 259.600 C 312.600 206.876,312.509 202.443,311.203 191.600 C 310.651 187.014,309.666 181.450,308.796 178.000 C 308.546 177.010,308.245 175.613,308.127 174.896 C 308.008 174.179,307.751 173.494,307.556 173.373 C 307.360 173.252,307.200 172.724,307.200 172.200 C 307.200 171.676,307.020 171.136,306.800 171.000 C 306.580 170.864,306.400 170.401,306.400 169.971 C 306.400 169.541,306.241 168.877,306.047 168.495 C 305.852 168.113,305.518 167.350,305.303 166.800 C 302.505 159.628,296.606 151.379,291.608 147.650 C 290.834 147.073,289.852 146.285,289.425 145.900 C 288.998 145.515,288.413 145.200,288.125 145.200 C 287.836 145.200,287.599 145.065,287.597 144.900 C 287.595 144.735,287.190 144.402,286.697 144.160 C 286.204 143.917,284.990 143.307,284.000 142.803 C 279.946 140.739,277.507 139.935,270.600 138.385 C 263.643 136.824,245.365 136.952,238.400 138.611 C 237.850 138.742,236.590 139.039,235.600 139.270 C 224.015 141.979,216.257 148.484,213.566 157.746 C 213.036 159.569,212.987 158.983,212.800 148.546 L 212.600 137.400 187.770 137.297 C 174.113 137.240,162.818 137.315,162.670 137.464 M137.200 225.000 L 137.200 312.400 112.400 312.400 L 87.600 312.400 87.600 225.000 L 87.600 137.600 112.400 137.600 L 137.200 137.600 137.200 225.000 M236.505 187.487 C 237.114 187.579,238.014 187.577,238.505 187.482 C 238.997 187.387,238.500 187.311,237.400 187.314 C 236.300 187.317,235.897 187.395,236.505 187.487 " stroke="none" fill="#6cb4d4" fill-rule="evenodd"></path></g></svg>
