<svg id="svg" xmlns="http://www.w3.org/2000/svg" xmlns:xlink="http://www.w3.org/1999/xlink" width="80" height="80" viewBox="0, 0, 400,400"><g id="svgg"><path id="path0" d="M0.000 200.000 L 0.000 400.000 200.000 400.000 L 400.000 400.000 400.000 200.000 L 400.000 0.000 200.000 0.000 L 0.000 0.000 0.000 200.000 M39.644 153.911 C 40.219 154.510,41.207 155.794,41.840 156.764 C 42.473 157.734,43.578 159.133,44.296 159.871 C 45.013 160.610,45.600 161.396,45.600 161.617 C 45.600 161.839,46.014 162.177,46.519 162.369 C 47.304 162.668,48.240 163.877,51.305 168.556 C 51.577 168.971,52.178 169.781,52.640 170.356 C 54.893 173.157,57.840 180.142,59.577 186.800 C 60.754 191.312,61.253 202.836,60.417 206.200 C 60.198 207.080,60.015 208.643,60.010 209.673 C 60.001 211.285,58.491 216.255,57.274 218.674 C 57.073 219.073,56.408 220.480,55.797 221.800 C 55.185 223.120,54.185 224.740,53.574 225.400 C 52.964 226.060,52.099 226.995,51.653 227.479 C 51.207 227.962,50.575 228.862,50.248 229.479 C 49.921 230.095,49.146 231.105,48.527 231.723 C 46.528 233.715,43.845 236.000,43.504 236.000 C 41.918 236.000,40.800 238.476,40.800 241.988 C 40.800 247.460,39.299 249.562,38.628 245.031 C 38.528 244.354,38.223 242.422,37.950 240.737 L 37.454 237.674 35.224 236.051 C 32.533 234.091,26.182 227.604,25.812 226.437 C 25.666 225.976,25.390 225.600,25.200 225.600 C 25.010 225.600,24.727 225.195,24.573 224.700 C 24.418 224.205,23.782 223.215,23.158 222.500 C 20.987 220.010,18.848 214.742,17.414 208.350 C 16.581 204.634,16.633 188.563,17.482 187.541 C 17.748 187.222,18.081 186.159,18.222 185.180 C 18.364 184.201,18.912 182.110,19.440 180.533 C 19.968 178.956,20.400 177.316,20.400 176.888 C 20.400 176.460,20.940 175.431,21.600 174.600 C 22.260 173.769,22.800 172.880,22.800 172.623 C 22.800 172.366,23.250 171.545,23.800 170.800 C 24.350 170.055,24.800 169.137,24.800 168.762 C 24.800 168.043,27.473 164.298,29.823 161.725 C 30.589 160.886,31.544 159.840,31.946 159.400 C 32.348 158.960,33.605 157.824,34.740 156.876 C 35.876 155.928,37.078 154.623,37.412 153.976 C 38.155 152.540,38.325 152.536,39.644 153.911 M321.400 184.047 C 323.160 184.295,324.870 184.725,325.200 185.002 C 325.530 185.279,326.250 185.642,326.800 185.809 C 327.350 185.975,328.427 186.447,329.194 186.856 C 329.961 187.265,330.814 187.600,331.089 187.600 C 331.365 187.600,332.044 188.320,332.600 189.200 C 333.156 190.080,333.780 190.800,333.987 190.800 C 334.638 190.800,337.492 196.120,337.784 197.877 C 337.937 198.799,338.318 199.766,338.631 200.026 C 339.593 200.824,339.441 211.338,338.453 212.284 C 338.010 212.709,337.621 213.792,337.497 214.950 C 337.343 216.383,337.019 217.126,336.278 217.750 C 335.723 218.218,334.997 219.140,334.666 219.800 C 333.057 223.002,326.895 227.138,322.000 228.301 C 317.094 229.467,315.387 229.600,305.600 229.576 C 294.063 229.548,293.600 229.495,293.600 228.197 C 293.600 227.459,293.992 227.139,295.614 226.556 C 299.118 225.296,298.883 226.687,298.932 206.920 C 298.980 187.139,299.054 187.747,296.575 187.375 C 293.825 186.963,292.077 185.283,293.215 184.145 C 293.808 183.552,317.314 183.471,321.400 184.047 M370.744 184.564 C 372.583 184.914,374.163 185.200,374.254 185.200 C 374.345 185.200,374.594 185.659,374.808 186.220 C 375.029 186.803,375.707 187.418,376.389 187.656 C 379.545 188.756,379.527 198.433,376.365 200.625 C 373.632 202.518,373.496 204.850,376.085 205.419 C 381.882 206.692,384.485 215.554,380.686 221.090 C 380.117 221.921,379.533 223.080,379.390 223.666 C 379.189 224.491,378.746 224.846,377.434 225.233 C 376.342 225.556,375.521 226.112,375.128 226.796 C 373.729 229.234,355.388 230.833,345.700 229.361 C 343.003 228.952,344.654 226.400,347.615 226.400 C 347.998 226.400,348.705 226.081,349.187 225.691 L 350.062 224.983 350.057 206.696 C 350.052 186.590,350.168 187.727,348.086 187.392 C 345.196 186.929,344.819 186.782,344.374 185.952 C 343.343 184.024,344.877 183.781,357.560 183.864 C 364.647 183.911,368.335 184.107,370.744 184.564 M308.507 187.160 C 307.577 187.320,306.732 187.535,306.631 187.636 C 306.529 187.737,306.391 195.975,306.323 205.942 C 306.183 226.610,305.878 224.927,309.850 225.424 C 311.038 225.572,312.109 225.852,312.229 226.047 C 312.712 226.829,318.097 226.415,321.170 225.359 C 331.414 221.838,335.280 204.715,328.062 194.834 C 325.932 191.918,324.256 190.000,323.833 189.993 C 323.595 189.989,322.644 189.473,321.720 188.846 C 319.707 187.482,312.195 186.523,308.507 187.160 M359.800 187.371 C 359.580 187.458,358.905 187.639,358.300 187.773 L 357.200 188.015 357.200 195.400 L 357.200 202.785 358.203 203.037 C 358.755 203.175,361.185 203.221,363.604 203.138 L 368.002 202.987 369.896 201.094 L 371.789 199.200 371.775 196.100 C 371.756 192.080,370.408 189.631,367.352 188.063 C 366.494 187.623,360.539 187.077,359.800 187.371 M100.224 198.594 C 100.651 198.920,101.630 199.367,102.400 199.586 C 103.216 199.819,104.127 200.476,104.583 201.162 C 105.508 202.553,106.939 202.949,107.765 202.043 C 110.401 199.146,117.246 197.634,120.803 199.162 C 126.043 201.412,126.952 203.745,127.122 215.382 C 127.272 225.703,127.075 225.073,130.564 226.401 C 132.694 227.211,133.271 228.953,131.667 229.730 C 129.856 230.608,117.013 230.317,115.972 229.374 C 114.731 228.252,115.141 227.116,117.042 226.410 C 120.059 225.290,120.000 225.452,120.000 218.229 C 120.000 208.386,118.641 205.444,113.843 204.904 C 112.201 204.719,108.756 205.900,108.169 206.850 C 107.954 207.199,107.950 207.356,107.963 216.702 C 107.975 225.377,108.067 225.720,110.542 226.344 C 112.587 226.859,113.380 228.391,112.209 229.562 C 111.283 230.488,96.744 230.516,95.822 229.593 C 94.966 228.737,96.353 226.400,97.718 226.400 C 100.196 226.400,101.103 219.135,99.873 209.142 L 99.545 206.485 97.152 205.411 C 94.484 204.214,92.381 204.270,90.710 205.585 C 90.208 205.980,89.437 206.373,88.998 206.457 C 88.230 206.605,88.196 206.979,88.093 216.305 L 87.986 226.000 88.967 226.000 C 91.586 226.000,93.582 228.189,92.213 229.559 C 91.256 230.515,76.683 230.454,75.718 229.490 C 74.706 228.478,75.697 226.912,77.689 226.376 C 80.858 225.523,80.800 225.719,80.800 215.781 C 80.800 206.006,80.715 205.685,77.944 204.997 C 74.513 204.146,74.272 201.546,77.569 200.953 C 78.356 200.811,79.180 200.561,79.400 200.397 C 79.620 200.233,80.880 199.968,82.200 199.808 C 83.519 199.648,85.084 199.267,85.678 198.960 C 86.921 198.317,88.000 199.318,88.000 201.116 C 88.000 202.247,88.972 202.079,91.222 200.560 C 92.003 200.032,92.960 199.600,93.348 199.600 C 93.735 199.600,94.446 199.387,94.926 199.126 C 95.682 198.716,97.662 198.194,99.024 198.046 C 99.256 198.021,99.796 198.267,100.224 198.594 M158.363 198.965 C 158.933 199.251,159.979 199.596,160.688 199.730 C 162.042 199.988,162.648 200.415,165.287 202.975 C 170.645 208.173,170.631 221.170,165.261 225.882 C 164.458 226.588,163.440 227.499,163.000 227.907 C 156.911 233.555,141.070 231.114,138.950 224.200 C 138.815 223.760,138.353 222.616,137.923 221.657 C 136.847 219.259,136.977 209.349,138.100 208.109 C 138.485 207.684,138.800 207.028,138.800 206.649 C 138.800 204.748,145.816 199.600,148.407 199.600 C 149.009 199.600,149.718 199.340,149.981 199.022 C 150.877 197.944,156.255 197.907,158.363 198.965 M199.983 198.982 C 200.322 199.288,201.099 199.662,201.709 199.814 C 205.130 200.668,206.786 206.345,206.794 217.251 C 206.801 225.859,206.766 225.735,209.286 226.206 C 211.623 226.643,212.321 228.768,210.749 230.662 C 210.229 231.288,208.162 231.385,207.800 230.800 C 207.459 230.248,200.909 230.297,198.425 230.870 C 196.456 231.324,196.352 231.304,195.241 230.239 C 193.535 228.605,194.832 226.000,197.351 226.000 C 199.261 226.000,199.465 211.914,197.608 208.264 C 196.112 205.325,193.486 204.483,189.519 205.671 C 186.525 206.569,186.400 206.999,186.400 216.425 L 186.400 224.742 187.454 225.571 C 188.034 226.027,188.927 226.400,189.440 226.400 C 190.970 226.400,191.753 228.708,190.700 230.115 C 190.127 230.881,189.969 230.890,181.470 230.615 C 174.308 230.384,174.398 230.408,174.406 228.676 C 174.414 227.009,174.757 226.526,176.193 226.166 C 178.790 225.514,178.874 225.150,178.627 215.613 C 178.380 206.079,178.300 205.806,175.586 205.251 C 170.821 204.276,174.215 200.580,180.610 199.781 C 181.820 199.630,182.909 199.348,183.029 199.153 C 183.149 198.959,183.780 198.800,184.432 198.800 C 185.599 198.800,185.869 199.119,186.555 201.299 C 186.760 201.953,186.859 201.947,188.087 201.202 C 193.065 198.185,198.063 197.252,199.983 198.982 M233.513 198.645 C 235.504 199.508,240.309 200.537,241.800 200.419 C 242.460 200.367,243.900 200.296,245.000 200.262 L 247.000 200.200 247.123 201.895 C 247.271 203.938,245.934 205.592,244.118 205.613 C 242.397 205.632,241.600 206.464,241.597 208.244 C 241.584 215.062,237.997 219.894,232.272 220.807 C 229.518 221.246,226.399 222.384,226.406 222.947 C 226.424 224.269,227.154 224.503,231.855 224.694 C 234.616 224.806,236.934 225.095,237.400 225.386 C 237.840 225.660,239.249 226.015,240.532 226.175 C 242.179 226.380,243.060 226.711,243.532 227.301 C 243.899 227.761,244.570 228.511,245.021 228.968 C 246.500 230.466,247.473 234.619,246.699 236.133 C 246.343 236.830,245.935 237.988,245.792 238.706 C 245.294 241.225,238.872 246.797,235.805 247.373 C 234.968 247.530,233.859 247.936,233.341 248.275 C 231.729 249.332,222.298 248.840,220.200 247.591 C 213.318 243.491,212.479 237.995,217.993 233.141 C 220.761 230.704,220.809 230.542,219.220 229.019 C 216.755 226.657,216.953 225.162,220.092 222.430 L 221.584 221.131 219.655 219.606 C 214.934 215.874,214.259 208.906,218.093 203.478 C 220.536 200.019,229.908 197.082,233.513 198.645 M273.957 199.412 C 276.807 200.376,279.200 201.553,279.200 201.990 C 279.200 202.110,279.616 202.657,280.124 203.204 C 284.594 208.025,284.541 222.098,280.042 225.293 C 279.649 225.572,279.125 226.180,278.879 226.645 C 278.632 227.110,277.839 227.724,277.115 228.010 C 276.392 228.296,275.440 228.837,275.000 229.213 C 272.895 231.011,265.831 231.755,261.850 230.597 C 254.593 228.488,251.392 223.642,251.413 214.800 C 251.437 205.033,254.981 201.273,267.000 198.263 C 268.299 197.938,270.841 198.358,273.957 199.412 M149.600 203.467 C 143.333 206.070,143.608 220.113,150.025 225.138 C 151.700 226.450,156.552 226.612,157.871 225.400 C 158.351 224.960,159.019 224.374,159.356 224.098 C 161.027 222.732,161.572 214.701,160.260 210.800 C 158.474 205.493,153.297 201.931,149.600 203.467 M224.661 204.627 C 222.445 207.404,223.590 214.552,226.546 216.398 C 228.689 217.737,232.356 216.819,233.469 214.666 C 236.834 208.159,228.983 199.211,224.661 204.627 M261.717 205.133 C 258.963 207.805,258.598 217.196,261.107 220.837 C 261.803 221.848,262.554 223.153,262.776 223.737 C 263.023 224.387,263.484 224.800,263.962 224.800 C 264.391 224.800,265.045 225.102,265.414 225.471 C 266.355 226.412,270.822 226.461,271.858 225.541 C 272.266 225.179,272.960 224.817,273.400 224.737 C 274.017 224.625,274.300 224.087,274.636 222.389 C 274.876 221.178,275.281 219.797,275.536 219.320 C 276.161 218.151,276.121 215.602,275.444 213.514 C 275.139 212.571,274.796 211.161,274.683 210.381 C 274.532 209.340,273.820 208.274,272.015 206.383 L 269.553 203.804 266.464 203.664 L 263.376 203.523 261.717 205.133 M357.716 206.893 C 357.163 207.504,357.109 208.659,357.300 215.808 C 357.543 224.880,357.594 225.062,360.061 225.456 C 360.917 225.593,361.714 225.861,361.832 226.053 C 362.692 227.443,372.219 225.332,372.872 223.606 C 373.082 223.053,373.581 222.240,373.981 221.800 C 377.446 217.989,374.458 209.690,368.857 207.571 C 365.593 206.337,358.605 205.911,357.716 206.893 M226.076 231.849 C 221.628 233.834,220.837 238.253,224.341 241.548 L 226.200 243.297 230.000 243.348 C 237.965 243.457,242.514 238.928,238.700 234.688 C 236.974 232.770,228.356 230.831,226.076 231.849 " stroke="none" fill="#fbfbfb" fill-rule="evenodd"></path><path id="path1" d="M35.000 159.415 C 33.240 161.071,31.395 162.596,30.900 162.803 C 30.404 163.011,30.000 163.530,30.000 163.958 C 30.000 164.386,29.035 165.875,27.855 167.268 C 26.533 168.828,25.444 170.611,25.019 171.912 C 24.638 173.074,23.894 174.540,23.364 175.170 C 22.834 175.800,22.400 176.688,22.400 177.143 C 22.400 177.598,22.050 178.922,21.623 180.085 C 20.263 183.789,19.166 188.818,18.206 195.750 C 17.851 198.317,19.417 209.945,20.475 212.600 C 21.708 215.691,23.220 218.843,24.213 220.392 C 24.709 221.166,25.229 222.453,25.367 223.252 C 25.573 224.442,25.823 224.745,26.753 224.931 C 27.527 225.085,28.091 225.579,28.522 226.479 C 29.190 227.872,33.331 232.086,35.455 233.535 C 37.035 234.612,37.401 234.229,37.779 231.100 C 37.932 229.835,38.180 228.801,38.329 228.803 C 38.750 228.807,40.327 231.272,40.828 232.709 C 41.556 234.797,42.758 234.455,46.445 231.110 C 48.197 229.521,49.734 227.807,49.860 227.302 C 49.987 226.797,50.670 225.892,51.377 225.292 C 52.803 224.082,55.412 219.209,56.780 215.200 C 57.269 213.770,57.825 212.411,58.016 212.181 C 59.368 210.551,59.521 189.365,58.195 187.471 C 57.868 187.004,57.600 186.284,57.600 185.871 C 57.600 185.459,57.338 184.554,57.018 183.860 C 56.274 182.249,55.251 179.446,54.661 177.400 C 54.408 176.520,53.873 175.350,53.474 174.800 C 52.010 172.782,50.000 169.520,50.000 169.162 C 50.000 168.959,49.054 167.760,47.897 166.497 C 46.740 165.233,44.446 162.580,42.798 160.600 C 38.481 155.412,39.147 155.513,35.000 159.415 M95.654 199.997 C 94.228 200.214,92.953 200.743,91.854 201.574 C 88.544 204.077,87.200 204.067,87.200 201.538 C 87.200 199.588,86.751 199.586,79.882 201.500 C 76.673 202.395,76.539 202.692,78.802 203.889 C 81.785 205.466,81.600 204.709,81.600 215.360 C 81.600 225.994,81.497 226.496,79.200 227.000 C 78.104 227.241,76.578 228.711,76.993 229.126 C 77.275 229.409,88.731 229.514,89.966 229.246 C 91.512 228.910,90.988 227.298,89.219 226.944 C 87.300 226.560,87.250 226.305,87.155 216.292 C 87.053 205.474,86.942 205.866,90.600 204.147 C 93.800 202.644,100.000 203.801,100.000 205.901 C 100.000 206.292,100.360 207.284,100.800 208.104 C 101.521 209.450,101.600 210.361,101.600 217.329 C 101.600 225.875,101.465 226.328,98.714 227.010 C 97.662 227.271,96.848 228.582,97.397 229.130 C 97.728 229.461,107.069 229.608,109.725 229.324 C 111.968 229.084,111.630 228.245,108.684 226.741 C 106.521 225.637,106.366 224.873,106.434 215.639 C 106.500 206.575,106.877 205.068,109.200 204.562 C 109.750 204.442,110.985 204.064,111.944 203.722 C 113.976 202.998,115.969 203.395,118.479 205.024 C 120.561 206.375,120.795 207.636,120.798 217.532 L 120.800 226.064 119.238 226.678 C 117.128 227.507,116.732 229.049,118.562 229.312 C 120.621 229.608,130.310 229.423,130.652 229.081 C 131.179 228.555,130.235 227.483,128.828 227.010 C 126.487 226.221,126.400 225.864,126.398 217.024 C 126.395 203.292,123.744 199.073,115.600 199.844 C 113.034 200.087,112.290 200.445,108.106 203.448 C 106.880 204.328,105.493 203.900,103.904 202.154 C 101.850 199.897,99.813 199.364,95.654 199.997 M149.933 200.126 C 148.467 200.387,146.937 200.894,146.533 201.253 C 146.130 201.612,145.418 202.022,144.950 202.164 C 143.888 202.487,139.600 206.937,139.600 207.716 C 139.600 208.033,139.204 208.796,138.719 209.412 C 137.943 210.399,137.840 211.006,137.847 214.566 C 137.861 220.867,139.966 224.784,145.203 228.250 C 148.123 230.182,156.352 230.356,158.989 228.543 C 159.423 228.244,160.092 228.000,160.476 228.000 C 161.553 228.000,165.330 224.421,165.936 222.826 C 168.966 214.852,168.974 210.680,165.966 205.960 C 162.611 200.694,157.401 198.799,149.933 200.126 M193.152 200.000 C 191.514 200.414,189.035 201.748,187.712 202.926 C 186.663 203.860,185.600 203.308,185.600 201.831 C 185.600 199.871,183.459 199.446,180.456 200.809 C 179.497 201.244,178.270 201.600,177.730 201.600 C 174.700 201.600,174.309 203.640,177.158 204.586 C 179.657 205.416,179.588 205.089,179.595 216.100 C 179.601 226.201,179.520 226.516,176.799 227.060 C 175.653 227.289,174.907 228.402,175.383 229.172 C 175.692 229.672,189.500 229.685,189.809 229.186 C 190.259 228.457,189.251 227.395,187.532 226.787 L 185.800 226.175 185.693 216.569 L 185.586 206.963 186.766 205.833 C 188.789 203.895,194.990 203.291,196.959 204.839 C 199.621 206.933,200.028 208.735,199.908 217.903 L 199.800 226.200 197.931 226.762 C 196.129 227.303,195.158 228.518,195.918 229.278 C 196.372 229.732,209.632 229.728,210.085 229.275 C 210.910 228.450,210.000 227.209,208.381 226.951 C 205.886 226.552,205.828 226.354,205.533 217.239 C 205.040 202.011,201.989 197.763,193.152 200.000 M227.400 199.971 C 224.243 200.352,222.836 201.009,220.060 203.393 C 215.726 207.117,216.391 216.309,221.180 218.852 C 223.116 219.881,224.013 222.800,222.394 222.800 C 222.178 222.800,221.299 223.436,220.439 224.212 C 218.586 225.886,218.649 226.865,220.721 228.600 C 222.504 230.094,222.400 231.791,220.462 232.826 C 218.946 233.635,216.519 236.161,215.989 237.480 C 214.839 240.341,219.131 246.433,222.699 247.004 C 223.525 247.136,224.513 247.414,224.895 247.622 C 226.042 248.247,229.638 248.040,232.336 247.195 C 233.730 246.758,235.215 246.400,235.635 246.400 C 238.037 246.400,243.990 240.372,245.003 236.914 C 246.761 230.914,243.670 227.313,236.000 226.423 C 231.669 225.921,227.421 225.309,226.100 224.997 C 225.387 224.829,225.200 224.505,225.200 223.438 C 225.200 221.713,226.378 220.902,229.722 220.324 C 236.430 219.165,240.539 214.779,240.519 208.800 C 240.507 205.258,240.707 204.923,243.040 204.573 C 245.042 204.273,246.457 202.903,246.115 201.595 C 245.882 200.704,245.149 200.585,243.924 201.241 C 242.652 201.922,239.169 201.718,237.187 200.846 C 235.118 199.936,230.848 199.554,227.400 199.971 M264.790 199.959 C 263.389 200.112,262.161 200.530,261.436 201.100 C 260.807 201.595,260.020 202.000,259.687 202.000 C 255.790 202.000,251.437 211.113,252.519 217.006 C 254.300 226.705,259.609 230.686,269.301 229.589 C 281.658 228.189,287.497 210.989,278.212 203.339 C 275.154 200.819,274.378 200.375,272.377 199.996 C 270.165 199.576,268.376 199.567,264.790 199.959 M154.513 202.402 C 159.711 204.008,162.653 209.544,162.284 217.023 C 161.920 224.393,160.132 226.881,155.018 227.130 C 148.282 227.458,144.164 222.462,143.700 213.396 C 143.264 204.885,147.758 200.316,154.513 202.402 M231.403 202.282 C 234.355 203.690,236.589 209.711,235.250 212.650 C 235.002 213.193,234.794 214.034,234.787 214.519 C 234.750 217.096,229.076 219.286,226.498 217.718 C 218.030 212.568,222.628 198.097,231.403 202.282 M269.242 202.405 C 271.063 202.911,275.199 207.120,275.202 208.470 C 275.204 208.982,275.505 209.940,275.872 210.600 C 276.932 212.509,276.838 219.921,275.717 222.800 C 273.395 228.762,264.878 228.786,260.935 222.843 C 254.078 212.507,259.306 199.645,269.242 202.405 M236.438 231.446 C 243.540 232.976,241.690 243.413,234.175 244.217 C 224.150 245.291,218.213 240.984,221.380 234.935 C 223.422 231.035,228.775 229.794,236.438 231.446 " stroke="none" fill="#547148" fill-rule="evenodd"></path><path id="path2" d="M37.412 153.976 C 37.078 154.623,35.876 155.928,34.740 156.876 C 33.605 157.824,32.348 158.960,31.946 159.400 C 31.544 159.840,30.589 160.886,29.823 161.725 C 27.473 164.298,24.800 168.043,24.800 168.762 C 24.800 169.137,24.350 170.055,23.800 170.800 C 23.250 171.545,22.800 172.366,22.800 172.623 C 22.800 172.880,22.260 173.769,21.600 174.600 C 20.940 175.431,20.400 176.460,20.400 176.888 C 20.400 177.316,19.968 178.956,19.440 180.533 C 18.912 182.110,18.364 184.201,18.222 185.180 C 18.081 186.159,17.748 187.222,17.482 187.541 C 16.633 188.563,16.581 204.634,17.414 208.350 C 18.848 214.742,20.987 220.010,23.158 222.500 C 23.782 223.215,24.418 224.205,24.573 224.700 C 24.727 225.195,25.010 225.600,25.200 225.600 C 25.390 225.600,25.666 225.976,25.812 226.437 C 26.182 227.604,32.533 234.091,35.224 236.051 L 37.454 237.674 37.950 240.737 C 38.223 242.422,38.528 244.354,38.628 245.031 C 39.299 249.562,40.800 247.460,40.800 241.988 C 40.800 238.476,41.918 236.000,43.504 236.000 C 43.845 236.000,46.528 233.715,48.527 231.723 C 49.146 231.105,49.921 230.095,50.248 229.479 C 50.575 228.862,51.207 227.962,51.653 227.479 C 52.099 226.995,52.964 226.060,53.574 225.400 C 54.185 224.740,55.185 223.120,55.797 221.800 C 56.408 220.480,57.073 219.073,57.274 218.674 C 58.491 216.255,60.001 211.285,60.010 209.673 C 60.015 208.643,60.198 207.080,60.417 206.200 C 61.253 202.836,60.754 191.312,59.577 186.800 C 57.840 180.142,54.893 173.157,52.640 170.356 C 52.178 169.781,51.577 168.971,51.305 168.556 C 48.240 163.877,47.304 162.668,46.519 162.369 C 46.014 162.177,45.600 161.839,45.600 161.617 C 45.600 161.396,45.013 160.610,44.296 159.871 C 43.578 159.133,42.473 157.734,41.840 156.764 C 39.320 152.904,38.299 152.261,37.412 153.976 M39.401 156.706 C 39.622 156.868,41.151 158.620,42.798 160.600 C 44.446 162.580,46.740 165.233,47.897 166.497 C 49.054 167.760,50.000 168.959,50.000 169.162 C 50.000 169.520,52.010 172.782,53.474 174.800 C 53.873 175.350,54.408 176.520,54.661 177.400 C 55.251 179.446,56.274 182.249,57.018 183.860 C 57.338 184.554,57.600 185.459,57.600 185.871 C 57.600 186.284,57.868 187.004,58.195 187.471 C 59.521 189.365,59.368 210.551,58.016 212.181 C 57.825 212.411,57.269 213.770,56.780 215.200 C 55.412 219.209,52.803 224.082,51.377 225.292 C 50.670 225.892,49.987 226.797,49.860 227.302 C 49.734 227.807,48.197 229.521,46.445 231.110 C 42.758 234.455,41.556 234.797,40.828 232.709 C 40.327 231.272,38.750 228.807,38.329 228.803 C 38.180 228.801,37.932 229.835,37.779 231.100 C 37.401 234.229,37.035 234.612,35.455 233.535 C 33.331 232.086,29.190 227.872,28.522 226.479 C 28.091 225.579,27.527 225.085,26.753 224.931 C 25.823 224.745,25.573 224.442,25.367 223.252 C 25.229 222.453,24.709 221.166,24.213 220.392 C 23.220 218.843,21.708 215.691,20.475 212.600 C 19.417 209.945,17.851 198.317,18.206 195.750 C 19.166 188.818,20.263 183.789,21.623 180.085 C 22.050 178.922,22.400 177.598,22.400 177.143 C 22.400 176.688,22.834 175.800,23.364 175.170 C 23.894 174.540,24.638 173.074,25.019 171.912 C 25.444 170.611,26.533 168.828,27.855 167.268 C 29.035 165.875,30.000 164.386,30.000 163.958 C 30.000 163.530,30.404 163.011,30.900 162.803 C 31.395 162.596,33.240 161.071,35.000 159.415 C 38.181 156.422,38.633 156.144,39.401 156.706 M293.215 184.145 C 292.077 185.283,293.825 186.963,296.575 187.375 C 299.054 187.747,298.980 187.139,298.932 206.920 C 298.883 226.687,299.118 225.296,295.614 226.556 C 293.992 227.139,293.600 227.459,293.600 228.197 C 293.600 229.495,294.063 229.548,305.600 229.576 C 315.387 229.600,317.094 229.467,322.000 228.301 C 326.895 227.138,333.057 223.002,334.666 219.800 C 334.997 219.140,335.723 218.218,336.278 217.750 C 337.019 217.126,337.343 216.383,337.497 214.950 C 337.621 213.792,338.010 212.709,338.453 212.284 C 339.441 211.338,339.593 200.824,338.631 200.026 C 338.318 199.766,337.937 198.799,337.784 197.877 C 337.492 196.120,334.638 190.800,333.987 190.800 C 333.780 190.800,333.156 190.080,332.600 189.200 C 332.044 188.320,331.365 187.600,331.089 187.600 C 330.814 187.600,329.961 187.265,329.194 186.856 C 328.427 186.447,327.350 185.975,326.800 185.809 C 326.250 185.642,325.530 185.279,325.200 185.002 C 323.654 183.704,294.439 182.921,293.215 184.145 M346.240 184.040 C 344.298 184.356,343.796 184.871,344.374 185.952 C 344.819 186.782,345.196 186.929,348.086 187.392 C 350.168 187.727,350.052 186.590,350.057 206.696 L 350.062 224.983 349.187 225.691 C 348.705 226.081,347.998 226.400,347.615 226.400 C 344.654 226.400,343.003 228.952,345.700 229.361 C 355.388 230.833,373.729 229.234,375.128 226.796 C 375.521 226.112,376.342 225.556,377.434 225.233 C 378.746 224.846,379.189 224.491,379.390 223.666 C 379.533 223.080,380.117 221.921,380.686 221.090 C 384.485 215.554,381.882 206.692,376.085 205.419 C 373.496 204.850,373.632 202.518,376.365 200.625 C 379.527 198.433,379.545 188.756,376.389 187.656 C 375.707 187.418,375.029 186.803,374.808 186.220 C 374.594 185.659,374.345 185.200,374.254 185.200 C 374.163 185.200,372.583 184.914,370.744 184.564 C 367.302 183.910,349.400 183.527,346.240 184.040 M317.120 187.445 C 319.393 187.649,320.411 187.960,321.720 188.846 C 322.644 189.473,323.595 189.989,323.833 189.993 C 324.256 190.000,325.932 191.918,328.062 194.834 C 335.280 204.715,331.414 221.838,321.170 225.359 C 318.097 226.415,312.712 226.829,312.229 226.047 C 312.109 225.852,311.038 225.572,309.850 225.424 C 305.878 224.927,306.183 226.610,306.323 205.942 C 306.391 195.975,306.529 187.737,306.631 187.636 C 306.732 187.535,307.577 187.320,308.507 187.160 C 310.161 186.874,311.134 186.906,317.120 187.445 M367.352 188.063 C 370.408 189.631,371.756 192.080,371.775 196.100 L 371.789 199.200 369.896 201.094 L 368.002 202.987 363.604 203.138 C 361.185 203.221,358.755 203.175,358.203 203.037 L 357.200 202.785 357.200 195.400 L 357.200 188.015 358.300 187.773 C 358.905 187.639,359.580 187.458,359.800 187.371 C 360.539 187.077,366.494 187.623,367.352 188.063 M97.200 198.372 C 96.430 198.526,95.407 198.865,94.926 199.126 C 94.446 199.387,93.735 199.600,93.348 199.600 C 92.960 199.600,92.003 200.032,91.222 200.560 C 88.972 202.079,88.000 202.247,88.000 201.116 C 88.000 199.318,86.921 198.317,85.678 198.960 C 85.084 199.267,83.519 199.648,82.200 199.808 C 80.880 199.968,79.620 200.233,79.400 200.397 C 79.180 200.561,78.356 200.811,77.569 200.953 C 74.272 201.546,74.513 204.146,77.944 204.997 C 80.715 205.685,80.800 206.006,80.800 215.781 C 80.800 225.719,80.858 225.523,77.689 226.376 C 75.697 226.912,74.706 228.478,75.718 229.490 C 76.683 230.454,91.256 230.515,92.213 229.559 C 93.582 228.189,91.586 226.000,88.967 226.000 L 87.986 226.000 88.093 216.305 C 88.196 206.979,88.230 206.605,88.998 206.457 C 89.437 206.373,90.208 205.980,90.710 205.585 C 92.381 204.270,94.484 204.214,97.152 205.411 L 99.545 206.485 99.873 209.142 C 101.103 219.135,100.196 226.400,97.718 226.400 C 96.353 226.400,94.966 228.737,95.822 229.593 C 96.744 230.516,111.283 230.488,112.209 229.562 C 113.380 228.391,112.587 226.859,110.542 226.344 C 108.067 225.720,107.975 225.377,107.963 216.702 C 107.950 207.356,107.954 207.199,108.169 206.850 C 108.756 205.900,112.201 204.719,113.843 204.904 C 118.641 205.444,120.000 208.386,120.000 218.229 C 120.000 225.452,120.059 225.290,117.042 226.410 C 115.141 227.116,114.731 228.252,115.972 229.374 C 117.013 230.317,129.856 230.608,131.667 229.730 C 133.271 228.953,132.694 227.211,130.564 226.401 C 127.075 225.073,127.272 225.703,127.122 215.382 C 126.952 203.745,126.043 201.412,120.803 199.162 C 117.246 197.634,110.401 199.146,107.765 202.043 C 106.939 202.949,105.508 202.553,104.583 201.162 C 104.127 200.476,103.216 199.819,102.400 199.586 C 101.630 199.367,100.651 198.920,100.224 198.594 C 99.388 197.955,99.312 197.950,97.200 198.372 M151.930 198.271 C 151.122 198.367,150.245 198.705,149.981 199.022 C 149.718 199.340,149.009 199.600,148.407 199.600 C 145.816 199.600,138.800 204.748,138.800 206.649 C 138.800 207.028,138.485 207.684,138.100 208.109 C 136.977 209.349,136.847 219.259,137.923 221.657 C 138.353 222.616,138.815 223.760,138.950 224.200 C 141.070 231.114,156.911 233.555,163.000 227.907 C 163.440 227.499,164.458 226.588,165.261 225.882 C 170.631 221.170,170.645 208.173,165.287 202.975 C 162.648 200.415,162.042 199.988,160.688 199.730 C 159.979 199.596,158.933 199.251,158.363 198.965 C 157.155 198.359,154.038 198.022,151.930 198.271 M193.000 198.828 C 190.015 200.094,189.521 200.333,188.087 201.202 C 186.859 201.947,186.760 201.953,186.555 201.299 C 185.869 199.119,185.599 198.800,184.432 198.800 C 183.780 198.800,183.149 198.959,183.029 199.153 C 182.909 199.348,181.820 199.630,180.610 199.781 C 174.215 200.580,170.821 204.276,175.586 205.251 C 178.300 205.806,178.380 206.079,178.627 215.613 C 178.874 225.150,178.790 225.514,176.193 226.166 C 174.757 226.526,174.414 227.009,174.406 228.676 C 174.398 230.408,174.308 230.384,181.470 230.615 C 189.969 230.890,190.127 230.881,190.700 230.115 C 191.753 228.708,190.970 226.400,189.440 226.400 C 188.927 226.400,188.034 226.027,187.454 225.571 L 186.400 224.742 186.400 216.425 C 186.400 206.999,186.525 206.569,189.519 205.671 C 193.486 204.483,196.112 205.325,197.608 208.264 C 199.465 211.914,199.261 226.000,197.351 226.000 C 194.832 226.000,193.535 228.605,195.241 230.239 C 196.352 231.304,196.456 231.324,198.425 230.870 C 200.909 230.297,207.459 230.248,207.800 230.800 C 208.162 231.385,210.229 231.288,210.749 230.662 C 212.321 228.768,211.623 226.643,209.286 226.206 C 206.766 225.735,206.801 225.859,206.794 217.251 C 206.786 206.345,205.130 200.668,201.709 199.814 C 201.099 199.662,200.322 199.288,199.983 198.982 C 198.849 197.960,195.234 197.880,193.000 198.828 M225.800 199.144 C 223.820 199.736,221.454 200.702,220.543 201.289 C 214.385 205.254,213.910 215.065,219.655 219.606 L 221.584 221.131 220.092 222.430 C 216.953 225.162,216.755 226.657,219.220 229.019 C 220.809 230.542,220.761 230.704,217.993 233.141 C 212.479 237.995,213.318 243.491,220.200 247.591 C 222.298 248.840,231.729 249.332,233.341 248.275 C 233.859 247.936,234.968 247.530,235.805 247.373 C 238.872 246.797,245.294 241.225,245.792 238.706 C 245.935 237.988,246.343 236.830,246.699 236.133 C 247.473 234.619,246.500 230.466,245.021 228.968 C 244.570 228.511,243.899 227.761,243.532 227.301 C 243.060 226.711,242.179 226.380,240.532 226.175 C 239.249 226.015,237.840 225.660,237.400 225.386 C 236.934 225.095,234.616 224.806,231.855 224.694 C 227.154 224.503,226.424 224.269,226.406 222.947 C 226.399 222.384,229.518 221.246,232.272 220.807 C 237.997 219.894,241.584 215.062,241.597 208.244 C 241.600 206.464,242.397 205.632,244.118 205.613 C 245.934 205.592,247.271 203.938,247.123 201.895 L 247.000 200.200 245.000 200.262 C 243.900 200.296,242.460 200.367,241.800 200.419 C 240.309 200.537,235.504 199.508,233.513 198.645 C 231.511 197.777,230.053 197.871,225.800 199.144 M267.000 198.263 C 254.981 201.273,251.437 205.033,251.413 214.800 C 251.392 223.642,254.593 228.488,261.850 230.597 C 265.831 231.755,272.895 231.011,275.000 229.213 C 275.440 228.837,276.392 228.296,277.115 228.010 C 277.839 227.724,278.632 227.110,278.879 226.645 C 279.125 226.180,279.649 225.572,280.042 225.293 C 284.541 222.098,284.594 208.025,280.124 203.204 C 279.616 202.657,279.200 202.110,279.200 201.990 C 279.200 200.693,269.334 197.679,267.000 198.263 M102.000 200.400 C 102.330 200.577,103.187 201.366,103.904 202.154 C 105.493 203.900,106.880 204.328,108.106 203.448 C 112.290 200.445,113.034 200.087,115.600 199.844 C 123.744 199.073,126.395 203.292,126.398 217.024 C 126.400 225.864,126.487 226.221,128.828 227.010 C 130.235 227.483,131.179 228.555,130.652 229.081 C 130.310 229.423,120.621 229.608,118.562 229.312 C 116.732 229.049,117.128 227.507,119.238 226.678 L 120.800 226.064 120.798 217.532 C 120.795 207.636,120.561 206.375,118.479 205.024 C 115.969 203.395,113.976 202.998,111.944 203.722 C 110.985 204.064,109.750 204.442,109.200 204.562 C 106.877 205.068,106.500 206.575,106.434 215.639 C 106.366 224.873,106.521 225.637,108.684 226.741 C 111.630 228.245,111.968 229.084,109.725 229.324 C 107.069 229.608,97.728 229.461,97.397 229.130 C 96.848 228.582,97.662 227.271,98.714 227.010 C 101.465 226.328,101.600 225.875,101.600 217.329 C 101.600 210.361,101.521 209.450,100.800 208.104 C 100.360 207.284,100.000 206.292,100.000 205.901 C 100.000 203.801,93.800 202.644,90.600 204.147 C 86.942 205.866,87.053 205.474,87.155 216.292 C 87.250 226.305,87.300 226.560,89.219 226.944 C 90.988 227.298,91.512 228.910,89.966 229.246 C 88.731 229.514,77.275 229.409,76.993 229.126 C 76.578 228.711,78.104 227.241,79.200 227.000 C 81.497 226.496,81.600 225.994,81.600 215.360 C 81.600 204.709,81.785 205.466,78.802 203.889 C 76.539 202.692,76.673 202.395,79.882 201.500 C 86.751 199.586,87.200 199.588,87.200 201.538 C 87.200 204.067,88.544 204.077,91.854 201.574 C 94.197 199.803,99.695 199.166,102.000 200.400 M159.890 200.434 C 164.120 202.042,168.400 208.822,168.400 213.912 C 168.400 215.053,167.093 219.781,165.936 222.826 C 165.330 224.421,161.553 228.000,160.476 228.000 C 160.092 228.000,159.423 228.244,158.989 228.543 C 153.198 232.526,142.635 228.809,139.260 221.600 C 137.440 217.711,137.159 211.395,138.719 209.412 C 139.204 208.796,139.600 208.033,139.600 207.716 C 139.600 206.937,143.888 202.487,144.950 202.164 C 145.418 202.022,146.130 201.612,146.533 201.253 C 148.116 199.844,156.919 199.305,159.890 200.434 M200.486 200.343 C 203.849 201.664,205.173 206.096,205.533 217.239 C 205.828 226.354,205.886 226.552,208.381 226.951 C 210.000 227.209,210.910 228.450,210.085 229.275 C 209.632 229.728,196.372 229.732,195.918 229.278 C 195.158 228.518,196.129 227.303,197.931 226.762 L 199.800 226.200 199.908 217.903 C 200.028 208.735,199.621 206.933,196.959 204.839 C 194.990 203.291,188.789 203.895,186.766 205.833 L 185.586 206.963 185.693 216.569 L 185.800 226.175 187.532 226.787 C 189.251 227.395,190.259 228.457,189.809 229.186 C 189.500 229.685,175.692 229.672,175.383 229.172 C 174.907 228.402,175.653 227.289,176.799 227.060 C 179.520 226.516,179.601 226.201,179.595 216.100 C 179.588 205.089,179.657 205.416,177.158 204.586 C 174.309 203.640,174.700 201.600,177.730 201.600 C 178.270 201.600,179.497 201.244,180.456 200.809 C 183.459 199.446,185.600 199.871,185.600 201.831 C 185.600 203.308,186.663 203.860,187.712 202.926 C 191.021 199.978,196.658 198.839,200.486 200.343 M237.187 200.846 C 239.169 201.718,242.652 201.922,243.924 201.241 C 245.149 200.585,245.882 200.704,246.115 201.595 C 246.457 202.903,245.042 204.273,243.040 204.573 C 240.707 204.923,240.507 205.258,240.519 208.800 C 240.539 214.779,236.430 219.165,229.722 220.324 C 226.378 220.902,225.200 221.713,225.200 223.438 C 225.200 224.505,225.387 224.829,226.100 224.997 C 227.421 225.309,231.669 225.921,236.000 226.423 C 243.670 227.313,246.761 230.914,245.003 236.914 C 243.990 240.372,238.037 246.400,235.635 246.400 C 235.215 246.400,233.730 246.758,232.336 247.195 C 229.638 248.040,226.042 248.247,224.895 247.622 C 224.513 247.414,223.525 247.136,222.699 247.004 C 219.131 246.433,214.839 240.341,215.989 237.480 C 216.519 236.161,218.946 233.635,220.462 232.826 C 222.400 231.791,222.504 230.094,220.721 228.600 C 218.649 226.865,218.586 225.886,220.439 224.212 C 221.299 223.436,222.178 222.800,222.394 222.800 C 224.013 222.800,223.116 219.881,221.180 218.852 C 216.391 216.309,215.726 207.117,220.060 203.393 C 224.438 199.633,231.903 198.522,237.187 200.846 M272.377 199.996 C 275.805 200.646,279.107 203.490,281.088 207.500 C 288.436 222.367,269.464 237.188,256.950 226.357 C 253.453 223.330,251.330 216.035,252.591 211.377 C 253.770 207.022,257.570 202.000,259.687 202.000 C 260.020 202.000,260.807 201.595,261.436 201.100 C 263.072 199.812,268.513 199.263,272.377 199.996 M149.369 202.167 C 140.677 205.952,141.918 222.653,151.200 226.819 C 153.246 227.737,157.661 227.138,159.397 225.707 C 162.874 222.841,163.424 213.648,160.480 207.604 C 158.365 203.262,152.945 200.610,149.369 202.167 M225.652 202.106 C 218.719 205.717,222.532 219.692,229.982 217.978 C 233.550 217.157,234.762 216.285,234.787 214.519 C 234.794 214.034,235.002 213.193,235.250 212.650 C 237.812 207.027,230.862 199.392,225.652 202.106 M261.525 203.700 C 256.975 207.899,256.711 216.476,260.935 222.843 C 264.878 228.786,273.395 228.762,275.717 222.800 C 276.838 219.921,276.932 212.509,275.872 210.600 C 275.505 209.940,275.204 208.982,275.202 208.470 C 275.199 207.120,271.063 202.911,269.242 202.405 C 265.842 201.461,263.531 201.848,261.525 203.700 M155.399 204.226 C 160.433 206.615,163.276 220.893,159.356 224.098 C 159.019 224.374,158.351 224.960,157.871 225.400 C 156.552 226.612,151.700 226.450,150.025 225.138 C 144.816 221.059,143.226 208.241,147.512 204.882 C 149.924 202.992,152.369 202.789,155.399 204.226 M231.127 204.012 C 234.450 206.038,235.180 213.927,232.268 216.344 C 231.502 216.979,227.536 217.017,226.546 216.398 C 223.590 214.552,222.445 207.404,224.661 204.627 C 226.056 202.879,228.835 202.615,231.127 204.012 M272.015 206.383 C 273.820 208.274,274.532 209.340,274.683 210.381 C 274.796 211.161,275.139 212.571,275.444 213.514 C 276.121 215.602,276.161 218.151,275.536 219.320 C 275.281 219.797,274.876 221.178,274.636 222.389 C 274.300 224.087,274.017 224.625,273.400 224.737 C 272.960 224.817,272.266 225.179,271.858 225.541 C 270.822 226.461,266.355 226.412,265.414 225.471 C 265.045 225.102,264.391 224.800,263.962 224.800 C 263.484 224.800,263.023 224.387,262.776 223.737 C 262.554 223.153,261.803 221.848,261.107 220.837 C 258.598 217.196,258.963 207.805,261.717 205.133 L 263.376 203.523 266.464 203.664 L 269.553 203.804 272.015 206.383 M368.857 207.571 C 374.458 209.690,377.446 217.989,373.981 221.800 C 373.581 222.240,373.082 223.053,372.872 223.606 C 372.219 225.332,362.692 227.443,361.832 226.053 C 361.714 225.861,360.917 225.593,360.061 225.456 C 357.594 225.062,357.543 224.880,357.300 215.808 C 357.025 205.538,356.722 206.086,362.476 206.454 C 365.156 206.625,367.390 207.016,368.857 207.571 M224.140 231.800 C 217.655 235.839,220.316 243.488,228.463 244.226 C 235.322 244.848,238.518 243.626,240.609 239.583 C 242.042 236.811,239.647 232.137,236.438 231.446 C 232.423 230.581,225.792 230.771,224.140 231.800 M234.951 232.643 C 244.239 234.921,240.277 243.488,230.000 243.348 L 226.200 243.297 224.341 241.548 C 220.965 238.373,221.037 236.394,224.653 232.941 C 226.236 231.430,229.604 231.332,234.951 232.643 " stroke="none" fill="#b3b4b2" fill-rule="evenodd"></path></g></svg>
