<svg id="svg" xmlns="http://www.w3.org/2000/svg" xmlns:xlink="http://www.w3.org/1999/xlink" width="100" height="80" viewBox="0, 0, 400,400"><g id="svgg"><path id="path0" d="M52.600 167.072 C 49.045 167.593,43.143 170.340,41.609 172.189 C 40.727 173.252,39.418 172.872,37.440 170.976 C 33.033 166.754,23.925 166.229,19.813 169.962 C 17.553 172.014,15.301 172.204,14.935 170.373 C 14.474 168.068,11.467 167.538,2.900 168.252 L -0.000 168.494 0.000 191.815 L 0.000 215.136 2.626 215.418 C 6.407 215.822,14.204 215.460,14.945 214.845 C 15.466 214.413,15.572 212.230,15.677 199.776 L 15.800 185.212 17.280 183.733 C 19.682 181.332,23.040 181.260,25.167 183.564 C 27.153 185.715,27.146 185.651,27.190 201.375 C 27.214 210.240,27.369 214.722,27.662 215.075 C 28.313 215.859,39.717 215.823,40.371 215.035 C 40.704 214.634,40.867 210.614,40.935 201.135 L 41.031 187.800 42.164 185.459 C 43.712 182.260,46.404 181.206,49.908 182.428 C 52.363 183.284,52.550 184.449,52.788 200.333 C 52.987 213.617,53.046 214.499,53.759 215.020 C 54.716 215.719,65.852 215.821,66.674 215.139 C 67.094 214.790,67.200 211.066,67.200 196.578 L 67.200 178.454 66.035 175.527 C 63.777 169.851,58.085 166.269,52.600 167.072 M92.000 167.090 C 88.736 167.704,81.883 170.508,80.400 171.836 C 76.471 175.357,72.400 180.570,72.400 182.081 C 72.400 182.293,71.931 183.824,71.358 185.483 C 70.175 188.913,70.033 196.794,71.131 198.117 C 71.422 198.468,71.906 199.687,72.207 200.827 C 72.508 201.967,73.103 203.282,73.531 203.750 C 73.958 204.217,74.432 205.010,74.585 205.511 C 75.409 208.228,83.352 214.271,87.318 215.198 C 88.243 215.414,89.720 215.855,90.600 216.178 C 92.911 217.026,97.424 216.953,99.444 216.036 C 100.348 215.625,101.862 215.158,102.808 214.999 C 107.611 214.187,114.108 207.969,117.230 201.195 L 118.600 198.224 118.600 192.012 C 118.600 184.807,117.973 182.497,114.733 177.760 C 111.716 173.349,106.368 169.318,102.614 168.624 C 101.741 168.463,100.571 168.101,100.014 167.820 C 98.917 167.266,93.625 166.784,92.000 167.090 M148.600 167.207 C 146.104 167.899,142.440 169.440,141.703 170.107 C 140.610 171.096,139.824 170.972,138.210 169.555 C 136.668 168.202,127.640 167.396,125.049 168.382 L 124.000 168.780 124.000 191.766 C 124.000 209.716,124.110 214.824,124.500 215.076 C 125.226 215.546,135.559 215.737,137.204 215.311 L 138.600 214.950 138.800 200.125 L 139.000 185.299 140.700 183.650 C 142.211 182.184,142.613 182.001,144.300 182.005 C 147.222 182.014,147.887 182.339,149.081 184.343 L 150.186 186.200 150.328 200.400 C 150.420 209.620,150.618 214.780,150.894 215.112 C 151.407 215.731,162.164 215.755,163.313 215.139 C 163.997 214.774,164.029 213.699,163.918 195.010 L 163.800 175.266 162.900 174.049 C 162.405 173.380,162.000 172.638,162.000 172.400 C 162.000 171.639,158.643 168.832,157.406 168.559 C 156.749 168.414,155.849 168.069,155.406 167.792 C 154.362 167.142,150.143 166.778,148.600 167.207 M233.000 167.447 C 231.900 167.773,230.038 168.289,228.861 168.593 C 227.685 168.897,226.425 169.406,226.061 169.725 C 225.698 170.043,224.830 170.592,224.133 170.945 C 219.962 173.057,214.613 180.156,213.844 184.600 C 213.488 186.662,212.801 188.400,212.343 188.400 C 212.145 188.400,211.788 187.905,211.550 187.300 C 211.312 186.695,210.613 185.120,209.996 183.800 C 209.379 182.480,208.755 180.871,208.610 180.224 C 208.465 179.578,207.954 178.498,207.473 177.824 C 206.381 176.292,206.364 173.690,207.438 172.172 C 210.046 168.484,209.918 168.401,201.651 168.396 C 196.917 168.393,194.434 168.220,193.036 167.796 C 190.560 167.044,187.721 167.035,185.514 167.772 C 184.571 168.087,183.080 168.464,182.200 168.610 C 181.320 168.755,180.150 169.190,179.600 169.575 C 179.050 169.961,178.013 170.579,177.297 170.950 C 175.147 172.061,171.672 175.927,170.099 178.956 L 168.623 181.800 168.630 188.800 C 168.637 196.018,168.668 196.191,170.521 199.255 C 174.801 206.338,179.194 208.799,188.068 209.088 C 195.221 209.321,195.200 209.309,195.200 213.063 C 195.200 219.935,184.395 222.314,178.200 216.805 C 175.073 214.024,173.546 214.460,170.956 218.873 C 170.711 219.289,170.157 220.028,169.723 220.515 C 169.290 221.002,168.536 222.101,168.047 222.957 L 167.160 224.514 168.269 225.672 C 168.880 226.310,169.834 227.074,170.390 227.372 C 175.636 230.183,177.834 231.204,179.107 231.422 C 179.928 231.562,181.789 232.020,183.243 232.439 C 186.722 233.441,190.819 233.426,193.800 232.400 C 195.079 231.960,196.473 231.600,196.898 231.600 C 198.103 231.600,202.571 228.935,204.353 227.153 C 209.520 221.986,211.110 211.952,207.791 205.463 C 206.532 203.002,206.438 200.052,207.586 199.013 C 208.018 198.622,208.655 197.326,209.002 196.135 C 209.596 194.090,210.505 193.200,211.998 193.200 C 212.360 193.200,213.330 196.315,213.784 198.938 C 214.373 202.340,218.874 209.201,221.606 210.862 C 222.215 211.232,222.829 211.724,222.972 211.954 C 224.786 214.889,236.494 217.498,241.292 216.035 C 242.671 215.615,244.570 215.066,245.511 214.816 C 247.108 214.392,248.210 213.787,251.529 211.511 C 255.507 208.784,259.260 203.051,260.353 198.032 C 260.709 196.400,261.192 195.001,261.427 194.923 C 261.996 194.735,264.365 198.434,264.877 200.310 C 265.988 204.380,272.754 212.800,274.912 212.800 C 275.157 212.800,276.002 213.247,276.791 213.794 C 277.580 214.340,279.169 214.967,280.323 215.185 C 281.477 215.404,282.793 215.782,283.247 216.025 C 284.929 216.925,289.618 216.929,292.163 216.033 C 293.462 215.575,294.832 215.200,295.206 215.200 C 297.086 215.200,302.954 211.213,305.804 208.000 C 307.715 205.845,307.960 205.458,309.866 201.600 L 311.347 198.600 311.374 191.993 L 311.400 185.387 310.029 182.393 C 307.082 175.958,299.776 168.800,296.154 168.800 C 295.906 168.800,294.284 168.334,292.551 167.764 C 288.925 166.573,285.739 166.649,281.834 168.022 C 280.616 168.450,279.280 168.800,278.864 168.800 C 278.448 168.800,277.679 169.127,277.154 169.527 C 276.629 169.927,275.614 170.489,274.897 170.777 C 271.739 172.044,266.095 179.003,264.984 183.000 C 264.387 185.147,262.283 188.600,261.572 188.600 C 261.191 188.600,260.730 187.531,260.191 185.400 C 258.652 179.314,254.079 172.891,250.000 171.089 C 249.450 170.846,248.640 170.335,248.200 169.954 C 247.760 169.572,245.960 168.881,244.200 168.418 C 242.440 167.955,240.370 167.406,239.600 167.198 C 237.637 166.667,235.338 166.754,233.000 167.447 M360.561 168.153 C 352.945 170.445,347.343 175.447,344.381 182.600 C 342.472 187.210,342.312 198.593,344.113 201.635 C 344.711 202.644,345.200 203.707,345.200 203.997 C 345.200 204.287,345.650 205.114,346.200 205.836 C 346.750 206.557,347.200 207.306,347.200 207.501 C 347.200 207.696,347.650 208.247,348.200 208.725 C 348.750 209.203,349.200 209.758,349.200 209.958 C 349.200 210.295,350.642 211.335,353.158 212.812 C 353.731 213.148,354.650 213.720,355.200 214.081 C 355.750 214.443,357.236 214.926,358.501 215.156 C 359.767 215.386,361.196 215.784,361.677 216.041 C 363.386 216.956,369.242 216.985,372.254 216.093 C 373.764 215.646,375.889 215.156,376.976 215.004 C 378.063 214.852,379.863 214.283,380.976 213.739 C 385.537 211.510,384.987 212.624,385.099 205.385 C 385.221 197.553,385.226 197.563,382.168 199.375 C 380.865 200.146,379.350 200.980,378.800 201.228 C 378.250 201.477,376.882 202.112,375.760 202.640 C 372.347 204.246,363.600 203.926,363.600 202.194 C 363.600 201.154,365.306 199.168,366.900 198.352 C 367.725 197.929,368.400 197.429,368.400 197.240 C 368.400 197.052,368.944 196.672,369.609 196.396 C 370.275 196.121,370.950 195.691,371.109 195.442 C 371.269 195.193,372.480 194.274,373.800 193.400 C 375.120 192.527,377.010 191.171,378.000 190.388 C 378.990 189.604,380.317 188.612,380.950 188.182 C 382.747 186.960,385.296 185.264,386.478 184.504 C 389.486 182.569,385.187 174.071,379.800 171.304 C 379.140 170.965,378.091 170.263,377.469 169.744 C 376.847 169.225,375.988 168.800,375.559 168.800 C 375.131 168.800,373.756 168.440,372.504 168.000 C 369.439 166.923,364.435 166.987,360.561 168.153 M326.400 168.371 C 323.214 168.878,321.814 169.303,320.600 170.129 C 318.123 171.816,316.400 173.299,316.400 173.744 C 316.400 173.966,315.995 174.579,315.500 175.105 C 314.697 175.959,314.586 176.547,314.467 180.578 C 314.306 186.039,315.132 187.936,319.487 192.107 C 323.125 195.592,324.528 197.706,324.198 199.208 C 323.727 201.352,320.674 202.853,317.460 202.521 L 315.248 202.293 315.124 204.247 C 314.929 207.322,315.480 213.973,315.980 214.576 C 317.766 216.727,330.827 215.922,334.583 213.429 C 342.896 207.911,341.845 196.192,332.304 188.025 C 327.718 184.100,329.027 180.000,334.865 180.000 C 338.639 180.000,338.502 180.204,338.644 174.382 C 338.817 167.312,337.405 166.619,326.400 168.371 M368.698 179.015 C 372.036 180.410,372.362 181.647,369.917 183.633 C 368.166 185.055,367.982 185.187,364.140 187.779 C 362.853 188.647,361.209 189.862,360.486 190.479 C 357.618 192.926,355.733 191.623,356.209 187.523 C 356.856 181.944,364.024 177.062,368.698 179.015 M99.803 183.620 C 105.564 187.759,105.279 196.631,99.261 200.448 C 93.813 203.902,86.317 199.930,85.713 193.269 C 84.909 184.406,93.094 178.801,99.803 183.620 M193.715 183.571 L 195.400 185.142 195.400 188.340 C 195.400 195.141,188.737 198.127,184.041 193.431 L 182.200 191.589 182.200 188.661 C 182.200 183.928,184.130 182.076,189.115 182.028 C 191.971 182.001,192.066 182.032,193.715 183.571 M240.274 182.424 C 245.176 184.269,247.704 191.302,245.228 196.211 C 241.502 203.597,232.466 203.652,228.756 196.311 C 224.794 188.469,232.297 179.422,240.274 182.424 M292.226 183.400 C 300.045 188.590,297.005 201.600,287.974 201.600 C 284.465 201.600,283.726 201.290,281.256 198.780 C 273.355 190.753,282.977 177.261,292.226 183.400 " stroke="none" fill="#252525" fill-rule="evenodd"></path><path id="path1" d="M0.000 83.100 L 0.000 166.200 7.356 166.200 C 15.366 166.200,16.004 166.368,16.572 168.629 C 16.818 169.610,17.745 169.936,18.199 169.202 C 18.334 168.983,19.810 168.173,21.479 167.402 C 27.399 164.667,34.025 165.628,38.388 169.855 C 39.733 171.158,40.591 171.520,40.867 170.900 C 41.132 170.304,44.031 168.348,45.301 167.908 C 46.015 167.661,47.140 167.131,47.800 166.731 C 50.061 165.360,57.776 165.679,60.811 167.270 C 66.498 170.251,68.057 173.457,68.316 182.700 C 68.422 186.495,68.665 189.600,68.855 189.600 C 69.045 189.600,69.200 188.775,69.200 187.767 C 69.200 183.113,74.079 174.994,79.156 171.200 C 79.892 170.650,80.968 169.820,81.547 169.355 C 82.126 168.890,83.050 168.373,83.600 168.207 C 84.150 168.040,85.680 167.453,87.000 166.902 C 90.223 165.558,99.765 165.466,102.537 166.753 C 103.451 167.177,105.190 167.983,106.400 168.543 C 119.471 174.596,124.569 192.360,116.932 205.244 C 114.264 209.745,108.297 215.037,105.000 215.826 C 104.340 215.984,103.080 216.493,102.200 216.957 C 99.566 218.345,89.895 218.170,86.689 216.677 C 85.417 216.084,84.176 215.600,83.930 215.600 C 82.442 215.600,73.600 207.916,73.600 206.622 C 73.600 206.344,73.150 205.631,72.600 205.038 C 72.050 204.444,71.600 203.773,71.600 203.546 C 71.600 203.320,71.060 201.904,70.400 200.400 C 69.583 198.538,69.200 197.018,69.200 195.633 C 69.200 194.515,69.028 193.600,68.818 193.600 C 68.587 193.600,68.389 198.043,68.318 204.836 L 68.200 216.072 67.256 216.836 C 65.550 218.216,52.441 217.895,51.726 216.455 C 51.547 216.095,51.310 208.990,51.200 200.667 L 51.000 185.533 49.649 184.327 C 48.161 182.997,46.919 182.980,44.965 184.260 C 42.957 185.576,42.900 186.136,42.835 205.256 C 42.790 218.432,43.480 217.355,34.979 217.529 C 24.450 217.745,25.169 218.966,25.240 201.000 C 25.287 188.931,25.215 187.207,24.599 185.688 C 23.476 182.923,21.535 182.434,19.083 184.300 C 16.857 185.994,16.800 186.422,16.800 201.441 C 16.800 219.270,17.811 217.586,7.100 217.595 L 0.000 217.600 0.000 308.800 L 0.000 400.000 200.000 400.000 L 400.000 400.000 400.000 305.800 C 400.000 203.091,400.149 209.777,397.926 212.604 C 396.661 214.211,391.509 213.844,390.026 212.041 C 388.709 210.438,387.422 210.410,386.617 211.968 C 385.985 213.190,383.040 214.806,379.600 215.818 C 378.610 216.110,376.990 216.662,376.000 217.045 C 373.071 218.178,360.856 218.111,358.400 216.948 C 357.410 216.479,356.150 215.964,355.600 215.803 C 352.449 214.882,345.727 208.959,344.500 206.022 C 344.175 205.244,343.479 204.096,342.954 203.473 C 342.429 202.849,341.977 201.767,341.949 201.069 C 341.921 200.371,341.646 201.768,341.339 204.173 C 340.361 211.829,337.774 214.532,328.812 217.263 C 326.924 217.839,316.887 217.524,315.666 216.850 C 314.003 215.934,313.600 214.146,313.600 207.693 C 313.600 200.604,313.481 200.800,317.800 200.800 C 323.445 200.800,323.804 198.393,318.874 193.600 C 317.154 191.928,315.625 190.241,315.475 189.851 C 314.807 188.110,313.806 189.341,313.561 192.204 C 312.697 202.329,307.503 210.895,299.940 214.667 C 293.428 217.914,293.887 217.796,287.794 217.798 C 281.542 217.800,278.770 217.045,274.015 214.045 C 271.610 212.528,266.400 207.463,266.400 206.642 C 266.400 206.357,266.068 205.823,265.661 205.456 C 265.255 205.088,264.713 204.115,264.457 203.294 C 263.331 199.689,261.562 198.941,260.849 201.769 C 260.602 202.750,260.238 203.653,260.038 203.776 C 259.839 203.899,259.130 204.945,258.461 206.100 C 256.864 208.860,253.823 211.923,250.562 214.057 C 244.736 217.869,234.586 219.202,229.167 216.866 C 223.070 214.237,221.737 213.379,218.846 210.219 C 218.051 209.350,216.973 208.195,216.452 207.653 C 215.930 207.111,215.258 206.080,214.958 205.361 C 214.658 204.643,214.234 203.945,214.016 203.810 C 213.799 203.676,213.363 202.696,213.047 201.634 C 211.568 196.652,210.686 196.205,209.031 199.600 L 207.862 201.997 208.683 203.899 C 211.145 209.602,211.385 210.523,211.370 214.200 C 211.358 217.139,211.194 218.091,210.477 219.385 C 209.995 220.256,209.600 221.313,209.600 221.733 C 209.600 222.715,207.825 225.611,205.865 227.828 C 197.726 237.036,177.896 236.427,167.300 226.643 C 165.755 225.217,165.469 222.822,166.737 221.923 C 167.142 221.635,167.709 220.950,167.996 220.400 C 168.284 219.850,168.679 219.296,168.873 219.169 C 169.067 219.041,170.084 217.691,171.134 216.169 C 173.366 212.931,174.719 212.429,176.786 214.074 C 184.148 219.930,194.000 219.210,194.000 212.816 C 194.000 211.367,193.693 211.271,188.400 211.065 C 184.580 210.917,179.235 209.653,178.000 208.605 C 177.670 208.325,176.813 207.799,176.097 207.436 C 172.833 205.783,168.395 199.920,167.817 196.500 C 167.659 195.567,167.366 194.702,167.164 194.578 C 166.303 194.046,166.000 196.967,166.000 205.804 C 166.000 215.110,165.995 215.161,165.036 216.278 L 164.071 217.400 157.778 217.529 C 147.952 217.730,148.800 219.217,148.800 201.796 C 148.800 185.243,148.327 183.185,144.526 183.206 C 143.234 183.213,143.033 183.337,141.400 185.132 L 140.200 186.451 140.000 201.261 L 139.800 216.072 138.825 216.861 C 137.618 217.837,124.491 217.854,123.519 216.880 C 122.815 216.175,122.540 169.194,123.230 167.529 C 123.822 166.100,124.592 165.976,131.919 166.141 L 138.037 166.279 139.371 167.572 C 140.445 168.613,140.852 168.787,141.453 168.466 C 150.080 163.849,158.708 165.229,163.381 171.973 C 163.956 172.802,164.848 175.282,165.489 177.833 C 166.719 182.726,167.170 183.282,167.834 180.724 C 169.040 176.085,176.247 168.108,179.322 168.010 C 179.499 168.005,180.478 167.620,181.499 167.155 C 184.006 166.013,185.923 165.920,199.400 166.285 L 211.000 166.600 211.124 167.884 C 211.202 168.689,210.941 169.620,210.424 170.384 C 209.971 171.053,209.240 172.133,208.800 172.784 C 207.596 174.565,207.865 175.642,211.000 181.600 C 212.114 183.719,212.399 183.748,213.070 181.811 C 213.345 181.015,213.937 179.897,214.385 179.328 C 214.833 178.758,215.200 178.105,215.200 177.877 C 215.200 177.494,218.957 172.901,219.710 172.364 C 219.892 172.234,220.526 171.733,221.120 171.250 C 222.896 169.806,225.764 168.015,226.313 168.007 C 226.596 168.003,227.759 167.527,228.899 166.950 C 232.009 165.374,240.898 165.374,244.838 166.950 C 246.282 167.527,247.610 168.000,247.790 168.000 C 249.579 168.000,257.381 175.188,258.938 178.272 C 259.514 179.411,260.148 180.444,260.347 180.567 C 260.546 180.690,260.827 181.417,260.970 182.182 C 261.437 184.670,263.556 183.830,264.248 180.881 C 265.059 177.429,271.056 171.004,275.458 168.872 C 276.966 168.141,278.740 167.268,279.400 166.932 C 281.975 165.622,293.806 165.477,295.325 166.738 C 295.624 166.986,296.610 167.451,297.516 167.770 C 301.649 169.228,307.309 174.079,309.587 178.115 C 311.604 181.689,312.355 181.510,313.223 177.247 C 313.475 176.011,314.000 174.640,314.390 174.200 C 314.781 173.760,315.308 172.997,315.562 172.504 C 316.293 171.086,320.139 168.476,322.262 167.957 C 323.328 167.696,324.740 167.205,325.400 166.865 C 326.227 166.439,328.156 166.194,331.607 166.079 C 340.106 165.794,340.799 166.484,340.572 175.000 C 340.398 181.499,340.284 181.651,335.790 181.311 C 329.891 180.865,329.617 182.943,334.856 188.383 C 336.860 190.463,338.675 192.668,338.889 193.283 C 339.505 195.051,340.798 194.793,340.808 192.900 C 340.868 182.142,348.943 169.658,357.065 167.769 C 357.689 167.624,358.650 167.211,359.200 166.852 C 361.119 165.600,371.771 165.679,374.489 166.965 C 375.693 167.534,376.930 168.003,377.239 168.007 C 377.896 168.016,381.059 170.098,382.081 171.195 C 382.470 171.612,383.020 172.099,383.303 172.277 C 384.411 172.972,387.513 177.116,388.555 179.293 C 390.257 182.851,389.990 183.783,386.600 186.106 C 383.381 188.312,382.151 189.184,378.000 192.200 C 376.350 193.399,374.370 194.834,373.600 195.389 C 372.830 195.943,371.641 196.803,370.959 197.299 C 370.276 197.794,368.977 198.715,368.072 199.345 C 364.893 201.555,365.278 202.541,369.292 202.467 C 373.360 202.392,377.940 200.589,382.642 197.213 C 385.446 195.199,385.647 195.423,386.199 201.167 C 386.682 206.184,386.783 206.242,390.094 203.416 C 393.304 200.676,395.090 200.426,397.339 202.400 C 400.267 204.971,400.000 215.058,400.000 101.800 L 400.000 0.000 200.000 0.000 L 0.000 0.000 0.000 83.100 M363.882 180.838 C 360.960 181.525,357.983 184.834,357.426 188.012 C 357.039 190.225,357.673 190.746,359.195 189.466 C 359.891 188.880,360.605 188.400,360.780 188.400 C 360.955 188.400,362.246 187.505,363.649 186.412 C 365.052 185.318,366.965 183.834,367.900 183.114 C 369.934 181.546,369.962 181.404,368.340 180.839 C 366.896 180.336,366.015 180.336,363.882 180.838 M91.688 184.389 C 88.860 185.727,86.801 188.978,86.800 192.106 C 86.799 197.255,93.892 202.240,97.532 199.649 C 98.187 199.182,98.891 198.800,99.095 198.800 C 101.834 198.800,103.364 190.269,101.200 187.063 C 98.845 183.574,95.437 182.615,91.688 184.389 M185.389 184.637 C 182.539 187.488,182.476 189.390,185.143 192.057 C 190.423 197.338,197.807 190.478,192.749 184.991 C 190.460 182.507,187.654 182.373,185.389 184.637 M233.767 184.403 C 227.752 187.910,227.758 195.838,233.778 199.366 C 240.935 203.560,248.227 192.681,242.505 186.347 C 239.552 183.079,237.008 182.513,233.767 184.403 M284.129 184.425 C 278.268 187.842,278.231 195.525,284.058 199.122 C 290.834 203.305,298.683 194.028,294.095 187.259 C 291.510 183.445,287.679 182.355,284.129 184.425 M390.075 207.266 C 390.163 208.485,390.378 209.000,390.800 209.000 C 391.748 209.000,391.630 205.855,390.675 205.671 C 390.051 205.551,389.968 205.773,390.075 207.266 M396.656 206.678 C 396.123 207.210,396.395 209.200,397.000 209.200 C 397.397 209.200,397.600 208.803,397.600 208.024 C 397.600 206.849,397.140 206.193,396.656 206.678 " stroke="none" fill="#fbfbfb" fill-rule="evenodd"></path><path id="path2" d="M90.600 166.021 C 89.280 166.156,87.660 166.543,87.000 166.880 C 86.340 167.217,85.080 167.723,84.200 168.004 C 83.320 168.286,82.126 168.895,81.547 169.358 C 80.968 169.821,79.892 170.650,79.156 171.200 C 74.079 174.994,69.200 183.113,69.200 187.767 C 69.200 188.775,69.045 189.600,68.855 189.600 C 68.665 189.600,68.422 186.495,68.316 182.700 C 68.057 173.457,66.498 170.251,60.811 167.270 C 57.776 165.679,50.061 165.360,47.800 166.731 C 47.140 167.131,46.015 167.661,45.301 167.908 C 44.031 168.348,41.132 170.304,40.867 170.900 C 40.591 171.520,39.733 171.158,38.388 169.855 C 34.025 165.628,27.399 164.667,21.479 167.402 C 19.810 168.173,18.334 168.983,18.199 169.202 C 17.745 169.936,16.818 169.610,16.572 168.629 C 16.070 166.632,15.078 166.222,10.342 166.060 C 3.332 165.820,-0.000 166.249,-0.000 167.392 L 0.000 168.316 6.434 168.134 C 13.627 167.931,14.492 168.159,14.935 170.373 C 15.301 172.204,17.553 172.014,19.813 169.962 C 23.925 166.229,33.033 166.754,37.440 170.976 C 39.418 172.872,40.727 173.252,41.609 172.189 C 43.519 169.888,50.142 167.147,53.944 167.083 C 59.346 166.994,63.908 170.180,66.035 175.527 L 67.200 178.454 67.200 196.578 C 67.200 211.066,67.094 214.790,66.674 215.139 C 65.852 215.821,54.716 215.719,53.759 215.020 C 53.046 214.499,52.987 213.617,52.788 200.333 C 52.550 184.449,52.363 183.284,49.908 182.428 C 46.404 181.206,43.712 182.260,42.164 185.459 L 41.031 187.800 40.935 201.135 C 40.867 210.614,40.704 214.634,40.371 215.035 C 39.717 215.823,28.313 215.859,27.662 215.075 C 27.369 214.722,27.214 210.240,27.190 201.375 C 27.146 185.651,27.153 185.715,25.167 183.564 C 23.040 181.260,19.682 181.332,17.280 183.733 L 15.800 185.212 15.677 199.776 C 15.530 217.325,16.582 215.400,7.138 215.400 L -0.000 215.400 -0.000 216.500 L 0.000 217.600 7.100 217.595 C 17.811 217.586,16.800 219.270,16.800 201.441 C 16.800 186.422,16.857 185.994,19.083 184.300 C 21.535 182.434,23.476 182.923,24.599 185.688 C 25.215 187.207,25.287 188.931,25.240 201.000 C 25.169 218.966,24.450 217.745,34.979 217.529 C 43.480 217.355,42.790 218.432,42.835 205.256 C 42.900 186.136,42.957 185.576,44.965 184.260 C 46.919 182.980,48.161 182.997,49.649 184.327 L 51.000 185.533 51.200 200.667 C 51.310 208.990,51.547 216.095,51.726 216.455 C 52.441 217.895,65.550 218.216,67.256 216.836 L 68.200 216.072 68.318 204.836 C 68.389 198.043,68.587 193.600,68.818 193.600 C 69.028 193.600,69.200 194.515,69.200 195.633 C 69.200 197.018,69.583 198.538,70.400 200.400 C 71.060 201.904,71.600 203.320,71.600 203.546 C 71.600 203.773,72.050 204.444,72.600 205.038 C 73.150 205.631,73.600 206.344,73.600 206.622 C 73.600 207.916,82.442 215.600,83.930 215.600 C 84.176 215.600,85.417 216.084,86.689 216.677 C 89.895 218.170,99.566 218.345,102.200 216.957 C 103.080 216.493,104.340 215.984,105.000 215.826 C 108.297 215.037,114.264 209.745,116.932 205.244 C 123.451 194.246,121.007 179.799,111.270 171.765 C 108.845 169.764,107.627 169.067,102.600 166.804 C 100.820 166.003,94.686 165.603,90.600 166.021 M232.800 165.971 C 231.327 166.114,229.470 166.608,228.516 167.111 C 227.590 167.600,226.600 168.003,226.316 168.007 C 225.765 168.015,222.899 169.803,221.120 171.250 C 220.526 171.733,219.892 172.234,219.710 172.364 C 218.957 172.901,215.200 177.494,215.200 177.877 C 215.200 178.105,214.833 178.758,214.385 179.328 C 213.937 179.897,213.345 181.015,213.070 181.811 C 212.399 183.748,212.114 183.719,211.000 181.600 C 207.865 175.642,207.596 174.565,208.800 172.784 C 209.240 172.133,209.971 171.053,210.424 170.384 C 210.941 169.620,211.202 168.689,211.124 167.884 L 211.000 166.600 199.400 166.285 C 185.923 165.920,184.006 166.013,181.499 167.155 C 180.478 167.620,179.499 168.005,179.322 168.010 C 176.247 168.108,169.040 176.085,167.834 180.724 C 167.155 183.339,166.750 182.851,165.512 177.925 C 163.327 169.227,159.399 166.000,151.000 166.000 C 146.231 166.000,145.902 166.085,141.453 168.466 C 140.852 168.787,140.445 168.613,139.371 167.572 L 138.037 166.279 131.919 166.141 C 124.592 165.976,123.822 166.100,123.230 167.529 C 122.540 169.194,122.815 216.175,123.519 216.880 C 124.491 217.854,137.618 217.837,138.825 216.861 L 139.800 216.072 140.000 201.261 L 140.200 186.451 141.400 185.132 C 143.033 183.337,143.234 183.213,144.526 183.206 C 148.327 183.185,148.800 185.243,148.800 201.796 C 148.800 219.217,147.952 217.730,157.778 217.529 L 164.071 217.400 165.036 216.278 C 165.995 215.161,166.000 215.110,166.000 205.804 C 166.000 196.967,166.303 194.046,167.164 194.578 C 167.366 194.702,167.659 195.567,167.817 196.500 C 168.395 199.920,172.833 205.783,176.097 207.436 C 176.813 207.799,177.670 208.325,178.000 208.605 C 179.235 209.653,184.580 210.917,188.400 211.065 C 193.693 211.271,194.000 211.367,194.000 212.816 C 194.000 219.210,184.148 219.930,176.786 214.074 C 174.719 212.429,173.366 212.931,171.134 216.169 C 170.084 217.691,169.067 219.041,168.873 219.169 C 168.679 219.296,168.284 219.850,167.996 220.400 C 167.709 220.950,167.142 221.635,166.737 221.923 C 165.469 222.822,165.755 225.217,167.300 226.643 C 177.896 236.427,197.726 237.036,205.865 227.828 C 207.825 225.611,209.600 222.715,209.600 221.733 C 209.600 221.313,209.995 220.256,210.477 219.385 C 211.194 218.091,211.358 217.139,211.370 214.200 C 211.385 210.523,211.145 209.602,208.683 203.899 L 207.862 201.997 209.031 199.600 C 210.686 196.205,211.568 196.652,213.047 201.634 C 213.363 202.696,213.799 203.676,214.016 203.810 C 214.234 203.945,214.658 204.643,214.958 205.361 C 215.258 206.080,215.930 207.111,216.452 207.653 C 216.973 208.195,218.051 209.350,218.846 210.219 C 221.737 213.379,223.070 214.237,229.167 216.866 C 234.586 219.202,244.736 217.869,250.562 214.057 C 253.823 211.923,256.864 208.860,258.461 206.100 C 259.130 204.945,259.839 203.899,260.038 203.776 C 260.238 203.653,260.602 202.750,260.849 201.769 C 261.562 198.941,263.331 199.689,264.457 203.294 C 264.713 204.115,265.255 205.088,265.661 205.456 C 266.068 205.823,266.400 206.357,266.400 206.642 C 266.400 207.463,271.610 212.528,274.015 214.045 C 278.770 217.045,281.542 217.800,287.794 217.798 C 293.887 217.796,293.428 217.914,299.940 214.667 C 307.503 210.895,312.697 202.329,313.561 192.204 C 313.806 189.341,314.807 188.110,315.475 189.851 C 315.625 190.241,317.154 191.928,318.874 193.600 C 323.804 198.393,323.445 200.800,317.800 200.800 C 313.481 200.800,313.600 200.604,313.600 207.693 C 313.600 214.146,314.003 215.934,315.666 216.850 C 316.887 217.524,326.924 217.839,328.812 217.263 C 337.774 214.532,340.361 211.829,341.339 204.173 C 341.646 201.768,341.921 200.371,341.949 201.069 C 341.977 201.767,342.429 202.849,342.954 203.473 C 343.479 204.096,344.175 205.244,344.500 206.022 C 345.727 208.959,352.449 214.882,355.600 215.803 C 356.150 215.964,357.410 216.479,358.400 216.948 C 360.856 218.111,373.071 218.178,376.000 217.045 C 376.990 216.662,378.610 216.110,379.600 215.818 C 383.040 214.806,385.985 213.190,386.617 211.968 C 387.422 210.410,388.709 210.438,390.026 212.041 C 391.509 213.844,396.661 214.211,397.926 212.604 C 398.360 212.052,399.004 211.600,399.358 211.600 C 399.905 211.600,400.000 211.006,400.000 207.600 C 400.000 204.181,399.906 203.600,399.353 203.600 C 398.997 203.600,398.091 203.060,397.339 202.400 C 395.090 200.426,393.304 200.676,390.094 203.416 C 386.783 206.242,386.682 206.184,386.199 201.167 C 385.647 195.423,385.446 195.199,382.642 197.213 C 377.940 200.589,373.360 202.392,369.292 202.467 C 365.278 202.541,364.893 201.555,368.072 199.345 C 368.977 198.715,370.276 197.794,370.959 197.299 C 371.641 196.803,372.830 195.943,373.600 195.389 C 374.370 194.834,376.350 193.399,378.000 192.200 C 382.151 189.184,383.381 188.312,386.600 186.106 C 389.990 183.783,390.257 182.851,388.555 179.293 C 387.513 177.116,384.411 172.972,383.303 172.277 C 383.020 172.099,382.470 171.612,382.081 171.195 C 381.059 170.098,377.896 168.016,377.239 168.007 C 376.930 168.003,375.693 167.534,374.489 166.965 C 371.771 165.679,361.119 165.600,359.200 166.852 C 358.650 167.211,357.689 167.624,357.065 167.769 C 348.943 169.658,340.868 182.142,340.808 192.900 C 340.798 194.793,339.505 195.051,338.889 193.283 C 338.675 192.668,336.860 190.463,334.856 188.383 C 329.617 182.943,329.891 180.865,335.790 181.311 C 340.284 181.651,340.398 181.499,340.572 175.000 C 340.799 166.484,340.106 165.794,331.607 166.079 C 328.156 166.194,326.227 166.439,325.400 166.865 C 324.740 167.205,323.328 167.696,322.262 167.957 C 320.139 168.476,316.293 171.086,315.562 172.504 C 315.308 172.997,314.781 173.760,314.390 174.200 C 314.000 174.640,313.475 176.011,313.223 177.247 C 312.355 181.510,311.604 181.689,309.587 178.115 C 307.309 174.079,301.649 169.228,297.516 167.770 C 296.610 167.451,295.624 166.986,295.325 166.738 C 293.806 165.477,281.975 165.622,279.400 166.932 C 278.740 167.268,276.966 168.141,275.458 168.872 C 271.056 171.004,265.059 177.429,264.248 180.881 C 263.556 183.830,261.437 184.670,260.970 182.182 C 260.827 181.417,260.546 180.690,260.347 180.567 C 260.148 180.444,259.514 179.411,258.938 178.272 C 257.381 175.188,249.579 168.000,247.790 168.000 C 247.610 168.000,246.369 167.571,245.031 167.047 C 242.330 165.989,237.240 165.541,232.800 165.971 M100.014 167.820 C 100.571 168.101,101.741 168.463,102.614 168.624 C 106.368 169.318,111.716 173.349,114.733 177.760 C 117.973 182.497,118.600 184.807,118.600 192.012 L 118.600 198.224 117.230 201.195 C 114.108 207.969,107.611 214.187,102.808 214.999 C 101.862 215.158,100.348 215.625,99.444 216.036 C 97.424 216.953,92.911 217.026,90.600 216.178 C 89.720 215.855,88.243 215.414,87.318 215.198 C 83.352 214.271,75.409 208.228,74.585 205.511 C 74.432 205.010,73.958 204.217,73.531 203.750 C 73.103 203.282,72.508 201.967,72.207 200.827 C 71.906 199.687,71.422 198.468,71.131 198.117 C 70.033 196.794,70.175 188.913,71.358 185.483 C 71.931 183.824,72.400 182.293,72.400 182.081 C 72.400 180.570,76.471 175.357,80.400 171.836 C 81.883 170.508,88.736 167.704,92.000 167.090 C 93.625 166.784,98.917 167.266,100.014 167.820 M155.406 167.792 C 155.849 168.069,156.749 168.414,157.406 168.559 C 158.643 168.832,162.000 171.639,162.000 172.400 C 162.000 172.638,162.405 173.380,162.900 174.049 L 163.800 175.266 163.918 195.010 C 164.029 213.699,163.997 214.774,163.313 215.139 C 162.164 215.755,151.407 215.731,150.894 215.112 C 150.618 214.780,150.420 209.620,150.328 200.400 L 150.186 186.200 149.081 184.343 C 147.887 182.339,147.222 182.014,144.300 182.005 C 142.613 182.001,142.211 182.184,140.700 183.650 L 139.000 185.299 138.800 200.125 L 138.600 214.950 137.204 215.311 C 135.559 215.737,125.226 215.546,124.500 215.076 C 124.110 214.824,124.000 209.716,124.000 191.766 L 124.000 168.780 125.049 168.382 C 127.640 167.396,136.668 168.202,138.210 169.555 C 139.824 170.972,140.610 171.096,141.703 170.107 C 142.440 169.440,146.104 167.899,148.600 167.207 C 150.143 166.778,154.362 167.142,155.406 167.792 M239.600 167.198 C 240.370 167.406,242.440 167.955,244.200 168.418 C 245.960 168.881,247.760 169.572,248.200 169.954 C 248.640 170.335,249.450 170.846,250.000 171.089 C 254.079 172.891,258.652 179.314,260.191 185.400 C 260.730 187.531,261.191 188.600,261.572 188.600 C 262.283 188.600,264.387 185.147,264.984 183.000 C 266.095 179.003,271.739 172.044,274.897 170.777 C 275.614 170.489,276.629 169.927,277.154 169.527 C 277.679 169.127,278.448 168.800,278.864 168.800 C 279.280 168.800,280.616 168.450,281.834 168.022 C 285.739 166.649,288.925 166.573,292.551 167.764 C 294.284 168.334,295.906 168.800,296.154 168.800 C 299.776 168.800,307.082 175.958,310.029 182.393 L 311.400 185.387 311.374 191.993 L 311.347 198.600 309.866 201.600 C 307.960 205.458,307.715 205.845,305.804 208.000 C 302.954 211.213,297.086 215.200,295.206 215.200 C 294.832 215.200,293.462 215.575,292.163 216.033 C 289.618 216.929,284.929 216.925,283.247 216.025 C 282.793 215.782,281.477 215.404,280.323 215.185 C 279.169 214.967,277.580 214.340,276.791 213.794 C 276.002 213.247,275.157 212.800,274.912 212.800 C 272.754 212.800,265.988 204.380,264.877 200.310 C 264.365 198.434,261.996 194.735,261.427 194.923 C 261.192 195.001,260.709 196.400,260.353 198.032 C 259.787 200.635,258.179 204.096,256.274 206.816 C 254.036 210.011,248.718 213.964,245.511 214.816 C 244.570 215.066,242.671 215.615,241.292 216.035 C 236.494 217.498,224.786 214.889,222.972 211.954 C 222.829 211.724,222.215 211.232,221.606 210.862 C 218.874 209.201,214.373 202.340,213.784 198.938 C 213.330 196.315,212.360 193.200,211.998 193.200 C 210.505 193.200,209.596 194.090,209.002 196.135 C 208.655 197.326,208.018 198.622,207.586 199.013 C 206.438 200.052,206.532 203.002,207.791 205.463 C 211.110 211.952,209.520 221.986,204.353 227.153 C 202.571 228.935,198.103 231.600,196.898 231.600 C 196.473 231.600,195.079 231.960,193.800 232.400 C 190.819 233.426,186.722 233.441,183.243 232.439 C 181.789 232.020,179.928 231.562,179.107 231.422 C 177.834 231.204,175.636 230.183,170.390 227.372 C 169.834 227.074,168.880 226.310,168.269 225.672 L 167.160 224.514 168.047 222.957 C 168.536 222.101,169.290 221.002,169.723 220.515 C 170.157 220.028,170.711 219.289,170.956 218.873 C 173.546 214.460,175.073 214.024,178.200 216.805 C 184.395 222.314,195.200 219.935,195.200 213.063 C 195.200 209.309,195.221 209.321,188.068 209.088 C 179.194 208.799,174.801 206.338,170.521 199.255 C 168.668 196.191,168.637 196.018,168.630 188.800 L 168.623 181.800 170.099 178.956 C 171.672 175.927,175.147 172.061,177.297 170.950 C 178.013 170.579,179.050 169.961,179.600 169.575 C 180.150 169.190,181.320 168.755,182.200 168.610 C 183.080 168.464,184.571 168.087,185.514 167.772 C 187.721 167.035,190.560 167.044,193.036 167.796 C 194.434 168.220,196.917 168.393,201.651 168.396 C 209.918 168.401,210.046 168.484,207.438 172.172 C 206.364 173.690,206.381 176.292,207.473 177.824 C 207.954 178.498,208.465 179.578,208.610 180.224 C 208.755 180.871,209.379 182.480,209.996 183.800 C 210.613 185.120,211.312 186.695,211.550 187.300 C 212.321 189.260,213.222 188.200,213.844 184.600 C 214.613 180.156,219.962 173.057,224.133 170.945 C 224.830 170.592,225.698 170.043,226.061 169.725 C 226.425 169.406,227.685 168.897,228.861 168.593 C 230.038 168.289,231.900 167.773,233.000 167.447 C 235.338 166.754,237.637 166.667,239.600 167.198 M372.504 168.000 C 373.756 168.440,375.131 168.800,375.559 168.800 C 375.988 168.800,376.847 169.225,377.469 169.744 C 378.091 170.263,379.140 170.965,379.800 171.304 C 385.187 174.071,389.486 182.569,386.478 184.504 C 385.296 185.264,382.747 186.960,380.950 188.182 C 380.317 188.612,378.990 189.604,378.000 190.388 C 377.010 191.171,375.120 192.527,373.800 193.400 C 372.480 194.274,371.269 195.193,371.109 195.442 C 370.950 195.691,370.275 196.121,369.609 196.396 C 368.944 196.672,368.400 197.052,368.400 197.240 C 368.400 197.429,367.725 197.929,366.900 198.352 C 365.306 199.168,363.600 201.154,363.600 202.194 C 363.600 203.926,372.347 204.246,375.760 202.640 C 376.882 202.112,378.250 201.477,378.800 201.228 C 379.350 200.980,380.865 200.146,382.168 199.375 C 385.226 197.563,385.221 197.553,385.099 205.385 C 384.987 212.624,385.537 211.510,380.976 213.739 C 379.863 214.283,378.063 214.852,376.976 215.004 C 375.889 215.156,373.764 215.646,372.254 216.093 C 369.242 216.985,363.386 216.956,361.677 216.041 C 361.196 215.784,359.767 215.386,358.501 215.156 C 357.236 214.926,355.750 214.443,355.200 214.081 C 354.650 213.720,353.731 213.148,353.158 212.812 C 350.642 211.335,349.200 210.295,349.200 209.958 C 349.200 209.758,348.750 209.203,348.200 208.725 C 347.650 208.247,347.200 207.696,347.200 207.501 C 347.200 207.306,346.750 206.557,346.200 205.836 C 345.650 205.114,345.200 204.287,345.200 203.997 C 345.200 203.707,344.711 202.644,344.113 201.635 C 342.312 198.593,342.472 187.210,344.381 182.600 C 349.000 171.445,362.445 164.465,372.504 168.000 M335.976 167.978 C 338.579 168.480,338.777 168.954,338.644 174.382 C 338.502 180.204,338.639 180.000,334.865 180.000 C 329.027 180.000,327.718 184.100,332.304 188.025 C 340.533 195.068,342.552 204.951,337.104 211.516 C 333.924 215.348,318.477 217.585,315.980 214.576 C 315.480 213.973,314.929 207.322,315.124 204.247 L 315.248 202.293 317.460 202.521 C 320.674 202.853,323.727 201.352,324.198 199.208 C 324.528 197.706,323.125 195.592,319.487 192.107 C 315.132 187.936,314.306 186.039,314.467 180.578 C 314.586 176.547,314.697 175.959,315.500 175.105 C 315.995 174.579,316.400 173.966,316.400 173.744 C 316.400 173.299,318.123 171.816,320.600 170.129 C 323.126 168.409,331.872 167.186,335.976 167.978 M362.410 179.727 C 358.749 181.526,356.590 184.241,356.209 187.523 C 355.733 191.623,357.618 192.926,360.486 190.479 C 361.209 189.862,362.853 188.647,364.140 187.779 C 367.982 185.187,368.166 185.055,369.917 183.633 C 374.290 180.082,368.167 176.896,362.410 179.727 M368.340 180.839 C 369.962 181.404,369.934 181.546,367.900 183.114 C 366.965 183.834,365.052 185.318,363.649 186.412 C 362.246 187.505,360.955 188.400,360.780 188.400 C 360.605 188.400,359.891 188.880,359.195 189.466 C 357.673 190.746,357.039 190.225,357.426 188.012 C 358.309 182.971,363.905 179.293,368.340 180.839 M91.346 182.375 C 86.238 184.560,83.862 192.671,87.002 197.203 C 94.168 207.543,108.456 198.080,102.683 186.816 C 100.784 183.109,94.962 180.828,91.346 182.375 M185.566 182.328 C 183.493 183.216,182.200 185.650,182.200 188.661 L 182.200 191.589 184.041 193.431 C 188.737 198.127,195.400 195.141,195.400 188.340 L 195.400 185.142 193.715 183.571 C 192.012 181.982,187.852 181.348,185.566 182.328 M233.690 182.416 C 228.541 184.484,226.163 191.180,228.756 196.311 C 232.466 203.652,241.502 203.597,245.228 196.211 C 249.091 188.552,241.377 179.329,233.690 182.416 M284.171 182.386 C 278.068 184.856,276.459 193.907,281.256 198.780 C 288.058 205.690,298.695 199.212,296.458 189.523 C 295.157 183.886,289.123 180.382,284.171 182.386 M98.106 184.391 C 101.353 186.237,102.200 187.804,102.200 191.972 C 102.200 195.362,100.636 198.800,99.095 198.800 C 98.891 198.800,98.187 199.182,97.532 199.649 C 94.916 201.511,90.178 199.597,88.043 195.814 C 84.168 188.948,91.494 180.631,98.106 184.391 M192.749 184.991 C 197.807 190.478,190.423 197.338,185.143 192.057 C 182.476 189.390,182.539 187.488,185.389 184.637 C 187.654 182.373,190.460 182.507,192.749 184.991 M239.543 183.971 C 245.735 187.130,246.291 195.313,240.572 199.100 C 234.740 202.962,227.827 196.763,229.751 189.396 C 230.961 184.761,235.818 182.070,239.543 183.971 M290.958 184.366 C 296.707 187.751,296.875 195.290,291.286 199.111 C 284.872 203.495,276.862 194.839,280.829 187.810 C 283.204 183.602,287.296 182.211,290.958 184.366 M391.400 207.405 C 391.400 209.744,390.245 209.622,390.075 207.266 C 389.968 205.773,390.051 205.551,390.675 205.671 C 391.230 205.778,391.400 206.184,391.400 207.405 M397.600 208.024 C 397.600 208.803,397.397 209.200,397.000 209.200 C 396.395 209.200,396.123 207.210,396.656 206.678 C 397.140 206.193,397.600 206.849,397.600 208.024 " stroke="none" fill="#7c7c7c" fill-rule="evenodd"></path></g></svg>
