<svg id="svg" xmlns="http://www.w3.org/2000/svg" xmlns:xlink="http://www.w3.org/1999/xlink" width="133" height="83.6" viewBox="0, 0, 400,250.79999999999998"><g id="svgg"><path id="path0" d="M257.204 18.657 C 256.165 19.183,256.206 18.043,256.203 46.223 L 256.200 72.546 255.785 73.073 C 255.017 74.050,254.967 74.031,248.919 70.524 C 243.482 67.371,243.563 67.376,239.200 69.900 C 237.825 70.696,235.530 72.020,234.100 72.843 C 232.670 73.665,227.405 76.702,222.400 79.590 C 217.395 82.479,211.981 85.602,210.368 86.530 C 208.756 87.459,207.190 88.462,206.890 88.759 C 205.751 89.887,205.800 88.884,205.800 111.062 L 205.800 131.537 206.258 132.419 C 206.833 133.525,206.891 133.562,217.800 139.839 C 222.585 142.593,230.010 146.878,234.300 149.363 C 241.777 153.692,242.150 153.883,243.300 153.955 C 244.727 154.044,244.258 154.267,251.800 149.907 C 254.825 148.158,258.650 145.948,260.300 144.996 C 263.428 143.192,267.094 141.072,270.500 139.098 C 271.600 138.461,273.985 137.089,275.800 136.050 C 279.783 133.770,280.289 133.401,280.802 132.396 C 281.196 131.623,281.200 131.144,281.200 81.876 L 281.200 32.135 280.708 31.296 C 280.103 30.264,280.600 30.581,272.900 26.302 C 269.380 24.346,265.600 22.232,264.500 21.604 C 258.885 18.402,258.230 18.138,257.204 18.657 M57.854 67.212 C 57.499 67.321,55.834 68.203,54.154 69.173 C 52.474 70.143,49.255 71.999,47.000 73.297 C 44.745 74.595,41.460 76.487,39.700 77.501 C 36.581 79.298,28.816 83.760,25.000 85.948 C 20.748 88.385,21.180 84.841,21.245 116.766 L 21.300 143.633 21.953 144.216 C 23.013 145.163,23.182 145.099,30.402 140.969 C 38.595 136.283,39.265 135.901,41.400 134.702 C 46.841 131.648,46.396 133.229,46.403 116.900 C 46.410 101.122,45.947 102.892,50.800 100.104 C 59.521 95.093,58.624 95.216,63.967 98.288 C 70.350 101.959,70.380 101.978,70.955 102.847 L 71.500 103.670 71.600 117.085 C 71.723 133.625,71.110 131.597,77.000 134.945 C 78.925 136.040,83.584 138.705,87.353 140.868 C 94.734 145.103,94.944 145.186,95.950 144.247 L 96.542 143.693 96.644 116.897 C 96.755 87.496,96.805 88.847,95.555 87.674 C 95.195 87.335,92.965 85.949,90.600 84.594 C 83.445 80.493,78.770 77.804,77.400 77.001 C 74.315 75.193,63.938 69.232,62.189 68.262 C 60.163 67.139,59.010 66.860,57.854 67.212 M334.600 67.732 C 334.327 67.843,329.238 70.762,322.800 74.501 C 321.425 75.299,318.770 76.832,316.900 77.907 C 315.030 78.981,312.150 80.641,310.500 81.595 C 308.850 82.549,305.970 84.210,304.100 85.286 C 299.649 87.847,299.357 88.054,298.785 89.053 L 298.300 89.900 298.300 110.516 L 298.300 131.131 298.900 132.093 C 299.477 133.018,299.875 133.269,309.100 138.524 C 314.380 141.531,319.150 144.254,319.700 144.575 C 320.250 144.896,323.760 146.901,327.500 149.029 L 334.300 152.900 335.800 152.900 L 337.300 152.900 340.200 151.274 C 342.735 149.852,348.706 146.528,355.900 142.533 C 358.577 141.047,359.000 140.660,359.000 139.696 C 359.000 138.288,360.082 139.021,346.600 131.296 C 342.035 128.680,336.275 125.373,333.800 123.947 C 331.325 122.521,328.123 120.689,326.685 119.877 C 325.247 119.065,323.852 118.168,323.585 117.884 L 323.100 117.368 323.046 110.634 C 322.981 102.411,322.608 103.348,326.926 100.902 C 328.672 99.914,331.223 98.451,332.595 97.652 C 335.422 96.007,335.815 95.933,337.300 96.772 C 344.074 100.594,347.742 102.833,348.049 103.332 C 348.358 103.834,348.398 104.508,348.399 109.160 C 348.400 115.071,348.463 115.392,349.693 115.798 C 350.497 116.063,350.919 115.963,352.189 115.204 C 352.690 114.905,355.170 113.460,357.700 111.994 C 371.736 103.859,372.255 103.540,372.891 102.633 L 373.500 101.766 373.500 95.718 L 373.500 89.671 372.954 88.845 C 372.533 88.210,371.843 87.690,369.954 86.589 C 364.677 83.511,363.750 82.972,359.300 80.396 C 353.949 77.298,349.693 74.825,342.600 70.690 C 337.283 67.591,336.063 67.140,334.600 67.732 M246.263 98.022 C 247.603 98.805,249.285 99.785,250.000 100.200 C 250.715 100.616,252.289 101.532,253.498 102.236 C 256.393 103.922,256.194 103.289,256.197 110.825 C 256.201 118.866,256.370 118.161,254.124 119.470 C 247.028 123.606,243.821 125.400,243.526 125.400 C 243.066 125.400,242.137 124.913,237.900 122.448 C 235.920 121.296,233.610 119.955,232.767 119.468 C 231.924 118.981,231.135 118.463,231.014 118.317 C 230.862 118.134,230.811 115.865,230.847 110.876 L 230.900 103.700 233.300 102.283 C 244.559 95.635,243.032 96.137,246.263 98.022 " stroke="none" fill="#363c35" fill-rule="evenodd"></path><path id="path1" d="M281.298 81.900 C 281.298 109.070,281.322 120.155,281.350 106.534 C 281.378 92.913,281.378 70.683,281.350 57.134 C 281.322 43.585,281.298 54.730,281.298 81.900 M335.550 67.541 C 335.798 67.589,336.203 67.589,336.450 67.541 C 336.697 67.493,336.495 67.454,336.000 67.454 C 335.505 67.454,335.303 67.493,335.550 67.541 M150.367 67.824 C 149.963 67.914,148.433 68.678,146.967 69.523 C 145.500 70.368,142.860 71.888,141.100 72.899 C 139.340 73.911,137.000 75.263,135.900 75.903 C 134.800 76.544,133.315 77.397,132.600 77.799 C 131.885 78.201,129.455 79.598,127.200 80.904 C 124.945 82.209,121.390 84.252,119.300 85.445 C 115.263 87.748,114.175 88.637,113.818 89.925 C 113.511 91.028,113.517 129.994,113.824 131.099 C 114.143 132.248,115.325 133.278,118.208 134.919 C 120.518 136.235,125.518 139.114,131.300 142.457 C 132.620 143.220,134.285 144.182,135.000 144.594 C 135.715 145.007,137.200 145.864,138.300 146.500 C 140.308 147.660,147.604 151.869,149.100 152.730 C 150.974 153.808,152.048 153.560,156.268 151.074 C 157.715 150.221,159.457 149.203,160.138 148.812 C 162.729 147.322,166.540 145.126,167.500 144.568 C 168.050 144.248,172.775 141.528,178.000 138.523 C 186.307 133.746,187.575 132.953,188.100 132.212 L 188.700 131.366 188.700 110.518 L 188.700 89.671 188.179 88.885 C 187.584 87.988,188.309 88.433,174.000 80.200 C 171.855 78.966,169.515 77.616,168.800 77.200 C 167.361 76.362,164.924 74.950,158.200 71.057 C 152.062 67.503,151.975 67.467,150.367 67.824 M205.696 111.100 C 205.696 122.210,205.720 126.784,205.750 121.265 C 205.780 115.746,205.780 106.656,205.750 101.065 C 205.720 95.474,205.696 99.990,205.696 111.100 M96.696 122.300 C 96.696 133.850,96.720 138.546,96.750 132.735 C 96.779 126.924,96.779 117.474,96.750 111.735 C 96.720 105.996,96.696 110.750,96.696 122.300 M332.202 104.119 C 328.203 106.439,328.607 105.742,328.603 110.336 C 328.599 114.821,328.308 114.248,331.537 116.101 C 332.836 116.847,334.325 117.722,334.845 118.046 C 335.723 118.593,335.828 118.615,336.345 118.350 C 336.870 118.081,341.903 115.184,342.650 114.721 C 342.965 114.525,343.000 114.087,343.000 110.294 L 343.000 106.084 339.633 104.142 C 335.563 101.795,336.205 101.797,332.202 104.119 M256.090 111.000 C 256.090 114.685,256.117 116.192,256.150 114.350 C 256.183 112.508,256.183 109.493,256.150 107.650 C 256.117 105.808,256.090 107.315,256.090 111.000 M193.499 147.611 C 192.933 147.776,189.713 149.588,180.300 155.038 C 171.735 159.997,167.349 162.529,163.609 164.671 C 159.456 167.050,158.381 167.914,157.595 169.500 L 157.100 170.500 157.100 190.800 L 157.100 211.100 157.635 212.100 C 158.649 213.995,159.543 214.629,167.232 218.905 C 175.947 223.751,183.207 222.127,184.898 214.954 C 185.420 212.742,185.340 175.089,184.813 174.807 C 184.207 174.482,180.355 174.543,179.888 174.884 C 179.510 175.160,179.497 175.652,179.400 194.234 C 179.326 208.251,179.238 213.406,179.066 213.700 C 177.115 217.041,174.763 216.823,167.500 212.626 L 162.700 209.852 162.700 190.791 L 162.700 171.729 164.100 170.895 C 164.870 170.436,168.155 168.529,171.400 166.658 C 174.645 164.787,178.470 162.580,179.900 161.754 C 181.330 160.928,184.030 159.376,185.900 158.304 C 189.404 156.296,192.379 154.572,194.063 153.572 C 195.367 152.798,195.324 152.788,198.500 154.632 C 200.040 155.526,201.885 156.589,202.600 156.995 C 203.315 157.400,204.800 158.256,205.900 158.897 C 208.088 160.170,213.079 163.051,217.000 165.303 C 218.375 166.093,220.355 167.235,221.400 167.841 C 222.445 168.447,224.290 169.507,225.500 170.197 C 226.710 170.886,227.813 171.591,227.950 171.763 C 228.403 172.330,228.305 209.445,227.850 209.849 C 227.440 210.214,226.597 210.706,208.400 221.202 C 204.165 223.644,199.557 226.308,198.159 227.122 C 195.078 228.914,195.698 228.935,192.317 226.926 C 190.768 226.005,188.772 224.832,187.882 224.318 L 186.264 223.383 184.545 224.282 C 183.600 224.777,182.320 225.328,181.702 225.508 C 179.786 226.065,179.811 226.088,186.632 230.080 C 188.870 231.390,191.105 232.710,191.600 233.014 C 194.941 235.069,196.179 234.778,204.400 230.007 C 206.545 228.762,208.885 227.406,209.600 226.994 C 212.034 225.591,215.897 223.357,217.200 222.600 C 219.323 221.367,223.103 219.183,226.200 217.401 C 231.985 214.074,232.614 213.555,233.396 211.464 C 233.800 210.385,233.805 210.100,233.753 190.535 L 233.700 170.700 233.182 169.600 C 232.471 168.091,231.492 167.211,228.800 165.658 C 227.535 164.928,224.925 163.418,223.000 162.302 C 219.049 160.011,213.006 156.517,208.400 153.859 C 206.695 152.875,203.706 151.147,201.757 150.018 C 197.290 147.429,195.707 146.968,193.499 147.611 M335.350 153.141 C 335.598 153.189,336.003 153.189,336.250 153.141 C 336.498 153.093,336.295 153.054,335.800 153.054 C 335.305 153.054,335.103 153.093,335.350 153.141 M243.073 164.618 C 240.402 165.392,238.405 168.711,238.984 171.412 C 240.029 176.287,245.744 178.091,249.195 174.636 C 253.672 170.154,249.203 162.841,243.073 164.618 M246.874 165.607 C 250.682 167.032,251.280 172.320,247.895 174.630 C 244.405 177.011,239.809 174.549,239.809 170.300 C 239.809 166.681,243.388 164.303,246.874 165.607 M242.800 170.413 L 242.800 173.827 243.350 173.763 C 243.883 173.702,243.902 173.657,243.959 172.350 L 244.018 171.000 244.813 171.000 C 245.719 171.000,245.890 171.247,246.100 172.850 C 246.234 173.873,247.400 174.391,247.400 173.427 C 247.400 172.542,246.971 170.881,246.687 170.670 C 246.416 170.468,246.441 170.377,246.889 169.929 C 247.392 169.426,247.547 168.616,247.276 167.909 C 247.043 167.303,246.087 167.000,244.410 167.000 L 242.800 167.000 242.800 170.413 M245.684 168.121 C 246.086 168.276,246.108 169.461,245.714 169.788 C 245.080 170.314,243.906 169.966,243.836 169.231 C 243.725 168.071,244.437 167.643,245.684 168.121 M198.800 174.179 C 191.130 175.857,187.373 182.004,190.379 187.958 C 192.158 191.483,195.076 192.582,206.177 193.910 C 212.553 194.673,214.804 195.819,214.795 198.300 C 214.781 202.005,211.219 203.635,203.800 203.330 C 197.510 203.072,195.220 201.712,194.407 197.749 C 194.108 196.290,193.931 196.200,191.358 196.200 C 188.536 196.200,188.302 196.363,188.473 198.206 C 189.157 205.559,195.053 209.064,206.200 208.743 C 216.183 208.456,221.364 204.438,220.944 197.310 C 220.598 191.456,217.830 189.757,205.631 187.913 C 196.407 186.518,195.677 186.185,195.831 183.446 C 196.012 180.256,198.679 179.047,205.099 179.248 C 208.720 179.361,210.276 179.788,211.734 181.072 C 212.633 181.863,213.799 183.884,213.800 184.650 C 213.800 185.804,218.198 186.413,219.415 185.428 L 219.874 185.057 219.533 183.278 C 218.628 178.563,215.827 175.738,210.700 174.371 C 208.365 173.748,201.288 173.634,198.800 174.179 " stroke="none" fill="#6ca660" fill-rule="evenodd"></path><path id="path2" d="M0.000 125.400 L 0.000 250.800 200.000 250.800 L 400.000 250.800 400.000 125.400 L 400.000 0.000 200.000 0.000 L 0.000 0.000 0.000 125.400 M260.800 19.362 C 261.955 19.999,265.375 21.904,268.400 23.594 C 271.425 25.284,275.025 27.291,276.400 28.055 C 279.870 29.983,280.404 30.374,280.935 31.381 L 281.400 32.263 281.396 81.881 C 281.391 129.694,281.378 131.529,281.022 132.300 C 280.537 133.352,280.055 133.771,277.900 135.015 C 276.910 135.586,274.345 137.067,272.200 138.306 C 270.055 139.544,267.220 141.183,265.900 141.947 C 264.580 142.710,259.315 145.757,254.200 148.718 L 244.900 154.100 243.500 154.100 L 242.100 154.100 236.300 150.730 C 228.889 146.423,224.539 143.906,215.000 138.403 C 210.765 135.960,207.054 133.729,206.754 133.446 C 205.537 132.301,205.584 133.279,205.645 110.670 L 205.700 90.039 206.319 89.185 C 206.695 88.665,207.441 88.042,208.219 87.596 C 208.924 87.193,210.400 86.341,211.500 85.703 C 212.600 85.065,214.985 83.684,216.800 82.634 C 218.615 81.584,221.180 80.100,222.500 79.336 C 223.820 78.572,226.655 76.937,228.800 75.703 C 230.945 74.468,233.600 72.937,234.700 72.301 C 244.038 66.899,243.268 67.063,247.597 69.555 C 248.864 70.283,250.885 71.447,252.090 72.140 C 256.439 74.643,256.000 77.555,256.001 46.205 C 256.001 20.241,256.007 19.891,256.402 19.243 C 257.237 17.874,258.149 17.899,260.800 19.362 M60.780 67.263 C 61.265 67.509,67.218 70.922,71.300 73.296 C 72.290 73.871,74.900 75.378,77.100 76.643 C 79.300 77.909,82.900 79.981,85.100 81.247 C 87.300 82.513,90.405 84.293,92.000 85.201 C 95.002 86.912,95.998 87.675,96.567 88.700 C 97.018 89.514,97.087 142.973,96.637 143.761 C 95.741 145.332,94.817 145.290,91.700 143.536 C 81.592 137.848,73.385 133.038,72.744 132.427 C 71.387 131.135,71.400 131.281,71.400 116.927 C 71.400 102.702,71.428 103.010,70.033 102.028 C 68.543 100.979,60.244 96.389,59.628 96.273 C 58.478 96.057,57.521 96.448,53.400 98.816 C 47.843 102.009,47.485 102.255,46.958 103.242 L 46.500 104.100 46.400 117.500 C 46.291 132.106,46.346 131.438,45.152 132.554 C 44.724 132.953,40.884 135.225,35.600 138.203 C 34.665 138.730,31.605 140.480,28.800 142.092 C 23.106 145.364,22.862 145.437,21.750 144.204 L 21.200 143.594 21.201 116.347 L 21.202 89.100 21.651 88.365 C 22.348 87.225,21.685 87.651,31.700 81.899 C 34.340 80.383,38.930 77.749,41.900 76.045 C 44.870 74.341,48.335 72.344,49.600 71.607 C 50.865 70.870,52.305 70.041,52.800 69.765 C 53.295 69.488,54.492 68.799,55.461 68.234 C 57.999 66.752,59.299 66.515,60.780 67.263 M339.907 68.938 C 343.705 71.154,353.597 76.896,357.000 78.860 C 358.705 79.844,361.135 81.258,362.400 82.002 C 363.665 82.746,366.365 84.322,368.400 85.503 C 374.054 88.786,373.600 87.897,373.600 95.700 C 373.600 103.744,374.507 102.443,365.100 107.895 C 356.216 113.045,356.072 113.129,353.497 114.659 C 350.905 116.200,350.499 116.330,349.542 115.930 C 348.266 115.397,348.200 115.067,348.200 109.219 C 348.200 102.681,348.663 103.537,343.518 100.567 C 341.198 99.228,338.627 97.742,337.804 97.266 C 335.922 96.177,335.479 96.176,333.596 97.265 C 324.104 102.751,323.630 103.045,323.410 103.577 C 323.254 103.953,323.202 106.163,323.242 110.740 C 323.308 118.253,323.186 117.722,325.084 118.765 C 325.643 119.072,329.205 121.109,333.000 123.291 C 344.568 129.942,351.947 134.178,355.200 136.034 C 361.208 139.463,361.090 139.849,352.600 144.562 C 349.465 146.303,344.740 148.936,342.100 150.413 L 337.300 153.100 335.800 153.100 L 334.300 153.100 321.200 145.624 C 313.995 141.513,306.210 137.072,303.900 135.755 C 299.221 133.089,299.131 133.025,298.529 131.900 L 298.100 131.100 298.100 110.500 L 298.100 89.900 298.529 89.100 C 299.162 87.917,298.927 88.077,306.100 83.950 C 306.870 83.507,307.995 82.857,308.600 82.505 C 309.205 82.154,311.005 81.116,312.600 80.197 C 314.195 79.279,317.075 77.615,319.000 76.500 C 320.925 75.385,323.805 73.720,325.400 72.801 C 326.995 71.882,329.335 70.528,330.600 69.792 C 335.882 66.718,336.074 66.701,339.907 68.938 M154.700 68.883 C 155.800 69.529,157.285 70.393,158.000 70.804 C 158.715 71.215,160.380 72.180,161.700 72.947 C 163.020 73.714,165.945 75.402,168.200 76.698 C 173.895 79.972,174.578 80.366,177.300 81.951 C 178.620 82.720,181.396 84.328,183.470 85.524 C 187.538 87.872,188.063 88.278,188.624 89.500 C 188.996 90.311,189.231 129.193,188.875 130.975 C 188.703 131.835,187.397 133.260,186.143 133.957 C 185.569 134.276,182.850 135.839,180.100 137.431 C 175.490 140.099,171.602 142.349,166.500 145.300 C 160.289 148.892,153.609 152.729,153.000 153.053 C 152.481 153.329,151.989 153.408,151.100 153.357 C 149.790 153.281,149.895 153.334,142.600 149.102 C 140.675 147.985,137.255 146.006,135.000 144.703 C 132.745 143.401,129.235 141.372,127.200 140.195 C 125.165 139.018,121.925 137.148,120.000 136.038 C 118.075 134.929,116.117 133.793,115.648 133.514 C 115.171 133.230,114.533 132.593,114.198 132.065 L 113.600 131.122 113.600 110.553 C 113.600 90.728,113.614 89.957,113.981 89.242 C 114.599 88.036,114.528 88.084,121.600 84.006 C 122.315 83.593,123.800 82.736,124.900 82.100 C 126.000 81.464,128.385 80.090,130.200 79.048 C 132.015 78.005,134.535 76.548,135.800 75.810 C 137.065 75.071,138.505 74.240,139.000 73.963 C 139.495 73.686,142.195 72.135,145.000 70.516 L 150.100 67.573 151.400 67.641 C 152.567 67.702,152.905 67.829,154.700 68.883 M238.800 99.279 C 236.435 100.641,233.735 102.198,232.800 102.738 L 231.100 103.721 231.048 110.957 L 230.995 118.192 231.748 118.666 C 234.272 120.258,243.112 125.200,243.435 125.200 C 243.950 125.200,254.975 118.891,255.550 118.266 C 255.998 117.780,256.000 117.750,256.000 111.011 C 256.000 103.050,256.346 104.026,252.800 101.990 C 251.425 101.201,248.831 99.710,247.035 98.678 C 245.240 97.645,243.620 96.800,243.435 96.801 C 243.251 96.801,241.165 97.916,238.800 99.279 M339.711 104.029 L 343.200 106.058 343.200 110.320 L 343.200 114.582 341.750 115.414 C 340.953 115.872,339.394 116.776,338.286 117.423 C 337.179 118.070,336.118 118.600,335.930 118.600 C 335.535 118.600,328.978 114.884,328.755 114.534 C 328.483 114.107,328.571 106.242,328.850 105.992 C 329.407 105.492,335.526 102.016,335.861 102.008 C 336.059 102.004,337.791 102.913,339.711 104.029 M198.121 147.891 C 198.948 148.264,212.259 155.871,219.300 159.995 C 221.089 161.043,223.649 162.525,228.100 165.090 C 234.506 168.782,234.024 166.630,233.955 191.202 L 233.900 210.700 233.380 211.809 C 232.317 214.075,232.361 214.043,222.500 219.713 C 219.090 221.673,214.365 224.396,212.000 225.763 C 209.635 227.130,205.421 229.559,202.635 231.161 L 197.569 234.073 195.935 234.158 C 193.579 234.281,193.278 234.156,186.905 230.399 C 179.596 226.091,179.617 226.110,181.350 225.497 C 181.873 225.312,183.125 224.765,184.132 224.281 C 186.504 223.141,186.075 223.044,190.576 225.733 C 195.750 228.823,195.212 228.680,197.232 227.501 C 199.189 226.360,203.542 223.844,209.000 220.701 C 212.693 218.574,215.323 217.056,220.600 214.005 C 221.865 213.274,223.980 212.053,225.300 211.292 C 226.620 210.531,227.766 209.817,227.847 209.704 C 227.928 209.592,227.995 201.023,227.997 190.662 L 228.000 171.823 226.150 170.743 C 224.483 169.770,216.187 164.984,205.600 158.888 C 203.455 157.653,200.361 155.868,198.725 154.921 C 197.088 153.974,195.581 153.200,195.376 153.200 C 195.170 153.200,189.444 156.408,182.651 160.328 C 175.858 164.248,168.815 168.311,167.000 169.356 C 165.185 170.401,163.453 171.430,163.150 171.642 L 162.600 172.027 162.603 190.664 C 162.605 200.914,162.682 209.420,162.775 209.566 C 162.984 209.896,169.496 213.713,171.800 214.856 C 174.896 216.393,177.536 215.959,178.839 213.700 L 179.300 212.900 179.355 194.015 C 179.394 180.672,179.474 175.051,179.629 174.865 C 180.024 174.389,184.931 174.497,185.193 174.987 C 185.540 175.635,185.459 212.493,185.106 214.472 C 183.721 222.245,175.938 224.105,166.820 218.842 C 165.214 217.914,163.055 216.693,162.023 216.128 C 159.648 214.827,158.184 213.515,157.459 212.038 L 156.900 210.900 156.900 190.796 L 156.900 170.692 157.560 169.351 C 158.423 167.597,158.903 167.230,164.700 163.891 C 167.340 162.371,172.245 159.540,175.600 157.600 C 193.411 147.304,192.835 147.618,194.400 147.330 C 195.324 147.160,197.092 147.426,198.121 147.891 M247.004 164.539 C 250.364 165.624,252.117 169.830,250.544 173.032 C 247.615 178.997,238.800 176.924,238.800 170.271 C 238.800 166.122,242.943 163.228,247.004 164.539 M244.059 165.421 C 241.607 165.874,240.000 167.822,240.000 170.341 C 240.000 176.746,249.371 177.148,249.950 170.769 C 250.244 167.519,247.278 164.825,244.059 165.421 M246.962 167.408 C 247.566 167.970,247.638 169.403,247.093 170.006 C 246.860 170.265,246.859 170.438,247.084 171.106 C 247.831 173.327,247.660 174.209,246.535 173.927 C 246.140 173.828,246.044 173.625,245.886 172.555 L 245.700 171.300 244.859 171.239 L 244.019 171.178 243.959 172.539 L 243.900 173.900 243.300 173.900 L 242.700 173.900 242.645 170.450 L 242.591 167.000 244.558 167.000 C 246.261 167.000,246.583 167.055,246.962 167.408 M244.039 169.050 C 244.111 170.051,244.779 170.305,245.596 169.644 C 246.413 168.982,246.028 168.200,244.885 168.200 L 243.977 168.200 244.039 169.050 M208.600 173.890 C 214.845 174.837,218.232 177.463,219.484 182.329 C 220.298 185.494,220.060 185.800,216.784 185.800 C 213.973 185.800,214.019 185.820,213.613 184.400 C 212.536 180.634,210.150 179.395,203.984 179.403 C 198.530 179.411,196.181 180.549,195.881 183.331 C 195.598 185.955,197.507 186.750,207.100 188.001 C 216.794 189.264,220.263 191.372,221.019 196.456 C 222.107 203.774,216.652 208.493,206.600 208.927 C 195.676 209.399,189.380 205.871,188.380 198.717 C 188.036 196.258,188.104 196.199,191.281 196.203 C 194.157 196.207,194.142 196.199,194.509 197.774 C 195.489 201.974,197.666 203.078,205.000 203.092 C 211.912 203.105,214.354 201.991,214.562 198.729 C 214.757 195.662,212.647 194.686,203.900 193.798 C 193.521 192.744,189.743 190.310,189.448 184.491 C 189.047 176.585,197.072 172.143,208.600 173.890 " stroke="none" fill="#fbfbfb" fill-rule="evenodd"></path><path id="path3" d="M257.850 18.338 C 258.043 18.388,258.358 18.388,258.550 18.338 C 258.743 18.288,258.585 18.246,258.200 18.246 C 257.815 18.246,257.657 18.288,257.850 18.338 M256.000 46.155 C 256.000 69.835,255.968 72.561,255.684 73.005 L 255.368 73.500 255.784 73.028 L 256.200 72.556 256.200 46.178 C 256.200 31.670,256.155 19.800,256.100 19.800 C 256.045 19.800,256.000 31.660,256.000 46.155 M58.650 66.938 C 58.843 66.988,59.158 66.988,59.350 66.938 C 59.542 66.888,59.385 66.846,59.000 66.846 C 58.615 66.846,58.458 66.888,58.650 66.938 M149.800 67.803 C 149.589 67.941,149.708 67.961,150.200 67.871 C 151.063 67.713,151.225 67.599,150.583 67.603 C 150.317 67.605,149.965 67.695,149.800 67.803 M148.750 68.314 C 148.002 68.720,148.048 68.889,148.800 68.500 C 149.130 68.329,149.400 68.147,149.400 68.095 C 149.400 67.966,149.379 67.973,148.750 68.314 M156.600 70.090 C 156.600 70.145,156.870 70.329,157.200 70.500 C 157.530 70.671,157.800 70.765,157.800 70.710 C 157.800 70.655,157.530 70.471,157.200 70.300 C 156.870 70.129,156.600 70.035,156.600 70.090 M143.550 71.314 C 142.802 71.720,142.848 71.889,143.600 71.500 C 143.930 71.329,144.200 71.147,144.200 71.095 C 144.200 70.966,144.179 70.973,143.550 71.314 M327.550 71.514 C 326.802 71.920,326.848 72.089,327.600 71.700 C 327.930 71.529,328.200 71.347,328.200 71.295 C 328.200 71.166,328.179 71.173,327.550 71.514 M159.000 71.490 C 159.000 71.545,159.270 71.729,159.600 71.900 C 159.930 72.071,160.200 72.165,160.200 72.110 C 160.200 72.055,159.930 71.871,159.600 71.700 C 159.270 71.529,159.000 71.435,159.000 71.490 M140.750 72.914 C 140.002 73.320,140.048 73.489,140.800 73.100 C 141.130 72.929,141.400 72.747,141.400 72.695 C 141.400 72.566,141.379 72.573,140.750 72.914 M161.400 72.890 C 161.400 72.945,161.670 73.129,162.000 73.300 C 162.330 73.471,162.600 73.565,162.600 73.510 C 162.600 73.455,162.330 73.271,162.000 73.100 C 161.670 72.929,161.400 72.835,161.400 72.890 M253.888 73.285 C 254.102 73.458,254.507 73.591,254.788 73.580 C 255.259 73.561,255.250 73.547,254.683 73.411 C 254.343 73.330,253.938 73.198,253.783 73.117 C 253.627 73.036,253.675 73.112,253.888 73.285 M137.950 74.514 C 137.202 74.920,137.248 75.089,138.000 74.700 C 138.330 74.529,138.600 74.347,138.600 74.295 C 138.600 74.166,138.579 74.173,137.950 74.514 M351.000 75.490 C 351.000 75.545,351.270 75.729,351.600 75.900 C 351.930 76.071,352.200 76.165,352.200 76.110 C 352.200 76.055,351.930 75.871,351.600 75.700 C 351.270 75.529,351.000 75.435,351.000 75.490 M135.550 75.914 C 134.802 76.320,134.848 76.489,135.600 76.100 C 135.930 75.929,136.200 75.747,136.200 75.695 C 136.200 75.566,136.179 75.573,135.550 75.914 M228.350 75.914 C 227.602 76.320,227.648 76.489,228.400 76.100 C 228.730 75.929,229.000 75.747,229.000 75.695 C 229.000 75.566,228.979 75.573,228.350 75.914 M166.600 75.890 C 166.600 75.945,166.870 76.129,167.200 76.300 C 167.530 76.471,167.800 76.565,167.800 76.510 C 167.800 76.455,167.530 76.271,167.200 76.100 C 166.870 75.929,166.600 75.835,166.600 75.890 M133.150 77.314 C 132.402 77.720,132.448 77.889,133.200 77.500 C 133.530 77.329,133.800 77.147,133.800 77.095 C 133.800 76.966,133.779 76.973,133.150 77.314 M169.000 77.290 C 169.000 77.345,169.270 77.529,169.600 77.700 C 169.930 77.871,170.200 77.965,170.200 77.910 C 170.200 77.855,169.930 77.671,169.600 77.500 C 169.270 77.329,169.000 77.235,169.000 77.290 M172.300 79.145 C 172.410 79.250,172.860 79.538,173.300 79.785 C 173.740 80.032,173.920 80.085,173.700 79.902 C 173.253 79.531,171.986 78.846,172.300 79.145 M127.550 80.514 C 126.802 80.920,126.848 81.089,127.600 80.700 C 127.930 80.529,128.200 80.347,128.200 80.295 C 128.200 80.166,128.179 80.173,127.550 80.514 M174.600 80.490 C 174.600 80.545,174.870 80.729,175.200 80.900 C 175.530 81.071,175.800 81.165,175.800 81.110 C 175.800 81.055,175.530 80.871,175.200 80.700 C 174.870 80.529,174.600 80.435,174.600 80.490 M29.150 83.314 C 28.402 83.720,28.448 83.889,29.200 83.500 C 29.530 83.329,29.800 83.147,29.800 83.095 C 29.800 82.966,29.779 82.973,29.150 83.314 M122.350 83.514 C 121.602 83.920,121.648 84.089,122.400 83.700 C 122.730 83.529,123.000 83.347,123.000 83.295 C 123.000 83.166,122.979 83.173,122.350 83.514 M179.900 83.540 C 180.010 83.654,180.550 83.999,181.100 84.306 C 181.650 84.614,182.010 84.773,181.900 84.660 C 181.790 84.546,181.250 84.201,180.700 83.894 C 180.150 83.586,179.790 83.427,179.900 83.540 M119.950 84.914 C 119.202 85.320,119.248 85.489,120.000 85.100 C 120.330 84.929,120.600 84.747,120.600 84.695 C 120.600 84.566,120.579 84.573,119.950 84.914 M182.200 84.890 C 182.200 84.945,182.470 85.129,182.800 85.300 C 183.130 85.471,183.400 85.565,183.400 85.510 C 183.400 85.455,183.130 85.271,182.800 85.100 C 182.470 84.929,182.200 84.835,182.200 84.890 M114.687 88.250 L 114.100 88.900 114.750 88.313 C 115.108 87.990,115.400 87.697,115.400 87.663 C 115.400 87.508,115.235 87.644,114.687 88.250 M96.284 88.673 C 96.513 89.142,96.728 89.459,96.762 89.377 C 96.837 89.197,96.273 88.069,96.036 87.922 C 95.944 87.865,96.055 88.203,96.284 88.673 M96.897 114.400 C 96.897 127.875,96.921 133.388,96.950 126.650 C 96.979 119.913,96.979 108.888,96.950 102.150 C 96.921 95.413,96.897 100.925,96.897 114.400 M188.896 110.500 C 188.896 121.720,188.920 126.281,188.950 120.635 C 188.979 114.989,188.979 105.809,188.950 100.235 C 188.920 94.661,188.896 99.280,188.896 110.500 M298.096 110.600 C 298.096 121.655,298.120 126.177,298.150 120.650 C 298.180 115.122,298.180 106.077,298.150 100.550 C 298.120 95.022,298.096 99.545,298.096 110.600 M242.688 96.915 C 242.475 97.088,242.420 97.168,242.566 97.093 C 242.712 97.018,243.072 96.884,243.366 96.796 C 243.794 96.666,243.819 96.631,243.488 96.617 C 243.262 96.608,242.902 96.742,242.688 96.915 M240.150 98.314 C 239.402 98.720,239.448 98.889,240.200 98.500 C 240.530 98.329,240.800 98.147,240.800 98.095 C 240.800 97.966,240.779 97.973,240.150 98.314 M48.650 101.398 C 48.293 101.616,48.000 101.837,48.000 101.890 C 48.000 101.943,48.315 101.801,48.700 101.573 C 49.085 101.346,49.400 101.124,49.400 101.080 C 49.400 100.952,49.337 100.979,48.650 101.398 M335.088 102.294 C 334.736 102.561,334.759 102.566,335.336 102.355 C 335.824 102.177,336.103 102.179,336.536 102.365 C 337.057 102.588,337.070 102.583,336.712 102.303 C 336.221 101.920,335.587 101.916,335.088 102.294 M333.950 102.914 C 333.202 103.320,333.248 103.489,334.000 103.100 C 334.330 102.929,334.600 102.747,334.600 102.695 C 334.600 102.566,334.579 102.573,333.950 102.914 M337.200 102.690 C 337.200 102.745,337.470 102.929,337.800 103.100 C 338.130 103.271,338.400 103.365,338.400 103.310 C 338.400 103.255,338.130 103.071,337.800 102.900 C 337.470 102.729,337.200 102.635,337.200 102.690 M372.287 103.450 L 371.700 104.100 372.350 103.513 C 372.956 102.965,373.092 102.800,372.937 102.800 C 372.903 102.800,372.610 103.093,372.287 103.450 M230.890 111.000 C 230.890 114.905,230.917 116.503,230.950 114.550 C 230.982 112.598,230.982 109.403,230.950 107.450 C 230.917 105.498,230.890 107.095,230.890 111.000 M348.288 109.300 C 348.287 112.270,348.315 113.513,348.349 112.062 C 348.384 110.611,348.384 108.181,348.350 106.662 C 348.316 105.143,348.288 106.330,348.288 109.300 M71.494 117.100 C 71.494 124.250,71.519 127.146,71.550 123.535 C 71.580 119.925,71.580 114.075,71.550 110.535 C 71.519 106.996,71.494 109.950,71.494 117.100 M323.089 110.400 C 323.089 113.865,323.116 115.283,323.150 113.550 C 323.183 111.817,323.183 108.983,323.150 107.250 C 323.116 105.517,323.089 106.935,323.089 110.400 M342.650 105.861 C 342.963 106.114,343.000 106.585,343.000 110.335 L 343.000 114.526 342.200 114.976 C 341.760 115.223,341.400 115.474,341.400 115.533 C 341.400 115.592,341.783 115.415,342.250 115.139 L 343.100 114.637 343.154 110.328 C 343.208 106.021,343.207 106.018,342.754 105.798 C 342.345 105.600,342.335 105.606,342.650 105.861 M329.000 114.810 C 329.521 115.165,330.400 115.614,330.400 115.525 C 330.400 115.414,329.020 114.599,328.839 114.603 C 328.762 114.605,328.835 114.698,329.000 114.810 M330.600 115.690 C 330.600 115.745,330.870 115.929,331.200 116.100 C 331.530 116.271,331.800 116.365,331.800 116.310 C 331.800 116.255,331.530 116.071,331.200 115.900 C 330.870 115.729,330.600 115.635,330.600 115.690 M340.550 115.914 C 339.802 116.320,339.848 116.489,340.600 116.100 C 340.930 115.929,341.200 115.747,341.200 115.695 C 341.200 115.566,341.179 115.573,340.550 115.914 M333.400 117.290 C 333.400 117.345,333.670 117.529,334.000 117.700 C 334.330 117.871,334.600 117.965,334.600 117.910 C 334.600 117.855,334.330 117.671,334.000 117.500 C 333.670 117.329,333.400 117.235,333.400 117.290 M337.450 117.713 C 336.983 117.993,336.600 118.270,336.600 118.328 C 336.600 118.435,337.949 117.669,338.290 117.368 C 338.634 117.064,338.314 117.196,337.450 117.713 M244.950 124.514 C 244.202 124.920,244.248 125.089,245.000 124.700 C 245.330 124.529,245.600 124.347,245.600 124.295 C 245.600 124.166,245.579 124.173,244.950 124.514 M44.800 132.637 C 44.305 133.088,44.080 133.362,44.300 133.246 C 44.676 133.047,45.976 131.790,45.787 131.808 C 45.739 131.813,45.295 132.186,44.800 132.637 M206.200 132.863 C 206.200 132.897,206.493 133.190,206.850 133.513 L 207.500 134.100 206.913 133.450 C 206.365 132.844,206.200 132.708,206.200 132.863 M280.087 133.450 L 279.500 134.100 280.150 133.513 C 280.756 132.965,280.892 132.800,280.737 132.800 C 280.703 132.800,280.410 133.093,280.087 133.450 M358.539 138.194 C 358.671 138.367,358.868 138.731,358.977 139.004 C 359.108 139.334,359.179 139.386,359.187 139.161 C 359.194 138.975,358.998 138.610,358.750 138.351 C 358.503 138.092,358.408 138.022,358.539 138.194 M171.350 142.314 C 170.602 142.720,170.648 142.889,171.400 142.500 C 171.730 142.329,172.000 142.147,172.000 142.095 C 172.000 141.966,171.979 141.973,171.350 142.314 M168.550 143.914 C 167.802 144.320,167.848 144.489,168.600 144.100 C 168.930 143.929,169.200 143.747,169.200 143.695 C 169.200 143.566,169.179 143.573,168.550 143.914 M165.950 145.414 C 165.538 145.631,165.200 145.854,165.200 145.909 C 165.200 145.963,165.560 145.824,166.000 145.600 C 166.440 145.376,166.800 145.149,166.800 145.096 C 166.800 144.965,166.799 144.966,165.950 145.414 M350.550 145.514 C 349.802 145.920,349.848 146.089,350.600 145.700 C 350.930 145.529,351.200 145.347,351.200 145.295 C 351.200 145.166,351.179 145.173,350.550 145.514 M163.750 146.714 C 163.002 147.120,163.048 147.289,163.800 146.900 C 164.130 146.729,164.400 146.547,164.400 146.495 C 164.400 146.366,164.379 146.373,163.750 146.714 M195.050 147.338 C 195.243 147.388,195.558 147.388,195.750 147.338 C 195.942 147.288,195.785 147.246,195.400 147.246 C 195.015 147.246,194.858 147.288,195.050 147.338 M191.950 148.114 C 191.175 148.535,191.262 148.680,192.050 148.280 C 192.804 147.896,192.937 147.797,192.683 147.808 C 192.583 147.812,192.253 147.950,191.950 148.114 M160.250 148.713 C 159.783 148.993,159.400 149.270,159.400 149.328 C 159.400 149.435,160.749 148.669,161.090 148.368 C 161.434 148.064,161.114 148.196,160.250 148.713 M158.150 149.914 C 157.402 150.320,157.448 150.489,158.200 150.100 C 158.530 149.929,158.800 149.747,158.800 149.695 C 158.800 149.566,158.779 149.573,158.150 149.914 M201.600 149.890 C 201.600 149.945,201.870 150.129,202.200 150.300 C 202.530 150.471,202.800 150.565,202.800 150.510 C 202.800 150.455,202.530 150.271,202.200 150.100 C 201.870 149.929,201.600 149.835,201.600 149.890 M188.150 150.314 C 187.402 150.720,187.448 150.889,188.200 150.500 C 188.530 150.329,188.800 150.147,188.800 150.095 C 188.800 149.966,188.779 149.973,188.150 150.314 M340.150 151.314 C 339.402 151.720,339.448 151.889,340.200 151.500 C 340.530 151.329,340.800 151.147,340.800 151.095 C 340.800 150.966,340.779 150.973,340.150 151.314 M204.000 151.290 C 204.000 151.345,204.270 151.529,204.600 151.700 C 204.930 151.871,205.200 151.965,205.200 151.910 C 205.200 151.855,204.930 151.671,204.600 151.500 C 204.270 151.329,204.000 151.235,204.000 151.290 M152.600 153.010 C 152.105 153.212,151.815 153.383,151.956 153.389 C 152.280 153.403,153.600 152.858,153.600 152.710 C 153.600 152.650,153.578 152.609,153.550 152.621 C 153.523 152.632,153.095 152.807,152.600 153.010 M206.800 152.890 C 206.800 152.945,207.070 153.129,207.400 153.300 C 207.730 153.471,208.000 153.565,208.000 153.510 C 208.000 153.455,207.730 153.271,207.400 153.100 C 207.070 152.929,206.800 152.835,206.800 152.890 M194.722 153.164 C 194.667 153.254,194.886 153.289,195.211 153.241 C 195.535 153.194,195.800 153.120,195.800 153.077 C 195.800 152.925,194.821 153.003,194.722 153.164 M181.050 154.421 C 180.472 154.758,180.000 155.079,180.000 155.136 C 180.000 155.247,181.779 154.258,182.090 153.973 C 182.429 153.664,182.121 153.797,181.050 154.421 M197.000 153.892 C 197.000 153.947,197.360 154.176,197.800 154.400 C 198.240 154.624,198.600 154.763,198.600 154.708 C 198.600 154.653,198.240 154.424,197.800 154.200 C 197.360 153.976,197.000 153.837,197.000 153.892 M192.050 154.715 C 191.363 155.104,190.800 155.470,190.800 155.526 C 190.800 155.637,192.974 154.453,193.290 154.170 C 193.642 153.855,193.307 154.002,192.050 154.715 M210.600 155.090 C 210.600 155.145,210.870 155.329,211.200 155.500 C 211.530 155.671,211.800 155.765,211.800 155.710 C 211.800 155.655,211.530 155.471,211.200 155.300 C 210.870 155.129,210.600 155.035,210.600 155.090 M179.150 155.514 C 178.402 155.920,178.448 156.089,179.200 155.700 C 179.530 155.529,179.800 155.347,179.800 155.295 C 179.800 155.166,179.779 155.173,179.150 155.514 M199.800 155.490 C 199.800 155.545,200.070 155.729,200.400 155.900 C 200.730 156.071,201.000 156.165,201.000 156.110 C 201.000 156.055,200.730 155.871,200.400 155.700 C 200.070 155.529,199.800 155.435,199.800 155.490 M202.300 156.945 C 202.410 157.049,202.950 157.380,203.500 157.680 C 204.050 157.980,204.320 158.077,204.100 157.897 C 203.652 157.530,201.987 156.649,202.300 156.945 M214.400 157.290 C 214.400 157.345,214.670 157.529,215.000 157.700 C 215.330 157.871,215.600 157.965,215.600 157.910 C 215.600 157.855,215.330 157.671,215.000 157.500 C 214.670 157.329,214.400 157.235,214.400 157.290 M175.350 157.714 C 174.602 158.120,174.648 158.289,175.400 157.900 C 175.730 157.729,176.000 157.547,176.000 157.495 C 176.000 157.366,175.979 157.373,175.350 157.714 M173.950 158.514 C 173.202 158.920,173.248 159.089,174.000 158.700 C 174.330 158.529,174.600 158.347,174.600 158.295 C 174.600 158.166,174.579 158.173,173.950 158.514 M205.000 158.490 C 205.000 158.545,205.270 158.729,205.600 158.900 C 205.930 159.071,206.200 159.165,206.200 159.110 C 206.200 159.055,205.930 158.871,205.600 158.700 C 205.270 158.529,205.000 158.435,205.000 158.490 M184.750 158.914 C 184.002 159.320,184.048 159.489,184.800 159.100 C 185.130 158.929,185.400 158.747,185.400 158.695 C 185.400 158.566,185.379 158.573,184.750 158.914 M217.300 158.940 C 217.410 159.054,217.950 159.399,218.500 159.706 C 219.050 160.014,219.410 160.173,219.300 160.060 C 219.190 159.946,218.650 159.601,218.100 159.294 C 217.550 158.986,217.190 158.827,217.300 158.940 M171.550 159.914 C 170.802 160.320,170.848 160.489,171.600 160.100 C 171.930 159.929,172.200 159.747,172.200 159.695 C 172.200 159.566,172.179 159.573,171.550 159.914 M207.400 159.890 C 207.400 159.945,207.670 160.129,208.000 160.300 C 208.330 160.471,208.600 160.565,208.600 160.510 C 208.600 160.455,208.330 160.271,208.000 160.100 C 207.670 159.929,207.400 159.835,207.400 159.890 M182.350 160.314 C 181.602 160.720,181.648 160.889,182.400 160.500 C 182.730 160.329,183.000 160.147,183.000 160.095 C 183.000 159.966,182.979 159.973,182.350 160.314 M221.000 161.090 C 221.000 161.145,221.270 161.329,221.600 161.500 C 221.930 161.671,222.200 161.765,222.200 161.710 C 222.200 161.655,221.930 161.471,221.600 161.300 C 221.270 161.129,221.000 161.035,221.000 161.090 M168.750 161.514 C 168.002 161.920,168.048 162.089,168.800 161.700 C 169.130 161.529,169.400 161.347,169.400 161.295 C 169.400 161.166,169.379 161.173,168.750 161.514 M210.200 161.490 C 210.200 161.545,210.470 161.729,210.800 161.900 C 211.130 162.071,211.400 162.165,211.400 162.110 C 211.400 162.055,211.130 161.871,210.800 161.700 C 210.470 161.529,210.200 161.435,210.200 161.490 M179.550 161.914 C 178.802 162.320,178.848 162.489,179.600 162.100 C 179.930 161.929,180.200 161.747,180.200 161.695 C 180.200 161.566,180.179 161.573,179.550 161.914 M166.350 162.914 C 165.602 163.320,165.648 163.489,166.400 163.100 C 166.730 162.929,167.000 162.747,167.000 162.695 C 167.000 162.566,166.979 162.573,166.350 162.914 M212.700 162.945 C 212.810 163.049,213.350 163.380,213.900 163.680 C 214.450 163.980,214.720 164.077,214.500 163.897 C 214.052 163.530,212.387 162.649,212.700 162.945 M224.900 163.340 C 225.010 163.454,225.550 163.799,226.100 164.106 C 226.650 164.414,227.010 164.573,226.900 164.460 C 226.790 164.346,226.250 164.001,225.700 163.694 C 225.150 163.386,224.790 163.227,224.900 163.340 M164.450 164.021 C 163.873 164.358,163.400 164.679,163.400 164.736 C 163.400 164.847,165.179 163.858,165.490 163.573 C 165.829 163.264,165.521 163.397,164.450 164.021 M175.750 164.114 C 175.002 164.520,175.048 164.689,175.800 164.300 C 176.130 164.129,176.400 163.947,176.400 163.895 C 176.400 163.766,176.379 163.773,175.750 164.114 M243.300 164.388 C 243.073 164.478,243.549 164.509,244.400 164.458 C 246.354 164.341,246.640 164.232,245.000 164.230 C 244.285 164.229,243.520 164.300,243.300 164.388 M241.850 164.998 C 240.947 165.548,241.031 165.683,241.950 165.157 C 242.874 164.628,242.911 164.600,242.683 164.601 C 242.582 164.601,242.207 164.780,241.850 164.998 M249.293 166.200 C 249.832 166.805,250.314 167.345,250.363 167.400 C 250.413 167.455,250.359 167.320,250.243 167.100 C 250.127 166.880,249.645 166.340,249.173 165.900 C 248.326 165.111,248.327 165.116,249.293 166.200 M161.150 165.914 C 160.402 166.320,160.448 166.489,161.200 166.100 C 161.530 165.929,161.800 165.747,161.800 165.695 C 161.800 165.566,161.779 165.573,161.150 165.914 M247.300 165.931 C 248.152 166.379,249.132 167.354,249.414 168.033 C 249.546 168.352,249.693 168.573,249.742 168.525 C 250.158 168.109,247.652 165.569,246.863 165.608 C 246.773 165.612,246.970 165.758,247.300 165.931 M171.950 166.314 C 171.202 166.720,171.248 166.889,172.000 166.500 C 172.330 166.329,172.600 166.147,172.600 166.095 C 172.600 165.966,172.579 165.973,171.950 166.314 M218.300 166.145 C 218.410 166.250,218.860 166.538,219.300 166.785 C 219.740 167.032,219.920 167.085,219.700 166.902 C 219.253 166.531,217.986 165.846,218.300 166.145 M239.598 167.250 C 239.380 167.608,239.201 167.983,239.201 168.083 C 239.200 168.311,239.228 168.274,239.757 167.350 C 240.283 166.431,240.148 166.347,239.598 167.250 M242.693 170.500 L 242.700 173.900 243.173 173.967 C 243.433 174.004,243.729 173.951,243.829 173.851 C 243.940 173.740,243.775 173.702,243.411 173.756 L 242.810 173.844 242.748 170.472 L 242.686 167.100 242.693 170.500 M158.661 167.650 C 158.271 168.080,157.395 169.408,157.638 169.200 C 157.830 169.037,159.203 167.200,159.134 167.200 C 159.098 167.200,158.886 167.403,158.661 167.650 M240.629 167.465 C 240.113 168.087,239.801 169.249,239.830 170.444 L 239.860 171.700 239.988 170.189 C 240.073 169.177,240.259 168.433,240.551 167.939 C 240.994 167.188,241.027 166.985,240.629 167.465 M220.600 167.490 C 220.600 167.545,220.870 167.729,221.200 167.900 C 221.530 168.071,221.800 168.165,221.800 168.110 C 221.800 168.055,221.530 167.871,221.200 167.700 C 220.870 167.529,220.600 167.435,220.600 167.490 M243.933 168.133 C 243.751 168.316,243.764 169.754,243.950 169.869 C 244.032 169.920,244.069 169.571,244.031 169.093 L 243.962 168.225 244.831 168.147 L 245.700 168.070 244.883 168.035 C 244.434 168.016,244.007 168.060,243.933 168.133 M168.150 168.514 C 167.402 168.920,167.448 169.089,168.200 168.700 C 168.530 168.529,168.800 168.347,168.800 168.295 C 168.800 168.166,168.779 168.173,168.150 168.514 M223.000 168.890 C 223.000 168.945,223.270 169.129,223.600 169.300 C 223.930 169.471,224.200 169.565,224.200 169.510 C 224.200 169.455,223.930 169.271,223.600 169.100 C 223.270 168.929,223.000 168.835,223.000 168.890 M246.850 169.947 C 246.315 170.502,246.311 170.523,246.710 170.676 C 246.899 170.748,246.970 170.713,246.891 170.585 C 246.819 170.469,246.919 170.200,247.113 169.986 C 247.620 169.426,247.386 169.391,246.850 169.947 M251.060 170.400 C 251.060 171.005,251.097 171.253,251.143 170.950 C 251.189 170.648,251.189 170.153,251.143 169.850 C 251.097 169.548,251.060 169.795,251.060 170.400 M250.050 170.300 C 250.053 170.740,250.094 170.896,250.141 170.648 C 250.189 170.399,250.187 170.039,250.137 169.848 C 250.087 169.656,250.048 169.860,250.050 170.300 M165.350 170.114 C 164.602 170.520,164.648 170.689,165.400 170.300 C 165.730 170.129,166.000 169.947,166.000 169.895 C 166.000 169.766,165.979 169.773,165.350 170.114 M225.800 170.490 C 225.800 170.545,226.070 170.729,226.400 170.900 C 226.730 171.071,227.000 171.165,227.000 171.110 C 227.000 171.055,226.730 170.871,226.400 170.700 C 226.070 170.529,225.800 170.435,225.800 170.490 M156.896 190.700 C 156.896 201.590,156.920 206.016,156.950 200.535 C 156.980 195.054,156.980 186.144,156.950 180.735 C 156.920 175.326,156.896 179.810,156.896 190.700 M244.100 171.101 C 244.557 171.261,245.764 171.304,245.674 171.158 C 245.620 171.071,245.199 171.007,244.738 171.016 C 244.277 171.024,243.990 171.063,244.100 171.101 M233.896 190.700 C 233.896 201.370,233.920 205.706,233.950 200.335 C 233.980 194.964,233.980 186.234,233.950 180.935 C 233.920 175.636,233.896 180.030,233.896 190.700 M228.000 190.840 C 227.945 201.257,227.968 209.712,228.051 209.629 C 228.134 209.546,228.179 201.023,228.151 190.689 L 228.100 171.900 228.000 190.840 M249.448 172.675 C 249.329 172.936,248.935 173.499,248.573 173.925 C 248.019 174.577,248.003 174.621,248.470 174.203 C 249.075 173.662,249.900 172.433,249.755 172.289 C 249.706 172.239,249.567 172.413,249.448 172.675 M239.208 172.660 C 239.193 172.960,239.773 173.929,240.137 174.211 C 240.480 174.477,240.482 174.471,240.175 174.097 C 239.996 173.878,239.707 173.430,239.533 173.100 C 239.359 172.770,239.212 172.572,239.208 172.660 M240.402 172.849 C 240.399 173.096,241.834 174.605,242.283 174.827 C 242.512 174.940,242.411 174.796,242.058 174.508 C 241.705 174.220,241.189 173.695,240.910 173.342 C 240.632 172.989,240.403 172.767,240.402 172.849 M247.416 173.337 C 247.404 173.654,247.250 173.796,246.850 173.857 L 246.300 173.940 246.856 173.970 C 247.424 174.001,247.728 173.637,247.535 173.157 C 247.478 173.015,247.424 173.097,247.416 173.337 M202.559 173.749 C 203.472 173.786,204.912 173.786,205.759 173.748 C 206.607 173.711,205.860 173.681,204.100 173.681 C 202.340 173.681,201.647 173.712,202.559 173.749 M249.189 174.750 L 248.500 175.500 249.250 174.811 C 249.948 174.169,250.092 174.000,249.939 174.000 C 249.906 174.000,249.568 174.338,249.189 174.750 M179.606 174.893 C 179.472 175.055,179.409 175.302,179.465 175.443 C 179.532 175.609,179.574 175.579,179.584 175.360 C 179.593 175.173,179.758 174.928,179.950 174.816 C 180.143 174.704,180.199 174.609,180.074 174.606 C 179.950 174.603,179.739 174.732,179.606 174.893 M240.983 175.063 C 241.495 175.628,242.931 176.410,243.413 176.386 C 243.571 176.378,243.340 176.240,242.900 176.079 C 242.460 175.918,241.740 175.504,241.300 175.158 C 240.590 174.601,240.555 174.590,240.983 175.063 M213.017 175.075 C 213.221 175.261,214.800 175.998,214.800 175.908 C 214.800 175.794,213.291 175.000,213.075 175.000 C 212.997 175.000,212.971 175.034,213.017 175.075 M185.296 194.200 C 185.296 204.705,185.320 209.003,185.350 203.750 C 185.380 198.498,185.380 189.903,185.350 184.650 C 185.320 179.398,185.296 183.695,185.296 194.200 M245.000 175.400 L 243.900 175.535 244.900 175.553 C 245.450 175.564,246.080 175.495,246.300 175.400 C 246.751 175.206,246.581 175.206,245.000 175.400 M215.000 176.055 C 215.000 176.094,215.293 176.339,215.650 176.601 C 216.052 176.895,216.192 176.943,216.016 176.727 C 215.750 176.399,215.000 175.903,215.000 176.055 M246.943 176.123 C 246.876 176.191,246.118 176.320,245.260 176.410 L 243.700 176.573 245.209 176.519 C 246.398 176.477,248.196 176.032,247.283 176.006 C 247.164 176.003,247.011 176.055,246.943 176.123 M191.891 177.450 L 191.100 178.300 191.950 177.509 C 192.740 176.774,192.892 176.600,192.741 176.600 C 192.708 176.600,192.325 176.983,191.891 177.450 M217.086 177.843 C 217.487 178.361,218.036 179.171,218.305 179.643 C 218.575 180.114,218.796 180.405,218.798 180.289 C 218.801 179.985,217.754 178.418,217.001 177.600 C 216.431 176.982,216.441 177.010,217.086 177.843 M190.290 179.619 C 190.114 179.959,190.006 180.273,190.049 180.316 C 190.093 180.359,190.278 180.081,190.461 179.697 C 190.872 178.835,190.730 178.769,190.290 179.619 M204.500 179.395 C 206.370 179.476,208.215 179.601,208.600 179.672 L 209.300 179.800 208.700 179.578 C 208.368 179.454,206.535 179.331,204.600 179.301 L 201.100 179.247 204.500 179.395 M199.228 179.629 C 198.158 179.937,198.587 179.979,199.900 179.694 C 200.611 179.540,200.856 179.434,200.500 179.435 C 200.170 179.436,199.598 179.523,199.228 179.629 M196.861 180.915 L 196.300 181.429 196.950 180.977 C 197.308 180.728,197.600 180.497,197.600 180.462 C 197.600 180.305,197.379 180.440,196.861 180.915 M195.813 184.628 C 195.806 184.808,195.958 185.127,196.150 185.337 C 196.343 185.547,196.436 185.620,196.358 185.499 C 196.280 185.378,196.128 185.058,196.021 184.789 C 195.897 184.480,195.821 184.421,195.813 184.628 M196.911 186.017 C 197.023 186.199,198.994 186.873,199.101 186.766 C 199.142 186.725,198.645 186.505,197.996 186.278 C 197.347 186.051,196.859 185.933,196.911 186.017 M190.000 187.477 C 190.000 187.691,190.595 188.800,190.710 188.800 C 190.765 188.800,190.662 188.508,190.480 188.150 C 190.108 187.420,190.000 187.268,190.000 187.477 M208.450 188.338 C 208.643 188.388,208.957 188.388,209.150 188.338 C 209.343 188.288,209.185 188.246,208.800 188.246 C 208.415 188.246,208.257 188.288,208.450 188.338 M210.700 188.712 C 211.360 188.861,212.035 188.976,212.200 188.968 C 212.669 188.944,210.561 188.438,210.000 188.440 C 209.725 188.440,210.040 188.563,210.700 188.712 M191.500 189.769 C 192.248 190.581,194.051 191.798,194.500 191.795 C 194.610 191.794,194.205 191.520,193.600 191.187 C 192.995 190.855,192.095 190.204,191.600 189.741 L 190.700 188.900 191.500 189.769 M214.902 189.769 C 216.325 190.300,217.391 190.868,218.520 191.697 L 219.500 192.417 218.702 191.696 C 217.838 190.915,215.469 189.679,214.500 189.504 C 214.162 189.443,214.338 189.559,214.902 189.769 M198.400 193.000 C 198.675 193.088,199.125 193.158,199.400 193.156 C 199.849 193.153,199.839 193.137,199.300 193.000 C 198.454 192.785,197.728 192.785,198.400 193.000 M200.700 193.411 C 201.140 193.502,201.770 193.571,202.100 193.563 C 202.550 193.553,202.475 193.510,201.800 193.390 C 200.593 193.175,199.647 193.194,200.700 193.411 M203.350 193.741 C 203.597 193.789,204.003 193.789,204.250 193.741 C 204.498 193.693,204.295 193.654,203.800 193.654 C 203.305 193.654,203.103 193.693,203.350 193.741 M205.352 193.941 C 205.601 193.989,205.961 193.987,206.152 193.937 C 206.344 193.887,206.140 193.848,205.700 193.850 C 205.260 193.853,205.104 193.894,205.352 193.941 M206.850 194.138 C 207.043 194.188,207.357 194.188,207.550 194.138 C 207.743 194.088,207.585 194.046,207.200 194.046 C 206.815 194.046,206.657 194.088,206.850 194.138 M213.739 196.139 C 214.413 196.773,214.553 197.145,214.662 198.600 C 214.727 199.456,214.732 199.446,214.764 198.400 C 214.802 197.175,214.355 196.202,213.561 195.782 C 213.218 195.600,213.263 195.692,213.739 196.139 M188.517 196.581 C 188.287 196.835,188.199 197.186,188.254 197.631 L 188.336 198.300 188.368 197.561 C 188.390 197.049,188.536 196.727,188.845 196.511 C 189.089 196.340,189.193 196.200,189.075 196.200 C 188.958 196.200,188.707 196.372,188.517 196.581 M221.060 198.000 C 221.060 198.605,221.097 198.853,221.143 198.550 C 221.189 198.248,221.189 197.753,221.143 197.450 C 221.097 197.148,221.060 197.395,221.060 198.000 M188.613 200.020 C 188.598 200.388,189.012 201.655,189.114 201.552 C 189.152 201.515,189.058 201.083,188.905 200.592 C 188.752 200.101,188.621 199.844,188.613 200.020 M195.900 200.967 C 196.230 201.334,196.680 201.728,196.900 201.842 C 197.120 201.956,197.210 201.970,197.100 201.874 C 196.990 201.778,196.540 201.384,196.100 200.999 L 195.301 200.300 195.900 200.967 M213.200 201.437 C 212.705 201.888,212.480 202.162,212.700 202.046 C 213.076 201.847,214.376 200.590,214.187 200.608 C 214.139 200.613,213.695 200.986,213.200 201.437 M210.200 202.800 C 209.798 202.929,209.778 202.961,210.100 202.966 C 210.320 202.969,210.680 202.895,210.900 202.800 C 211.410 202.581,210.884 202.581,210.200 202.800 M219.576 203.245 C 219.445 203.489,218.883 204.187,218.326 204.795 L 217.314 205.900 218.314 204.950 C 219.217 204.092,220.181 202.800,219.918 202.800 C 219.861 202.800,219.707 203.000,219.576 203.245 M189.962 203.300 C 190.077 203.520,190.457 204.015,190.804 204.400 L 191.436 205.100 190.782 204.200 C 189.982 203.098,189.682 202.769,189.962 203.300 M200.952 203.141 C 201.201 203.189,201.561 203.187,201.752 203.137 C 201.944 203.087,201.740 203.048,201.300 203.050 C 200.860 203.053,200.704 203.094,200.952 203.141 M208.552 203.141 C 208.801 203.189,209.161 203.187,209.352 203.137 C 209.544 203.087,209.340 203.048,208.900 203.050 C 208.460 203.053,208.304 203.094,208.552 203.141 M203.641 203.348 C 204.379 203.386,205.639 203.387,206.441 203.349 C 207.244 203.311,206.640 203.279,205.100 203.279 C 203.560 203.279,202.904 203.310,203.641 203.348 M192.135 205.616 C 192.383 205.916,193.600 206.682,193.600 206.538 C 193.600 206.491,193.218 206.201,192.750 205.893 C 192.283 205.584,192.006 205.460,192.135 205.616 M195.200 207.366 C 195.365 207.468,195.725 207.612,196.000 207.685 C 196.347 207.778,196.408 207.763,196.200 207.634 C 196.035 207.532,195.675 207.388,195.400 207.315 C 195.053 207.222,194.992 207.237,195.200 207.366 M200.650 208.738 C 200.843 208.788,201.158 208.788,201.350 208.738 C 201.543 208.688,201.385 208.646,201.000 208.646 C 200.615 208.646,200.458 208.688,200.650 208.738 M208.752 208.741 C 209.001 208.789,209.361 208.787,209.552 208.737 C 209.744 208.687,209.540 208.648,209.100 208.650 C 208.660 208.653,208.504 208.694,208.752 208.741 M203.641 208.948 C 204.379 208.986,205.639 208.987,206.441 208.949 C 207.244 208.911,206.640 208.879,205.100 208.879 C 203.560 208.879,202.904 208.910,203.641 208.948 M163.200 210.090 C 163.200 210.145,163.470 210.329,163.800 210.500 C 164.130 210.671,164.400 210.765,164.400 210.710 C 164.400 210.655,164.130 210.471,163.800 210.300 C 163.470 210.129,163.200 210.035,163.200 210.090 M226.550 210.514 C 225.802 210.920,225.848 211.089,226.600 210.700 C 226.930 210.529,227.200 210.347,227.200 210.295 C 227.200 210.166,227.179 210.173,226.550 210.514 M157.200 211.477 C 157.200 211.691,157.795 212.800,157.910 212.800 C 157.965 212.800,157.862 212.507,157.680 212.150 C 157.308 211.420,157.200 211.268,157.200 211.477 M165.600 211.490 C 165.600 211.545,165.870 211.729,166.200 211.900 C 166.530 212.071,166.800 212.165,166.800 212.110 C 166.800 212.055,166.530 211.871,166.200 211.700 C 165.870 211.529,165.600 211.435,165.600 211.490 M224.150 211.914 C 223.402 212.320,223.448 212.489,224.200 212.100 C 224.530 211.929,224.800 211.747,224.800 211.695 C 224.800 211.566,224.779 211.573,224.150 211.914 M168.400 213.090 C 168.400 213.145,168.670 213.329,169.000 213.500 C 169.330 213.671,169.600 213.765,169.600 213.710 C 169.600 213.655,169.330 213.471,169.000 213.300 C 168.670 213.129,168.400 213.035,168.400 213.090 M221.750 213.314 C 221.002 213.720,221.048 213.889,221.800 213.500 C 222.130 213.329,222.400 213.147,222.400 213.095 C 222.400 212.966,222.379 212.973,221.750 213.314 M178.747 213.851 L 178.394 214.500 178.797 214.028 C 179.140 213.626,179.323 213.197,179.150 213.201 C 179.123 213.202,178.941 213.494,178.747 213.851 M231.789 213.950 L 231.100 214.700 231.850 214.011 C 232.548 213.369,232.692 213.200,232.539 213.200 C 232.506 213.200,232.168 213.538,231.789 213.950 M159.641 214.653 C 160.160 215.081,162.823 216.601,162.585 216.334 C 162.522 216.262,161.712 215.755,160.785 215.205 C 159.858 214.655,159.344 214.407,159.641 214.653 M171.200 214.704 C 171.200 214.874,173.253 215.798,173.600 215.784 C 173.765 215.777,173.577 215.653,173.181 215.507 C 172.786 215.362,172.178 215.096,171.831 214.916 C 171.484 214.737,171.200 214.641,171.200 214.704 M177.500 215.125 C 177.140 215.431,177.067 215.553,177.316 215.429 C 177.683 215.247,178.371 214.588,178.174 214.607 C 178.134 214.611,177.830 214.844,177.500 215.125 M218.950 214.914 C 218.202 215.320,218.248 215.489,219.000 215.100 C 219.330 214.929,219.600 214.747,219.600 214.695 C 219.600 214.566,219.579 214.573,218.950 214.914 M230.250 215.023 C 229.568 215.460,229.348 215.753,229.950 215.422 C 230.409 215.169,231.128 214.614,231.000 214.610 C 230.945 214.608,230.607 214.794,230.250 215.023 M228.550 216.014 C 228.138 216.231,227.800 216.454,227.800 216.509 C 227.800 216.563,228.160 216.424,228.600 216.200 C 229.040 215.976,229.400 215.749,229.400 215.696 C 229.400 215.565,229.399 215.566,228.550 216.014 M174.554 215.945 C 174.913 215.989,175.453 215.989,175.754 215.943 C 176.054 215.897,175.760 215.861,175.100 215.862 C 174.440 215.863,174.194 215.900,174.554 215.945 M216.550 216.314 C 215.802 216.720,215.848 216.889,216.600 216.500 C 216.930 216.329,217.200 216.147,217.200 216.095 C 217.200 215.966,217.179 215.973,216.550 216.314 M184.139 217.103 C 183.956 217.486,183.848 217.800,183.898 217.800 C 184.035 217.800,184.642 216.575,184.551 216.484 C 184.507 216.441,184.322 216.719,184.139 217.103 M225.950 217.514 C 225.202 217.920,225.248 218.089,226.000 217.700 C 226.330 217.529,226.600 217.347,226.600 217.295 C 226.600 217.166,226.579 217.173,225.950 217.514 M213.750 217.914 C 213.002 218.320,213.048 218.489,213.800 218.100 C 214.130 217.929,214.400 217.747,214.400 217.695 C 214.400 217.566,214.379 217.573,213.750 217.914 M166.600 218.684 C 166.600 218.818,170.007 220.660,170.093 220.572 C 170.133 220.533,169.363 220.070,168.382 219.544 C 167.402 219.019,166.600 218.631,166.600 218.684 M182.687 219.220 C 182.364 219.561,181.650 220.100,181.100 220.418 C 180.550 220.736,180.195 220.997,180.311 220.998 C 180.656 221.001,182.255 219.902,182.887 219.227 C 183.210 218.882,183.430 218.600,183.375 218.600 C 183.320 218.600,183.010 218.879,182.687 219.220 M223.150 219.114 C 222.402 219.520,222.448 219.689,223.200 219.300 C 223.530 219.129,223.800 218.947,223.800 218.895 C 223.800 218.766,223.779 218.773,223.150 219.114 M209.950 220.114 C 209.202 220.520,209.248 220.689,210.000 220.300 C 210.330 220.129,210.600 219.947,210.600 219.895 C 210.600 219.766,210.579 219.773,209.950 220.114 M220.750 220.514 C 220.002 220.920,220.048 221.089,220.800 220.700 C 221.130 220.529,221.400 220.347,221.400 220.295 C 221.400 220.166,221.379 220.173,220.750 220.514 M208.550 220.914 C 207.802 221.320,207.848 221.489,208.600 221.100 C 208.930 220.929,209.200 220.747,209.200 220.695 C 209.200 220.566,209.179 220.573,208.550 220.914 M174.657 221.748 C 175.294 221.788,176.284 221.787,176.857 221.747 C 177.431 221.707,176.910 221.674,175.700 221.675 C 174.490 221.675,174.021 221.708,174.657 221.748 M217.950 222.114 C 217.202 222.520,217.248 222.689,218.000 222.300 C 218.330 222.129,218.600 221.947,218.600 221.895 C 218.600 221.766,218.579 221.773,217.950 222.114 M206.150 222.314 C 205.402 222.720,205.448 222.889,206.200 222.500 C 206.530 222.329,206.800 222.147,206.800 222.095 C 206.800 221.966,206.779 221.973,206.150 222.314 M215.550 223.514 C 214.802 223.920,214.848 224.089,215.600 223.700 C 215.930 223.529,216.200 223.347,216.200 223.295 C 216.200 223.166,216.179 223.173,215.550 223.514 M186.417 223.464 C 186.747 223.719,188.400 224.597,188.400 224.517 C 188.400 224.388,186.718 223.400,186.499 223.400 C 186.408 223.400,186.371 223.429,186.417 223.464 M202.850 224.221 C 202.273 224.558,201.800 224.879,201.800 224.936 C 201.800 225.047,203.579 224.058,203.890 223.773 C 204.229 223.464,203.921 223.597,202.850 224.221 M184.000 224.400 C 183.395 224.720,182.970 224.985,183.057 224.991 C 183.269 225.003,185.200 224.018,185.200 223.897 C 185.200 223.763,185.228 223.751,184.000 224.400 M188.600 224.690 C 188.600 224.745,188.870 224.929,189.200 225.100 C 189.530 225.271,189.800 225.365,189.800 225.310 C 189.800 225.255,189.530 225.071,189.200 224.900 C 188.870 224.729,188.600 224.635,188.600 224.690 M213.150 224.914 C 212.402 225.320,212.448 225.489,213.200 225.100 C 213.530 224.929,213.800 224.747,213.800 224.695 C 213.800 224.566,213.779 224.573,213.150 224.914 M181.800 225.300 C 181.415 225.448,181.235 225.572,181.400 225.576 C 181.565 225.579,181.970 225.458,182.300 225.307 C 183.072 224.954,182.713 224.948,181.800 225.300 M200.950 225.314 C 200.202 225.720,200.248 225.889,201.000 225.500 C 201.330 225.329,201.600 225.147,201.600 225.095 C 201.600 224.966,201.579 224.973,200.950 225.314 M180.416 226.019 C 180.407 226.194,180.603 226.509,180.850 226.719 C 181.296 227.097,181.297 227.097,180.976 226.700 C 180.798 226.480,180.603 226.165,180.542 226.000 C 180.448 225.745,180.429 225.748,180.416 226.019 M210.350 226.514 C 209.602 226.920,209.648 227.089,210.400 226.700 C 210.730 226.529,211.000 226.347,211.000 226.295 C 211.000 226.166,210.979 226.173,210.350 226.514 M182.400 227.665 C 182.400 227.714,183.053 228.138,183.850 228.606 C 185.689 229.687,185.600 229.639,185.600 229.535 C 185.600 229.486,184.947 229.062,184.150 228.594 C 182.311 227.513,182.400 227.561,182.400 227.665 M194.000 227.898 C 194.000 228.398,195.596 228.700,196.112 228.297 C 196.471 228.016,196.459 228.011,195.945 228.231 C 195.489 228.426,195.265 228.409,194.695 228.138 C 194.313 227.956,194.000 227.848,194.000 227.898 M206.438 228.784 C 204.811 229.737,204.007 230.305,205.000 229.800 C 205.875 229.354,208.200 227.957,208.200 227.877 C 208.200 227.752,208.174 227.766,206.438 228.784 M187.800 230.890 C 187.800 230.945,188.070 231.129,188.400 231.300 C 188.730 231.471,189.000 231.565,189.000 231.510 C 189.000 231.455,188.730 231.271,188.400 231.100 C 188.070 230.929,187.800 230.835,187.800 230.890 M190.300 232.345 C 190.410 232.450,190.860 232.738,191.300 232.985 C 191.740 233.232,191.920 233.285,191.700 233.102 C 191.253 232.731,189.986 232.046,190.300 232.345 M199.950 232.514 C 199.202 232.920,199.248 233.089,200.000 232.700 C 200.330 232.529,200.600 232.347,200.600 232.295 C 200.600 232.166,200.579 232.173,199.950 232.514 M198.100 233.513 C 197.550 233.778,197.216 233.996,197.358 233.997 C 197.651 234.000,199.200 233.242,199.200 233.096 C 199.200 232.975,199.278 232.946,198.100 233.513 " stroke="none" fill="#abb4aa" fill-rule="evenodd"></path></g></svg>
