<svg id="svg" xmlns="http://www.w3.org/2000/svg" xmlns:xlink="http://www.w3.org/1999/xlink" width="80" height="82.54" viewBox="0, 0, 400,412.72727272727275"><g id="svgg"><path id="path0" d="M276.400 12.027 C 274.970 12.201,271.460 12.548,268.600 12.798 C 265.740 13.048,262.410 13.497,261.200 13.795 C 259.990 14.094,257.650 14.541,256.000 14.788 C 254.350 15.036,252.190 15.501,251.200 15.823 C 244.607 17.965,238.099 19.229,235.800 18.815 C 234.700 18.616,232.900 18.336,231.800 18.191 C 230.700 18.047,228.851 17.684,227.692 17.384 C 221.453 15.772,194.583 15.783,190.000 17.400 C 189.157 17.697,187.597 18.059,186.533 18.203 C 184.311 18.505,178.997 20.107,176.489 21.232 C 175.548 21.655,174.590 22.000,174.360 22.000 C 173.637 22.000,163.510 27.166,161.611 28.503 C 160.333 29.403,158.603 29.368,156.600 28.400 C 155.720 27.975,154.730 27.613,154.400 27.596 C 154.070 27.579,153.080 27.291,152.200 26.956 C 150.567 26.334,147.290 25.358,143.000 24.214 C 141.680 23.862,139.471 23.220,138.092 22.787 C 136.712 22.354,135.070 22.000,134.442 22.000 C 133.814 22.000,132.513 21.716,131.550 21.369 C 130.588 21.022,128.180 20.493,126.200 20.193 C 124.220 19.894,121.250 19.385,119.600 19.063 C 117.950 18.740,114.620 18.267,112.200 18.010 C 109.780 17.753,106.540 17.384,105.000 17.189 C 100.242 16.588,85.476 16.731,81.000 17.423 C 78.800 17.762,75.560 18.197,73.800 18.388 C 72.040 18.580,70.063 18.942,69.406 19.194 C 68.749 19.446,67.129 19.897,65.806 20.196 C 50.293 23.706,32.524 36.386,25.442 49.000 C 25.072 49.660,24.334 50.920,23.803 51.800 C 23.272 52.680,22.720 53.670,22.575 54.000 C 22.431 54.330,21.896 55.500,21.388 56.600 C 18.931 61.912,18.400 63.205,18.398 63.875 C 18.396 64.274,18.120 65.128,17.784 65.772 C 17.014 67.249,15.888 71.909,13.958 81.616 C 12.018 91.371,11.935 118.087,13.822 125.614 C 14.128 126.832,14.575 129.597,14.816 131.759 C 15.057 133.921,15.425 136.139,15.634 136.689 C 15.843 137.238,16.277 139.563,16.599 141.855 C 16.920 144.147,17.352 146.337,17.558 146.722 C 17.764 147.107,18.120 148.767,18.349 150.411 C 18.577 152.055,19.020 154.124,19.332 155.008 C 19.644 155.893,20.024 157.603,20.177 158.808 C 20.329 160.014,20.788 162.080,21.195 163.400 C 21.603 164.720,22.053 166.662,22.195 167.715 C 22.337 168.769,22.701 170.224,23.004 170.948 C 23.307 171.673,23.678 173.241,23.829 174.433 C 23.980 175.625,24.361 177.230,24.676 178.000 C 24.992 178.770,25.496 180.570,25.796 182.000 C 26.420 184.964,27.348 188.486,28.275 191.400 C 28.624 192.500,29.140 194.390,29.420 195.600 C 29.701 196.810,30.226 198.700,30.587 199.800 C 30.948 200.900,31.693 203.330,32.243 205.200 C 32.792 207.070,33.613 209.860,34.067 211.400 C 34.520 212.940,35.219 215.100,35.620 216.200 C 36.021 217.300,36.532 218.830,36.755 219.600 C 36.979 220.370,37.720 222.530,38.402 224.400 C 39.083 226.270,39.890 228.610,40.194 229.600 C 40.888 231.860,44.241 240.243,45.018 241.662 C 45.338 242.246,45.600 242.943,45.600 243.212 C 45.600 244.783,55.793 265.884,57.739 268.343 C 57.975 268.641,58.356 269.190,58.584 269.562 C 58.813 269.934,59.360 270.827,59.800 271.545 C 65.271 280.480,75.483 290.688,80.475 292.213 C 80.984 292.368,82.210 292.875,83.200 293.340 C 85.927 294.620,94.908 294.586,97.800 293.285 C 105.143 289.982,109.338 286.397,117.798 276.200 C 120.170 273.340,122.311 270.820,122.556 270.600 C 122.800 270.380,124.077 268.940,125.394 267.400 C 126.711 265.860,127.889 264.510,128.011 264.400 C 128.133 264.290,129.310 262.940,130.625 261.400 C 133.364 258.193,136.357 254.932,141.168 249.913 C 144.998 245.918,145.481 245.759,148.925 247.371 C 152.756 249.164,155.769 250.050,160.800 250.861 C 168.866 252.163,168.933 252.316,164.037 258.311 C 159.360 264.038,155.848 266.611,151.600 267.422 C 150.830 267.569,149.120 268.012,147.800 268.405 C 146.480 268.798,144.410 269.328,143.200 269.583 C 127.008 272.985,121.800 276.352,121.800 283.417 C 121.800 287.102,122.586 288.687,125.830 291.542 C 128.162 293.596,135.653 297.237,138.617 297.758 C 139.488 297.911,141.730 298.411,143.600 298.869 C 148.654 300.107,165.701 300.121,169.600 298.890 C 171.030 298.439,172.830 297.940,173.600 297.781 C 177.140 297.052,185.757 292.589,190.783 288.882 C 194.214 286.351,194.187 286.279,194.288 298.200 C 194.426 314.441,195.201 341.147,195.611 343.800 C 195.815 345.120,196.169 348.630,196.397 351.600 C 197.665 368.099,202.728 380.666,211.800 389.833 C 214.678 392.740,218.903 395.986,219.841 396.009 C 220.039 396.014,220.650 396.370,221.200 396.800 C 221.750 397.230,222.473 397.586,222.806 397.591 C 223.139 397.596,224.073 397.954,224.881 398.387 C 230.704 401.508,244.075 401.767,255.000 398.971 C 256.320 398.633,258.480 398.106,259.800 397.800 C 264.663 396.671,269.217 394.780,276.800 390.742 C 285.081 386.331,294.528 373.538,296.250 364.400 C 296.395 363.630,296.759 362.512,297.059 361.917 C 297.358 361.321,297.793 359.468,298.025 357.800 C 298.257 356.132,298.693 354.071,298.993 353.220 C 299.293 352.369,299.661 350.172,299.811 348.337 C 299.960 346.502,300.405 343.470,300.800 341.600 C 301.195 339.730,301.640 336.670,301.790 334.800 C 301.940 332.930,302.308 330.225,302.607 328.789 C 302.907 327.352,303.345 324.022,303.581 321.389 C 303.817 318.755,304.187 315.880,304.402 315.000 C 304.618 314.120,304.978 311.150,305.204 308.400 C 305.429 305.650,305.875 301.960,306.195 300.200 C 306.514 298.440,306.968 294.570,307.203 291.600 C 307.896 282.837,308.577 281.500,311.742 282.687 C 314.212 283.614,336.097 283.595,340.400 282.663 C 342.050 282.306,344.840 281.743,346.600 281.412 C 361.466 278.623,376.387 270.399,384.427 260.566 C 391.019 252.502,387.796 244.792,377.836 244.803 C 374.482 244.807,366.584 245.798,364.949 246.420 C 363.900 246.819,356.674 247.628,348.600 248.250 C 342.021 248.757,329.600 246.271,329.600 244.446 C 329.600 243.672,331.251 240.511,333.177 237.600 C 335.200 234.542,337.364 230.997,338.305 229.200 C 338.593 228.650,339.228 227.542,339.715 226.739 C 340.429 225.560,344.301 218.662,346.017 215.512 C 346.223 215.134,347.545 212.596,348.955 209.873 C 350.364 207.149,351.711 204.579,351.948 204.160 C 352.184 203.742,353.119 201.780,354.026 199.800 C 356.446 194.518,357.973 191.206,358.822 189.400 C 359.236 188.520,360.129 186.450,360.807 184.800 C 361.485 183.150,362.390 181.060,362.820 180.156 C 363.249 179.252,363.600 178.306,363.600 178.055 C 363.600 177.803,363.960 176.925,364.400 176.104 C 364.840 175.284,365.206 174.339,365.213 174.006 C 365.219 173.673,365.668 172.500,366.209 171.400 C 366.750 170.300,367.194 169.127,367.196 168.794 C 367.198 168.461,367.536 167.561,367.947 166.794 C 368.357 166.027,368.818 164.833,368.970 164.139 C 369.122 163.446,369.596 162.192,370.023 161.354 C 370.450 160.516,370.800 159.497,370.800 159.090 C 370.800 158.682,371.140 157.505,371.555 156.474 C 371.971 155.443,372.801 152.980,373.399 151.000 C 373.998 149.020,374.812 146.410,375.209 145.200 C 375.605 143.990,376.050 142.370,376.197 141.600 C 376.344 140.830,376.810 139.248,377.232 138.085 C 377.654 136.922,378.000 135.617,378.000 135.187 C 378.000 134.756,378.347 133.367,378.771 132.102 C 379.195 130.836,379.658 128.990,379.799 128.000 C 379.939 127.010,380.379 125.120,380.776 123.800 C 381.173 122.480,381.690 120.230,381.925 118.800 C 382.160 117.370,382.617 114.850,382.941 113.200 C 386.186 96.667,386.867 74.512,384.385 66.200 C 383.991 64.880,383.547 63.036,383.399 62.102 C 383.251 61.168,382.979 60.311,382.794 60.197 C 382.610 60.082,382.237 59.316,381.967 58.494 C 380.456 53.904,370.232 42.387,361.200 35.105 C 346.796 23.490,324.189 14.185,307.000 12.795 C 304.360 12.582,301.120 12.227,299.800 12.006 C 297.028 11.542,280.249 11.557,276.400 12.027 M296.000 22.817 C 297.870 23.043,301.407 23.388,303.860 23.585 C 307.750 23.895,311.103 24.498,317.400 26.019 C 321.343 26.971,323.953 27.711,325.900 28.427 C 327.055 28.852,329.035 29.582,330.300 30.050 C 334.883 31.743,341.099 34.720,342.431 35.860 C 342.779 36.157,343.209 36.400,343.387 36.400 C 343.565 36.400,345.233 37.435,347.092 38.700 C 348.952 39.965,350.944 41.308,351.518 41.684 C 356.877 45.192,368.738 57.432,371.275 62.071 C 374.543 68.046,375.981 88.919,373.890 100.000 C 373.537 101.870,373.048 105.110,372.805 107.200 C 372.561 109.290,372.110 111.900,371.802 113.000 C 371.495 114.100,371.118 116.080,370.966 117.400 C 370.813 118.720,370.451 120.475,370.162 121.301 C 369.872 122.126,369.431 123.926,369.182 125.301 C 368.933 126.675,368.377 128.970,367.948 130.400 C 366.355 135.703,365.625 138.226,365.400 139.200 C 365.009 140.892,363.515 145.703,362.790 147.600 C 362.412 148.590,361.981 149.940,361.832 150.600 C 361.684 151.260,361.232 152.700,360.829 153.800 C 360.425 154.900,359.876 156.430,359.609 157.200 C 359.342 157.970,358.709 159.680,358.203 161.000 C 355.824 167.212,355.126 169.101,354.739 170.375 C 354.509 171.132,353.979 172.389,353.560 173.169 C 353.142 173.950,352.800 174.751,352.800 174.950 C 352.800 175.149,352.449 176.052,352.020 176.956 C 351.590 177.860,350.674 179.950,349.983 181.600 C 349.292 183.250,348.014 186.130,347.143 188.000 C 346.273 189.870,345.230 192.120,344.827 193.000 C 341.449 200.364,333.201 216.007,329.000 223.017 C 328.560 223.751,327.441 225.668,326.513 227.276 C 322.135 234.863,319.560 233.994,323.371 226.215 C 325.388 222.098,326.586 218.866,327.380 215.400 C 327.682 214.080,328.138 212.460,328.393 211.800 C 330.114 207.342,330.199 188.847,328.551 177.200 C 327.346 168.690,327.122 164.486,327.325 154.200 C 327.473 146.666,327.702 143.117,328.155 141.320 C 328.500 139.956,328.970 136.806,329.201 134.320 C 329.432 131.834,329.886 128.385,330.210 126.656 C 330.995 122.471,331.019 111.298,330.247 109.450 C 329.942 108.721,329.485 107.152,329.232 105.963 C 328.799 103.938,327.484 100.231,326.172 97.340 C 325.857 96.646,325.600 95.982,325.600 95.863 C 325.600 95.543,321.400 87.007,319.764 84.000 C 318.436 81.561,317.277 79.673,315.537 77.116 C 315.132 76.520,314.800 75.939,314.800 75.826 C 314.800 75.712,313.675 74.070,312.300 72.177 C 310.925 70.284,309.535 68.345,309.212 67.868 C 307.171 64.856,299.529 55.954,295.435 51.820 C 285.121 41.405,276.799 35.340,263.232 28.350 C 261.599 27.509,260.069 26.749,259.832 26.661 C 257.888 25.938,264.922 24.139,271.994 23.551 C 274.747 23.322,278.530 22.996,280.400 22.826 C 285.529 22.361,292.195 22.357,296.000 22.817 M225.600 28.349 C 232.628 29.696,233.555 29.891,237.000 30.755 C 241.107 31.784,243.071 32.404,248.600 34.420 C 266.771 41.044,286.124 56.030,299.132 73.549 C 302.778 78.459,303.071 78.881,304.589 81.400 C 305.385 82.720,306.567 84.610,307.217 85.600 C 307.866 86.590,308.652 87.940,308.963 88.600 C 309.274 89.260,310.180 90.951,310.975 92.357 C 311.771 93.764,312.973 96.194,313.647 97.757 C 314.321 99.321,315.204 101.320,315.610 102.200 C 317.938 107.246,318.171 107.125,305.800 107.329 C 295.219 107.504,286.496 109.344,283.888 111.952 C 283.642 112.198,283.242 112.400,283.000 112.400 C 280.453 112.400,271.848 122.347,270.969 126.308 C 270.835 126.909,270.353 128.480,269.897 129.800 C 268.675 133.339,268.681 145.440,269.907 150.400 C 270.370 152.270,270.871 154.610,271.021 155.600 C 271.172 156.590,271.528 157.856,271.813 158.414 C 272.098 158.971,272.459 160.141,272.614 161.014 C 272.770 161.886,273.218 163.410,273.610 164.400 C 274.002 165.390,274.593 167.010,274.924 168.000 C 276.132 171.621,276.824 173.423,277.405 174.462 C 277.732 175.046,278.000 175.738,278.000 176.001 C 278.000 176.782,286.108 193.554,289.022 198.800 C 293.438 206.753,295.490 210.619,300.606 220.627 C 304.721 228.675,306.652 231.656,312.351 238.751 C 315.229 242.334,315.147 242.666,310.912 244.604 C 305.823 246.932,300.000 253.312,300.000 256.560 C 300.000 256.855,299.635 258.237,299.190 259.632 C 298.580 261.542,298.326 263.704,298.165 268.384 C 298.047 271.803,297.695 276.400,297.383 278.600 C 297.071 280.800,296.623 284.916,296.388 287.748 C 296.153 290.579,295.786 293.819,295.571 294.948 C 295.357 296.076,294.917 299.880,294.593 303.400 C 294.270 306.920,293.828 310.413,293.612 311.163 C 293.396 311.913,293.025 314.783,292.788 317.542 C 292.550 320.300,292.110 323.737,291.809 325.179 C 291.509 326.620,291.142 329.330,290.994 331.200 C 290.845 333.070,290.470 335.740,290.160 337.133 C 289.850 338.526,289.411 341.406,289.184 343.533 C 288.818 346.971,288.374 349.439,286.836 356.600 C 286.187 359.621,285.000 363.700,284.507 364.600 C 284.267 365.040,283.579 366.480,282.980 367.800 C 280.692 372.840,276.594 377.644,272.200 380.436 C 271.100 381.135,269.712 382.042,269.116 382.453 C 268.520 382.864,267.902 383.200,267.742 383.200 C 267.583 383.200,266.721 383.546,265.826 383.970 C 263.621 385.014,258.669 386.638,256.069 387.169 C 254.897 387.409,253.620 387.775,253.230 387.984 C 252.320 388.471,241.961 389.997,239.600 389.992 C 228.819 389.968,219.628 384.528,214.415 375.086 C 211.954 370.628,209.200 364.123,209.200 362.769 C 209.200 362.321,208.846 360.209,208.413 358.077 C 207.980 355.945,207.429 351.230,207.189 347.600 C 206.948 343.970,206.558 339.290,206.321 337.200 C 206.065 334.947,205.790 318.745,205.645 297.400 C 205.427 265.378,205.329 261.267,204.756 260.200 C 204.402 259.540,203.990 258.489,203.840 257.865 C 202.103 250.631,193.257 243.799,184.923 243.256 C 181.317 243.021,181.006 242.935,181.074 242.200 C 181.179 241.064,182.211 237.320,183.004 235.200 C 183.374 234.210,184.129 232.140,184.681 230.600 C 185.704 227.749,186.195 226.513,188.417 221.200 C 189.878 217.708,190.954 215.240,191.992 213.000 C 194.429 207.742,197.729 197.308,198.380 192.800 C 198.587 191.370,199.025 188.940,199.355 187.400 C 200.695 181.132,200.510 159.774,199.048 152.000 C 198.737 150.350,198.360 147.740,198.210 146.200 C 198.059 144.660,197.591 142.061,197.168 140.425 C 196.746 138.788,196.399 136.988,196.398 136.425 C 196.381 129.670,189.497 117.766,183.446 114.028 C 176.113 109.499,163.531 107.601,155.184 109.767 C 153.983 110.078,151.858 110.539,150.462 110.791 C 149.067 111.043,147.357 111.495,146.662 111.795 C 145.968 112.095,144.590 112.607,143.600 112.932 C 140.080 114.089,138.154 114.875,134.539 116.626 C 130.721 118.476,129.427 118.769,129.078 117.860 C 128.763 117.037,129.501 108.887,130.155 105.977 C 130.473 104.560,130.850 102.410,130.992 101.200 C 131.135 99.990,131.573 97.830,131.967 96.400 C 132.361 94.970,132.988 92.630,133.360 91.200 C 134.623 86.344,135.130 84.603,135.804 82.800 C 136.174 81.810,136.931 79.740,137.485 78.200 C 140.121 70.880,144.957 61.633,149.481 55.261 C 152.962 50.359,159.064 43.929,162.000 42.070 C 162.550 41.721,163.810 40.793,164.800 40.006 C 168.775 36.847,174.131 33.759,177.695 32.571 C 178.738 32.223,179.684 31.788,179.797 31.604 C 179.911 31.420,180.768 31.142,181.702 30.986 C 182.636 30.830,184.210 30.388,185.200 30.003 C 186.190 29.619,188.068 29.174,189.374 29.014 C 190.680 28.855,192.210 28.545,192.774 28.326 C 196.424 26.911,218.172 26.926,225.600 28.349 M105.000 28.414 C 109.400 28.867,114.800 29.578,117.000 29.993 C 119.200 30.409,122.057 30.866,123.348 31.009 C 124.640 31.152,126.380 31.511,127.215 31.805 C 128.050 32.100,129.603 32.456,130.667 32.596 C 131.730 32.736,133.770 33.198,135.200 33.621 C 136.630 34.045,138.835 34.663,140.100 34.995 C 149.352 37.427,149.274 37.337,145.764 41.530 C 144.534 42.998,142.874 44.982,142.076 45.937 C 141.277 46.893,140.349 48.090,140.012 48.597 C 139.675 49.104,138.698 50.573,137.839 51.860 C 136.435 53.966,135.557 55.361,134.103 57.800 C 133.667 58.532,129.510 66.962,128.186 69.800 C 127.428 71.425,126.479 74.092,125.591 77.095 C 125.185 78.467,124.728 79.792,124.575 80.040 C 124.126 80.768,122.947 85.210,120.658 94.800 C 119.595 99.255,118.453 105.295,118.201 107.800 C 118.068 109.120,117.660 112.090,117.295 114.400 C 116.524 119.272,116.385 133.524,116.941 150.800 C 117.308 162.203,116.605 178.222,115.396 186.000 C 114.733 190.270,114.624 198.551,115.198 201.039 C 115.406 201.940,115.831 204.100,116.143 205.839 C 118.177 217.199,124.051 228.388,132.178 236.386 C 134.888 239.052,134.998 239.950,132.900 242.232 C 123.451 252.510,116.693 260.146,110.802 267.200 C 94.744 286.429,88.602 287.867,76.464 275.239 C 73.912 272.584,73.490 272.041,70.646 267.746 C 69.791 266.456,68.785 264.950,68.409 264.400 C 66.536 261.660,61.169 251.207,58.420 244.947 C 57.274 242.336,55.991 239.430,55.568 238.489 C 55.146 237.548,54.800 236.570,54.800 236.316 C 54.800 236.061,54.450 235.121,54.023 234.226 C 53.596 233.332,52.980 231.880,52.655 231.000 C 52.330 230.120,51.589 228.140,51.009 226.600 C 49.580 222.809,48.065 218.499,47.562 216.800 C 47.335 216.030,46.812 214.500,46.400 213.400 C 45.461 210.892,44.577 208.167,43.578 204.700 C 43.150 203.215,42.450 200.785,42.022 199.300 C 41.594 197.815,40.984 195.790,40.667 194.800 C 39.667 191.678,38.695 188.277,38.153 186.000 C 37.865 184.790,37.065 181.730,36.376 179.200 C 35.686 176.670,34.892 173.520,34.610 172.200 C 34.074 169.690,33.248 166.257,31.963 161.200 C 31.544 159.550,31.092 157.390,30.959 156.400 C 30.825 155.410,30.375 153.456,29.958 152.058 C 29.541 150.660,29.200 149.029,29.200 148.433 C 29.200 147.838,28.852 146.012,28.427 144.375 C 28.002 142.739,27.451 139.898,27.203 138.062 C 26.955 136.227,26.578 134.268,26.366 133.711 C 26.154 133.153,25.795 130.885,25.568 128.671 C 25.340 126.456,24.880 123.554,24.544 122.222 C 21.904 111.749,24.109 80.301,28.227 69.692 C 28.762 68.313,29.200 66.897,29.200 66.547 C 29.200 66.196,29.551 65.254,29.981 64.454 C 30.411 63.655,31.410 61.650,32.201 60.000 C 32.992 58.350,34.168 56.190,34.813 55.200 C 35.459 54.210,36.111 53.130,36.262 52.800 C 36.691 51.863,41.384 46.332,42.867 45.017 C 47.077 41.282,53.693 36.400,54.543 36.400 C 54.700 36.400,55.299 36.091,55.875 35.714 C 57.154 34.876,60.766 33.345,63.200 32.609 C 64.190 32.310,65.810 31.802,66.800 31.481 C 70.228 30.369,76.225 29.210,81.800 28.583 C 84.880 28.237,87.760 27.899,88.200 27.831 C 90.739 27.443,98.020 27.695,105.000 28.414 M316.524 119.052 C 319.091 119.624,319.268 124.141,317.205 136.400 C 314.709 151.228,314.672 160.369,317.030 178.600 C 319.305 196.187,318.542 207.493,314.377 217.900 C 313.763 219.435,311.781 217.852,310.997 215.200 C 310.835 214.650,310.552 214.012,310.369 213.781 C 310.187 213.551,309.192 211.751,308.160 209.781 C 307.128 207.812,305.501 204.760,304.545 203.000 C 303.588 201.240,302.435 199.080,301.982 198.200 C 301.529 197.320,300.650 195.700,300.029 194.600 C 298.159 191.289,291.795 178.437,290.226 174.800 C 289.419 172.930,288.570 171.059,288.340 170.642 C 287.839 169.736,286.968 167.315,285.017 161.400 C 284.218 158.980,283.285 156.190,282.942 155.200 C 278.171 141.411,280.164 128.241,287.825 122.935 C 293.049 119.317,308.403 117.240,316.524 119.052 M170.908 121.269 C 179.597 123.334,183.932 129.480,185.633 142.147 C 185.866 143.878,186.216 145.717,186.413 146.233 C 186.609 146.749,187.051 149.833,187.394 153.086 C 187.738 156.339,188.192 160.170,188.402 161.600 C 188.902 165.006,188.893 178.281,188.388 181.600 C 188.171 183.030,187.743 186.032,187.438 188.271 C 187.133 190.510,186.772 192.522,186.636 192.741 C 186.501 192.961,186.040 194.459,185.613 196.070 C 184.630 199.779,183.354 203.492,182.591 204.862 C 182.266 205.446,182.000 206.154,182.000 206.435 C 182.000 206.717,181.621 207.769,181.157 208.774 C 177.741 216.173,175.876 220.646,173.807 226.400 C 173.213 228.050,172.398 230.300,171.995 231.400 C 171.592 232.500,170.982 234.390,170.640 235.600 C 169.619 239.204,168.686 240.401,166.906 240.392 C 153.075 240.319,138.504 230.107,131.500 215.577 C 126.289 204.768,125.727 197.974,128.178 175.400 C 129.081 167.079,129.289 157.366,128.803 146.270 C 128.305 134.921,128.379 134.027,129.935 132.570 C 131.190 131.395,138.094 127.200,138.773 127.200 C 139.031 127.200,139.907 126.854,140.721 126.432 C 144.176 124.636,151.808 122.251,156.781 121.411 C 158.860 121.060,160.645 120.689,160.747 120.586 C 161.269 120.064,167.640 120.492,170.908 121.269 M298.349 123.995 C 297.330 124.174,296.160 124.492,295.749 124.704 C 295.337 124.915,294.397 125.202,293.660 125.342 C 289.757 126.083,287.997 129.709,290.245 132.380 C 295.028 138.065,304.800 136.276,307.755 129.175 C 309.194 125.716,304.206 122.970,298.349 123.995 M163.600 127.227 C 156.575 128.062,156.182 133.942,162.851 138.454 C 167.075 141.313,171.208 141.341,175.522 138.540 C 183.722 133.216,175.874 125.769,163.600 127.227 M324.600 254.732 C 334.475 259.811,349.795 260.738,367.513 257.330 C 371.743 256.516,372.261 257.696,368.667 259.957 C 367.970 260.396,366.680 261.269,365.800 261.899 C 364.116 263.103,363.510 263.441,359.000 265.696 C 347.528 271.432,324.083 274.508,314.202 271.575 C 309.646 270.222,308.988 268.514,310.564 262.129 C 311.694 257.548,313.425 255.785,318.400 254.148 C 321.273 253.202,321.704 253.243,324.600 254.732 M187.607 255.803 C 192.721 258.395,195.063 265.352,192.588 270.600 C 191.714 272.451,184.625 279.751,182.054 281.448 C 178.061 284.082,177.209 284.544,173.600 286.030 C 167.675 288.471,155.003 289.679,148.555 288.418 C 143.375 287.405,139.048 286.373,138.645 286.056 C 138.400 285.862,137.525 285.487,136.700 285.221 C 133.988 284.348,135.414 282.687,139.527 281.926 C 140.777 281.695,142.662 281.251,143.716 280.940 C 144.770 280.628,146.570 280.203,147.716 279.996 C 151.785 279.259,158.378 276.943,162.195 274.910 C 166.546 272.592,168.385 270.882,173.493 264.400 C 180.741 255.204,183.322 253.632,187.607 255.803 " stroke="none" fill="#f4f6f7" fill-rule="evenodd"></path><path id="path1" d="M275.800 10.795 C 273.160 10.977,269.589 11.412,267.865 11.763 C 266.140 12.113,263.885 12.400,262.852 12.400 C 261.819 12.400,259.990 12.675,258.787 13.010 C 257.584 13.346,255.250 13.817,253.600 14.057 C 251.950 14.297,250.142 14.728,249.583 15.014 C 249.024 15.301,247.411 15.744,246.000 16.000 C 244.589 16.256,242.886 16.762,242.217 17.124 C 240.589 18.004,234.515 17.951,232.020 17.033 C 231.041 16.674,228.161 16.208,225.620 16.000 C 223.079 15.791,220.010 15.430,218.800 15.197 C 214.523 14.373,204.176 14.258,199.600 14.983 C 197.290 15.349,193.674 15.808,191.564 16.002 C 189.454 16.196,187.024 16.623,186.164 16.951 C 185.304 17.278,183.646 17.738,182.480 17.973 C 181.314 18.208,179.838 18.670,179.200 19.000 C 178.562 19.330,177.750 19.600,177.395 19.600 C 176.798 19.600,175.450 20.160,170.200 22.588 C 169.100 23.096,167.930 23.626,167.600 23.765 C 167.270 23.903,166.100 24.533,165.000 25.164 C 159.179 28.503,159.455 28.479,153.600 26.133 C 152.830 25.824,151.210 25.323,150.000 25.019 C 148.790 24.714,147.080 24.189,146.200 23.850 C 145.320 23.512,144.217 23.227,143.749 23.218 C 143.281 23.208,142.216 22.915,141.383 22.567 C 140.550 22.219,138.785 21.760,137.460 21.547 C 136.136 21.333,134.011 20.808,132.739 20.379 C 131.466 19.951,129.846 19.600,129.138 19.600 C 128.430 19.600,126.580 19.256,125.026 18.835 C 123.471 18.415,120.850 17.950,119.200 17.804 C 117.550 17.657,115.030 17.237,113.600 16.871 C 109.678 15.865,78.464 15.872,75.200 16.878 C 73.990 17.251,71.920 17.680,70.600 17.831 C 69.280 17.981,67.338 18.441,66.285 18.852 C 65.232 19.264,64.021 19.600,63.593 19.600 C 62.837 19.600,59.036 20.969,55.800 22.406 C 54.920 22.797,53.750 23.248,53.200 23.408 C 52.650 23.567,52.020 23.840,51.800 24.014 C 51.580 24.188,50.166 24.985,48.657 25.785 C 46.185 27.096,41.138 30.230,39.600 31.410 C 36.067 34.121,25.200 46.269,25.200 47.508 C 25.200 47.710,24.876 48.169,24.480 48.528 C 24.084 48.886,22.716 51.299,21.441 53.890 C 20.166 56.480,18.891 59.050,18.608 59.600 C 18.324 60.150,17.957 61.230,17.792 62.000 C 17.628 62.770,17.179 64.120,16.796 65.000 C 16.041 66.734,14.999 70.676,14.207 74.800 C 13.932 76.230,13.504 77.906,13.254 78.525 C 13.005 79.143,12.701 80.943,12.578 82.525 C 12.456 84.106,12.054 87.470,11.687 90.000 C 10.733 96.560,10.749 113.569,11.713 118.552 C 12.091 120.506,12.404 122.936,12.408 123.952 C 12.413 124.969,12.680 126.970,13.002 128.400 C 13.323 129.830,13.858 132.890,14.190 135.200 C 14.521 137.510,15.064 140.284,15.396 141.364 C 15.728 142.444,16.000 144.000,16.000 144.821 C 16.000 145.643,16.353 147.460,16.785 148.858 C 17.217 150.256,17.694 152.480,17.847 153.800 C 17.999 155.120,18.456 157.173,18.862 158.363 C 19.268 159.552,19.600 161.043,19.600 161.675 C 19.600 162.308,19.952 163.869,20.382 165.145 C 20.811 166.421,21.359 168.692,21.598 170.191 C 21.838 171.689,22.211 173.248,22.428 173.653 C 22.645 174.058,23.069 175.697,23.370 177.295 C 23.671 178.893,24.198 180.920,24.541 181.800 C 24.884 182.680,25.173 183.888,25.182 184.485 C 25.192 185.082,25.536 186.432,25.947 187.485 C 26.357 188.538,26.825 190.298,26.985 191.395 C 27.146 192.492,27.513 193.845,27.801 194.403 C 28.090 194.960,28.521 196.472,28.759 197.763 C 28.998 199.054,29.361 200.312,29.565 200.558 C 29.770 200.805,30.227 202.253,30.580 203.776 C 30.933 205.299,31.378 206.737,31.568 206.972 C 31.758 207.208,32.132 208.480,32.400 209.800 C 32.668 211.120,33.030 212.380,33.204 212.600 C 33.379 212.820,33.728 213.810,33.980 214.800 C 34.232 215.790,34.790 217.443,35.219 218.474 C 35.649 219.505,36.000 220.678,36.000 221.080 C 36.000 221.483,36.347 222.460,36.772 223.252 C 37.196 224.044,37.673 225.391,37.830 226.246 C 37.988 227.101,38.451 228.427,38.859 229.194 C 39.266 229.961,39.600 230.849,39.600 231.168 C 39.600 231.487,39.950 232.479,40.377 233.374 C 40.804 234.268,41.434 235.765,41.777 236.700 C 42.120 237.635,42.680 239.165,43.023 240.100 C 43.366 241.035,43.996 242.532,44.423 243.426 C 44.850 244.321,45.200 245.262,45.200 245.519 C 45.200 246.828,54.026 264.577,56.976 269.200 C 63.229 279.002,67.764 284.513,73.043 288.729 C 81.675 295.623,92.461 297.585,99.877 293.610 C 100.708 293.165,101.518 292.800,101.676 292.800 C 101.835 292.800,102.558 292.395,103.284 291.900 C 108.692 288.211,111.784 285.122,120.601 274.600 C 122.997 271.740,125.147 269.205,125.379 268.966 C 125.611 268.727,127.060 267.118,128.600 265.391 C 146.027 245.843,145.078 246.661,148.346 248.353 C 151.699 250.089,156.220 251.430,162.200 252.462 C 167.332 253.348,167.235 252.702,163.005 257.837 C 159.834 261.686,156.703 264.412,154.794 264.985 C 154.247 265.149,153.420 265.522,152.957 265.814 C 152.493 266.106,150.967 266.552,149.567 266.806 C 148.167 267.060,146.683 267.449,146.270 267.670 C 145.856 267.891,144.322 268.239,142.859 268.444 C 141.397 268.649,139.164 269.173,137.898 269.608 C 136.633 270.044,135.241 270.400,134.806 270.400 C 133.811 270.400,128.951 272.328,127.538 273.282 C 126.954 273.677,126.305 274.000,126.095 274.000 C 124.348 274.000,120.000 280.705,120.000 283.400 C 120.000 286.795,124.626 293.036,128.436 294.782 C 129.406 295.226,130.470 295.761,130.800 295.971 C 132.031 296.753,136.123 298.400,136.834 298.400 C 137.239 298.400,138.439 298.742,139.501 299.161 C 147.697 302.391,169.149 301.376,177.840 297.346 C 178.962 296.826,180.166 296.400,180.516 296.400 C 180.866 296.400,181.273 296.205,181.420 295.967 C 181.568 295.729,182.478 295.195,183.443 294.782 C 185.364 293.958,190.601 290.646,190.998 290.003 C 191.135 289.781,191.597 289.600,192.024 289.600 C 192.773 289.600,192.800 289.975,192.800 300.284 C 192.800 306.160,193.066 315.925,193.391 321.984 C 193.715 328.043,194.171 336.870,194.402 341.600 C 194.633 346.330,194.991 351.010,195.197 352.000 C 195.404 352.990,195.760 355.835,195.990 358.321 C 196.219 360.808,196.649 363.421,196.944 364.128 C 197.239 364.835,197.615 366.306,197.779 367.397 C 197.942 368.488,198.419 370.053,198.838 370.875 C 199.257 371.696,199.600 372.588,199.600 372.857 C 199.600 376.238,208.875 389.391,214.329 393.745 C 216.699 395.636,218.120 396.472,223.600 399.194 C 224.370 399.576,225.714 400.019,226.586 400.179 C 227.459 400.338,228.719 400.768,229.386 401.134 C 230.417 401.700,231.958 401.800,239.600 401.800 C 249.096 401.800,250.744 401.575,258.828 399.179 C 260.274 398.751,261.811 398.400,262.244 398.400 C 262.677 398.400,263.698 398.060,264.514 397.644 C 265.330 397.228,266.494 396.771,267.099 396.629 C 268.027 396.412,274.466 393.309,278.365 391.200 C 282.229 389.110,289.078 382.141,291.790 377.540 C 293.626 374.426,295.196 371.366,295.198 370.899 C 295.199 370.623,295.560 369.725,296.000 368.904 C 296.440 368.084,296.804 367.049,296.809 366.606 C 296.814 366.163,297.169 365.027,297.597 364.082 C 298.026 363.137,298.487 361.427,298.622 360.282 C 298.756 359.137,299.136 357.483,299.467 356.607 C 299.797 355.731,300.233 353.414,300.436 351.458 C 300.638 349.502,301.065 346.888,301.385 345.651 C 301.705 344.413,302.083 341.870,302.225 340.000 C 302.366 338.130,302.748 335.528,303.074 334.217 C 303.399 332.907,303.832 329.625,304.036 326.925 C 304.241 324.224,304.666 320.886,304.981 319.507 C 305.296 318.128,305.741 314.660,305.969 311.800 C 306.197 308.940,306.570 305.970,306.797 305.200 C 307.023 304.430,307.394 301.213,307.621 298.051 C 307.847 294.888,308.292 291.198,308.610 289.851 C 308.928 288.503,309.191 286.849,309.194 286.176 C 309.206 283.672,309.490 283.594,316.200 284.265 C 325.017 285.147,340.838 284.362,345.931 282.789 C 347.335 282.355,348.999 282.000,349.627 282.000 C 350.256 282.000,351.722 281.654,352.885 281.232 C 354.048 280.810,355.567 280.349,356.261 280.209 C 356.954 280.069,358.208 279.604,359.046 279.177 C 359.884 278.750,360.807 278.400,361.098 278.400 C 361.390 278.400,363.055 277.590,364.800 276.600 C 366.545 275.610,368.104 274.800,368.265 274.800 C 368.986 274.800,378.050 268.545,380.488 266.365 C 391.065 256.906,391.971 248.068,382.762 244.181 C 379.874 242.962,374.487 242.937,370.800 244.125 C 369.810 244.444,367.380 244.908,365.400 245.156 C 363.420 245.404,360.630 245.872,359.200 246.195 C 354.074 247.355,338.489 247.007,334.600 245.646 C 330.944 244.367,330.520 243.672,332.072 241.509 C 332.583 240.798,333.180 239.924,333.400 239.566 C 338.333 231.539,338.428 231.381,341.400 226.189 C 342.500 224.268,343.796 222.044,344.279 221.248 C 344.763 220.452,345.353 219.350,345.591 218.800 C 346.100 217.624,345.890 218.034,348.565 213.000 C 351.327 207.803,354.376 201.715,355.978 198.200 C 356.680 196.660,357.427 195.130,357.639 194.800 C 357.850 194.470,358.136 193.860,358.273 193.445 C 358.410 193.029,358.945 191.895,359.461 190.923 C 359.978 189.952,360.400 188.960,360.400 188.719 C 360.400 188.477,360.831 187.362,361.358 186.240 C 361.885 185.118,362.725 183.210,363.225 182.000 C 363.725 180.790,364.554 178.866,365.067 177.725 C 365.580 176.583,366.000 175.411,366.000 175.119 C 366.000 174.827,366.360 173.916,366.800 173.096 C 367.240 172.275,367.606 171.287,367.613 170.901 C 367.619 170.516,368.068 169.300,368.609 168.200 C 369.150 167.100,369.594 165.950,369.596 165.644 C 369.598 165.338,369.945 164.348,370.367 163.444 C 371.155 161.757,371.907 159.610,373.187 155.400 C 373.588 154.080,374.108 152.460,374.342 151.800 C 375.168 149.472,376.067 146.582,376.458 145.000 C 376.675 144.120,377.127 142.590,377.462 141.600 C 377.798 140.610,378.313 138.720,378.607 137.400 C 378.901 136.080,379.417 134.280,379.754 133.400 C 380.090 132.520,380.373 131.216,380.382 130.502 C 380.392 129.787,380.754 128.167,381.186 126.902 C 381.618 125.636,382.166 123.359,382.403 121.842 C 382.640 120.325,383.019 118.738,383.245 118.315 C 383.472 117.892,383.830 115.854,384.041 113.786 C 384.253 111.718,384.675 109.321,384.980 108.458 C 385.284 107.595,385.649 105.204,385.791 103.145 C 385.932 101.085,386.294 97.690,386.595 95.600 C 387.989 85.908,387.742 78.735,385.596 66.600 C 385.043 63.472,383.728 59.173,382.720 57.200 C 378.749 49.427,364.967 35.447,355.290 29.375 C 353.910 28.509,352.020 27.315,351.090 26.723 C 349.184 25.509,337.503 19.600,337.009 19.600 C 336.832 19.600,335.948 19.260,335.044 18.844 C 333.535 18.150,331.078 17.240,325.800 15.423 C 324.700 15.044,322.503 14.490,320.918 14.191 C 319.333 13.892,317.678 13.456,317.241 13.222 C 316.803 12.988,314.596 12.606,312.336 12.374 C 310.076 12.142,306.961 11.684,305.413 11.357 C 302.043 10.643,283.212 10.286,275.800 10.795 M299.800 12.006 C 301.120 12.227,304.360 12.582,307.000 12.795 C 317.552 13.648,329.351 17.166,342.397 23.348 C 358.313 30.891,378.901 49.178,381.967 58.494 C 382.237 59.316,382.610 60.082,382.794 60.197 C 382.979 60.311,383.251 61.168,383.399 62.102 C 383.547 63.036,383.991 64.880,384.385 66.200 C 386.867 74.512,386.186 96.667,382.941 113.200 C 382.617 114.850,382.160 117.370,381.925 118.800 C 381.690 120.230,381.173 122.480,380.776 123.800 C 380.379 125.120,379.939 127.010,379.799 128.000 C 379.658 128.990,379.195 130.836,378.771 132.102 C 378.347 133.367,378.000 134.756,378.000 135.187 C 378.000 135.617,377.654 136.922,377.232 138.085 C 376.810 139.248,376.344 140.830,376.197 141.600 C 376.050 142.370,375.605 143.990,375.209 145.200 C 374.812 146.410,373.998 149.020,373.399 151.000 C 372.801 152.980,371.971 155.443,371.555 156.474 C 371.140 157.505,370.800 158.682,370.800 159.090 C 370.800 159.497,370.450 160.516,370.023 161.354 C 369.596 162.192,369.122 163.446,368.970 164.139 C 368.818 164.833,368.357 166.027,367.947 166.794 C 367.536 167.561,367.198 168.461,367.196 168.794 C 367.194 169.127,366.750 170.300,366.209 171.400 C 365.668 172.500,365.219 173.673,365.213 174.006 C 365.206 174.339,364.840 175.284,364.400 176.104 C 363.960 176.925,363.600 177.803,363.600 178.055 C 363.600 178.306,363.249 179.252,362.820 180.156 C 362.390 181.060,361.485 183.150,360.807 184.800 C 360.129 186.450,359.236 188.520,358.822 189.400 C 357.973 191.206,356.446 194.518,354.026 199.800 C 353.119 201.780,352.184 203.742,351.948 204.160 C 351.711 204.579,350.364 207.149,348.955 209.873 C 347.545 212.596,346.223 215.134,346.017 215.512 C 344.301 218.662,340.429 225.560,339.715 226.739 C 339.228 227.542,338.593 228.650,338.305 229.200 C 337.364 230.997,335.200 234.542,333.177 237.600 C 331.251 240.511,329.600 243.672,329.600 244.446 C 329.600 246.271,342.021 248.757,348.600 248.250 C 356.674 247.628,363.900 246.819,364.949 246.420 C 370.922 244.147,382.822 244.459,385.316 246.953 C 394.959 256.596,372.548 276.543,346.600 281.412 C 344.840 281.743,342.050 282.306,340.400 282.663 C 336.097 283.595,314.212 283.614,311.742 282.687 C 308.577 281.500,307.896 282.837,307.203 291.600 C 306.968 294.570,306.514 298.440,306.195 300.200 C 305.875 301.960,305.429 305.650,305.204 308.400 C 304.978 311.150,304.618 314.120,304.402 315.000 C 304.187 315.880,303.817 318.755,303.581 321.389 C 303.345 324.022,302.907 327.352,302.607 328.789 C 302.308 330.225,301.940 332.930,301.790 334.800 C 301.640 336.670,301.195 339.730,300.800 341.600 C 300.405 343.470,299.960 346.502,299.811 348.337 C 299.661 350.172,299.293 352.369,298.993 353.220 C 298.693 354.071,298.257 356.132,298.025 357.800 C 297.793 359.468,297.358 361.321,297.059 361.917 C 296.759 362.512,296.395 363.630,296.250 364.400 C 294.528 373.538,285.081 386.331,276.800 390.742 C 269.217 394.780,264.663 396.671,259.800 397.800 C 258.480 398.106,256.320 398.633,255.000 398.971 C 244.075 401.767,230.704 401.508,224.881 398.387 C 224.073 397.954,223.139 397.596,222.806 397.591 C 222.473 397.586,221.750 397.230,221.200 396.800 C 220.650 396.370,220.039 396.014,219.841 396.009 C 218.903 395.986,214.678 392.740,211.800 389.833 C 202.728 380.666,197.665 368.099,196.397 351.600 C 196.169 348.630,195.815 345.120,195.611 343.800 C 195.201 341.147,194.426 314.441,194.288 298.200 C 194.187 286.279,194.214 286.351,190.783 288.882 C 185.757 292.589,177.140 297.052,173.600 297.781 C 172.830 297.940,171.030 298.439,169.600 298.890 C 165.701 300.121,148.654 300.107,143.600 298.869 C 141.730 298.411,139.488 297.911,138.617 297.758 C 129.692 296.189,121.800 289.458,121.800 283.417 C 121.800 276.352,127.008 272.985,143.200 269.583 C 144.410 269.328,146.480 268.798,147.800 268.405 C 149.120 268.012,150.830 267.569,151.600 267.422 C 155.848 266.611,159.360 264.038,164.037 258.311 C 168.933 252.316,168.866 252.163,160.800 250.861 C 155.769 250.050,152.756 249.164,148.925 247.371 C 145.481 245.759,144.998 245.918,141.168 249.913 C 136.357 254.932,133.364 258.193,130.625 261.400 C 129.310 262.940,128.133 264.290,128.011 264.400 C 127.889 264.510,126.711 265.860,125.394 267.400 C 124.077 268.940,122.800 270.380,122.556 270.600 C 122.311 270.820,120.170 273.340,117.798 276.200 C 109.338 286.397,105.143 289.982,97.800 293.285 C 94.908 294.586,85.927 294.620,83.200 293.340 C 82.210 292.875,80.984 292.368,80.475 292.213 C 75.483 290.688,65.271 280.480,59.800 271.545 C 59.360 270.827,58.813 269.934,58.584 269.562 C 58.356 269.190,57.975 268.641,57.739 268.343 C 55.793 265.884,45.600 244.783,45.600 243.212 C 45.600 242.943,45.338 242.246,45.018 241.662 C 44.241 240.243,40.888 231.860,40.194 229.600 C 39.890 228.610,39.083 226.270,38.402 224.400 C 37.720 222.530,36.979 220.370,36.755 219.600 C 36.532 218.830,36.021 217.300,35.620 216.200 C 35.219 215.100,34.520 212.940,34.067 211.400 C 33.613 209.860,32.792 207.070,32.243 205.200 C 31.693 203.330,30.948 200.900,30.587 199.800 C 30.226 198.700,29.701 196.810,29.420 195.600 C 29.140 194.390,28.624 192.500,28.275 191.400 C 27.348 188.486,26.420 184.964,25.796 182.000 C 25.496 180.570,24.992 178.770,24.676 178.000 C 24.361 177.230,23.980 175.625,23.829 174.433 C 23.678 173.241,23.307 171.673,23.004 170.948 C 22.701 170.224,22.337 168.769,22.195 167.715 C 22.053 166.662,21.603 164.720,21.195 163.400 C 20.788 162.080,20.329 160.014,20.177 158.808 C 20.024 157.603,19.644 155.893,19.332 155.008 C 19.020 154.124,18.577 152.055,18.349 150.411 C 18.120 148.767,17.764 147.107,17.558 146.722 C 17.352 146.337,16.920 144.147,16.599 141.855 C 16.277 139.563,15.843 137.238,15.634 136.689 C 15.425 136.139,15.057 133.921,14.816 131.759 C 14.575 129.597,14.128 126.832,13.822 125.614 C 11.935 118.087,12.018 91.371,13.958 81.616 C 15.888 71.909,17.014 67.249,17.784 65.772 C 18.120 65.128,18.396 64.274,18.398 63.875 C 18.400 63.205,18.931 61.912,21.388 56.600 C 21.896 55.500,22.431 54.330,22.575 54.000 C 22.720 53.670,23.272 52.680,23.803 51.800 C 24.334 50.920,25.072 49.660,25.442 49.000 C 32.524 36.386,50.293 23.706,65.806 20.196 C 67.129 19.897,68.749 19.446,69.406 19.194 C 70.063 18.942,72.040 18.580,73.800 18.388 C 75.560 18.197,78.800 17.762,81.000 17.423 C 85.476 16.731,100.242 16.588,105.000 17.189 C 106.540 17.384,109.780 17.753,112.200 18.010 C 114.620 18.267,117.950 18.740,119.600 19.063 C 121.250 19.385,124.220 19.894,126.200 20.193 C 128.180 20.493,130.588 21.022,131.550 21.369 C 132.513 21.716,133.814 22.000,134.442 22.000 C 135.070 22.000,136.712 22.354,138.092 22.787 C 139.471 23.220,141.680 23.862,143.000 24.214 C 147.290 25.358,150.567 26.334,152.200 26.956 C 153.080 27.291,154.070 27.579,154.400 27.596 C 154.730 27.613,155.720 27.975,156.600 28.400 C 158.603 29.368,160.333 29.403,161.611 28.503 C 163.510 27.166,173.637 22.000,174.360 22.000 C 174.590 22.000,175.548 21.655,176.489 21.232 C 178.997 20.107,184.311 18.505,186.533 18.203 C 187.597 18.059,189.157 17.697,190.000 17.400 C 194.583 15.783,221.453 15.772,227.692 17.384 C 228.851 17.684,230.700 18.047,231.800 18.191 C 232.900 18.336,234.700 18.616,235.800 18.815 C 238.099 19.229,244.607 17.965,251.200 15.823 C 252.190 15.501,254.350 15.036,256.000 14.788 C 257.650 14.541,259.990 14.094,261.200 13.795 C 262.410 13.497,265.740 13.048,268.600 12.798 C 271.460 12.548,274.970 12.201,276.400 12.027 C 280.249 11.557,297.028 11.542,299.800 12.006 M280.400 22.826 C 278.530 22.996,274.747 23.322,271.994 23.551 C 264.922 24.139,257.888 25.938,259.832 26.661 C 260.442 26.888,265.682 29.598,269.000 31.403 C 274.296 34.284,281.976 39.602,286.952 43.835 C 293.849 49.702,305.224 61.983,309.212 67.868 C 309.535 68.345,310.925 70.284,312.300 72.177 C 313.675 74.070,314.800 75.712,314.800 75.826 C 314.800 75.939,315.132 76.520,315.537 77.116 C 317.277 79.673,318.436 81.561,319.764 84.000 C 321.400 87.007,325.600 95.543,325.600 95.863 C 325.600 95.982,325.857 96.646,326.172 97.340 C 327.484 100.231,328.799 103.938,329.232 105.963 C 329.485 107.152,329.942 108.721,330.247 109.450 C 331.019 111.298,330.995 122.471,330.210 126.656 C 329.886 128.385,329.432 131.834,329.201 134.320 C 328.970 136.806,328.500 139.956,328.155 141.320 C 327.702 143.117,327.473 146.666,327.325 154.200 C 327.122 164.486,327.346 168.690,328.551 177.200 C 330.199 188.847,330.114 207.342,328.393 211.800 C 328.138 212.460,327.682 214.080,327.380 215.400 C 326.586 218.866,325.388 222.098,323.371 226.215 C 319.560 233.994,322.135 234.863,326.513 227.276 C 327.441 225.668,328.560 223.751,329.000 223.017 C 333.201 216.007,341.449 200.364,344.827 193.000 C 345.230 192.120,346.273 189.870,347.143 188.000 C 348.014 186.130,349.292 183.250,349.983 181.600 C 350.674 179.950,351.590 177.860,352.020 176.956 C 352.449 176.052,352.800 175.149,352.800 174.950 C 352.800 174.751,353.142 173.950,353.560 173.169 C 353.979 172.389,354.509 171.132,354.739 170.375 C 355.126 169.101,355.824 167.212,358.203 161.000 C 358.709 159.680,359.342 157.970,359.609 157.200 C 359.876 156.430,360.425 154.900,360.829 153.800 C 361.232 152.700,361.684 151.260,361.832 150.600 C 361.981 149.940,362.412 148.590,362.790 147.600 C 363.515 145.703,365.009 140.892,365.400 139.200 C 365.625 138.226,366.355 135.703,367.948 130.400 C 368.377 128.970,368.933 126.675,369.182 125.301 C 369.431 123.926,369.872 122.126,370.162 121.301 C 370.451 120.475,370.813 118.720,370.966 117.400 C 371.118 116.080,371.495 114.100,371.802 113.000 C 372.110 111.900,372.561 109.290,372.805 107.200 C 373.048 105.110,373.537 101.870,373.890 100.000 C 375.981 88.919,374.543 68.046,371.275 62.071 C 368.738 57.432,356.877 45.192,351.518 41.684 C 350.944 41.308,348.952 39.965,347.092 38.700 C 345.233 37.435,343.565 36.400,343.387 36.400 C 343.209 36.400,342.779 36.157,342.431 35.860 C 341.099 34.720,334.883 31.743,330.300 30.050 C 329.035 29.582,327.055 28.852,325.900 28.427 C 323.953 27.711,321.343 26.971,317.400 26.019 C 311.103 24.498,307.750 23.895,303.860 23.585 C 301.407 23.388,297.870 23.043,296.000 22.817 C 292.195 22.357,285.529 22.361,280.400 22.826 M196.400 27.595 C 194.970 27.778,193.338 28.107,192.774 28.326 C 192.210 28.545,190.680 28.855,189.374 29.014 C 188.068 29.174,186.190 29.619,185.200 30.003 C 184.210 30.388,182.636 30.830,181.702 30.986 C 180.768 31.142,179.911 31.420,179.797 31.604 C 179.684 31.788,178.738 32.223,177.695 32.571 C 174.131 33.759,168.775 36.847,164.800 40.006 C 163.810 40.793,162.550 41.721,162.000 42.070 C 153.904 47.197,142.708 63.697,137.485 78.200 C 136.931 79.740,136.174 81.810,135.804 82.800 C 135.130 84.603,134.623 86.344,133.360 91.200 C 132.988 92.630,132.361 94.970,131.967 96.400 C 131.573 97.830,131.135 99.990,130.992 101.200 C 130.850 102.410,130.473 104.560,130.155 105.977 C 129.501 108.887,128.763 117.037,129.078 117.860 C 129.427 118.769,130.721 118.476,134.539 116.626 C 138.154 114.875,140.080 114.089,143.600 112.932 C 144.590 112.607,145.968 112.095,146.662 111.795 C 147.357 111.495,149.067 111.043,150.462 110.791 C 151.858 110.539,153.983 110.078,155.184 109.767 C 163.531 107.601,176.113 109.499,183.446 114.028 C 189.497 117.766,196.381 129.670,196.398 136.425 C 196.399 136.988,196.746 138.788,197.168 140.425 C 197.591 142.061,198.059 144.660,198.210 146.200 C 198.360 147.740,198.737 150.350,199.048 152.000 C 200.510 159.774,200.695 181.132,199.355 187.400 C 199.025 188.940,198.587 191.370,198.380 192.800 C 197.729 197.308,194.429 207.742,191.992 213.000 C 190.954 215.240,189.878 217.708,188.417 221.200 C 186.195 226.513,185.704 227.749,184.681 230.600 C 184.129 232.140,183.374 234.210,183.004 235.200 C 182.211 237.320,181.179 241.064,181.074 242.200 C 181.006 242.935,181.317 243.021,184.923 243.256 C 193.257 243.799,202.103 250.631,203.840 257.865 C 203.990 258.489,204.402 259.540,204.756 260.200 C 205.329 261.267,205.427 265.378,205.645 297.400 C 205.790 318.745,206.065 334.947,206.321 337.200 C 206.558 339.290,206.948 343.970,207.189 347.600 C 207.429 351.230,207.980 355.945,208.413 358.077 C 208.846 360.209,209.200 362.321,209.200 362.769 C 209.200 364.123,211.954 370.628,214.415 375.086 C 219.628 384.528,228.819 389.968,239.600 389.992 C 241.961 389.997,252.320 388.471,253.230 387.984 C 253.620 387.775,254.897 387.409,256.069 387.169 C 258.669 386.638,263.621 385.014,265.826 383.970 C 266.721 383.546,267.583 383.200,267.742 383.200 C 267.902 383.200,268.520 382.864,269.116 382.453 C 269.712 382.042,271.100 381.135,272.200 380.436 C 276.594 377.644,280.692 372.840,282.980 367.800 C 283.579 366.480,284.267 365.040,284.507 364.600 C 285.000 363.700,286.187 359.621,286.836 356.600 C 288.374 349.439,288.818 346.971,289.184 343.533 C 289.411 341.406,289.850 338.526,290.160 337.133 C 290.470 335.740,290.845 333.070,290.994 331.200 C 291.142 329.330,291.509 326.620,291.809 325.179 C 292.110 323.737,292.550 320.300,292.788 317.542 C 293.025 314.783,293.396 311.913,293.612 311.163 C 293.828 310.413,294.270 306.920,294.593 303.400 C 294.917 299.880,295.357 296.076,295.571 294.948 C 295.786 293.819,296.153 290.579,296.388 287.748 C 296.623 284.916,297.071 280.800,297.383 278.600 C 297.695 276.400,298.047 271.803,298.165 268.384 C 298.326 263.704,298.580 261.542,299.190 259.632 C 299.635 258.237,300.000 256.855,300.000 256.560 C 300.000 253.312,305.823 246.932,310.912 244.604 C 315.147 242.666,315.229 242.334,312.351 238.751 C 306.652 231.656,304.721 228.675,300.606 220.627 C 295.490 210.619,293.438 206.753,289.022 198.800 C 286.108 193.554,278.000 176.782,278.000 176.001 C 278.000 175.738,277.732 175.046,277.405 174.462 C 276.824 173.423,276.132 171.621,274.924 168.000 C 274.593 167.010,274.002 165.390,273.610 164.400 C 273.218 163.410,272.770 161.886,272.614 161.014 C 272.459 160.141,272.098 158.971,271.813 158.414 C 271.528 157.856,271.172 156.590,271.021 155.600 C 270.871 154.610,270.370 152.270,269.907 150.400 C 268.681 145.440,268.675 133.339,269.897 129.800 C 270.353 128.480,270.835 126.909,270.969 126.308 C 271.848 122.347,280.453 112.400,283.000 112.400 C 283.242 112.400,283.642 112.198,283.888 111.952 C 286.496 109.344,295.219 107.504,305.800 107.329 C 318.171 107.125,317.938 107.246,315.610 102.200 C 315.204 101.320,314.321 99.321,313.647 97.757 C 312.973 96.194,311.771 93.764,310.975 92.357 C 310.180 90.951,309.274 89.260,308.963 88.600 C 308.652 87.940,307.866 86.590,307.217 85.600 C 306.567 84.610,305.385 82.720,304.589 81.400 C 303.071 78.881,302.778 78.459,299.132 73.549 C 286.124 56.030,266.771 41.044,248.600 34.420 C 243.071 32.404,241.107 31.784,237.000 30.755 C 233.555 29.891,232.628 29.696,225.600 28.349 C 220.560 27.383,201.821 26.899,196.400 27.595 M88.200 27.831 C 87.760 27.899,84.880 28.237,81.800 28.583 C 76.225 29.210,70.228 30.369,66.800 31.481 C 65.810 31.802,64.190 32.310,63.200 32.609 C 60.766 33.345,57.154 34.876,55.875 35.714 C 55.299 36.091,54.700 36.400,54.543 36.400 C 53.693 36.400,47.077 41.282,42.867 45.017 C 41.384 46.332,36.691 51.863,36.262 52.800 C 36.111 53.130,35.459 54.210,34.813 55.200 C 34.168 56.190,32.992 58.350,32.201 60.000 C 31.410 61.650,30.411 63.655,29.981 64.454 C 29.551 65.254,29.200 66.196,29.200 66.547 C 29.200 66.897,28.762 68.313,28.227 69.692 C 24.109 80.301,21.904 111.749,24.544 122.222 C 24.880 123.554,25.340 126.456,25.568 128.671 C 25.795 130.885,26.154 133.153,26.366 133.711 C 26.578 134.268,26.955 136.227,27.203 138.062 C 27.451 139.898,28.002 142.739,28.427 144.375 C 28.852 146.012,29.200 147.838,29.200 148.433 C 29.200 149.029,29.541 150.660,29.958 152.058 C 30.375 153.456,30.825 155.410,30.959 156.400 C 31.092 157.390,31.544 159.550,31.963 161.200 C 33.248 166.257,34.074 169.690,34.610 172.200 C 34.892 173.520,35.686 176.670,36.376 179.200 C 37.065 181.730,37.865 184.790,38.153 186.000 C 38.695 188.277,39.667 191.678,40.667 194.800 C 40.984 195.790,41.594 197.815,42.022 199.300 C 42.450 200.785,43.150 203.215,43.578 204.700 C 44.577 208.167,45.461 210.892,46.400 213.400 C 46.812 214.500,47.335 216.030,47.562 216.800 C 48.065 218.499,49.580 222.809,51.009 226.600 C 51.589 228.140,52.330 230.120,52.655 231.000 C 52.980 231.880,53.596 233.332,54.023 234.226 C 54.450 235.121,54.800 236.061,54.800 236.316 C 54.800 236.570,55.146 237.548,55.568 238.489 C 55.991 239.430,57.274 242.336,58.420 244.947 C 61.169 251.207,66.536 261.660,68.409 264.400 C 68.785 264.950,69.791 266.456,70.646 267.746 C 73.490 272.041,73.912 272.584,76.464 275.239 C 88.602 287.867,94.744 286.429,110.802 267.200 C 116.693 260.146,123.451 252.510,132.900 242.232 C 134.998 239.950,134.888 239.052,132.178 236.386 C 124.051 228.388,118.177 217.199,116.143 205.839 C 115.831 204.100,115.406 201.940,115.198 201.039 C 114.624 198.551,114.733 190.270,115.396 186.000 C 116.605 178.222,117.308 162.203,116.941 150.800 C 116.385 133.524,116.524 119.272,117.295 114.400 C 117.660 112.090,118.068 109.120,118.201 107.800 C 118.453 105.295,119.595 99.255,120.658 94.800 C 122.947 85.210,124.126 80.768,124.575 80.040 C 124.728 79.792,125.185 78.467,125.591 77.095 C 126.479 74.092,127.428 71.425,128.186 69.800 C 129.510 66.962,133.667 58.532,134.103 57.800 C 135.557 55.361,136.435 53.966,137.839 51.860 C 138.698 50.573,139.675 49.104,140.012 48.597 C 140.349 48.090,141.277 46.893,142.076 45.937 C 142.874 44.982,144.534 42.998,145.764 41.530 C 149.274 37.337,149.352 37.427,140.100 34.995 C 138.835 34.663,136.630 34.045,135.200 33.621 C 133.770 33.198,131.730 32.736,130.667 32.596 C 129.603 32.456,128.050 32.100,127.215 31.805 C 126.380 31.511,124.640 31.152,123.348 31.009 C 122.057 30.866,119.200 30.409,117.000 29.993 C 108.624 28.412,92.379 27.192,88.200 27.831 M297.669 119.371 C 287.629 121.492,283.639 124.691,281.238 132.542 C 279.752 137.404,280.576 148.361,282.942 155.200 C 283.285 156.190,284.218 158.980,285.017 161.400 C 286.968 167.315,287.839 169.736,288.340 170.642 C 288.570 171.059,289.419 172.930,290.226 174.800 C 291.795 178.437,298.159 191.289,300.029 194.600 C 300.650 195.700,301.529 197.320,301.982 198.200 C 302.435 199.080,303.588 201.240,304.545 203.000 C 305.501 204.760,307.128 207.812,308.160 209.781 C 309.192 211.751,310.187 213.551,310.369 213.781 C 310.552 214.012,310.835 214.650,310.997 215.200 C 311.781 217.852,313.763 219.435,314.377 217.900 C 318.542 207.493,319.305 196.187,317.030 178.600 C 314.672 160.369,314.709 151.228,317.205 136.400 C 318.510 128.645,318.986 121.343,318.258 120.232 C 317.011 118.329,304.980 117.826,297.669 119.371 M160.747 120.586 C 160.645 120.689,158.860 121.060,156.781 121.411 C 151.808 122.251,144.176 124.636,140.721 126.432 C 139.907 126.854,139.031 127.200,138.773 127.200 C 138.094 127.200,131.190 131.395,129.935 132.570 C 128.379 134.027,128.305 134.921,128.803 146.270 C 129.289 157.366,129.081 167.079,128.178 175.400 C 125.727 197.974,126.289 204.768,131.500 215.577 C 138.504 230.107,153.075 240.319,166.906 240.392 C 168.686 240.401,169.619 239.204,170.640 235.600 C 170.982 234.390,171.592 232.500,171.995 231.400 C 172.398 230.300,173.213 228.050,173.807 226.400 C 175.876 220.646,177.741 216.173,181.157 208.774 C 181.621 207.769,182.000 206.717,182.000 206.435 C 182.000 206.154,182.266 205.446,182.591 204.862 C 183.354 203.492,184.630 199.779,185.613 196.070 C 186.040 194.459,186.501 192.961,186.636 192.741 C 186.772 192.522,187.133 190.510,187.438 188.271 C 187.743 186.032,188.171 183.030,188.388 181.600 C 188.893 178.281,188.902 165.006,188.402 161.600 C 188.192 160.170,187.738 156.339,187.394 153.086 C 187.051 149.833,186.609 146.749,186.413 146.233 C 186.216 145.717,185.866 143.878,185.633 142.147 C 183.932 129.480,179.597 123.334,170.908 121.269 C 167.640 120.492,161.269 120.064,160.747 120.586 M305.789 124.942 C 308.912 126.636,308.818 128.892,305.481 132.334 C 301.791 136.139,297.977 136.940,293.686 134.811 C 287.785 131.883,287.770 126.460,293.660 125.342 C 294.397 125.202,295.337 124.915,295.749 124.704 C 298.208 123.443,303.246 123.562,305.789 124.942 M173.800 128.287 C 181.456 131.437,180.019 138.402,171.300 140.399 C 163.512 142.182,153.858 131.990,159.912 128.377 C 162.805 126.650,169.712 126.605,173.800 128.287 M318.400 254.148 C 313.425 255.785,311.694 257.548,310.564 262.129 C 308.386 270.954,310.583 272.492,325.355 272.482 C 338.262 272.473,350.303 270.044,359.000 265.696 C 363.510 263.441,364.116 263.103,365.800 261.899 C 366.680 261.269,367.970 260.396,368.667 259.957 C 372.261 257.696,371.743 256.516,367.513 257.330 C 349.795 260.738,334.475 259.811,324.600 254.732 C 321.704 253.243,321.273 253.202,318.400 254.148 M179.467 257.700 C 177.829 259.295,175.140 262.310,173.493 264.400 C 168.385 270.882,166.546 272.592,162.195 274.910 C 158.378 276.943,151.785 279.259,147.716 279.996 C 146.570 280.203,144.770 280.628,143.716 280.940 C 142.662 281.251,140.777 281.695,139.527 281.926 C 135.414 282.687,133.988 284.348,136.700 285.221 C 137.525 285.487,138.400 285.862,138.645 286.056 C 139.048 286.373,143.375 287.405,148.555 288.418 C 155.003 289.679,167.675 288.471,173.600 286.030 C 177.209 284.544,178.061 284.082,182.054 281.448 C 184.625 279.751,191.714 272.451,192.588 270.600 C 195.063 265.352,192.721 258.395,187.607 255.803 C 184.135 254.044,182.936 254.324,179.467 257.700 " stroke="none" fill="#346494" fill-rule="evenodd"></path><path id="path2" d="M258.541 0.350 C 255.268 0.533,253.885 0.773,253.341 1.251 C 252.861 1.672,251.571 1.971,249.681 2.099 C 247.434 2.251,246.554 2.492,245.855 3.148 C 244.417 4.499,228.989 4.459,227.150 3.100 C 225.278 1.716,194.370 1.681,192.503 3.060 C 191.532 3.778,190.670 3.944,187.286 4.060 C 184.136 4.169,183.118 4.345,182.717 4.852 C 182.370 5.290,181.290 5.583,179.435 5.743 C 177.533 5.907,176.410 6.219,175.835 6.741 C 175.365 7.169,174.163 7.589,173.084 7.703 C 172.030 7.814,170.857 8.186,170.478 8.530 C 170.099 8.873,168.995 9.332,168.025 9.550 C 167.055 9.768,166.104 10.228,165.911 10.573 C 165.718 10.918,165.043 11.200,164.411 11.200 C 163.768 11.200,162.737 11.641,162.073 12.200 C 161.419 12.750,160.597 13.200,160.246 13.200 C 159.894 13.200,159.382 13.560,159.107 14.000 C 158.477 15.008,157.405 15.022,156.345 14.035 C 155.822 13.548,154.629 13.169,153.062 12.992 C 151.708 12.839,150.282 12.433,149.894 12.090 C 149.504 11.745,148.160 11.381,146.894 11.278 C 145.562 11.169,144.221 10.795,143.697 10.386 C 143.139 9.949,141.690 9.573,139.897 9.398 C 138.122 9.224,136.713 8.860,136.258 8.457 C 135.727 7.986,134.540 7.759,132.070 7.655 C 129.662 7.554,128.496 7.337,128.201 6.933 C 127.589 6.097,125.081 5.620,121.231 5.610 C 118.594 5.602,117.695 5.448,117.090 4.900 C 115.944 3.863,73.322 3.816,72.142 4.850 C 71.616 5.312,70.319 5.559,67.678 5.701 C 64.606 5.867,63.798 6.050,63.052 6.751 C 62.404 7.360,61.633 7.600,60.328 7.600 C 59.156 7.600,58.168 7.866,57.554 8.349 C 57.029 8.761,55.790 9.224,54.800 9.378 C 52.114 9.796,51.600 9.997,51.600 10.627 C 51.600 11.001,51.169 11.200,50.359 11.200 C 49.676 11.200,48.281 11.634,47.259 12.164 C 46.237 12.695,44.950 13.333,44.400 13.584 C 42.473 14.461,41.110 15.290,40.358 16.042 C 39.941 16.459,39.313 16.800,38.963 16.800 C 38.613 16.800,37.848 17.170,37.263 17.621 C 33.982 20.156,33.046 20.800,32.641 20.800 C 32.394 20.800,31.968 21.160,31.693 21.600 C 31.418 22.040,30.937 22.400,30.624 22.400 C 30.310 22.400,29.940 22.760,29.800 23.200 C 29.660 23.640,29.372 24.000,29.158 24.000 C 28.657 24.000,24.000 28.708,24.000 29.215 C 24.000 29.427,23.799 29.600,23.554 29.600 C 23.309 29.600,22.544 30.223,21.854 30.984 C 18.575 34.603,16.912 36.608,15.923 38.136 C 15.330 39.051,14.475 40.278,14.023 40.863 C 13.570 41.448,13.200 42.088,13.200 42.286 C 13.200 42.483,12.750 43.255,12.200 44.000 C 11.650 44.745,11.200 45.607,11.200 45.915 C 11.200 46.222,10.840 46.931,10.400 47.491 C 9.960 48.050,9.600 48.809,9.600 49.176 C 9.600 49.544,9.150 50.455,8.600 51.200 C 8.050 51.945,7.600 53.038,7.600 53.629 C 7.600 54.262,7.266 54.928,6.787 55.251 C 6.297 55.582,5.878 56.436,5.733 57.400 C 5.600 58.280,5.225 59.308,4.899 59.684 C 4.572 60.060,4.208 61.230,4.090 62.284 C 3.971 63.338,3.524 64.675,3.095 65.256 C 2.565 65.973,2.256 67.191,2.129 69.056 C 2.014 70.764,1.629 72.391,1.110 73.365 C -0.518 76.418,-0.371 134.817,1.269 136.672 C 1.737 137.201,1.957 138.462,2.074 141.291 C 2.208 144.516,2.387 145.386,3.118 146.375 C 3.863 147.382,4.000 148.091,4.000 150.930 C 4.000 153.686,4.144 154.475,4.800 155.309 C 5.408 156.082,5.601 156.934,5.602 158.863 C 5.605 161.877,6.187 164.233,7.008 164.548 C 7.450 164.717,7.601 165.463,7.602 167.487 C 7.604 169.235,7.837 170.627,8.257 171.400 C 8.616 172.060,9.141 174.212,9.424 176.183 C 9.758 178.509,10.160 179.927,10.569 180.227 C 11.020 180.556,11.200 181.362,11.201 183.044 C 11.203 184.680,11.443 185.794,11.989 186.690 C 12.431 187.414,12.894 189.130,13.045 190.607 C 13.231 192.420,13.529 193.385,14.006 193.719 C 14.522 194.081,14.740 194.936,14.861 197.073 C 14.971 199.022,15.239 200.180,15.698 200.687 C 16.070 201.098,16.493 202.455,16.640 203.703 C 16.810 205.147,17.179 206.219,17.653 206.648 C 18.117 207.068,18.401 207.869,18.402 208.762 C 18.405 210.678,19.104 213.103,19.764 213.489 C 20.071 213.668,20.376 214.798,20.486 216.160 C 20.602 217.601,20.908 218.691,21.272 218.960 C 21.600 219.202,21.989 220.290,22.137 221.377 C 22.285 222.465,22.742 223.725,23.153 224.177 C 23.569 224.635,23.991 225.850,24.103 226.916 C 24.214 227.970,24.572 229.140,24.899 229.516 C 25.225 229.892,25.608 231.090,25.749 232.177 C 25.896 233.308,26.347 234.518,26.803 235.003 C 27.241 235.470,27.600 236.311,27.600 236.872 C 27.600 237.433,27.961 238.352,28.403 238.913 C 28.845 239.475,29.318 240.752,29.456 241.752 C 29.593 242.755,30.040 243.874,30.452 244.247 C 30.864 244.620,31.200 245.412,31.200 246.008 C 31.200 246.604,31.545 247.531,31.967 248.067 C 32.389 248.604,32.861 249.753,33.017 250.621 C 33.172 251.490,33.612 252.560,33.996 253.000 C 34.379 253.440,34.805 254.400,34.943 255.132 C 35.080 255.865,35.555 256.925,35.996 257.486 C 36.438 258.048,36.800 258.923,36.800 259.431 C 36.800 259.939,37.133 260.590,37.539 260.877 C 37.946 261.165,38.403 262.073,38.556 262.895 C 38.718 263.763,39.163 264.566,39.617 264.809 C 40.119 265.078,40.400 265.646,40.400 266.391 C 40.400 267.067,40.710 267.774,41.139 268.077 C 41.546 268.365,42.008 269.295,42.166 270.144 C 42.352 271.145,42.709 271.756,43.181 271.879 C 43.667 272.006,43.993 272.595,44.162 273.650 C 44.301 274.519,44.665 275.327,44.971 275.444 C 45.277 275.562,45.645 276.125,45.788 276.695 C 46.061 277.784,47.185 279.436,48.700 280.977 C 49.195 281.480,49.600 282.234,49.600 282.653 C 49.600 283.071,50.410 284.259,51.400 285.292 C 52.390 286.326,53.200 287.294,53.200 287.443 C 53.200 287.593,53.567 288.095,54.016 288.558 C 54.464 289.021,55.757 290.570,56.888 292.000 C 60.127 296.094,65.759 301.200,67.037 301.200 C 67.331 301.200,67.754 301.541,67.977 301.958 C 68.201 302.375,68.882 302.925,69.492 303.181 C 71.173 303.886,73.167 305.046,74.011 305.810 C 74.427 306.187,75.623 306.591,76.670 306.709 C 77.934 306.852,78.799 307.204,79.250 307.762 C 80.561 309.382,100.560 309.229,102.325 307.584 C 102.825 307.118,103.729 306.800,104.553 306.800 C 105.447 306.800,106.360 306.446,107.127 305.800 C 107.781 305.250,108.594 304.800,108.935 304.800 C 109.276 304.800,109.790 304.464,110.077 304.054 C 110.365 303.643,111.185 303.179,111.900 303.022 C 112.614 302.865,113.455 302.371,113.768 301.924 C 114.322 301.133,114.388 301.161,116.262 302.956 C 117.320 303.970,118.543 304.800,118.979 304.800 C 119.415 304.800,120.138 305.159,120.586 305.598 C 122.267 307.245,123.891 308.357,125.027 308.640 C 125.672 308.801,126.395 309.196,126.633 309.519 C 126.877 309.849,128.003 310.195,129.216 310.311 C 130.697 310.453,131.566 310.764,132.006 311.307 C 132.502 311.920,133.309 312.143,135.622 312.309 C 137.701 312.457,138.741 312.714,139.067 313.161 C 139.872 314.261,172.270 314.332,174.323 313.238 C 175.135 312.805,176.842 312.336,178.116 312.195 C 179.780 312.011,180.567 311.722,180.912 311.169 C 181.788 309.767,181.874 310.335,182.150 319.300 C 182.391 327.159,182.513 328.323,183.187 329.250 C 183.883 330.207,183.961 331.216,184.075 340.669 C 184.184 349.736,184.288 351.172,184.900 352.105 C 185.438 352.924,185.602 354.034,185.610 356.886 C 185.620 361.047,186.076 363.574,186.928 364.197 C 187.300 364.469,187.556 365.614,187.661 367.478 C 187.772 369.444,188.038 370.579,188.509 371.100 C 188.887 371.517,189.311 372.745,189.451 373.829 C 189.591 374.913,190.019 376.160,190.403 376.600 C 190.787 377.040,191.189 378.242,191.298 379.270 C 191.408 380.318,191.870 381.617,192.348 382.224 C 192.816 382.820,193.200 383.822,193.200 384.451 C 193.200 385.160,193.503 385.783,194.000 386.093 C 194.480 386.393,194.800 387.026,194.800 387.676 C 194.800 388.277,195.245 389.239,195.800 389.838 C 196.350 390.431,196.800 391.289,196.800 391.744 C 196.800 392.199,197.151 392.938,197.580 393.386 C 199.703 395.602,200.800 396.962,200.800 397.375 C 200.800 397.625,201.700 398.789,202.800 399.961 C 203.900 401.132,204.800 402.250,204.800 402.445 C 204.800 402.640,204.999 402.800,205.242 402.800 C 205.486 402.800,206.039 403.250,206.471 403.800 C 206.904 404.350,207.444 404.800,207.671 404.800 C 207.899 404.800,208.619 405.250,209.273 405.800 C 209.927 406.350,210.674 406.800,210.934 406.800 C 211.195 406.800,211.632 407.160,211.907 407.600 C 212.182 408.040,212.756 408.400,213.183 408.400 C 213.610 408.400,214.444 408.850,215.038 409.400 C 215.681 409.996,216.593 410.400,217.294 410.400 C 218.033 410.400,218.743 410.735,219.200 411.300 L 219.929 412.200 237.415 412.323 C 255.243 412.449,259.777 412.193,260.641 411.011 C 260.939 410.604,261.756 410.400,263.090 410.400 C 264.467 410.400,265.401 410.157,266.081 409.622 C 266.624 409.195,268.025 408.718,269.194 408.563 C 270.363 408.408,271.624 407.976,271.997 407.603 C 272.370 407.230,273.359 406.814,274.195 406.678 C 275.031 406.543,276.106 406.065,276.583 405.616 C 277.061 405.167,277.833 404.800,278.299 404.800 C 278.779 404.800,279.250 404.472,279.387 404.042 C 279.536 403.571,280.156 403.185,281.023 403.022 C 281.790 402.878,282.637 402.409,282.905 401.980 C 283.173 401.551,283.605 401.200,283.866 401.200 C 284.126 401.200,284.873 400.750,285.527 400.200 C 286.181 399.650,286.913 399.200,287.154 399.200 C 287.396 399.200,287.818 398.840,288.093 398.400 C 288.368 397.960,288.745 397.600,288.933 397.600 C 289.456 397.600,296.000 390.995,296.000 390.466 C 296.000 390.210,296.225 389.999,296.500 389.997 C 296.977 389.995,297.784 388.914,299.281 386.272 C 299.656 385.611,300.140 384.961,300.357 384.826 C 300.888 384.498,302.667 381.851,303.416 380.274 C 303.749 379.573,304.284 378.550,304.605 378.000 C 304.926 377.450,305.191 376.589,305.194 376.087 C 305.197 375.586,305.468 375.072,305.796 374.946 C 306.124 374.820,306.611 373.971,306.878 373.059 C 307.145 372.146,307.686 370.860,308.080 370.200 C 308.474 369.540,308.798 368.489,308.799 367.864 C 308.799 367.210,309.144 366.447,309.611 366.064 C 310.170 365.606,310.496 364.718,310.663 363.200 C 310.797 361.979,311.217 360.644,311.607 360.200 C 312.049 359.696,312.413 358.364,312.592 356.600 C 312.760 354.942,313.138 353.505,313.520 353.077 C 313.990 352.551,314.209 351.303,314.326 348.477 C 314.439 345.762,314.670 344.393,315.096 343.911 C 315.750 343.170,316.343 338.747,316.378 334.344 C 316.393 332.591,316.669 331.094,317.191 329.944 C 317.917 328.343,317.983 327.294,317.991 317.185 C 317.999 306.969,318.058 306.055,318.800 304.600 C 319.287 303.646,319.600 302.241,319.600 301.015 L 319.600 299.000 323.040 299.143 C 325.502 299.245,326.895 299.111,327.940 298.672 C 329.019 298.218,331.515 298.002,337.495 297.845 C 344.656 297.656,345.718 297.542,346.695 296.854 C 347.494 296.292,348.723 296.020,351.129 295.874 C 353.251 295.745,354.701 295.457,355.129 295.079 C 355.498 294.753,356.790 294.358,358.000 294.201 C 359.210 294.045,360.560 293.598,361.000 293.208 C 361.440 292.818,362.693 292.405,363.784 292.289 C 365.140 292.146,365.984 291.813,366.448 291.240 C 366.868 290.721,367.592 290.400,368.341 290.400 C 369.066 290.400,369.765 290.102,370.077 289.661 C 370.365 289.254,371.273 288.797,372.095 288.644 C 372.921 288.490,373.767 288.036,373.984 287.629 C 374.201 287.224,375.008 286.775,375.778 286.630 C 376.548 286.486,377.318 286.144,377.489 285.870 C 377.879 285.246,381.718 282.800,382.308 282.800 C 382.549 282.800,382.860 282.440,383.000 282.000 C 383.140 281.560,383.591 281.200,384.003 281.200 C 384.416 281.200,384.869 281.013,385.010 280.784 C 385.151 280.555,385.927 279.950,386.734 279.440 C 387.540 278.930,388.814 277.938,389.564 277.236 C 390.314 276.534,391.259 275.783,391.664 275.566 C 392.069 275.349,392.400 274.995,392.400 274.779 C 392.400 274.563,393.210 273.610,394.200 272.662 C 395.190 271.713,396.000 270.770,396.000 270.565 C 396.000 270.360,396.360 269.968,396.800 269.693 C 397.240 269.418,397.600 268.939,397.600 268.627 C 397.600 268.316,398.095 267.473,398.700 266.754 L 399.800 265.447 399.800 253.362 L 399.800 241.277 398.800 240.293 C 398.250 239.752,396.823 238.295,395.629 237.055 C 394.435 235.815,393.231 234.800,392.952 234.800 C 392.673 234.800,392.188 234.432,391.873 233.983 C 391.538 233.505,390.659 233.069,389.750 232.931 C 388.898 232.802,387.570 232.315,386.800 231.848 C 384.664 230.554,369.049 230.570,367.293 231.868 C 366.326 232.583,365.460 232.731,361.518 232.856 C 357.810 232.974,356.726 233.143,356.109 233.702 C 355.673 234.096,354.705 234.400,353.887 234.400 L 352.436 234.400 353.418 233.418 C 353.958 232.878,354.400 232.021,354.400 231.514 C 354.400 231.007,354.760 230.368,355.200 230.093 C 355.640 229.818,356.000 229.315,356.000 228.975 C 356.000 228.636,356.450 227.695,357.000 226.886 C 357.550 226.077,358.000 225.208,358.000 224.956 C 358.000 224.704,358.258 224.283,358.574 224.021 C 358.890 223.759,359.260 223.036,359.397 222.414 C 359.534 221.792,359.992 220.970,360.415 220.587 C 360.838 220.204,361.296 219.297,361.431 218.573 C 361.567 217.848,361.913 217.166,362.199 217.056 C 362.485 216.946,362.943 216.168,363.216 215.328 C 363.490 214.488,363.937 213.668,364.211 213.506 C 364.485 213.344,364.829 212.573,364.975 211.793 C 365.121 211.013,365.682 209.726,366.220 208.932 C 366.759 208.138,367.200 207.248,367.200 206.954 C 367.200 206.660,367.559 205.830,367.999 205.110 C 368.438 204.389,368.798 203.348,368.799 202.796 C 368.799 202.235,369.144 201.577,369.580 201.305 C 370.009 201.037,370.487 200.139,370.641 199.309 C 370.795 198.479,371.254 197.565,371.661 197.277 C 372.067 196.990,372.400 196.339,372.400 195.831 C 372.400 195.323,372.762 194.448,373.204 193.886 C 373.645 193.325,374.120 192.265,374.258 191.532 C 374.397 190.800,374.742 189.930,375.025 189.600 C 375.308 189.270,375.762 188.116,376.033 187.037 C 376.305 185.957,376.858 184.742,377.263 184.337 C 377.669 183.931,378.000 183.088,378.000 182.462 C 378.000 181.836,378.338 181.018,378.751 180.645 C 379.192 180.246,379.611 179.140,379.767 177.967 C 379.921 176.805,380.360 175.640,380.816 175.184 C 381.251 174.749,381.600 173.858,381.600 173.184 C 381.600 172.515,381.965 171.474,382.411 170.871 C 382.857 170.267,383.335 169.060,383.472 168.187 C 383.610 167.314,384.055 166.171,384.461 165.646 C 384.907 165.070,385.200 164.035,385.200 163.035 C 385.200 161.893,385.440 161.172,385.971 160.717 C 386.434 160.321,386.846 159.286,387.001 158.129 C 387.277 156.070,387.320 155.939,388.210 154.400 C 388.528 153.850,388.791 152.718,388.794 151.884 C 388.798 150.990,389.137 149.912,389.621 149.257 C 390.130 148.569,390.530 147.242,390.673 145.773 C 390.812 144.338,391.185 143.084,391.615 142.600 C 392.071 142.088,392.430 140.792,392.611 139.000 C 392.778 137.346,393.159 135.899,393.541 135.465 C 393.981 134.964,394.235 133.749,394.334 131.665 C 394.442 129.413,394.673 128.388,395.207 127.800 C 395.748 127.205,396.006 126.026,396.215 123.200 C 396.409 120.585,396.700 119.169,397.147 118.660 C 397.645 118.092,397.831 116.837,397.944 113.282 C 398.070 109.314,398.215 108.477,398.946 107.489 C 399.792 106.344,399.800 106.140,399.800 85.867 L 399.800 65.400 398.900 63.877 C 398.263 62.800,398.000 61.717,398.000 60.177 C 398.000 58.554,397.802 57.802,397.222 57.222 C 396.795 56.795,396.328 55.760,396.185 54.922 C 396.042 54.085,395.605 52.943,395.213 52.384 C 394.821 51.826,394.378 50.809,394.228 50.126 C 394.077 49.442,393.605 48.566,393.177 48.179 C 392.750 47.793,392.400 47.240,392.400 46.952 C 392.400 46.664,392.059 46.246,391.642 46.023 C 391.225 45.799,390.700 45.118,390.475 44.508 C 390.249 43.899,389.241 42.508,388.233 41.417 C 387.225 40.326,386.400 39.291,386.400 39.117 C 386.400 38.943,386.130 38.800,385.800 38.800 C 385.470 38.800,385.200 38.627,385.200 38.415 C 385.200 37.892,380.535 33.200,380.015 33.200 C 379.787 33.200,379.600 33.014,379.600 32.787 C 379.600 32.249,376.951 29.600,376.413 29.600 C 376.186 29.600,376.000 29.326,376.000 28.991 C 376.000 28.657,375.553 28.179,375.008 27.931 C 374.462 27.682,373.910 27.146,373.781 26.739 C 373.652 26.333,373.359 26.000,373.131 26.000 C 372.902 26.000,372.150 25.547,371.458 24.994 C 370.766 24.441,370.015 23.841,369.790 23.662 C 369.564 23.483,368.844 22.994,368.190 22.577 C 367.535 22.160,366.905 21.688,366.789 21.529 C 366.387 20.979,363.795 19.233,362.494 18.635 C 361.776 18.306,361.082 17.758,360.952 17.418 C 360.821 17.078,360.445 16.800,360.115 16.800 C 359.785 16.800,358.981 16.350,358.327 15.800 C 357.673 15.250,356.910 14.800,356.631 14.800 C 356.352 14.800,355.798 14.440,355.400 14.000 C 355.002 13.560,354.325 13.200,353.896 13.200 C 353.467 13.200,352.581 12.750,351.927 12.200 C 351.273 11.650,350.309 11.200,349.783 11.200 C 349.238 11.200,348.645 10.857,348.400 10.400 C 348.122 9.880,347.562 9.600,346.802 9.600 C 346.139 9.600,345.302 9.246,344.871 8.784 C 344.453 8.335,343.411 7.859,342.555 7.725 C 341.700 7.592,340.507 7.138,339.904 6.717 C 339.301 6.296,338.131 5.848,337.304 5.721 C 336.477 5.595,335.478 5.212,335.085 4.870 C 334.666 4.506,333.341 4.179,331.885 4.080 C 330.086 3.958,329.148 3.680,328.487 3.074 C 327.814 2.456,326.896 2.193,324.987 2.072 C 323.564 1.981,322.400 1.765,322.400 1.593 C 322.400 0.335,275.164 -0.584,258.541 0.350 M305.413 11.357 C 306.961 11.684,310.076 12.142,312.336 12.374 C 314.596 12.606,316.803 12.988,317.241 13.222 C 317.678 13.456,319.333 13.892,320.918 14.191 C 322.503 14.490,324.700 15.044,325.800 15.423 C 331.078 17.240,333.535 18.150,335.044 18.844 C 335.948 19.260,336.832 19.600,337.009 19.600 C 337.503 19.600,349.184 25.509,351.090 26.723 C 352.020 27.315,353.910 28.509,355.290 29.375 C 364.967 35.447,378.749 49.427,382.720 57.200 C 383.728 59.173,385.043 63.472,385.596 66.600 C 387.742 78.735,387.989 85.908,386.595 95.600 C 386.294 97.690,385.932 101.085,385.791 103.145 C 385.649 105.204,385.284 107.595,384.980 108.458 C 384.675 109.321,384.253 111.718,384.041 113.786 C 383.830 115.854,383.472 117.892,383.245 118.315 C 383.019 118.738,382.640 120.325,382.403 121.842 C 382.166 123.359,381.618 125.636,381.186 126.902 C 380.754 128.167,380.392 129.787,380.382 130.502 C 380.373 131.216,380.090 132.520,379.754 133.400 C 379.417 134.280,378.901 136.080,378.607 137.400 C 378.313 138.720,377.798 140.610,377.462 141.600 C 377.127 142.590,376.675 144.120,376.458 145.000 C 376.067 146.582,375.168 149.472,374.342 151.800 C 374.108 152.460,373.588 154.080,373.187 155.400 C 371.907 159.610,371.155 161.757,370.367 163.444 C 369.945 164.348,369.598 165.338,369.596 165.644 C 369.594 165.950,369.150 167.100,368.609 168.200 C 368.068 169.300,367.619 170.516,367.613 170.901 C 367.606 171.287,367.240 172.275,366.800 173.096 C 366.360 173.916,366.000 174.827,366.000 175.119 C 366.000 175.411,365.580 176.583,365.067 177.725 C 364.554 178.866,363.725 180.790,363.225 182.000 C 362.725 183.210,361.885 185.118,361.358 186.240 C 360.831 187.362,360.400 188.477,360.400 188.719 C 360.400 188.960,359.978 189.952,359.461 190.923 C 358.945 191.895,358.410 193.029,358.273 193.445 C 358.136 193.860,357.850 194.470,357.639 194.800 C 357.427 195.130,356.680 196.660,355.978 198.200 C 354.376 201.715,351.327 207.803,348.565 213.000 C 345.890 218.034,346.100 217.624,345.591 218.800 C 345.353 219.350,344.763 220.452,344.279 221.248 C 343.796 222.044,342.500 224.268,341.400 226.189 C 338.428 231.381,338.333 231.539,333.400 239.566 C 333.180 239.924,332.583 240.798,332.072 241.509 C 330.520 243.672,330.944 244.367,334.600 245.646 C 338.489 247.007,354.074 247.355,359.200 246.195 C 360.630 245.872,363.420 245.404,365.400 245.156 C 367.380 244.908,369.810 244.444,370.800 244.125 C 374.487 242.937,379.874 242.962,382.762 244.181 C 391.971 248.068,391.065 256.906,380.488 266.365 C 378.050 268.545,368.986 274.800,368.265 274.800 C 368.104 274.800,366.545 275.610,364.800 276.600 C 363.055 277.590,361.390 278.400,361.098 278.400 C 360.807 278.400,359.884 278.750,359.046 279.177 C 358.208 279.604,356.954 280.069,356.261 280.209 C 355.567 280.349,354.048 280.810,352.885 281.232 C 351.722 281.654,350.256 282.000,349.627 282.000 C 348.999 282.000,347.335 282.355,345.931 282.789 C 340.838 284.362,325.017 285.147,316.200 284.265 C 309.490 283.594,309.206 283.672,309.194 286.176 C 309.191 286.849,308.928 288.503,308.610 289.851 C 308.292 291.198,307.847 294.888,307.621 298.051 C 307.394 301.213,307.023 304.430,306.797 305.200 C 306.570 305.970,306.197 308.940,305.969 311.800 C 305.741 314.660,305.296 318.128,304.981 319.507 C 304.666 320.886,304.241 324.224,304.036 326.925 C 303.832 329.625,303.399 332.907,303.074 334.217 C 302.748 335.528,302.366 338.130,302.225 340.000 C 302.083 341.870,301.705 344.413,301.385 345.651 C 301.065 346.888,300.638 349.502,300.436 351.458 C 300.233 353.414,299.797 355.731,299.467 356.607 C 299.136 357.483,298.756 359.137,298.622 360.282 C 298.487 361.427,298.026 363.137,297.597 364.082 C 297.169 365.027,296.814 366.163,296.809 366.606 C 296.804 367.049,296.440 368.084,296.000 368.904 C 295.560 369.725,295.199 370.623,295.198 370.899 C 295.196 371.366,293.626 374.426,291.790 377.540 C 289.078 382.141,282.229 389.110,278.365 391.200 C 274.466 393.309,268.027 396.412,267.099 396.629 C 266.494 396.771,265.330 397.228,264.514 397.644 C 263.698 398.060,262.677 398.400,262.244 398.400 C 261.811 398.400,260.274 398.751,258.828 399.179 C 250.744 401.575,249.096 401.800,239.600 401.800 C 231.958 401.800,230.417 401.700,229.386 401.134 C 228.719 400.768,227.459 400.338,226.586 400.179 C 225.714 400.019,224.370 399.576,223.600 399.194 C 218.120 396.472,216.699 395.636,214.329 393.745 C 208.875 389.391,199.600 376.238,199.600 372.857 C 199.600 372.588,199.257 371.696,198.838 370.875 C 198.419 370.053,197.942 368.488,197.779 367.397 C 197.615 366.306,197.239 364.835,196.944 364.128 C 196.649 363.421,196.219 360.808,195.990 358.321 C 195.760 355.835,195.404 352.990,195.197 352.000 C 194.991 351.010,194.633 346.330,194.402 341.600 C 194.171 336.870,193.715 328.043,193.391 321.984 C 193.066 315.925,192.800 306.160,192.800 300.284 C 192.800 289.975,192.773 289.600,192.024 289.600 C 191.597 289.600,191.135 289.781,190.998 290.003 C 190.601 290.646,185.364 293.958,183.443 294.782 C 182.478 295.195,181.568 295.729,181.420 295.967 C 181.273 296.205,180.866 296.400,180.516 296.400 C 180.166 296.400,178.962 296.826,177.840 297.346 C 169.149 301.376,147.697 302.391,139.501 299.161 C 138.439 298.742,137.239 298.400,136.834 298.400 C 136.123 298.400,132.031 296.753,130.800 295.971 C 130.470 295.761,129.406 295.226,128.436 294.782 C 124.626 293.036,120.000 286.795,120.000 283.400 C 120.000 280.705,124.348 274.000,126.095 274.000 C 126.305 274.000,126.954 273.677,127.538 273.282 C 128.951 272.328,133.811 270.400,134.806 270.400 C 135.241 270.400,136.633 270.044,137.898 269.608 C 139.164 269.173,141.397 268.649,142.859 268.444 C 144.322 268.239,145.856 267.891,146.270 267.670 C 146.683 267.449,148.167 267.060,149.567 266.806 C 150.967 266.552,152.493 266.106,152.957 265.814 C 153.420 265.522,154.247 265.149,154.794 264.985 C 156.703 264.412,159.834 261.686,163.005 257.837 C 167.235 252.702,167.332 253.348,162.200 252.462 C 156.220 251.430,151.699 250.089,148.346 248.353 C 145.078 246.661,146.027 245.843,128.600 265.391 C 127.060 267.118,125.611 268.727,125.379 268.966 C 125.147 269.205,122.997 271.740,120.601 274.600 C 111.784 285.122,108.692 288.211,103.284 291.900 C 102.558 292.395,101.835 292.800,101.676 292.800 C 101.518 292.800,100.708 293.165,99.877 293.610 C 89.754 299.036,75.982 293.976,65.236 280.884 C 62.974 278.128,59.880 273.753,56.976 269.200 C 54.026 264.577,45.200 246.828,45.200 245.519 C 45.200 245.262,44.850 244.321,44.423 243.426 C 43.996 242.532,43.366 241.035,43.023 240.100 C 42.680 239.165,42.120 237.635,41.777 236.700 C 41.434 235.765,40.804 234.268,40.377 233.374 C 39.950 232.479,39.600 231.487,39.600 231.168 C 39.600 230.849,39.266 229.961,38.859 229.194 C 38.451 228.427,37.988 227.101,37.830 226.246 C 37.673 225.391,37.196 224.044,36.772 223.252 C 36.347 222.460,36.000 221.483,36.000 221.080 C 36.000 220.678,35.649 219.505,35.219 218.474 C 34.790 217.443,34.232 215.790,33.980 214.800 C 33.728 213.810,33.379 212.820,33.204 212.600 C 33.030 212.380,32.668 211.120,32.400 209.800 C 32.132 208.480,31.758 207.208,31.568 206.972 C 31.378 206.737,30.933 205.299,30.580 203.776 C 30.227 202.253,29.770 200.805,29.565 200.558 C 29.361 200.312,28.998 199.054,28.759 197.763 C 28.521 196.472,28.090 194.960,27.801 194.403 C 27.513 193.845,27.146 192.492,26.985 191.395 C 26.825 190.298,26.357 188.538,25.947 187.485 C 25.536 186.432,25.192 185.082,25.182 184.485 C 25.173 183.888,24.884 182.680,24.541 181.800 C 24.198 180.920,23.671 178.893,23.370 177.295 C 23.069 175.697,22.645 174.058,22.428 173.653 C 22.211 173.248,21.838 171.689,21.598 170.191 C 21.359 168.692,20.811 166.421,20.382 165.145 C 19.952 163.869,19.600 162.308,19.600 161.675 C 19.600 161.043,19.268 159.552,18.862 158.363 C 18.456 157.173,17.999 155.120,17.847 153.800 C 17.694 152.480,17.217 150.256,16.785 148.858 C 16.353 147.460,16.000 145.643,16.000 144.821 C 16.000 144.000,15.728 142.444,15.396 141.364 C 15.064 140.284,14.521 137.510,14.190 135.200 C 13.858 132.890,13.323 129.830,13.002 128.400 C 12.680 126.970,12.413 124.969,12.408 123.952 C 12.404 122.936,12.091 120.506,11.713 118.552 C 10.749 113.569,10.733 96.560,11.687 90.000 C 12.054 87.470,12.456 84.106,12.578 82.525 C 12.701 80.943,13.005 79.143,13.254 78.525 C 13.504 77.906,13.932 76.230,14.207 74.800 C 14.999 70.676,16.041 66.734,16.796 65.000 C 17.179 64.120,17.628 62.770,17.792 62.000 C 17.957 61.230,18.324 60.150,18.608 59.600 C 18.891 59.050,20.166 56.480,21.441 53.890 C 22.716 51.299,24.084 48.886,24.480 48.528 C 24.876 48.169,25.200 47.710,25.200 47.508 C 25.200 46.269,36.067 34.121,39.600 31.410 C 41.138 30.230,46.185 27.096,48.657 25.785 C 50.166 24.985,51.580 24.188,51.800 24.014 C 52.020 23.840,52.650 23.567,53.200 23.408 C 53.750 23.248,54.920 22.797,55.800 22.406 C 59.036 20.969,62.837 19.600,63.593 19.600 C 64.021 19.600,65.232 19.264,66.285 18.852 C 67.338 18.441,69.280 17.981,70.600 17.831 C 71.920 17.680,73.990 17.251,75.200 16.878 C 78.464 15.872,109.678 15.865,113.600 16.871 C 115.030 17.237,117.550 17.657,119.200 17.804 C 120.850 17.950,123.471 18.415,125.026 18.835 C 126.580 19.256,128.430 19.600,129.138 19.600 C 129.846 19.600,131.466 19.951,132.739 20.379 C 134.011 20.808,136.136 21.333,137.460 21.547 C 138.785 21.760,140.550 22.219,141.383 22.567 C 142.216 22.915,143.281 23.208,143.749 23.218 C 144.217 23.227,145.320 23.512,146.200 23.850 C 147.080 24.189,148.790 24.714,150.000 25.019 C 151.210 25.323,152.830 25.824,153.600 26.133 C 159.455 28.479,159.179 28.503,165.000 25.164 C 166.100 24.533,167.270 23.903,167.600 23.765 C 167.930 23.626,169.100 23.096,170.200 22.588 C 175.450 20.160,176.798 19.600,177.395 19.600 C 177.750 19.600,178.562 19.330,179.200 19.000 C 179.838 18.670,181.314 18.208,182.480 17.973 C 183.646 17.738,185.304 17.278,186.164 16.951 C 187.024 16.623,189.454 16.196,191.564 16.002 C 193.674 15.808,197.290 15.349,199.600 14.983 C 204.176 14.258,214.523 14.373,218.800 15.197 C 220.010 15.430,223.079 15.791,225.620 16.000 C 228.161 16.208,231.041 16.674,232.020 17.033 C 234.515 17.951,240.589 18.004,242.217 17.124 C 242.886 16.762,244.589 16.256,246.000 16.000 C 247.411 15.744,249.024 15.301,249.583 15.014 C 250.142 14.728,251.950 14.297,253.600 14.057 C 255.250 13.817,257.584 13.346,258.787 13.010 C 259.990 12.675,261.819 12.400,262.852 12.400 C 263.885 12.400,266.140 12.113,267.865 11.763 C 274.839 10.345,299.383 10.080,305.413 11.357 " stroke="none" fill="#060606" fill-rule="evenodd"></path></g></svg>
