<svg id="svg" xmlns="http://www.w3.org/2000/svg" xmlns:xlink="http://www.w3.org/1999/xlink" width="80" height="80" viewBox="0, 0, 400,400"><g id="svgg"><path id="path0" d="M364.278 105.111 C 364.546 105.544,366.812 106.755,367.001 106.566 C 367.074 106.494,366.440 106.055,365.593 105.591 C 364.746 105.127,364.155 104.911,364.278 105.111 M368.187 107.605 C 368.604 107.920,369.121 108.178,369.336 108.178 C 369.551 108.178,369.385 107.920,368.968 107.605 C 368.551 107.289,368.034 107.031,367.819 107.031 C 367.605 107.031,367.770 107.289,368.187 107.605 M371.289 109.842 C 371.719 110.085,372.199 110.476,372.357 110.709 C 372.549 110.992,372.646 110.997,372.650 110.723 C 372.659 110.115,371.805 109.373,371.113 109.387 C 370.664 109.396,370.710 109.513,371.289 109.842 M375.879 113.551 C 376.255 113.649,376.563 113.866,376.563 114.034 C 376.563 114.202,377.002 114.813,377.539 115.393 C 378.110 116.008,378.516 116.225,378.516 115.914 C 378.516 115.195,376.465 113.270,375.760 113.327 C 375.390 113.356,375.431 113.433,375.879 113.551 M380.078 117.946 C 380.078 118.173,380.254 118.359,380.469 118.359 C 380.684 118.359,380.859 118.623,380.859 118.945 C 380.859 119.268,381.041 119.531,381.264 119.531 C 381.542 119.531,381.541 119.294,381.262 118.772 C 380.772 117.856,380.078 117.372,380.078 117.946 M381.879 120.243 C 381.741 120.467,381.981 120.897,382.413 121.200 C 382.845 121.502,383.067 121.894,382.908 122.070 C 382.748 122.247,382.822 122.274,383.072 122.131 C 383.322 121.987,383.616 122.091,383.725 122.361 C 383.834 122.631,383.930 122.676,383.939 122.461 C 383.969 121.776,382.145 119.813,381.879 120.243 M385.940 126.055 C 385.938 126.528,386.212 127.068,386.548 127.256 C 386.884 127.444,387.201 127.887,387.253 128.241 C 387.375 129.072,387.894 129.598,387.878 128.874 C 387.856 127.853,385.942 125.070,385.940 126.055 M390.625 136.328 C 390.151 136.634,390.207 136.708,390.918 136.713 C 391.534 136.717,391.797 136.952,391.797 137.500 C 391.797 137.930,391.964 138.281,392.167 138.281 C 392.392 138.281,392.377 137.821,392.129 137.109 C 391.687 135.841,391.516 135.752,390.625 136.328 M392.278 139.453 C 392.546 139.883,392.921 140.234,393.111 140.234 C 393.300 140.234,393.259 139.998,393.020 139.710 C 392.781 139.422,392.701 139.070,392.842 138.929 C 392.983 138.788,392.805 138.672,392.445 138.672 C 391.888 138.672,391.863 138.789,392.278 139.453 M393.033 140.968 C 392.375 141.385,392.398 141.673,393.154 142.428 C 393.486 142.760,393.639 143.237,393.496 143.489 C 393.352 143.740,393.385 143.808,393.569 143.640 C 393.754 143.472,394.141 143.736,394.430 144.226 L 394.954 145.117 394.691 144.141 C 394.546 143.604,394.285 143.109,394.111 143.041 C 393.937 142.974,393.902 142.637,394.034 142.293 C 394.202 141.854,394.125 141.760,393.775 141.977 C 393.405 142.205,393.344 142.070,393.539 141.455 C 393.832 140.534,393.786 140.490,393.033 140.968 M393.848 146.029 C 393.901 146.208,361.909 179.796,322.754 220.670 C 283.599 261.544,251.562 295.148,251.563 295.345 C 251.563 295.542,253.892 295.743,256.738 295.793 C 259.585 295.842,256.289 295.977,249.414 296.094 C 242.386 296.213,258.715 296.382,286.719 296.480 C 348.674 296.697,349.315 296.684,351.057 295.244 C 351.316 295.030,351.700 294.961,351.909 295.090 C 352.118 295.219,352.402 295.144,352.539 294.922 C 352.676 294.700,352.936 294.610,353.117 294.722 C 353.760 295.119,363.686 291.230,364.453 290.281 C 364.561 290.148,364.912 289.983,365.234 289.914 C 366.169 289.715,371.295 286.428,372.663 285.150 C 373.349 284.509,374.042 283.984,374.203 283.984 C 374.694 283.984,379.450 278.738,379.337 278.320 C 379.279 278.105,379.365 278.063,379.528 278.226 C 379.897 278.595,381.641 277.005,381.641 276.299 C 381.641 276.014,381.808 275.781,382.012 275.781 C 382.460 275.781,385.938 270.980,385.938 270.361 C 385.938 270.119,386.082 269.922,386.258 269.922 C 386.673 269.922,389.974 264.163,389.974 263.440 C 389.974 263.138,390.131 262.891,390.323 262.891 C 390.514 262.891,390.562 262.715,390.430 262.500 C 390.297 262.285,390.363 262.109,390.576 262.109 C 390.934 262.109,391.635 260.543,391.430 260.200 C 391.380 260.117,391.511 259.941,391.720 259.809 C 392.366 259.403,396.332 249.219,395.844 249.219 C 395.714 249.219,395.781 248.999,395.992 248.730 C 396.334 248.296,396.549 247.620,397.107 245.215 C 397.194 244.839,397.369 244.136,397.496 243.652 C 397.623 243.169,397.763 242.507,397.807 242.181 C 397.852 241.855,397.996 241.414,398.128 241.201 C 398.459 240.665,398.977 237.858,398.915 236.932 C 398.887 236.512,399.052 235.943,399.281 235.668 C 399.510 235.392,399.597 234.906,399.475 234.588 C 399.353 234.270,399.418 233.907,399.621 233.782 C 400.243 233.397,399.923 164.234,399.300 164.361 C 398.910 164.441,398.892 164.283,399.220 163.669 C 399.454 163.232,399.511 162.658,399.347 162.394 C 399.182 162.130,399.099 161.519,399.161 161.035 C 399.232 160.487,399.068 160.156,398.726 160.156 C 398.424 160.156,398.177 159.900,398.177 159.587 C 398.177 159.275,398.324 159.109,398.503 159.220 C 398.682 159.331,398.828 159.147,398.828 158.812 C 398.828 158.477,398.585 158.203,398.288 158.203 C 397.991 158.203,397.651 157.834,397.533 157.383 C 397.391 156.839,397.144 156.662,396.804 156.859 C 396.521 157.023,396.421 157.011,396.583 156.833 C 396.744 156.654,396.585 156.187,396.229 155.793 C 395.873 155.400,395.725 155.078,395.901 155.078 C 396.076 155.078,396.718 155.637,397.328 156.320 C 397.938 157.004,398.438 157.366,398.438 157.125 C 398.438 156.884,398.269 156.583,398.064 156.456 C 397.858 156.329,397.800 155.938,397.935 155.587 C 398.083 155.203,398.021 155.048,397.779 155.198 C 397.533 155.350,397.446 155.091,397.554 154.526 C 397.651 154.021,397.510 153.472,397.242 153.306 C 396.927 153.111,396.853 153.164,397.033 153.455 C 397.186 153.703,397.126 153.906,396.898 153.906 C 396.333 153.906,396.377 153.007,396.973 152.365 C 397.365 151.942,397.361 151.895,396.957 152.124 C 396.581 152.337,396.515 152.164,396.696 151.443 C 396.843 150.856,396.748 150.358,396.454 150.177 C 396.107 149.962,396.033 150.115,396.191 150.720 C 396.312 151.183,396.272 151.563,396.103 151.563 C 395.712 151.563,395.387 150.352,395.605 149.705 C 395.696 149.435,395.960 149.332,396.193 149.476 C 396.467 149.645,396.524 149.496,396.355 149.056 C 396.212 148.680,396.094 148.217,396.094 148.025 C 396.094 147.833,395.522 147.785,394.824 147.917 C 394.126 148.050,393.670 148.033,393.812 147.878 C 393.953 147.724,394.383 147.552,394.767 147.495 C 395.151 147.439,395.532 147.144,395.614 146.841 C 395.730 146.409,395.672 146.416,395.342 146.875 C 394.986 147.371,394.885 147.326,394.681 146.582 C 394.549 146.099,394.285 145.703,394.095 145.703 C 393.905 145.703,393.794 145.850,393.848 146.029 M309.466 153.125 C 309.466 153.877,309.546 154.185,309.644 153.809 C 309.743 153.433,309.743 152.817,309.644 152.441 C 309.546 152.065,309.466 152.373,309.466 153.125 M306.136 169.536 C 306.024 169.963,306.073 170.313,306.245 170.313 C 306.704 170.313,307.052 169.200,306.668 168.962 C 306.487 168.850,306.247 169.108,306.136 169.536 M299.872 182.757 L 298.768 184.570 299.990 183.255 C 300.662 182.532,301.159 181.716,301.094 181.442 C 301.029 181.168,300.480 181.760,299.872 182.757 M289.882 193.750 C 287.345 195.786,286.966 196.502,289.416 194.630 C 290.188 194.040,290.952 193.601,291.113 193.654 C 291.274 193.707,291.406 193.513,291.406 193.224 C 291.406 192.934,291.802 192.507,292.285 192.274 C 292.769 192.040,292.973 191.838,292.740 191.823 C 292.506 191.809,291.220 192.676,289.882 193.750 M284.180 197.656 C 283.535 198.083,283.208 198.434,283.453 198.435 C 283.880 198.437,285.948 196.912,285.547 196.891 C 285.439 196.885,284.824 197.229,284.180 197.656 M116.577 220.801 L 115.430 222.070 116.699 220.923 C 117.883 219.854,118.148 219.531,117.847 219.531 C 117.779 219.531,117.208 220.103,116.577 220.801 M218.555 308.983 C 228.223 309.098,235.957 309.251,235.742 309.322 C 234.567 309.715,238.095 310.093,243.945 310.202 L 250.586 310.325 243.527 310.534 L 236.468 310.742 196.602 352.344 C 160.306 390.220,156.807 393.984,157.523 394.378 C 158.043 394.664,158.159 394.903,157.865 395.085 C 157.621 395.235,157.422 395.172,157.422 394.945 C 157.422 394.328,156.602 394.445,155.792 395.178 C 155.128 395.779,155.078 395.779,155.078 395.178 C 155.078 394.822,154.902 394.531,154.688 394.531 C 154.473 394.531,154.297 394.707,154.297 394.922 C 154.297 395.137,154.111 395.313,153.883 395.313 C 153.656 395.313,153.560 395.166,153.671 394.987 C 153.781 394.808,153.633 394.661,153.340 394.661 C 153.048 394.661,152.902 394.903,153.015 395.199 C 153.128 395.494,153.507 395.708,153.857 395.675 C 154.206 395.641,154.580 395.647,154.688 395.688 C 155.439 395.976,156.216 395.965,156.033 395.669 C 155.912 395.473,156.077 395.313,156.399 395.313 C 157.172 395.313,157.561 395.973,156.936 396.225 C 156.666 396.334,156.830 396.437,157.301 396.454 C 157.772 396.470,158.267 396.307,158.400 396.091 C 158.534 395.874,159.097 395.779,159.651 395.879 C 160.204 395.980,161.005 395.876,161.431 395.648 C 162.031 395.327,162.135 395.345,161.897 395.731 C 161.680 396.082,161.780 396.154,162.241 395.977 C 162.598 395.840,162.891 395.879,162.891 396.064 C 162.891 396.249,162.627 396.502,162.305 396.626 C 161.982 396.749,161.719 396.724,161.719 396.570 C 161.719 396.415,161.015 396.289,160.156 396.289 C 158.292 396.289,158.042 396.846,159.863 396.942 C 161.732 397.040,162.229 397.121,163.005 397.453 C 163.390 397.618,163.815 397.643,163.949 397.509 C 164.083 397.375,163.981 397.266,163.722 397.266 C 163.448 397.266,163.572 396.921,164.018 396.442 C 164.440 395.989,165.018 395.712,165.303 395.825 C 165.665 395.970,165.627 396.041,165.179 396.063 C 164.213 396.109,163.975 397.191,164.830 397.649 C 165.411 397.960,165.606 397.899,165.747 397.362 C 165.911 396.732,165.928 396.734,165.970 397.385 C 166.008 397.977,166.163 397.919,166.930 397.028 C 167.657 396.182,167.909 396.078,168.164 396.518 C 168.340 396.822,168.341 396.940,168.165 396.781 C 167.989 396.621,167.607 396.689,167.317 396.930 C 166.879 397.293,166.906 397.458,167.476 397.891 C 168.279 398.500,169.689 398.619,169.336 398.047 C 169.203 397.832,169.379 397.656,169.727 397.656 C 170.074 397.656,170.250 397.832,170.117 398.047 C 169.984 398.262,170.062 398.438,170.289 398.438 C 170.517 398.438,170.703 398.251,170.703 398.024 C 170.703 397.796,170.882 397.721,171.100 397.856 C 171.318 397.990,171.414 398.235,171.313 398.399 C 171.211 398.564,171.384 398.698,171.697 398.698 C 172.010 398.698,172.266 398.551,172.266 398.372 C 172.266 398.193,172.529 398.047,172.852 398.047 C 173.174 398.047,173.438 398.219,173.438 398.430 C 173.438 399.089,175.436 399.386,175.817 398.783 C 176.006 398.486,176.163 398.437,176.166 398.675 C 176.169 398.935,176.811 399.072,177.775 399.017 C 178.779 398.961,179.181 399.051,178.849 399.259 C 178.213 399.658,176.785 399.625,201.367 399.790 C 218.725 399.907,225.352 399.729,230.664 399.002 C 231.523 398.885,233.270 398.709,234.546 398.612 C 235.821 398.515,238.458 398.165,240.405 397.835 C 244.645 397.116,244.937 397.070,247.558 396.700 C 248.686 396.541,249.709 396.249,249.831 396.051 C 249.954 395.853,250.187 395.772,250.349 395.873 C 250.511 395.973,251.686 395.797,252.959 395.481 C 254.232 395.165,255.713 394.815,256.250 394.703 C 258.751 394.184,265.234 392.026,265.234 391.712 C 265.234 391.518,265.397 391.461,265.597 391.584 C 266.404 392.083,278.639 386.474,278.246 385.784 C 278.111 385.546,278.138 385.476,278.307 385.629 C 278.711 385.993,280.859 384.875,280.859 384.300 C 280.859 384.055,280.971 383.965,281.107 384.101 C 281.483 384.478,284.776 381.974,284.498 381.523 C 284.360 381.300,284.449 381.250,284.705 381.408 C 285.127 381.668,287.262 379.957,289.213 377.795 C 289.667 377.292,290.522 376.428,291.113 375.875 C 291.704 375.323,292.188 374.733,292.188 374.565 C 292.188 374.397,292.602 373.812,293.108 373.266 C 294.847 371.390,298.455 363.559,297.856 362.960 C 297.750 362.854,297.881 362.504,298.148 362.183 C 298.653 361.575,299.097 312.612,298.623 309.869 L 298.404 308.606 249.690 308.690 C 218.948 308.743,207.461 308.851,218.555 308.983 M256.896 334.614 C 258.219 334.590,259.241 334.667,259.168 334.785 C 259.020 335.023,262.522 336.157,262.988 336.022 C 263.149 335.976,263.281 336.143,263.281 336.393 C 263.281 336.644,263.376 336.754,263.492 336.638 C 263.714 336.416,265.293 337.636,267.449 339.694 C 268.150 340.364,268.846 340.803,268.995 340.671 C 269.144 340.538,269.156 340.623,269.021 340.859 C 268.887 341.095,269.166 341.707,269.642 342.218 C 270.118 342.730,270.464 343.284,270.410 343.449 C 270.356 343.615,270.518 343.750,270.768 343.750 C 271.019 343.750,271.134 343.840,271.025 343.949 C 270.915 344.059,271.205 345.468,271.670 347.079 C 272.390 349.574,272.462 350.401,272.159 352.641 C 271.963 354.089,271.808 355.581,271.814 355.957 C 271.821 356.333,271.681 356.641,271.502 356.641 C 271.170 356.641,270.516 358.533,270.649 359.111 C 270.689 359.288,270.555 359.330,270.350 359.203 C 270.146 359.077,269.864 359.333,269.724 359.773 C 269.461 360.601,265.281 364.838,264.723 364.842 C 264.549 364.843,264.532 365.047,264.686 365.295 C 264.845 365.553,264.794 365.640,264.567 365.500 C 264.348 365.365,263.450 365.601,262.572 366.025 C 261.694 366.450,260.791 366.797,260.566 366.797 C 260.341 366.797,260.156 366.955,260.156 367.148 C 260.156 367.494,258.949 367.629,255.859 367.629 C 252.770 367.629,251.563 367.494,251.563 367.148 C 251.563 366.955,251.365 366.797,251.123 366.797 C 250.881 366.797,249.668 366.281,248.427 365.651 C 247.187 365.021,246.052 364.625,245.905 364.772 C 245.758 364.919,245.697 364.790,245.768 364.485 C 245.840 364.180,245.484 363.715,244.978 363.452 C 244.472 363.188,243.843 362.559,243.579 362.053 C 243.316 361.547,242.895 361.177,242.644 361.230 C 242.393 361.284,242.188 360.966,242.188 360.524 C 242.188 360.081,242.012 359.828,241.797 359.961 C 241.446 360.178,241.237 359.665,241.360 358.887 C 241.385 358.726,241.230 358.594,241.016 358.594 C 240.801 358.594,240.646 358.462,240.671 358.301 C 240.823 357.341,240.574 356.626,240.174 356.873 C 239.902 357.041,239.829 356.981,239.989 356.721 C 240.136 356.484,240.083 355.534,239.872 354.610 C 239.299 352.097,239.088 348.468,239.501 348.213 C 239.701 348.089,239.833 347.781,239.793 347.529 C 239.754 347.277,239.998 346.457,240.334 345.707 C 240.671 344.957,240.863 344.210,240.762 344.047 C 240.661 343.884,240.775 343.750,241.016 343.750 C 241.256 343.750,241.355 343.593,241.236 343.400 C 241.117 343.208,241.283 342.950,241.604 342.827 C 241.925 342.703,242.188 342.235,242.188 341.786 C 242.188 341.337,242.356 341.074,242.561 341.201 C 242.767 341.328,243.211 340.899,243.548 340.247 C 243.885 339.596,244.298 339.063,244.467 339.063 C 244.635 339.063,245.114 338.786,245.531 338.448 C 245.948 338.109,246.042 337.961,245.740 338.117 C 245.377 338.306,245.287 338.248,245.474 337.945 C 245.630 337.693,245.914 337.584,246.106 337.703 C 246.299 337.822,246.799 337.576,247.219 337.156 C 247.638 336.737,248.084 336.496,248.210 336.621 C 248.335 336.746,248.440 336.512,248.443 336.100 C 248.448 335.474,248.511 335.447,248.828 335.938 C 249.068 336.308,249.209 336.348,249.213 336.047 C 249.216 335.765,249.483 335.673,249.869 335.821 C 250.341 336.002,250.431 335.929,250.199 335.553 C 250.009 335.245,250.032 335.130,250.256 335.268 C 250.819 335.616,253.905 334.739,253.912 334.230 C 253.917 333.908,253.996 333.907,254.205 334.223 C 254.370 334.472,255.517 334.639,256.896 334.614 M107.884 367.384 C 108.129 367.922,108.382 368.310,108.446 368.246 C 108.684 368.009,108.100 366.406,107.775 366.406 C 107.590 366.406,107.639 366.846,107.884 367.384 M112.364 373.654 C 114.074 375.709,117.769 379.297,118.174 379.297 C 118.306 379.297,117.171 378.117,115.652 376.675 C 114.133 375.233,112.885 373.870,112.878 373.647 C 112.872 373.425,112.388 372.897,111.804 372.474 C 110.973 371.873,111.094 372.129,112.364 373.654 M118.830 379.732 C 118.916 379.989,120.119 380.985,121.505 381.946 C 123.389 383.252,123.690 383.385,122.701 382.471 C 121.974 381.799,121.252 381.250,121.098 381.250 C 120.943 381.250,120.335 380.803,119.745 380.257 C 119.156 379.710,118.744 379.474,118.830 379.732 M126.595 385.288 C 127.103 385.698,131.250 387.921,131.250 387.782 C 131.250 387.506,127.323 385.156,126.862 385.156 C 126.626 385.156,126.506 385.215,126.595 385.288 M133.203 388.456 C 133.203 388.564,133.730 388.925,134.375 389.258 C 135.020 389.591,135.547 389.776,135.547 389.669 C 135.547 389.561,135.020 389.200,134.375 388.867 C 133.730 388.534,133.203 388.349,133.203 388.456 " stroke="none" fill="#fccc39" fill-rule="evenodd"></path><path id="path1" d="M309.969 100.872 C 309.856 101.359,309.712 113.975,309.649 128.906 C 309.586 143.838,309.410 156.582,309.259 157.227 C 308.892 158.791,308.536 160.870,308.390 162.305 C 308.324 162.949,307.998 164.271,307.666 165.243 C 307.333 166.214,306.974 167.706,306.869 168.557 C 306.763 169.409,306.493 170.166,306.268 170.241 C 306.043 170.316,305.859 170.629,305.859 170.936 C 305.859 171.244,305.696 171.800,305.497 172.173 C 305.180 172.768,304.664 174.037,304.506 174.609 C 304.260 175.504,301.783 180.302,301.515 180.404 C 301.326 180.475,301.172 180.861,301.172 181.261 C 301.172 181.661,300.568 182.647,299.829 183.453 C 299.091 184.260,298.562 185.042,298.655 185.192 C 298.748 185.342,298.550 185.570,298.215 185.698 C 297.881 185.827,297.716 186.109,297.850 186.325 C 297.984 186.542,297.819 186.719,297.484 186.719 C 297.149 186.719,296.875 186.863,296.875 187.039 C 296.875 187.215,295.934 188.354,294.784 189.570 C 293.634 190.786,292.768 191.857,292.860 191.949 C 292.952 192.041,292.663 192.232,292.217 192.373 C 291.771 192.515,291.406 192.883,291.406 193.190 C 291.406 193.498,291.274 193.707,291.113 193.654 C 290.952 193.601,290.188 194.040,289.416 194.630 C 288.644 195.220,287.809 195.703,287.561 195.703 C 287.313 195.703,287.109 195.879,287.109 196.094 C 287.109 196.309,286.915 196.484,286.677 196.484 C 286.440 196.484,285.723 196.924,285.085 197.461 C 284.447 197.998,283.674 198.438,283.368 198.438 C 283.063 198.438,282.813 198.624,282.813 198.851 C 282.813 199.079,282.637 199.156,282.422 199.023 C 282.207 198.891,282.031 198.931,282.031 199.113 C 282.031 199.294,281.652 199.472,281.187 199.507 C 280.723 199.542,280.199 199.799,280.022 200.078 C 279.844 200.357,279.697 200.450,279.693 200.284 C 279.690 200.118,279.257 200.264,278.732 200.608 C 278.206 200.953,277.678 201.221,277.560 201.203 C 277.441 201.186,277.300 201.185,277.246 201.201 C 277.192 201.217,276.740 201.306,276.240 201.398 C 275.740 201.491,274.949 201.777,274.482 202.034 C 274.015 202.291,273.281 202.567,272.852 202.648 C 271.673 202.871,270.898 203.059,270.898 203.122 C 270.898 203.153,270.371 203.247,269.727 203.330 C 269.082 203.413,268.197 203.571,267.761 203.680 C 264.355 204.531,255.638 204.682,207.617 204.717 C 156.111 204.756,152.140 204.845,145.898 206.099 C 138.994 207.487,135.626 208.666,129.102 211.979 C 121.542 215.817,110.938 225.181,110.938 228.017 C 110.938 228.291,110.795 228.516,110.620 228.516 C 110.445 228.516,109.907 229.351,109.424 230.371 C 108.941 231.392,108.225 232.842,107.833 233.594 C 105.982 237.145,104.183 244.012,103.354 250.684 C 103.098 252.745,103.045 351.019,103.299 353.714 C 103.486 355.706,104.710 360.184,105.646 362.305 C 105.930 362.949,106.282 363.872,106.428 364.355 C 106.574 364.839,106.857 365.234,107.058 365.234 C 107.258 365.234,107.422 365.498,107.422 365.820 C 107.422 366.143,107.584 366.406,107.781 366.406 C 107.979 366.406,108.257 366.934,108.398 367.578 C 108.540 368.223,108.818 368.750,109.015 368.750 C 109.213 368.750,109.375 369.014,109.375 369.336 C 109.375 369.658,109.551 369.922,109.766 369.922 C 109.980 369.922,110.156 370.186,110.156 370.508 C 110.156 370.830,110.430 371.094,110.765 371.094 C 111.100 371.094,111.274 371.255,111.152 371.453 C 111.030 371.651,111.371 372.159,111.910 372.584 C 112.449 373.008,112.891 373.505,112.891 373.689 C 112.891 374.195,118.655 379.653,118.914 379.393 C 119.039 379.268,119.141 379.357,119.141 379.591 C 119.141 379.824,119.800 380.418,120.605 380.912 C 121.411 381.406,122.510 382.217,123.047 382.714 C 123.584 383.211,124.418 383.719,124.900 383.843 C 125.382 383.967,125.682 384.220,125.567 384.405 C 125.453 384.591,125.849 384.861,126.449 385.006 C 127.048 385.152,127.979 385.571,128.516 385.939 C 130.106 387.027,133.203 388.674,133.203 388.432 C 133.203 388.308,133.994 388.671,134.961 389.237 C 135.928 389.804,136.719 390.166,136.719 390.042 C 136.719 389.918,137.114 390.036,137.598 390.304 C 138.081 390.572,138.636 390.744,138.831 390.687 C 139.027 390.630,139.304 390.775,139.449 391.009 C 139.593 391.243,140.219 391.526,140.840 391.639 C 141.460 391.751,142.183 392.021,142.445 392.239 C 142.708 392.457,143.455 392.676,144.106 392.726 C 144.757 392.776,145.411 392.937,145.558 393.084 C 145.706 393.232,146.096 393.134,146.426 392.868 C 146.904 392.481,146.966 392.482,146.731 392.872 C 146.436 393.364,148.325 394.383,148.749 393.960 C 148.860 393.848,149.187 393.953,149.476 394.192 C 149.764 394.431,150.000 394.496,150.000 394.336 C 150.000 394.176,150.256 394.257,150.569 394.517 C 150.882 394.777,151.309 394.883,151.518 394.754 C 151.728 394.624,152.010 394.697,152.144 394.916 C 152.279 395.134,152.566 395.313,152.780 395.313 C 152.995 395.313,153.081 395.166,152.970 394.987 C 152.859 394.808,153.017 394.661,153.320 394.661 C 153.624 394.661,153.793 394.790,153.696 394.946 C 153.599 395.103,153.774 395.328,154.084 395.447 C 154.460 395.591,154.575 395.475,154.431 395.097 C 154.311 394.786,154.387 394.531,154.600 394.531 C 154.813 394.531,155.068 394.842,155.168 395.222 C 155.276 395.636,155.773 395.949,156.407 396.001 C 157.082 396.057,157.370 395.936,157.204 395.666 C 157.060 395.434,156.601 395.334,156.184 395.443 C 155.564 395.605,155.509 395.540,155.885 395.086 C 156.424 394.437,157.422 394.345,157.422 394.945 C 157.422 395.172,157.621 395.235,157.865 395.085 C 158.159 394.903,158.043 394.664,157.523 394.378 C 156.807 393.984,160.306 390.220,196.602 352.344 L 236.468 310.742 243.527 310.534 L 250.586 310.325 244.287 310.241 C 237.714 310.153,235.414 309.906,235.772 309.327 C 235.892 309.132,228.473 308.984,218.578 308.984 L 201.172 308.984 201.172 302.734 L 201.172 296.484 217.480 296.431 C 235.856 296.372,264.679 295.892,256.738 295.777 C 253.892 295.737,251.563 295.542,251.563 295.345 C 251.563 295.148,283.599 261.544,322.754 220.670 C 361.909 179.796,393.901 146.208,393.848 146.029 C 393.619 145.267,394.375 145.793,394.788 146.683 C 395.036 147.219,395.116 147.581,394.964 147.487 C 394.813 147.394,394.434 147.479,394.122 147.676 C 393.676 147.958,393.738 148.036,394.411 148.041 C 395.651 148.050,395.710 147.697,394.852 145.405 C 394.348 144.058,393.924 143.444,393.623 143.625 C 393.371 143.776,393.428 143.569,393.750 143.164 C 394.176 142.629,394.191 142.515,393.806 142.747 C 393.398 142.993,393.330 142.852,393.509 142.139 C 393.638 141.628,393.642 141.431,393.519 141.699 C 393.395 141.968,393.133 142.188,392.936 142.188 C 392.486 142.188,392.643 141.308,393.164 140.918 C 393.412 140.732,393.358 140.498,393.016 140.278 C 392.720 140.087,392.602 139.731,392.752 139.487 C 392.903 139.243,392.882 139.068,392.705 139.099 C 391.915 139.236,391.651 139.018,392.188 138.672 C 392.578 138.419,392.611 138.291,392.285 138.287 C 392.017 138.284,391.797 137.930,391.797 137.500 C 391.797 136.956,391.536 136.719,390.941 136.719 C 390.101 136.719,390.099 136.707,390.843 136.101 C 391.569 135.510,391.570 135.493,390.863 135.719 C 390.233 135.921,390.198 135.866,390.625 135.351 C 391.171 134.694,391.177 134.709,390.039 134.012 C 389.447 133.650,389.424 133.587,389.946 133.749 C 390.719 133.990,389.950 132.081,388.817 130.948 C 388.522 130.654,388.281 130.074,388.281 129.660 C 388.281 129.245,388.085 128.950,387.845 129.004 C 387.605 129.058,387.352 128.763,387.283 128.350 C 387.215 127.936,386.884 127.444,386.548 127.256 C 386.212 127.068,385.938 126.473,385.938 125.934 C 385.938 125.380,385.768 125.059,385.547 125.195 C 385.332 125.328,385.156 125.064,385.156 124.609 C 385.156 124.154,384.980 123.891,384.766 124.023 C 384.551 124.156,384.375 123.946,384.375 123.556 C 384.375 123.166,383.773 122.345,383.037 121.731 C 382.267 121.090,381.787 120.385,381.907 120.073 C 382.031 119.750,381.862 119.531,381.487 119.531 C 381.142 119.531,380.859 119.268,380.859 118.945 C 380.859 118.623,380.704 118.359,380.514 118.359 C 380.325 118.359,380.073 117.990,379.955 117.539 C 379.837 117.087,379.553 116.834,379.323 116.976 C 379.089 117.121,378.906 116.938,378.906 116.560 C 378.906 116.189,378.800 115.992,378.670 116.122 C 378.407 116.384,376.563 114.532,376.563 114.005 C 376.563 113.822,376.288 113.672,375.954 113.672 C 375.619 113.672,375.453 113.496,375.586 113.281 C 375.719 113.066,375.543 112.891,375.195 112.891 C 374.848 112.891,374.660 112.734,374.778 112.543 C 375.004 112.178,373.065 110.700,372.559 110.851 C 372.397 110.898,372.266 110.774,372.266 110.573 C 372.266 110.373,371.912 110.097,371.479 109.959 C 371.046 109.822,370.777 109.571,370.881 109.402 C 370.986 109.234,370.285 108.691,369.325 108.197 C 368.364 107.703,367.578 107.151,367.578 106.970 C 367.578 106.789,367.339 106.641,367.047 106.641 C 366.754 106.641,365.836 106.180,365.006 105.617 C 364.177 105.054,363.317 104.565,363.096 104.532 C 362.876 104.498,362.480 104.335,362.216 104.171 C 361.528 103.741,356.691 101.951,355.078 101.530 C 353.677 101.164,352.950 101.025,349.219 100.411 C 348.037 100.216,338.769 100.041,328.623 100.021 L 310.175 99.986 309.969 100.872 M395.657 149.684 C 395.571 150.637,395.763 151.287,396.285 151.809 C 396.571 152.096,396.713 152.685,396.599 153.118 C 396.486 153.552,396.574 153.906,396.795 153.906 C 397.327 153.906,397.116 152.128,396.495 151.380 C 396.226 151.056,396.106 150.531,396.228 150.213 C 396.350 149.895,396.282 149.531,396.077 149.404 C 395.871 149.277,395.682 149.403,395.657 149.684 M396.229 155.793 C 396.585 156.187,396.744 156.654,396.583 156.833 C 396.421 157.011,396.521 157.023,396.804 156.859 C 397.144 156.662,397.391 156.839,397.533 157.383 C 397.738 158.166,398.438 158.553,398.438 157.883 C 398.438 157.445,396.297 155.078,395.901 155.078 C 395.725 155.078,395.873 155.400,396.229 155.793 M298.528 330.469 C 298.528 331.221,298.609 331.528,298.707 331.152 C 298.805 330.776,298.805 330.161,298.707 329.785 C 298.609 329.409,298.528 329.717,298.528 330.469 M161.328 395.696 C 161.006 395.901,160.270 395.985,159.692 395.884 C 159.114 395.783,158.552 395.845,158.442 396.023 C 158.333 396.200,158.981 396.332,159.883 396.317 C 160.881 396.300,161.726 396.519,162.041 396.875 C 162.325 397.197,162.447 397.241,162.311 396.973 C 162.175 396.704,162.249 396.484,162.477 396.484 C 162.704 396.484,162.891 396.314,162.891 396.106 C 162.891 395.898,162.598 395.840,162.241 395.977 C 161.804 396.145,161.683 396.077,161.873 395.770 C 162.213 395.220,162.102 395.205,161.328 395.696 M163.984 396.454 C 163.447 397.081,163.432 397.240,163.892 397.417 C 164.196 397.533,164.425 397.503,164.402 397.349 C 164.286 396.570,164.519 396.134,165.137 395.972 C 165.646 395.839,165.668 395.782,165.224 395.748 C 164.895 395.724,164.337 396.041,163.984 396.454 M167.053 396.808 C 166.225 397.723,166.235 398.055,167.090 398.016 C 167.525 397.996,167.590 397.911,167.269 397.783 C 166.883 397.628,166.871 397.452,167.215 397.037 C 167.464 396.738,167.850 396.606,168.073 396.744 C 168.310 396.890,168.363 396.807,168.201 396.545 C 167.840 395.960,167.815 395.966,167.053 396.808 M172.266 398.438 C 172.266 398.652,172.529 398.828,172.852 398.828 C 173.174 398.828,173.438 398.652,173.438 398.438 C 173.438 398.223,173.174 398.047,172.852 398.047 C 172.529 398.047,172.266 398.223,172.266 398.438 " stroke="none" fill="#fcd643" fill-rule="evenodd"></path><path id="path2" d="M167.969 0.621 C 132.078 5.000,110.569 16.349,104.145 34.299 L 102.930 37.695 102.815 63.477 C 102.752 77.656,102.799 89.653,102.920 90.137 L 103.140 91.016 151.570 91.016 L 200.000 91.016 200.000 96.867 L 200.000 102.718 127.441 102.835 C 55.167 102.952,54.869 102.956,51.367 103.778 C 24.217 110.151,8.160 130.742,1.310 167.969 C 0.086 174.620,-0.579 216.046,0.391 225.195 C 4.571 264.623,20.470 290.009,45.942 297.926 L 49.414 299.006 70.605 299.131 L 91.797 299.256 91.797 273.831 C 91.797 247.001,91.948 243.871,93.612 236.328 C 98.385 214.695,112.038 200.624,132.617 196.127 C 138.516 194.838,140.350 194.792,196.094 194.540 L 252.148 194.287 256.055 193.411 C 280.972 187.824,295.219 173.263,298.014 150.528 C 298.780 144.304,298.616 46.410,297.834 42.969 C 292.841 20.982,271.642 7.213,233.398 1.115 C 226.385 -0.003,176.192 -0.382,167.969 0.621 M148.250 32.066 C 158.988 34.051,165.129 45.679,160.446 55.159 C 153.739 68.734,134.922 67.455,130.064 53.093 C 126.315 42.012,136.756 29.941,148.250 32.066 " stroke="none" fill="#347cb0" fill-rule="evenodd"></path></g></svg>
