<svg id="svg" xmlns="http://www.w3.org/2000/svg" xmlns:xlink="http://www.w3.org/1999/xlink" width="100" height="100" viewBox="0, 0, 400,400"><g id="svgg"><path id="path0" d="M178.769 38.616 C 173.313 39.721,170.308 42.775,170.308 47.219 C 170.308 52.214,173.304 54.837,181.443 56.964 C 187.805 58.626,189.509 60.455,187.154 63.091 C 184.774 65.755,179.318 64.187,178.456 60.591 L 178.084 59.040 174.811 59.255 C 173.011 59.374,171.331 59.510,171.077 59.558 C 170.823 59.606,170.554 59.656,170.478 59.669 C 170.403 59.682,170.818 60.212,171.401 60.846 L 172.461 62.000 171.217 60.846 C 169.489 59.242,169.101 59.316,169.324 61.207 C 169.894 66.012,174.656 70.166,179.617 70.183 C 180.251 70.185,181.715 70.261,182.871 70.351 C 191.127 70.999,197.077 66.589,197.077 59.822 C 197.077 54.119,194.183 51.743,184.172 49.225 C 179.014 47.928,177.994 46.944,179.665 44.880 C 181.367 42.779,187.077 44.607,187.077 47.254 L 187.077 48.055 189.769 47.866 C 191.250 47.762,193.321 47.601,194.372 47.508 L 196.283 47.338 196.101 46.361 C 194.915 39.982,187.778 36.793,178.769 38.616 M105.236 54.308 L 105.252 69.846 110.011 69.846 L 114.769 69.846 114.802 65.154 C 114.820 62.573,114.854 59.769,114.879 58.923 L 114.923 57.385 116.069 57.290 C 117.873 57.140,119.202 58.673,122.023 64.154 C 125.262 70.446,124.367 69.846,130.509 69.846 C 133.360 69.846,135.692 69.760,135.692 69.654 C 135.692 67.580,128.945 57.389,127.054 56.606 L 126.097 56.209 127.528 55.666 C 135.664 52.578,135.326 41.194,127.040 39.241 C 125.508 38.880,122.897 38.777,115.149 38.774 L 105.221 38.769 105.236 54.308 M139.084 41.923 C 139.088 43.658,139.212 45.596,139.360 46.231 C 139.516 46.904,139.513 47.385,139.352 47.385 C 139.195 47.385,139.077 52.216,139.077 58.619 L 139.077 69.853 152.231 69.773 L 165.385 69.692 165.472 66.385 L 165.559 63.077 157.472 63.072 C 147.856 63.067,148.567 63.342,148.680 59.667 L 148.769 56.769 156.231 56.687 L 163.692 56.604 163.692 53.538 L 163.692 50.472 156.231 50.390 L 148.769 50.308 148.769 47.846 L 148.769 45.385 156.846 45.303 L 164.923 45.221 164.923 41.995 L 164.923 38.769 159.581 38.769 C 153.248 38.769,151.636 38.951,150.764 39.763 C 150.149 40.337,150.118 40.339,150.210 39.800 C 150.330 39.098,148.522 38.853,142.846 38.803 L 139.077 38.769 139.084 41.923 M202.341 39.256 C 202.043 40.031,202.140 55.232,202.463 58.557 C 203.218 66.313,207.084 69.763,215.639 70.318 L 219.112 70.543 220.093 69.656 C 221.050 68.792,221.056 68.791,220.338 69.606 C 219.681 70.353,219.665 70.432,220.186 70.338 C 220.507 70.280,221.450 70.134,222.282 70.013 C 227.033 69.322,230.733 65.615,231.813 60.463 C 232.218 58.529,232.191 58.320,231.547 58.448 C 231.383 58.480,231.478 58.253,231.760 57.942 C 232.287 57.359,232.620 40.557,232.129 39.278 C 231.842 38.529,222.935 38.508,222.648 39.256 C 222.546 39.524,222.461 44.266,222.460 49.794 C 222.459 59.215,222.422 59.908,221.860 60.829 C 219.830 64.159,214.225 63.999,212.436 60.561 C 211.825 59.387,211.724 57.584,211.707 47.615 L 211.692 38.769 207.110 38.769 C 203.215 38.769,202.499 38.842,202.341 39.256 M238.667 38.974 C 238.322 39.319,238.429 44.308,238.780 44.308 C 238.982 44.308,238.999 44.505,238.826 44.846 C 238.676 45.142,238.642 46.250,238.750 47.308 C 238.857 48.365,238.835 49.231,238.699 49.231 C 238.564 49.231,238.490 53.835,238.534 59.462 L 238.615 69.692 242.356 69.778 L 246.097 69.865 246.272 68.702 C 246.648 66.211,246.369 50.152,245.943 49.799 C 245.637 49.545,245.538 49.585,245.538 49.962 C 245.538 50.237,245.384 50.462,245.195 50.462 C 245.006 50.462,244.922 50.192,245.008 49.861 C 245.095 49.531,245.007 49.186,244.813 49.095 C 244.620 49.003,244.773 49.006,245.154 49.100 C 245.797 49.260,246.009 49.001,245.878 48.218 C 245.741 47.397,246.513 46.722,246.948 47.282 C 247.367 47.821,247.378 47.819,247.208 47.231 C 247.048 46.678,247.065 46.670,247.374 47.150 C 247.605 47.508,247.620 47.869,247.419 48.243 C 247.200 48.652,247.574 50.566,248.818 55.401 C 249.752 59.030,250.954 63.731,251.489 65.846 L 252.462 69.692 255.907 69.779 C 259.976 69.882,259.541 70.294,260.865 65.077 C 261.380 63.046,262.575 58.338,263.520 54.615 C 264.465 50.892,265.365 47.569,265.521 47.231 C 265.700 46.842,265.812 50.898,265.825 58.231 L 265.846 69.846 269.692 69.846 L 273.538 69.846 273.538 54.308 L 273.538 38.769 267.231 38.769 C 263.762 38.769,260.923 38.846,260.923 38.939 C 260.923 39.075,258.039 50.461,256.565 56.141 C 256.116 57.873,255.961 57.470,253.816 49.007 C 252.590 44.171,251.706 41.301,251.207 40.538 C 250.792 39.904,250.559 39.371,250.688 39.354 C 250.817 39.337,250.577 39.212,250.154 39.077 C 249.219 38.778,238.955 38.686,238.667 38.974 M279.974 45.227 C 279.960 48.783,279.949 52.177,279.949 52.769 C 279.949 53.362,279.960 57.446,279.974 61.845 L 280.000 69.844 293.077 69.839 L 306.154 69.834 306.154 66.455 L 306.154 63.077 298.136 63.077 C 291.810 63.077,290.164 63.158,290.336 63.462 C 290.456 63.673,290.049 63.369,289.431 62.786 C 288.269 61.689,287.832 61.013,288.923 62.000 C 289.534 62.553,289.538 62.537,289.538 59.586 L 289.538 56.615 297.077 56.615 L 304.615 56.615 304.615 53.538 L 304.615 50.462 297.077 50.462 L 289.538 50.462 289.538 47.846 L 289.538 45.231 297.549 45.231 L 305.560 45.231 305.472 42.077 L 305.385 38.923 292.692 38.843 L 280.000 38.762 279.974 45.227 M122.671 45.723 C 123.664 46.463,124.015 48.515,123.358 49.742 C 122.781 50.820,120.529 51.427,117.497 51.321 L 114.923 51.231 114.823 48.514 C 114.680 44.656,114.482 44.850,118.441 44.973 C 121.274 45.061,121.940 45.179,122.671 45.723 M230.769 59.173 C 230.769 59.226,230.319 59.676,229.769 60.173 L 228.769 61.077 229.673 60.077 C 230.515 59.145,230.769 58.935,230.769 59.173 M123.728 120.051 C 123.708 120.503,123.519 120.942,123.308 121.027 C 123.006 121.149,123.009 121.187,123.317 121.206 C 123.805 121.237,124.100 120.529,123.908 119.787 C 123.811 119.412,123.752 119.498,123.728 120.051 M120.379 126.154 C 120.379 126.746,120.442 126.988,120.520 126.692 C 120.597 126.396,120.597 125.912,120.520 125.615 C 120.442 125.319,120.379 125.562,120.379 126.154 M135.077 153.059 C 135.077 154.002,135.252 154.078,135.474 153.231 C 135.562 152.893,135.509 152.538,135.356 152.444 C 135.202 152.349,135.077 152.626,135.077 153.059 M135.231 156.923 C 135.537 157.262,135.903 157.538,136.045 157.538 C 136.186 157.538,136.065 157.262,135.775 156.923 C 135.485 156.585,135.119 156.308,134.961 156.308 C 134.803 156.308,134.924 156.585,135.231 156.923 M134.989 163.267 C 134.755 163.502,135.350 164.117,136.077 164.392 C 136.833 164.678,136.783 163.804,136.020 163.395 C 135.325 163.024,135.243 163.013,134.989 163.267 M156.615 163.872 C 156.615 164.140,156.780 164.304,156.981 164.237 C 157.551 164.047,157.646 163.385,157.103 163.385 C 156.835 163.385,156.615 163.604,156.615 163.872 M153.846 165.231 C 153.846 165.737,154.006 165.866,154.538 165.791 C 154.919 165.737,155.231 165.485,155.231 165.231 C 155.231 164.977,154.919 164.725,154.538 164.671 C 154.006 164.595,153.846 164.724,153.846 165.231 M127.231 241.123 C 109.719 243.924,104.036 266.380,118.193 276.838 C 125.235 282.041,136.226 281.853,142.326 276.426 C 142.956 275.865,143.556 275.366,143.659 275.316 C 143.967 275.166,145.667 273.231,145.490 273.231 C 145.400 273.231,144.924 273.577,144.432 274.000 C 143.437 274.856,143.079 274.957,143.072 274.385 C 143.069 274.091,143.007 274.095,142.812 274.402 C 142.244 275.299,140.781 274.313,136.702 270.280 C 134.055 267.663,132.642 266.051,132.789 265.814 C 132.939 265.572,132.888 265.524,132.642 265.676 C 132.146 265.983,131.427 264.982,131.618 264.250 C 131.729 263.826,131.641 263.731,131.268 263.875 C 130.721 264.084,130.508 262.352,131.040 262.023 C 131.801 261.552,131.389 258.195,130.428 257.037 C 129.521 255.944,133.320 250.218,134.478 250.933 C 134.721 251.083,134.787 251.047,134.656 250.836 C 134.459 250.516,137.956 246.759,139.774 245.339 C 140.624 244.674,140.670 243.692,139.851 243.692 C 139.636 243.692,139.292 243.490,139.087 243.243 C 138.035 241.976,130.417 240.613,127.231 241.123 M140.077 245.689 C 139.527 245.929,139.077 246.208,139.077 246.311 C 139.077 246.414,139.250 246.399,139.462 246.278 C 139.673 246.157,139.491 246.461,139.056 246.952 C 138.621 247.444,138.020 248.242,137.720 248.725 C 137.345 249.329,137.074 249.505,136.856 249.287 C 136.395 248.826,135.648 249.562,136.062 250.069 C 136.285 250.342,136.085 250.620,135.339 251.077 C 134.772 251.424,134.031 252.070,133.692 252.513 C 133.354 252.955,132.757 253.633,132.367 254.018 C 131.176 255.193,130.893 256.831,131.693 257.913 C 132.158 258.541,132.303 259.054,132.169 259.589 C 132.031 260.139,132.079 260.295,132.340 260.134 C 132.877 259.802,132.393 261.601,131.829 262.034 C 131.330 262.417,131.214 262.911,131.692 262.615 C 131.872 262.505,132.000 262.814,132.000 263.356 C 132.000 264.256,133.363 266.220,134.461 266.902 C 134.715 267.060,135.269 267.558,135.692 268.008 C 136.115 268.458,137.130 269.541,137.947 270.415 C 141.336 274.043,142.521 274.394,144.471 272.346 C 145.824 270.926,145.826 270.919,145.790 268.734 C 145.751 266.359,146.133 265.518,147.750 264.426 C 148.968 263.603,149.782 261.923,149.734 260.334 C 149.685 258.737,149.070 258.322,148.771 259.684 C 148.055 262.944,141.030 262.791,139.422 259.480 C 138.475 257.532,138.903 253.846,140.075 253.846 C 140.223 253.846,140.258 253.708,140.154 253.538 C 140.049 253.369,140.180 253.231,140.443 253.231 C 140.707 253.231,140.923 253.083,140.923 252.902 C 140.923 252.702,141.192 252.659,141.613 252.793 C 142.250 252.995,142.267 252.969,141.844 252.453 C 141.421 251.938,141.439 251.907,142.077 252.072 C 142.458 252.170,142.702 252.141,142.619 252.006 C 142.537 251.872,142.813 251.697,143.234 251.616 C 144.177 251.436,145.582 251.680,145.390 251.991 C 145.313 252.116,145.591 252.153,146.009 252.074 C 146.483 251.983,146.769 252.070,146.769 252.305 C 146.769 252.512,146.968 252.605,147.211 252.512 C 147.454 252.419,147.729 252.508,147.823 252.710 C 147.917 252.912,147.913 252.752,147.813 252.355 C 147.499 251.101,143.808 246.154,143.187 246.154 C 142.993 246.154,142.755 245.946,142.658 245.692 C 142.438 245.119,141.391 245.118,140.077 245.689 " stroke="none" fill="#e0683a" fill-rule="evenodd"></path><path id="path1" d="M159.203 163.520 C 158.429 164.482,156.155 166.166,154.769 166.803 C 152.480 167.856,152.112 168.011,150.769 168.481 C 149.212 169.028,143.153 169.122,142.639 168.608 C 142.474 168.443,142.081 168.308,141.766 168.308 C 140.761 168.308,138.022 167.285,137.385 166.673 C 137.046 166.347,136.125 165.679,135.338 165.186 C 134.550 164.694,133.822 164.072,133.719 163.804 C 133.578 163.437,133.284 163.363,132.535 163.507 C 131.987 163.613,130.932 163.769,130.191 163.856 C 129.450 163.942,128.695 164.105,128.512 164.218 C 128.329 164.331,127.897 164.456,127.551 164.496 C 127.206 164.537,125.538 164.918,123.846 165.343 C 122.154 165.769,120.215 166.213,119.538 166.329 C 113.134 167.429,108.323 173.220,108.311 179.843 L 108.308 181.993 113.308 177.073 L 118.308 172.154 113.308 177.234 L 108.308 182.314 108.308 196.543 L 108.308 210.772 145.923 210.694 L 183.538 210.615 183.538 193.231 L 183.538 175.846 182.703 174.063 C 180.992 170.411,176.898 167.362,172.127 166.187 C 168.721 165.348,166.576 164.735,163.349 163.681 C 159.981 162.580,159.960 162.579,159.203 163.520 M278.615 241.116 C 275.924 241.528,273.147 242.885,271.316 244.682 C 269.956 246.018,269.328 246.436,268.894 246.298 C 268.500 246.173,268.308 246.260,268.308 246.562 C 268.308 246.809,268.100 247.091,267.846 247.188 C 267.532 247.309,267.385 247.801,267.385 248.731 C 267.385 249.904,267.305 250.075,266.820 249.948 C 266.182 249.782,265.163 251.072,265.249 251.938 C 265.388 253.328,265.245 253.609,264.494 253.420 C 263.777 253.240,263.174 253.873,263.524 254.438 C 264.090 255.354,263.974 256.779,263.243 257.883 C 260.158 262.545,265.667 274.588,272.615 278.371 C 288.059 286.779,306.334 273.101,302.118 256.289 C 299.455 245.673,289.751 239.408,278.615 241.116 M271.922 247.220 C 272.372 247.637,272.667 248.051,272.578 248.140 C 272.489 248.229,272.020 247.887,271.535 247.381 C 270.474 246.274,270.769 246.151,271.922 247.220 M271.444 247.951 C 271.665 248.263,272.054 248.598,272.308 248.696 C 272.704 248.849,272.701 248.878,272.284 248.899 C 272.018 248.912,271.474 248.577,271.077 248.154 C 270.679 247.731,270.509 247.385,270.698 247.385 C 270.887 247.385,271.223 247.640,271.444 247.951 M269.210 250.167 C 268.866 250.379,268.886 250.467,269.316 250.632 C 269.608 250.744,269.846 250.956,269.846 251.105 C 269.846 251.253,269.367 251.146,268.782 250.867 C 267.569 250.289,267.571 250.021,268.787 249.953 C 269.366 249.920,269.499 249.988,269.210 250.167 M266.295 253.560 C 266.197 253.717,266.350 253.846,266.635 253.846 C 267.060 253.846,267.084 253.929,266.769 254.308 C 266.203 254.990,266.000 254.875,265.987 253.868 C 265.980 253.372,266.086 253.035,266.223 253.120 C 266.360 253.204,266.392 253.402,266.295 253.560 " stroke="none" fill="#6ebcbc" fill-rule="evenodd"></path><path id="path2" d="M0.000 200.000 L 0.000 400.000 200.000 400.000 L 400.000 400.000 400.000 200.000 L 400.000 0.000 200.000 0.000 L 0.000 0.000 0.000 200.000 M212.357 23.393 C 339.853 23.409,330.548 23.376,330.840 23.816 C 330.964 24.002,331.067 103.458,331.070 200.385 L 331.074 376.615 299.614 376.617 C 282.311 376.618,238.246 376.618,201.692 376.617 C 165.138 376.616,120.381 376.616,102.231 376.616 L 69.230 376.615 69.307 200.077 L 69.385 23.538 111.983 23.467 C 135.412 23.428,154.727 23.343,154.906 23.278 C 155.085 23.213,155.322 23.211,155.434 23.273 C 155.545 23.335,181.161 23.390,212.357 23.393 M94.295 86.538 C 94.214 86.750,94.183 116.969,94.227 153.692 L 94.308 220.462 147.923 220.539 L 201.538 220.617 201.538 153.385 L 201.538 86.154 147.990 86.154 C 105.436 86.154,94.412 86.233,94.295 86.538 M152.749 92.300 C 163.869 95.155,172.305 104.543,174.441 116.441 C 174.645 117.572,174.769 124.096,174.769 133.590 L 174.769 148.912 167.341 148.995 C 160.792 149.067,159.874 149.138,159.589 149.591 C 159.219 150.178,160.066 162.036,160.510 162.478 C 160.653 162.620,163.400 163.505,166.615 164.444 C 175.079 166.916,176.324 167.343,177.692 168.237 C 180.666 170.182,182.567 172.561,183.267 175.214 C 183.591 176.441,183.915 202.886,183.702 210.646 C 183.697 210.833,183.312 210.958,182.846 210.925 C 182.381 210.892,165.415 210.844,145.144 210.817 L 108.288 210.769 108.375 193.308 L 108.462 175.846 109.442 173.776 C 111.524 169.381,115.056 167.143,122.541 165.474 C 126.025 164.697,127.043 164.362,126.918 164.033 C 126.788 163.692,126.846 163.680,127.200 163.975 C 127.547 164.262,127.941 164.262,128.977 163.973 C 129.709 163.769,130.515 163.569,130.769 163.529 C 133.501 163.097,133.254 163.726,133.861 155.671 C 134.196 151.228,134.193 151.178,133.484 150.068 L 132.769 148.949 125.000 148.936 L 117.231 148.923 117.231 133.857 C 117.231 112.017,118.763 106.511,126.881 99.183 C 127.750 98.398,128.415 97.603,128.359 97.417 C 128.303 97.230,128.354 97.175,128.473 97.294 C 128.593 97.413,129.469 96.982,130.422 96.336 C 137.049 91.843,145.216 90.366,152.749 92.300 M236.615 328.462 L 236.615 356.923 245.462 356.947 C 250.327 356.961,256.454 356.964,259.077 356.955 C 261.700 356.946,272.950 356.935,284.077 356.931 L 304.308 356.923 304.308 328.462 L 304.308 300.000 270.462 300.000 L 236.615 300.000 236.615 328.462 M95.077 329.390 L 95.077 358.154 122.846 358.189 C 138.119 358.209,152.208 358.227,154.154 358.230 C 156.100 358.233,170.879 358.217,186.995 358.195 L 216.299 358.154 216.226 329.462 L 216.154 300.769 155.615 300.698 L 95.077 300.627 95.077 329.390 M87.077 313.635 C 87.077 313.688,87.527 314.138,88.077 314.635 L 89.077 315.538 88.173 314.538 C 87.331 313.606,87.077 313.397,87.077 313.635 M313.538 313.635 C 313.538 313.688,313.988 314.138,314.538 314.635 L 315.538 315.538 314.635 314.538 C 313.792 313.606,313.538 313.397,313.538 313.635 " stroke="none" fill="#fbfbfb" fill-rule="evenodd"></path><path id="path3" d="M154.906 23.278 C 154.727 23.343,135.412 23.428,111.983 23.467 L 69.385 23.538 69.307 200.077 L 69.230 376.615 102.231 376.616 C 120.381 376.616,165.138 376.616,201.692 376.617 C 238.246 376.618,282.311 376.618,299.614 376.617 L 331.074 376.615 331.070 200.385 C 331.067 103.458,330.964 24.002,330.840 23.816 C 330.548 23.376,339.853 23.409,212.357 23.393 C 181.161 23.390,155.545 23.335,155.434 23.273 C 155.322 23.211,155.085 23.213,154.906 23.278 M189.303 38.725 C 192.911 39.725,195.475 42.288,196.162 45.579 C 196.635 47.844,196.868 47.725,191.567 47.916 L 187.182 48.073 186.762 47.059 C 185.954 45.109,184.761 44.308,182.667 44.308 C 179.163 44.308,177.951 47.460,181.175 48.184 C 181.629 48.286,182.692 48.556,183.538 48.785 C 184.385 49.013,185.977 49.428,187.077 49.707 C 195.591 51.868,198.838 56.095,197.085 62.737 C 195.730 67.875,188.962 71.557,182.473 70.687 C 181.581 70.567,181.291 70.620,181.444 70.875 C 181.604 71.144,181.548 71.144,181.213 70.876 C 180.969 70.682,179.836 70.423,178.695 70.302 C 173.696 69.773,169.772 66.130,169.056 61.351 C 168.758 59.368,168.911 59.299,173.958 59.144 L 178.396 59.008 178.609 60.270 C 179.183 63.667,184.243 65.357,186.646 62.954 C 188.938 60.662,187.321 58.500,182.602 57.545 C 172.456 55.492,167.614 49.877,170.727 43.775 C 173.232 38.864,181.602 36.589,189.303 38.725 M125.439 38.785 C 131.851 39.646,134.869 44.125,133.204 50.308 C 132.592 52.578,129.687 55.692,128.180 55.692 C 127.383 55.692,127.617 56.285,128.888 57.486 C 130.345 58.862,131.695 60.978,133.829 65.231 C 134.721 67.008,135.574 68.593,135.725 68.754 C 136.898 70.002,136.221 70.171,130.402 70.084 L 124.805 70.000 123.636 67.846 C 122.993 66.662,121.971 64.723,121.364 63.538 C 118.964 58.851,118.186 57.913,116.468 57.634 C 115.288 57.442,115.022 57.905,115.110 60.000 C 115.135 60.592,115.138 63.119,115.116 65.615 L 115.077 70.154 110.159 70.154 L 105.242 70.154 105.159 54.436 C 105.114 45.791,105.135 38.660,105.205 38.590 C 105.484 38.311,123.182 38.482,125.439 38.785 M165.077 42.000 L 165.077 45.385 157.188 45.467 C 148.256 45.560,148.937 45.335,148.927 48.193 C 148.921 50.118,148.980 50.133,156.794 50.225 L 163.846 50.308 163.846 53.538 L 163.846 56.769 156.385 56.852 L 148.923 56.934 148.923 59.698 C 148.923 61.218,148.958 62.490,149.000 62.526 C 149.042 62.561,152.801 62.665,157.354 62.757 L 165.630 62.923 165.630 66.462 L 165.630 70.000 152.388 70.080 L 139.147 70.160 138.951 69.117 C 138.733 67.958,138.760 39.060,138.979 38.689 C 139.055 38.560,144.958 38.491,152.097 38.535 L 165.077 38.615 165.077 42.000 M212.002 48.385 C 212.003 53.895,212.137 58.789,212.304 59.390 C 213.159 62.466,216.657 63.922,219.597 62.426 C 222.154 61.125,222.162 61.082,222.240 49.033 L 222.308 38.615 227.319 38.615 L 232.330 38.615 232.340 49.331 C 232.354 63.620,231.659 65.799,226.050 69.057 C 221.907 71.464,210.918 71.021,206.967 68.288 C 205.520 67.288,203.752 64.867,203.002 62.859 C 202.402 61.253,201.600 39.893,202.095 38.692 C 202.147 38.565,204.397 38.462,207.095 38.462 L 212.000 38.462 212.002 48.385 M250.977 38.701 C 251.176 38.828,251.505 39.589,251.707 40.394 C 251.910 41.198,252.197 41.932,252.346 42.023 C 252.494 42.115,252.615 42.599,252.615 43.099 C 252.615 43.599,252.747 44.249,252.907 44.543 C 253.068 44.836,253.708 47.223,254.329 49.846 C 256.145 57.511,256.051 57.480,257.652 50.923 C 258.272 48.385,258.974 45.546,259.213 44.615 C 259.451 43.685,259.802 42.300,259.992 41.538 C 260.183 40.777,260.487 39.773,260.668 39.308 L 260.998 38.462 267.416 38.462 L 273.835 38.462 273.918 54.030 C 273.963 62.592,273.920 69.727,273.822 69.885 C 273.722 70.047,271.905 70.135,269.668 70.087 L 265.692 70.000 265.538 59.385 C 265.451 53.339,265.281 49.167,265.143 49.692 C 265.010 50.200,264.707 51.238,264.469 52.000 C 264.232 52.762,263.690 54.769,263.265 56.462 C 262.840 58.154,262.000 61.460,261.399 63.808 C 260.798 66.156,260.247 68.404,260.174 68.803 C 259.940 70.095,259.760 70.154,256.025 70.154 L 252.393 70.154 251.735 67.692 C 250.363 62.559,247.710 52.295,247.521 51.385 C 246.725 47.564,246.471 49.697,246.466 60.231 L 246.462 70.154 242.494 70.154 C 239.599 70.154,238.490 70.050,238.390 69.769 C 238.315 69.558,238.288 63.812,238.330 57.000 C 238.375 49.931,238.291 44.615,238.135 44.615 C 237.979 44.615,237.974 44.319,238.124 43.923 C 238.269 43.542,238.318 42.511,238.233 41.632 C 238.148 40.753,238.168 39.680,238.276 39.247 L 238.473 38.462 244.544 38.466 C 247.883 38.469,250.778 38.575,250.977 38.701 M305.846 41.801 C 306.046 45.939,306.780 45.584,298.096 45.550 C 289.015 45.513,289.582 45.359,289.596 47.867 C 289.602 48.952,289.730 49.764,289.881 49.671 C 290.031 49.578,290.154 49.649,290.154 49.828 C 290.154 50.048,292.485 50.154,297.333 50.154 C 301.282 50.154,304.571 50.211,304.641 50.281 C 304.712 50.351,304.726 51.871,304.673 53.660 L 304.576 56.912 297.134 56.995 L 289.692 57.077 289.604 59.568 C 289.482 63.002,288.939 62.806,298.272 62.703 C 304.608 62.632,306.178 62.695,306.305 63.025 C 306.590 63.770,306.467 69.806,306.163 69.994 C 305.851 70.187,279.982 70.238,279.790 70.047 C 279.713 69.969,279.615 40.986,279.685 38.689 C 279.689 38.560,285.542 38.491,292.692 38.535 L 305.692 38.615 305.846 41.801 M115.281 45.885 C 115.173 46.287,115.083 47.637,115.081 48.886 L 115.077 51.158 118.231 51.006 C 122.805 50.786,124.069 49.853,123.346 47.231 C 122.940 45.762,122.185 45.454,118.584 45.293 C 115.521 45.156,115.474 45.165,115.281 45.885 M246.462 48.597 C 246.462 48.946,246.600 49.231,246.769 49.231 C 246.938 49.231,247.077 49.031,247.077 48.787 C 247.077 48.544,246.938 48.258,246.769 48.154 C 246.600 48.049,246.462 48.249,246.462 48.597 M201.538 153.385 L 201.538 220.617 147.923 220.539 L 94.308 220.462 94.227 153.692 C 94.183 116.969,94.214 86.750,94.295 86.538 C 94.412 86.233,105.436 86.154,147.990 86.154 L 201.538 86.154 201.538 153.385 M311.162 91.371 C 311.369 92.161,311.173 92.308,309.911 92.308 C 309.107 92.308,308.913 92.210,309.116 91.909 C 309.264 91.689,309.177 91.724,308.923 91.985 C 308.510 92.412,303.508 92.453,261.154 92.384 L 213.846 92.306 213.846 91.536 L 213.846 90.766 262.427 90.771 C 310.159 90.777,311.010 90.787,311.162 91.371 M293.487 107.190 C 293.600 107.255,293.929 107.221,294.217 107.115 C 295.036 106.816,311.385 107.060,311.385 107.372 C 311.385 107.524,311.167 107.866,310.901 108.132 C 310.217 108.816,292.759 108.871,293.021 108.189 C 293.160 107.826,293.058 107.826,292.329 108.190 C 291.610 108.548,285.271 108.604,252.736 108.539 L 214.000 108.462 213.902 107.769 C 213.771 106.847,216.925 106.728,217.970 107.615 C 218.447 108.020,218.511 108.032,218.228 107.664 C 218.021 107.395,217.908 107.118,217.977 107.049 C 218.136 106.890,293.209 107.030,293.487 107.190 M311.161 123.674 C 311.247 124.003,311.240 124.349,311.146 124.444 C 311.052 124.538,289.121 124.615,262.410 124.615 L 213.846 124.615 213.846 123.846 L 213.846 123.077 262.426 123.077 C 310.264 123.077,311.008 123.086,311.161 123.674 M245.406 139.350 C 245.314 139.500,245.506 139.693,245.835 139.779 C 246.163 139.864,246.485 139.776,246.549 139.583 C 246.679 139.192,254.154 138.863,254.154 139.248 C 254.154 139.370,253.912 139.652,253.615 139.874 C 253.126 140.241,253.140 140.261,253.769 140.103 C 254.150 140.007,254.462 139.797,254.462 139.637 C 254.462 139.473,255.598 139.374,257.084 139.410 C 258.527 139.444,259.796 139.384,259.905 139.275 C 260.410 138.769,271.945 139.066,272.477 139.598 C 272.967 140.088,273.021 140.087,273.381 139.596 C 273.735 139.111,275.159 139.078,292.472 139.151 L 311.180 139.231 311.231 139.923 L 311.282 140.615 292.546 140.615 C 277.639 140.615,273.857 140.537,274.041 140.231 C 274.222 139.930,274.167 139.931,273.791 140.236 C 273.177 140.732,246.218 140.803,245.725 140.309 C 245.335 139.920,244.826 139.902,245.064 140.287 C 245.349 140.748,244.298 140.773,228.692 140.687 L 213.846 140.604 213.846 139.840 L 213.846 139.077 229.710 139.077 C 238.852 139.077,245.503 139.192,245.406 139.350 M133.188 149.752 C 133.580 150.500,134.154 150.961,134.154 150.527 C 134.154 150.374,133.857 149.985,133.494 149.663 C 132.838 149.081,132.836 149.082,133.188 149.752 M247.945 155.906 C 248.169 156.127,248.653 156.317,249.022 156.329 C 249.670 156.350,249.672 156.360,249.077 156.615 C 248.738 156.761,240.673 156.890,231.154 156.901 L 213.846 156.923 213.846 156.157 L 213.846 155.390 230.231 155.310 C 247.127 155.228,247.264 155.233,247.945 155.906 M258.438 155.524 C 258.576 155.609,259.261 155.622,259.960 155.553 C 260.659 155.483,261.231 155.555,261.231 155.713 C 261.231 155.871,260.573 156.021,259.769 156.046 L 258.308 156.092 259.692 156.291 C 260.981 156.475,260.893 156.506,258.433 156.738 C 252.747 157.275,249.331 156.772,249.240 155.385 C 249.227 155.185,258.108 155.320,258.438 155.524 M287.893 155.385 L 311.427 155.385 311.329 156.077 L 311.231 156.769 286.668 156.848 C 271.111 156.898,261.917 156.817,261.591 156.627 C 261.114 156.348,261.115 156.326,261.606 156.317 C 261.972 156.311,262.074 156.150,261.937 155.793 C 261.793 155.418,261.866 155.327,262.205 155.457 C 262.462 155.555,262.866 155.511,263.105 155.359 C 263.343 155.208,263.723 155.151,263.948 155.234 C 264.174 155.317,274.949 155.385,287.893 155.385 M131.720 163.361 C 131.482 163.512,131.066 163.559,130.797 163.465 C 130.452 163.344,130.399 163.394,130.620 163.636 C 130.847 163.885,131.263 163.860,132.158 163.541 C 132.842 163.297,133.113 163.100,132.769 163.095 C 132.431 163.090,131.959 163.210,131.720 163.361 M116.923 166.923 C 116.500 167.165,116.292 167.363,116.462 167.363 C 116.631 167.363,117.115 167.165,117.538 166.923 C 117.962 166.681,118.169 166.483,118.000 166.483 C 117.831 166.483,117.346 166.681,116.923 166.923 M176.026 167.478 C 176.096 167.529,176.569 167.814,177.077 168.111 L 178.000 168.652 177.274 168.018 C 176.874 167.670,176.401 167.385,176.222 167.385 C 176.044 167.385,175.955 167.427,176.026 167.478 M178.980 169.366 C 179.519 169.807,180.451 170.753,181.051 171.468 C 181.651 172.184,182.145 172.659,182.148 172.525 C 182.157 172.149,179.336 169.223,178.628 168.875 C 178.283 168.705,178.441 168.926,178.980 169.366 M311.145 171.555 C 311.240 171.650,311.247 171.997,311.161 172.326 C 311.008 172.914,310.264 172.923,262.426 172.923 L 213.846 172.923 213.846 172.157 L 213.846 171.390 262.409 171.387 C 289.119 171.384,311.050 171.460,311.145 171.555 M113.073 177.308 L 108.154 182.308 113.154 177.388 C 115.904 174.683,118.154 172.433,118.154 172.388 C 118.154 172.169,117.644 172.663,113.073 177.308 M182.403 173.385 C 182.559 173.723,182.763 174.208,182.857 174.462 C 183.005 174.860,183.032 174.858,183.053 174.443 C 183.066 174.180,182.862 173.695,182.598 173.367 C 182.128 172.779,182.124 172.779,182.403 173.385 M298.983 188.144 L 299.846 188.904 256.846 188.913 L 213.846 188.923 213.846 188.154 L 213.846 187.385 255.983 187.385 L 298.120 187.385 298.983 188.144 M311.077 188.145 L 311.077 188.923 306.231 188.959 C 300.159 189.003,300.301 189.020,299.414 188.152 L 298.674 187.429 304.875 187.398 L 311.077 187.367 311.077 188.145 M310.933 203.928 C 312.574 205.094,313.374 205.073,262.538 205.155 L 213.846 205.233 213.846 204.462 L 213.846 203.692 262.231 203.697 C 288.842 203.700,310.758 203.803,310.933 203.928 M220.901 220.385 L 221.688 221.077 221.104 220.385 L 220.520 219.692 257.698 219.692 L 294.877 219.692 294.154 220.462 L 293.431 221.231 253.639 221.231 L 213.846 221.231 213.846 220.462 L 213.846 219.692 216.980 219.692 C 219.792 219.692,220.195 219.763,220.901 220.385 M311.231 220.462 C 311.231 221.061,310.998 221.079,302.480 221.159 L 293.730 221.241 294.462 220.461 L 295.194 219.682 303.212 219.764 C 310.998 219.844,311.231 219.864,311.231 220.462 M132.462 240.656 C 136.567 241.194,139.504 242.359,141.484 244.231 C 141.707 244.442,142.079 244.615,142.311 244.615 C 143.929 244.615,149.754 253.164,149.596 255.308 C 149.568 255.688,149.662 256.000,149.805 256.000 C 150.928 256.000,150.106 265.483,148.713 268.600 C 148.293 269.539,147.897 270.563,147.833 270.876 C 147.769 271.188,147.115 272.158,146.380 273.030 C 145.645 273.902,144.747 275.041,144.385 275.561 C 143.707 276.537,140.056 278.857,137.432 279.981 C 135.204 280.935,127.299 281.838,126.895 281.185 C 126.806 281.041,126.413 280.923,126.022 280.923 C 122.790 280.923,113.231 274.877,113.231 272.832 C 113.231 272.650,112.968 272.215,112.648 271.866 C 112.327 271.517,111.693 270.262,111.240 269.077 C 110.786 267.892,110.252 266.508,110.054 266.000 C 109.542 264.694,109.584 257.434,110.112 255.692 C 110.609 254.055,112.286 250.066,112.571 249.846 C 112.680 249.762,113.272 249.069,113.886 248.308 C 117.023 244.421,119.916 242.468,124.367 241.235 C 125.567 240.902,126.614 240.566,126.693 240.487 C 126.944 240.235,129.920 240.322,132.462 240.656 M208.923 241.454 C 212.006 242.182,214.658 243.633,217.797 246.308 C 222.457 250.278,224.945 258.413,223.535 265.068 C 220.343 280.137,201.557 286.159,190.342 275.709 C 174.999 261.414,188.450 236.615,208.923 241.454 M289.330 241.938 C 303.213 247.034,307.194 264.383,296.908 274.967 C 287.421 284.728,270.595 282.038,264.681 269.814 C 262.448 265.199,261.824 260.027,263.243 257.883 C 263.974 256.779,264.090 255.354,263.524 254.438 C 263.174 253.873,263.777 253.240,264.494 253.420 C 265.245 253.609,265.388 253.328,265.249 251.938 C 265.163 251.072,266.182 249.782,266.820 249.948 C 267.305 250.075,267.385 249.904,267.385 248.731 C 267.385 247.801,267.532 247.309,267.846 247.188 C 268.100 247.091,268.308 246.809,268.308 246.562 C 268.308 246.260,268.500 246.173,268.894 246.298 C 269.328 246.436,269.956 246.018,271.316 244.682 C 275.044 241.024,283.379 239.754,289.330 241.938 M271.535 247.381 C 272.020 247.887,272.489 248.229,272.578 248.140 C 272.756 247.962,271.238 246.462,270.879 246.462 C 270.755 246.462,271.051 246.875,271.535 247.381 M271.077 248.154 C 271.474 248.577,272.018 248.912,272.284 248.899 C 272.701 248.878,272.704 248.849,272.308 248.696 C 272.054 248.598,271.665 248.263,271.444 247.951 C 271.223 247.640,270.887 247.385,270.698 247.385 C 270.509 247.385,270.679 247.731,271.077 248.154 M267.830 250.180 C 267.769 250.279,268.197 250.588,268.782 250.867 C 269.367 251.146,269.846 251.253,269.846 251.105 C 269.846 250.956,269.608 250.744,269.316 250.632 C 268.886 250.467,268.866 250.379,269.210 250.167 C 269.499 249.988,269.366 249.920,268.787 249.953 C 268.323 249.979,267.892 250.081,267.830 250.180 M265.987 253.868 C 266.000 254.875,266.203 254.990,266.769 254.308 C 267.084 253.929,267.060 253.846,266.635 253.846 C 266.350 253.846,266.197 253.717,266.295 253.560 C 266.392 253.402,266.360 253.204,266.223 253.120 C 266.086 253.035,265.980 253.372,265.987 253.868 M304.308 328.462 L 304.308 356.923 284.077 356.931 C 272.950 356.935,261.700 356.946,259.077 356.955 C 256.454 356.964,250.327 356.961,245.462 356.947 L 236.615 356.923 236.615 328.462 L 236.615 300.000 270.462 300.000 L 304.308 300.000 304.308 328.462 M216.226 329.462 L 216.299 358.154 186.995 358.195 C 170.879 358.217,156.100 358.233,154.154 358.230 C 152.208 358.227,138.119 358.209,122.846 358.189 L 95.077 358.154 95.077 329.390 L 95.077 300.627 155.615 300.698 L 216.154 300.769 216.226 329.462 M88.173 314.538 L 89.077 315.538 88.077 314.635 C 87.145 313.792,86.935 313.538,87.173 313.538 C 87.226 313.538,87.676 313.988,88.173 314.538 M314.635 314.538 L 315.538 315.538 314.538 314.635 C 313.988 314.138,313.538 313.688,313.538 313.635 C 313.538 313.397,313.792 313.606,314.635 314.538 " stroke="none" fill="#bdc4cc" fill-rule="evenodd"></path><path id="path4" d="M140.154 92.310 C 129.008 94.870,120.201 104.188,118.010 115.737 C 117.626 117.761,117.538 121.071,117.538 133.572 L 117.538 148.923 125.073 148.923 L 132.608 148.923 131.496 147.186 C 129.828 144.578,127.298 139.163,126.285 136.035 C 125.574 133.838,125.247 133.224,124.717 133.091 C 120.382 132.003,118.953 123.770,122.685 121.385 C 123.259 121.018,123.688 120.458,123.747 120.000 L 123.846 119.231 139.913 119.151 L 155.981 119.071 156.067 115.459 L 156.154 111.846 157.495 115.462 L 158.836 119.077 163.702 119.077 L 168.568 119.077 168.907 120.106 C 169.094 120.672,169.566 121.306,169.956 121.515 C 173.272 123.289,172.163 131.012,168.332 132.829 C 167.235 133.349,167.099 133.572,166.189 136.344 C 165.131 139.565,163.083 143.975,161.457 146.533 C 160.890 147.425,160.322 148.327,160.195 148.538 C 160.013 148.842,161.530 148.923,167.386 148.923 L 174.809 148.923 174.704 133.000 C 174.646 124.242,174.480 116.823,174.333 116.512 C 174.101 116.018,173.750 116.254,171.572 118.358 L 169.077 120.769 171.659 118.103 L 174.241 115.438 173.267 112.429 C 168.524 97.777,154.212 89.081,140.154 92.310 " stroke="none" fill="#2d241c" fill-rule="evenodd"></path><path id="path5" d="M213.846 91.537 L 213.846 92.308 261.130 92.308 C 305.715 92.308,308.449 92.277,309.047 91.769 C 309.651 91.256,309.662 91.256,309.265 91.769 C 308.886 92.259,308.945 92.308,309.911 92.308 C 311.173 92.308,311.369 92.161,311.162 91.371 C 311.010 90.787,310.159 90.777,262.427 90.771 L 213.846 90.766 213.846 91.537 M217.977 107.049 C 217.908 107.118,218.021 107.395,218.228 107.664 C 218.511 108.032,218.447 108.020,217.970 107.615 C 216.925 106.728,213.771 106.847,213.902 107.769 L 214.000 108.462 253.121 108.462 C 291.200 108.462,292.260 108.446,292.893 107.874 C 293.250 107.550,293.494 107.238,293.435 107.179 C 293.283 107.027,218.129 106.897,217.977 107.049 M294.383 107.040 C 293.853 107.202,292.923 108.040,292.923 108.355 C 292.923 108.498,296.859 108.615,301.670 108.615 C 310.634 108.615,311.385 108.519,311.385 107.372 C 311.385 107.109,295.190 106.793,294.383 107.040 M172.589 117.167 L 171.231 118.615 172.657 117.278 C 173.651 116.346,174.133 116.067,174.248 116.355 C 174.354 116.622,174.422 116.639,174.437 116.403 C 174.494 115.549,173.862 115.810,172.589 117.167 M117.373 134.154 C 117.373 142.362,117.413 145.719,117.461 141.615 C 117.510 137.512,117.510 130.796,117.461 126.692 C 117.413 122.588,117.373 125.946,117.373 134.154 M213.846 123.846 L 213.846 124.615 262.410 124.615 C 289.121 124.615,311.052 124.538,311.146 124.444 C 311.240 124.349,311.247 124.003,311.161 123.674 C 311.008 123.086,310.264 123.077,262.426 123.077 L 213.846 123.077 213.846 123.846 M213.846 139.846 L 213.846 140.615 229.615 140.611 C 239.910 140.608,245.224 140.502,244.923 140.308 C 244.669 140.144,244.620 140.007,244.813 140.005 C 245.007 140.002,245.245 139.792,245.342 139.538 C 245.498 139.132,243.633 139.077,229.683 139.077 L 213.846 139.077 213.846 139.846 M247.077 139.305 C 246.823 139.404,246.432 139.704,246.208 139.973 C 245.984 140.242,245.888 140.288,245.995 140.077 C 246.102 139.865,246.032 139.692,245.839 139.692 C 245.645 139.692,245.545 139.865,245.616 140.077 C 245.708 140.354,246.837 140.476,249.644 140.514 C 251.976 140.545,253.474 140.452,253.368 140.281 C 253.271 140.124,253.408 139.913,253.673 139.811 C 253.937 139.710,254.154 139.503,254.154 139.352 C 254.154 139.053,247.832 139.012,247.077 139.305 M259.846 139.385 C 259.742 139.554,259.941 139.692,260.290 139.692 C 260.638 139.692,260.888 139.865,260.846 140.077 C 260.747 140.574,272.858 140.804,273.347 140.314 C 273.752 139.909,274.558 139.903,274.308 140.308 C 274.182 140.512,280.390 140.615,292.700 140.615 L 311.282 140.615 311.231 139.923 L 311.180 139.231 292.359 139.151 C 279.183 139.096,273.538 139.171,273.538 139.400 C 273.538 139.581,273.402 139.644,273.234 139.541 C 273.053 139.429,273.009 139.577,273.126 139.907 C 273.283 140.352,273.189 140.325,272.649 139.769 C 271.909 139.008,260.295 138.659,259.846 139.385 M254.615 139.692 C 254.720 139.862,254.567 140.000,254.275 140.000 C 253.983 140.000,253.836 140.093,253.949 140.206 C 254.062 140.319,254.466 140.252,254.847 140.056 C 255.227 139.861,256.438 139.657,257.538 139.602 C 259.417 139.509,259.383 139.500,256.982 139.444 C 255.342 139.406,254.493 139.495,254.615 139.692 M230.231 155.310 L 213.846 155.390 213.846 156.157 L 213.846 156.923 231.154 156.901 C 240.673 156.890,248.738 156.761,249.077 156.615 C 249.672 156.360,249.670 156.350,249.022 156.329 C 248.653 156.317,248.169 156.127,247.945 155.906 C 247.264 155.233,247.127 155.228,230.231 155.310 M249.240 155.385 C 249.331 156.772,252.747 157.275,258.433 156.738 C 260.893 156.506,260.981 156.475,259.692 156.291 L 258.308 156.092 259.769 156.046 C 260.573 156.021,261.231 155.889,261.231 155.754 C 261.231 155.619,260.747 155.565,260.155 155.634 C 259.564 155.703,258.850 155.671,258.570 155.563 C 257.961 155.330,249.226 155.163,249.240 155.385 M263.105 155.359 C 262.866 155.511,262.462 155.555,262.205 155.457 C 261.866 155.327,261.793 155.418,261.937 155.793 C 262.074 156.150,261.972 156.311,261.606 156.317 C 261.115 156.326,261.114 156.348,261.591 156.627 C 261.917 156.817,271.111 156.898,286.668 156.848 L 311.231 156.769 311.329 156.077 L 311.427 155.385 287.893 155.385 C 274.949 155.385,264.174 155.317,263.948 155.234 C 263.723 155.151,263.343 155.208,263.105 155.359 M213.846 172.157 L 213.846 172.923 262.426 172.923 C 310.264 172.923,311.008 172.914,311.161 172.326 C 311.247 171.997,311.240 171.650,311.145 171.555 C 311.050 171.460,289.119 171.384,262.409 171.387 L 213.846 171.390 213.846 172.157 M213.846 188.154 L 213.846 188.923 256.846 188.913 L 299.846 188.904 298.983 188.144 L 298.120 187.385 255.983 187.385 L 213.846 187.385 213.846 188.154 M299.414 188.152 C 300.301 189.020,300.159 189.003,306.231 188.959 L 311.077 188.923 311.077 188.145 L 311.077 187.367 304.875 187.398 L 298.674 187.429 299.414 188.152 M213.846 204.462 L 213.846 205.233 262.538 205.155 C 313.374 205.073,312.574 205.094,310.933 203.928 C 310.758 203.803,288.842 203.700,262.231 203.697 L 213.846 203.692 213.846 204.462 M213.846 220.462 L 213.846 221.231 253.639 221.231 L 293.431 221.231 294.154 220.462 L 294.877 219.692 257.698 219.692 L 220.520 219.692 221.104 220.385 L 221.688 221.077 220.901 220.385 C 220.195 219.763,219.792 219.692,216.980 219.692 L 213.846 219.692 213.846 220.462 M294.462 220.461 L 293.730 221.241 302.480 221.159 C 310.998 221.079,311.231 221.061,311.231 220.462 C 311.231 219.864,310.998 219.844,303.212 219.764 L 295.194 219.682 294.462 220.461 M201.643 240.943 C 186.400 242.465,178.530 260.405,187.687 272.756 C 197.983 286.644,219.963 281.930,223.535 265.068 C 224.945 258.413,222.457 250.278,217.797 246.308 C 212.705 241.969,207.773 240.331,201.643 240.943 " stroke="none" fill="#8d74b3" fill-rule="evenodd"></path><path id="path6" d="M178.000 38.477 C 177.586 38.666,177.887 38.696,178.923 38.570 C 179.769 38.467,180.519 38.331,180.590 38.268 C 180.860 38.027,178.585 38.211,178.000 38.477 M186.231 38.366 C 186.527 38.443,187.012 38.443,187.308 38.366 C 187.604 38.289,187.362 38.225,186.769 38.225 C 186.177 38.225,185.935 38.289,186.231 38.366 M105.124 38.692 C 105.045 38.819,107.772 38.888,111.183 38.844 C 122.981 38.695,124.115 38.593,114.710 38.527 C 109.517 38.491,105.203 38.565,105.124 38.692 M138.902 38.866 C 138.816 39.092,138.791 40.582,138.847 42.177 L 138.949 45.077 139.013 41.923 L 139.077 38.769 142.846 38.803 C 148.522 38.853,150.330 39.098,150.210 39.800 C 150.118 40.339,150.149 40.337,150.764 39.763 C 151.636 38.951,153.248 38.769,159.581 38.769 L 164.923 38.769 164.923 41.995 L 164.923 45.221 156.846 45.303 L 148.769 45.385 148.769 47.846 L 148.769 50.308 156.231 50.390 L 163.692 50.472 163.692 53.538 L 163.692 56.604 156.231 56.687 L 148.769 56.769 148.680 59.667 C 148.567 63.341,147.860 63.067,157.439 63.072 C 164.842 63.077,165.506 63.120,165.652 63.615 C 165.776 64.034,165.797 64.017,165.748 63.538 C 165.687 62.944,165.397 62.917,157.381 62.757 C 152.814 62.665,149.042 62.561,149.000 62.526 C 148.958 62.490,148.923 61.218,148.923 59.698 L 148.923 56.934 156.385 56.852 L 163.846 56.769 163.846 53.538 L 163.846 50.308 156.794 50.225 C 148.980 50.133,148.921 50.118,148.927 48.193 C 148.937 45.335,148.256 45.560,157.188 45.467 L 165.077 45.385 165.077 42.000 L 165.077 38.615 152.069 38.535 C 141.444 38.470,139.031 38.530,138.902 38.866 M201.987 38.790 C 201.876 38.970,201.875 39.208,201.986 39.319 C 202.097 39.430,202.296 39.344,202.429 39.129 C 202.612 38.833,203.810 38.760,207.336 38.830 C 209.902 38.881,212.001 38.819,212.000 38.692 C 212.000 38.318,202.220 38.413,201.987 38.790 M222.359 38.667 C 222.246 38.779,222.184 42.899,222.221 47.821 L 222.289 56.769 222.464 47.846 C 222.560 42.938,222.668 38.888,222.704 38.846 C 222.972 38.529,231.968 38.824,232.086 39.154 C 232.162 39.365,232.325 39.444,232.450 39.328 C 232.575 39.212,232.586 38.970,232.474 38.790 C 232.251 38.428,222.713 38.312,222.359 38.667 M238.341 38.948 C 238.238 39.216,238.177 40.151,238.206 41.025 L 238.257 42.615 238.436 40.769 L 238.615 38.923 243.385 38.830 C 248.137 38.738,250.895 38.927,250.655 39.327 C 250.585 39.444,250.872 40.023,251.292 40.615 C 252.062 41.700,252.072 41.652,251.497 39.615 C 251.186 38.513,250.933 38.471,244.571 38.466 C 239.341 38.462,238.502 38.527,238.341 38.948 M267.154 38.692 L 273.538 38.782 273.538 54.314 L 273.538 69.846 269.692 69.846 L 265.846 69.846 265.837 58.231 C 265.828 47.630,265.664 45.436,265.116 48.615 C 265.014 49.208,265.033 49.485,265.157 49.231 C 265.282 48.977,265.454 53.546,265.538 59.385 L 265.692 70.000 269.668 70.087 C 271.905 70.135,273.722 70.047,273.822 69.885 C 273.920 69.727,273.963 62.592,273.918 54.030 L 273.835 38.462 267.302 38.532 L 260.769 38.602 267.154 38.692 M279.634 38.692 C 279.581 38.819,279.613 41.831,279.705 45.385 L 279.871 51.846 279.935 45.311 L 280.000 38.776 292.846 38.692 L 305.692 38.608 292.710 38.535 C 285.570 38.495,279.686 38.565,279.634 38.692 M190.881 39.498 C 192.901 40.519,194.389 41.995,195.265 43.846 C 195.726 44.819,195.995 45.147,195.997 44.738 C 196.005 43.081,192.441 39.547,190.154 38.944 C 189.731 38.833,190.058 39.082,190.881 39.498 M260.182 40.717 C 259.913 41.644,259.705 42.658,259.720 42.970 C 259.735 43.283,260.005 42.573,260.319 41.394 C 260.997 38.844,260.886 38.295,260.182 40.717 M305.597 42.077 L 305.538 45.231 297.538 45.231 C 293.138 45.231,289.538 45.335,289.538 45.462 C 289.538 45.894,305.641 45.596,305.830 45.160 C 305.924 44.945,305.923 43.454,305.828 41.846 L 305.656 38.923 305.597 42.077 M173.615 40.338 C 172.428 41.179,171.762 41.904,172.692 41.343 C 173.724 40.720,175.445 39.386,175.200 39.398 C 175.048 39.406,174.335 39.829,173.615 40.338 M211.828 48.000 C 211.828 52.823,211.870 54.796,211.922 52.385 C 211.974 49.973,211.974 46.027,211.922 43.615 C 211.870 41.204,211.828 43.177,211.828 48.000 M130.615 41.101 C 131.462 41.934,132.319 42.892,132.520 43.231 C 132.722 43.569,132.895 43.700,132.905 43.522 C 132.938 42.923,131.139 40.774,130.103 40.178 C 129.203 39.659,129.266 39.773,130.615 41.101 M171.811 42.082 C 171.318 42.406,170.151 44.798,170.167 45.449 C 170.175 45.752,170.360 45.499,170.578 44.888 C 170.797 44.276,171.285 43.341,171.663 42.811 C 172.372 41.814,172.396 41.696,171.811 42.082 M252.185 42.667 C 252.468 43.845,252.615 43.957,252.615 42.993 C 252.615 42.551,252.471 42.101,252.295 41.992 C 252.085 41.863,252.047 42.095,252.185 42.667 M238.111 43.855 C 237.901 44.619,238.618 45.452,238.886 44.756 C 238.980 44.509,238.934 44.308,238.782 44.308 C 238.631 44.308,238.456 44.065,238.395 43.769 C 238.298 43.303,238.260 43.314,238.111 43.855 M181.775 44.223 C 182.328 44.291,183.159 44.290,183.621 44.220 C 184.083 44.150,183.631 44.094,182.615 44.095 C 181.600 44.097,181.222 44.155,181.775 44.223 M179.556 44.992 C 178.644 46.294,179.807 49.219,180.830 48.196 C 180.938 48.088,180.874 48.000,180.689 48.000 C 179.435 48.000,179.031 46.108,180.054 45.020 C 180.422 44.628,180.568 44.308,180.379 44.308 C 180.190 44.308,179.819 44.615,179.556 44.992 M185.261 45.000 C 185.700 45.381,186.283 46.108,186.556 46.615 C 186.881 47.220,187.057 47.356,187.065 47.011 C 187.079 46.400,185.337 44.308,184.814 44.308 C 184.620 44.308,184.821 44.620,185.261 45.000 M252.721 44.769 C 252.818 45.108,253.128 46.324,253.411 47.473 C 253.695 48.621,253.981 49.507,254.047 49.440 C 254.236 49.251,253.151 44.805,252.832 44.462 C 252.652 44.268,252.611 44.381,252.721 44.769 M258.923 45.538 C 258.806 46.070,258.780 46.575,258.865 46.659 C 258.949 46.744,259.114 46.378,259.231 45.846 C 259.348 45.314,259.374 44.810,259.289 44.725 C 259.205 44.641,259.040 45.007,258.923 45.538 M115.000 45.103 C 114.873 45.230,114.793 46.314,114.821 47.513 C 114.850 48.720,114.919 49.143,114.977 48.462 C 115.034 47.785,115.159 46.763,115.254 46.191 L 115.427 45.152 118.560 45.292 C 122.136 45.452,122.941 45.765,123.364 47.161 C 123.664 48.150,123.665 48.151,123.602 47.261 C 123.486 45.632,122.286 45.092,118.517 44.975 C 116.709 44.919,115.126 44.976,115.000 45.103 M138.996 46.599 C 138.762 47.968,138.791 48.086,139.239 47.584 C 139.412 47.390,139.476 46.815,139.379 46.308 C 139.205 45.392,139.202 45.395,138.996 46.599 M238.512 46.962 C 238.484 47.660,238.391 48.698,238.305 49.269 C 238.218 49.840,238.239 50.100,238.351 49.846 C 238.462 49.592,238.637 49.315,238.738 49.231 C 238.840 49.146,238.842 48.315,238.742 47.385 C 238.579 45.851,238.557 45.811,238.512 46.962 M246.174 47.347 C 245.989 47.692,245.856 48.085,245.878 48.218 C 246.009 49.001,245.797 49.260,245.154 49.100 C 244.773 49.006,244.620 49.003,244.813 49.095 C 245.007 49.186,245.095 49.531,245.008 49.861 C 244.922 50.192,245.006 50.462,245.195 50.462 C 245.384 50.462,245.538 50.249,245.538 49.989 C 245.538 49.612,245.663 49.583,246.154 49.846 C 246.621 50.096,246.770 50.080,246.774 49.780 C 246.777 49.502,246.867 49.522,247.077 49.846 C 247.332 50.241,247.376 50.229,247.380 49.769 C 247.382 49.473,247.177 49.231,246.923 49.231 C 246.658 49.231,246.462 48.953,246.462 48.578 C 246.462 48.057,246.548 47.996,246.887 48.278 C 247.457 48.750,247.829 47.849,247.362 47.127 C 247.075 46.684,247.054 46.698,247.208 47.231 C 247.378 47.819,247.367 47.821,246.948 47.282 C 246.527 46.739,246.498 46.742,246.174 47.347 M195.385 47.385 C 194.792 47.509,194.515 47.646,194.769 47.688 C 195.462 47.804,196.119 47.675,196.446 47.359 C 196.607 47.204,196.676 47.095,196.600 47.117 C 196.524 47.140,195.977 47.260,195.385 47.385 M190.385 47.915 C 190.935 47.983,191.835 47.983,192.385 47.915 C 192.935 47.847,192.485 47.791,191.385 47.791 C 190.285 47.791,189.835 47.847,190.385 47.915 M181.692 48.595 C 182.031 48.732,182.792 48.929,183.385 49.034 L 184.462 49.225 183.385 48.790 C 182.792 48.550,182.031 48.353,181.692 48.351 L 181.077 48.347 181.692 48.595 M138.907 58.769 C 138.907 64.438,138.949 66.758,138.999 63.923 C 139.050 61.088,139.050 56.450,138.999 53.615 C 138.949 50.781,138.907 53.100,138.907 58.769 M170.185 49.231 C 170.096 51.563,175.581 56.383,178.224 56.295 C 178.439 56.288,177.830 55.955,176.869 55.556 C 173.435 54.129,171.478 52.317,170.534 49.692 C 170.352 49.185,170.195 48.977,170.185 49.231 M187.538 50.128 C 189.062 50.602,190.585 51.092,190.923 51.216 C 191.421 51.399,191.450 51.378,191.077 51.103 C 190.531 50.702,185.858 49.223,185.215 49.248 C 184.970 49.258,186.015 49.654,187.538 50.128 M289.763 49.724 C 289.145 50.342,290.117 50.448,297.202 50.528 C 301.416 50.576,304.801 50.512,304.722 50.385 C 304.643 50.258,301.345 50.154,297.392 50.154 C 292.592 50.154,290.169 50.045,290.096 49.827 C 290.036 49.647,289.886 49.601,289.763 49.724 M254.206 50.308 C 254.201 50.646,254.316 51.200,254.462 51.538 C 254.798 52.323,254.798 51.514,254.462 50.462 C 254.263 49.843,254.213 49.813,254.206 50.308 M264.538 50.615 C 264.420 51.123,264.242 51.885,264.144 52.308 C 264.025 52.822,264.129 52.723,264.457 52.011 C 264.728 51.425,264.905 50.663,264.851 50.319 C 264.776 49.832,264.706 49.898,264.538 50.615 M114.973 51.154 C 115.147 51.440,120.264 51.420,120.997 51.129 C 121.291 51.013,120.024 50.919,118.182 50.920 C 116.340 50.922,114.895 51.027,114.973 51.154 M131.838 52.429 C 131.325 53.124,130.236 54.142,129.418 54.692 C 128.600 55.242,128.097 55.692,128.300 55.692 C 128.968 55.692,131.347 53.780,132.188 52.566 C 133.303 50.957,133.008 50.842,131.838 52.429 M238.249 52.769 C 238.251 53.785,238.308 54.163,238.377 53.610 C 238.445 53.057,238.444 52.226,238.374 51.764 C 238.303 51.301,238.247 51.754,238.249 52.769 M192.910 52.247 C 195.877 54.295,196.952 56.074,197.194 59.340 C 197.352 61.470,197.384 61.562,197.532 60.308 C 197.917 57.049,194.684 51.584,192.445 51.708 C 192.285 51.717,192.494 51.960,192.910 52.247 M247.808 52.751 C 247.990 53.333,248.190 53.758,248.253 53.696 C 248.449 53.500,247.963 51.692,247.714 51.692 C 247.583 51.692,247.626 52.169,247.808 52.751 M279.687 52.846 C 279.640 59.924,279.698 69.955,279.786 70.042 C 279.976 70.232,305.864 70.179,306.173 69.988 C 306.470 69.804,306.584 63.756,306.305 63.025 C 306.178 62.696,304.630 62.633,298.400 62.703 C 294.139 62.751,290.470 62.720,290.246 62.634 C 290.023 62.549,289.786 62.509,289.721 62.547 C 289.656 62.585,289.277 62.341,288.878 62.007 C 288.480 61.672,288.631 61.914,289.214 62.545 C 290.249 63.665,290.690 64.003,290.308 63.385 C 290.183 63.182,292.869 63.077,298.136 63.077 L 306.154 63.077 306.154 66.455 L 306.154 69.834 293.077 69.839 L 280.000 69.844 279.967 61.768 C 279.949 57.327,279.960 53.312,279.991 52.846 C 280.021 52.381,279.967 52.000,279.869 52.000 C 279.772 52.000,279.690 52.381,279.687 52.846 M255.100 54.022 C 255.041 54.864,256.090 57.276,256.343 56.877 C 256.716 56.287,256.677 55.679,256.271 55.769 C 256.081 55.812,255.746 55.362,255.525 54.769 C 255.304 54.177,255.113 53.841,255.100 54.022 M126.646 55.965 C 126.131 56.167,126.176 56.242,127.019 56.591 C 128.384 57.157,130.559 59.601,131.688 61.838 C 132.220 62.892,132.734 63.676,132.830 63.580 C 133.139 63.271,130.388 58.969,129.018 57.618 C 128.289 56.899,127.692 56.172,127.692 56.002 C 127.692 55.648,127.473 55.640,126.646 55.965 M180.000 56.898 C 180.254 57.043,181.085 57.243,181.846 57.342 L 183.231 57.523 181.692 57.075 C 179.966 56.572,179.310 56.504,180.000 56.898 M202.249 58.308 C 202.251 59.323,202.308 59.701,202.377 59.148 C 202.445 58.595,202.444 57.765,202.374 57.302 C 202.303 56.840,202.247 57.292,202.249 58.308 M248.975 56.923 C 248.991 57.723,249.475 59.036,249.486 58.308 C 249.491 57.969,249.376 57.415,249.231 57.077 C 249.069 56.700,248.970 56.640,248.975 56.923 M289.538 56.846 C 289.538 56.973,291.788 57.041,294.538 56.998 C 303.902 56.849,304.782 56.742,297.154 56.679 C 292.965 56.644,289.538 56.719,289.538 56.846 M222.209 58.154 C 222.128 60.158,221.315 61.534,219.721 62.368 C 218.975 62.758,218.574 63.077,218.829 63.077 C 220.606 63.077,222.552 60.431,222.381 58.249 L 222.265 56.769 222.209 58.154 M114.974 57.436 C 114.862 57.549,114.769 57.990,114.769 58.416 C 114.769 58.842,114.458 59.545,114.077 59.978 L 113.385 60.765 114.077 60.181 C 114.468 59.851,114.769 59.751,114.769 59.952 C 114.769 60.148,114.925 60.308,115.115 60.308 C 115.346 60.308,115.361 60.181,115.160 59.923 C 114.419 58.973,115.330 57.449,116.524 57.643 C 117.639 57.824,119.692 59.651,119.692 60.463 C 119.692 60.674,119.920 61.037,120.198 61.267 C 121.248 62.139,119.432 59.182,118.315 58.202 C 117.260 57.275,115.531 56.879,114.974 57.436 M231.746 57.936 C 231.498 58.234,231.553 58.343,231.964 58.374 C 232.266 58.397,232.513 58.218,232.513 57.977 C 232.513 57.431,232.179 57.413,231.746 57.936 M185.741 58.528 C 189.045 60.189,187.928 63.630,183.949 64.049 L 182.000 64.254 184.118 64.187 C 187.249 64.087,188.732 62.251,187.632 59.836 C 187.307 59.123,185.362 57.814,184.705 57.865 C 184.571 57.876,185.037 58.174,185.741 58.528 M212.026 59.169 C 211.952 60.726,213.846 62.734,215.571 62.928 L 216.769 63.063 215.464 62.745 C 214.064 62.403,212.795 61.089,212.313 59.482 C 212.158 58.964,212.042 58.838,212.026 59.169 M231.801 60.462 C 231.610 61.477,231.498 62.356,231.552 62.416 C 231.747 62.627,232.343 59.941,232.247 59.284 C 232.194 58.916,231.993 59.446,231.801 60.462 M169.615 59.411 C 169.074 59.615,168.934 59.893,168.972 60.682 L 169.022 61.692 169.146 60.692 C 169.306 59.403,169.694 59.432,171.217 60.846 L 172.461 62.000 171.384 60.829 C 170.792 60.185,170.354 59.585,170.410 59.496 C 170.607 59.183,170.302 59.151,169.615 59.411 M172.852 59.300 C 173.405 59.368,174.235 59.367,174.698 59.297 C 175.160 59.227,174.708 59.171,173.692 59.172 C 172.677 59.174,172.299 59.231,172.852 59.300 M229.673 60.077 L 228.769 61.077 229.769 60.173 C 230.319 59.676,230.769 59.226,230.769 59.173 C 230.769 58.935,230.515 59.145,229.673 60.077 M249.871 60.308 C 249.863 60.562,250.052 61.392,250.292 62.154 C 250.532 62.915,250.735 63.331,250.744 63.077 C 250.753 62.823,250.564 61.992,250.324 61.231 C 250.084 60.469,249.880 60.054,249.871 60.308 M114.769 65.205 L 114.769 69.831 109.923 69.924 L 105.077 70.017 110.062 70.085 L 115.046 70.154 115.138 65.508 C 115.189 62.953,115.127 60.799,115.000 60.721 C 114.873 60.643,114.769 62.661,114.769 65.205 M178.769 61.754 C 178.769 62.179,180.823 64.000,181.303 64.000 C 181.517 64.000,181.544 63.907,181.369 63.768 C 181.208 63.641,180.558 63.060,179.923 62.477 C 179.288 61.895,178.769 61.569,178.769 61.754 M120.620 61.932 C 120.612 62.346,122.432 65.792,122.769 66.000 C 122.946 66.109,122.674 65.392,122.165 64.407 C 121.107 62.356,120.627 61.588,120.620 61.932 M246.225 63.077 C 246.225 63.669,246.289 63.912,246.366 63.615 C 246.443 63.319,246.443 62.835,246.366 62.538 C 246.289 62.242,246.225 62.485,246.225 63.077 M203.250 63.385 C 203.974 66.226,207.839 69.488,211.096 70.007 C 211.766 70.114,211.511 69.960,210.401 69.588 C 207.405 68.583,205.302 66.723,203.559 63.538 C 203.117 62.730,203.079 62.711,203.250 63.385 M230.617 63.996 C 230.294 64.713,229.261 66.067,228.322 67.004 C 227.360 67.965,227.018 68.433,227.538 68.077 C 229.160 66.967,231.558 63.751,231.313 63.016 C 231.254 62.838,230.941 63.279,230.617 63.996 M196.165 64.356 C 195.275 66.195,192.397 68.668,190.413 69.297 C 187.900 70.094,187.753 70.171,189.025 70.018 C 192.057 69.654,197.461 65.077,196.865 63.378 C 196.812 63.228,196.497 63.668,196.165 64.356 M132.977 64.231 C 133.035 64.358,133.670 65.601,134.387 66.993 C 135.105 68.386,135.692 69.597,135.692 69.685 C 135.692 70.160,125.414 69.829,124.870 69.337 C 124.255 68.780,124.079 69.187,124.677 69.785 C 125.215 70.323,136.001 70.308,135.998 69.769 C 135.996 69.310,133.268 64.000,133.034 64.000 C 132.945 64.000,132.919 64.104,132.977 64.231 M238.261 66.462 C 238.261 67.900,238.314 68.488,238.379 67.769 C 238.444 67.050,238.444 65.873,238.379 65.154 C 238.314 64.435,238.261 65.023,238.261 66.462 M170.462 65.001 C 170.462 66.591,175.357 70.211,177.385 70.120 C 177.723 70.105,177.435 69.914,176.743 69.696 C 174.314 68.929,172.262 67.453,170.975 65.547 C 170.693 65.128,170.462 64.883,170.462 65.001 M251.120 65.385 C 251.120 65.723,251.239 66.277,251.385 66.615 L 251.649 67.231 251.649 66.615 C 251.649 66.277,251.530 65.723,251.385 65.385 L 251.120 64.769 251.120 65.385 M260.484 66.330 C 260.370 66.781,260.337 67.209,260.410 67.281 C 260.482 67.354,260.634 67.044,260.747 66.593 C 260.860 66.142,260.894 65.714,260.821 65.642 C 260.749 65.569,260.597 65.879,260.484 66.330 M225.077 69.231 C 224.400 69.544,224.026 69.811,224.246 69.823 C 224.684 69.848,226.462 68.996,226.462 68.761 C 226.462 68.580,226.544 68.552,225.077 69.231 M165.434 69.368 C 165.276 69.780,163.578 69.850,152.088 69.923 L 138.923 70.007 152.240 70.080 C 165.736 70.155,166.792 70.074,165.768 69.050 C 165.684 68.966,165.533 69.109,165.434 69.368 M220.030 69.660 C 219.624 70.093,219.466 70.476,219.648 70.588 C 219.818 70.693,220.044 70.639,220.151 70.467 C 220.257 70.295,220.245 70.154,220.124 70.154 C 220.003 70.154,220.155 69.877,220.462 69.538 C 221.254 68.663,220.864 68.773,220.030 69.660 M259.574 69.403 C 259.419 69.808,258.832 69.868,255.848 69.788 C 253.900 69.735,252.307 69.796,252.307 69.923 C 252.309 70.536,259.663 70.168,260.000 69.538 C 260.186 69.191,260.205 68.923,260.044 68.923 C 259.887 68.923,259.675 69.139,259.574 69.403 M179.538 70.175 C 178.691 70.371,178.723 70.392,179.923 70.425 C 181.227 70.461,181.575 70.335,180.846 70.090 C 180.635 70.019,180.046 70.057,179.538 70.175 M240.385 70.074 C 241.527 70.134,243.396 70.134,244.538 70.074 C 245.681 70.015,244.746 69.967,242.462 69.967 C 240.177 69.967,239.242 70.015,240.385 70.074 M213.462 70.371 C 213.842 70.444,214.465 70.444,214.846 70.371 C 215.227 70.298,214.915 70.238,214.154 70.238 C 213.392 70.238,213.081 70.298,213.462 70.371 M182.692 70.684 C 183.242 70.752,184.142 70.752,184.692 70.684 C 185.242 70.616,184.792 70.560,183.692 70.560 C 182.592 70.560,182.142 70.616,182.692 70.684 M217.154 70.679 C 217.535 70.752,218.158 70.752,218.538 70.679 C 218.919 70.605,218.608 70.545,217.846 70.545 C 217.085 70.545,216.773 70.605,217.154 70.679 M145.620 91.605 C 146.087 91.676,146.780 91.674,147.158 91.601 C 147.537 91.528,147.154 91.470,146.308 91.473 C 145.462 91.475,145.152 91.535,145.620 91.605 M126.288 99.769 L 125.385 100.769 126.385 99.866 C 127.317 99.023,127.526 98.769,127.288 98.769 C 127.235 98.769,126.785 99.219,126.288 99.769 M156.000 116.000 L 156.000 119.077 140.000 119.077 L 124.000 119.077 124.000 119.970 C 124.000 120.686,123.777 120.978,122.874 121.447 C 119.064 123.424,120.500 132.033,124.821 133.118 C 125.388 133.260,125.659 133.725,126.161 135.408 C 127.561 140.110,130.508 145.966,133.014 149.024 L 134.231 150.510 134.004 153.793 C 133.879 155.599,133.741 157.769,133.697 158.615 C 133.653 159.462,133.530 160.846,133.423 161.692 C 133.201 163.455,133.528 164.010,135.553 165.308 C 136.222 165.737,137.075 166.379,137.449 166.736 C 137.822 167.093,138.376 167.390,138.679 167.396 C 138.983 167.402,139.577 167.604,140.000 167.846 C 140.423 168.088,141.142 168.291,141.597 168.297 C 142.053 168.303,142.511 168.446,142.615 168.615 C 142.872 169.030,148.758 169.006,150.308 168.584 C 152.728 167.925,155.482 166.591,157.230 165.231 C 160.336 162.814,160.299 162.924,159.820 157.538 C 159.115 149.625,159.094 149.884,160.622 147.648 C 162.492 144.910,164.667 140.427,166.001 136.564 C 166.970 133.757,167.258 133.230,167.992 132.926 C 171.821 131.340,173.235 124.458,170.268 121.852 C 169.686 121.341,169.076 120.923,168.912 120.923 C 168.749 120.923,168.615 120.508,168.615 120.000 L 168.615 119.077 163.538 119.077 C 159.395 119.077,158.462 118.998,158.462 118.647 C 158.462 117.912,156.548 112.923,156.267 112.923 C 156.120 112.923,156.000 114.308,156.000 116.000 M254.641 140.041 C 254.797 140.294,254.664 140.352,254.202 140.231 C 253.837 140.136,253.538 140.183,253.538 140.336 C 253.538 140.490,255.177 140.615,257.179 140.615 C 260.211 140.615,260.821 140.538,260.821 140.154 C 260.821 139.578,258.895 139.509,258.665 140.077 C 258.541 140.385,258.505 140.385,258.486 140.077 C 258.471 139.839,258.002 139.692,257.256 139.692 C 256.581 139.692,255.983 139.861,255.895 140.077 C 255.794 140.326,255.650 140.353,255.485 140.154 C 255.112 139.702,254.370 139.603,254.641 140.041 M135.474 153.231 C 135.252 154.078,135.077 154.002,135.077 153.059 C 135.077 152.626,135.202 152.349,135.356 152.444 C 135.509 152.538,135.562 152.893,135.474 153.231 M135.775 156.923 C 136.065 157.262,136.186 157.538,136.045 157.538 C 135.903 157.538,135.537 157.262,135.231 156.923 C 134.924 156.585,134.803 156.308,134.961 156.308 C 135.119 156.308,135.485 156.585,135.775 156.923 M136.020 163.395 C 136.783 163.804,136.833 164.678,136.077 164.392 C 135.350 164.117,134.755 163.502,134.989 163.267 C 135.243 163.013,135.325 163.024,136.020 163.395 M157.468 163.750 C 157.278 164.321,156.615 164.415,156.615 163.872 C 156.615 163.604,156.835 163.385,157.103 163.385 C 157.371 163.385,157.535 163.549,157.468 163.750 M155.231 165.231 C 155.231 165.485,154.919 165.737,154.538 165.791 C 154.006 165.866,153.846 165.737,153.846 165.231 C 153.846 164.724,154.006 164.595,154.538 164.671 C 154.919 164.725,155.231 164.977,155.231 165.231 M126.693 240.487 C 126.614 240.566,125.567 240.902,124.367 241.235 C 119.916 242.468,117.023 244.421,113.886 248.308 C 113.272 249.069,112.680 249.762,112.571 249.846 C 112.286 250.066,110.609 254.055,110.112 255.692 C 109.584 257.434,109.542 264.694,110.054 266.000 C 110.252 266.508,110.786 267.892,111.240 269.077 C 111.693 270.262,112.327 271.517,112.648 271.866 C 112.968 272.215,113.231 272.650,113.231 272.832 C 113.231 274.877,122.790 280.923,126.022 280.923 C 126.413 280.923,126.806 281.041,126.895 281.185 C 127.299 281.838,135.204 280.935,137.432 279.981 C 140.056 278.857,143.707 276.537,144.385 275.561 C 144.747 275.041,145.645 273.902,146.380 273.030 C 147.115 272.158,147.769 271.188,147.833 270.876 C 147.897 270.563,148.293 269.539,148.713 268.600 C 150.106 265.483,150.928 256.000,149.805 256.000 C 149.662 256.000,149.568 255.688,149.596 255.308 C 149.754 253.164,143.929 244.615,142.311 244.615 C 142.079 244.615,141.707 244.442,141.484 244.231 C 138.819 241.711,128.166 239.014,126.693 240.487 M136.242 242.016 C 137.602 242.444,138.882 242.996,139.087 243.243 C 139.292 243.490,139.636 243.692,139.851 243.692 C 140.670 243.692,140.624 244.674,139.774 245.339 C 137.956 246.759,134.459 250.516,134.656 250.836 C 134.787 251.047,134.721 251.083,134.478 250.933 C 133.320 250.218,129.521 255.944,130.428 257.037 C 131.389 258.195,131.801 261.552,131.040 262.023 C 130.508 262.352,130.721 264.084,131.268 263.875 C 131.641 263.731,131.729 263.826,131.618 264.250 C 131.427 264.982,132.146 265.983,132.642 265.676 C 132.888 265.524,132.939 265.572,132.789 265.814 C 132.642 266.051,134.055 267.663,136.702 270.280 C 140.781 274.313,142.244 275.299,142.812 274.402 C 143.007 274.095,143.069 274.091,143.072 274.385 C 143.079 274.957,143.437 274.856,144.432 274.000 C 144.924 273.577,145.400 273.231,145.490 273.231 C 145.667 273.231,143.967 275.166,143.659 275.316 C 143.556 275.366,142.956 275.865,142.326 276.426 C 135.266 282.707,121.967 281.762,115.564 274.525 C 101.836 259.005,116.578 235.827,136.242 242.016 M142.658 245.692 C 142.755 245.946,142.993 246.154,143.187 246.154 C 143.808 246.154,147.499 251.101,147.813 252.355 C 147.913 252.752,147.917 252.912,147.823 252.710 C 147.729 252.508,147.454 252.419,147.211 252.512 C 146.968 252.605,146.769 252.512,146.769 252.305 C 146.769 252.070,146.483 251.983,146.009 252.074 C 145.591 252.153,145.313 252.116,145.390 251.991 C 145.582 251.680,144.177 251.436,143.234 251.616 C 142.813 251.697,142.537 251.872,142.619 252.006 C 142.702 252.141,142.458 252.170,142.077 252.072 C 141.439 251.907,141.421 251.938,141.844 252.453 C 142.267 252.969,142.250 252.995,141.613 252.793 C 141.192 252.659,140.923 252.702,140.923 252.902 C 140.923 253.083,140.707 253.231,140.443 253.231 C 140.180 253.231,140.049 253.369,140.154 253.538 C 140.258 253.708,140.223 253.846,140.075 253.846 C 138.903 253.846,138.475 257.532,139.422 259.480 C 141.030 262.791,148.055 262.944,148.771 259.684 C 149.070 258.322,149.685 258.737,149.734 260.334 C 149.782 261.923,148.968 263.603,147.750 264.426 C 146.133 265.518,145.751 266.359,145.790 268.734 C 145.826 270.919,145.824 270.926,144.471 272.346 C 142.521 274.394,141.336 274.043,137.947 270.415 C 137.130 269.541,136.115 268.458,135.692 268.008 C 135.269 267.558,134.715 267.060,134.461 266.902 C 133.363 266.220,132.000 264.256,132.000 263.356 C 132.000 262.814,131.872 262.505,131.692 262.615 C 131.214 262.911,131.330 262.417,131.829 262.034 C 132.393 261.601,132.877 259.802,132.340 260.134 C 132.079 260.295,132.031 260.139,132.169 259.589 C 132.303 259.054,132.158 258.541,131.693 257.913 C 130.893 256.831,131.176 255.193,132.367 254.018 C 132.757 253.633,133.354 252.955,133.692 252.513 C 134.031 252.070,134.772 251.424,135.339 251.077 C 136.085 250.620,136.285 250.342,136.062 250.069 C 135.648 249.562,136.395 248.826,136.856 249.287 C 137.074 249.505,137.345 249.329,137.720 248.725 C 138.020 248.242,138.621 247.444,139.056 246.952 C 139.491 246.461,139.673 246.157,139.462 246.278 C 139.250 246.399,139.077 246.414,139.077 246.311 C 139.077 245.546,142.383 244.975,142.658 245.692 " stroke="none" fill="#cda38c" fill-rule="evenodd"></path></g></svg>
